<svg width="34" height="34" viewBox="0 0 34 34" fill="none" xmlns="http://www.w3.org/2000/svg">
<path d="M17 34C26.3888 34 34 26.3888 34 17C34 7.61116 26.3888 0 17 0C7.61116 0 0 7.61116 0 17C0 26.3888 7.61116 34 17 34Z" fill="#EFEFEF"/>
<path d="M28.892 4.8553C25.8295 1.85455 21.6284 0 16.9998 0C15.5187 0 11.1966 1.85197 8.12885 4.8553H28.8946H28.892Z" fill="#6B9D44"/>
<path d="M16.9999 14.5682H33.8273C33.5826 12.8553 33.0829 11.2223 32.3668 9.71289H16.2632L16.9999 14.5682Z" fill="#6B9D44"/>
<path d="M1.64052 24.284H32.3667C33.0828 22.7772 33.5825 21.1442 33.8272 19.4287H0.172333C0.41703 21.1416 0.916728 22.7746 1.64052 24.284Z" fill="#6B9D44"/>
<path d="M5.10754 29.1445C8.17012 32.1453 12.3712 33.9998 16.9998 33.9998C21.6285 33.9998 25.8321 32.1479 28.8921 29.1445H5.10497H5.10754Z" fill="#6B9D44"/>
<path d="M16.9998 0C8.4328 0 1.35462 6.33636 0.172348 14.5685H16.9998V0Z" fill="#CA1428"/>
<path d="M8.49938 13.0357L7.76271 11.5546V8.6002L9.60953 7.11914L11.4538 8.6002V10.8179L12.1982 10.0735V11.5546L10.7171 13.0357H8.49938Z" fill="#EFEFEF"/>
<path d="M4.52264 8.5L4.72097 9.1053H5.35203L4.83946 9.47621L5.04036 10.0738L4.52264 9.70288L4.01006 10.0738L4.21097 9.47621L3.69839 9.1053H4.32945L4.52264 8.5Z" fill="#EFEFEF"/>
<path d="M6.00397 7.01953L6.19457 7.62483H6.83336L6.32078 7.99574L6.51397 8.60105L6.00397 8.22756L5.49139 8.60105L5.68457 7.99574L5.172 7.62483H5.80306L6.00397 7.01953Z" fill="#EFEFEF"/>
<path d="M7.48479 5.5459L7.67539 6.14347H8.30645L7.79645 6.52211L7.99478 7.11969L7.48479 6.7462L6.96448 7.11969L7.16539 6.52211L6.65282 6.14347H7.28388L7.48479 5.5459Z" fill="#EFEFEF"/>
<path d="M14.6945 8.5L14.4962 9.1053H13.8651L14.3777 9.47621L14.1768 10.0738L14.6945 9.70288L15.2071 10.0738L15.0087 9.47621L15.5187 9.1053H14.8877L14.6945 8.5Z" fill="#EFEFEF"/>
<path d="M13.2135 7.01953L13.0151 7.62483H12.3841L12.8966 7.99574L12.7035 8.60105L13.2135 8.22756L13.726 8.60105L13.5328 7.99574L14.0454 7.62483H13.4066L13.2135 7.01953Z" fill="#EFEFEF"/>
<path d="M11.7347 5.5459L11.5415 6.14347H10.9105L11.4205 6.52211L11.2221 7.11969L11.7347 6.7462L12.2447 7.11969L12.0515 6.52211L12.5641 6.14347H11.933L11.7347 5.5459Z" fill="#EFEFEF"/>
<path d="M9.60956 4.80078L9.40865 5.40608H8.77759L9.29017 5.77699L9.09698 6.3823L9.60956 6.00881L10.1196 6.3823L9.92637 5.77699L10.439 5.40608H9.80016L9.60956 4.80078Z" fill="#EFEFEF"/>
</svg>
