<svg width="34" height="34" viewBox="0 0 34 34" fill="none" xmlns="http://www.w3.org/2000/svg">
<path d="M24.3925 1.68712C22.1567 0.605304 19.6505 0 17 0C14.3496 0 11.8433 0.605304 9.60757 1.68712L8.12909 17L9.60757 32.3129C11.8433 33.3947 14.3496 34 17 34C19.6505 34 22.1567 33.3947 24.3925 32.3129L25.8709 17L24.3925 1.68712Z" fill="#CA1428"/>
<path d="M9.60759 1.6875C3.92031 4.43841 0 10.2596 0 17.0004C0 23.7411 3.92288 29.5623 9.60759 32.3133V1.6875Z" fill="#040000"/>
<path d="M24.3923 1.6875V32.3133C30.0796 29.5623 33.9999 23.7411 33.9999 17.0004C33.9999 10.2596 30.077 4.43841 24.3923 1.6875Z" fill="#486C32"/>
<path d="M16.9999 11.0859C13.7338 11.0859 11.0859 13.7338 11.0859 16.9999C11.0859 20.2659 13.7338 22.9138 16.9999 22.9138C20.2659 22.9138 22.9138 20.2659 22.9138 16.9999C22.9138 13.7338 20.2659 11.0859 16.9999 11.0859ZM16.9999 20.6961C14.9599 20.6961 13.3036 19.0425 13.3036 16.9999C13.3036 14.9573 14.9573 13.3037 16.9999 13.3037C19.0424 13.3037 20.6961 14.9573 20.6961 16.9999C20.6961 19.0425 19.0424 20.6961 16.9999 20.6961Z" fill="#F4D24A"/>
<path d="M17 14.7822C16.1835 14.7822 15.5215 15.4442 15.5215 16.2607V18.4784H18.4785V16.2607C18.4785 15.4442 17.8165 14.7822 17 14.7822Z" fill="#F4D24A"/>
</svg>
