<svg width="34" height="34" viewBox="0 0 34 34" fill="none" xmlns="http://www.w3.org/2000/svg">
<path d="M33.4152 21.4357C33.7964 20.0216 33.9999 18.5354 33.9999 17.0002C33.9999 15.465 33.7964 13.9788 33.4152 12.5647L15.5228 0.0644531C12.2003 0.350365 9.15343 1.59189 6.65514 3.51342L0.589693 12.5673C0.20851 13.9814 0.0050354 15.4676 0.0050354 17.0028C0.0050354 18.5379 0.205929 20.0061 0.584537 21.4125L6.65772 30.4895C9.15601 32.4111 12.2055 33.65 15.5254 33.9385L33.4178 21.4383L33.4152 21.4357Z" fill="#F4D24A"/>
<path d="M0.587402 21.4355C1.57127 25.0854 3.73989 28.2485 6.65285 30.4894V21.4355H0.587402Z" fill="#064FA1"/>
<path d="M15.5227 33.9358C16.0095 33.977 16.504 34.0002 17.001 34.0002C24.8539 34.0002 31.4628 28.6735 33.4151 21.4355H15.5227V33.9358Z" fill="#064FA1"/>
<path d="M33.4151 12.5646C31.4654 5.32671 24.8565 0 17.001 0C16.504 0 16.0095 0.023182 15.5227 0.0643945V12.5646H33.4151Z" fill="#064FA1"/>
<path d="M6.65523 3.5127C3.73969 5.75362 1.57365 8.91668 0.589783 12.5666H6.65523V3.5127Z" fill="#064FA1"/>
<path d="M33.8558 14.7823H13.3054V0.404297C11.7343 0.752027 10.2456 1.31612 8.87024 2.06825V14.7849H0.144231C0.0489351 15.5112 0 16.2505 0 17.0026C0 17.7547 0.0489351 18.494 0.144231 19.2204H8.87024V31.937C10.2456 32.6865 11.7343 33.2506 13.3054 33.6009V19.2229H33.8558C33.9511 18.4966 34 17.7573 34 17.0052C34 16.2531 33.9511 15.5138 33.8558 14.7874V14.7823Z" fill="#CA1428"/>
</svg>
