<svg width="34" height="34" viewBox="0 0 34 34" fill="none" xmlns="http://www.w3.org/2000/svg">
<path d="M17 34C26.3888 34 34 26.3888 34 17C34 7.61116 26.3888 0 17 0C7.61116 0 0 7.61116 0 17C0 26.3888 7.61116 34 17 34Z" fill="#CA1428"/>
<path d="M26.6076 12.6178H20.4489C20.8301 12.2186 21.062 11.6803 21.062 11.0878C21.062 9.86436 20.0703 8.87012 18.8442 8.87012C18.0715 8.87012 17.3941 9.26421 16.9974 9.86178C16.6007 9.26421 15.9207 8.87012 15.1506 8.87012C13.9271 8.87012 12.9329 9.86178 12.9329 11.0878C12.9329 11.6828 13.1672 12.2212 13.5459 12.6178H7.38727C7.38727 14.2509 8.80908 15.5748 10.4421 15.5748H10.3442C10.3442 17.2078 11.6682 18.5318 13.3012 18.5318C13.3012 19.0598 13.4403 19.5569 13.685 19.9845L11.2329 22.4366L13.1132 24.3169L15.7817 21.6484C15.8873 21.6871 15.9954 21.718 16.1062 21.7386L14.4938 25.3807L16.9974 28.0878L19.501 25.3807L17.8886 21.7386C17.9994 21.718 18.1075 21.6871 18.2132 21.6484L20.8816 24.3169L22.762 22.4366L20.3098 19.9845C20.5519 19.5544 20.6936 19.0598 20.6936 18.5318C22.3266 18.5318 23.6506 17.2078 23.6506 15.5748H23.5527C25.1857 15.5748 26.6076 14.2509 26.6076 12.6178Z" fill="#040000"/>
</svg>
