<svg width="34" height="34" viewBox="0 0 34 34" fill="none" xmlns="http://www.w3.org/2000/svg">
<path d="M16.9999 0C26.3886 0 34 7.61136 34 17C34 26.3886 26.3886 34 16.9999 34C16.9999 33.2608 14.7822 17 14.7822 17L16.9999 0Z" fill="#EFEFEF"/>
<path d="M17.0001 34C7.61142 34 0 26.3886 0 17C0 7.61136 7.61142 0 17.0001 0" fill="#486C32"/>
<path d="M20.6525 13.7393L19.259 15.6608L17 14.9293L18.3961 16.8482L17 18.7723L19.259 18.0356L20.6576 19.9571L20.655 17.5823L22.914 16.8456L20.655 16.1141L20.6525 13.7393Z" fill="#CA1428"/>
<path d="M18.4113 21.8037C15.7583 21.8037 13.6075 19.6529 13.6075 16.9999C13.6075 14.3468 15.7583 12.1961 18.4113 12.1961C19.2382 12.1961 20.016 12.4047 20.6961 12.7731C19.6297 11.7299 18.1718 11.0859 16.562 11.0859C13.2959 11.0859 10.6479 13.7338 10.6479 16.9999C10.6479 20.2659 13.2959 22.9138 16.562 22.9138C18.1718 22.9138 19.6297 22.2699 20.6961 21.2267C20.016 21.595 19.2382 21.8037 18.4113 21.8037Z" fill="#CA1428"/>
</svg>
