<svg width="34" height="34" viewBox="0 0 34 34" fill="none" xmlns="http://www.w3.org/2000/svg">
<path d="M17.0002 33.9999C26.3889 33.9999 34 26.3888 34 17C34 7.61114 26.3889 0 17.0002 0C7.61145 0 0.000366211 7.61114 0.000366211 17C0.000366211 26.3888 7.61145 33.9999 17.0002 33.9999Z" fill="#EFEFEF"/>
<path d="M25.2476 2.13272C22.8058 0.775301 19.9931 0 17.0001 0C7.61153 0 0.000244141 7.60877 0.000244141 16.9974L11.8254 11.086L25.2476 2.13272Z" fill="#064FA1"/>
<path d="M0 17.0029C0 26.3915 7.61129 34.0003 16.9998 34.0003C19.9928 34.0003 22.8055 33.225 25.2473 31.8676L11.8252 22.9143L0 17.0029Z" fill="#064FA1"/>
<path d="M26.664 3.01372C26.2081 2.6969 25.7341 2.40327 25.2473 2.13281L0 16.9975V17.0026L25.2473 31.8673C25.7341 31.5968 26.2081 31.3032 26.664 30.9864L2.91059 17L26.664 3.01372Z" fill="#CA1428"/>
<path d="M29.5646 16.3663H27.5401C28.0655 15.7353 28.0346 14.7926 27.4422 14.2001C28.0707 13.5717 28.0707 12.5542 27.4422 11.9258L27.4035 11.9644C28.032 11.3359 28.0707 10.2799 27.4422 9.65137L18.3421 18.7515C18.9706 19.38 19.9725 19.3722 20.5984 18.7438L20.7736 18.5841L25.1317 18.1874V20.0625H26.6102V18.0535L28.8279 17.8526L29.5672 16.3663H29.5646Z" fill="#981E23"/>
<path d="M18.4785 20.6963L17 19.957L18.4785 19.2178H28.0885V20.6963H18.4785Z" fill="#F4D24A"/>
</svg>
