<svg width="34" height="34" viewBox="0 0 34 34" fill="none" xmlns="http://www.w3.org/2000/svg">
<path d="M9.60756 32.3129C11.8433 33.3947 14.3495 34 16.9999 34C19.6504 34 22.1566 33.3947 24.3923 32.3129L25.8708 17L24.3923 1.68712C22.1566 0.605304 19.6504 0 16.9999 0C14.3495 0 11.8433 0.605304 9.60756 1.68712L8.12909 17L9.60756 32.3129Z" fill="#F4D24A"/>
<path d="M24.3925 32.3133C30.0798 29.5649 34.0001 23.7411 34.0001 17.0004C34.0001 10.2596 30.0772 4.43841 24.3925 1.6875V32.3133Z" fill="#CA1428"/>
<path d="M9.60753 32.3133V1.6875C3.92029 4.43583 0 10.2596 0 17.0004C0 23.7411 3.92287 29.5623 9.60753 32.3133Z" fill="#064FA1"/>
<path d="M17.0001 22.9139V17H21.4355V19.2177C21.4355 19.6041 20.6963 21.0156 18.8726 22.1747C18.1823 22.6152 17.4663 22.7542 17.0001 22.9139Z" fill="#CA1428"/>
<path d="M16.9999 12.5645H12.5645V16.9999H16.9999V12.5645Z" fill="#CA1428"/>
<path d="M19.2178 11.0859C19.2178 10.2694 18.5558 9.60742 17.7393 9.60742C17.4688 9.60742 17.219 9.67954 17 9.80575C16.7837 9.67954 16.5312 9.60742 16.2607 9.60742C15.4442 9.60742 14.7823 10.2694 14.7823 11.0859H11.0861V18.4783C11.0861 21.2292 13.2703 22.8211 14.9858 23.6453C14.857 23.8642 14.7823 24.1192 14.7823 24.3897C14.7823 25.2062 15.4442 25.8682 16.2607 25.8682C16.5312 25.8682 16.7811 25.7961 17 25.6698C17.2164 25.7961 17.4688 25.8682 17.7393 25.8682C18.5558 25.8682 19.2178 25.2062 19.2178 24.3897C19.2178 24.1167 19.1431 23.8642 19.0143 23.6453C20.7271 22.8211 22.9139 21.2292 22.9139 18.4783V11.0859H19.2178ZM20.6962 18.4783C20.6962 18.8647 20.6962 20.0367 18.8726 21.1958C18.1823 21.6362 17.4662 21.9195 17 22.0792C16.5338 21.9221 15.8203 21.6362 15.1274 21.1958C13.3038 20.0367 13.3038 18.8647 13.3038 18.4783V13.3036H20.6962V18.4783Z" fill="#F1921F"/>
</svg>
