<svg width="34" height="34" viewBox="0 0 34 34" fill="none" xmlns="http://www.w3.org/2000/svg">
<path d="M0 17.0001C0 7.6114 7.61136 0 17 0C26.3886 0 34 7.6114 34 17.0001C33.2608 17.0001 17 19.2178 17 19.2178L0 17.0001Z" fill="#CA1428"/>
<path d="M34 17C34 26.3887 26.3886 34.0001 17 34.0001C7.61136 34.0001 0 26.3887 0 17" fill="#040000"/>
<path d="M14.669 13.521L16.1115 14.5668L15.5602 16.2616L17.0001 15.2133L18.4425 16.2591L17.8913 14.5668L19.3312 13.5185L17.5513 13.521L17.0001 11.8262L16.4489 13.521H14.669Z" fill="#F4D24A"/>
<path d="M21.25 9.63886C19.9106 8.86613 18.445 8.50037 17 8.50294V10.7207C18.0689 10.7207 19.1507 10.9886 20.1424 11.5604C23.1432 13.2913 24.1735 17.1421 22.4425 20.1429C20.7116 23.1436 16.8609 24.1739 13.8602 22.443C12.987 21.9382 12.2812 21.253 11.7609 20.4622L9.90894 21.6832C10.6121 22.7521 11.5677 23.6794 12.75 24.362C16.8094 26.7059 22.0176 25.3099 24.3615 21.2504C26.7055 17.191 25.3094 11.9828 21.25 9.63886Z" fill="#F4D24A"/>
<path d="M12.0983 15.5225C11.511 16.5966 11.9051 17.9437 12.9791 18.531L20.181 22.4667C19.6916 23.3631 19.9517 24.4527 20.8455 24.9421L22.7902 26.0059C23.6866 26.4952 24.8096 26.1655 25.299 25.2718L26.3628 23.327L12.0957 15.5225H12.0983Z" fill="#F4D24A"/>
</svg>
