<svg width="34" height="34" viewBox="0 0 34 34" fill="none" xmlns="http://www.w3.org/2000/svg">
<path d="M34 17C34 26.3886 26.3886 34 17 34C7.61136 34 0 26.3886 0 17C0 17.0052 17 0.00257576 17 0C26.3886 0 34 7.61136 34 17Z" fill="#064FA1"/>
<path d="M16.9537 17.0006H17.0002V16.9541C16.9847 16.9696 16.9692 16.9851 16.9537 17.0006Z" fill="#EFEFEF"/>
<path d="M17 8.86833V0H16.9974C7.60879 0 0 7.61136 0 17H8.86832V12.0056L13.8627 17H16.9537L17 16.9536V13.8627L12.0056 8.86833H17Z" fill="#EFEFEF"/>
<path d="M8.60075 2.21777C5.94257 3.73232 3.73262 5.94232 2.21808 8.6005V17H6.65353V6.65323H17.0003V2.21777H8.60075Z" fill="#CA1428"/>
<path d="M17.0005 14.9083L10.9603 8.86816H8.86877L16.9979 16.9998V14.9083H17.0005Z" fill="#CA1428"/>
<path d="M28.7507 19.488C29.2401 18.8157 29.5672 17.9941 29.5672 16.9998V9.60741C28.949 10.071 28.1814 10.3466 27.3495 10.3466C26.1414 10.3466 25.0673 9.7671 24.3925 8.86816C23.7176 9.76453 22.6461 10.3466 21.4355 10.3466C20.6036 10.3466 19.836 10.071 19.2178 9.60741V16.9998C19.2178 17.9941 19.5449 18.8157 20.0343 19.488H28.7507Z" fill="#F2F2F2"/>
<path d="M27.213 15.6301C27.4474 15.0557 27.6303 14.216 27.6303 13.7988C27.6303 13.1265 26.7545 12.583 26.7545 12.583C26.7545 12.583 25.8787 13.1265 25.8787 13.7988C25.8787 14.216 26.0616 15.0557 26.296 15.6301L25.7911 16.7712C26.0873 16.8923 26.412 16.9592 26.752 16.9592C27.092 16.9592 27.4165 16.8923 27.7127 16.7712L27.2078 15.6301H27.213Z" fill="#F1921F"/>
<path d="M23.7924 11.9355C23.1768 12.0179 22.3602 12.2806 21.997 12.4893C21.4149 12.8241 21.3815 13.8544 21.3815 13.8544C21.3815 13.8544 22.2907 14.3412 22.8703 14.0038C23.2309 13.7952 23.867 13.2182 24.2457 12.7262L25.4846 12.5923C25.4408 12.2755 25.3352 11.9612 25.1652 11.665C24.9952 11.3714 24.7737 11.1215 24.5213 10.9258L23.7872 11.9329L23.7924 11.9355Z" fill="#F1921F"/>
<path d="M22.306 16.7451C22.6846 17.2345 23.3208 17.8141 23.6814 18.0227C24.2635 18.3576 25.1702 17.8733 25.1702 17.8733C25.1702 17.8733 25.1368 16.843 24.5546 16.5082C24.194 16.2995 23.3749 16.0394 22.7593 15.9544L22.0252 14.9473C21.7728 15.143 21.5513 15.3929 21.3813 15.6865C21.2113 15.9801 21.1083 16.297 21.0619 16.6138L22.3008 16.7477L22.306 16.7451Z" fill="#F1921F"/>
<path d="M19.8489 19.2178C21.2295 21.4329 24.39 22.1747 24.39 22.1747C24.39 22.1747 27.5505 21.4329 28.9311 19.2178H19.8489Z" fill="#3F7EC0"/>
</svg>
