<svg width="34" height="34" viewBox="0 0 34 34" fill="none" xmlns="http://www.w3.org/2000/svg">
<path d="M0 16.9999C0 18.1642 0.118502 19.3026 0.340018 20.3999L17 21.4354L33.66 20.3999C33.8841 19.3026 34 18.1642 34 16.9999C34 15.8357 33.8815 14.6972 33.66 13.5999L17 12.5645L0.340018 13.5999C0.115927 14.6972 0 15.8357 0 16.9999Z" fill="#064FA1"/>
<path d="M33.6601 20.4004H0.340088C1.91645 28.1612 8.77568 34.0004 17.0001 34.0004C25.2245 34.0004 32.0837 28.1612 33.6601 20.4004Z" fill="#EFEFEF"/>
<path d="M0.340088 13.6H33.6601C32.0837 5.83925 25.2245 0 17.0001 0C8.77568 0 1.91645 5.83925 0.340088 13.6Z" fill="#040000"/>
<path d="M24.3924 13.5992H9.6076L12.629 12.1774L11.0217 9.2539L14.3006 9.87981L14.7153 6.56738L17 9.00405L19.2847 6.56738L19.6994 9.87981L22.9783 9.2539L21.3711 12.1774L24.3924 13.5992Z" fill="#F4D24A"/>
<path d="M0 16.9998C0 26.3885 7.61136 33.9998 17 33.9998L3.39999 6.7998C1.26468 9.64087 0 13.1722 0 16.9998Z" fill="#981E23"/>
<path d="M17 33.9998C26.3886 33.9998 34 26.3885 34 16.9998C34 13.1722 32.7353 9.64087 30.6 6.7998L17 33.9998Z" fill="#981E23"/>
</svg>
