<svg width="34" height="34" viewBox="0 0 34 34" fill="none" xmlns="http://www.w3.org/2000/svg">
<path d="M17 34C26.3888 34 34 26.3888 34 17C34 7.61116 26.3888 0 17 0C7.61116 0 0 7.61116 0 17C0 26.3888 7.61116 34 17 34Z" fill="#EFEFEF"/>
<path d="M16.9997 0C10.259 0 4.43516 3.92288 1.68683 9.60757H32.3126C29.5617 3.9203 23.7405 0 16.9997 0Z" fill="#3F7EC0"/>
<path d="M16.9998 33.9992C23.7405 33.9992 29.5643 30.0763 32.3126 24.3916H1.68689C4.4378 30.0789 10.259 33.9992 16.9998 33.9992Z" fill="#3F7EC0"/>
<path d="M22.0817 16.9997L20.0056 17.9759L21.1106 19.9876L18.8568 19.5549L18.5709 21.8344L16.9997 20.1576L15.4285 21.8344L15.1426 19.5549L12.8888 19.9876L13.9938 17.9759L11.9177 16.9997L13.9938 16.0235L12.8888 14.0119L15.1426 14.4446L15.4285 12.165L16.9997 13.8419L18.5709 12.165L18.8568 14.4446L21.1106 14.0119L20.0056 16.0235L22.0817 16.9997Z" fill="#F4D24A"/>
</svg>
