<svg width="34" height="34" viewBox="0 0 34 34" fill="none" xmlns="http://www.w3.org/2000/svg">
<path d="M34 16.9999C34 14.9213 33.6265 12.9276 32.9414 11.0859L17 10.3467L1.05863 11.0859C0.376057 12.9276 0 14.9187 0 16.9999C0 19.0812 0.373481 21.0723 1.05863 22.9139L17 23.6532L32.9414 22.9139C33.6239 21.0723 34 19.0812 34 16.9999Z" fill="#064FA1"/>
<path d="M16.9999 34.0003C24.3099 34.0003 30.5407 29.387 32.9413 22.9141H1.05597C3.45915 29.387 9.6899 34.0003 16.9973 34.0003H16.9999Z" fill="#F1921F"/>
<path d="M1.05835 11.0862H32.9437C30.5405 4.61324 24.3097 0 17.0023 0C9.69487 0 3.46153 4.61324 1.06093 11.0862H1.05835Z" fill="#CA1428"/>
</svg>
