<svg width="34" height="34" viewBox="0 0 34 34" fill="none" xmlns="http://www.w3.org/2000/svg">
<path d="M17 34C26.3888 34 34 26.3888 34 17C34 7.61116 26.3888 0 17 0C7.61116 0 0 7.61116 0 17C0 26.3888 7.61116 34 17 34Z" fill="#F4D24A"/>
<path d="M16.9998 33.9999C22.1513 33.9999 26.7696 31.7075 29.8863 28.0859H4.11325C7.22992 31.7075 11.8483 33.9999 16.9998 33.9999Z" fill="#3F7EC0"/>
<path d="M34 17C34 7.61136 26.3886 0 17 0C7.61136 0 0 7.61136 0 17C0 18.5352 0.20349 20.0214 0.584702 21.4355H33.4127C33.7939 20.0214 33.9974 18.5352 33.9974 17H34Z" fill="#3F7EC0"/>
<path d="M1.35237 23.6533C1.67949 24.4235 2.06328 25.1627 2.49601 25.8711H31.5068C31.9395 25.1653 32.3233 24.4235 32.6504 23.6533H1.35237Z" fill="#3F7EC0"/>
<path d="M7.79161 12.1289L4.46887 10.6633L7.79161 9.19773L9.25721 5.875L10.7228 9.19773L14.043 10.6633L10.7228 12.1289L9.25721 15.4491L7.79161 12.1289Z" fill="#EFEFEF"/>
<path d="M9.25704 7.70703L10.1611 9.75733L12.2114 10.664L10.1611 11.5681L9.25704 13.621L8.35037 11.5681L6.30008 10.664L8.35037 9.75733L9.25704 7.70703Z" fill="#CA1428"/>
</svg>
