<svg width="34" height="34" viewBox="0 0 34 34" fill="none" xmlns="http://www.w3.org/2000/svg">
<path d="M34 17C34 26.3886 26.3886 34 17 34C7.61136 34 0 26.3886 0 17C0 17.0052 17 0.00257576 17 0C26.3886 0 34 7.61136 34 17Z" fill="#064FA1"/>
<path d="M16.9537 16.9997H17.0002V16.9531C16.9847 16.9686 16.9692 16.9842 16.9537 16.9997Z" fill="#EFEFEF"/>
<path d="M17 8.86833V0H16.9974C7.60879 0 0 7.61136 0 17H8.86835V12.0056L13.8627 17H16.9536C16.9691 16.9845 16.9845 16.9691 17 16.9536V13.8627L12.0056 8.86833H17Z" fill="#EFEFEF"/>
<path d="M8.6008 2.2168C5.94262 3.73134 3.73261 5.94135 2.21806 8.59953V16.9991H6.65351V6.65225H17.0003V2.2168H8.6008Z" fill="#CA1428"/>
<path d="M17 14.9083L10.9599 8.86816H8.86835L16.9974 16.9973V14.9057L17 14.9083Z" fill="#CA1428"/>
<path d="M10.2541 19.9561L11.1865 21.9059L13.2934 21.4191L12.3481 23.3664L14.043 24.7083L11.9334 25.1848L11.9386 27.3459L10.2541 25.9936L8.56693 27.3459L8.57209 25.1848L6.46252 24.7083L8.15739 23.3664L7.21208 21.4191L9.31906 21.9059L10.2541 19.9561Z" fill="#EFEFEF"/>
<path d="M25.4537 23.6523L25.92 24.626L26.9734 24.3839L26.4995 25.3549L27.3469 26.0272L26.2934 26.2667L26.296 27.346L25.4537 26.6711L24.6089 27.346L24.6115 26.2667L23.558 26.0272L24.4054 25.3549L23.9315 24.3839L24.985 24.626L25.4537 23.6523Z" fill="#EFEFEF"/>
<path d="M21.1133 13.3027L21.5795 14.2789L22.633 14.0342L22.1617 15.0079L23.0091 15.6802L21.953 15.9171L21.9556 16.9989L21.1133 16.3215L20.2685 16.9989L20.271 15.9171L19.2176 15.6802L20.065 15.0079L19.5936 14.0342L20.6471 14.2789L21.1133 13.3027Z" fill="#EFEFEF"/>
<path d="M25.4537 7.3916L25.92 8.36524L26.9734 8.12312L26.4995 9.09417L27.3469 9.76645L26.2934 10.006L26.296 11.0852L25.4537 10.4104L24.6089 11.0852L24.6115 10.006L23.558 9.76645L24.4054 9.09417L23.9315 8.12312L24.985 8.36524L25.4537 7.3916Z" fill="#EFEFEF"/>
<path d="M29.2426 11.8242L29.7088 12.8004L30.7623 12.5557L30.2909 13.5294L31.1384 14.2016L30.0849 14.4386L30.0875 15.5204L29.2426 14.843L28.4003 15.5204L28.4029 14.4386L27.3469 14.2016L28.1943 13.5294L27.7229 12.5557L28.7764 12.8004L29.2426 11.8242Z" fill="#EFEFEF"/>
<path d="M26.5328 17L26.8985 18.1282H28.0859L27.1252 18.8262L27.4935 19.957L26.5328 19.2589L25.572 19.957L25.9377 18.8262L24.977 18.1282H26.1644L26.5328 17Z" fill="#EFEFEF"/>
</svg>
