<svg width="34" height="34" viewBox="0 0 34 34" fill="none" xmlns="http://www.w3.org/2000/svg">
<path d="M32.9414 22.9139C33.6239 21.0722 34 19.0812 34 16.9999C34 14.9187 33.6265 12.9276 32.9414 11.0859L17 9.60742L1.05863 11.0859C0.376057 12.9276 0 14.9187 0 16.9999C0 19.0812 0.373481 21.0722 1.05863 22.9139L17 24.3924L32.9414 22.9139Z" fill="#EFEFEF"/>
<path d="M17.0001 34.0002C24.3101 34.0002 30.5409 29.387 32.9415 22.9141H1.05615C3.45933 29.387 9.69009 34.0002 16.9975 34.0002H17.0001Z" fill="#CA1428"/>
<path d="M17.0004 0C9.69036 0 3.4596 4.61323 1.05899 11.0862H32.9443C30.5411 4.61323 24.3104 0 17.0029 0H17.0004Z" fill="#CA1428"/>
</svg>
