<svg width="34" height="34" viewBox="0 0 34 34" fill="none" xmlns="http://www.w3.org/2000/svg">
<path d="M34 16.9999C34 14.9213 33.6265 12.9276 32.9414 11.0859L17 10.3467L1.05863 11.0859C0.376057 12.9276 0 14.9187 0 16.9999C0 19.0812 0.373481 21.0723 1.05863 22.9139L17 23.6532L32.9414 22.9139C33.6239 21.0723 34 19.0812 34 16.9999Z" fill="#CA1428"/>
<path d="M17.0003 34.0003C24.3103 34.0003 30.5411 29.387 32.9417 22.9141H1.0564C3.45958 29.387 9.69034 34.0003 16.9978 34.0003H17.0003Z" fill="#6B9D44"/>
<path d="M1.05878 11.0862H32.9441C30.5409 4.61324 24.3101 0 17.0027 0C9.6953 0 3.46196 4.61324 1.06136 11.0862H1.05878Z" fill="#3F7EC0"/>
<path d="M17.3684 21.8038C14.7154 21.8038 12.5646 19.653 12.5646 16.9999C12.5646 14.3469 14.7154 12.1961 17.3684 12.1961C18.1953 12.1961 18.9731 12.4047 19.6531 12.7731C18.5868 11.7299 17.1289 11.0859 15.519 11.0859C12.253 11.0859 9.6051 13.7338 9.6051 16.9999C9.6051 20.266 12.253 22.914 15.519 22.914C17.1289 22.914 18.5868 22.27 19.6531 21.2268C18.9731 21.5952 18.1953 21.8038 17.3684 21.8038Z" fill="#EFEFEF"/>
<path d="M21.0648 13.6748L21.701 15.465L23.4165 14.6485L22.6026 16.3639L24.3927 17.0001L22.6026 17.6364L23.4165 19.3518L21.701 18.5353L21.0648 20.3255L20.4286 18.5353L18.7132 19.3518L19.5297 17.6364L17.7395 17.0001L19.5297 16.3639L18.7132 14.6485L20.4286 15.465L21.0648 13.6748Z" fill="#EFEFEF"/>
</svg>
