<svg width="34" height="34" viewBox="0 0 34 34" fill="none" xmlns="http://www.w3.org/2000/svg">
<path d="M17.0004 34C26.389 34 34 26.3888 34 17C34 7.61116 26.389 0 17.0004 0C7.61174 0 0.000732422 7.61116 0.000732422 17C0.000732422 26.3888 7.61174 34 17.0004 34Z" fill="#EFEFEF"/>
<path d="M0 16.9997C0 23.4442 3.58537 29.0491 8.86814 31.9313V2.06543C3.58279 4.9477 0 10.5551 0 16.9971V16.9997Z" fill="#CA1428"/>
<path d="M0 16.9996C0 24.8531 5.32657 31.4625 12.5643 33.415V0.586914C5.32657 2.53676 0 9.14616 0 17.0022V16.9996Z" fill="#064FA1"/>
<path d="M6.09688 5.91406V8.68558C6.09688 10.0636 7.21478 11.1789 8.59021 11.1789C9.96563 11.1789 11.0835 10.061 11.0835 8.68558V5.91406H6.0943H6.09688Z" fill="#CA1428"/>
<path d="M8.59256 9.7001C8.03105 9.7001 7.5751 9.24419 7.5751 8.68268V7.38965H9.60737V8.68268C9.60737 9.24419 9.15148 9.7001 8.58998 9.7001H8.59256Z" fill="#EFEFEF"/>
<path d="M18.4782 17.7392H14.0428C14.0428 16.9227 13.3809 16.2607 12.5644 16.2607C11.7479 16.2607 11.0859 16.9227 11.0859 17.7392H6.65057C6.65057 18.5557 7.36145 19.2177 8.17795 19.2177H8.12903C8.12903 20.0342 8.79098 20.6962 9.60748 20.6962C9.60748 21.5127 10.2694 22.1747 11.0859 22.1747H14.0428C14.8593 22.1747 15.5213 21.5127 15.5213 20.6962C16.3378 20.6962 16.9997 20.0342 16.9997 19.2177H16.9508C17.7673 19.2177 18.4782 18.5557 18.4782 17.7392Z" fill="#F4D24A"/>
<path d="M19.086 15.3744L18.6971 15.9952L19.1684 16.5567L18.4575 16.379L18.0686 16.9997L18.017 16.2682L17.3062 16.0905L17.9862 15.8175L17.9346 15.0859L18.406 15.6475L19.086 15.3744Z" fill="#F4D24A"/>
<path d="M16.822 13.4736L16.6674 14.1897L17.3036 14.5555L16.5747 14.6327L16.4227 15.3488L16.124 14.6791L15.395 14.7564L15.941 14.267L15.6423 13.5973L16.2759 13.963L16.822 13.4736Z" fill="#F4D24A"/>
<path d="M14.0426 12.4619L14.1456 13.1883L14.8668 13.3145L14.2074 13.6365L14.3105 14.3628L13.8005 13.8348L13.1437 14.1568L13.4863 13.5102L12.9788 12.9822L13.7 13.1084L14.0426 12.4619Z" fill="#F4D24A"/>
<path d="M11.0857 12.4619L11.4308 13.1084L12.152 12.9822L11.642 13.5102L11.9872 14.1568L11.3278 13.8348L10.8204 14.3628L10.9208 13.6365L10.264 13.3145L10.9852 13.1883L11.0857 12.4619Z" fill="#F4D24A"/>
<path d="M8.30902 13.4736L8.85252 13.963L9.48871 13.5973L9.18989 14.267L9.73339 14.7564L9.00445 14.6791L8.70827 15.3488L8.55628 14.6327L7.82733 14.5555L8.46101 14.1897L8.30902 13.4736Z" fill="#F4D24A"/>
<path d="M6.04515 15.3744L6.72517 15.6475L7.1939 15.0859L7.14498 15.8175L7.82242 16.0931L7.11153 16.2682L7.05996 16.9997L6.6736 16.379L5.96271 16.5567L6.43408 15.9952L6.04515 15.3744Z" fill="#F4D24A"/>
</svg>
