<svg width="34" height="34" viewBox="0 0 34 34" fill="none" xmlns="http://www.w3.org/2000/svg">
<path d="M16.9999 34C26.3887 34 33.9999 26.3888 33.9999 17C33.9999 7.61116 26.3887 0 16.9999 0C7.61104 0 -0.00012207 7.61116 -0.00012207 17C-0.00012207 26.3888 7.61104 34 16.9999 34Z" fill="#F4D24A"/>
<path d="M10.3468 11.0861H32.9413C30.5381 4.61318 24.3074 0 17 0C12.3044 0 8.05697 1.90348 4.97894 4.97894L10.3468 11.0861Z" fill="#3F7EC0"/>
<path d="M10.3467 22.9141H32.9413C30.5381 29.3869 24.3073 34.0001 16.9999 34.0001C12.3043 34.0001 8.05691 32.0966 4.97888 29.0212L10.3467 22.9141Z" fill="#3F7EC0"/>
<path d="M4.97897 4.97852C-1.65876 11.6162 -1.65876 22.3803 4.97897 29.0206C7.72215 26.2775 10.3597 23.6399 17 16.9996L4.97897 4.97852Z" fill="#040000"/>
</svg>
