<svg width="34" height="34" viewBox="0 0 34 34" fill="none" xmlns="http://www.w3.org/2000/svg">
<path d="M16.9999 33.9998C26.3886 33.9998 33.9998 26.3886 33.9998 16.9999C33.9998 7.6111 26.3886 0 16.9999 0C7.6111 0 0 7.6111 0 16.9999C0 26.3886 7.6111 33.9998 16.9999 33.9998Z" fill="#EFEFEF"/>
<path d="M17.0002 0C13.5873 0 10.4114 1.00454 7.75071 2.73543L12.1217 5.66663L6.65344 8.49994L12.1217 11.3333L6.65344 14.1666L12.1217 16.9999L6.65344 19.8332L12.1217 22.6665L6.65344 25.4998L12.1217 28.3331L7.74813 31.2643C10.4114 32.9952 13.5873 33.9998 17.0002 33.9998C26.3887 33.9998 34 26.3884 34 16.9999C34 7.61131 26.3887 0 17.0002 0Z" fill="#CA1428"/>
</svg>
