<svg width="34" height="34" viewBox="0 0 34 34" fill="none" xmlns="http://www.w3.org/2000/svg">
<path d="M17 0C26.3886 0 34 7.61136 34 17C34 26.3886 26.3886 34 17 34C7.61136 34 0 26.3886 0 17" fill="#F4D24A"/>
<path d="M16.632 7.555H31.1386C30.183 6.12803 29.0188 4.85561 27.6871 3.77637H16.6345V7.555H16.632Z" fill="#CA1428"/>
<path d="M16.632 15.1116H33.8973C33.753 13.8006 33.4594 12.5359 33.0344 11.333H16.6345V15.1116H16.632Z" fill="#CA1428"/>
<path d="M0.968495 22.6673H33.0315C33.4565 21.4644 33.7502 20.1997 33.8944 18.8887H0.105591C0.249833 20.1997 0.543495 21.4644 0.968495 22.6673Z" fill="#CA1428"/>
<path d="M6.31595 30.222H27.6844C29.0161 29.1453 30.1803 27.8703 31.1359 26.4434H2.86188C3.81748 27.8703 4.9817 29.1427 6.31337 30.222H6.31595Z" fill="#CA1428"/>
<path d="M17 0C7.61136 0 0 7.61136 0 17C3.87909 17 7.61136 17 17 17V0Z" fill="#45265D"/>
<path d="M14.043 8.86751V10.346H13.3038V8.86751H11.8253V10.346H11.0861V7.3916H8.13168V10.346H7.3924V8.86751H5.91392V10.346H5.17471V8.86751H3.69623V13.303H15.5215V8.86751H14.043Z" fill="#EFEFEF"/>
</svg>
