<svg width="34" height="34" viewBox="0 0 34 34" fill="none" xmlns="http://www.w3.org/2000/svg">
<path d="M24.3924 1.68712C22.1567 0.6053 19.6505 0 17 0C14.3495 0 11.8433 0.6053 9.60757 1.68712L8.12909 17L9.60757 32.3129C11.8433 33.3947 14.3495 34 17 34C19.6505 34 22.1567 33.3947 24.3924 32.3129L25.8709 17L24.3924 1.68712Z" fill="#F4D24A"/>
<path d="M9.60757 1.6875C3.9203 4.43583 0 10.2596 0 17.0004C0 23.7411 3.92288 29.5624 9.60757 32.3133V1.6875Z" fill="#064FA1"/>
<path d="M24.3923 1.6875V32.3133C30.0795 29.5649 33.9998 23.7411 33.9998 17.0004C33.9998 10.2596 30.077 4.43841 24.3923 1.6875Z" fill="#064FA1"/>
<path d="M22.1744 10.347L21.1827 9.85246C21.1234 9.97094 19.8278 12.6059 19.6166 16.6319H18.1098V10.3496L17.0022 8.87109L15.8947 10.3496V16.6319H14.3878C14.1766 12.6085 12.881 9.97352 12.8218 9.85246L10.8384 10.8441C10.8513 10.8725 12.1984 13.6131 12.1984 17.7394V18.847H15.8947V25.1293H18.1124V18.847H21.8086V17.7394C21.8086 15.6067 22.1769 13.8475 22.486 12.7476C22.8234 11.5473 23.166 10.8467 23.1686 10.8416L22.1769 10.347H22.1744Z" fill="#040000"/>
</svg>
