<svg width="34" height="34" viewBox="0 0 34 34" fill="none" xmlns="http://www.w3.org/2000/svg">
<path d="M17 34C26.3888 34 34 26.3888 34 17C34 7.61116 26.3888 0 17 0C7.61116 0 0 7.61116 0 17C0 26.3888 7.61116 34 17 34Z" fill="#EFEFEF"/>
<path d="M0.144043 19.2168C0.54071 22.2536 1.73587 25.0354 3.51572 27.3485L12.5669 19.2168H0.146621H0.144043Z" fill="#CA1428"/>
<path d="M14.782 33.8549V21.4346L6.65033 30.4858C8.96336 32.2631 11.7478 33.4608 14.782 33.8575V33.8549Z" fill="#CA1428"/>
<path d="M14.782 0.143555C11.7452 0.540221 8.96336 1.73538 6.65033 3.51523L14.782 12.5664V0.146133V0.143555Z" fill="#CA1428"/>
<path d="M0.144043 14.7811H12.5644L3.51314 6.64941C1.73587 8.96244 0.538134 11.7468 0.144043 14.7811Z" fill="#CA1428"/>
<path d="M19.2173 0.14418V12.5645L27.349 3.51328C25.0359 1.736 22.2515 0.538268 19.2173 0.141602V0.14418Z" fill="#CA1428"/>
<path d="M33.8556 14.7811C33.4589 11.7443 32.2638 8.96244 30.4839 6.64941L21.4327 14.7811H33.853H33.8556Z" fill="#CA1428"/>
<path d="M21.4354 19.2168L30.4866 27.3485C32.2639 25.0354 33.4616 22.251 33.8583 19.2168H21.4379H21.4354Z" fill="#CA1428"/>
<path d="M19.2173 33.8555C22.2541 33.4588 25.0359 32.2637 27.349 30.4838L19.2173 21.4326V33.8529V33.8555Z" fill="#CA1428"/>
<path d="M30.4863 27.3523L20.1344 17.0003L30.4863 6.64836C30.0407 6.06882 29.5513 5.50988 29.0207 4.97928C28.4901 4.44867 27.9312 3.95928 27.3516 3.51367L16.9997 13.8656L6.64769 3.51367C6.06815 3.95928 5.50921 4.44867 4.97861 4.97928C4.448 5.50988 3.95861 6.06882 3.513 6.64836L13.865 17.0003L3.513 27.3523C3.95861 27.9319 4.448 28.4908 4.97861 29.0214C5.50921 29.552 6.06815 30.0414 6.64769 30.487L16.9997 20.135L27.3516 30.487C27.9312 30.0414 28.4901 29.552 29.0207 29.0214C29.5513 28.4908 30.0407 27.9319 30.4863 27.3523Z" fill="#486C32"/>
<path d="M19.2177 33.8558V19.2177H33.8558C33.9511 18.4914 34 17.7521 34 17C34 16.2479 33.9511 15.5086 33.8558 14.7823H19.2177V0.144242C18.4914 0.0489388 17.7521 0 17 0C16.2479 0 15.5086 0.0489388 14.7823 0.144242V14.7823H0.144242C0.0489388 15.5086 0 16.2479 0 17C0 17.7521 0.0489388 18.4914 0.144242 19.2177H14.7823V33.8558C15.5086 33.9511 16.2479 34 17 34C17.7521 34 18.4914 33.9511 19.2177 33.8558Z" fill="#EFEFEF"/>
</svg>
