<svg width="34" height="34" viewBox="0 0 34 34" fill="none" xmlns="http://www.w3.org/2000/svg">
<path d="M17 34C26.3888 34 34 26.3888 34 17C34 7.61116 26.3888 0 17 0C7.61116 0 0 7.61116 0 17C0 26.3888 7.61116 34 17 34Z" fill="#FCFDFD"/>
<path d="M7.02176 15.7694L5.17493 12.4158L7.02176 9.11621L8.86859 12.4158L7.02176 15.7694Z" fill="#981E23"/>
<path d="M3.32571 15.7694L1.47888 12.4158L3.32571 9.11621L5.17509 12.4158L3.32571 15.7694Z" fill="#981E23"/>
<path d="M7.02176 24.8846L5.17493 21.531L7.02176 18.2314L8.86859 21.531L7.02176 24.8846Z" fill="#981E23"/>
<path d="M3.32571 24.8846L1.47888 21.531L3.32571 18.2314L5.17509 21.531L3.32571 24.8846Z" fill="#981E23"/>
<path d="M8.86876 3.30024L8.34587 2.36523C7.4083 2.9216 6.52737 3.56554 5.716 4.28418L7.01935 6.6513L8.86618 3.30024H8.86876Z" fill="#981E23"/>
<path d="M7.02173 27.3477L5.70294 29.7019C6.51431 30.4231 7.39263 31.0671 8.3302 31.6234L8.86856 30.6472L7.02173 27.3477Z" fill="#981E23"/>
<path d="M10.3467 21.4355V32.6478C12.3893 33.5184 14.6379 34.0001 16.9998 34.0001C24.3098 34.0001 30.5406 29.3869 32.9412 22.914L10.3467 21.4355Z" fill="#6B9D44"/>
<path d="M32.9412 22.9139C33.6238 21.0723 33.9998 19.0812 33.9998 17C33.9998 7.61136 26.3885 0 16.9998 0C14.6405 0 12.3918 0.481667 10.3467 1.35227V22.9139H32.9412Z" fill="#981E23"/>
</svg>
