<svg width="34" height="34" viewBox="0 0 34 34" fill="none" xmlns="http://www.w3.org/2000/svg">
<path d="M22.9138 1.05863C21.0722 0.376057 19.0811 0 16.9999 0C14.9187 0 12.9276 0.373481 11.086 1.05863L9.6075 17L11.086 32.9414C12.9276 33.6239 14.9187 34 16.9999 34C19.0811 34 21.0722 33.6265 22.9138 32.9414L24.3923 17L22.9138 1.05863Z" fill="#F4D24A"/>
<path d="M34.0002 17C34.0002 9.68996 29.387 3.4592 22.9141 1.05859V32.9439C29.387 30.5407 34.0002 24.31 34.0002 17Z" fill="#CA1428"/>
<path d="M0 16.9996C0 24.3096 4.61319 30.5404 11.0861 32.941V1.05566C4.61319 3.45885 0 9.68961 0 16.997V16.9996Z" fill="#040000"/>
</svg>
