<svg width="34" height="34" viewBox="0 0 34 34" fill="none" xmlns="http://www.w3.org/2000/svg">
<path d="M34 17.0002C34 11.1661 31.061 6.01706 26.5818 2.95702L17 2.21777L7.41819 2.95702C2.93895 6.01963 0 11.1661 0 17.0002C0 22.8344 2.93895 27.9834 7.41819 31.0434L17 31.7826L26.5818 31.0434C31.061 27.9808 34 22.8344 34 17.0002Z" fill="#064FA1"/>
<path d="M26.5824 2.957C23.8547 1.09213 20.5551 0 17.0006 0C13.4461 0 10.1465 1.09213 7.41879 2.957H26.5824Z" fill="#981E23"/>
<path d="M7.41815 31.043C10.1459 32.9078 13.4454 34 17 34C20.5545 34 23.854 32.9078 26.5818 31.043H7.41815Z" fill="#981E23"/>
<path d="M17.0004 25.1317C21.4914 25.1317 25.132 21.491 25.132 16.9999C25.132 12.5089 21.4914 8.86816 17.0004 8.86816C12.5094 8.86816 8.86874 12.5089 8.86874 16.9999C8.86874 21.491 12.5094 25.1317 17.0004 25.1317Z" fill="#EFEFEF"/>
<path d="M17.0001 23.6532C20.6745 23.6532 23.6533 20.6744 23.6533 16.9999C23.6533 13.3254 20.6745 10.3467 17.0001 10.3467C13.3256 10.3467 10.3469 13.3254 10.3469 16.9999C10.3469 20.6744 13.3256 23.6532 17.0001 23.6532Z" fill="#6B9D44"/>
<path d="M17.0002 21.4354C19.4498 21.4354 21.4357 19.4496 21.4357 16.9999C21.4357 14.5503 19.4498 12.5645 17.0002 12.5645C14.5506 12.5645 12.5648 14.5503 12.5648 16.9999C12.5648 19.4496 14.5506 21.4354 17.0002 21.4354Z" fill="#EFEFEF"/>
<path d="M16.9999 15.8926L14.5967 17.0002V18.847L16.9999 20.3255L19.4031 18.847V17.0002L16.9999 15.8926Z" fill="#064FA1"/>
<path d="M19.4005 14.7832H14.5967V17.001H19.4005V14.7832Z" fill="#F4D24A"/>
</svg>
