<svg width="34" height="34" viewBox="0 0 34 34" fill="none" xmlns="http://www.w3.org/2000/svg">
<path d="M34 17C34 26.3886 26.3886 34 17 34C7.61136 34 0 26.3886 0 17C0 17.0052 17 0.00257576 17 0C26.3886 0 34 7.61136 34 17Z" fill="#CA1428"/>
<path d="M16.9997 8.13086V13.8645L11.0858 8.13086H16.9997Z" fill="#064FA1"/>
<path d="M8.86804 16.9999H13.865L8.86804 10.3467L8.13141 15.5214L8.86804 16.9999Z" fill="#064FA1"/>
<path d="M16.9535 17.0006H17V16.9541C16.9845 16.9696 16.969 16.9851 16.9535 17.0006Z" fill="#EFEFEF"/>
<path d="M17 8.86833V0H16.9974C7.60879 0 0 7.61136 0 17H8.86832V12.0056L13.8627 17H16.9537L17 16.9536V13.8627L12.0056 8.86833H17Z" fill="#EFEFEF"/>
<path d="M8.60051 2.2168C5.94232 3.73134 3.73238 5.94135 2.21783 8.59953V17.7383H6.65328V6.65226H17.7394V2.2168H8.60051Z" fill="#CA1428"/>
<path d="M17.6749 15.5851L10.9599 8.87012H8.86835L17.6749 17.6766C17.6749 17.6766 17.6749 16.2342 17.6749 15.5851Z" fill="#CA1428"/>
<path d="M19.2176 8.86816V16.9973C19.2176 20.9588 29.5644 20.9588 29.5644 16.9973V8.86816H19.2176Z" fill="#F2F2F2"/>
<path d="M19.2176 17C19.2176 20.9615 24.3923 22.1747 24.3923 22.1747C24.3923 22.1747 29.567 20.9615 29.567 17H19.2202H19.2176Z" fill="#6B9D44"/>
<path d="M24.3923 13.7471L21.9892 14.7825V17.0003L24.3923 18.4787L26.793 17.0003V14.7825L24.3923 13.7471Z" fill="#981E23"/>
<path d="M26.793 12.5645H21.9892V14.7822H26.793V12.5645Z" fill="#3F7EC0"/>
</svg>
