<svg width="34" height="34" viewBox="0 0 34 34" fill="none" xmlns="http://www.w3.org/2000/svg">
<path d="M4.97849 29.0218C-1.6595 22.3837 -1.6595 11.6191 4.97849 4.97853C11.6165 -1.65951 22.381 -1.65951 29.0215 4.97853C29.0215 4.97853 33.5344 20.2561 26.8964 26.8967C20.2585 33.5347 4.98364 29.0269 4.97849 29.0218Z" fill="#F4D24A"/>
<path d="M4.97827 29.0218C11.6163 35.6598 22.3807 35.6598 29.0213 29.0218C35.6593 22.3837 35.6593 11.6191 29.0213 4.97852L4.97827 29.0218Z" fill="#F1921F"/>
<path d="M26.6186 9.60652V6.64941H20.9517L20.519 7.08216C18.9786 8.62254 19.2388 10.4179 19.4268 11.7316C19.6019 12.9474 19.6226 13.4137 19.1718 13.867C18.7184 14.3204 18.2522 14.2998 17.0364 14.122C15.7253 13.934 13.9274 13.6738 12.3896 15.2142C10.8492 16.7546 11.1094 18.55 11.2974 19.8611C11.4726 21.0769 11.4932 21.5432 11.0424 21.9965C10.5891 22.4499 10.1228 22.4267 8.90702 22.2515C8.43306 22.182 7.94106 22.1124 7.41816 22.1073L7.38464 25.0644C7.71178 25.0669 8.08786 25.121 8.48196 25.1803C8.95077 25.2473 9.48141 25.3245 10.0429 25.3245C10.6045 25.3245 11.233 25.2421 11.8357 24.9819V27.3466H16.2714V25.1288H14.0536V23.6502H15.5321V21.4324H14.3498C14.4064 20.7163 14.3086 20.0285 14.2236 19.4386C14.0484 18.2228 14.0278 17.7566 14.4786 17.3032C14.9319 16.8499 15.3982 16.8705 16.614 17.0482C17.5696 17.1848 18.7828 17.3599 19.9677 16.8499V19.2171H24.4034V16.9993H22.1855V15.5207H23.6641V13.3029H22.4818C22.5385 12.5842 22.4406 11.899 22.3556 11.3092C22.2319 10.4591 22.1855 9.97487 22.3221 9.60652H26.6212H26.6186Z" fill="#EFEFEF"/>
</svg>
