<svg width="34" height="34" viewBox="0 0 34 34" fill="none" xmlns="http://www.w3.org/2000/svg">
<path d="M29.0216 29.0212C22.3836 35.6593 11.6191 35.6593 4.97851 29.0212C-1.6595 22.3832 -1.6595 11.6186 4.97851 4.97793C4.97851 4.97793 20.2559 0.464983 26.8965 7.10303C33.5345 13.7411 29.0268 29.0161 29.0216 29.0212Z" fill="#F4D24A"/>
<path d="M29.0214 29.0218C35.6594 22.3838 35.6594 11.6192 29.0214 4.97854C22.3834 -1.65951 11.6189 -1.65951 4.97827 4.97854L29.0214 29.0218Z" fill="#CA1428"/>
<path d="M21.4437 21.4466C20.7457 21.7196 19.9342 21.6913 19.231 21.2972C17.9869 20.5991 17.5439 19.0201 18.2419 17.7759L18.0307 17.6574C20.1609 17.1448 21.7374 15.2103 21.7091 12.9307C21.691 11.5114 21.0573 10.244 20.0656 9.37598L18.5124 10.9653C19.0997 11.4341 19.4809 12.1502 19.4886 12.9564C19.5067 14.3835 18.3604 15.5581 16.9334 15.5735V15.8157C15.4265 14.2289 12.964 13.8297 11.0037 14.994C9.78535 15.7178 9.00228 16.9001 8.74469 18.1932L10.8981 18.7419C11.0089 18 11.4417 17.3123 12.1346 16.9001C13.3607 16.1711 14.9526 16.5781 15.679 17.8043L15.8876 17.6806C15.2668 19.7825 16.1529 22.1137 18.144 23.2291C19.3804 23.9246 20.7972 24.0096 22.0439 23.5845L21.4437 21.444V21.4466Z" fill="#F1921F"/>
<path d="M23.2955 11.5136L22.0952 15.8025L18.4889 15.1379L16.1681 10.3545L9.8984 12.5801L9.40386 11.1865L7.763 10.9856L8.99943 14.4682L13.314 13.3657L14.5401 16.82L11.5573 21.2221L16.6189 25.5393L15.6607 26.665L16.3046 28.1873L18.7028 25.3745L15.5911 22.1907L17.9712 19.401L23.2749 19.7822L24.483 13.2395L25.9358 13.5074L26.9301 12.1885L23.2955 11.5188V11.5136Z" fill="#FCE7CD"/>
</svg>
