<svg width="34" height="34" viewBox="0 0 34 34" fill="none" xmlns="http://www.w3.org/2000/svg">
<path d="M34 16.9999C34 14.9212 33.6265 12.9276 32.9414 11.0859L17 10.3467L1.05864 11.0859C0.376061 12.9276 0 14.9186 0 16.9999C0 19.0811 0.373485 21.0721 1.05864 22.9138L17 23.653L32.9414 22.9138C33.6239 21.0721 34 19.0811 34 16.9999Z" fill="#F4D24A"/>
<path d="M16.9999 34.0001C24.3099 34.0001 30.5407 29.3869 32.9413 22.9141H1.05597C3.45915 29.3869 9.68991 34.0001 16.9973 34.0001H16.9999Z" fill="#6B9D44"/>
<path d="M1.05835 11.086H32.9436C30.5405 4.61317 24.3097 0 16.9997 0C9.68971 0 3.45896 4.61317 1.05835 11.086Z" fill="#CA1428"/>
</svg>
