<svg width="34" height="34" viewBox="0 0 34 34" fill="none" xmlns="http://www.w3.org/2000/svg">
<path d="M16.9999 33.9999C26.3888 33.9999 33.9999 26.3888 33.9999 16.9999C33.9999 7.61113 26.3888 0 16.9999 0C7.61113 0 0 7.61113 0 16.9999C0 26.3888 7.61113 33.9999 16.9999 33.9999Z" fill="#EFEFEF"/>
<path d="M4.97867 4.97837C1.33656 8.62048 -0.306763 13.5067 0.0486909 18.2718L18.2721 0.0483855C13.507 -0.307068 8.62078 1.33626 4.97867 4.97837Z" fill="#F4D24A"/>
<path d="M6.07074 30.0206C12.7497 35.6409 22.7358 35.3086 29.0207 29.0212C35.3081 22.7338 35.6403 12.7502 30.0201 6.07129L6.07074 30.0206Z" fill="#064FA1"/>
<path d="M16.9381 16.3152L18.4037 15.5218L16.9381 14.7285C16.5955 12.5056 14.8414 10.7515 12.6186 10.409L11.8252 8.94336L11.0319 10.409C8.80902 10.7515 7.05494 12.5056 6.71237 14.7285L5.24677 15.5218L6.71237 16.3152C7.05494 18.538 8.80902 20.2921 11.0319 20.6347L11.8252 22.1003L12.6186 20.6347C14.8414 20.2921 16.5955 18.538 16.9381 16.3152ZM11.8252 18.4788C10.1922 18.4788 8.86827 17.1549 8.86827 15.5218C8.86827 13.8888 10.1922 12.5649 11.8252 12.5649C13.4583 12.5649 14.7822 13.8888 14.7822 15.5218C14.7822 17.1549 13.4583 18.4788 11.8252 18.4788Z" fill="#040000"/>
<path d="M11.8251 13.3037L12.4664 14.4139H13.7466L13.1052 15.5214L13.7466 16.6316H12.4664L11.8251 17.7391L11.1863 16.6316H9.90613L10.5449 15.5214L9.90613 14.4139H11.1863L11.8251 13.3037Z" fill="#CA1428"/>
</svg>
