<svg width="34" height="34" viewBox="0 0 34 34" fill="none" xmlns="http://www.w3.org/2000/svg">
<path d="M17.0012 33.9936C26.3893 33.9936 33.9999 26.3839 33.9999 16.9968C33.9999 7.60973 26.3893 0 17.0012 0C7.61299 0 0.00238037 7.60973 0.00238037 16.9968C0.00238037 26.3839 7.61299 33.9936 17.0012 33.9936Z" fill="#EFEFEF"/>
<path d="M17.0012 0C10.9743 0 5.67897 3.13668 2.6604 7.86746L25.7118 31.5935C30.6749 28.6268 33.9974 23.2007 33.9974 16.9968C33.9974 7.60994 26.3866 0 16.9986 0H17.0012Z" fill="#F4D24A"/>
<path d="M33.9994 17.0067C33.9994 12.5978 32.3201 8.58037 29.5643 5.55957V28.4564C32.3201 25.4356 33.9994 21.4181 33.9994 17.0092V17.0067Z" fill="#064FA1"/>
<path d="M21.2382 32.0021H23.0179L23.5665 30.3076L24.1177 31.9995H25.0114C25.56 31.7059 26.088 31.384 26.5979 31.0338L2.96964 7.4082C2.58073 7.97734 2.2253 8.56966 1.90593 9.18515L2.11713 9.82897H3.89684L2.45711 10.8745L3.00827 12.5665L1.56595 11.5209L0.705704 12.1467C0.247252 13.6867 0 15.3143 0 17.0037C0 26.3906 7.61082 34.0005 16.9988 34.0005C18.9845 34.0005 20.8879 33.6606 22.6599 33.0348L21.2356 31.9995L21.2382 32.0021ZM3.79381 16.2672L4.34241 14.5726L2.9001 13.5271H4.67981L5.22841 11.8325L5.77959 13.5245H7.55931L6.11956 14.57L6.67074 16.262L5.22841 15.2164L3.78867 16.2646L3.79381 16.2672ZM7.46144 19.9627L8.01004 18.2682L6.56771 17.2226H8.34744L8.89604 15.5281L9.4472 17.22H11.2269L9.78718 18.2656L10.3384 19.9575L8.89604 18.912L7.45629 19.9601L7.46144 19.9627ZM11.1291 23.6582L11.6777 21.9637L10.2353 20.9181H12.0151L12.5637 19.2236L13.1148 20.9155H14.8945L13.4548 21.9611L14.006 23.653L12.5637 22.6075L11.1239 23.6556L11.1291 23.6582ZM16.2338 26.3056L14.7941 27.3537L15.3427 25.6592L13.9004 24.6136H15.6801L16.2287 22.9191L16.7799 24.6111H18.5596L17.1198 25.6566L17.671 27.3486L16.2287 26.303L16.2338 26.3056ZM18.4617 31.0467L19.0103 29.3521L17.568 28.3066H19.3477L19.8963 26.612L20.4475 28.304H22.2272L20.7875 29.3496L21.3386 31.0415L19.8963 29.9959L18.4566 31.0441L18.4617 31.0467Z" fill="#064FA1"/>
</svg>
