<svg width="34" height="34" viewBox="0 0 34 34" fill="none" xmlns="http://www.w3.org/2000/svg">
<path d="M0.805955 11.8252C0.285691 13.4556 0.00238037 15.1943 0.00238037 16.9999C0.00238037 18.8029 0.283115 20.5416 0.805955 22.1746L17.0011 22.9138L33.1962 22.1746C33.7165 20.5441 33.9998 18.8055 33.9998 16.9999C33.9998 15.1943 33.7191 13.4582 33.1962 11.8252L17.0011 11.0859L0.805955 11.8252Z" fill="#EFEFEF"/>
<path d="M34 16.9999C34 15.9902 33.9124 15.0037 33.7424 14.043H0.257556C0.0901447 15.0037 0 15.9902 0 16.9999C0 18.0096 0.0875691 18.9961 0.257556 19.9569H33.7424C33.9099 18.9961 34 18.0096 34 16.9999Z" fill="#040000"/>
<path d="M17.0011 34.0001C24.5861 34.0001 31.007 29.0315 33.1962 22.1748H0.803345C2.99257 29.034 9.41603 34.0001 16.9985 34.0001H17.0011Z" fill="#3F7EC0"/>
<path d="M17.0013 0C9.41632 0 2.99544 4.96863 0.806213 11.8253H33.1991C31.0098 4.96605 24.5864 0 17.0039 0H17.0013Z" fill="#3F7EC0"/>
</svg>
