<svg width="34" height="34" viewBox="0 0 34 34" fill="none" xmlns="http://www.w3.org/2000/svg">
<path d="M17 34C26.3888 34 34 26.3888 34 17C34 7.61116 26.3888 0 17 0C7.61116 0 0 7.61116 0 17C0 26.3888 7.61116 34 17 34Z" fill="#6B9D44"/>
<path d="M16.9996 6.65332L31.0427 17.0001L16.9996 27.347L2.9566 17.0001L16.9996 6.65332Z" fill="#F4D24A"/>
<path d="M16.9999 22.9138C20.266 22.9138 22.9138 20.2661 22.9138 16.9999C22.9138 13.7337 20.266 11.0859 16.9999 11.0859C13.7337 11.0859 11.0859 13.7337 11.0859 16.9999C11.0859 20.2661 13.7337 22.9138 16.9999 22.9138Z" fill="#EFEFEF"/>
<path d="M14.0426 16.6309C13.0149 16.6309 12.0233 16.788 11.0883 17.0765C11.1295 20.3065 13.7593 22.9131 16.9996 22.9131C19.0035 22.9131 20.7731 21.9163 21.842 20.3915C20.0133 18.1016 17.1954 16.6309 14.0426 16.6309Z" fill="#064FA1"/>
<path d="M22.8029 18.1332C22.875 17.7675 22.9137 17.3888 22.9137 16.9999C22.9137 13.7338 20.2658 11.0859 16.9997 11.0859C14.5631 11.0859 12.4715 12.5593 11.5649 14.6662C12.3659 14.5014 13.1928 14.4138 14.0428 14.4138C17.4762 14.4138 20.5852 15.8408 22.8029 18.1332Z" fill="#064FA1"/>
</svg>
