<svg width="34" height="34" viewBox="0 0 34 34" fill="none" xmlns="http://www.w3.org/2000/svg">
<path d="M34 17.001C34 26.3896 26.3886 34.001 17 34.001C7.61136 34.001 0 26.3896 0 17.001C0 17.0061 17 0.00355232 17 0.000976562C26.3886 0.000976562 34 7.61234 34 17.001Z" fill="#064FA1"/>
<path d="M16.9535 17.0016H17V16.9551C16.9845 16.9706 16.969 16.9861 16.9535 17.0016Z" fill="#EFEFEF"/>
<path d="M17 8.86931V0.000976562H16.9974C7.60879 0.000976562 0 7.61234 0 17.001H8.86832V12.0066L13.8627 17.001H16.9537L17 16.9546V13.8637L12.0056 8.86931H17Z" fill="#EFEFEF"/>
<path d="M8.60051 2.21875C5.94232 3.7333 3.73238 5.9433 2.21783 8.60149V17.001H6.65328V6.65421H17.0001V2.21875H8.60051Z" fill="#CA1428"/>
<path d="M24.3925 17.001L19.7974 21.5961C20.6577 23.2575 22.3911 24.3934 24.3925 24.3934C26.3938 24.3934 28.1273 23.2575 28.9876 21.5961L24.3925 17.001Z" fill="#F4D24A"/>
<path d="M16.9998 14.9103L10.9596 8.87012H8.86807L16.9972 17.0018V14.9103H16.9998Z" fill="#CA1428"/>
<path d="M19.2176 8.87012V17.0018C19.2176 20.9633 24.3923 22.1765 24.3923 22.1765C24.3923 22.1765 29.567 20.9633 29.567 17.0018V8.87012H19.2202H19.2176Z" fill="#6B9D44"/>
<path d="M25.4999 12.5654H23.2822V18.4794H25.4999V12.5654Z" fill="#EFEFEF"/>
<path d="M24.3922 13.6732C25.0039 13.6732 25.4998 13.1773 25.4998 12.5656C25.4998 11.9539 25.0039 11.458 24.3922 11.458C23.7805 11.458 23.2846 11.9539 23.2846 12.5656C23.2846 13.1773 23.7805 13.6732 24.3922 13.6732Z" fill="#981E23"/>
<path d="M22.175 10.3477H20.6965V11.8261H22.175V10.3477Z" fill="#F4D24A"/>
<path d="M22.1743 13.6758H20.6958V15.1543H22.1743V13.6758Z" fill="#F4D24A"/>
<path d="M22.1743 17H20.6958V18.4785H22.1743V17Z" fill="#F4D24A"/>
<path d="M28.0858 10.3477H26.6073V11.8261H28.0858V10.3477Z" fill="#F4D24A"/>
<path d="M28.0858 13.6758H26.6073V15.1543H28.0858V13.6758Z" fill="#F4D24A"/>
<path d="M28.0858 17H26.6073V18.4785H28.0858V17Z" fill="#F4D24A"/>
</svg>
