<svg width="34" height="34" viewBox="0 0 34 34" fill="none" xmlns="http://www.w3.org/2000/svg">
<path d="M17 34.001C26.3888 34.001 34 26.3898 34 17.001C34 7.61214 26.3888 0.000976562 17 0.000976562C7.61116 0.000976562 0 7.61214 0 17.001C0 26.3898 7.61116 34.001 17 34.001Z" fill="#EFEFEF"/>
<path d="M31.1664 19.0358C29.7497 19.0358 29.7497 17.7402 28.333 17.7402C26.9164 17.7402 26.9164 19.0358 25.4997 19.0358C24.083 19.0358 24.083 17.7402 22.6664 17.7402C21.2497 17.7402 21.2497 19.0358 19.833 19.0358C18.4164 19.0358 18.4164 17.7402 16.9997 17.7402C15.583 17.7402 15.583 19.0358 14.1664 19.0358C12.7497 19.0358 12.7497 17.7402 11.333 17.7402C9.91638 17.7402 9.91638 19.0358 8.49971 19.0358C7.08305 19.0358 7.08305 17.7402 5.66638 17.7402C4.24971 17.7402 4.24971 19.0358 2.83305 19.0358C1.41638 19.0358 1.4164 17.7557 0.0229187 17.7402C0.0615551 18.5181 0.154235 19.2805 0.295901 20.0275C1.42408 20.1924 1.52456 21.2999 2.83563 21.2999C4.25229 21.2999 4.25229 20.0043 5.66896 20.0043C7.08562 20.0043 7.08562 21.2999 8.50229 21.2999C9.91896 21.2999 9.91896 20.0043 11.3356 20.0043C12.7523 20.0043 12.7523 21.2999 14.169 21.2999C15.5856 21.2999 15.5856 20.0043 17.0023 20.0043C18.419 20.0043 18.419 21.2999 19.8356 21.2999C21.2523 21.2999 21.2523 20.0043 22.669 20.0043C24.0856 20.0043 24.0856 21.2999 25.5023 21.2999C26.919 21.2999 26.919 20.0043 28.3356 20.0043C29.7523 20.0043 29.7523 21.2999 31.169 21.2999C32.48 21.2999 32.5779 20.1924 33.7087 20.0275C33.8503 19.2805 33.943 18.5181 33.9817 17.7402C32.5882 17.7531 32.5779 19.0358 31.169 19.0358H31.1664Z" fill="#064FA1"/>
<path d="M28.3333 22.1758C26.9166 22.1758 26.9166 23.4714 25.5 23.4714C24.0833 23.4714 24.0833 22.1758 22.6666 22.1758C21.25 22.1758 21.25 23.4714 19.8333 23.4714C18.4166 23.4714 18.4166 22.1758 17 22.1758C15.5833 22.1758 15.5833 23.4714 14.1666 23.4714C12.75 23.4714 12.75 22.1758 11.3333 22.1758C9.91665 22.1758 9.91665 23.4714 8.49998 23.4714C7.08332 23.4714 7.08332 22.1758 5.66665 22.1758C4.24998 22.1758 4.24998 23.4714 2.83332 23.4714C1.79014 23.4714 1.5145 22.7682 0.875717 22.3999C1.26208 23.5564 1.77211 24.6588 2.38514 25.6891C2.51908 25.72 2.66589 25.7406 2.83332 25.7406C4.24998 25.7406 4.24998 24.445 5.66665 24.445C7.08332 24.445 7.08332 25.7406 8.49998 25.7406C9.91665 25.7406 9.91665 24.445 11.3333 24.445C12.75 24.445 12.75 25.7406 14.1666 25.7406C15.5833 25.7406 15.5833 24.445 17 24.445C18.4166 24.445 18.4166 25.7406 19.8333 25.7406C21.25 25.7406 21.25 24.445 22.6666 24.445C24.0833 24.445 24.0833 25.7406 25.5 25.7406C26.9166 25.7406 26.9166 24.445 28.3333 24.445C29.75 24.445 29.75 25.7406 31.1666 25.7406C31.3341 25.7406 31.4835 25.7226 31.6148 25.6891C32.2279 24.6588 32.7379 23.5564 33.1242 22.3999C32.4855 22.7708 32.2098 23.4714 31.1666 23.4714C29.75 23.4714 29.75 22.1758 28.3333 22.1758Z" fill="#064FA1"/>
<path d="M33.6032 13.3463C32.5677 13.56 32.4364 14.6032 31.1639 14.6032C29.7473 14.6032 29.7473 13.3076 28.3306 13.3076C26.9139 13.3076 26.9139 14.6032 25.4973 14.6032C24.0806 14.6032 24.0806 13.3076 22.6639 13.3076C21.2473 13.3076 21.2473 14.6032 19.8306 14.6032C18.4139 14.6032 18.4139 13.3076 16.9973 13.3076C16.2323 13.3076 15.8794 13.6863 15.4956 14.034V16.3007C15.8819 15.9529 16.2323 15.5743 16.9973 15.5743C18.4139 15.5743 18.4139 16.8699 19.8306 16.8699C21.2473 16.8699 21.2473 15.5743 22.6639 15.5743C24.0806 15.5743 24.0806 16.8699 25.4973 16.8699C26.9139 16.8699 26.9139 15.5743 28.3306 15.5743C29.7473 15.5743 29.7473 16.8699 31.1639 16.8699C32.475 16.8699 32.5729 15.7623 33.7037 15.5975C33.7758 15.5975 33.8582 15.5975 33.9406 15.5975C33.8788 14.8325 33.7654 14.0829 33.6032 13.3514V13.3463Z" fill="#064FA1"/>
<path d="M32.3617 9.71497C32.068 9.96225 31.7281 10.1657 31.1666 10.1657C29.7499 10.1657 29.7499 8.87012 28.3332 8.87012C26.9166 8.87012 26.9166 10.1657 25.4999 10.1657C24.0832 10.1657 24.0832 8.87012 22.6666 8.87012C21.2499 8.87012 21.2499 10.1657 19.8332 10.1657C18.4166 10.1657 18.4166 8.87012 16.9999 8.87012C16.2349 8.87012 15.882 9.24876 15.4982 9.59648V11.8631C15.8846 11.5154 16.2349 11.1368 16.9999 11.1368C18.4166 11.1368 18.4166 12.4324 19.8332 12.4324C21.2499 12.4324 21.2499 11.1368 22.6666 11.1368C24.0832 11.1368 24.0832 12.4324 25.4999 12.4324C26.9166 12.4324 26.9166 11.1368 28.3332 11.1368C29.7499 11.1368 29.7499 12.4324 31.1666 12.4324C32.1711 12.4324 32.4648 11.7807 33.0546 11.4021C32.8537 10.8251 32.6218 10.261 32.3617 9.71497Z" fill="#064FA1"/>
<path d="M28.4543 4.4391C28.4156 4.4391 28.3744 4.43652 28.3332 4.43652C26.9166 4.43652 26.9166 5.73214 25.4999 5.73214C24.0832 5.73214 24.0832 4.43652 22.6666 4.43652C21.2499 4.43652 21.2499 5.73214 19.8332 5.73214C18.4166 5.73214 18.4166 4.43652 16.9999 4.43652C16.2349 4.43652 15.882 4.81516 15.4982 5.16289V7.42957C15.8846 7.08184 16.2349 6.7032 16.9999 6.7032C18.4166 6.7032 18.4166 7.9988 19.8332 7.9988C21.2499 7.9988 21.2499 6.7032 22.6666 6.7032C24.0832 6.7032 24.0832 7.9988 25.4999 7.9988C26.9166 7.9988 26.9166 6.7032 28.3332 6.7032C29.7499 6.7032 29.7499 7.9988 31.1666 7.9988C31.2541 7.9988 31.3365 7.99365 31.4112 7.98335C30.5896 6.66971 29.5928 5.47971 28.4543 4.4391Z" fill="#064FA1"/>
<path d="M21.3452 0.56249C20.9562 0.912793 20.6059 1.29659 19.8332 1.29659C18.4165 1.29659 18.4165 0.000976562 16.9998 0.000976562C16.2683 0.000976562 15.9129 0.348708 15.5471 0.68098V2.94764C15.9129 2.6128 16.2683 2.26764 16.9998 2.26764C18.4165 2.26764 18.4165 3.56325 19.8332 3.56325C21.2498 3.56325 21.2498 2.26764 22.6665 2.26764C24.0832 2.26764 24.0832 3.56325 25.4998 3.56325C26.0948 3.56325 26.44 3.334 26.7439 3.07128C25.1289 1.93794 23.3053 1.08022 21.3452 0.56249Z" fill="#064FA1"/>
<path d="M19.8332 32.3395C18.4165 32.3395 18.4165 31.0439 16.9999 31.0439C15.5832 31.0439 15.5832 32.3395 14.1665 32.3395C12.7499 32.3395 12.7499 31.0439 11.3332 31.0439C10.2488 31.0439 9.99384 31.8038 9.29839 32.1592C11.2173 33.1354 13.3475 33.7588 15.6013 33.9417C15.949 33.6223 16.3044 33.3106 16.9999 33.3106C17.6953 33.3106 18.0508 33.6249 18.3985 33.9417C20.6523 33.7588 22.7824 33.1354 24.7014 32.1592C24.0059 31.8038 23.7509 31.0439 22.6665 31.0439C21.2499 31.0439 21.2499 32.3395 19.8332 32.3395Z" fill="#064FA1"/>
<path d="M25.5 27.905C24.0833 27.905 24.0833 26.6094 22.6666 26.6094C21.25 26.6094 21.25 27.905 19.8333 27.905C18.4166 27.905 18.4166 26.6094 17 26.6094C15.5833 26.6094 15.5833 27.905 14.1666 27.905C12.75 27.905 12.75 26.6094 11.3333 26.6094C9.91662 26.6094 9.91662 27.905 8.49996 27.905C7.08329 27.905 7.08329 26.6094 5.66662 26.6094C4.64662 26.6094 4.36074 27.2791 3.75543 27.6551C4.13664 28.1291 4.54103 28.5798 4.9686 29.01C5.15921 28.9276 5.38587 28.876 5.66662 28.876C7.08329 28.876 7.08329 30.1717 8.49996 30.1717C9.91662 30.1717 9.91662 28.876 11.3333 28.876C12.75 28.876 12.75 30.1717 14.1666 30.1717C15.5833 30.1717 15.5833 28.876 17 28.876C18.4166 28.876 18.4166 30.1717 19.8333 30.1717C21.25 30.1717 21.25 28.876 22.6666 28.876C24.0833 28.876 24.0833 30.1717 25.5 30.1717C26.9166 30.1717 26.9166 28.876 28.3333 28.876C28.614 28.876 28.8407 28.9276 29.0313 29.01C29.4589 28.5798 29.8633 28.1291 30.2445 27.6551C29.6366 27.2791 29.3507 26.6094 28.3333 26.6094C26.9166 26.6094 26.9166 27.905 25.5 27.905Z" fill="#064FA1"/>
<path d="M16.9535 17.0016H17V16.9551C16.9845 16.9706 16.969 16.9861 16.9535 17.0016Z" fill="#EFEFEF"/>
<path d="M16.9995 8.86948V13.8665L11.0856 8.13281L16.9995 8.86948Z" fill="#064FA1"/>
<path d="M8.86801 17.0008H13.865L8.86801 10.3477L8.13138 15.5224L8.86801 17.0008Z" fill="#064FA1"/>
<path d="M17 8.86931V0.000976562H16.9974C7.60879 0.000976562 0 7.61234 0 17.001H8.86832V12.0066L13.8627 17.001H16.9537L17 16.9546V13.8637L12.0056 8.86931H17Z" fill="#EFEFEF"/>
<path d="M8.60051 2.21875C5.94232 3.7333 3.73238 5.9433 2.21783 8.60149V17.001H6.65328V6.65421H17.0001V2.21875H8.60051Z" fill="#CA1428"/>
<path d="M17 14.9093L10.9599 8.86914H8.86835L16.9975 17.0008V14.9093H17Z" fill="#CA1428"/>
<path d="M22.1747 8.87012H28.8252L25.4999 12.198L22.1747 8.87012Z" fill="#6B9D44"/>
<path d="M26.2391 11.458H24.7605V15.5226H26.2391V11.458Z" fill="#981E23"/>
<path d="M26.2386 22.1758H24.76V26.2403H26.2386V22.1758Z" fill="#981E23"/>
<path d="M29.9354 19.9579C29.9354 18.7344 28.9438 17.7402 27.7177 17.7402C27.1485 17.7402 26.6308 17.954 26.2393 18.3043V17.0009H26.9785V15.5224H26.2393V14.7832H24.7607V15.5224H24.0215V17.0009H24.7607V18.3043C24.3692 17.954 23.8515 17.7402 23.2822 17.7402C22.0588 17.7402 21.0645 18.7318 21.0645 19.9579C21.0645 20.6147 21.3504 21.2046 21.8038 21.609V22.9123H29.1962V21.609C29.6496 21.202 29.9354 20.6121 29.9354 19.9579Z" fill="#F4D24A"/>
<path d="M27.7177 19.2188C27.4833 19.2188 27.321 19.3218 27.2257 19.4068L26.2392 20.2903H24.7606L23.7742 19.4068C23.6789 19.3218 23.514 19.2188 23.2822 19.2188C22.8752 19.2188 22.543 19.551 22.543 19.958C22.543 20.2439 22.6975 20.4268 22.7902 20.5092L23.2822 20.9497V21.4365H27.7177V20.9497L28.2096 20.5092C28.3023 20.4268 28.4569 20.2439 28.4569 19.958C28.4569 19.551 28.1246 19.2188 27.7177 19.2188Z" fill="#CA1428"/>
</svg>
