<svg width="34" height="34" viewBox="0 0 34 34" fill="none" xmlns="http://www.w3.org/2000/svg">
<path d="M0.000244141 16.9999C0.000244141 7.6113 7.61156 0 17.0001 0C26.3887 0 34 7.6113 34 16.9999H0.000244141Z" fill="#EFEFEF"/>
<path d="M12.5642 16.0703L11.6344 17.0001H12.5642V16.0703Z" fill="#064FA1"/>
<path d="M21.4351 16.0703V17.0001H22.3649L21.4351 16.0703Z" fill="#064FA1"/>
<path d="M0.489397 12.9355C0.170005 14.2389 0 15.5989 0 17.0001H5.36526L9.42978 12.9355H0.491975H0.489397Z" fill="#064FA1"/>
<path d="M24.5699 12.9355L28.6344 17.0001H33.9997C33.9997 15.5989 33.8297 14.2363 33.5103 12.9355H24.5725H24.5699Z" fill="#064FA1"/>
<path d="M23.524 12.9355H21.4351L25.4996 17.0001H27.5911L23.524 12.9355Z" fill="#CA1428"/>
<path d="M12.5643 15.0245V12.9355L8.49976 17.0001H10.5913L12.5643 15.0245Z" fill="#CA1428"/>
<path d="M7.96408 2.59863C7.26348 3.03908 6.59636 3.52847 5.97046 4.06423H9.42966L7.96408 2.59863Z" fill="#064FA1"/>
<path d="M28.0291 4.06423C27.4032 3.52847 26.7361 3.03908 26.0355 2.59863L24.5699 4.06423H28.0291Z" fill="#064FA1"/>
<path d="M19.2175 10.7176H32.8019C32.158 9.10265 31.2771 7.61131 30.1979 6.28223H19.2201V0.144241C18.4937 0.0489384 17.7545 0 17.0023 0C16.2502 0 15.511 0.0489384 14.7846 0.144241V6.28223H3.80683C2.72759 7.60873 1.84412 9.10265 1.20276 10.7176H14.7872V16.9999H19.2226V10.7176H19.2175Z" fill="#CA1428"/>
<path d="M12.5643 4.06481L10.0014 1.50195C9.52748 1.71574 9.06642 1.9527 8.61566 2.2077L10.4728 4.06481H12.5643Z" fill="#CA1428"/>
<path d="M21.4352 4.06446L23.9981 1.5016C23.5112 1.28008 23.0115 1.08433 22.499 0.90918L21.4352 1.97294V4.06446Z" fill="#CA1428"/>
<path d="M33.9998 17C33.9998 26.3886 26.3885 33.9999 16.9999 33.9999C7.61131 33.9999 0 26.3886 0 17H33.9998Z" fill="#EFEFEF"/>
<path d="M31.1664 19.1686C29.7498 19.1686 29.7498 17.873 28.3331 17.873C26.9165 17.873 26.9165 19.1686 25.4998 19.1686C24.0831 19.1686 24.0831 17.873 22.6665 17.873C21.2498 17.873 21.2498 19.1686 19.8332 19.1686C18.4165 19.1686 18.4165 17.873 16.9998 17.873C15.5832 17.873 15.5832 19.1686 14.1665 19.1686C12.7499 19.1686 12.7499 17.873 11.3332 17.873C9.91656 17.873 9.91656 19.1686 8.4999 19.1686C7.08325 19.1686 7.08325 17.873 5.66659 17.873C4.24993 17.873 4.24993 19.1686 2.83327 19.1686C1.41662 19.1686 1.41661 17.8885 0.0231323 17.873C0.0617684 18.6509 0.15451 19.4133 0.296176 20.1603C1.42435 20.3251 1.5248 21.4353 2.83585 21.4353C4.25251 21.4353 4.25251 20.1397 5.66917 20.1397C7.08582 20.1397 7.08582 21.4353 8.50248 21.4353C9.91914 21.4353 9.91914 20.1397 11.3358 20.1397C12.7525 20.1397 12.7525 21.4353 14.1691 21.4353C15.5858 21.4353 15.5858 20.1397 17.0024 20.1397C18.4191 20.1397 18.4191 21.4353 19.8357 21.4353C21.2524 21.4353 21.2524 20.1397 22.6691 20.1397C24.0857 20.1397 24.0857 21.4353 25.5024 21.4353C26.919 21.4353 26.919 20.1397 28.3357 20.1397C29.7523 20.1397 29.7523 21.4353 31.169 21.4353C32.4801 21.4353 32.5779 20.3277 33.7087 20.1603C33.8503 19.4133 33.9431 18.6509 33.9817 17.873C32.5882 17.8859 32.5805 19.1686 31.169 19.1686H31.1664Z" fill="#064FA1"/>
<path d="M28.333 22.3076C26.9163 22.3076 26.9163 23.6032 25.4997 23.6032C24.083 23.6032 24.083 22.3076 22.6664 22.3076C21.2497 22.3076 21.2497 23.6032 19.833 23.6032C18.4164 23.6032 18.4164 22.3076 16.9997 22.3076C15.5831 22.3076 15.5831 23.6032 14.1664 23.6032C12.7498 23.6032 12.7498 22.3076 11.3331 22.3076C9.91644 22.3076 9.91644 23.6032 8.49978 23.6032C7.08312 23.6032 7.08312 22.3076 5.66646 22.3076C4.24981 22.3076 4.24981 23.6032 2.83315 23.6032C1.82088 23.6032 1.5324 22.9412 0.932251 22.5652C1.33149 23.7191 1.84921 24.8138 2.47512 25.839C2.5833 25.8596 2.70179 25.8699 2.83315 25.8699C4.24981 25.8699 4.24981 24.5743 5.66646 24.5743C7.08312 24.5743 7.08312 25.8699 8.49978 25.8699C9.91644 25.8699 9.91644 24.5743 11.3331 24.5743C12.7498 24.5743 12.7498 25.8699 14.1664 25.8699C15.5831 25.8699 15.5831 24.5743 16.9997 24.5743C18.4164 24.5743 18.4164 25.8699 19.833 25.8699C21.2497 25.8699 21.2497 24.5743 22.6664 24.5743C24.083 24.5743 24.083 25.8699 25.4997 25.8699C26.9163 25.8699 26.9163 24.5743 28.333 24.5743C29.7496 24.5743 29.7496 25.8699 31.1663 25.8699C31.2977 25.8699 31.4161 25.8596 31.5243 25.839C32.1502 24.8138 32.668 23.7165 33.0672 22.5652C32.467 22.9438 32.1786 23.6032 31.1663 23.6032C29.7496 23.6032 29.7496 22.3076 28.333 22.3076Z" fill="#064FA1"/>
<path d="M33.989 16.4668C33.989 16.5132 33.9914 16.5621 33.9939 16.6085C33.9939 16.5621 33.9914 16.5132 33.989 16.4668Z" fill="#EFEFEF"/>
<path d="M0.00512695 16.6085C0.00512695 16.5621 0.00755229 16.5132 0.00997291 16.4668C0.00997291 16.5132 0.00754757 16.5621 0.00512695 16.6085Z" fill="#EFEFEF"/>
<path d="M0 17C0 16.869 4.71598e-06 16.7379 0.00483377 16.6094C0.00241924 16.7404 0 16.869 0 17Z" fill="#EFEFEF"/>
<path d="M0 17C0 17.3091 0.00772093 17.6182 0.0257511 17.9221C1.41665 17.9376 1.42696 19.2177 2.83331 19.2177C4.23967 19.2177 4.24997 17.9221 5.66663 17.9221C7.08329 17.9221 7.08329 19.2177 8.49994 19.2177C9.9166 19.2177 9.9166 17.9221 11.3333 17.9221C12.7499 17.9221 12.7499 19.2177 14.1666 19.2177C15.5832 19.2177 15.5832 17.9221 16.9999 17.9221C18.4165 17.9221 18.4165 19.2177 19.8332 19.2177C21.2499 19.2177 21.2499 17.9221 22.6665 17.9221C24.0832 17.9221 24.0832 19.2177 25.4998 19.2177C26.9165 19.2177 26.9165 17.9221 28.3331 17.9221C29.7498 17.9221 29.7498 19.2177 31.1665 19.2177C32.5831 19.2177 32.5831 17.9376 33.974 17.9221C33.9895 17.6156 33.9998 17.3091 33.9998 17H0Z" fill="#EFEFEF"/>
<path d="M33.9946 16.6094C33.997 16.7404 33.9994 16.869 33.9994 17C33.9994 16.869 33.9994 16.7379 33.9946 16.6094Z" fill="#EFEFEF"/>
<path d="M28.3331 26.7412C26.9164 26.7412 26.9164 28.0368 25.4998 28.0368C24.0831 28.0368 24.0831 26.7412 22.6664 26.7412C21.2498 26.7412 21.2498 28.0368 19.8331 28.0368C18.4165 28.0368 18.4165 26.7412 16.9998 26.7412C15.5832 26.7412 15.5832 28.0368 14.1665 28.0368C12.7498 28.0368 12.7498 26.7412 11.3332 26.7412C9.91652 26.7412 9.91652 28.0368 8.49987 28.0368C7.08321 28.0368 7.08321 26.7412 5.66655 26.7412C4.68777 26.7412 4.3864 27.3594 3.82489 27.7406C5.31109 29.5616 7.16822 31.0684 9.28032 32.1477L16.9998 31.7587L24.7193 32.1477C26.8314 31.0684 28.6885 29.5616 30.1747 27.7406C29.6132 27.3594 29.3119 26.7412 28.3331 26.7412Z" fill="#064FA1"/>
<path d="M26.4271 27.1486L21.255 28.1376L20.6008 22.9141L16.9999 26.7571L13.399 22.9141L12.7448 28.1376L7.57269 27.1486L10.1098 31.7617L9.28041 32.1506C11.596 33.3329 14.2207 34 16.9999 34C19.7791 34 22.4038 33.3329 24.7194 32.1506L23.8926 31.7617L26.4271 27.1486Z" fill="#F4D24A"/>
</svg>
