<svg width="34" height="34" viewBox="0 0 34 34" fill="none" xmlns="http://www.w3.org/2000/svg">
<path d="M16.9998 33.9992C26.3887 33.9992 33.9998 26.3889 33.9998 17.0011C33.9998 7.61325 26.3887 0.00292969 16.9998 0.00292969C7.61101 0.00292969 -0.000152588 7.61325 -0.000152588 17.0011C-0.000152588 26.3889 7.61101 33.9992 16.9998 33.9992Z" fill="#EFEFEF"/>
<path d="M2.27725 8.5C1.50956 9.82915 0.942768 11.2175 0.56665 12.6317L28.997 29.0451C30.0352 28.0122 30.9549 26.8273 31.7226 25.4981L2.27725 8.5Z" fill="#040000"/>
<path d="M25.4988 2.28004C18.6978 -1.64558 10.3098 -0.337038 5.00037 4.95379L33.4308 21.3672C35.3603 14.1239 32.2998 6.20823 25.4988 2.28004Z" fill="#F4D24A"/>
<path d="M8.50117 31.7219C15.3022 35.6475 23.6902 34.339 28.9996 29.0482L0.569203 12.6348C-1.36033 19.8781 1.70014 27.7937 8.50117 31.7219Z" fill="#F4D24A"/>
<path d="M21.8045 15.1539C21.8045 17.8071 19.6534 19.9579 17 19.9579C14.3465 19.9579 12.1955 17.8071 12.1955 15.1539C12.1955 14.3271 12.4041 13.5492 12.7725 12.8691C11.7292 13.9355 11.0851 15.3935 11.0851 17.0008C11.0851 20.267 13.7334 22.9124 16.9974 22.9124C20.2614 22.9124 22.9096 20.2644 22.9096 17.0008C22.9096 15.3909 22.2656 13.933 21.2222 12.8691C21.5906 13.5492 21.7993 14.3271 21.7993 15.1539H21.8045Z" fill="#CA1428"/>
<path d="M18.1102 9.61035H15.8922V20.6969H18.1102V9.61035Z" fill="#CA1428"/>
<path d="M20.6968 11.8281H13.3058C13.3058 12.3381 13.7515 12.7529 14.2616 12.7529H14.2307C14.2307 13.2629 14.6455 13.6776 15.1555 13.6776C15.1555 14.1876 15.5703 14.6023 16.0803 14.6023H17.9275C18.4376 14.6023 18.8523 14.1876 18.8523 13.6776C19.3623 13.6776 19.7771 13.2629 19.7771 12.7529H19.7462C20.2563 12.7529 20.702 12.3381 20.702 11.8281H20.6968Z" fill="#CA1428"/>
<path d="M22.1756 21.4336H11.8272V23.6514H22.1756V21.4336Z" fill="#CA1428"/>
<path d="M23.6517 22.1729H19.2181V24.3907H23.6517V22.1729Z" fill="#CA1428"/>
<path d="M14.7819 22.1729H10.3483V24.3907H14.7819V22.1729Z" fill="#CA1428"/>
</svg>
