<svg width="34" height="34" viewBox="0 0 34 34" fill="none" xmlns="http://www.w3.org/2000/svg">
<path d="M34 17.0008C34 14.9222 33.6265 12.9286 32.9413 11.0869L17 10.3477L1.05866 11.0869C0.376088 12.9286 0 14.9196 0 17.0008C0 19.082 0.373512 21.0731 1.05866 22.9148L17 23.654L32.9413 22.9148C33.6239 21.0731 34 19.082 34 17.0008Z" fill="#486C32"/>
<path d="M17.0001 34.0011C24.3101 34.0011 30.5408 29.3879 32.9414 22.915H1.05615C3.45933 29.3879 9.69006 34.0011 16.9975 34.0011H17.0001Z" fill="#CA1428"/>
<path d="M1.05856 11.087H32.9438C30.5406 4.61415 24.3099 0.000976562 16.9999 0.000976562C9.6899 0.000976562 3.45917 4.61415 1.05856 11.087Z" fill="#EFEFEF"/>
</svg>
