<svg width="34" height="34" viewBox="0 0 34 34" fill="none" xmlns="http://www.w3.org/2000/svg">
<path d="M17 34.001C26.3888 34.001 34 26.3898 34 17.001C34 7.61214 26.3888 0.000976562 17 0.000976562C7.61116 0.000976562 0 7.61214 0 17.001C0 26.3898 7.61116 34.001 17 34.001Z" fill="#F0F0F0"/>
<path d="M27.3524 3.514C21.2659 -1.16873 12.7375 -1.16873 6.651 3.514L17.003 13.866L27.3549 3.514H27.3524Z" fill="#D80027"/>
<path d="M17.0002 20.1348L6.64819 30.4867C12.7347 35.1694 21.263 35.1694 27.3496 30.4867L16.9976 20.1348H17.0002Z" fill="#D80027"/>
<path d="M13.8651 17.0004L3.51314 6.64844C-1.16958 12.735 -1.16958 21.2633 3.51314 27.3498L13.8651 16.9978V17.0004Z" fill="#6DA544"/>
<path d="M20.1345 17.0008L30.4865 27.3527C35.1692 21.2662 35.1692 12.7379 30.4865 6.65137L20.1345 17.0034V17.0008Z" fill="#6DA544"/>
<path d="M16.9997 24.3932C21.0824 24.3932 24.3922 21.0835 24.3922 17.0008C24.3922 12.9181 21.0824 9.6084 16.9997 9.6084C12.917 9.6084 9.6073 12.9181 9.6073 17.0008C9.6073 21.0835 12.917 24.3932 16.9997 24.3932Z" fill="#F0F0F0"/>
<path d="M16.9998 11.8262L17.6411 12.9363H18.9213L18.2799 14.0439L18.9213 15.154H17.6411L16.9998 16.2616L16.3584 15.154H15.0782L15.7196 14.0439L15.0782 12.9363H16.3584L16.9998 11.8262Z" fill="#D80027"/>
<path d="M13.7467 17.001L14.3855 18.1086H15.6657L15.0269 19.2187L15.6657 20.3263H14.3855L13.7467 21.4364L13.1053 20.3263H11.8252L12.4666 19.2187L11.8252 18.1086H13.1053L13.7467 17.001Z" fill="#D80027"/>
<path d="M20.2533 17.001L20.8947 18.1086H22.1748L21.5334 19.2187L22.1748 20.3263H20.8947L20.2533 21.4364L19.6145 20.3263H18.3344L18.9731 19.2187L18.3344 18.1086H19.6145L20.2533 17.001Z" fill="#D80027"/>
</svg>
