<svg width="34" height="34" viewBox="0 0 34 34" fill="none" xmlns="http://www.w3.org/2000/svg">
<path d="M0 17.0008C0 19.9449 0.74955 22.7164 2.06576 25.1324L17 26.611L31.9342 25.1324C33.253 22.7164 34 19.9475 34 17.0008C34 14.0541 33.2505 11.2852 31.9342 8.86914L17 7.39062L2.06576 8.86914C0.746975 11.2852 0 14.0541 0 17.0008Z" fill="#D80027"/>
<path d="M2.06561 8.86932H31.9315C29.0492 3.58387 23.4418 0.000976562 16.9998 0.000976562C10.5579 0.000976562 4.95046 3.58644 2.06561 8.86932Z" fill="#0052B4"/>
<path d="M16.9998 34.0012C23.4443 34.0012 29.0492 30.4157 31.934 25.1328H2.06812C4.95039 30.4183 10.5578 34.0012 17.0024 34.0012H16.9998Z" fill="#0052B4"/>
<path d="M22.9137 20.3263V18.1086H21.4352V15.1542L19.9567 13.6757L18.4782 15.1542V12.1972L16.9997 10.7188L15.5212 12.1972V15.1542L14.0428 13.6757L12.5643 15.1542V18.1086H11.0858V20.3263H9.6073V22.5441H24.3922V20.3263H22.9137Z" fill="#F0F0F0"/>
</svg>
