<svg width="34" height="34" viewBox="0 0 34 34" fill="none" xmlns="http://www.w3.org/2000/svg">
<path d="M24.3926 1.68811C22.1569 0.606292 19.6507 0.000976562 17.0002 0.000976562C14.3498 0.000976562 11.8436 0.606292 9.60782 1.68811L8.12933 17.001L9.60782 32.3138C11.8436 33.3957 14.3498 34.001 17.0002 34.001C19.6507 34.001 22.1569 33.3957 24.3926 32.3138L25.8711 17.001L24.3926 1.68811Z" fill="#D80027"/>
<path d="M17.0002 11.0869L18.4683 15.6048H23.2181L19.375 18.3969L20.8432 22.9148L17.0002 20.1227L13.1571 22.9148L14.6253 18.3969L10.7823 15.6048H15.532L17.0002 11.0869Z" fill="#FFDA44"/>
<path d="M9.60759 1.68848C3.92032 4.43681 0 10.2606 0 17.0013C0 23.7421 3.92289 29.5633 9.60759 32.3142V1.68848Z" fill="#496E2D"/>
<path d="M24.3925 1.68848V32.3142C30.0798 29.5659 34.0001 23.7421 34.0001 17.0013C34.0001 10.2606 30.0772 4.43939 24.3925 1.68848Z" fill="#FFDA44"/>
</svg>
