<svg width="34" height="34" viewBox="0 0 34 34" fill="none" xmlns="http://www.w3.org/2000/svg">
<path d="M17.0001 0.000976562C14.9215 0.000976562 12.9278 0.374458 11.0862 1.05961L10.3469 17.001L11.0862 32.9423C12.9278 33.6249 14.9189 34.001 17.0001 34.001C19.0813 34.001 21.0724 33.6275 22.914 32.9423L23.6533 17.001L22.914 1.05961C21.0724 0.377033 19.0813 0.000976562 17.0001 0.000976562Z" fill="#338AF3"/>
<path d="M34.0001 17.0009C34.0001 9.69094 29.3869 3.46018 22.9141 1.05957V32.9449C29.3869 30.5417 34.0001 24.3109 34.0001 17.0009Z" fill="#FFDA44"/>
<path d="M11.0861 32.942V1.05664C4.61319 3.45982 0 9.69058 0 16.998C0 24.3054 4.61319 30.5388 11.0861 32.9394V32.942Z" fill="#F0F0F0"/>
</svg>
