<svg width="34" height="34" viewBox="0 0 34 34" fill="none" xmlns="http://www.w3.org/2000/svg">
<path d="M17.0001 34.001C26.389 34.001 34.0001 26.3898 34.0001 17.001C34.0001 7.61214 26.389 0.000976562 17.0001 0.000976562C7.61128 0.000976562 0.00012207 7.61214 0.00012207 17.001C0.00012207 26.3898 7.61128 34.001 17.0001 34.001Z" fill="#F0F0F0"/>
<path d="M33.9999 17.0013C33.9999 10.2606 30.077 4.43681 24.3923 1.68848V32.3142C30.0795 29.5633 33.9999 23.7421 33.9999 17.0013Z" fill="#D80027"/>
<path d="M0 17.0013C0 23.7421 3.92289 29.5659 9.60759 32.3142V1.68848C3.92032 4.43939 0 10.2606 0 17.0013Z" fill="#D80027"/>
<path d="M19.9568 19.2186L22.9138 17.7401L21.4353 17.0009V15.5224L18.4783 17.0009L19.9568 14.0439H18.4783L16.9999 11.8262L15.5214 14.0439H14.0429L15.5214 17.0009L12.5644 15.5224V17.0009L11.0859 17.7401L14.0429 19.2186L13.3037 20.6971H16.2606V22.9148H17.7391V20.6971H20.6961L19.9568 19.2186Z" fill="#D80027"/>
</svg>
