<svg width="34" height="34" viewBox="0 0 34 34" fill="none" xmlns="http://www.w3.org/2000/svg">
<path d="M17 34.001C26.3888 34.001 34 26.3898 34 17.001C34 7.61214 26.3888 0.000976562 17 0.000976562C7.61116 0.000976562 0 7.61214 0 17.001C0 26.3898 7.61116 34.001 17 34.001Z" fill="#F0F0F0"/>
<path d="M16.9998 34.0008C22.1513 34.0008 26.7697 31.7084 29.8863 28.0869H4.11328C7.22995 31.7084 11.8483 34.0008 16.9998 34.0008Z" fill="#0052B4"/>
<path d="M34 17.001C34 7.61234 26.3886 0.000976562 17 0.000976562C7.61136 0.000976562 0 7.61234 0 17.001C0 18.5361 0.20349 20.0223 0.584702 21.4364H33.4127C33.7939 20.0223 33.9974 18.5361 33.9974 17.001H34Z" fill="#0052B4"/>
<path d="M1.35217 23.6543C1.67929 24.4244 2.06307 25.1637 2.49579 25.872H31.5066C31.9393 25.1663 32.3231 24.4244 32.6502 23.6543H1.35217Z" fill="#D80027"/>
<path d="M12.1521 18.1084L12.4277 18.9558H13.3164L12.5977 19.4787L12.8708 20.3261L12.1521 19.8032L11.4309 20.3261L11.7065 19.4787L10.9853 18.9558H11.8766L12.1521 18.1084Z" fill="#FFDA44"/>
<path d="M12.1521 29.1973L12.4277 30.0447H13.3164L12.5977 30.5676L12.8708 31.415L12.1521 30.8896L11.4309 31.415L11.7065 30.5676L10.9853 30.0447H11.8766L12.1521 29.1973Z" fill="#FFDA44"/>
<path d="M6.99011 25.4473L7.26574 26.2947H8.15694L7.43578 26.8176L7.71134 27.665L6.99011 27.1421L6.26895 27.665L6.54451 26.8176L5.82593 26.2947H6.71455L6.99011 25.4473Z" fill="#FFDA44"/>
<path d="M8.96094 19.2178L9.23656 20.0652H10.1278L9.40654 20.5881L9.68216 21.4355L8.96094 20.9126L8.24229 21.4355L8.51792 20.5881L7.79669 20.0652H8.68789L8.96094 19.2178Z" fill="#FFDA44"/>
<path d="M5.82593 22.7058H6.71455L6.99011 21.8584L7.26574 22.7058H8.15694L7.43578 23.2287L7.71134 24.0761L6.99011 23.5532L6.26895 24.0761L6.54451 23.2287L5.82593 22.7058Z" fill="#FFDA44"/>
<path d="M8.24229 30.1419L8.51792 29.297L7.79669 28.7716H8.68789L8.96094 27.9268L9.23656 28.7716H10.1278L9.40654 29.297L9.68216 30.1419L8.96094 29.619L8.24229 30.1419Z" fill="#FFDA44"/>
<path d="M17.3113 25.4473L17.0357 26.2947H16.1445L16.8657 26.8176L16.5901 27.665L17.3113 27.1421L18.0299 27.665L17.7543 26.8176L18.4755 26.2947H17.5843L17.3113 25.4473Z" fill="#FFDA44"/>
<path d="M15.3388 19.2178L15.0632 20.0652H14.1746L14.8932 20.5881L14.6202 21.4355L15.3388 20.9126L16.06 21.4355L15.7844 20.5881L16.5056 20.0652H15.6144L15.3388 19.2178Z" fill="#FFDA44"/>
<path d="M18.4755 22.7058H17.5843L17.3113 21.8584L17.0357 22.7058H16.1445L16.8657 23.2287L16.5901 24.0761L17.3113 23.5532L18.0299 24.0761L17.7543 23.2287L18.4755 22.7058Z" fill="#FFDA44"/>
<path d="M16.06 30.1419L15.7844 29.297L16.5056 28.7716H15.6144L15.3388 27.9268L15.0632 28.7716H14.1746L14.8932 29.297L14.6202 30.1419L15.3388 29.619L16.06 30.1419Z" fill="#FFDA44"/>
</svg>
