<svg width="34" height="34" viewBox="0 0 34 34" fill="none" xmlns="http://www.w3.org/2000/svg">
<path d="M34 17.001C34 26.3896 26.3886 34.001 17 34.001C7.61136 34.001 0 26.3896 0 17.001C0 17.0061 17 0.00355232 17 0.000976562C26.3886 0.000976562 34 7.61234 34 17.001Z" fill="#0052B4"/>
<path d="M16.9535 17.0016H17V16.9551C16.9845 16.9706 16.969 16.9861 16.9535 17.0016Z" fill="#F0F0F0"/>
<path d="M17 8.86932V0.000976562H16.9974C7.60879 0.000976562 0 7.61234 0 17.001H8.86832V12.0066L13.8627 17.001H16.9537L17 16.9546V13.8637L12.0056 8.86932H17Z" fill="#F0F0F0"/>
<path d="M24.3925 12.5653C26.0255 12.5653 27.3494 11.2415 27.3494 9.60836C27.3494 7.97527 26.0255 6.65137 24.3925 6.65137C22.7594 6.65137 21.4355 7.97527 21.4355 9.60836C21.4355 11.2415 22.7594 12.5653 24.3925 12.5653Z" fill="#6DA544"/>
<path d="M8.60051 2.21777C5.94232 3.73232 3.73238 5.94233 2.21783 8.60051V17.0001H6.65328V6.65322H17.0001V2.21777H8.60051Z" fill="#D80027"/>
<path d="M17 14.9093L10.9599 8.86914H8.86835L16.9975 17.0008V14.9093H17Z" fill="#D80027"/>
<path d="M29.5644 8.86914H19.2177V13.3046H29.5644V8.86914Z" fill="#D80027"/>
<path d="M19.2176 19.958V22.915H20.7733C21.7057 23.8294 22.9833 24.3935 24.3922 24.3935C25.8012 24.3935 27.0788 23.8294 28.0112 22.915H29.567V19.958H19.2202H19.2176Z" fill="#FFDA44"/>
<path d="M19.2176 12.5654V17.0009C19.2176 20.9624 24.3922 22.1756 24.3922 22.1756C24.3922 22.1756 29.567 20.9624 29.567 17.0009V12.5654H19.2202H19.2176Z" fill="#338AF3"/>
<path d="M24.3896 14.9346C23.0966 14.9346 23.0966 16.1168 21.8035 16.1168C20.5105 16.1168 20.5106 14.9346 19.2175 14.9346V17.0029C20.5106 17.0029 20.5105 18.1852 21.8035 18.1852C23.0966 18.1852 23.0966 17.0029 24.3896 17.0029C25.6826 17.0029 25.6826 18.1852 26.9757 18.1852C28.2687 18.1852 28.2687 17.0029 29.5618 17.0029V14.9346C28.2687 14.9346 28.2687 16.1168 26.9757 16.1168C25.6826 16.1168 25.6826 14.9346 24.3896 14.9346Z" fill="#F3F3F3"/>
<path d="M24.39 10.793C23.0969 10.793 23.0969 11.9752 21.8039 11.9752C20.5109 11.9752 20.5109 10.793 19.2179 10.793V12.8613C20.5109 12.8613 20.5109 14.0436 21.8039 14.0436C23.0969 14.0436 23.0969 12.8613 24.39 12.8613C25.683 12.8613 25.683 14.0436 26.976 14.0436C28.2691 14.0436 28.2691 12.8613 29.5621 12.8613V10.793C28.2691 10.793 28.2691 11.9752 26.976 11.9752C25.683 11.9752 25.683 10.793 24.39 10.793Z" fill="#F3F3F3"/>
</svg>
