<svg width="34" height="34" viewBox="0 0 34 34" fill="none" xmlns="http://www.w3.org/2000/svg">
<path d="M16.9987 34.001C26.3868 34.001 33.9974 26.3898 33.9974 17.001C33.9974 7.61214 26.3868 0.000976562 16.9987 0.000976562C7.61058 0.000976562 0 7.61214 0 17.001C0 26.3898 7.61058 34.001 16.9987 34.001Z" fill="#F0F0F0"/>
<path d="M31.9317 8.86958C29.7348 4.84367 25.959 1.80427 21.4337 0.585938L20.6946 8.86958H31.9317Z" fill="#0052B4"/>
<path d="M2.0658 8.86958H13.3029L12.5638 0.585938C8.0411 1.80427 4.26275 4.84367 2.0658 8.86958Z" fill="#0052B4"/>
<path d="M20.6947 17.001V25.1326H31.9319C33.2506 22.7166 34 19.9476 34 17.001H20.6973H20.6947Z" fill="#6DA544"/>
<path d="M13.3028 17.001H0C0 19.9451 0.749494 22.7166 2.06561 25.1326H13.3028V17.001Z" fill="#6DA544"/>
<path d="M2.0658 25.1334C4.26275 29.1593 8.03853 32.1987 12.5638 33.4171L13.3029 26.1714L2.0658 25.1309V25.1334Z" fill="#FFDA44"/>
<path d="M21.4337 33.4165C25.9564 32.1981 29.7348 29.1587 31.9317 25.1328L20.6946 26.1709L21.4337 33.4165Z" fill="#FFDA44"/>
<path d="M20.6946 26.1709L31.9317 25.1328H20.6946V26.1709Z" fill="#FFDA44"/>
<path d="M13.3029 25.1328H2.06572L13.3029 26.1709V25.1328Z" fill="#FFDA44"/>
<path d="M16.9988 0.000976562C15.4638 0.000976562 13.9777 0.204466 12.5637 0.585679V33.4137C13.9777 33.7949 15.4638 33.9984 16.9988 33.9984C18.5338 33.9984 20.0199 33.7949 21.4339 33.4137V0.585679C20.0199 0.204466 18.5338 0.000976562 16.9988 0.000976562Z" fill="#D80027"/>
<path d="M9.14335 3.69727L9.60181 5.10878H11.0853L9.88509 5.98196L10.3435 7.39347L9.14335 6.52032L7.94316 7.39347L8.40162 5.98196L7.20137 5.10878H8.6849L9.14335 3.69727Z" fill="#FFDA44"/>
</svg>
