<svg width="34" height="34" viewBox="0 0 34 34" fill="none" xmlns="http://www.w3.org/2000/svg">
<path d="M17 34.001C26.3888 34.001 34 26.3898 34 17.001C34 7.61214 26.3888 0.000976562 17 0.000976562C7.61116 0.000976562 0 7.61214 0 17.001C0 26.3898 7.61116 34.001 17 34.001Z" fill="#F0F0F0"/>
<path d="M17 0.000976562C12.3044 0.000976562 8.0544 1.90445 4.97894 4.9799L17 17.001V0.000976562Z" fill="black"/>
<path d="M0 17.001C0 21.6966 1.9035 25.9466 4.97896 29.022L17 17.001H0Z" fill="black"/>
<path d="M17 34.001C21.6956 34.001 25.9456 32.0975 29.021 29.022L17 17.001V34.001Z" fill="black"/>
<path d="M34 17.0015C34 12.3059 32.0965 8.05592 29.021 4.98047L17 17.0015H34Z" fill="black"/>
<path d="M11.0861 11.8264L17 12.5657L22.914 11.8264V8.2796L20.5469 9.46186L17 5.91504L13.4532 9.46186L11.0861 8.2796V11.8264Z" fill="#FFDA44"/>
<path d="M17 25.8689C13.7391 25.8689 11.0861 23.2158 11.0861 19.9549V14.041L13.3038 11.8232H20.6963L22.914 14.041V19.9549C22.914 23.2158 20.261 25.8689 17 25.8689Z" fill="#D80027"/>
<path d="M17.0002 23.6541C14.9628 23.6541 13.304 21.9953 13.304 19.9579V14.0439H20.6964V19.9579C20.6964 21.9953 19.0376 23.6541 17.0002 23.6541Z" fill="#F0F0F0"/>
<path d="M13.3038 11.8262H11.0861V14.0439H13.3038V11.8262Z" fill="#FFDA44"/>
<path d="M22.9139 11.8262H20.6962V14.0439H22.9139V11.8262Z" fill="#FFDA44"/>
<path d="M22.9139 16.6318H20.6962V18.8496H22.9139V16.6318Z" fill="#FFDA44"/>
<path d="M13.3038 16.6318H11.0861V18.8496H13.3038V16.6318Z" fill="#FFDA44"/>
<path d="M17 23.6544C16.6137 23.6544 16.2427 23.5951 15.8924 23.4844V25.7665C16.253 25.836 16.6214 25.8721 17 25.8721C17.3787 25.8721 17.7496 25.836 18.1076 25.7665V23.4844C17.7573 23.5951 17.3864 23.6544 17 23.6544Z" fill="#FFDA44"/>
<path d="M13.3526 20.5576L11.583 22.3272C11.8896 23.0252 12.3274 23.6537 12.8658 24.1817L14.4318 22.6156C13.8729 22.0747 13.484 21.3612 13.3526 20.5602V20.5576Z" fill="#FFDA44"/>
<path d="M22.4167 22.3272L20.6472 20.5576C20.5158 21.3587 20.1269 22.0722 19.5679 22.6131L21.134 24.1791C21.6723 23.6537 22.1102 23.0252 22.4167 22.3246V22.3272Z" fill="#FFDA44"/>
<path d="M16.2608 15.2744V16.5056C16.2608 16.9126 16.5905 17.2448 17.0001 17.2448C17.4096 17.2448 17.7393 16.9151 17.7393 16.5056V15.2744H16.2608Z" fill="#0052B4"/>
<path d="M16.2608 20.2051V21.4363C16.2608 21.8433 16.5905 22.1755 17.0001 22.1755C17.4096 22.1755 17.7393 21.8458 17.7393 21.4363V20.2051H16.2608Z" fill="#0052B4"/>
<path d="M18.4784 17.7393V18.9705C18.4784 19.3774 18.8082 19.7097 19.2177 19.7097C19.6272 19.7097 19.9569 19.38 19.9569 18.9705V17.7393H18.4784Z" fill="#0052B4"/>
<path d="M16.2608 17.7393V18.9705C16.2608 19.3774 16.5905 19.7097 17.0001 19.7097C17.4096 19.7097 17.7393 19.38 17.7393 18.9705V17.7393H16.2608Z" fill="#0052B4"/>
<path d="M14.043 17.7393V18.9705C14.043 19.3774 14.3726 19.7097 14.7822 19.7097C15.1917 19.7097 15.5215 19.38 15.5215 18.9705V17.7393H14.043Z" fill="#0052B4"/>
</svg>
