<svg width="34" height="34" viewBox="0 0 34 34" fill="none" xmlns="http://www.w3.org/2000/svg">
<path d="M16.9997 0.000976562C14.921 0.000976562 12.9274 0.374458 11.0857 1.05961L10.3465 17.001L11.0857 32.9423C12.9274 33.6249 14.9185 34.001 16.9997 34.001C19.0809 34.001 21.072 33.6275 22.9136 32.9423L23.6529 17.001L22.9136 1.05961C21.072 0.377033 19.0809 0.000976562 16.9997 0.000976562Z" fill="#FFDA44"/>
<path d="M33.9999 17.0009C33.9999 9.69094 29.3868 3.46018 22.9139 1.05957V32.9449C29.3868 30.5417 33.9999 24.3109 33.9999 17.0009Z" fill="#D80027"/>
<path d="M11.0861 32.9429V1.05762C4.61318 3.4608 0 9.69156 0 16.999C0 24.3064 4.61318 30.5397 11.0861 32.9404V32.9429Z" fill="#0052B4"/>
</svg>
