<svg width="34" height="34" viewBox="0 0 34 34" fill="none" xmlns="http://www.w3.org/2000/svg">
<path d="M17 34.001C26.3888 34.001 34 26.3898 34 17.001C34 7.61213 26.3888 0.000976562 17 0.000976562C7.61116 0.000976562 0 7.61213 0 17.001C0 26.3898 7.61116 34.001 17 34.001Z" fill="#F0F0F0"/>
<path d="M34 17.0009C34 26.3895 26.3886 34.0008 17 34.0008C7.61136 34.0008 0 26.3895 0 17.0009C0 7.61222 17 17.0009 17 17.0009H34Z" fill="#D80027"/>
<path d="M0 17.001C0 7.61234 7.61136 0.000976562 17 0.000976562V17.001H0Z" fill="#0052B4"/>
<path d="M10.1201 5.91504L11.2199 9.30217H14.7822L11.8999 11.3963L13.0023 14.7834L10.1201 12.6893L7.23778 14.7834L8.33763 11.3963L5.45535 9.30217H9.01763L10.1201 5.91504Z" fill="#F0F0F0"/>
</svg>
