<svg width="34" height="34" viewBox="0 0 34 34" fill="none" xmlns="http://www.w3.org/2000/svg">
<path d="M17 34.001C26.3888 34.001 34 26.3898 34 17.001C34 7.61214 26.3888 0.000976562 17 0.000976562C7.61116 0.000976562 0 7.61214 0 17.001C0 26.3898 7.61116 34.001 17 34.001Z" fill="#D80027"/>
<path d="M9.30338 10.3477L10.7716 14.8629H15.5187L11.6808 17.6577L13.149 22.1729L9.30338 19.386L5.45777 22.1729L6.93368 17.6577L3.08807 14.8629H7.83519L9.30338 10.3477Z" fill="#FFDA44"/>
<path d="M20.1551 26.3311L19.0321 24.9505L17.3707 25.5945L18.334 24.1006L17.211 22.7122L18.9316 23.1707L19.9027 21.6768L19.9954 23.4566L21.7212 23.9151L20.0546 24.5513L20.1551 26.3311Z" fill="#FFDA44"/>
<path d="M22.3859 22.2822L22.9166 20.5823L21.4638 19.5519L23.2411 19.5262L23.7666 17.8262L24.3435 19.5133L26.1234 19.4927L24.6964 20.5539L25.2682 22.241L23.8129 21.2133L22.3859 22.2822Z" fill="#FFDA44"/>
<path d="M25.3943 12.4785L24.6113 14.0807L25.8863 15.3222L24.1244 15.0697L23.3414 16.6641L23.0375 14.9101L21.2705 14.6576L22.8494 13.8282L22.5455 12.0664L23.8205 13.3105L25.3943 12.4785Z" fill="#FFDA44"/>
<path d="M20.2013 7.63086L20.0674 9.40556L21.721 10.0753L19.9875 10.5003L19.8613 12.2801L18.9263 10.7656L17.1928 11.1905L18.3416 9.83057L17.3989 8.32118L19.0525 8.99345L20.2013 7.63086Z" fill="#FFDA44"/>
</svg>
