<svg width="34" height="34" viewBox="0 0 34 34" fill="none" xmlns="http://www.w3.org/2000/svg">
<path d="M29.0216 29.0223C22.3838 35.6602 11.6196 35.6602 4.97929 29.0223C-1.66105 22.3844 -1.65847 11.62 4.97929 4.97949C5.50217 5.50238 18.5691 15.4322 18.5691 15.4322L29.0216 29.0223Z" fill="#0052B4"/>
<path d="M4.97961 4.9794C11.6174 -1.6585 22.3815 -1.6585 29.0219 4.9794C35.6596 11.6173 35.6596 22.3817 29.0219 29.0222" fill="#6DA544"/>
<path d="M17.0005 21.4356C19.4501 21.4356 21.4359 19.4497 21.4359 17C21.4359 14.5503 19.4501 12.5645 17.0005 12.5645C14.5508 12.5645 12.565 14.5503 12.565 17C12.565 19.4497 14.5508 21.4356 17.0005 21.4356Z" fill="#FFDA44"/>
<path d="M6.33149 24.3936L6.79772 25.3672L7.85121 25.1251L7.37985 26.0962L8.22471 26.7685L7.1712 27.008L7.17378 28.0873L6.33149 27.4124L5.48666 28.0873L5.48924 27.008L4.43573 26.7685L5.28317 26.0962L4.81181 25.1251L5.86272 25.3672L6.33149 24.3936Z" fill="#F0F0F0"/>
<path d="M3.27919 16.2617L3.74542 17.238L4.7989 16.9932L4.32754 17.9669L5.17495 18.6392L4.11889 18.8762L4.12147 19.958L3.27919 19.2806L2.43433 19.958L2.43948 18.8762L1.38342 18.6392L2.23086 17.9669L1.75948 16.9932L2.81299 17.238L3.27919 16.2617Z" fill="#F0F0F0"/>
<path d="M6.33149 9.6084L6.79772 10.5846L7.85121 10.3425L7.37985 11.3136L8.22471 11.9859L7.1712 12.2228L7.17378 13.3047L6.33149 12.6298L5.48666 13.3047L5.48924 12.2228L4.43573 11.9859L5.28317 11.3136L4.81181 10.3425L5.86272 10.5846L6.33149 9.6084Z" fill="#F0F0F0"/>
<path d="M10.1206 14.7832L10.5868 15.7595L11.6403 15.5147L11.1689 16.4884L12.0164 17.1607L10.9629 17.3977L10.9654 18.4795L10.1206 17.8021L9.27834 18.4795L9.28091 17.3977L8.22485 17.1607L9.07226 16.4884L8.60091 15.5147L9.65439 15.7595L10.1206 14.7832Z" fill="#F0F0F0"/>
<path d="M7.41074 19.2188L7.77648 20.347H8.96394L8.00315 21.045L8.3715 22.1758L7.41074 21.4778L6.44998 22.1758L6.81572 21.045L5.85754 20.347H7.04239L7.41074 19.2188Z" fill="#F0F0F0"/>
<path d="M17.0006 19.958H18.4791C18.4791 19.958 19.1205 18.8247 18.4791 17.7402L19.9576 16.2617L19.2183 14.7832H18.4791C18.4791 14.7832 18.1107 15.8908 16.6323 15.8908C15.1538 15.8908 14.7854 14.7832 14.7854 14.7832H14.0462L14.7854 16.2617L14.0462 17.7402L14.7854 18.4795C14.7854 18.4795 15.5247 17.001 17.0032 17.7402C17.0032 17.7402 17.6317 18.665 17.0032 19.958H17.0006Z" fill="#6DA544"/>
<path d="M28.0351 9.31182C28.0711 9.12894 28.0892 8.94347 28.0892 8.75028C28.0892 7.43661 27.2314 6.3213 26.044 5.9375C26.4072 6.67419 26.6107 7.5036 26.6107 8.38195C26.6107 8.67817 26.5875 8.96667 26.5412 9.25001C26.3634 8.96151 26.1342 8.69878 25.8534 8.47726C24.7973 7.63754 23.3549 7.61436 22.2886 8.32272C23.1128 8.50302 23.9087 8.86877 24.6119 9.42772C25.1631 9.86561 25.6087 10.4606 25.9513 11.0325L21.4385 12.4466C25.874 13.1858 29.5703 10.2288 29.5703 10.2288C29.1607 9.40969 28.5245 9.27061 28.0377 9.31182H28.0351Z" fill="#FFDA44"/>
</svg>
