<svg width="34" height="34" viewBox="0 0 34 34" fill="none" xmlns="http://www.w3.org/2000/svg">
<path d="M17 34.001C26.3888 34.001 34 26.3898 34 17.001C34 7.61214 26.3888 0.000976562 17 0.000976562C7.61116 0.000976562 0 7.61214 0 17.001C0 26.3898 7.61116 34.001 17 34.001Z" fill="#6DA544"/>
<path d="M26.0971 24.3936L26.5633 25.3672L27.6168 25.1251L27.1455 26.0962L27.9903 26.7684L26.9368 27.008L26.9394 28.0872L26.0971 27.4124L25.2523 28.0872L25.2549 27.008L24.2014 26.7684L25.0488 26.0962L24.5774 25.1251L25.6309 25.3672L26.0971 24.3936Z" fill="#FFDA44"/>
<path d="M21.7571 14.0449L22.2234 15.0211L23.2768 14.7764L22.8055 15.7501L23.6529 16.4223L22.5968 16.6593L22.5994 17.7411L21.7571 17.0637L20.9123 17.7411L20.9149 16.6593L19.8614 16.4223L20.7088 15.7501L20.2374 14.7764L21.2909 15.0211L21.7571 14.0449Z" fill="#FFDA44"/>
<path d="M26.0971 8.13281L26.5633 9.10646L27.6168 8.86435L27.1455 9.83542L27.9903 10.5077L26.9368 10.7472L26.9394 11.8265L26.0971 11.1516L25.2523 11.8265L25.2549 10.7472L24.2014 10.5077L25.0488 9.83542L24.5774 8.86435L25.6309 9.10646L26.0971 8.13281Z" fill="#FFDA44"/>
<path d="M29.8862 12.5654L30.3524 13.5416L31.4059 13.2969L30.9346 14.2706L31.782 14.9428L30.7285 15.1798L30.7311 16.2616L29.8862 15.5842L29.044 16.2616L29.0465 15.1798L27.9905 14.9428L28.8379 14.2706L28.3665 13.2969L29.42 13.5416L29.8862 12.5654Z" fill="#FFDA44"/>
<path d="M27.1762 17.7402L27.5419 18.8684H28.7294L27.7686 19.5664L28.1369 20.6972L27.1762 19.9992L26.2154 20.6972L26.5812 19.5664L25.623 18.8684H26.8104L27.1762 17.7402Z" fill="#FFDA44"/>
<path d="M18.8464 21.8046C16.1934 21.8046 14.0426 19.6539 14.0426 17.0008C14.0426 14.3478 16.1934 12.197 18.8464 12.197C19.6732 12.197 20.4511 12.4057 21.1311 12.774C20.0647 11.7308 18.6068 11.0869 16.997 11.0869C13.7309 11.0869 11.0831 13.7348 11.0831 17.0008C11.0831 20.2669 13.7309 22.9148 16.997 22.9148C18.6068 22.9148 20.0647 22.2709 21.1311 21.2277C20.4511 21.596 19.6732 21.8046 18.8464 21.8046Z" fill="#FFDA44"/>
<path d="M10.6891 6.65426C10.1766 5.77078 9.22356 5.17578 8.12886 5.17578C7.03416 5.17578 6.08112 5.77078 5.56854 6.65426H10.6891Z" fill="#FFDA44"/>
<path d="M10.6992 6.66992L8.12863 9.24052L5.55799 6.66992C5.3133 7.10007 5.17163 7.59978 5.17163 8.13039C5.17163 9.76342 6.4956 11.0874 8.12863 11.0874C9.76166 11.0874 11.0856 9.76342 11.0856 8.13039C11.0856 7.59978 10.9439 7.10007 10.6992 6.66992Z" fill="#FFDA44"/>
<path d="M7.39227 8.50098V10.9943C7.62924 11.0561 7.87651 11.087 8.13151 11.087C8.38651 11.087 8.63379 11.0536 8.87076 10.9943V8.50098H7.39227Z" fill="#A2001D"/>
</svg>
