<svg width="34" height="34" viewBox="0 0 34 34" fill="none" xmlns="http://www.w3.org/2000/svg">
<path d="M17 34.0005C26.3888 34.0005 34 26.3895 34 17.0008C34 7.61204 26.3888 0.000976562 17 0.000976562C7.61116 0.000976562 0 7.61204 0 17.0008C0 26.3895 7.61116 34.0005 17 34.0005Z" fill="#F0F0F0"/>
<path d="M33.9998 16.9521H15.5703C11.9127 20.6097 9.70011 23.4352 7.4386 25.6941L17.0462 26.5596L31.9573 25.0811C33.258 22.678 33.9973 19.9245 33.9973 17.0011C33.9973 16.9856 33.9973 16.9676 33.9973 16.9521H33.9998Z" fill="#D80027"/>
<path d="M7.44117 8.82026H31.9058C29.0158 3.5632 23.4238 0.000976562 16.9998 0.000976562C12.3171 0.000976562 8.07997 1.89413 5.00452 4.95667L7.44117 8.82026Z" fill="#FFDA44"/>
<path d="M8.18042 25.0811C6.653 26.6085 6.06057 27.8886 4.95557 28.9961C8.0336 32.087 12.2939 34.0008 16.9998 34.0008C23.4624 34.0008 29.0853 30.3922 31.9598 25.0811H8.18042Z" fill="#0052B4"/>
<path d="M4.97897 4.93164C-1.65876 11.5693 -1.65876 22.3332 4.97897 28.9734C7.72215 26.2303 10.3597 23.5928 17 16.9526L4.97897 4.93164Z" fill="#6DA544"/>
<path d="M4.48423 16.952C4.48423 14.4742 6.22545 12.4058 8.54879 11.8984C8.19076 11.8211 7.81983 11.7773 7.4412 11.7773C4.58468 11.7773 2.26654 14.0929 2.26654 16.952C2.26654 19.8111 4.58211 22.1266 7.4412 22.1266C7.82241 22.1266 8.19333 22.0854 8.54879 22.0056C6.22545 21.4982 4.48423 19.4298 4.48423 16.952Z" fill="#F0F0F0"/>
<path d="M8.49196 12.5166L8.76758 13.364H9.65879L8.93756 13.8869L9.21318 14.7343L8.49196 14.2114L7.77074 14.7343L8.04636 13.8869L7.32513 13.364H8.21634L8.49196 12.5166Z" fill="#F0F0F0"/>
<path d="M8.49196 14.7344L8.76758 15.5818H9.65879L8.93756 16.1047L9.21318 16.9521L8.49196 16.4292L7.77074 16.9521L8.04636 16.1047L7.32513 15.5818H8.21634L8.49196 14.7344Z" fill="#F0F0F0"/>
<path d="M8.49196 16.9521L8.76758 17.7995H9.65879L8.93756 18.3224L9.21318 19.1698L8.49196 18.647L7.77074 19.1698L8.04636 18.3224L7.32513 17.7995H8.21634L8.49196 16.9521Z" fill="#F0F0F0"/>
<path d="M8.49196 19.1699L8.76758 20.0173H9.65879L8.93756 20.5402L9.21318 21.3876L8.49196 20.8622L7.77074 21.3876L8.04636 20.5402L7.32513 20.0173H8.21634L8.49196 19.1699Z" fill="#F0F0F0"/>
</svg>
