<svg width="34" height="34" viewBox="0 0 34 34" fill="none" xmlns="http://www.w3.org/2000/svg">
<path d="M34 17.001C34 26.3896 26.3886 34.001 17 34.001C7.61136 34.001 0 26.3896 0 17.001C0 17.0061 17 0.00355232 17 0.000976562C26.3886 0.000976562 34 7.61234 34 17.001Z" fill="#0052B4"/>
<path d="M16.9535 17.0016H17V16.9551C16.9845 16.9706 16.969 16.9861 16.9535 17.0016Z" fill="#F0F0F0"/>
<path d="M17 8.86932V0.000976562H16.9974C7.60879 0.000976562 0 7.61234 0 17.001H8.86832V12.0066L13.8627 17.001H16.9537L17 16.9546V13.8637L12.0056 8.86932H17Z" fill="#F0F0F0"/>
<path d="M8.60051 2.21875C5.94232 3.7333 3.73238 5.9433 2.21783 8.60149V17.001H6.65328V6.6542H17.0001V2.21875H8.60051Z" fill="#D80027"/>
<path d="M17 14.9093L10.9599 8.86914H8.86835L16.9975 17.0008V14.9093H17Z" fill="#D80027"/>
<path d="M22.9139 17.001L23.2281 17.9695H24.2455L23.4213 18.567L23.7355 19.5355L22.9139 18.938L22.0896 19.5355L22.4039 18.567L21.5797 17.9695H22.5996L22.9139 17.001Z" fill="#F0F0F0"/>
<path d="M18.7307 18.7312L19.6374 19.1949L20.3586 18.4736L20.1989 19.4808L21.1056 19.9418L20.101 20.1015L19.9413 21.106L19.4802 20.1994L18.4731 20.3591L19.1944 19.6379L18.7307 18.7312Z" fill="#F0F0F0"/>
<path d="M17 22.9153L17.9685 22.601V21.5811L18.5661 22.4053L19.5346 22.091L18.937 22.9153L19.5346 23.737L18.5661 23.4227L17.9685 24.247V23.2295L17 22.9153Z" fill="#F0F0F0"/>
<path d="M18.7307 27.0955L19.1944 26.1889L18.4731 25.4677L19.4802 25.6274L19.9413 24.7207L20.101 25.7253L21.1056 25.885L20.1989 26.3486L20.3586 27.3531L19.6374 26.6319L18.7307 27.0955Z" fill="#F0F0F0"/>
<path d="M22.9139 28.8266L22.5996 27.8581H21.5797L22.4039 27.2605L22.0896 26.292L22.9139 26.8922L23.7355 26.292L23.4213 27.2605L24.2455 27.8581H23.2281L22.9139 28.8266Z" fill="#F0F0F0"/>
<path d="M27.0943 27.0955L26.1877 26.6345L25.4665 27.3531L25.6262 26.3486L24.7195 25.885L25.7241 25.7253L25.8837 24.7207L26.3474 25.6274L27.3519 25.4677L26.6307 26.1889L27.0943 27.0955Z" fill="#F0F0F0"/>
<path d="M28.8253 22.9153L27.8568 23.2295V24.247L27.2593 23.4227L26.2908 23.737L26.8909 22.9153L26.2908 22.091L27.2593 22.4053L27.8568 21.5811V22.601L28.8253 22.9153Z" fill="#F0F0F0"/>
<path d="M27.0943 18.7312L26.6333 19.6379L27.3519 20.3591L26.3474 20.1994L25.8837 21.106L25.7241 20.1015L24.7195 19.9418L25.6262 19.4808L25.4665 18.4736L26.1877 19.1949L27.0943 18.7312Z" fill="#F0F0F0"/>
</svg>
