<svg width="34" height="34" viewBox="0 0 34 34" fill="none" xmlns="http://www.w3.org/2000/svg">
<path d="M17 34.001C26.3888 34.001 34 26.3898 34 17.001C34 7.61214 26.3888 0.000976562 17 0.000976562C7.61116 0.000976562 0 7.61214 0 17.001C0 26.3898 7.61116 34.001 17 34.001Z" fill="#FCFCFC"/>
<path d="M22.9191 14.3996C22.9191 10.8038 20.0034 7.89062 16.4102 7.89062C13.7572 7.89062 11.4751 9.47729 10.4628 11.7543L9.65913 14.6649L10.3984 15.4041L8.91986 18.3611L10.3984 19.1003L9.65913 19.8396V20.5788L10.3984 21.3181V22.7965L11.1376 23.5358L13.3554 22.7965C13.3554 22.7965 13.3553 23.5358 14.0946 24.275C14.8338 25.0143 15.5731 26.4927 15.5731 26.4927C15.5731 26.4927 17.7908 27.232 19.2693 25.0143C20.7478 22.7965 22.2263 22.0573 22.2263 22.0573L20.8019 19.2085C22.1052 18.0185 22.9217 16.3056 22.9217 14.4021L22.9191 14.3996Z" fill="black"/>
<path d="M23.4498 16.8898C26.4532 16.3824 26.9528 10.502 26.9528 10.502H22.8136C24.9567 15.6767 22.7131 16.0244 22.7131 16.0244C22.4092 15.7977 11.5318 10.6462 11.1866 10.5148C11.1042 10.6256 10.7977 10.9192 10.4268 11.8259C10.0559 12.7351 9.96313 13.5516 9.96313 13.5516C10.1383 13.665 21.688 17.6986 21.9945 17.7321C22.5998 18.1288 23.3468 19.3136 22.9295 22.8269L26.9142 21.7039C26.9142 21.7039 25.5619 18.1081 23.4498 16.8898Z" fill="#ACABB1"/>
</svg>
