<svg width="34" height="34" viewBox="0 0 34 34" fill="none" xmlns="http://www.w3.org/2000/svg">
<path d="M17.0009 34.0006C26.3891 34.0006 33.9998 26.3895 33.9998 17.0008C33.9998 7.61205 26.3891 0.000976562 17.0009 0.000976562C7.61262 0.000976562 0.00195312 7.61205 0.00195312 17.0008C0.00195312 26.3895 7.61262 34.0006 17.0009 34.0006Z" fill="#F0F0F0"/>
<path d="M32.9418 11.0869H1.0586C0.376064 12.9286 0 14.9196 0 17.0008C0 19.082 0.373488 21.073 1.0586 22.9146H32.9418C33.6243 21.073 33.9978 19.082 33.9978 17.0008C33.9978 14.9196 33.6243 12.9286 32.9392 11.0869H32.9418Z" fill="#D80027"/>
<path d="M17.0011 0.000976562C11.8499 0.000976562 7.23188 2.29336 4.11542 5.91484H29.8868C26.7703 2.29336 22.1523 0.000976562 17.0011 0.000976562Z" fill="#0052B4"/>
<path d="M29.8867 28.0869H4.11536C7.23182 31.7084 11.8499 34.0008 17.0011 34.0008C22.1522 34.0008 26.7703 31.7084 29.8867 28.0869Z" fill="#0052B4"/>
</svg>
