<svg width="34" height="34" viewBox="0 0 34 34" fill="none" xmlns="http://www.w3.org/2000/svg">
<path d="M34 17.0008C34 14.9222 33.6265 12.9286 32.9414 11.0869L17 10.3477L1.05864 11.0869C0.376061 12.9286 0 14.9196 0 17.0008C0 19.082 0.373485 21.0731 1.05864 22.9148L17 23.654L32.9414 22.9148C33.6239 21.0731 34 19.082 34 17.0008Z" fill="#F0F0F0"/>
<path d="M16.9999 34.0011C24.3099 34.0011 30.5407 29.3879 32.9413 22.915H1.05595C3.45914 29.3879 9.68989 34.0011 16.9973 34.0011H16.9999Z" fill="#0052B4"/>
<path d="M1.05835 11.087H32.9436C30.5405 4.61417 24.3097 0.000976562 17.0023 0.000976562C9.69486 0.000976562 3.46153 4.61417 1.06093 11.087H1.05835Z" fill="#D80027"/>
<path d="M21.4349 11.8264H18.478L18.9699 8.13278L20.9404 6.6543L22.9134 8.13278V11.0872L21.4349 11.8264Z" fill="#338AF3"/>
<path d="M12.5644 11.8264H15.5214L15.0294 8.13278L13.0589 6.6543L11.0859 8.13278V11.0872L12.5644 11.8264Z" fill="#338AF3"/>
<path d="M18.9703 11.8264H15.0294V8.13278L16.9999 6.6543L18.9703 8.13278V11.8264Z" fill="#0052B4"/>
<path d="M11.0859 11.0875V19.2166C11.0859 21.1536 12.0209 22.8742 13.4633 23.9534L14.4988 23.6933L15.8047 25.0069C16.1911 25.0868 16.5903 25.128 16.9998 25.128C17.4094 25.128 17.8035 25.0868 18.1898 25.0069L19.6812 23.7654L20.5364 23.9483C21.9788 22.869 22.9138 21.1484 22.9138 19.214V11.085H11.0885L11.0859 11.0875Z" fill="#F0F0F0"/>
<path d="M13.4505 11.0869H11.0859V13.4514H13.4505V11.0869Z" fill="#D80027"/>
<path d="M18.1819 11.0869H15.8173V13.4514H18.1819V11.0869Z" fill="#D80027"/>
<path d="M22.9111 11.0869H20.5466V13.4514H22.9111V11.0869Z" fill="#D80027"/>
<path d="M15.8175 13.4541H13.4529V15.8187H15.8175V13.4541Z" fill="#D80027"/>
<path d="M20.5463 13.4541H18.1817V15.8187H20.5463V13.4541Z" fill="#D80027"/>
<path d="M13.4504 15.8193H11.0859V18.1839H13.4504V15.8193Z" fill="#D80027"/>
<path d="M15.8175 18.1836H13.4529V20.5482H15.8175V18.1836Z" fill="#D80027"/>
<path d="M18.1819 15.8193H15.8173V18.1839H18.1819V15.8193Z" fill="#D80027"/>
<path d="M22.9111 15.8193H20.5466V18.1839H22.9111V15.8193Z" fill="#D80027"/>
<path d="M20.5463 18.1836H18.1817V20.5482H20.5463V18.1836Z" fill="#D80027"/>
<path d="M18.1819 20.5479H15.8173V22.9124H18.1819V20.5479Z" fill="#D80027"/>
<path d="M13.4529 20.5479H11.2403C11.4438 21.4262 11.8431 22.2324 12.3891 22.9124H13.4529V20.5479Z" fill="#D80027"/>
<path d="M20.5466 22.9124H21.6104C22.1564 22.2298 22.5557 21.4262 22.7592 20.5479H20.5466V22.9124Z" fill="#D80027"/>
<path d="M13.4529 22.9121V23.945C14.1406 24.4627 14.9443 24.8336 15.8175 25.0114V22.9121H13.4529Z" fill="#D80027"/>
<path d="M18.1817 22.9121V25.0114C19.0549 24.8336 19.8586 24.4627 20.5463 23.945V22.9121H18.1817Z" fill="#D80027"/>
</svg>
