<svg width="34" height="34" viewBox="0 0 34 34" fill="none" xmlns="http://www.w3.org/2000/svg">
<path d="M17 34.001C26.3888 34.001 34 26.3898 34 17.001C34 7.61214 26.3888 0.000976562 17 0.000976562C7.61116 0.000976562 0 7.61214 0 17.001C0 26.3898 7.61116 34.001 17 34.001Z" fill="#F0F0F0"/>
<path d="M17.0001 0.000976562C11.439 0.000976562 6.50127 2.67204 3.40005 6.80098H30.6026C27.5014 2.67204 22.5637 0.000976562 17.0026 0.000976562H17.0001Z" fill="#0052B4"/>
<path d="M16.9995 34.0012C22.5606 34.0012 27.4983 31.3301 30.5995 27.2012H3.39694C6.49815 31.3301 11.4359 34.0012 16.9969 34.0012H16.9995Z" fill="#0052B4"/>
<path d="M0 17.0006C0 18.1648 0.118487 19.3007 0.340002 20.4006H33.66C33.8841 19.3033 34 18.1648 34 17.0006C34 15.8363 33.8815 14.7004 33.66 13.6006H0.340002C0.115911 14.6979 0 15.8363 0 17.0006Z" fill="#0052B4"/>
<path d="M4.97878 4.97949C-1.65894 11.6172 -1.65894 22.3813 4.97878 29.0216C7.72197 26.2785 10.3595 23.6409 16.9998 17.0006L4.97878 4.97949Z" fill="#D80027"/>
<path d="M6.87953 12.5654L7.98195 15.9526H11.5442L8.66196 18.0466L9.7618 21.4363L6.87953 19.3422L3.99726 21.4363L5.09968 18.0466L2.21741 15.9526H5.77968L6.87953 12.5654Z" fill="#F0F0F0"/>
</svg>
