<svg width="34" height="34" viewBox="0 0 34 34" fill="none" xmlns="http://www.w3.org/2000/svg">
<path d="M16.9987 34.001C26.3868 34.001 33.9974 26.3898 33.9974 17.001C33.9974 7.61214 26.3868 0.000976562 16.9987 0.000976562C7.61058 0.000976562 0 7.61214 0 17.001C0 26.3898 7.61058 34.001 16.9987 34.001Z" fill="#FFDA44"/>
<path d="M16.9987 34.0011C22.5774 34.0011 27.5276 31.3146 30.626 27.165H3.37143C6.46983 31.3146 11.4201 34.0011 16.9987 34.0011Z" fill="#0052B4"/>
<path d="M33.9974 17.001C33.9974 7.61234 26.3866 0.000976562 16.9987 0.000976562C7.61079 0.000976562 0 7.61234 0 17.001C0 19.0101 0.35027 20.9393 0.991585 22.7295H33.0084C33.6497 20.9393 34 19.0101 34 17.001H33.9974Z" fill="#0052B4"/>
<path d="M11.6337 10.9043L12.5532 13.7273H15.5202L13.1198 15.4711L14.0367 18.2942L11.6337 16.5504L9.23327 18.2942L10.1502 15.4711L7.74976 13.7273H10.7168L11.6337 10.9043Z" fill="#F0F0F0"/>
<path d="M6.53654 7.94727L7.08771 9.64213H8.86742L7.42769 10.6879L7.97885 12.3827L6.53654 11.3344L5.09679 12.3827L5.64797 10.6879L4.20566 9.64213H5.98794L6.53654 7.94727Z" fill="#F0F0F0"/>
</svg>
