<svg width="34" height="34" viewBox="0 0 34 34" fill="none" xmlns="http://www.w3.org/2000/svg">
<path d="M17 34.001C26.3888 34.001 34 26.3898 34 17.001C34 7.61214 26.3888 0.000976562 17 0.000976562C7.61116 0.000976562 0 7.61214 0 17.001C0 26.3898 7.61116 34.001 17 34.001Z" fill="#FCFCFC"/>
<path d="M26.6078 14.7832H24.39C24.39 18.8658 21.0802 22.1756 16.9976 22.1756C12.915 22.1756 9.60521 18.8658 9.60521 14.7832H7.38748C7.38748 19.18 10.3419 22.8865 14.3729 24.0302C13.9299 24.8699 13.9995 25.9259 14.6305 26.7141C15.4599 26.0496 16.3176 25.3618 17.0466 24.7771C17.7755 25.3618 18.6332 26.0496 19.4626 26.7141C20.1014 25.9182 20.1632 24.8467 19.7073 24.0044C23.6946 22.835 26.6078 19.1491 26.6078 14.7832Z" fill="#6DA544"/>
<path d="M11.0861 14.0448C11.0861 14.0448 11.0861 17.741 14.7823 17.741L15.5216 18.4803H17C17 18.4803 17.7393 16.2625 19.2178 16.2625C19.2178 16.2625 19.2178 14.784 20.6963 14.784H22.914C22.914 14.784 22.1747 11.8271 25.8709 9.60936L24.3925 8.87012C24.3925 8.87012 19.2178 12.5663 15.5241 11.8271V13.3056H14.0457L13.3064 12.5663L11.0887 14.0448H11.0861Z" fill="#FFDA44"/>
</svg>
