<svg width="34" height="34" viewBox="0 0 34 34" fill="none" xmlns="http://www.w3.org/2000/svg">
<path d="M17 34.0005C26.3888 34.0005 34 26.3895 34 17.0007C34 7.61203 26.3888 0.000976562 17 0.000976562C7.61116 0.000976562 0 7.61203 0 17.0007C0 26.3895 7.61116 34.0005 17 34.0005Z" fill="#F0F0F0"/>
<path d="M15.5213 17.001C15.5213 17.001 4.98903 29.0245 4.97873 29.0219C8.05418 32.0973 12.3042 34.0007 16.9998 34.0007C26.3884 34.0007 33.9998 26.3895 33.9998 17.001H15.5213Z" fill="#D80027"/>
<path d="M4.97872 4.97949C-1.65901 11.6171 -1.65901 22.3811 4.97872 29.0213C7.7219 26.2782 10.3595 23.6406 16.9998 17.0004L4.97872 4.97949Z" fill="#0052B4"/>
</svg>
