<svg width="34" height="34" viewBox="0 0 34 34" fill="none" xmlns="http://www.w3.org/2000/svg">
<path d="M32.1124 9.20651C31.3268 7.68422 30.2965 6.25722 29.0214 4.97963C27.7464 3.70461 26.3168 2.67429 24.7945 1.88867L12.8171 12.8204L1.88538 24.7978C2.67099 26.3201 3.70131 27.7497 4.97634 29.0247C6.25136 30.2997 7.68093 31.33 9.20323 32.1156L21.1807 21.184L32.1124 9.20651Z" fill="#FFDA44"/>
<path d="M4.97883 29.0214C5.69233 29.7349 6.45221 30.3711 7.25071 30.9301L30.93 7.25082C30.3711 6.45233 29.7349 5.69245 29.0214 4.97895C28.3079 4.26546 27.548 3.62926 26.7495 3.07031L3.07019 26.7496C3.62914 27.5481 4.26534 28.3079 4.97883 29.0214Z" fill="#D80027"/>
<path d="M4.97862 4.97959C-0.384197 10.3424 -1.41452 18.3969 1.88766 24.7952L24.7943 1.88863C18.396 -1.41354 10.3414 -0.38322 4.97862 4.97959Z" fill="#338AF3"/>
<path d="M29.0214 29.0226C34.3843 23.6598 35.4146 15.6053 32.1124 9.20703L9.20581 32.1136C15.6041 35.4158 23.6586 34.3854 29.0214 29.0226Z" fill="#338AF3"/>
<path d="M9.05876 5.17285L9.97573 7.99852H12.9456L10.5424 9.74231L11.462 12.5654L9.05876 10.8216L6.6581 12.5654L7.5751 9.74231L5.17444 7.99852H8.14176L9.05876 5.17285Z" fill="#FFDA44"/>
</svg>
