<svg width="34" height="34" viewBox="0 0 34 34" fill="none" xmlns="http://www.w3.org/2000/svg">
<path d="M17 34.001C26.3888 34.001 34 26.3898 34 17.001C34 7.61214 26.3888 0.000976562 17 0.000976562C7.61116 0.000976562 0 7.61214 0 17.001C0 26.3898 7.61116 34.001 17 34.001Z" fill="#F0F0F0"/>
<path d="M13.3032 14.7833H33.8552C32.7682 6.44295 25.636 0.000976562 16.9995 0.000976562C15.7296 0.000976562 14.4932 0.140054 13.3032 0.405357V14.7833Z" fill="#D80027"/>
<path d="M8.86812 14.7829V2.06641C4.20084 4.61383 0.85754 9.28625 0.141479 14.7829H8.86812Z" fill="#D80027"/>
<path d="M8.86812 19.2188H0.141479C0.85754 24.7154 4.19827 29.3878 8.86812 31.9353V19.2188Z" fill="#D80027"/>
<path d="M13.3032 19.2188V33.5966C14.4932 33.8594 15.7296 34.001 16.9995 34.001C25.636 34.001 32.7682 27.5591 33.8552 19.2188H13.3032Z" fill="#D80027"/>
</svg>
