<svg width="34" height="34" viewBox="0 0 34 34" fill="none" xmlns="http://www.w3.org/2000/svg">
<path d="M15.5209 18.4791C15.5209 18.4791 4.98839 4.97723 4.97809 4.9798C8.05363 1.90441 12.3037 0.000976562 16.9995 0.000976562C26.3884 0.000976562 33.9999 7.61218 33.9999 17.0006L15.5209 18.4791Z" fill="#338AF3"/>
<path d="M15.5209 17.001C15.5209 17.001 4.98839 29.0244 4.97809 29.0218C8.05363 32.0972 12.3037 34.0006 16.9995 34.0006C26.3884 34.0006 33.9999 26.3894 33.9999 17.001H15.5209Z" fill="#6DA544"/>
<path d="M4.97843 4.97949C-1.65948 11.6171 -1.65948 22.381 4.97843 29.0211C7.72169 26.278 10.3593 23.6405 16.9998 17.0003L4.97843 4.97949Z" fill="#F0F0F0"/>
<path d="M6.87919 12.5654L7.98166 15.9525H11.544L8.66165 18.0465L9.76153 21.4361L6.87919 19.3421L3.99686 21.4361L5.09932 18.0465L2.21698 15.9525H5.77931L6.87919 12.5654Z" fill="#D80027"/>
</svg>
