<svg width="34" height="34" viewBox="0 0 34 34" fill="none" xmlns="http://www.w3.org/2000/svg">
<path d="M17 34.001C26.3888 34.001 34 26.3898 34 17.001C34 7.61214 26.3888 0.000976562 17 0.000976562C7.61116 0.000976562 0 7.61214 0 17.001C0 26.3898 7.61116 34.001 17 34.001Z" fill="#F0F0F0"/>
<path d="M20.3254 33.6737C27.0455 32.3395 32.3387 27.0463 33.673 20.3262H20.3254V33.6737Z" fill="#496E2D"/>
<path d="M0.327515 20.3262C1.66176 27.0463 6.95496 32.3395 13.6751 33.6737V20.3262H0.327515Z" fill="#496E2D"/>
<path d="M33.673 13.6757C32.3387 6.95554 27.0455 1.66237 20.3254 0.328125V13.6757H33.673Z" fill="#496E2D"/>
<path d="M13.675 0.328125C6.9549 1.66237 1.6617 6.95554 0.327454 13.6757H13.675V0.328125Z" fill="#496E2D"/>
<path d="M15.8925 20.3252H13.6748V33.6728C14.3986 33.817 15.1378 33.9123 15.8925 33.9612V20.3252Z" fill="#FFDA44"/>
<path d="M15.8924 13.6751V0.0390625C15.1377 0.0880019 14.3985 0.185879 13.6747 0.327546V13.6751H15.8924Z" fill="#FFDA44"/>
<path d="M18.1077 0.0370409C17.7419 0.0138591 17.371 0.000976562 17.0001 0.000976562C16.6292 0.000976562 16.2583 0.0138591 15.8925 0.0370409V13.6731H18.1103V0.0370409H18.1077Z" fill="black"/>
<path d="M15.8925 33.9651C16.2582 33.9883 16.6292 34.0012 17.0001 34.0012C17.371 34.0012 17.7419 33.9883 18.1076 33.9651V20.3291H15.8899V33.9651H15.8925Z" fill="black"/>
<path d="M13.6747 15.8935V13.6758H0.32715C0.182908 14.3996 0.0875747 15.1388 0.0386353 15.8935H13.6747Z" fill="#FFDA44"/>
<path d="M20.3254 15.8935H33.9615C33.9125 15.1388 33.8146 14.3996 33.673 13.6758H20.3254V15.8935Z" fill="#FFDA44"/>
<path d="M20.3253 18.1087H33.9614C33.9846 17.743 33.9975 17.3721 33.9975 17.0011C33.9975 16.6302 33.9846 16.2593 33.9614 15.8936H20.3253V18.1113V18.1087Z" fill="black"/>
<path d="M0.0360329 15.8932C0.0128511 16.259 0 16.6299 0 17.0008C0 17.3717 0.0128511 17.7426 0.0360329 18.1084H13.6721V15.8906H0.0360329V15.8932Z" fill="black"/>
<path d="M17 25.1334C21.491 25.1334 25.1317 21.4928 25.1317 17.0018C25.1317 12.5108 21.491 8.87012 17 8.87012C12.509 8.87012 8.86829 12.5108 8.86829 17.0018C8.86829 21.4928 12.509 25.1334 17 25.1334Z" fill="#D80027"/>
<path d="M18.8523 17.9078C18.247 16.6972 17.4614 15.4737 17.4614 15.4737C17.4614 15.4737 17.482 14.9147 17.482 14.5825C17.482 14.0828 17.075 13.6758 16.5753 13.6758C16.1014 13.6758 15.7125 14.0416 15.6712 14.5052C15.2978 14.5284 15.0015 14.84 15.0015 15.2187C15.0015 15.4943 15.1586 15.7338 15.3853 15.8523C15.4986 15.587 15.7228 15.3784 15.9958 15.2831C16.0396 15.3191 16.0885 15.3526 16.14 15.3809L16.2559 15.4376C16.2559 15.4376 15.8258 16.6534 15.8258 17.305C15.8258 19.139 17.0363 19.7056 17.0363 19.7056V19.7237L16.4311 20.329H17.6417V19.1184L18.247 19.7237C18.247 19.7237 19.3932 18.9922 18.8523 17.9103V17.9078Z" fill="#496E2D"/>
<path d="M17 10.3477L17.2756 11.1951H18.1668L17.4456 11.7179L17.7212 12.5654L17 12.0425L16.2787 12.5654L16.5544 11.7179L15.8331 11.1951H16.7243L17 10.3477Z" fill="#496E2D"/>
<path d="M13.0901 11.6201L13.8114 12.143L14.5299 11.6201L14.257 12.465L14.9755 12.9904H14.0869L13.8114 13.8353L13.5357 12.9904H12.6445L13.3657 12.465L13.0901 11.6201Z" fill="#496E2D"/>
<path d="M10.6742 14.9451H11.5628L11.8384 14.0977L12.1141 14.9451H13.0053L12.284 15.468L12.5597 16.3154L11.8384 15.7925L11.1198 16.3154L11.3928 15.468L10.6742 14.9451Z" fill="#496E2D"/>
<path d="M10.6742 19.0558L11.3928 18.5329L11.1198 17.6855L11.8384 18.2084L12.5597 17.6855L12.284 18.5329L13.0053 19.0558H12.1141L11.8384 19.9033L11.5628 19.0558H10.6742Z" fill="#496E2D"/>
<path d="M13.0901 22.3812L13.3657 21.5363L12.6445 21.0108H13.5357L13.8114 20.166L14.0869 21.0108H14.9755L14.257 21.5363L14.5299 22.3812L13.8114 21.8583L13.0901 22.3812Z" fill="#496E2D"/>
<path d="M17 23.6542L16.7243 22.8068H15.8331L16.5544 22.284L16.2787 21.4365L17 21.9594L17.7212 21.4365L17.4456 22.284L18.1668 22.8068H17.2756L17 23.6542Z" fill="#496E2D"/>
<path d="M20.9104 22.3812L20.1892 21.8583L19.4706 22.3812L19.7436 21.5363L19.025 21.0108H19.9136L20.1892 20.166L20.4648 21.0108H21.356L20.6349 21.5363L20.9104 22.3812Z" fill="#496E2D"/>
<path d="M23.3262 19.0558H22.4376L22.1619 19.9033L21.8863 19.0558H20.9951L21.7163 18.5329L21.4407 17.6855L22.1619 18.2084L22.8806 17.6855L22.6075 18.5329L23.3262 19.0558Z" fill="#496E2D"/>
<path d="M23.3262 14.9451L22.6075 15.468L22.8806 16.3154L22.1619 15.7925L21.4407 16.3154L21.7163 15.468L20.9951 14.9451H21.8863L22.1619 14.0977L22.4376 14.9451H23.3262Z" fill="#496E2D"/>
<path d="M20.9104 11.6201L20.6349 12.465L21.356 12.9904H20.4648L20.1892 13.8353L19.9136 12.9904H19.025L19.7436 12.465L19.4706 11.6201L20.1892 12.143L20.9104 11.6201Z" fill="#496E2D"/>
</svg>
