<svg width="34" height="34" viewBox="0 0 34 34" fill="none" xmlns="http://www.w3.org/2000/svg">
<path d="M17 34.001C26.3888 34.001 34 26.3898 34 17.001C34 7.61214 26.3888 0.000976562 17 0.000976562C7.61116 0.000976562 0 7.61214 0 17.001C0 26.3898 7.61116 34.001 17 34.001Z" fill="#F0F0F0"/>
<path d="M0.584778 21.4365C2.15341 27.2603 6.74084 31.8452 12.5646 33.4164V21.4365H0.584778Z" fill="#D80027"/>
<path d="M12.5646 0.585938C6.74084 2.15457 2.15599 6.742 0.584778 12.5658H12.5646V0.585938Z" fill="#0052B4"/>
<path d="M33.4153 12.5658C31.8467 6.742 27.2593 2.15715 21.4355 0.585938V12.5658H33.4153Z" fill="#D80027"/>
<path d="M21.4355 33.4164C27.2593 31.8477 31.8441 27.2603 33.4153 21.4365H21.4355V33.4164Z" fill="#0052B4"/>
<path d="M21.4357 17.0009C21.4357 19.4504 19.4498 21.4363 17.0002 21.4363C14.5507 21.4363 12.5648 19.4504 12.5648 17.0009C12.5648 14.5513 17.0002 12.5654 17.0002 12.5654C17.0002 12.5654 21.4357 14.5513 21.4357 17.0009Z" fill="#496E2D"/>
<path d="M12.5648 17.0009C12.5648 14.5513 14.5507 12.5654 17.0002 12.5654C19.4498 12.5654 21.4357 14.5513 21.4357 17.0009" fill="#0052B4"/>
<path d="M14.5067 14.7832V17.5547C14.5067 18.9328 15.6245 20.048 17 20.048C18.3754 20.048 19.4933 18.9302 19.4933 17.5547V14.7832H14.5041H14.5067Z" fill="#D80027"/>
</svg>
