<svg width="34" height="34" viewBox="0 0 34 34" fill="none" xmlns="http://www.w3.org/2000/svg">
<path d="M17 34.001C26.3888 34.001 34 26.3898 34 17.001C34 7.61214 26.3888 0.000976562 17 0.000976562C7.61116 0.000976562 0 7.61214 0 17.001C0 26.3898 7.61116 34.001 17 34.001Z" fill="#FFDA44"/>
<path d="M16.9997 0.000976562C12.8373 0.000976562 9.02513 1.49748 6.07074 3.98051L24.3921 17.001L6.07074 30.0214C9.02513 32.5045 12.8373 34.001 16.9997 34.001C26.3883 34.001 33.9997 26.3896 33.9997 17.001C33.9997 7.61234 26.3883 0.000976562 16.9997 0.000976562Z" fill="#D80027"/>
<path d="M4.97872 4.97949C-1.65901 11.6172 -1.65901 22.3813 4.97872 29.0216C7.7219 26.2784 10.3595 23.6409 16.9998 17.0006L4.97872 4.97949Z" fill="black"/>
<path d="M4.71322 13.1064L7.29928 15.556L10.4288 13.8508L8.89882 17.068L11.4875 19.5175L7.95352 19.0564L6.4261 22.2736L5.77185 18.7731L2.23792 18.312L5.36746 16.6069L4.71322 13.1064Z" fill="#F0F0F0"/>
</svg>
