<svg width="34" height="34" viewBox="0 0 34 34" fill="none" xmlns="http://www.w3.org/2000/svg">
<path d="M0 17.001C0 7.61234 7.61136 0.000976562 17 0.000976562C26.3886 0.000976562 34 7.61234 34 17.001L17 18.4795L0 17.001Z" fill="#FFDA44"/>
<path d="M2.27417 25.5011C5.21311 30.5831 10.7072 34.0011 16.9998 34.0011C23.2924 34.0011 28.7864 30.5831 31.7254 25.5011L16.9998 24.3936L2.27417 25.5011Z" fill="#D80027"/>
<path d="M31.7256 25.501C33.1732 22.9999 34 20.097 34 17.001H0C0 20.097 0.82939 22.9999 2.27439 25.501H31.7256Z" fill="#0052B4"/>
<path d="M16.9999 22.9148C20.2661 22.9148 22.9138 20.267 22.9138 17.0008C22.9138 13.7347 20.2661 11.0869 16.9999 11.0869C13.7337 11.0869 11.0859 13.7347 11.0859 17.0008C11.0859 20.267 13.7337 22.9148 16.9999 22.9148Z" fill="#FFDA44"/>
<path d="M17 20.6971C14.9626 20.6971 13.3038 19.0383 13.3038 17.0008V14.7831C13.3038 12.7457 14.9626 11.0869 17 11.0869C19.0374 11.0869 20.6962 12.7457 20.6962 14.7831V17.0008C20.6962 19.0383 19.0374 20.6971 17 20.6971Z" fill="#338AF3"/>
<path d="M22.9138 8.13278H18.4784C18.4784 7.31626 17.8164 6.6543 16.9999 6.6543C16.1834 6.6543 15.5214 7.31626 15.5214 8.13278H11.0859C11.0859 8.94929 11.7968 9.61129 12.6134 9.61129H12.5644C12.5644 10.4278 13.2264 11.0898 14.0429 11.0898C14.0429 11.9063 14.7049 12.5683 15.5214 12.5683H18.4784C19.2949 12.5683 19.9568 11.9063 19.9568 11.0898C20.7734 11.0898 21.4353 10.4278 21.4353 9.61129H21.3864C22.2029 9.61129 22.9138 8.94929 22.9138 8.13278Z" fill="black"/>
</svg>
