<svg width="34" height="34" viewBox="0 0 34 34" fill="none" xmlns="http://www.w3.org/2000/svg">
<path d="M17 34.001C26.3888 34.001 34 26.3898 34 17.001C34 7.61214 26.3888 0.000976562 17 0.000976562C7.61116 0.000976562 0 7.61214 0 17.001C0 26.3898 7.61116 34.001 17 34.001Z" fill="#F0F0F0"/>
<path d="M16.9997 0.000976562C9.68972 0.000976562 3.45896 4.61417 1.05835 11.087H32.9437C30.5405 4.61417 24.3097 0.000976562 16.9997 0.000976562Z" fill="#D80027"/>
<path d="M16.9999 34.0011C24.3099 34.0011 30.5407 29.3879 32.9413 22.915H1.05595C3.45914 29.3879 9.6899 34.0011 16.9973 34.0011H16.9999Z" fill="black"/>
<path d="M22.914 15.1543H18.4786C18.4786 14.3377 17.8166 13.6758 17.0001 13.6758C16.1836 13.6758 15.5216 14.3377 15.5216 15.1543H11.0861C11.0861 15.9708 11.797 16.6327 12.6136 16.6327H12.5646C12.5646 17.4493 13.2266 18.1113 14.0431 18.1113C14.0431 18.9278 14.7051 19.5897 15.5216 19.5897H18.4786C19.2951 19.5897 19.957 18.9278 19.957 18.1113C20.7736 18.1113 21.4355 17.4493 21.4355 16.6327H21.3866C22.2031 16.6327 22.914 15.9708 22.914 15.1543Z" fill="#FF9811"/>
</svg>
