<svg width="34" height="34" viewBox="0 0 34 34" fill="none" xmlns="http://www.w3.org/2000/svg">
<path d="M17 34.001C26.3888 34.001 34 26.3898 34 17.001C34 7.61214 26.3888 0.000976562 17 0.000976562C7.61116 0.000976562 0 7.61214 0 17.001C0 26.3898 7.61116 34.001 17 34.001Z" fill="#F0F0F0"/>
<path d="M10.3466 11.087H32.9412C30.538 4.61417 24.3072 0.000976562 16.9998 0.000976562C12.3042 0.000976562 8.05676 1.90445 4.97873 4.9799L10.3466 11.087Z" fill="#6DA544"/>
<path d="M10.3466 22.915H32.9412C30.538 29.3879 24.3072 34.0011 16.9998 34.0011C12.3042 34.0011 8.05676 32.0976 4.97873 29.0222L10.3466 22.915Z" fill="#D80027"/>
<path d="M4.97872 4.97949C-1.65901 11.6172 -1.65901 22.3813 4.97872 29.0216C7.7219 26.2784 10.3595 23.6409 16.9998 17.0006L4.97872 4.97949Z" fill="#0052B4"/>
<path d="M19.9568 14.0439V17.7402C19.9568 20.0042 22.9138 20.6971 22.9138 20.6971C22.9138 20.6971 25.8707 20.0042 25.8707 17.7402V14.0439H19.9568Z" fill="#DEDDE0"/>
<path d="M23.6531 17.0762H22.1747V19.2192H23.6531V17.0762Z" fill="#786145"/>
<path d="M24.3923 16.2617C24.3923 15.4452 23.7303 14.7832 22.9138 14.7832C22.0973 14.7832 21.4353 15.4452 21.4353 16.2617C21.0283 16.2617 20.696 16.5914 20.696 17.0009C20.696 17.4105 21.0257 17.7402 21.4353 17.7402H24.3923C24.7992 17.7402 25.1315 17.4105 25.1315 17.0009C25.1315 16.5914 24.8018 16.2617 24.3923 16.2617Z" fill="#6DA544"/>
</svg>
