<svg width="34" height="34" viewBox="0 0 34 34" fill="none" xmlns="http://www.w3.org/2000/svg">
<path d="M15.5211 15.5225C15.5211 15.5225 4.98857 29.0248 4.97827 29.0222C8.05378 32.0977 12.3039 34.0012 16.9996 34.0012C26.3884 34.0012 33.9999 26.3898 33.9999 17.001L15.5211 15.5225Z" fill="#338AF3"/>
<path d="M15.5211 17.0012C15.5211 17.0012 4.98857 4.97741 4.97827 4.97998C8.05378 1.90448 12.3039 0.000976562 16.9996 0.000976562C26.3884 0.000976562 33.9999 7.61246 33.9999 17.0012H15.5211Z" fill="#6DA544"/>
<path d="M4.97839 4.97949C-1.65946 11.6173 -1.65946 22.3816 4.97839 29.022C4.97839 29.0246 34 17.0008 34 17.0008L4.97839 4.97949Z" fill="#D80027"/>
<path d="M8.86784 9.97949C5.60687 9.97949 2.95377 12.6326 2.95377 15.8935V18.1113C2.95377 21.3723 5.60687 24.0253 8.86784 24.0253C12.1288 24.0253 14.7819 21.3723 14.7819 18.1113V15.8935C14.7819 12.6326 12.1288 9.97949 8.86784 9.97949ZM12.5641 18.1087C12.5641 19.7598 11.4745 21.161 9.97799 21.635V19.2189L11.5466 17.6502L9.97799 16.0816V15.5226V14.7834H7.76023V17.0011L6.19157 18.5698L7.76023 20.1385V21.6376C6.26368 21.1662 5.17411 19.765 5.17411 18.1113V15.8935C5.17411 13.8561 6.83292 12.1973 8.87038 12.1973C10.9078 12.1973 12.5667 13.8561 12.5667 15.8935V18.1113L12.5641 18.1087Z" fill="#FFDA44"/>
</svg>
