<svg width="34" height="34" viewBox="0 0 34 34" fill="none" xmlns="http://www.w3.org/2000/svg">
<path d="M0 17.0009C0 19.0796 0.373512 21.0732 1.05866 22.9149L17 23.6542L32.9413 22.9149C33.6239 21.0732 34 19.0821 34 17.0009C34 14.9197 33.6265 12.9286 32.9413 11.0869L17 10.3477L1.05866 11.0869C0.376088 12.9286 0 14.9197 0 17.0009Z" fill="black"/>
<path d="M17.0001 0.000976562C9.69011 0.000976562 3.45938 4.61422 1.05878 11.0872H32.944C30.5408 4.61422 24.3101 0.000976562 17.0001 0.000976562Z" fill="#0052B4"/>
<path d="M32.9414 22.915H1.05615C3.45933 29.388 9.69006 34.0012 16.9975 34.0012C24.3049 34.0012 30.5382 29.388 32.9388 22.915H32.9414Z" fill="#F0F0F0"/>
</svg>
