<svg width="34" height="34" viewBox="0 0 34 34" fill="none" xmlns="http://www.w3.org/2000/svg">
<path d="M0 17.0012C0 19.0799 0.373512 21.0736 1.05866 22.9152L17 24.3937L32.9413 22.9152C33.6239 21.0736 34 19.0825 34 17.0012C34 14.92 33.6368 12.983 32.9723 11.1645L17 9.61133L1.02772 11.1645C0.363179 12.9856 0 14.9509 0 17.0012Z" fill="#FFDA44"/>
<path d="M17.0001 34.0012C24.3101 34.0012 30.5408 29.388 32.9414 22.915H1.05615C3.45933 29.388 9.69006 34.0012 16.9975 34.0012H17.0001Z" fill="#D80027"/>
<path d="M16.9999 0.000976562C9.68993 0.000976562 3.4592 4.61422 1.05859 11.0872H32.9438C30.5407 4.61422 24.3099 0.000976562 16.9999 0.000976562Z" fill="#6DA544"/>
<path d="M16.9998 25.1327C21.4908 25.1327 25.1315 21.4919 25.1315 17.0009C25.1315 12.5098 21.4908 8.86914 16.9998 8.86914C12.5088 8.86914 8.8681 12.5098 8.8681 17.0009C8.8681 21.4919 12.5088 25.1327 16.9998 25.1327Z" fill="#0052B4"/>
<path d="M16.9972 10.7061L18.4654 15.2214H23.2228L19.3721 18.0136L20.8531 22.5444L16.9972 19.7393L13.1491 22.5392L14.6224 18.0136L10.7768 15.2214H15.5316L16.9972 10.7061Z" fill="#FFDA44"/>
<path d="M22.8519 18.1248L18.1949 16.6128L21.072 12.6512L19.8769 11.7832L16.9998 15.7448L14.1227 11.7832L12.9275 12.6512L15.8046 16.6128L11.1476 18.1248L11.6036 19.5312L16.2605 18.0192V22.9157H17.739V18.0192L22.396 19.5312L22.8519 18.1248Z" fill="#FFDA44"/>
</svg>
