<svg width="34" height="34" viewBox="0 0 34 34" fill="none" xmlns="http://www.w3.org/2000/svg">
<path d="M17 34.001C26.3888 34.001 34 26.3898 34 17.001C34 7.61214 26.3888 0.000976562 17 0.000976562C7.61116 0.000976562 0 7.61214 0 17.001C0 26.3898 7.61116 34.001 17 34.001Z" fill="#0052B4"/>
<path d="M17 6.6543L17.5512 8.34659H19.3311L17.8912 9.39491L18.4399 11.0872L17 10.0414L15.5601 11.0872L16.1088 9.39491L14.6689 8.34659H16.4488L17 6.6543Z" fill="#FFDA44"/>
<path d="M9.68226 9.68318L11.2689 10.492L12.5284 9.23242L12.2503 10.9917L13.8369 11.8005L12.0777 12.0786L11.7995 13.8379L10.9907 12.2512L9.23151 12.5294L10.491 11.2699L9.68226 9.68318Z" fill="#FFDA44"/>
<path d="M6.65344 17.001L8.34567 16.4498V14.6699L9.39402 16.1098L11.0863 15.5612L10.0405 17.001L11.0863 18.4408L9.39402 17.8922L8.34567 19.3321V17.5522L6.65344 17.001Z" fill="#FFDA44"/>
<path d="M9.68226 24.3187L10.491 22.7321L9.23151 21.4726L10.9907 21.7507L11.7995 20.1641L12.0777 21.9233L13.8369 22.2015L12.2503 23.0103L12.5284 24.7695L11.2689 23.51L9.68226 24.3187Z" fill="#FFDA44"/>
<path d="M17 27.3479L16.4488 25.6557H14.6689L16.1088 24.6073L15.5601 22.915L17 23.9608L18.4399 22.915L17.8912 24.6073L19.3311 25.6557H17.5512L17 27.3479Z" fill="#FFDA44"/>
<path d="M24.3179 24.3187L22.7312 23.51L21.4717 24.7695L21.7499 23.0103L20.1632 22.2015L21.9225 21.9233L22.2006 20.1641L23.0094 21.7507L24.7686 21.4726L23.5091 22.7321L24.3179 24.3187Z" fill="#FFDA44"/>
<path d="M27.3469 17.001L25.6546 17.5522V19.3321L24.6063 17.8922L22.914 18.4408L23.9598 17.001L22.914 15.5612L24.6063 16.1098L25.6546 14.6699V16.4498L27.3469 17.001Z" fill="#FFDA44"/>
<path d="M24.3179 9.68318L23.5091 11.2699L24.7686 12.5294L23.0094 12.2512L22.2006 13.8379L21.9225 12.0786L20.1632 11.8005L21.7499 10.9917L21.4717 9.23242L22.7312 10.492L24.3179 9.68318Z" fill="#FFDA44"/>
</svg>
