<svg width="34" height="34" viewBox="0 0 34 34" fill="none" xmlns="http://www.w3.org/2000/svg">
<path d="M34 17.001C34 26.3896 26.3886 34.001 17 34.001C7.61136 34.001 0 26.3896 0 17.001C0 17.0061 17 0.00355232 17 0.000976562C26.3886 0.000976562 34 7.61234 34 17.001Z" fill="#0052B4"/>
<path d="M16.9537 17.0016H17.0002V16.9551C16.9847 16.9706 16.9692 16.9861 16.9537 17.0016Z" fill="#F0F0F0"/>
<path d="M17 8.86932V0.000976562H16.9974C7.60879 0.000976562 0 7.61234 0 17.001H8.86832V12.0066L13.8627 17.001H16.9537C16.9691 16.9855 16.9845 16.9701 17 16.9546V13.8637L12.0056 8.86932H17Z" fill="#F0F0F0"/>
<path d="M8.60051 2.21777C5.94232 3.73232 3.73238 5.94233 2.21783 8.60051V17.0001H6.65328V6.65322H17.0001V2.21777H8.60051Z" fill="#D80027"/>
<path d="M16.9998 14.9093L10.9597 8.86914H8.86816L16.9973 16.9982V14.9067L16.9998 14.9093Z" fill="#D80027"/>
<path d="M27.3466 19.958V20.6973H21.4353V19.958H19.2176V22.915H20.6961V23.6542H28.0859V22.915H29.5644V19.958H27.3466Z" fill="#FFDA44"/>
<path d="M19.2176 8.86914V17.0008C19.2176 20.9623 24.3922 22.1755 24.3922 22.1755C24.3922 22.1755 29.567 20.9623 29.567 17.0008V8.86914H19.2202H19.2176Z" fill="#338AF3"/>
<path d="M24.3897 14.9346C23.0967 14.9346 23.0967 16.1168 21.8037 16.1168C20.5106 16.1168 20.5107 14.9346 19.2177 14.9346V17.0029C20.5107 17.0029 20.5106 18.1852 21.8037 18.1852C23.0967 18.1852 23.0967 17.0029 24.3897 17.0029C25.6828 17.0029 25.6828 18.1852 26.9758 18.1852C28.2688 18.1852 28.2688 17.0029 29.5619 17.0029V14.9346C28.2688 14.9346 28.2688 16.1168 26.9758 16.1168C25.6828 16.1168 25.6828 14.9346 24.3897 14.9346Z" fill="#F3F3F3"/>
<path d="M24.3897 10.793C23.0966 10.793 23.0966 11.9752 21.8036 11.9752C20.5106 11.9752 20.5106 10.793 19.2176 10.793V12.8613C20.5106 12.8613 20.5106 14.0436 21.8036 14.0436C23.0966 14.0436 23.0966 12.8613 24.3897 12.8613C25.6827 12.8613 25.6827 14.0436 26.9757 14.0436C28.2688 14.0436 28.2688 12.8613 29.5618 12.8613V10.793C28.2688 10.793 28.2688 11.9752 26.9757 11.9752C25.6827 11.9752 25.6827 10.793 24.3897 10.793Z" fill="#F3F3F3"/>
</svg>
