<svg width="34" height="34" viewBox="0 0 34 34" fill="none" xmlns="http://www.w3.org/2000/svg">
<path d="M17.0016 34.001C26.3897 34.001 34.0003 26.3898 34.0003 17.001C34.0003 7.61214 26.3897 0.000976562 17.0016 0.000976562C7.61345 0.000976562 0.00286865 7.61214 0.00286865 17.001C0.00286865 26.3898 7.61345 34.001 17.0016 34.001Z" fill="#F0F0F0"/>
<path d="M33.2606 17.001L33.8555 14.7833C33.7576 14.0286 33.6082 13.2868 33.4151 12.5656H15.5227V0.0654297C14.768 0.129824 14.0288 0.24575 13.3051 0.405447L10.3483 2.21879L8.86997 2.06938C8.09215 2.49438 7.35039 2.97601 6.65242 3.51434V12.5682H0.586966C0.393799 13.2894 0.244417 14.0286 0.146545 14.7859L0.741502 17.0036L0.146545 19.2214C0.244417 19.9761 0.393799 20.7178 0.586966 21.4391H6.65242V30.4928C7.35039 31.0286 8.09215 31.5128 8.86997 31.9378L11.0875 31.7884L13.3051 33.6018C14.0288 33.7615 14.768 33.8774 15.5227 33.9418V21.4416H33.4151C33.6082 20.7204 33.7576 19.9812 33.8555 19.2239L33.2606 17.0062V17.001Z" fill="#0052B4"/>
<path d="M33.8558 14.7831H13.3054V0.405273C11.7343 0.753001 10.2456 1.31708 8.87024 2.0692V14.7857H0.144233C0.048937 15.512 0 16.2513 0 17.0034C0 17.7556 0.048937 18.4948 0.144233 19.2212H8.87024V31.9377C10.2456 32.6872 11.7343 33.2513 13.3054 33.6016V19.2237H33.8558C33.9511 18.4973 34 17.7581 34 17.006C34 16.2539 33.9511 15.5146 33.8558 14.7883V14.7831Z" fill="#D80027"/>
</svg>
