<svg width="34" height="34" viewBox="0 0 34 34" fill="none" xmlns="http://www.w3.org/2000/svg">
<path d="M34.0002 17.001C34.0002 26.3896 26.3889 34.001 17.0002 34.001C7.61161 34.001 0.000244141 26.3896 0.000244141 17.001C0.000244141 17.0061 17.0002 0.00355232 17.0002 0.000976562C26.3889 0.000976562 34.0002 7.61234 34.0002 17.001Z" fill="#338AF3"/>
<path d="M17 8.13281V13.8665L11.0861 8.13281H17Z" fill="#0052B4"/>
<path d="M8.86825 17.0009H13.8652L8.86825 10.3477L8.13159 15.5224L8.86825 17.0009Z" fill="#0052B4"/>
<path d="M16.9539 17.0016H17.0005V16.9551C16.9849 16.9706 16.9694 16.9861 16.9539 17.0016Z" fill="#F0F0F0"/>
<path d="M17.0002 8.86929V0.000976562H16.9977C7.60903 0.000976562 0.000244141 7.61234 0.000244141 17.001H8.86858V12.0066L13.863 17.001H16.9539L17.0002 16.9546V13.8637L12.0058 8.86929H17.0002Z" fill="#F0F0F0"/>
<path d="M8.60039 2.21875C5.9422 3.7333 3.7322 5.94324 2.21765 8.60142V17.001H6.65311V6.6542H16.9999V2.21875H8.60039Z" fill="#D80027"/>
<path d="M17.0001 14.9103L10.96 8.87012H8.86847L16.9976 17.0018V14.9103H17.0001Z" fill="#D80027"/>
<path d="M19.2177 11.0869V17.0008C19.2177 20.9623 24.3924 22.1755 24.3924 22.1755C24.3924 22.1755 29.567 20.9623 29.567 17.0008V11.0869L24.3924 9.6084L19.2177 11.0869Z" fill="#F3F3F3"/>
<path d="M29.5645 11.0879V8.87012H19.2177V11.0879H23.6531V15.5233H19.2177V17.0018H23.6531V21.9498C24.0987 22.1069 24.3924 22.1765 24.3924 22.1765C24.3924 22.1765 24.686 22.1069 25.1316 21.9498V17.0018H29.567V15.5233H25.1316V11.0879H29.567H29.5645Z" fill="#D80027"/>
</svg>
