<svg width="34" height="34" viewBox="0 0 34 34" fill="none" xmlns="http://www.w3.org/2000/svg">
<path d="M17.0013 34.001C26.3895 34.001 34 26.3898 34 17.001C34 7.61214 26.3895 0.000976562 17.0013 0.000976562C7.61321 0.000976562 0.00262451 7.61214 0.00262451 17.001C0.00262451 26.3898 7.61321 34.001 17.0013 34.001Z" fill="#F0F0F0"/>
<path d="M33.856 14.7831H13.3056V0.405273C11.7345 0.753001 10.2458 1.31708 8.87048 2.0692V14.7857H0.144475C0.0491792 15.512 0.000244141 16.2513 0.000244141 17.0034C0.000244141 17.7556 0.0491792 18.4948 0.144475 19.2212H8.87048V31.9377C10.2458 32.6872 11.7345 33.2513 13.3056 33.6016V19.2237H33.856C33.9513 18.4973 34.0002 17.7581 34.0002 17.006C34.0002 16.2539 33.9513 15.5146 33.856 14.7883V14.7831Z" fill="#0052B4"/>
</svg>
