<svg width="34" height="34" viewBox="0 0 34 34" fill="none" xmlns="http://www.w3.org/2000/svg">
<path d="M17 34.001C26.3888 34.001 34 26.3898 34 17.001C34 7.61214 26.3888 0.000976562 17 0.000976562C7.61116 0.000976562 0 7.61214 0 17.001C0 26.3898 7.61116 34.001 17 34.001Z" fill="#F0F0F0"/>
<path d="M2.06558 8.86929H31.9315C29.0492 3.58384 23.4418 0.000976562 16.9998 0.000976562C10.5578 0.000976562 4.95043 3.58641 2.06558 8.86929Z" fill="#D80027"/>
<path d="M16.9998 34.0011C23.4443 34.0011 29.0492 30.4157 31.934 25.1328H2.06812C4.95039 30.4183 10.5578 34.0011 17.0024 34.0011H16.9998Z" fill="#D80027"/>
<path d="M22.9138 17.0008C22.9138 20.2669 20.2659 22.1756 16.9998 22.1756C13.7338 22.1756 11.0859 20.2669 11.0859 17.0008C11.0859 13.7348 13.7338 11.0869 16.9998 11.0869C20.2659 11.0869 22.9138 13.7348 22.9138 17.0008Z" fill="#FFDA44"/>
<path d="M22.9138 17.001C22.9138 20.267 20.2659 22.9149 16.9998 22.9149C13.7338 22.9149 11.0859 20.267 11.0859 17.001" fill="#0052B4"/>
<path d="M14.7819 15.5225H13.3034V18.4794H14.7819V15.5225Z" fill="#D80027"/>
<path d="M20.696 15.5225H19.2175V18.4794H20.696V15.5225Z" fill="#D80027"/>
<path d="M17.7389 13.3047H16.2605V18.4794H17.7389V13.3047Z" fill="#D80027"/>
</svg>
