<svg width="34" height="34" viewBox="0 0 34 34" fill="none" xmlns="http://www.w3.org/2000/svg">
<path d="M32.9414 22.9149C33.6239 21.0732 34 19.0821 34 17.0009C34 14.9197 33.6265 12.9286 32.9414 11.0869L17 9.6084L1.05863 11.0869C0.376057 12.9286 0 14.9197 0 17.0009C0 19.0821 0.373481 21.0732 1.05863 22.9149L17 24.3934L32.9414 22.9149Z" fill="#FFDA44"/>
<path d="M17.0001 34.0012C24.3101 34.0012 30.5409 29.388 32.9415 22.915H1.05617C3.45935 29.388 9.69011 34.0012 17.0001 34.0012Z" fill="#0052B4"/>
<path d="M17.0001 0.000976562C9.69011 0.000976562 3.45935 4.61422 1.05617 11.0872H32.9415C30.5383 4.61422 24.3075 0.000976562 17.0001 0.000976562Z" fill="#6DA544"/>
</svg>
