<svg width="34" height="34" viewBox="0 0 34 34" fill="none" xmlns="http://www.w3.org/2000/svg">
<path d="M34 17.0009C34 14.9222 33.6265 12.9286 32.9413 11.0869L17 10.3477L1.05866 11.0869C0.376088 12.9286 0 14.9196 0 17.0009C0 19.0821 0.373512 21.0731 1.05866 22.9148L17 23.6541L32.9413 22.9148C33.6239 21.0731 34 19.0821 34 17.0009Z" fill="#F0F0F0"/>
<path d="M17.0001 34.0011C24.3101 34.0011 30.5408 29.3879 32.9414 22.915H1.05615C3.45933 29.3879 9.69006 34.0011 16.9975 34.0011H17.0001Z" fill="#0052B4"/>
<path d="M1.05878 11.087H32.944C30.5408 4.61417 24.3101 0.000976562 17.0001 0.000976562C9.69011 0.000976562 3.45938 4.61417 1.05878 11.087Z" fill="#6DA544"/>
</svg>
