<svg width="34" height="34" viewBox="0 0 34 34" fill="none" xmlns="http://www.w3.org/2000/svg">
<path d="M17 34.0007C26.3888 34.0007 34 26.3896 34 17.0008C34 7.61207 26.3888 0.000976562 17 0.000976562C7.61116 0.000976562 0 7.61207 0 17.0008C0 26.3896 7.61116 34.0007 17 34.0007Z" fill="#F0F0F0"/>
<path d="M17.0001 0.000976562C9.97087 0.000976562 3.94102 4.26637 1.35239 10.3477H32.6504C30.0618 4.2638 24.0294 0.000976562 17.0027 0.000976562H17.0001Z" fill="#A2001D"/>
<path d="M17.0001 34.001C24.0293 34.001 30.0592 29.7356 32.6478 23.6543H1.34976C3.9384 29.7382 9.97082 34.001 16.9975 34.001H17.0001Z" fill="#496E2D"/>
<path d="M33.4151 12.5654H0.587113C0.205901 13.9795 0.00241089 15.4657 0.00241089 17.0008C0.00241089 18.536 0.205901 20.0222 0.587113 21.4362H33.4151C33.7963 20.0222 33.9998 18.536 33.9998 17.0008C33.9998 15.4657 33.7963 13.9795 33.4151 12.5654Z" fill="#0052B4"/>
</svg>
