<svg width="34" height="34" viewBox="0 0 34 34" fill="none" xmlns="http://www.w3.org/2000/svg">
<path d="M17 34.001C26.3888 34.001 34 26.3898 34 17.001C34 7.61214 26.3888 0.000976562 17 0.000976562C7.61116 0.000976562 0 7.61214 0 17.001C0 26.3898 7.61116 34.001 17 34.001Z" fill="#F0F0F0"/>
<path d="M33.8557 14.7832H19.2178V0.145234C18.4914 0.049931 17.7521 0.000976562 17 0.000976562C16.2479 0.000976562 15.5086 0.049931 14.7822 0.145234V14.7832H0.144258C0.0489545 15.5096 0 16.2489 0 17.001C0 17.7531 0.0489545 18.4924 0.144258 19.2187H14.7822V33.8567C15.5086 33.952 16.2479 34.001 17 34.001C17.7521 34.001 18.4914 33.952 19.2178 33.8567V19.2187H33.8557C33.951 18.4924 34 17.7531 34 17.001C34 16.2489 33.951 15.5096 33.8557 14.7832Z" fill="#D80027"/>
<path d="M10.347 8.13279V5.91504H8.13185V8.13279H5.91409V10.3479H8.13185V12.5657H10.347V10.3479H12.5647V8.13279H10.347Z" fill="#D80027"/>
<path d="M25.8683 8.13279V5.91504H23.6532V8.13279H21.4355V10.3479H23.6532V12.5657H25.8683V10.3479H28.0861V8.13279H25.8683Z" fill="#D80027"/>
<path d="M10.347 23.6543V21.4365H8.13185V23.6543H5.91409V25.8694H8.13185V28.0871H10.347V25.8694H12.5647V23.6543H10.347Z" fill="#D80027"/>
<path d="M25.8683 23.6543V21.4365H23.6532V23.6543H21.4355V25.8694H23.6532V28.0871H25.8683V25.8694H28.0861V23.6543H25.8683Z" fill="#D80027"/>
</svg>
