<svg width="34" height="34" viewBox="0 0 34 34" fill="none" xmlns="http://www.w3.org/2000/svg">
<path d="M1.05859 22.915C3.46178 29.3878 9.69251 34.001 16.9999 34.001C24.3074 34.001 30.5407 29.3878 32.9413 22.915L16.9999 21.4365L1.05859 22.915Z" fill="#FFDA44"/>
<path d="M16.9999 0.000976562C9.68993 0.000976562 3.4592 4.61414 1.05859 11.087L16.9999 12.5655L32.9413 11.087C30.5381 4.61414 24.3074 0.000976562 16.9999 0.000976562Z" fill="black"/>
<path d="M1.05866 11.0869C0.376088 12.9286 0 14.9196 0 17.0008C0 19.082 0.373512 21.073 1.05866 22.9147H32.9439C33.6265 21.073 34 19.082 34 17.0008C34 14.9196 33.6265 12.9286 32.9413 11.0869H1.05609H1.05866Z" fill="#D80027"/>
</svg>
