<svg width="34" height="34" viewBox="0 0 34 34" fill="none" xmlns="http://www.w3.org/2000/svg">
<path d="M0 17.0009C0 19.0795 0.373485 21.0731 1.05864 22.9148L17 23.6541L32.9414 22.9148C33.6239 21.0731 34 19.0821 34 17.0009C34 14.9196 33.6265 12.9286 32.9414 11.0869L17 10.3477L1.05864 11.0869C0.376061 12.9286 0 14.9196 0 17.0009Z" fill="#FFDA44"/>
<path d="M16.9997 0.000976562C9.68971 0.000976562 3.45896 4.61417 1.05835 11.087H32.9436C30.5405 4.61417 24.3097 0.000976562 16.9997 0.000976562Z" fill="#D80027"/>
<path d="M32.9413 22.915H1.05597C3.45915 29.3879 9.68991 34.0011 16.9973 34.0011C24.3048 34.0011 30.5381 29.3879 32.9387 22.915H32.9413Z" fill="#496E2D"/>
<path d="M16.9997 11.0869L18.4679 15.6048H23.2176L19.3746 18.3969L20.8428 22.9148L16.9997 20.1227L13.1567 22.9148L14.6249 18.3969L10.7819 15.6048H15.5316L16.9997 11.0869Z" fill="black"/>
</svg>
