<svg width="34" height="34" viewBox="0 0 34 34" fill="none" xmlns="http://www.w3.org/2000/svg">
<path d="M17 34.001C26.3888 34.001 34 26.3898 34 17.001C34 7.61214 26.3888 0.000976562 17 0.000976562C7.61116 0.000976562 0 7.61214 0 17.001C0 26.3898 7.61116 34.001 17 34.001Z" fill="#F9F9F9"/>
<path d="M17 34.0011C24.31 34.0011 30.5407 29.3879 32.9413 22.915H1.05603C3.45921 29.3879 9.68997 34.0011 17 34.0011Z" fill="#D80027"/>
<path d="M23.653 14.0432V11.8254H24.3923V10.347H22.9138V11.0862H21.4353V10.347H19.9568V11.8254H20.696V14.0432H19.2176V8.87106H19.9568V7.39258H18.4783V8.13185H17.7391V7.39258H16.2606V8.13185H15.5214V7.39258H14.0429V8.87106H14.7821V14.0432H13.3036V11.8254H14.0429V10.347H12.5644V11.0862H11.0859V10.347H9.60741V11.8254H10.3467V14.0432H8.86816V19.9571H25.1315V14.0432H23.653Z" fill="#D80027"/>
<path d="M16.9997 19.2188C15.7762 19.2188 14.782 20.2104 14.782 21.4364C14.782 22.4024 15.4002 23.224 16.2605 23.528V26.6112H14.0427V29.5681H17.7389V23.528C18.5992 23.224 19.2174 22.4024 19.2174 21.4364C19.2174 20.213 18.2258 19.2188 16.9997 19.2188ZM16.9997 22.1757C16.5927 22.1757 16.2605 21.846 16.2605 21.4364C16.2605 21.0269 16.5902 20.6972 16.9997 20.6972C17.4092 20.6972 17.7389 21.0269 17.7389 21.4364C17.7389 21.846 17.4092 22.1757 16.9997 22.1757Z" fill="#FFDA44"/>
</svg>
