<svg width="34" height="34" viewBox="0 0 34 34" fill="none" xmlns="http://www.w3.org/2000/svg">
<path d="M0.000183105 17.0011C0.000183105 7.6124 7.6115 0.000976562 17.0001 0.000976562C26.3886 0.000976562 34 7.6124 34 17.0011C33.2607 17.0011 17.0001 19.2189 17.0001 19.2189L0.000183105 17.0011Z" fill="#F0F0F0"/>
<path d="M33.9998 17.001C33.9998 26.3897 26.3885 34.0011 16.9999 34.0011C7.61131 34.0011 0 26.3897 0 17.001" fill="#D80027"/>
<path d="M11.8252 25.1326C16.3162 25.1326 19.9568 21.4919 19.9568 17.0009C19.9568 12.5099 16.3162 8.86914 11.8252 8.86914C7.33427 8.86914 3.6936 12.5099 3.6936 17.0009C3.6936 21.4919 7.33427 25.1326 11.8252 25.1326Z" fill="#F0F0F0"/>
<path d="M3.69623 17.0009C3.69623 12.5113 7.33577 8.86914 11.8279 8.86914C16.32 8.86914 19.9595 12.5087 19.9595 17.0009" fill="#D80027"/>
</svg>
