<svg width="34" height="34" viewBox="0 0 34 34" fill="none" xmlns="http://www.w3.org/2000/svg">
<path d="M17 34.001C26.3888 34.001 34 26.3898 34 17.001C34 7.61214 26.3888 0.000976562 17 0.000976562C7.61116 0.000976562 0 7.61214 0 17.001C0 26.3898 7.61116 34.001 17 34.001Z" fill="#F0F0F0"/>
<path d="M16.9998 12.5653H33.4151C32.9901 10.9838 32.341 9.49246 31.5064 8.12988H17.0023V12.5653H16.9998Z" fill="#338AF3"/>
<path d="M6.41854 30.3046H27.5836C29.1342 29.0682 30.4658 27.5691 31.5064 25.8691H2.49567C3.53627 27.5666 4.86793 29.0682 6.41854 30.3046Z" fill="#338AF3"/>
<path d="M5.9137 4.11426C4.57688 5.26562 3.42294 6.6205 2.49567 8.13246H5.9137V4.11426Z" fill="#338AF3"/>
<path d="M17 17.0009V12.5654H10.3468V17.0009H5.91137V12.5654H0.584702C0.20349 13.9795 0 15.4657 0 17.0009C0 18.536 0.20349 20.0222 0.584702 21.4363H33.4127C33.7939 20.0222 33.9974 18.536 33.9974 17.0009H16.9974H17Z" fill="#338AF3"/>
<path d="M16.9997 0.000976562C14.6403 0.000976562 12.3916 0.482643 10.3465 1.35325V8.13266H16.9997V3.69721H27.5809C24.678 1.38418 20.9998 0.000976562 16.9997 0.000976562Z" fill="#338AF3"/>
</svg>
