<svg width="34" height="34" viewBox="0 0 34 34" fill="none" xmlns="http://www.w3.org/2000/svg">
<path d="M17 34.001C26.3888 34.001 34 26.3898 34 17.001C34 7.61214 26.3888 0.000976562 17 0.000976562C7.61116 0.000976562 0 7.61214 0 17.001C0 26.3898 7.61116 34.001 17 34.001Z" fill="#FFDA44"/>
<path d="M7.41803 2.95794C10.1458 1.09309 13.4453 0.000976562 16.9998 0.000976562C20.5544 0.000976562 23.8539 1.09309 26.5816 2.95794L16.9998 3.69721L7.41803 2.95794Z" fill="#A2001D"/>
<path d="M16.9995 17.0014L15.9151 15.917L15.6266 16.4321L16.9995 17.0014Z" fill="#0052B4"/>
<path d="M4.97872 4.97949C-1.65901 11.6172 -1.65901 22.3813 4.97872 29.0216C7.7219 26.2784 10.3595 23.6408 16.9998 17.0005L4.97872 4.97949Z" fill="#496E2D"/>
<path d="M29.0208 4.97949C35.6585 11.6172 35.6585 22.3813 29.0208 29.0216C26.2776 26.2784 23.64 23.6408 16.9997 17.0005L29.0208 4.97949Z" fill="#496E2D"/>
<path d="M16.9999 22.9148C20.266 22.9148 22.9138 20.267 22.9138 17.0008C22.9138 13.7347 20.266 11.0869 16.9999 11.0869C13.7337 11.0869 11.0859 13.7347 11.0859 17.0008C11.0859 20.267 13.7337 22.9148 16.9999 22.9148Z" fill="#A2001D"/>
<path d="M16.9997 11.0869L18.3262 15.1669H22.6149L19.1453 17.6886L20.4692 21.7686L16.9997 19.2469L13.5301 21.7686L14.8541 17.6886L11.3845 15.1669H15.6732L16.9997 11.0869Z" fill="#FFDA44"/>
<path d="M17.0045 0.000976562H16.9942C12.3012 0.000976562 8.05378 1.90448 4.9809 4.97994H29.0205C25.945 1.90448 21.6976 0.00355232 17.0071 0.000976562H17.0045Z" fill="#A2001D"/>
<path d="M4.97852 29.0215C8.05397 32.0969 12.304 34.0004 16.9996 34.0004C21.6952 34.0004 25.9426 32.0969 29.0207 29.0215H4.98109H4.97852Z" fill="#A2001D"/>
<path d="M16.9997 1.84766L17.2753 2.69509H18.1665L17.4453 3.21798L17.7209 4.06541L16.9997 3.54252L16.2785 4.06541L16.5541 3.21798L15.8329 2.69509H16.7241L16.9997 1.84766Z" fill="#FFDA44"/>
<path d="M12.8786 1.84766L13.1516 2.69509H14.0428L13.3216 3.21798L13.5972 4.06541L12.8786 3.54252L12.1573 4.06541L12.433 3.21798L11.7117 2.69509H12.603L12.8786 1.84766Z" fill="#FFDA44"/>
<path d="M21.1211 1.84766L21.3967 2.69509H22.2879L21.5667 3.21798L21.8423 4.06541L21.1211 3.54252L20.4024 4.06541L20.6781 3.21798L19.9568 2.69509H20.8481L21.1211 1.84766Z" fill="#FFDA44"/>
<path d="M16.9995 29.9355L17.2751 30.783H18.1663L17.4451 31.3059L17.7207 32.1533L16.9995 31.6278L16.2782 32.1533L16.5539 31.3059L15.8326 30.783H16.7239L16.9995 29.9355Z" fill="#FFDA44"/>
<path d="M12.8784 29.9355L13.1515 30.783H14.0427L13.3215 31.3059L13.5971 32.1533L12.8784 31.6278L12.1572 32.1533L12.4328 31.3059L11.7116 30.783H12.6028L12.8784 29.9355Z" fill="#FFDA44"/>
<path d="M21.1209 29.9355L21.3965 30.783H22.2877L21.5665 31.3059L21.8421 32.1533L21.1209 31.6278L20.4023 32.1533L20.6779 31.3059L19.9567 30.783H20.8479L21.1209 29.9355Z" fill="#FFDA44"/>
<path d="M5.17949 16.7204C5.61737 17.4107 5.4113 18.3226 4.721 18.7604C4.0307 19.1983 3.1189 18.9922 2.68102 18.3019C1.89026 17.0527 2.34874 15.0127 2.34874 15.0127C2.34874 15.0127 4.38873 15.4711 5.17949 16.7204Z" fill="#FFDA44"/>
<path d="M4.32713 18.874C4.7354 18.874 5.06637 18.543 5.06637 18.1347C5.06637 17.7264 4.7354 17.3955 4.32713 17.3955C3.91886 17.3955 3.58789 17.7264 3.58789 18.1347C3.58789 18.543 3.91886 18.874 4.32713 18.874Z" fill="#A2001D"/>
</svg>
