<svg width="34" height="34" viewBox="0 0 34 34" fill="none" xmlns="http://www.w3.org/2000/svg">
<path d="M7.41809 31.0439C10.1458 32.9088 13.4454 34.0009 16.9999 34.0009C20.5544 34.0009 23.854 32.9088 26.5817 31.0439L16.9999 29.5654L7.41809 31.0439Z" fill="#D80027"/>
<path d="M26.5824 2.95794C23.8546 1.09309 20.5551 0.000976562 17.0006 0.000976562C13.446 0.000976562 10.1465 1.09309 7.41876 2.95794L17.0006 4.43642L26.5824 2.95794Z" fill="#D80027"/>
<path d="M34 17.001C34 11.3756 30.6309 5.72695 26.5818 2.95801H7.41819C2.93895 6.02058 0 11.167 0 17.001C0 22.8351 2.93895 27.9841 7.41819 31.0441H26.5818C31.061 27.9815 34 22.8351 34 17.001Z" fill="#0052B4"/>
<path d="M16.0394 27.7318C15.8076 27.5334 10.3495 22.7889 10.3495 17.0012C10.3495 11.2134 15.8076 6.46892 16.0394 6.27058L17.0001 5.44629L17.9609 6.27058C18.1927 6.46892 23.6507 11.2134 23.6507 17.0012C23.6507 22.7889 18.1927 27.5334 17.9609 27.7318L17.0001 28.556L16.0394 27.7318Z" fill="#D80027"/>
<path d="M22.1747 17.0002C22.1747 11.8255 17 7.39258 17 7.39258C17 7.39258 11.8253 11.828 11.8253 17.0002C11.8253 18.5817 12.3096 20.0962 12.9818 21.4356H21.0156C21.6879 20.0962 22.1721 18.5843 22.1721 17.0002H22.1747Z" fill="#338AF3"/>
<path d="M22.1747 17.001C22.1747 18.5825 21.6905 20.097 21.0182 21.4364L17 22.1757L12.9818 21.4364C12.3096 20.097 11.8253 18.5851 11.8253 17.001H22.1721H22.1747Z" fill="#0052B4"/>
<path d="M17 26.6083C17 26.6083 19.4933 24.4704 21.0181 21.4336H12.9844C14.5092 24.4704 17.0026 26.6083 17.0026 26.6083H17Z" fill="#FFDA44"/>
<path d="M13.6747 14.0439H20.3253L17 17.3692L13.6747 14.0439Z" fill="#6DA544"/>
<path d="M18.1103 16.2617H15.8925V22.9149H18.1103V16.2617Z" fill="#A2001D"/>
</svg>
