<svg width="34" height="34" viewBox="0 0 34 34" fill="none" xmlns="http://www.w3.org/2000/svg">
<path d="M17.0004 34.001C26.389 34.001 34 26.3898 34 17.001C34 7.61214 26.389 0.000976562 17.0004 0.000976562C7.61174 0.000976562 0.000732422 7.61214 0.000732422 17.001C0.000732422 26.3898 7.61174 34.001 17.0004 34.001Z" fill="#F0F0F0"/>
<path d="M33.9992 17.0004C33.9992 10.2596 30.0764 4.43583 24.3918 1.6875V32.3132C30.079 29.5623 33.9992 23.7411 33.9992 17.0004Z" fill="#338AF3"/>
<path d="M0 17.0004C0 23.7411 3.92281 29.5649 9.6074 32.3132V1.6875C3.92024 4.43841 0 10.2596 0 17.0004Z" fill="#338AF3"/>
<path d="M21.4429 19.8751L18.5684 17.0006L21.3038 14.2651L21.1801 12.8201L20.3971 12.0371L16.9998 15.4319L13.6024 12.0371L12.8194 12.8201L12.6958 14.2651L15.4311 17.0006L12.5567 19.8751L14.1253 21.4438L16.9998 18.5693L19.8742 21.4438L21.4429 19.8751Z" fill="#ACABB1"/>
<path d="M21.1803 12.8203L19.6116 14.389C20.2813 15.0587 20.6935 15.9808 20.6935 17.0033C20.6935 19.0433 19.0399 20.6996 16.9973 20.6996C14.9548 20.6996 13.3012 19.0459 13.3012 17.0033C13.3012 15.9833 13.7159 15.0587 14.383 14.389L12.8144 12.8203C11.7455 13.8893 11.0835 15.3677 11.0835 17.0008C11.0835 20.2668 13.7313 22.9147 16.9973 22.9147C20.2633 22.9147 22.9111 20.2668 22.9111 17.0008C22.9111 15.3677 22.2492 13.8893 21.1803 12.8203Z" fill="#6DA544"/>
</svg>
