<svg width="34" height="34" viewBox="0 0 34 34" fill="none" xmlns="http://www.w3.org/2000/svg">
<path d="M17 34.001C26.3888 34.001 34 26.3898 34 17.001C34 7.61214 26.3888 0.000976562 17 0.000976562C7.61116 0.000976562 0 7.61214 0 17.001C0 26.3898 7.61116 34.001 17 34.001Z" fill="#F0F0F0"/>
<path d="M33.8557 14.7832H19.2178V0.145234C18.4914 0.049931 17.7521 0.000976562 17 0.000976562C16.2479 0.000976562 15.5086 0.049931 14.7822 0.145234V14.7832H0.144258C0.0489545 15.5096 0 16.2489 0 17.001C0 17.7531 0.0489545 18.4924 0.144258 19.2187H14.7822V33.8567C15.5086 33.952 16.2479 34.001 17 34.001C17.7521 34.001 18.4914 33.952 19.2178 33.8567V19.2187H33.8557C33.951 18.4924 34 17.7531 34 17.001C34 16.2489 33.951 15.5096 33.8557 14.7832Z" fill="#D80027"/>
<path d="M21.8038 17.7401L22.914 18.4793V15.5224L21.8038 16.2616H17.7393V12.1971L18.4785 11.0869H15.5216L16.2608 12.1971V16.2616H12.1963L11.0861 15.5224V18.4793L12.1963 17.7401H16.2608V21.8046L15.5216 22.9148H18.4785L17.7393 21.8046V17.7401H21.8038Z" fill="#FFDA44"/>
</svg>
