<svg width="34" height="34" viewBox="0 0 34 34" fill="none" xmlns="http://www.w3.org/2000/svg">
<path d="M22.9141 1.05964C21.0724 0.377065 19.0813 0.000976562 17.0001 0.000976562C14.9189 0.000976562 12.9279 0.374487 11.0862 1.05706L10.3469 17.001L11.0862 32.9449C12.9279 33.6275 14.9189 34.001 17.0001 34.001C19.0813 34.001 21.0724 33.6275 22.9141 32.9423L23.6533 17.001L22.9141 1.05964Z" fill="#FFDA44"/>
<path d="M0 17.0006C0 24.3106 4.61319 30.5413 11.0861 32.9419V1.05664C4.61319 3.45982 0 9.69055 0 17.0006Z" fill="#D80027"/>
<path d="M34.0002 17.0006C34.0002 9.69055 29.387 3.45982 22.9141 1.05664V32.9419C29.387 30.5387 34.0002 24.308 34.0002 17.0006Z" fill="#6DA544"/>
</svg>
