<svg width="34" height="34" viewBox="0 0 34 34" fill="none" xmlns="http://www.w3.org/2000/svg">
<path d="M17.0001 0.000976562C15.4649 0.000976562 13.9787 0.204466 12.5646 0.585679L11.0861 17.001L12.5646 33.4163C13.9787 33.7975 15.4649 34.001 17.0001 34.001C26.3887 34.001 34.0001 26.3896 34.0001 17.001C34.0001 7.61234 26.3887 0.000976562 17.0001 0.000976562Z" fill="#FFDA44"/>
<path d="M11.0861 17.001L12.5646 33.4163C13.9787 33.7975 15.4649 34.001 17.0001 34.001C26.3887 34.001 34.0001 26.3896 34.0001 17.001H11.0861Z" fill="#6DA544"/>
<path d="M0 17.001C0 23.4455 3.58544 29.0504 8.86832 31.9352V2.06934C3.58286 4.95161 0 10.559 0 17.0036V17.001Z" fill="#D80027"/>
<path d="M0 17.0006C0 24.8541 5.32667 31.4635 12.5646 33.4159V0.587891C5.32667 2.53774 0 9.14713 0 17.0032V17.0006Z" fill="#D80027"/>
<path d="M6.42405 12.5654L7.5239 15.9525H11.0862L8.20651 18.0466L9.3063 21.4363L6.42405 19.3423L3.54179 21.4363L4.64164 18.0466L1.76196 15.9525H5.32419L6.42405 12.5654Z" fill="black"/>
</svg>
