<svg width="34" height="34" viewBox="0 0 34 34" fill="none" xmlns="http://www.w3.org/2000/svg">
<path d="M16.9988 33.9984C26.387 33.9984 33.9977 26.3878 33.9977 16.9997C33.9977 7.61156 26.387 0.000976562 16.9988 0.000976562C7.61064 0.000976562 0 7.61156 0 16.9997C0 26.3878 7.61064 33.9984 16.9988 33.9984Z" fill="#F0F0F0"/>
<path d="M16.9984 0.000976562C13.9927 0.000976562 11.1698 0.781397 8.72046 2.1516V31.8504C11.1698 33.218 13.9927 34.001 16.9984 34.001C26.3864 34.001 33.9972 26.3902 33.9972 17.0023C33.9972 7.61434 26.3864 0.00355464 16.9984 0.00355464V0.000976562Z" fill="#6DA544"/>
<path d="M8.77218 2.12402C7.70332 2.7164 6.70399 3.42208 5.79224 4.22308C5.88496 4.14324 5.97768 4.06341 6.0704 3.98357L19.09 17.003L6.0704 30.0225C5.97768 29.9427 5.88238 29.8628 5.79224 29.783C6.70399 30.584 7.70332 31.2871 8.77218 31.8821L34 17.0056L8.77476 2.12918L8.77218 2.12402Z" fill="#F0F0F0"/>
<path d="M7.33477 3.01465C6.81708 3.37265 6.31741 3.75899 5.84351 4.17365L16.9983 17L5.84351 29.8263C6.31741 30.2384 6.81708 30.6247 7.33477 30.9853L31.0868 17L7.33477 3.01465Z" fill="#FFDA44"/>
<path d="M6.07056 3.98145C5.69195 4.29824 5.32879 4.6331 4.97852 4.9808L15.5204 17.0009L4.97852 29.0211C5.32622 29.3688 5.69195 29.7036 6.07056 30.0204L19.0901 17.0009L6.07056 3.98145Z" fill="black"/>
<path d="M4.97844 4.97949C-1.65883 11.6167 -1.65883 22.3799 4.97844 29.0197C7.72144 26.2768 10.3588 23.6394 16.9987 16.9996L4.97844 4.97949Z" fill="#D80027"/>
</svg>
