<svg width="34" height="34" viewBox="0 0 34 34" fill="none" xmlns="http://www.w3.org/2000/svg">
<path d="M34 17.001C34 26.3896 26.3886 34.001 17 34.001C7.61136 34.001 0 26.3896 0 17.001C0 7.61234 17 0.000976562 17 0.000976562C17 0.000976562 34 7.61234 34 17.001Z" fill="#A2001D"/>
<path d="M0 17.001C0 7.61234 7.61136 0.000976562 17 0.000976562C26.3886 0.000976562 34 7.61234 34 17.001" fill="#0052B4"/>
<path d="M22.9138 21.4363L16.9999 20.6971L11.0859 21.4363V12.5654H22.9138V21.4363Z" fill="#F0F0F0"/>
<path d="M16.9997 20.6972C18.6328 20.6972 19.9567 19.3733 19.9567 17.7402C19.9567 16.1071 18.6328 14.7832 16.9997 14.7832C15.3666 14.7832 14.0427 16.1071 14.0427 17.7402C14.0427 19.3733 15.3666 20.6972 16.9997 20.6972Z" fill="#0052B4"/>
<path d="M17 19.2187C17.8165 19.2187 18.4784 18.5568 18.4784 17.7403C18.4784 16.9237 17.8165 16.2617 17 16.2617C16.1834 16.2617 15.5215 16.9237 15.5215 17.7403C15.5215 18.5568 16.1834 19.2187 17 19.2187Z" fill="#A2001D"/>
<path d="M14.7825 14.0439H19.2179L17.0002 16.2616L14.7825 14.0439Z" fill="#6DA544"/>
<path d="M17.7392 15.5225H16.2607V19.9579H17.7392V15.5225Z" fill="#FFDA44"/>
<path d="M19.3644 19.5156H14.6353L11.0859 21.4371H22.9138L19.3644 19.5156Z" fill="#6DA544"/>
</svg>
