<svg width="34" height="34" viewBox="0 0 34 34" fill="none" xmlns="http://www.w3.org/2000/svg">
<path d="M17 34.0006C26.3888 34.0006 34 26.3895 34 17.0008C34 7.61205 26.3888 0.000976562 17 0.000976562C7.61115 0.000976562 0 7.61205 0 17.0008C0 26.3895 7.61115 34.0006 17 34.0006Z" fill="#F0F0F0"/>
<path d="M16.9998 34.0009C21.3116 34.0009 25.2448 32.3963 28.2429 29.751H5.75659C8.75219 32.3963 12.688 34.0009 16.9998 34.0009Z" fill="#D80027"/>
<path d="M0.5354 21.251C0.924339 22.7578 1.51419 24.1848 2.27403 25.501H31.7252C32.4851 24.1848 33.0775 22.7578 33.4638 21.251L16.9996 19.958L0.5354 21.251Z" fill="#0052B4"/>
<path d="M33.4639 12.7508C33.0749 11.244 32.4851 9.81708 31.7252 8.50088L16.9997 8.13257V0.000976562C15.7375 0.000976562 14.5063 0.137503 13.3215 0.400227C13.2983 0.405379 2.21741 9.14739 2.21741 17.0008C2.50074 17.0497 16.9997 18.4793 16.9997 18.4793V12.7508H33.4639Z" fill="#0052B4"/>
<path d="M16.9998 10.608V2.10807H11.6165L13.3242 0.400391C6.31818 1.94583 0.937438 7.81074 0.113197 15.0588C0.0410758 15.695 0.00244141 16.3416 0.00244141 16.9984H8.61319V13.6113L12.0338 16.9984H18.1151L11.6165 10.6054H16.9998V10.608Z" fill="#F0F0F0"/>
<path d="M17.0077 17.0015L10.6147 10.6085H8.61074L15.0038 17.0015H6.46772V8.50156H31.7256C30.8009 6.90203 29.6212 5.46735 28.2432 4.25161H6.46772V3.65918C4.75226 5.01401 3.30469 6.69338 2.21772 8.60457V17.0015H0C0 18.4696 0.185459 19.894 0.535761 21.2514H33.4642C33.8145 19.894 34 18.4696 34 17.0015H17.0077Z" fill="#D80027"/>
</svg>
