<svg width="34" height="34" viewBox="0 0 34 34" fill="none" xmlns="http://www.w3.org/2000/svg">
<path d="M17.0001 34.0007C26.3889 34.0007 34.0001 26.3896 34.0001 17.0008C34.0001 7.61206 26.3889 0.000976562 17.0001 0.000976562C7.61122 0.000976562 6.10352e-05 7.61206 6.10352e-05 17.0008C6.10352e-05 26.3896 7.61122 34.0007 17.0001 34.0007Z" fill="#F0F0F0"/>
<path d="M16.9995 34.0011C23.7402 34.0011 29.564 30.0782 32.3123 24.3936H1.68658C4.43749 30.0808 10.2587 34.0011 16.9995 34.0011Z" fill="#338AF3"/>
<path d="M16.9996 0.000976562C10.2588 0.000976562 4.43504 3.92383 1.68671 9.60847H32.3124C29.5615 3.92126 23.7403 0.000976562 16.9996 0.000976562Z" fill="#338AF3"/>
<path d="M10.4625 11.0869L11.0111 12.7818H12.7936L11.3511 13.8275L11.9023 15.5223L10.4625 14.4766L9.02006 15.5223L9.57128 13.8275L8.13141 12.7818H9.91127L10.4625 11.0869Z" fill="#338AF3"/>
<path d="M10.4625 18.4795L11.0111 20.1743H12.7936L11.3511 21.22L11.9023 22.9149L10.4625 21.8666L9.02006 22.9149L9.57128 21.22L8.13141 20.1743H9.91127L10.4625 18.4795Z" fill="#338AF3"/>
<path d="M23.5367 11.0869L24.0879 12.7818H25.8678L24.4279 13.8275L24.9791 15.5223L23.5367 14.4766L22.0969 15.5223L22.6481 13.8275L21.2056 12.7818H22.9881L23.5367 11.0869Z" fill="#338AF3"/>
<path d="M23.5367 18.4795L24.0879 20.1743H25.8678L24.4279 21.22L24.9791 22.9149L23.5367 21.8666L22.0969 22.9149L22.6481 21.22L21.2056 20.1743H22.9881L23.5367 18.4795Z" fill="#338AF3"/>
<path d="M16.9996 14.7832L17.5508 16.4781H19.3307L17.8908 17.5238L18.4394 19.2187L16.9996 18.1703L15.5598 19.2187L16.1084 17.5238L14.6685 16.4781H16.4484L16.9996 14.7832Z" fill="#338AF3"/>
</svg>
