<svg width="34" height="34" viewBox="0 0 34 34" fill="none" xmlns="http://www.w3.org/2000/svg">
<path d="M17 34.001C26.3888 34.001 34 26.3898 34 17.001C34 7.61214 26.3888 0.000976562 17 0.000976562C7.61116 0.000976562 0 7.61214 0 17.001C0 26.3898 7.61116 34.001 17 34.001Z" fill="#D80027"/>
<path d="M18.7537 12.8617C18.3674 14.469 17.6822 14.1625 17.3448 15.5637C15.3614 15.0872 14.1379 13.091 14.6145 11.1077C15.091 9.12434 17.0872 7.90083 19.0705 8.37734C18.3957 11.1798 19.0989 11.4244 18.7537 12.8617Z" fill="#F0F0F0"/>
<path d="M13.6051 14.0514C15.014 14.9143 14.5092 15.4732 15.7378 16.2279C14.6714 17.9665 12.3945 18.5126 10.6558 17.4462C8.91721 16.3799 8.37115 14.1029 9.43751 12.3643C11.8948 13.8711 12.3429 13.2787 13.6051 14.0514Z" fill="#F0F0F0"/>
<path d="M13.1464 19.3193C14.4033 18.2453 14.7794 18.8969 15.8741 17.9619C17.198 19.5151 17.0152 21.8462 15.462 23.1727C13.9088 24.4966 11.5777 24.3138 10.2512 22.7606C12.4432 20.888 12.0208 20.2801 13.1438 19.3193H13.1464Z" fill="#F0F0F0"/>
<path d="M18.0119 21.3823C17.3809 19.8549 18.1149 19.7004 17.5637 18.3687C19.4492 17.5883 21.6103 18.4846 22.3907 20.3701C23.1712 22.2555 22.2748 24.4166 20.3894 25.197C19.2869 22.5337 18.576 22.7475 18.0119 21.3823Z" fill="#F0F0F0"/>
<path d="M21.4794 17.3901C19.8309 17.5189 19.9107 16.772 18.4734 16.8853C18.3137 14.8505 19.8334 13.0706 21.8683 12.9109C23.9031 12.7512 25.683 14.2709 25.8427 16.3058C22.9681 16.5299 22.9527 17.2742 21.4794 17.3901Z" fill="#F0F0F0"/>
</svg>
