<svg width="34" height="34" viewBox="0 0 34 34" fill="none" xmlns="http://www.w3.org/2000/svg">
<path d="M1.05863 11.0869C0.376057 12.9285 0 14.9195 0 17.0007C0 19.0819 0.373481 21.0729 1.05863 22.9145L17 24.393L32.9414 22.9145C33.6239 21.0729 34 19.0819 34 17.0007C34 14.9195 33.6265 12.9285 32.9414 11.0869L17 9.6084L1.05863 11.0869Z" fill="#F0F0F0"/>
<path d="M17 0.000976562C9.68996 0.000976562 3.4592 4.6141 1.05859 11.0869H32.9439C30.5407 4.6141 24.31 0.000976562 17 0.000976562Z" fill="#D80027"/>
<path d="M17 34.0009C24.31 34.0009 30.5407 29.3878 32.9439 22.915H1.05859C3.46178 29.3878 9.69254 34.0009 17 34.0009Z" fill="#6DA544"/>
</svg>
