<svg width="34" height="34" viewBox="0 0 34 34" fill="none" xmlns="http://www.w3.org/2000/svg">
<path d="M17.0013 34.001C26.3895 34.001 34 26.3898 34 17.001C34 7.61214 26.3895 0.000976562 17.0013 0.000976562C7.61321 0.000976562 0.00262451 7.61214 0.00262451 17.001C0.00262451 26.3898 7.61321 34.001 17.0013 34.001Z" fill="#F0F0F0"/>
<path d="M0.587402 21.4365C1.57127 25.0864 3.73733 28.2494 6.65286 30.4903V21.4365H0.587402Z" fill="#0052B4"/>
<path d="M15.5227 33.9367C16.0095 33.9779 16.504 34.0011 17.0011 34.0011C24.854 34.0011 31.4629 28.6744 33.4151 21.4365H15.5227V33.9367Z" fill="#0052B4"/>
<path d="M33.4151 12.5655C31.4654 5.32765 24.8565 0.000976562 17.0011 0.000976562C16.504 0.000976562 16.0095 0.0241584 15.5227 0.0653705V12.5655H33.4151Z" fill="#0052B4"/>
<path d="M6.65531 3.51465C3.73977 5.75556 1.57371 8.91863 0.589844 12.5685H6.65531V3.51465Z" fill="#0052B4"/>
<path d="M33.8558 14.7841H13.3053V0.40625C11.7342 0.753977 10.2456 1.31806 8.87022 2.07018V14.7867H0.144247C0.0489508 15.513 0 16.2523 0 17.0044C0 17.7565 0.0489508 18.4958 0.144247 19.2222H8.87022V31.9387C10.2456 32.6882 11.7342 33.2523 13.3053 33.6026V19.2247H33.8558C33.951 18.4983 34 17.7591 34 17.007C34 16.2549 33.951 15.5156 33.8558 14.7892V14.7841Z" fill="#D80027"/>
</svg>
