<svg width="34" height="34" viewBox="0 0 34 34" fill="none" xmlns="http://www.w3.org/2000/svg">
<path d="M17 34.0007C26.3888 34.0007 34 26.3896 34 17.0008C34 7.61207 26.3888 0.000976562 17 0.000976562C7.61116 0.000976562 0 7.61207 0 17.0008C0 26.3896 7.61116 34.0007 17 34.0007Z" fill="#F0F0F0"/>
<path d="M17.0001 0.000976562C10.2594 0.000976562 4.43559 3.92383 1.68726 9.60848H32.313C29.5621 3.92126 23.7409 0.000976562 17.0001 0.000976562Z" fill="#FF9811"/>
<path d="M17.0001 34.0011C23.7409 34.0011 29.5647 30.0782 32.313 24.3936H1.68726C4.43816 30.0808 10.2594 34.0011 17.0001 34.0011Z" fill="#6DA544"/>
<path d="M17.0001 22.9147C20.2663 22.9147 22.914 20.2669 22.914 17.0008C22.914 13.7346 20.2663 11.0869 17.0001 11.0869C13.7339 11.0869 11.0862 13.7346 11.0862 17.0008C11.0862 20.2669 13.7339 22.9147 17.0001 22.9147Z" fill="#0052B4"/>
<path d="M17.0002 20.6971C19.0416 20.6971 20.6964 19.0422 20.6964 17.0009C20.6964 14.9595 19.0416 13.3047 17.0002 13.3047C14.9588 13.3047 13.304 14.9595 13.304 17.0009C13.304 19.0422 14.9588 20.6971 17.0002 20.6971Z" fill="#F0F0F0"/>
<path d="M17.0002 12.4395L18.1412 15.0255L20.9488 14.7215L19.2797 17.0011L20.9488 19.2806L18.1412 18.9766L17.0002 21.5601L15.8591 18.9766L13.0515 19.2806L14.7206 17.0011L13.0515 14.7215L15.8591 15.0255L17.0002 12.4395Z" fill="#0052B4"/>
</svg>
