<svg width="34" height="34" viewBox="0 0 34 34" fill="none" xmlns="http://www.w3.org/2000/svg">
<path d="M17 34.0008C26.3888 34.0008 34 26.3897 34 17.0009C34 7.61209 26.3888 0.000976562 17 0.000976562C7.61116 0.000976562 0 7.61209 0 17.0009C0 26.3897 7.61116 34.0008 17 34.0008Z" fill="#F0F0F0"/>
<path d="M22.5225 12.5654H20.2971C20.3151 12.8101 20.3254 13.0574 20.3254 13.3046C20.3254 14.948 19.9133 16.5423 19.1972 17.6782C18.9757 18.0285 18.6048 18.5231 18.1077 18.8554V12.5654H15.8899V18.8554C15.3928 18.5231 15.0219 18.0285 14.8004 17.6782C14.0843 16.5449 13.6722 14.9505 13.6722 13.3046C13.6722 13.0574 13.6825 12.8101 13.7005 12.5654H11.4751C11.4597 12.8075 11.4519 13.0548 11.4519 13.3046C11.4519 17.8637 13.886 21.4363 16.9949 21.4363C20.1039 21.4363 22.538 17.8663 22.538 13.3046C22.538 13.0548 22.5302 12.8075 22.5173 12.5654H22.5225Z" fill="#D80027"/>
<path d="M7.0215 8.13199H9.23926V9.61046H11.4569V8.13199H13.6747V9.61046H15.8924V8.13199H18.1102V9.61046H20.3278V8.13199H22.5456V9.61046H24.7633V8.13199H26.981V9.61046H32.3154C29.5671 3.92322 23.7433 0.00292969 17.0026 0.00292969C10.2618 0.00292969 4.43803 3.9258 1.6897 9.61046H7.02408V8.13199H7.0215Z" fill="#6DA544"/>
<path d="M26.9785 24.3936V25.872H24.7607V24.3936H22.543V25.872H20.3253V24.3936H18.1076V25.872H15.8898V24.3936H13.6722V25.872H11.4544V24.3936H9.23671V25.872H7.01895V24.3936H1.68457C4.43548 30.0808 10.2567 34.0011 16.9974 34.0011C23.7382 34.0011 29.562 30.0782 32.3103 24.3936H26.9759H26.9785Z" fill="#D80027"/>
</svg>
