<svg width="34" height="34" viewBox="0 0 34 34" fill="none" xmlns="http://www.w3.org/2000/svg">
<path d="M17 34.001C26.3888 34.001 34 26.3898 34 17.001C34 7.61214 26.3888 0.000976562 17 0.000976562C7.61116 0.000976562 0 7.61214 0 17.001C0 26.3898 7.61116 34.001 17 34.001Z" fill="#F0F0F0"/>
<path d="M16.9996 0.000976562C9.68959 0.000976562 3.45883 4.61417 1.05823 11.087H32.9435C30.5403 4.61417 24.3096 0.000976562 16.9996 0.000976562Z" fill="#A2001D"/>
<path d="M17 34.0011C24.31 34.0011 30.5408 29.3879 32.9414 22.915H1.05609C3.45927 29.3879 9.69003 34.0011 16.9975 34.0011H17Z" fill="black"/>
<path d="M12.9349 15.8936C12.9349 15.8936 12.9169 15.8936 12.9066 15.8936H9.65599C9.82084 15.2574 10.3978 14.7861 11.0855 14.7861V12.5684C9.04811 12.5684 7.38932 14.2271 7.38932 16.2645V18.1114H12.9324C13.1358 18.1114 13.3007 18.2762 13.3007 18.4797V19.219H5.90826V21.4367H15.5158V18.4797C15.5158 17.0527 14.3542 15.8936 12.9298 15.8936H12.9349Z" fill="#496E2D"/>
<path d="M18.4783 19.2186V12.5654H16.2606V21.4363H19.9568V19.2186H18.4783Z" fill="#496E2D"/>
<path d="M25.8684 19.2186V12.5654H23.6532V19.2186H22.914V17.0009H20.6963V21.4363H27.3469V19.2186H25.8684Z" fill="#496E2D"/>
</svg>
