<svg width="34" height="34" viewBox="0 0 34 34" fill="none" xmlns="http://www.w3.org/2000/svg">
<path d="M17 34.001C26.3888 34.001 34 26.3898 34 17.001C34 7.61214 26.3888 0.000976562 17 0.000976562C7.61116 0.000976562 0 7.61214 0 17.001C0 26.3898 7.61116 34.001 17 34.001Z" fill="#D80027"/>
<path d="M23.295 11.3964L22.0947 15.685L18.4886 15.0205L16.1679 10.2373L9.89848 12.4627L9.40394 11.0693L7.76318 10.8684L8.99954 14.3508L13.3139 13.2484L14.54 16.7025L11.5573 21.1044L16.6186 25.4214L15.6604 26.547L16.3044 28.0693L18.7024 25.2566L15.5909 22.0729L17.9709 19.2834L23.2744 19.6646L24.4824 13.1221L25.9352 13.39L26.9294 12.0713L23.295 11.4016V11.3964Z" fill="#F0F0F0"/>
</svg>
