<svg width="34" height="34" viewBox="0 0 34 34" fill="none" xmlns="http://www.w3.org/2000/svg">
<path d="M17 34.001C26.3888 34.001 34 26.3898 34 17.001C34 7.61214 26.3888 0.000976562 17 0.000976562C7.61116 0.000976562 0 7.61214 0 17.001C0 26.3898 7.61116 34.001 17 34.001Z" fill="#F0F0F0"/>
<path d="M23.4006 13.3055H19.1326L16.9999 9.60938L14.8671 13.3055H10.5991L12.7319 17.0018L10.5991 20.698H14.8671L16.9999 24.3942L19.1326 20.698H23.4006L21.2679 17.0018L23.4006 13.3055ZM19.622 17.0018L18.3109 19.271H15.6888L14.3777 17.0018L15.6888 14.7325H18.3109L19.622 17.0018ZM16.9999 12.4608L17.4867 13.3055H16.5105L16.9973 12.4608H16.9999ZM13.0667 14.7325H14.0429L13.5561 15.5774L13.0693 14.7325H13.0667ZM13.0667 19.271L13.5535 18.4262L14.0403 19.271H13.0641H13.0667ZM16.9999 21.5428L16.5131 20.698H17.4893L17.0025 21.5428H16.9999ZM20.9331 19.271H19.9568L20.4437 18.4262L20.9305 19.271H20.9331ZM19.9568 14.7325H20.9331L20.4462 15.5774L19.9594 14.7325H19.9568Z" fill="#0052B4"/>
<path d="M27.5813 3.69727H6.41628C4.86568 4.93363 3.53401 6.43271 2.49341 8.13271H31.5042C30.4636 6.43529 29.1319 4.93363 27.5813 3.69727Z" fill="#0052B4"/>
<path d="M6.41875 30.3056H27.5837C29.1343 29.0692 30.466 27.5701 31.5066 25.8701H2.49585C3.53646 27.5675 4.86815 29.0692 6.41875 30.3056Z" fill="#0052B4"/>
</svg>
