<svg width="34" height="34" viewBox="0 0 34 34" fill="none" xmlns="http://www.w3.org/2000/svg">
<path d="M17.0001 34.001C19.0787 34.001 21.0724 33.6275 22.914 32.9423L23.6533 17.001L22.914 1.05964C21.0724 0.377065 19.0813 0.000976562 17.0001 0.000976562C14.9189 0.000976562 12.9278 0.374489 11.0862 1.05964L10.3469 17.001L11.0862 32.9423C12.9278 33.6249 14.9189 34.001 17.0001 34.001Z" fill="#F0F0F0"/>
<path d="M0 17.0006C0 24.3106 4.61319 30.5413 11.0861 32.9419V1.05664C4.61319 3.45982 0 9.69055 0 16.998V17.0006Z" fill="#FF9811"/>
<path d="M22.9141 1.05957V32.9448C29.3869 30.5416 34.0001 24.3109 34.0001 17.0009C34.0001 9.69091 29.3869 3.46018 22.9141 1.05957Z" fill="#6DA544"/>
</svg>
