<svg width="34" height="34" viewBox="0 0 34 34" fill="none" xmlns="http://www.w3.org/2000/svg">
<path d="M17.0004 34.001C26.389 34.001 34 26.3898 34 17.001C34 7.61214 26.389 0.000976562 17.0004 0.000976562C7.61174 0.000976562 0.000732422 7.61214 0.000732422 17.001C0.000732422 26.3898 7.61174 34.001 17.0004 34.001Z" fill="#FFDA44"/>
<path d="M27.349 3.51428C24.4823 1.31201 20.8943 0.000976562 16.9999 0.000976562C13.1054 0.000976562 9.51746 1.31201 6.6507 3.51428L16.9999 13.8637L27.349 3.51428Z" fill="#6DA544"/>
<path d="M3.51324 6.65137C1.31101 9.51819 0 13.1062 0 17.0007C0 20.8953 1.31101 24.4833 3.51324 27.3501L13.8625 17.0007L3.51324 6.65137Z" fill="black"/>
<path d="M6.65063 30.4881C9.5174 32.6904 13.1053 34.0014 16.9998 34.0014C20.8943 34.0014 24.4822 32.6904 27.349 30.4881L16.9998 20.1387L6.65063 30.4881Z" fill="#6DA544"/>
<path d="M30.486 27.3501C32.6882 24.4833 33.9992 20.8953 33.9992 17.0007C33.9992 13.1062 32.6882 9.51819 30.486 6.65137L20.1367 17.0007L30.486 27.3501Z" fill="black"/>
</svg>
