<svg width="34" height="34" viewBox="0 0 34 34" fill="none" xmlns="http://www.w3.org/2000/svg">
<path d="M17 34.001C26.3888 34.001 34 26.3898 34 17.001C34 7.61214 26.3888 0.000976562 17 0.000976562C7.61116 0.000976562 0 7.61214 0 17.001C0 26.3898 7.61116 34.001 17 34.001Z" fill="#F0F0F0"/>
<path d="M30.4868 27.3523L20.1348 17.0004L30.4868 6.64841C30.0412 6.06887 29.5518 5.50993 29.0212 4.97933C28.4906 4.44872 27.9316 3.95928 27.3521 3.51367L17.0001 13.8657L6.64817 3.51367C6.06862 3.95928 5.50969 4.44872 4.97908 4.97933C4.44848 5.50993 3.95903 6.06887 3.51343 6.64841L13.8654 17.0004L3.51343 27.3523C3.95903 27.9319 4.44848 28.4908 4.97908 29.0214C5.50969 29.552 6.06862 30.0415 6.64817 30.4871L17.0001 20.135L27.3521 30.4871C27.9316 30.0415 28.4906 29.552 29.0212 29.0214C29.5518 28.4908 30.0412 27.9319 30.4868 27.3523Z" fill="#D80027"/>
<path d="M14.043 5.17573L16.9999 5.91494L19.9569 5.17573V2.66179L18.7746 3.25416L16.9999 1.47949L15.2253 3.25416L14.043 2.66179V5.17573Z" fill="#FFDA44"/>
<path d="M14.043 5.17578V7.02258C14.043 9.28667 16.9999 9.97954 16.9999 9.97954C16.9999 9.97954 19.9569 9.28667 19.9569 7.02258V5.17578H14.043Z" fill="#D80027"/>
</svg>
