<svg width="34" height="34" viewBox="0 0 34 34" fill="none" xmlns="http://www.w3.org/2000/svg">
<path d="M17 34.001C26.3888 34.001 34 26.3898 34 17.001C34 7.61214 26.3888 0.000976562 17 0.000976562C7.61116 0.000976562 0 7.61214 0 17.001C0 26.3898 7.61116 34.001 17 34.001Z" fill="#F0F0F0"/>
<path d="M10.3468 11.087H32.9413C30.5381 4.61417 24.3074 0.000976562 17 0.000976562C12.3044 0.000976562 8.05697 1.90448 4.97894 4.97994L10.3468 11.087Z" fill="black"/>
<path d="M10.3468 22.915H32.9414C30.5382 29.3879 24.3075 34.0011 17 34.0011C12.3044 34.0011 8.05703 32.0976 4.979 29.0222L10.3468 22.915Z" fill="#6DA544"/>
<path d="M4.97903 4.98047C-1.6587 11.6182 -1.6587 22.3822 4.97903 29.0226C7.72221 26.2794 10.3598 23.6418 17.0001 17.0015L4.97903 4.98047Z" fill="#D80027"/>
<path d="M6.74829 13.3047L7.68075 15.2571L9.7877 14.7703L8.84242 16.715L10.5372 18.0596L8.42769 18.5335L8.43285 20.6972L6.74829 19.3449L5.06116 20.6972L5.06632 18.5335L2.95679 18.0596L4.65166 16.715L3.70631 14.7703L5.81332 15.2571L6.74829 13.3047Z" fill="#F0F0F0"/>
</svg>
