<svg width="34" height="34" viewBox="0 0 34 34" fill="none" xmlns="http://www.w3.org/2000/svg">
<path d="M17 34.001C26.3888 34.001 34 26.3898 34 17.001C34 7.61214 26.3888 0.000976562 17 0.000976562C7.61116 0.000976562 0 7.61214 0 17.001C0 26.3898 7.61116 34.001 17 34.001Z" fill="#338AF3"/>
<path d="M26.6074 17.1865H7.38965C7.38965 18.513 8.54616 19.5897 9.87268 19.5897H9.79283C9.79283 20.9162 10.8695 21.9929 12.196 21.9929C12.196 23.3194 13.2727 24.3961 14.5992 24.3961H19.403C20.7295 24.3961 21.8062 23.3194 21.8062 21.9929C23.1327 21.9929 24.2093 20.9162 24.2093 19.5897H24.1295C25.456 19.5897 26.6125 18.513 26.6125 17.1865H26.6074Z" fill="#FFDA44"/>
<path d="M23.6528 14.0439C23.6528 17.717 20.6752 20.6971 16.9996 20.6971C13.324 20.6971 10.3464 17.7196 10.3464 14.0439" fill="#338AF3"/>
<path d="M22.0817 14.044L20.0056 15.0203L21.1106 17.0319L18.8568 16.6017L18.5709 18.8787L16.9997 17.2019L15.4285 18.8787L15.1426 16.6017L12.8888 17.0319L13.9938 15.0203L11.9177 14.044L13.9938 13.0678L12.8888 11.0561L15.1426 11.4889L15.4285 9.21191L16.9997 10.8862L18.5709 9.21191L18.8568 11.4889L21.1106 11.0561L20.0056 13.0678L22.0817 14.044Z" fill="#FFDA44"/>
</svg>
