<svg width="34" height="34" viewBox="0 0 34 34" fill="none" xmlns="http://www.w3.org/2000/svg">
<path d="M17.0009 34.001C26.389 34.001 33.9996 26.3898 33.9996 17.001C33.9996 7.61214 26.389 0.000976562 17.0009 0.000976562C7.61278 0.000976562 0.00219727 7.61214 0.00219727 17.001C0.00219727 26.3898 7.61278 34.001 17.0009 34.001Z" fill="#F0F0F0"/>
<path d="M17.0012 0.000976562C10.2609 0.000976562 4.43758 3.92387 1.68945 9.60857H32.3129C29.5622 3.92129 23.7414 0.000976562 17.0012 0.000976562Z" fill="black"/>
<path d="M17.0012 34.0011C10.2609 34.0011 4.43758 30.0783 1.68945 24.3936H32.3129C29.5622 30.0808 23.7414 34.0011 17.0012 34.0011Z" fill="#496E2D"/>
<path d="M33.1964 11.8262H0.803574C0.283311 13.4566 0 15.1953 0 17.0009C0 18.8065 0.280735 20.5426 0.803574 22.1756H33.1964C33.7167 20.5452 34 18.8065 34 17.0009C34 15.1953 33.7193 13.4592 33.1964 11.8262Z" fill="#A2001D"/>
<path d="M22.2941 7.85761L20.2825 6.92773L17.0013 14.3562L13.72 6.92773L11.7085 7.85761L15.7805 17.0016L11.7085 26.1455L13.72 27.0754L17.0013 19.6469L20.2825 27.0754L22.2941 26.1455L18.2221 17.0016L22.2941 7.85761Z" fill="#F0F0F0"/>
<path d="M18.3688 8.73294C17.5884 7.88294 17.0012 7.39355 17.0012 7.39355C17.0012 7.39355 16.4139 7.88294 15.6335 8.73294V25.2694C16.4139 26.1194 17.0012 26.6087 17.0012 26.6087C17.0012 26.6087 17.5884 26.1194 18.3688 25.2694V8.73294Z" fill="#F0F0F0"/>
<path d="M13.3052 11.9034V22.0982C14.1294 23.5587 15.1364 24.7538 15.891 25.5471V8.45703C15.1364 9.25036 14.1268 10.4455 13.3052 11.9059V11.9034Z" fill="#A2001D"/>
<path d="M20.6971 11.903C19.8729 10.4426 18.8658 9.24743 18.1112 8.4541V25.5442C18.8658 24.7509 19.8755 23.5558 20.6971 22.0953V11.9004V11.903Z" fill="#A2001D"/>
<path d="M20.6973 11.9033V22.0982C21.5317 20.6197 22.1757 18.8733 22.1757 17.0008C22.1757 15.1282 21.5317 13.3818 20.6973 11.9033Z" fill="black"/>
<path d="M13.3053 11.9033V22.0982C12.4708 20.6197 11.8269 18.8733 11.8269 17.0008C11.8269 15.1282 12.4708 13.3818 13.3053 11.9033Z" fill="black"/>
</svg>
