<svg width="34" height="34" viewBox="0 0 34 34" fill="none" xmlns="http://www.w3.org/2000/svg">
<path d="M0 17.0008C0 7.61228 7.61134 0.000976562 16.9999 0.000976562C26.3885 0.000976562 33.9999 7.61228 33.9999 17.0008" fill="#D80027"/>
<path d="M22.914 15.8109L20.498 16.9469L21.7833 19.2882L19.1612 18.7859L18.8263 21.4364L17.0001 19.4865L15.1739 21.4364L14.8391 18.7859L12.2169 19.2882L13.5022 16.9469L11.0862 15.8109L13.5022 14.675L12.2169 12.3337L14.8391 12.836L15.1739 10.1855L17.0001 12.1354L18.8263 10.1855L19.1612 12.836L21.7833 12.3337L20.498 14.675L22.914 15.8109Z" fill="#FFDA44"/>
<path d="M21.4351 5.5441H18.1098C18.1098 4.93108 17.6127 4.43652 17.0022 4.43652C16.3918 4.43652 15.8947 4.93365 15.8947 5.5441H12.5694C12.5694 6.15713 13.1025 6.65168 13.7156 6.65168H13.6795C13.6795 7.26471 14.1766 7.75926 14.7871 7.75926C14.7871 8.37229 15.2842 8.86678 15.8947 8.86678H18.1124C18.7254 8.86678 19.2199 8.36971 19.2199 7.75926C19.833 7.75926 20.3275 7.26213 20.3275 6.65168H20.2915C20.9045 6.65168 21.4377 6.15455 21.4377 5.5441H21.4351Z" fill="#FFDA44"/>
<path d="M33.9999 17.001C33.9999 26.3895 26.3885 34.0008 16.9999 34.0008C7.61134 34.0008 0 26.3895 0 17.001H33.9999Z" fill="#F0F0F0"/>
<path d="M16.9999 34.001C22.3137 34.001 27.0582 31.5617 30.1749 27.7445C29.6134 27.3633 29.312 26.7451 28.3332 26.7451C26.9165 26.7451 26.9165 28.0407 25.4999 28.0407C24.0832 28.0407 24.0832 26.7451 22.6666 26.7451C21.2499 26.7451 21.2499 28.0407 19.8332 28.0407C18.4166 28.0407 18.4166 26.7451 16.9999 26.7451C15.5833 26.7451 15.5833 28.0407 14.1666 28.0407C12.7499 28.0407 12.7499 26.7451 11.3333 26.7451C9.9166 26.7451 9.9166 28.0407 8.49994 28.0407C7.08328 28.0407 7.08328 26.7451 5.66662 26.7451C4.68783 26.7451 4.38646 27.3633 3.82495 27.7445C6.94161 31.5643 11.6861 34.001 16.9999 34.001Z" fill="#0052B4"/>
<path d="M31.1663 19.1696C29.7497 19.1696 29.7497 17.874 28.333 17.874C26.9163 17.874 26.9163 19.1696 25.4997 19.1696C24.083 19.1696 24.083 17.874 22.6664 17.874C21.2497 17.874 21.2497 19.1696 19.833 19.1696C18.4164 19.1696 18.4164 17.874 16.9997 17.874C15.583 17.874 15.583 19.1696 14.1664 19.1696C12.7497 19.1696 12.7497 17.874 11.3331 17.874C9.9164 17.874 9.9164 19.1696 8.49973 19.1696C7.08307 19.1696 7.08307 17.874 5.66641 17.874C4.24975 17.874 4.24975 19.1696 2.83308 19.1696C1.41642 19.1696 1.41643 17.8895 0.0229492 17.874C0.0615855 18.6519 0.154312 19.4143 0.295978 20.1613C1.42416 20.3262 1.52461 21.4363 2.83566 21.4363C4.25233 21.4363 4.25233 20.1407 5.66899 20.1407C7.08565 20.1407 7.08565 21.4363 8.50231 21.4363C9.91897 21.4363 9.91897 20.1407 11.3356 20.1407C12.7523 20.1407 12.7523 21.4363 14.169 21.4363C15.5856 21.4363 15.5856 20.1407 17.0023 20.1407C18.4189 20.1407 18.4189 21.4363 19.8356 21.4363C21.2523 21.4363 21.2523 20.1407 22.6689 20.1407C24.0856 20.1407 24.0856 21.4363 25.5023 21.4363C26.9189 21.4363 26.9189 20.1407 28.3356 20.1407C29.7522 20.1407 29.7522 21.4363 31.1689 21.4363C32.48 21.4363 32.5778 20.3287 33.7086 20.1613C33.8503 19.4143 33.943 18.6519 33.9816 17.874C32.5881 17.8869 32.5804 19.1696 31.1689 19.1696H31.1663Z" fill="#0052B4"/>
<path d="M28.333 22.3096C26.9163 22.3096 26.9163 23.6051 25.4996 23.6051C24.083 23.6051 24.083 22.3096 22.6663 22.3096C21.2496 22.3096 21.2496 23.6051 19.833 23.6051C18.4163 23.6051 18.4163 22.3096 16.9997 22.3096C15.583 22.3096 15.583 23.6051 14.1663 23.6051C12.7497 23.6051 12.7497 22.3096 11.333 22.3096C9.91634 22.3096 9.91634 23.6051 8.49968 23.6051C7.08302 23.6051 7.08302 22.3096 5.66636 22.3096C4.2497 22.3096 4.2497 23.6051 2.83303 23.6051C1.82076 23.6051 1.53228 22.9432 0.932129 22.5671C1.33137 23.7211 1.84909 24.8158 2.475 25.8409C2.58318 25.8615 2.70167 25.8718 2.83303 25.8718C4.2497 25.8718 4.2497 24.5762 5.66636 24.5762C7.08302 24.5762 7.08302 25.8718 8.49968 25.8718C9.91634 25.8718 9.91634 24.5762 11.333 24.5762C12.7497 24.5762 12.7497 25.8718 14.1663 25.8718C15.583 25.8718 15.583 24.5762 16.9997 24.5762C18.4163 24.5762 18.4163 25.8718 19.833 25.8718C21.2496 25.8718 21.2496 24.5762 22.6663 24.5762C24.083 24.5762 24.083 25.8718 25.4996 25.8718C26.9163 25.8718 26.9163 24.5762 28.333 24.5762C29.7496 24.5762 29.7496 25.8718 31.1663 25.8718C31.2976 25.8718 31.4161 25.8615 31.5243 25.8409C32.1502 24.8158 32.6679 23.7185 33.0672 22.5671C32.467 22.9458 32.1785 23.6051 31.1663 23.6051C29.7496 23.6051 29.7496 22.3096 28.333 22.3096Z" fill="#0052B4"/>
<path d="M33.9484 15.6588C32.5858 15.6923 32.5652 16.9519 31.1666 16.9519C29.7679 16.9519 29.7499 15.6562 28.3332 15.6562C26.9166 15.6562 26.9166 16.9519 25.4999 16.9519C24.0833 16.9519 24.0833 15.6562 22.6666 15.6562C21.2499 15.6562 21.2499 16.9519 19.8333 16.9519C18.4166 16.9519 18.4166 15.6562 16.9999 15.6562C15.5833 15.6562 15.5833 16.9519 14.1666 16.9519C12.75 16.9519 12.75 15.6562 11.3333 15.6562C9.91663 15.6562 9.91663 16.9519 8.49997 16.9519C7.08331 16.9519 7.08331 15.6562 5.66665 15.6562C4.24999 15.6562 4.24999 16.9519 2.83332 16.9519C1.41666 16.9519 1.41667 15.6897 0.0515181 15.6588C0.0180334 16.1019 0 16.55 0 17.0008C0 17.3099 0.00772096 17.619 0.0257512 17.9229C1.41666 17.9384 1.42696 19.2185 2.83332 19.2185C4.23968 19.2185 4.24999 17.9229 5.66665 17.9229C7.08331 17.9229 7.08331 19.2185 8.49997 19.2185C9.91663 19.2185 9.91663 17.9229 11.3333 17.9229C12.75 17.9229 12.75 19.2185 14.1666 19.2185C15.5833 19.2185 15.5833 17.9229 16.9999 17.9229C18.4166 17.9229 18.4166 19.2185 19.8333 19.2185C21.2499 19.2185 21.2499 17.9229 22.6666 17.9229C24.0833 17.9229 24.0833 19.2185 25.4999 19.2185C26.9166 19.2185 26.9166 17.9229 28.3332 17.9229C29.7499 17.9229 29.7499 19.2185 31.1666 19.2185C32.5832 19.2185 32.5832 17.9384 33.9741 17.9229C33.9896 17.6164 33.9999 17.3099 33.9999 17.0008C33.9999 16.55 33.9818 16.1019 33.9484 15.6588Z" fill="#F0F0F0"/>
</svg>
