<svg width="34" height="34" viewBox="0 0 34 34" fill="none" xmlns="http://www.w3.org/2000/svg">
<path d="M17 34.001C26.3888 34.001 34 26.3898 34 17.001C34 7.61214 26.3888 0.000976562 17 0.000976562C7.61116 0.000976562 0 7.61214 0 17.001C0 26.3898 7.61116 34.001 17 34.001Z" fill="#0052B4"/>
<path d="M7.46725 10.3477L7.8356 11.4784H9.02302L8.06227 12.1765L8.428 13.3046L7.46725 12.6066L6.5065 13.3046L6.87482 12.1765L5.91406 11.4784H7.10148L7.46725 10.3477Z" fill="#F0F0F0"/>
<path d="M11.1632 9.24023L11.5289 10.3684H12.7163L11.7556 11.0664L12.1239 12.1972L11.1632 11.4991L10.2024 12.1972L10.5682 11.0664L9.60742 10.3684H10.7948L11.1632 9.24023Z" fill="#F0F0F0"/>
<path d="M14.8595 8.13281L15.2252 9.26096H16.4127L15.4519 9.95898L15.8203 11.0872L14.8595 10.3892L13.8987 11.0872L14.2645 9.95898L13.3037 9.26096H14.4912L14.8595 8.13281Z" fill="#F0F0F0"/>
<path d="M26.5328 10.3477L26.1645 11.4784H24.9771L25.9378 12.1765L25.5721 13.3046L26.5328 12.6066L27.4936 13.3046L27.1253 12.1765L28.086 11.4784H26.8986L26.5328 10.3477Z" fill="#F0F0F0"/>
<path d="M22.8369 9.24023L22.4711 10.3684H21.2837L22.2444 11.0664L21.8761 12.1972L22.8369 11.4991L23.7976 12.1972L23.4319 11.0664L24.3926 10.3684H23.2052L22.8369 9.24023Z" fill="#F0F0F0"/>
<path d="M19.1408 8.13281L18.775 9.26096H17.5876L18.5484 9.95898L18.18 11.0872L19.1408 10.3892L20.1016 11.0872L19.7358 9.95898L20.6965 9.26096H19.5091L19.1408 8.13281Z" fill="#F0F0F0"/>
<path d="M19.9571 17.7402L17.0001 14.0439L15.5216 14.7832V16.2616L13.3039 17.7402H11.8254V19.6488C13.9917 20.5271 15.5216 22.6496 15.5216 25.13H17.0001V23.6515L18.4786 22.1731L19.9571 23.6515L21.4356 22.1731V20.6946L22.9141 18.4768L19.9571 17.7376V17.7402Z" fill="#FFDA44"/>
</svg>
