<svg width="34" height="34" viewBox="0 0 34 34" fill="none" xmlns="http://www.w3.org/2000/svg">
<path d="M32.9414 22.9147C33.6239 21.073 34 19.082 34 17.0008C34 14.9196 33.6265 12.9285 32.9414 11.0869L17 9.6084L1.05863 11.0869C0.376057 12.9285 0 14.9196 0 17.0008C0 19.082 0.373481 21.073 1.05863 22.9147L17 24.3932L32.9414 22.9147Z" fill="#F0F0F0"/>
<path d="M17.0001 34.0011C24.3101 34.0011 30.5409 29.3879 32.9415 22.915H1.05615C3.45933 29.3879 9.6901 34.0011 17.0001 34.0011Z" fill="#D80027"/>
<path d="M17.0001 0.000976562C9.6901 0.000976562 3.45933 4.61416 1.05615 11.087H32.9415C30.5383 4.61416 24.3075 0.000976562 17.0001 0.000976562Z" fill="#6DA544"/>
<path d="M4.97903 4.98047C-1.6587 11.6182 -1.6587 22.3822 4.97903 29.0225C6.71251 27.289 8.40223 25.5993 11.0862 22.9154V11.0901L4.97903 4.98305V4.98047Z" fill="black"/>
</svg>
