<svg width="34" height="34" viewBox="0 0 34 34" fill="none" xmlns="http://www.w3.org/2000/svg">
<path d="M17 34.001C26.3888 34.001 34 26.3898 34 17.001C34 7.61214 26.3888 0.000976562 17 0.000976562C7.61116 0.000976562 0 7.61214 0 17.001C0 26.3898 7.61116 34.001 17 34.001Z" fill="#D80027"/>
<path d="M25.3144 17.0013L21.917 18.5983L23.7252 21.8901L20.0367 21.1843L19.5705 24.9089L16.9999 22.1683L14.4293 24.9089L13.963 21.1843L10.2746 21.8901L12.0827 18.5983L8.6853 17.0013L12.0827 15.4044L10.2746 12.1125L13.963 12.8183L14.4293 9.09375L16.9999 11.8343L19.5705 9.09375L20.0367 12.8183L23.7252 12.1125L21.917 15.4044L25.3144 17.0013Z" fill="#FFDA44"/>
<path d="M16.9996 22.1756C19.8575 22.1756 22.1743 19.8588 22.1743 17.0009C22.1743 14.143 19.8575 11.8262 16.9996 11.8262C14.1417 11.8262 11.825 14.143 11.825 17.0009C11.825 19.8588 14.1417 22.1756 16.9996 22.1756Z" fill="#D80027"/>
<path d="M14.4135 17.001C14.2898 17.001 14.1662 17.0061 14.0452 17.019C14.0503 17.7351 14.3079 18.3919 14.738 18.9019C14.9673 18.2862 15.3073 17.7273 15.7374 17.2457C15.3279 17.0885 14.8797 17.001 14.4161 17.001H14.4135Z" fill="#FFDA44"/>
<path d="M16.0054 19.7853C16.317 19.8961 16.6519 19.9579 16.9996 19.9579C17.3473 19.9579 17.6822 19.8961 17.9938 19.7853C17.8238 19.1208 17.4735 18.5258 16.9996 18.0596C16.5231 18.5258 16.1754 19.1208 16.0054 19.7853Z" fill="#FFDA44"/>
<path d="M19.56 15.5224C19.05 14.6389 18.0944 14.0439 16.9997 14.0439C15.905 14.0439 14.9494 14.6389 14.4394 15.5224C15.3718 15.5276 16.245 15.78 16.9997 16.2179C17.7544 15.78 18.6276 15.5276 19.56 15.5224Z" fill="#FFDA44"/>
<path d="M18.2644 17.2457C18.6946 17.7248 19.0346 18.2862 19.2638 18.9019C19.6914 18.3919 19.9515 17.7377 19.9567 17.019C19.8356 17.0061 19.712 17.001 19.5883 17.001C19.1221 17.001 18.6765 17.0885 18.267 17.2457H18.2644Z" fill="#FFDA44"/>
</svg>
