<svg width="34" height="34" viewBox="0 0 34 34" fill="none" xmlns="http://www.w3.org/2000/svg">
<path d="M32.313 9.60856C29.5621 3.92129 23.7409 0.000976562 17.0002 0.000976562C10.2594 0.000976562 4.43562 3.92387 1.68729 9.60856L17.0002 11.087L32.313 9.60856Z" fill="#D80027"/>
<path d="M1.6868 24.3935C4.43771 30.0808 10.2589 34.0011 16.9997 34.0011C23.7404 34.0011 29.5642 30.0782 32.3125 24.3935L16.9997 22.915L1.6868 24.3935Z" fill="#D80027"/>
<path d="M32.3129 9.6084H1.68713C0.605316 11.8442 0 14.3504 0 17.0008C0 19.6513 0.605316 22.1575 1.68713 24.3932H32.3129C33.3947 22.1575 34 19.6513 34 17.0008C34 14.3504 33.3947 11.8442 32.3129 9.6084Z" fill="#0052B4"/>
<path d="M17.0001 22.9148C20.2663 22.9148 22.914 20.267 22.914 17.0008C22.914 13.7347 20.2663 11.0869 17.0001 11.0869C13.7339 11.0869 11.0862 13.7347 11.0862 17.0008C11.0862 20.267 13.7339 22.9148 17.0001 22.9148Z" fill="#F0F0F0"/>
</svg>
