<svg width="34" height="34" viewBox="0 0 34 34" fill="none" xmlns="http://www.w3.org/2000/svg">
<path d="M17 34.001C26.3888 34.001 34 26.3898 34 17.001C34 7.61214 26.3888 0.000976562 17 0.000976562C7.61116 0.000976562 0 7.61214 0 17.001C0 26.3898 7.61116 34.001 17 34.001Z" fill="#F0F0F0"/>
<path d="M16.9998 0.000976562C9.14635 0.000976562 2.53696 5.32765 0.584534 12.5655H33.4126C31.4627 5.32765 24.8533 0.000976562 16.9973 0.000976562H16.9998Z" fill="#A2001D"/>
<path d="M17.0002 34.0011C24.8537 34.0011 31.4631 28.6744 33.4155 21.4365H0.587463C2.53731 28.6744 9.1467 34.0011 17.0028 34.0011H17.0002Z" fill="#A2001D"/>
</svg>
