<svg width="34" height="34" viewBox="0 0 34 34" fill="none" xmlns="http://www.w3.org/2000/svg">
<path d="M17 34.0008C26.3888 34.0008 34 26.3897 34 17.0009C34 7.61209 26.3888 0.000976562 17 0.000976562C7.61116 0.000976562 0 7.61209 0 17.0009C0 26.3897 7.61116 34.0008 17 34.0008Z" fill="#F0F0F0"/>
<path d="M17.0001 0.000976562C10.2594 0.000976562 4.43559 3.92385 1.68726 9.60851H32.313C29.5621 3.92127 23.7409 0.000976562 17.0001 0.000976562Z" fill="#D80027"/>
<path d="M17.0001 34.0001C23.7409 34.0001 29.5647 30.0772 32.313 24.3926H1.68726C4.43816 30.0798 10.2594 34.0001 17.0001 34.0001Z" fill="#D80027"/>
<path d="M21.4356 19.9568L17.0001 11.8252L12.5647 19.9568H15.8926V22.1746H18.1077V19.9568H21.4356Z" fill="#6DA544"/>
</svg>
