<svg width="34" height="34" viewBox="0 0 34 34" fill="none" xmlns="http://www.w3.org/2000/svg">
<path d="M0 17.0008C0 19.6487 0.605316 22.1575 1.68713 24.3932L17 25.1325L32.3129 24.3932C33.3947 22.1575 34 19.6513 34 17.0008C34 14.3504 33.3947 11.8442 32.3129 9.60841L17 8.86914L1.68713 9.60841C0.605316 11.8442 0 14.3504 0 17.0008Z" fill="#F0F0F0"/>
<path d="M17.0004 34.0011C23.7411 34.0011 29.5649 30.0783 32.3132 24.3936H1.6875C4.43841 30.0808 10.2596 34.0011 17.0004 34.0011Z" fill="#6DA544"/>
<path d="M17.0003 0.000976562C10.2595 0.000976562 4.43577 3.92387 1.68744 9.60857H32.3132C29.5623 3.92129 23.7411 0.000976562 17.0003 0.000976562Z" fill="#0052B4"/>
<path d="M18.1079 16.6329V12.5684H15.8902V16.6329L13.2114 19.3117C13.9893 20.5867 15.3957 21.4367 16.9978 21.4367C18.5999 21.4367 20.0062 20.5867 20.7841 19.3117L18.1054 16.6329H18.1079Z" fill="black"/>
</svg>
