<svg width="34" height="34" viewBox="0 0 34 34" fill="none" xmlns="http://www.w3.org/2000/svg">
<path d="M16.9999 34.001C26.3888 34.001 33.9999 26.3898 33.9999 17.001C33.9999 7.61214 26.3888 0.000976562 16.9999 0.000976562C7.6111 0.000976562 -6.10352e-05 7.61214 -6.10352e-05 17.001C-6.10352e-05 26.3898 7.6111 34.001 16.9999 34.001Z" fill="#F0F0F0"/>
<path d="M3.88641 6.18271H30.1154C29.1469 5.01074 28.0238 3.97013 26.7772 3.0918H7.22717C5.9805 3.97013 4.85747 5.01074 3.88899 6.18271H3.88641Z" fill="#F0F0F0"/>
<path d="M-6.10352e-05 17.0005C-6.10352e-05 17.5208 0.0256957 18.036 0.0694836 18.546H33.9278C33.9742 18.036 33.9974 17.5208 33.9974 17.0005C33.9974 16.4802 33.9716 15.9651 33.9278 15.4551H0.0694836C0.0231199 15.9651 -6.10352e-05 16.4802 -6.10352e-05 17.0005Z" fill="#F0F0F0"/>
<path d="M1.85423 24.7276H32.1477C32.6474 23.7488 33.057 22.7134 33.3609 21.6367H0.641052C0.944992 22.7134 1.35454 23.7488 1.85423 24.7276Z" fill="#F0F0F0"/>
<path d="M7.22449 30.9093H26.7745C28.0212 30.0309 29.1442 28.9903 30.1127 27.8184H3.88373C4.85221 28.9903 5.97524 30.0309 7.22191 30.9093H7.22449Z" fill="#F0F0F0"/>
<path d="M0.641052 12.3643H33.3609C33.057 11.2877 32.6474 10.2522 32.1477 9.27344H1.85423C1.35454 10.2522 0.944992 11.2877 0.641052 12.3643Z" fill="#F0F0F0"/>
<path d="M8.13123 3.09189H26.7771C24.0108 1.14461 20.6417 0.000976562 17.0021 0.000976562C14.7844 0.000976562 10.8976 1.14461 8.1338 3.09189H8.13123Z" fill="#D80027"/>
<path d="M16.2604 9.27255H32.1451C31.581 8.16755 30.8959 7.1321 30.1129 6.18164H16.2604V9.27255Z" fill="#D80027"/>
<path d="M16.2604 15.4552H33.9301C33.8348 14.394 33.6416 13.3611 33.3609 12.3643H16.263V15.4552H16.2604Z" fill="#D80027"/>
<path d="M0.641093 21.6368H33.3609C33.6417 20.64 33.8349 19.6071 33.9302 18.5459H0.0692749C0.164578 19.6071 0.357761 20.64 0.638519 21.6368H0.641093Z" fill="#D80027"/>
<path d="M3.88646 27.8184H30.1154C30.8984 26.868 31.581 25.8325 32.1477 24.7275H1.85419C2.41828 25.8325 3.10343 26.868 3.88646 27.8184Z" fill="#D80027"/>
<path d="M16.9998 34.0001C20.6393 34.0001 24.011 32.8565 26.7748 30.9092H7.22479C9.99116 32.8565 13.3602 34.0001 16.9998 34.0001Z" fill="#D80027"/>
<path d="M0.640897 12.3646C0.36014 13.3614 0.166958 14.3943 0.0716553 15.4555H17.0021V0.000976562C9.22075 0.000976562 2.66029 5.22977 0.643474 12.3646H0.640897Z" fill="#0052B4"/>
<path d="M10.1198 4.43555L11.2196 7.82271H14.7819L11.8996 9.91677L13.002 13.3039L10.1198 11.2098L7.2375 13.3039L8.33735 9.91677L5.45508 7.82271H9.01735L10.1198 4.43555Z" fill="#F0F0F0"/>
</svg>
