<svg width="34" height="34" viewBox="0 0 34 34" fill="none" xmlns="http://www.w3.org/2000/svg">
<path d="M1.68712 9.60839C0.6053 11.8442 0 14.3504 0 17.0009C0 19.6514 0.6053 22.1577 1.68712 24.3934L17 25.872L32.3129 24.3934C33.3947 22.1577 34 19.6514 34 17.0009C34 14.3504 33.3947 11.8442 32.3129 9.60839L17 8.12988L1.68712 9.60839Z" fill="black"/>
<path d="M1.68677 24.3926C4.4351 30.0799 10.2589 34.0003 16.9997 34.0003C23.7404 34.0003 29.5616 30.0774 32.3125 24.3926H1.68677Z" fill="#496E2D"/>
<path d="M1.68683 9.60872H32.3126C29.5643 3.92136 23.7405 0.000976562 16.9997 0.000976562C10.259 0.000976562 4.43774 3.92393 1.68683 9.60872Z" fill="#D80027"/>
<path d="M20.9562 13.8926L22.3523 15.8141L24.6112 15.0826L23.2126 17.0042L24.6086 18.9257L22.3497 18.1891L20.9536 20.1106V17.7357L18.6973 16.999L20.9562 16.2675V13.8926Z" fill="#F0F0F0"/>
<path d="M17.1496 21.8048C14.4965 21.8048 12.3458 19.654 12.3458 17.0009C12.3458 14.3479 14.4965 12.1971 17.1496 12.1971C17.9764 12.1971 18.7543 12.4057 19.4343 12.7741C18.3679 11.7309 16.91 11.0869 15.3002 11.0869C12.0341 11.0869 9.38623 13.7348 9.38623 17.0009C9.38623 20.2671 12.0341 22.915 15.3002 22.915C16.91 22.915 18.3679 22.271 19.4343 21.2278C18.7543 21.5961 17.9764 21.8048 17.1496 21.8048Z" fill="#F0F0F0"/>
</svg>
