<svg width="34" height="34" viewBox="0 0 34 34" fill="none" xmlns="http://www.w3.org/2000/svg">
<path d="M34 17.001C34 26.3898 26.3886 34.0013 17 34.0013C7.61135 34.0013 0 26.3898 0 17.001C0.739241 17.001 17 14.7832 17 14.7832L34 17.001Z" fill="#D80027"/>
<path d="M0 17.0013C0 7.61249 7.61135 0.000976562 17 0.000976562C26.3886 0.000976562 34 7.61249 34 17.0013" fill="#0052B4"/>
<path d="M12.564 11.8261C12.564 10.6026 11.5723 9.60839 10.3463 9.60839C9.77704 9.60839 9.25931 9.82217 8.8678 10.1725V8.8691H9.60704V7.39059H8.8678V6.65137H7.38932V7.39059H6.65008V8.8691H7.38932V10.1725C6.9978 9.82217 6.48008 9.60839 5.91084 9.60839C4.68735 9.60839 3.69312 10.6 3.69312 11.8261C3.69312 12.483 3.97902 13.0729 4.43236 13.4773V14.7806H11.8248V13.4773C12.2781 13.0703 12.564 12.4804 12.564 11.8261Z" fill="#FFDA44"/>
</svg>
