<svg width="34" height="34" viewBox="0 0 34 34" fill="none" xmlns="http://www.w3.org/2000/svg">
<path d="M17 34.001C26.3888 34.001 34 26.3898 34 17.001C34 7.61214 26.3888 0.000976562 17 0.000976562C7.61116 0.000976562 0 7.61214 0 17.001C0 26.3898 7.61116 34.001 17 34.001Z" fill="#496E2D"/>
<path d="M19.9566 16.2916C19.5393 16.2916 19.1426 16.3741 18.7743 16.508C18.9752 16.0598 19.1117 15.5601 19.1117 15.0244C19.1117 12.9122 16.9996 11.3281 16.9996 11.3281C16.9996 11.3281 14.8875 12.9122 14.8875 15.0244C14.8875 15.5575 15.0214 16.0572 15.2249 16.508C14.8566 16.3766 14.4599 16.2916 14.0426 16.2916C11.9305 16.2916 10.3464 18.4037 10.3464 18.4037C10.3464 18.4037 11.9305 20.5158 14.0426 20.5158C15.2816 20.5158 16.3376 19.7895 16.9996 19.1893C17.6616 19.7895 18.7176 20.5158 19.9566 20.5158C22.0687 20.5158 23.6528 18.4037 23.6528 18.4037C23.6528 18.4037 22.0687 16.2916 19.9566 16.2916Z" fill="#F0F0F0"/>
<path d="M16.9995 6.6543L17.4348 7.99626H18.8463L17.7052 8.82564L18.1406 10.1676L16.9995 9.33822L15.8584 10.1676L16.2937 8.82564L15.1526 7.99626H16.5642L16.9995 6.6543Z" fill="#FFDA44"/>
<path d="M11.6317 9.00098L12.4714 9.75823L13.4502 9.19158L12.9891 10.2245L13.8288 10.9792L12.7058 10.8607L12.2473 11.8935L12.0103 10.7885L10.8899 10.6701L11.8661 10.106L11.6317 9.00098Z" fill="#FFDA44"/>
<path d="M7.70117 12.9319L8.80615 13.1663L9.37284 12.1875L9.48873 13.3105L10.5937 13.5449L9.56344 14.006L9.68191 15.129L8.92466 14.2893L7.89435 14.7478L8.45843 13.7716L7.70117 12.9319Z" fill="#FFDA44"/>
<path d="M22.3673 9.00098L21.5276 9.75823L20.5488 9.19158L21.0098 10.2245L20.1702 10.9792L21.2932 10.8607L21.7517 11.8935L21.9886 10.7885L23.1117 10.6701L22.1329 10.106L22.3673 9.00098Z" fill="#FFDA44"/>
<path d="M26.2981 12.9319L25.1931 13.1663L24.629 12.1875L24.5105 13.3105L23.4055 13.5449L24.4358 14.006L24.3199 15.129L25.0746 14.2893L26.1049 14.7478L25.5408 13.7716L26.2981 12.9319Z" fill="#FFDA44"/>
<path d="M16.9999 26.4275C18.6767 26.4275 20.2247 25.8685 21.4637 24.9258H12.5361C13.7776 25.8685 15.3231 26.4275 16.9999 26.4275Z" fill="#F0F0F0"/>
<path d="M10.2229 21.9922C10.4573 22.5279 10.7561 23.0328 11.1038 23.4939H22.8931C23.2434 23.0328 23.5396 22.5305 23.774 21.9922H10.2229Z" fill="#F0F0F0"/>
</svg>
