<svg width="34" height="34" viewBox="0 0 34 34" fill="none" xmlns="http://www.w3.org/2000/svg">
<path d="M17 34.001C26.3888 34.001 34 26.3898 34 17.001C34 7.61213 26.3888 0.000976562 17 0.000976562C7.61116 0.000976562 0 7.61213 0 17.001C0 26.3898 7.61116 34.001 17 34.001Z" fill="#F0F0F0"/>
<path d="M11.0859 17.0009V32.9422C12.9276 33.6248 14.9187 34.0008 16.9999 34.0008C26.3885 34.0008 33.9999 26.3895 33.9999 17.0009C33.9999 7.61222 11.0859 17.0009 11.0859 17.0009Z" fill="#6DA544"/>
<path d="M16.9998 0.000976562C14.9212 0.000976562 12.9276 0.374489 11.0859 1.05964V17.001H33.9998C33.9998 7.61234 26.3885 0.000976562 16.9998 0.000976562Z" fill="#D80027"/>
</svg>
