<svg width="34" height="34" viewBox="0 0 34 34" fill="none" xmlns="http://www.w3.org/2000/svg">
<path d="M24.3924 1.68811C22.1566 0.606292 19.6504 0.000976562 17 0.000976562C14.3495 0.000976562 11.8433 0.606292 9.60757 1.68811L8.12909 17.001L9.60757 32.3138C11.8433 33.3957 14.3495 34.001 17 34.001C19.6504 34.001 22.1566 33.3957 24.3924 32.3138L25.8709 17.001L24.3924 1.68811Z" fill="#FFDA44"/>
<path d="M9.60759 1.6875C3.92032 4.43841 0 10.2596 0 17.0004C0 23.7411 3.92289 29.5623 9.60759 32.3132V1.6875Z" fill="#0052B4"/>
<path d="M24.3923 1.6875V32.3132C30.0795 29.5623 33.9999 23.7411 33.9999 17.0004C33.9999 10.2596 30.077 4.43841 24.3923 1.6875Z" fill="#0052B4"/>
<path d="M21.8039 18.4793L22.914 19.9578V14.0439L21.8039 15.5224H18.4786V12.1971L19.9571 11.0869H14.0431L15.5216 12.1971V15.5224H12.1963L11.0862 14.0439V19.9578L12.1963 18.4793H15.5216V21.8046L14.0431 22.9148H19.9571L18.4786 21.8046V18.4793H21.8039Z" fill="#D80027"/>
<path d="M21.4353 16.2616H17.7392V12.5654H16.2606V16.2616H12.5645V17.7401H16.2606V21.4363H17.7392V17.7401H21.4353V16.2616Z" fill="#F0F0F0"/>
</svg>
