<svg width="34" height="34" viewBox="0 0 34 34" fill="none" xmlns="http://www.w3.org/2000/svg">
<path d="M0 17.0009C0 19.0796 0.373512 21.0732 1.05866 22.9149L17 23.6542L32.9413 22.9149C33.6239 21.0732 34 19.0822 34 17.0009C34 14.9197 33.6265 12.9286 32.9413 11.0869L17 10.3477L1.05866 11.0869C0.376088 12.9286 0 14.9197 0 17.0009Z" fill="#D80027"/>
<path d="M16.9999 0.000976562C9.6899 0.000976562 3.45917 4.61422 1.05856 11.0872H32.9438C30.5406 4.61422 24.3099 0.000976562 16.9999 0.000976562Z" fill="black"/>
<path d="M32.9414 22.915H1.05615C3.45933 29.388 9.69006 34.0012 16.9975 34.0012C24.3049 34.0012 30.5382 29.388 32.9388 22.915H32.9414Z" fill="#496E2D"/>
<path d="M22.0824 8.13261L20.0063 7.1538L21.1113 5.14467L18.8575 5.57481L18.5717 3.29785L17.0004 4.97211L15.4292 3.29785L15.1433 5.57481L12.8895 5.14467L13.9945 7.1538L11.9185 8.13261H22.0824Z" fill="#D80027"/>
</svg>
