<svg width="34" height="34" viewBox="0 0 34 34" fill="none" xmlns="http://www.w3.org/2000/svg">
<path d="M17 34.001C26.3888 34.001 34 26.3898 34 17.001C34 7.61214 26.3888 0.000976562 17 0.000976562C7.61116 0.000976562 0 7.61214 0 17.001C0 26.3898 7.61116 34.001 17 34.001Z" fill="#F0F0F0"/>
<path d="M16.2607 16.9999H34C34 15.4647 33.7965 13.9785 33.4153 12.5645H16.2607V16.9999Z" fill="#D80027"/>
<path d="M16.2608 8.13174H31.5042C30.4636 6.43431 29.1319 4.93265 27.5813 3.69629H16.2608V8.13174Z" fill="#D80027"/>
<path d="M17.0001 33.9999C21.0002 33.9999 24.6784 32.6167 27.5813 30.3037H6.41626C9.31914 32.6167 12.9973 33.9999 16.9975 33.9999H17.0001Z" fill="#D80027"/>
<path d="M2.49602 25.869H31.5068C32.3414 24.5065 32.9904 23.0151 33.4154 21.4336H0.587402C1.0124 23.0151 1.66147 24.5065 2.49602 25.869Z" fill="#D80027"/>
<path d="M17 17.001V0.000976562C7.61136 0.000976562 0 7.61234 0 17.001H17Z" fill="#0052B4"/>
<path d="M11.3047 14.5512C8.98393 14.5512 7.1011 12.6683 7.1011 10.3475C7.1011 8.02675 8.98393 6.14392 11.3047 6.14392C12.0285 6.14392 12.7085 6.32679 13.3035 6.64876C12.3711 5.73694 11.0961 5.17285 9.68717 5.17285C6.83066 5.17285 4.51245 7.48842 4.51245 10.3475C4.51245 13.2066 6.82808 15.5222 9.68717 15.5222C11.0961 15.5222 12.3711 14.9581 13.3035 14.0463C12.7085 14.3683 12.0285 14.5512 11.3047 14.5512Z" fill="#FFDA44"/>
<path d="M12.4898 7.39258L13.2368 8.95092L14.9213 8.56198L14.1666 10.1203L15.5215 11.1944L13.8344 11.5756L13.8395 13.3039L12.4898 12.2221L11.1401 13.3039L11.1453 11.5756L9.45557 11.1944L10.813 10.1203L10.0583 8.56198L11.7429 8.95092L12.4898 7.39258Z" fill="#FFDA44"/>
</svg>
