<svg width="34" height="34" viewBox="0 0 34 34" fill="none" xmlns="http://www.w3.org/2000/svg">
<path d="M17 34.001C26.3888 34.001 34 26.3898 34 17.001C34 7.61214 26.3888 0.000976562 17 0.000976562C7.61116 0.000976562 0 7.61214 0 17.001C0 26.3898 7.61116 34.001 17 34.001Z" fill="#D80027"/>
<path d="M28.0883 8.86914H5.91357V25.1299H28.0883V8.86914Z" fill="#6DA544"/>
<path d="M19.7379 21.8046C17.0849 21.8046 14.9342 19.6539 14.9342 17.0008C14.9342 14.3478 17.0849 12.1971 19.7379 12.1971C20.5648 12.1971 21.3426 12.4057 22.0226 12.774C20.9563 11.7309 19.4984 11.0869 17.8885 11.0869C14.6225 11.0869 11.9746 13.7348 11.9746 17.0008C11.9746 20.2669 14.6225 22.9148 17.8885 22.9148C19.4984 22.9148 20.9563 22.2708 22.0226 21.2276C21.3426 21.596 20.5648 21.8046 19.7379 21.8046Z" fill="#F0F0F0"/>
</svg>
