<svg width="34" height="34" viewBox="0 0 34 34" fill="none" xmlns="http://www.w3.org/2000/svg">
<path d="M22.9138 1.05964C21.0721 0.377065 19.0811 0.000976562 16.9998 0.000976562C14.9186 0.000976562 12.9275 0.374489 11.0859 1.05964L9.60736 17.001L11.0859 32.9423C12.9275 33.6249 14.9186 34.001 16.9998 34.001C19.0811 34.001 21.0721 33.6275 22.9138 32.9423L24.3923 17.001L22.9138 1.05964Z" fill="#FFDA44"/>
<path d="M34.0002 17.0009C34.0002 9.69091 29.387 3.46018 22.9141 1.05957V32.9448C29.387 30.5416 34.0002 24.3109 34.0002 17.0009Z" fill="#D80027"/>
<path d="M0 17.0009C0 24.3109 4.61322 30.5416 11.0861 32.9448V1.05957C4.61322 3.46275 0 9.69348 0 17.0009Z" fill="#6DA544"/>
</svg>
