<svg width="34" height="34" viewBox="0 0 34 34" fill="none" xmlns="http://www.w3.org/2000/svg">
<path d="M16.9987 33.9984C26.3881 33.9984 34 26.387 34 16.9984C34 14.1445 33.2968 11.458 32.0551 9.09599L16.9807 17.019L24.9043 1.94569C22.5421 0.704171 19.8554 0.000976562 17.0013 0.000976562C7.61194 0.000976562 0 7.61234 0 17.001C0 21.6966 1.90362 25.9466 4.97931 29.022C8.05499 32.0975 12.3053 34.001 17.0013 34.001L16.9987 33.9984Z" fill="#0052B4"/>
<path d="M32.037 9.11417C31.2591 7.63311 30.2467 6.24221 29.0025 4.99812C27.7558 3.75145 26.3673 2.74175 24.8862 1.96387L4.96118 29.0403L32.0396 9.11675L32.037 9.11417Z" fill="#F0F0F0"/>
<path d="M4.95654 29.0405L32.035 9.11703C31.257 7.63597 30.2447 6.24507 29.0005 5.00098L4.95654 29.0431V29.0405Z" fill="#FF9811"/>
<path d="M14.7605 9.96689L12.6843 10.9431L13.792 12.9548L11.5354 12.5246L11.2495 14.8016L9.68074 13.1273L8.10941 14.8016L7.82349 12.5246L5.56953 12.9548L6.67462 10.9431L4.59839 9.96689L6.67462 8.99067L5.56953 6.98163L7.82349 7.41176L8.10941 5.13477L9.68074 6.80901L11.2495 5.13477L11.5354 7.41176L13.792 6.98163L12.6843 8.99067L14.7605 9.96689Z" fill="#F0F0F0"/>
</svg>
