<svg width="34" height="34" viewBox="0 0 34 34" fill="none" xmlns="http://www.w3.org/2000/svg">
<path d="M17 34.001C26.3888 34.001 34 26.3898 34 17.001C34 7.61214 26.3888 0.000976562 17 0.000976562C7.61116 0.000976562 0 7.61214 0 17.001C0 26.3898 7.61116 34.001 17 34.001Z" fill="#F0F0F0"/>
<path d="M33.8531 14.7835C33.3843 11.198 31.7744 7.7337 29.0184 4.98021C26.2649 2.22673 22.8005 0.616872 19.215 0.145508V14.7835H33.8531Z" fill="#0052B4"/>
<path d="M14.7826 0.147461C11.1971 0.616249 7.73269 2.2261 4.9792 4.98216C2.22572 7.73565 0.615895 11.2 0.144531 14.7854H14.7826V0.147461Z" fill="#0052B4"/>
<path d="M0.146484 19.2197C0.615272 22.8052 2.22513 26.2695 4.98119 29.023C7.73467 31.7765 11.1991 33.3864 14.7845 33.8577V19.2197H0.146484Z" fill="#0052B4"/>
<path d="M19.2175 33.8548C22.803 33.386 26.2674 31.7761 29.0209 29.0201C31.7744 26.264 33.3842 22.8023 33.8555 19.2168H19.2175V33.8548Z" fill="#0052B4"/>
<path d="M22.803 10.7879C22.803 10.5612 22.9859 10.3784 23.2125 10.3784H24.0909C25.4792 10.3784 26.6074 9.25018 26.6074 7.86185C26.6074 6.47352 25.4792 5.34533 24.0909 5.34533H23.2563C22.9833 5.14184 22.6201 5.01562 22.2157 5.01562C21.376 5.01562 20.6934 5.56168 20.6934 6.23138C20.6934 6.90107 21.3606 7.43682 22.19 7.44713V7.45228H24.0883C24.3149 7.45228 24.4978 7.63518 24.4978 7.86185C24.4978 8.08852 24.3149 8.27142 24.0883 8.27142H23.2099C21.8216 8.27142 20.6934 9.39954 20.6934 10.7879C20.6934 12.1762 21.8216 13.3044 23.2099 13.3044H26.6048V11.1974H23.2099C22.9833 11.1974 22.8004 11.0145 22.8004 10.7879H22.803Z" fill="#F0F0F0"/>
<path d="M9.49945 10.7879C9.49945 10.5612 9.68232 10.3784 9.90899 10.3784H10.7873C12.1757 10.3784 13.3039 9.25018 13.3039 7.86185C13.3039 6.47352 12.1757 5.34533 10.7873 5.34533H9.95279C9.67976 5.14184 9.31657 5.01562 8.91217 5.01562C8.07248 5.01562 7.38989 5.56168 7.38989 6.23138C7.38989 6.90107 8.05703 7.43682 8.88642 7.44713V7.45228H10.7848C11.0114 7.45228 11.1943 7.63518 11.1943 7.86185C11.1943 8.08852 11.0114 8.27142 10.7848 8.27142H9.90641C8.51808 8.27142 7.38989 9.39954 7.38989 10.7879C7.38989 12.1762 8.51808 13.3044 9.90641 13.3044H13.3013V11.1974H9.90641C9.67975 11.1974 9.49688 11.0145 9.49688 10.7879H9.49945Z" fill="#F0F0F0"/>
<path d="M22.8029 26.4715C22.8029 26.2448 22.9858 26.0619 23.2125 26.0619H24.0908C25.4791 26.0619 26.6073 24.9337 26.6073 23.5454C26.6073 22.157 25.4791 21.0289 24.0908 21.0289H23.2563C22.9832 20.8254 22.62 20.6992 22.2156 20.6992C21.3759 20.6992 20.6934 21.2453 20.6934 21.915C20.6934 22.5847 21.3605 23.1204 22.1899 23.1307V23.1359H24.0882C24.3149 23.1359 24.4978 23.3187 24.4978 23.5454C24.4978 23.772 24.3149 23.9549 24.0882 23.9549H23.2099C21.8215 23.9549 20.6934 25.0831 20.6934 26.4715C20.6934 27.8598 21.8215 28.988 23.2099 28.988H26.6047V26.881H23.2099C22.9832 26.881 22.8003 26.6981 22.8003 26.4715H22.8029Z" fill="#F0F0F0"/>
<path d="M9.49945 26.4715C9.49945 26.2448 9.68232 26.0619 9.90899 26.0619H10.7873C12.1757 26.0619 13.3039 24.9337 13.3039 23.5454C13.3039 22.157 12.1757 21.0289 10.7873 21.0289H9.95279C9.67976 20.8254 9.31657 20.6992 8.91217 20.6992C8.07248 20.6992 7.38989 21.2453 7.38989 21.915C7.38989 22.5847 8.05703 23.1204 8.88642 23.1307V23.1359H10.7848C11.0114 23.1359 11.1943 23.3187 11.1943 23.5454C11.1943 23.772 11.0114 23.9549 10.7848 23.9549H9.90641C8.51808 23.9549 7.38989 25.0831 7.38989 26.4715C7.38989 27.8598 8.51808 28.988 9.90641 28.988H13.3013V26.881H9.90641C9.67975 26.881 9.49688 26.6981 9.49688 26.4715H9.49945Z" fill="#F0F0F0"/>
</svg>
