<svg width="34" height="34" viewBox="0 0 34 34" fill="none" xmlns="http://www.w3.org/2000/svg">
<path d="M2.0658 8.86929L17 10.3478L31.9343 8.86929C29.052 3.58384 23.4446 0.000976562 17 0.000976562C10.5555 0.000976562 4.95064 3.58641 2.0658 8.86929Z" fill="#D80027"/>
<path d="M2.06576 25.1326L17 26.6111L31.9342 25.1326C33.253 22.7166 34 19.9476 34 17.0009L17 15.5225L0 17.0009C0 19.945 0.74955 22.7166 2.06576 25.1326Z" fill="#FFDA44"/>
<path d="M2.06576 8.86914C0.746975 11.2852 0 14.0542 0 17.0008H34C34 14.0567 33.2505 11.2852 31.9342 8.86914H2.06834H2.06576Z" fill="#0052B4"/>
<path d="M17 34.0011C23.4446 34.0011 29.0494 30.4157 31.9343 25.1328H2.06836C4.95063 30.4183 10.5581 34.0011 17.0026 34.0011H17Z" fill="#6DA544"/>
</svg>
