<svg width="34" height="34" viewBox="0 0 34 34" fill="none" xmlns="http://www.w3.org/2000/svg">
<path d="M17 34.001C26.3888 34.001 34 26.3898 34 17.001C34 7.61214 26.3888 0.000976562 17 0.000976562C7.61116 0.000976562 0 7.61214 0 17.001C0 26.3898 7.61116 34.001 17 34.001Z" fill="#496E2D"/>
<path d="M16.9997 19.6408C14.169 19.6408 11.8044 17.6523 11.2249 14.9941C11.1347 15.4037 11.0884 15.8261 11.0884 16.2614C11.0884 19.5275 13.7362 22.1754 17.0023 22.1754C20.2684 22.1754 22.9162 19.5275 22.9162 16.2614C22.9162 15.8261 22.8673 15.4037 22.7797 14.9941C22.2002 17.6497 19.8356 19.6408 17.0049 19.6408H16.9997Z" fill="#FFDA44"/>
<path d="M16.9994 11.8262L17.5506 13.521H19.3305L17.8906 14.5668L18.4392 16.2616L16.9994 15.2159L15.5596 16.2616L16.1082 14.5668L14.6683 13.521H16.4482L16.9994 11.8262Z" fill="#FFDA44"/>
</svg>
