<svg width="34" height="34" viewBox="0 0 34 34" fill="none" xmlns="http://www.w3.org/2000/svg">
<path d="M17 34.001C26.3888 34.001 34 26.3898 34 17.001C34 7.61214 26.3888 0.000976562 17 0.000976562C7.61116 0.000976562 0 7.61214 0 17.001C0 26.3898 7.61116 34.001 17 34.001Z" fill="#338AF3"/>
<path d="M25.8708 18.4795H8.13159V20.6972H25.8708V18.4795Z" fill="#818085"/>
<path d="M11.0862 11.8264L17.0001 12.5657L22.914 11.8264V8.27957L20.5469 9.46186L17.0001 5.91504L13.4533 9.46186L11.0862 8.27957V11.8264Z" fill="#FFDA44"/>
<path d="M9.60751 22.9148H7.39233V18.8477L8.13161 17.7402L7.39233 16.6326V14.0439H9.60751V22.9148Z" fill="#F0F0F0"/>
<path d="M26.6077 22.9148H24.3925V14.0439H26.6077V16.6326L25.8684 17.7582L26.6077 18.8477V22.9148Z" fill="#F0F0F0"/>
<path d="M26.6101 16.6328H7.39233V18.8505H26.6101V16.6328Z" fill="#ACABB1"/>
<path d="M17.0001 25.8689C13.7392 25.8689 11.0862 23.2158 11.0862 19.9549V11.8232H22.9115V19.9549C22.9115 23.2158 20.2584 25.8689 16.9975 25.8689H17.0001Z" fill="#F0F0F0"/>
<path d="M17.0002 23.6541C14.9628 23.6541 13.304 21.9953 13.304 19.9579V14.0439H20.6964V19.9579C20.6964 21.9953 19.0376 23.6541 17.0002 23.6541Z" fill="#0052B4"/>
<path d="M13.3036 11.8252H11.0859V14.043H13.3036V11.8252Z" fill="#D80027"/>
<path d="M22.9135 11.8252H20.6958V14.043H22.9135V11.8252Z" fill="#D80027"/>
<path d="M22.9135 16.6318H20.6958V18.8495H22.9135V16.6318Z" fill="#D80027"/>
<path d="M13.3034 16.6318H11.0857V18.8495H13.3034V16.6318Z" fill="#D80027"/>
<path d="M18.11 11.8252H15.8923V14.043H18.11V11.8252Z" fill="#D80027"/>
<path d="M16.9999 23.6534C16.6136 23.6534 16.2426 23.5942 15.8923 23.4834V25.7655C16.2529 25.8351 16.6213 25.8711 16.9999 25.8711C17.3786 25.8711 17.7495 25.8351 18.1075 25.7655V23.4834C17.7572 23.5942 17.3863 23.6534 16.9999 23.6534Z" fill="#D80027"/>
<path d="M13.3523 20.5576L11.5828 22.3271C11.8893 23.0252 12.3272 23.6536 12.8655 24.1817L14.4316 22.6156C13.8726 22.0747 13.4837 21.3613 13.3523 20.5602V20.5576Z" fill="#D80027"/>
<path d="M22.4164 22.3271L20.6469 20.5576C20.5155 21.3587 20.1266 22.0722 19.5676 22.6131L21.1337 24.1791C21.672 23.6537 22.1099 23.0252 22.4164 22.3246V22.3271Z" fill="#D80027"/>
</svg>
