<svg width="34" height="34" viewBox="0 0 34 34" fill="none" xmlns="http://www.w3.org/2000/svg">
<path d="M16.9999 34.001C26.3887 34.001 33.9998 26.3898 33.9998 17.001C33.9998 7.61214 26.3887 0.000976562 16.9999 0.000976562C7.6111 0.000976562 0 7.61214 0 17.001C0 26.3898 7.6111 34.001 16.9999 34.001Z" fill="#F0F0F0"/>
<path d="M34.0001 17.0013C34.0001 10.2606 30.0772 4.43681 24.3926 1.68848V32.3142C30.0798 29.5633 34.0001 23.7421 34.0001 17.0013Z" fill="#D80027"/>
<path d="M0 17.0013C0 23.7421 3.92286 29.5659 9.60752 32.3142V1.68848C3.92029 4.43939 0 10.2606 0 17.0013Z" fill="#6DA544"/>
<path d="M12.5642 17.0019C12.5642 19.4515 14.5501 21.4374 16.9996 21.4374C19.4492 21.4374 21.435 19.4515 21.435 17.0019V15.5234H12.5668V17.0019H12.5642Z" fill="#6DA544"/>
<path d="M22.914 14.0439H18.4785C18.4785 13.2274 17.8166 12.5654 17.0001 12.5654C16.1836 12.5654 15.5216 13.2274 15.5216 14.0439H11.0862C11.0862 14.8604 11.7971 15.5224 12.6136 15.5224H12.5647C12.5647 16.3389 13.2266 17.0009 14.0431 17.0009C14.0431 17.8174 14.7051 18.4794 15.5216 18.4794H18.4785C19.295 18.4794 19.957 17.8174 19.957 17.0009C20.7735 17.0009 21.4355 16.3389 21.4355 15.5224H21.3866C22.2031 15.5224 22.914 14.8604 22.914 14.0439Z" fill="#FF9811"/>
</svg>
