<svg width="34" height="34" viewBox="0 0 34 34" fill="none" xmlns="http://www.w3.org/2000/svg">
<path d="M17 34.001C26.3888 34.001 34 26.3898 34 17.001C34 7.61214 26.3888 0.000976562 17 0.000976562C7.61116 0.000976562 0 7.61214 0 17.001C0 26.3898 7.61116 34.001 17 34.001Z" fill="#338AF3"/>
<path d="M17.0001 7.39258L17.7342 9.64894H20.1091L18.1876 11.045L18.9216 13.3039L17.0001 11.9079L15.0786 13.3039L15.8126 11.045L13.8911 9.64894H16.266L17.0001 7.39258Z" fill="#F0F0F0"/>
<path d="M7.39233 17.0006L9.6487 16.2664V13.8916L11.0447 15.8131L13.3037 15.0791L11.9076 17.0006L13.3037 18.9221L11.0447 18.188L9.6487 20.1095V17.7347L7.39233 17.0006Z" fill="#F0F0F0"/>
<path d="M17.0001 26.6086L16.266 24.3523H13.8911L15.8126 22.9562L15.0786 20.6973L17.0001 22.0933L18.9216 20.6973L18.1875 22.9562L20.109 24.3523H17.7342L17.0001 26.6086Z" fill="#F0F0F0"/>
<path d="M26.6076 17.0006L24.3513 17.7347V20.1095L22.9552 18.188L20.6963 18.9221L22.0923 17.0006L20.6963 15.0791L22.9552 15.8131L24.3513 13.8916V16.2664L26.6076 17.0006Z" fill="#F0F0F0"/>
</svg>
