<svg width="34" height="34" viewBox="0 0 34 34" fill="none" xmlns="http://www.w3.org/2000/svg">
<path d="M24.3922 1.68805C22.1565 0.606229 19.6502 0.000976562 16.9998 0.000976562C14.3493 0.000976562 11.8431 0.606229 9.60736 1.68805L8.12888 17.001L9.60736 32.3139C11.8431 33.3957 14.3493 34.001 16.9998 34.001C19.6502 34.001 22.1565 33.3957 24.3922 32.3139L25.8707 17.001L24.3922 1.68805Z" fill="#FFDA44"/>
<path d="M9.60758 1.68848C3.9203 4.43939 0 10.2606 0 17.0014C0 23.7422 3.92288 29.5634 9.60758 32.3143V1.68848Z" fill="#0052B4"/>
<path d="M24.3923 1.68848V32.3143C30.0796 29.5634 33.9999 23.7422 33.9999 17.0014C33.9999 10.2606 30.077 4.43939 24.3923 1.68848Z" fill="#D80027"/>
<path d="M22.9136 13.3772H18.849C18.849 12.3572 18.0222 11.5303 17.0022 11.5303C15.9822 11.5303 15.1554 12.3572 15.1554 13.3772H11.0908C11.0908 14.3817 11.9666 15.1957 12.9711 15.1957H12.9093C12.9093 16.2002 13.7232 17.0141 14.7278 17.0141C14.7278 17.9027 15.3666 18.6421 16.2114 18.8018L14.7767 22.0394C15.4645 22.3176 16.214 22.4747 17.0022 22.4747C17.7904 22.4747 18.5399 22.3202 19.2276 22.0394L17.7929 18.8018C18.6378 18.6446 19.2766 17.9053 19.2766 17.0141C20.2811 17.0141 21.0951 16.2002 21.0951 15.1957H21.0332C22.0378 15.1957 22.9136 14.3817 22.9136 13.3772Z" fill="#FF9811"/>
<path d="M16.9996 15.8936L14.5964 17.0011V19.2188L16.9996 20.6973L19.4028 19.2188V17.0011L16.9996 15.8936Z" fill="#0052B4"/>
<path d="M19.4002 14.7842H14.5964V17.0019H19.4002V14.7842Z" fill="#D80027"/>
</svg>
