<svg width="34" height="34" viewBox="0 0 34 34" fill="none" xmlns="http://www.w3.org/2000/svg">
<path d="M16.9998 34.001C19.0784 34.001 21.0721 33.6275 22.9138 32.9424L23.653 17.001L22.9138 1.05958C21.0721 0.377002 19.081 0.000976562 16.9998 0.000976562C14.9186 0.000976562 12.9275 0.374426 11.0858 1.05958L10.3466 17.001L11.0858 32.9424C12.9275 33.625 14.9186 34.001 16.9998 34.001Z" fill="#0052B4"/>
<path d="M0 17.0006C0 24.3106 4.61321 30.5413 11.0861 32.942V1.05664C4.61321 3.45982 0 9.69061 0 16.998V17.0006Z" fill="#A2001D"/>
<path d="M22.9141 1.05957V32.9449C29.387 30.5417 34.0002 24.311 34.0002 17.001C34.0002 9.69097 29.387 3.46018 22.9141 1.05957Z" fill="#A2001D"/>
<path d="M9.61008 17.001H8.13159V22.9149H9.61008V17.001Z" fill="#FFDA44"/>
<path d="M3.69602 17.001H2.21753V22.9149H3.69602V17.001Z" fill="#FFDA44"/>
<path d="M5.91357 20.6972C6.73012 20.6972 7.39206 20.0352 7.39206 19.2187C7.39206 18.4021 6.73012 17.7402 5.91357 17.7402C5.09702 17.7402 4.43506 18.4021 4.43506 19.2187C4.43506 20.0352 5.09702 20.6972 5.91357 20.6972Z" fill="#FFDA44"/>
<path d="M5.91405 14.7832C6.32233 14.7832 6.6533 14.4522 6.6533 14.044C6.6533 13.6357 6.32233 13.3047 5.91405 13.3047C5.50578 13.3047 5.1748 13.6357 5.1748 14.044C5.1748 14.4522 5.50578 14.7832 5.91405 14.7832Z" fill="#FFDA44"/>
<path d="M7.39206 21.4365H4.43506V22.9149H7.39206V21.4365Z" fill="#FFDA44"/>
<path d="M7.39206 15.5234H4.43506V17.002H7.39206V15.5234Z" fill="#FFDA44"/>
<path d="M5.91362 8.87012L6.43649 10.4825H8.13135L6.76104 11.4767L7.28393 13.0892L5.91362 12.0923L4.5433 13.0892L5.06618 11.4767L3.69586 10.4825H5.38815L5.91362 8.87012Z" fill="#FFDA44"/>
</svg>
