<svg width="34" height="34" viewBox="0 0 34 34" fill="none" xmlns="http://www.w3.org/2000/svg">
<path d="M17.0002 34.001C26.389 34.001 34.0002 26.3898 34.0002 17.001C34.0002 7.61214 26.389 0.000976562 17.0002 0.000976562C7.61134 0.000976562 0.000183105 7.61214 0.000183105 17.001C0.000183105 26.3898 7.61134 34.001 17.0002 34.001Z" fill="#FFDA44"/>
<path d="M34 17.001C34 11.167 31.061 6.01801 26.5818 2.95801H7.41819C2.93895 6.02058 0 11.167 0 17.001C0 22.8351 2.93895 27.9841 7.41819 31.0441H26.5818C31.061 27.9815 34 22.8351 34 17.001Z" fill="#A2001D"/>
<path d="M13.304 12.5657H20.6964V9.60872L19.2179 10.348L17.0002 8.13281L14.7824 10.348L13.304 9.60872V12.5657Z" fill="#FFDA44"/>
<path d="M23.6534 17.0004H19.9597C20.104 16.7506 20.189 16.4596 20.189 16.1505C20.189 15.2078 19.424 14.4453 18.4838 14.4453C17.8322 14.4453 17.2681 14.8111 16.9796 15.3468C16.6911 14.8111 16.127 14.4453 15.4753 14.4453C14.5326 14.4453 13.7702 15.2078 13.7702 16.1505C13.7702 16.4596 13.8552 16.7506 13.9994 17.0004H10.3496C10.3496 18.1312 11.3335 19.0482 12.4643 19.0482H12.3973C12.3973 19.9755 13.0129 20.7584 13.8604 21.0109L12.199 22.6723L13.7676 24.2409L15.9905 22.018C16.0781 22.0489 16.1682 22.0747 16.261 22.0927L14.9164 25.1269C15.5604 25.3896 16.2635 25.5339 17.0028 25.5339C17.742 25.5339 18.4452 25.3896 19.0891 25.1269L17.7446 22.0927C17.8373 22.0747 17.9275 22.0489 18.015 22.018L20.2379 24.2409L21.8066 22.6723L20.1452 21.0109C20.99 20.7584 21.6082 19.9755 21.6082 19.0482H21.5413C22.672 19.0482 23.656 18.1312 23.656 17.0004H23.6534Z" fill="#FFDA44"/>
<path d="M17.0001 18.1094L14.5969 19.2195V21.4374L17.0001 22.9158L19.4033 21.4374V19.2195L17.0001 18.1094Z" fill="#6DA544"/>
<path d="M19.4007 17.001H14.5969V19.9579H19.4007V17.001Z" fill="#0052B4"/>
</svg>
