<svg width="34" height="34" viewBox="0 0 34 34" fill="none" xmlns="http://www.w3.org/2000/svg">
<path d="M34 17.001C34 26.3896 26.3886 34.001 17 34.001C7.61136 34.001 0 26.3896 0 17.001C0 17.0061 17 0.00355232 17 0.000976562C26.3886 0.000976562 34 7.61234 34 17.001Z" fill="#0052B4"/>
<path d="M16.9534 17.0017H16.9999V16.9551C16.9844 16.9706 16.9689 16.9862 16.9534 17.0017Z" fill="#F0F0F0"/>
<path d="M17 8.86936V0.000976562H16.9974C7.60879 0.000976562 0 7.61234 0 17.001H8.86835V12.0065L13.8627 17.001H16.9536L17 16.9546V13.8637L12.0056 8.86936H17Z" fill="#F0F0F0"/>
<path d="M8.60002 2.21875C5.94184 3.7333 3.73183 5.94337 2.21729 8.60155V17.0011H6.65273V6.65426H16.9996V2.21875H8.60002Z" fill="#D80027"/>
<path d="M16.9998 14.9102L10.9597 8.87012H8.86816L16.9972 16.9992V14.9077L16.9998 14.9102Z" fill="#D80027"/>
<path d="M19.2173 8.87012V16.9992C19.2173 20.9607 24.392 22.1739 24.392 22.1739C24.392 22.1739 29.5667 20.9607 29.5667 16.9992V8.87012H19.2199H19.2173Z" fill="#338AF3"/>
<path d="M19.2173 17.001C19.2173 20.9625 24.392 22.1756 24.392 22.1756C24.392 22.1756 29.5667 20.9625 29.5667 17.001H19.2199H19.2173Z" fill="#A2001D"/>
<path d="M26.6075 12.5653H25.129V11.0869H23.653V12.5653H22.1746V14.0439H23.653V18.4794H25.129V14.0439H26.6075V12.5653Z" fill="black"/>
</svg>
