<svg width="34" height="34" viewBox="0 0 34 34" fill="none" xmlns="http://www.w3.org/2000/svg">
<path d="M17 34.001C26.3888 34.001 34 26.3898 34 17.001C34 7.61214 26.3888 0.000976562 17 0.000976562C7.61116 0.000976562 0 7.61214 0 17.001C0 26.3898 7.61116 34.001 17 34.001Z" fill="#D80027"/>
<path d="M27.045 13.9521H19.3693L16.997 6.65234L14.6247 13.9521H6.94897L13.1591 18.4622L10.7869 25.7619L16.997 21.2518L23.2072 25.7619L20.8349 18.4622L27.045 13.9521ZM14.9003 17.9008L15.7014 15.4332H18.2978L19.0988 17.9008L16.9996 19.4256L14.9003 17.9008ZM17.8161 13.9521H16.1805L16.997 11.4356L17.8135 13.9521H17.8161ZM20.3558 16.9863L19.8509 15.4305H22.4962L20.3558 16.9863ZM14.1482 15.4305L13.6434 16.9863L11.5029 15.4305H14.1482ZM13.6022 21.8932L14.4187 19.3767L15.74 20.3374L13.5996 21.8932H13.6022ZM18.2566 20.34L19.5779 19.3792L20.3944 21.8957L18.254 20.34H18.2566Z" fill="#FFDA44"/>
</svg>
