<svg width="34" height="34" viewBox="0 0 34 34" fill="none" xmlns="http://www.w3.org/2000/svg">
<path d="M17 34.0007C26.3888 34.0007 34 26.3896 34 17.0008C34 7.61207 26.3888 0.000976562 17 0.000976562C7.61116 0.000976562 0 7.61207 0 17.0008C0 26.3896 7.61116 34.0007 17 34.0007Z" fill="#F0F0F0"/>
<path d="M9.18751 23.6543L4.97876 29.0221C8.05421 32.0975 12.3042 34.001 16.9998 34.001C24.0265 34.001 30.0589 29.7356 32.6475 23.6543H9.19009H9.18751Z" fill="#FFDA44"/>
<path d="M32.6732 10.4096C30.0975 4.29477 24.0522 0.000976562 16.9997 0.000976562C12.3041 0.000976562 8.05673 1.90447 4.9787 4.97989L9.23643 10.4096H32.6732Z" fill="#496E2D"/>
<path d="M3.69569 12.5046V21.4347H33.4148C33.796 20.0206 33.9995 18.5344 33.9995 16.9993C33.9995 15.4642 33.7908 13.9341 33.3967 12.502H3.69312L3.69569 12.5046Z" fill="black"/>
<path d="M4.97903 4.98047C-1.6587 11.6181 -1.6587 22.3821 4.97903 29.0223C7.72221 26.2792 10.3598 23.6417 17.0001 17.0014L4.97903 4.98047Z" fill="#A2001D"/>
<path d="M6.87986 12.5654L7.98229 15.9551H11.5446L8.66226 18.0467L9.76212 21.4364L6.87986 19.3422L3.9976 21.4364L5.10003 18.0467L2.21777 15.9551H5.78L6.87986 12.5654Z" fill="#FFDA44"/>
<path d="M10.1019 17.001H3.65991V19.9579H10.1019V17.001Z" fill="#F0F0F0"/>
<path d="M11.323 13.6112L10.2772 12.5654L6.87981 15.9629L3.48498 12.5654L2.43921 13.6112L5.8392 17.0061L2.43921 20.4034L3.48498 21.4364L6.87981 18.044L10.2772 21.4364L11.323 20.4034L7.92301 17.0061L11.323 13.6112Z" fill="black"/>
</svg>
