<svg width="34" height="34" viewBox="0 0 34 34" fill="none" xmlns="http://www.w3.org/2000/svg">
<path d="M32.9413 22.9146C33.6239 21.073 34 19.0819 34 17.0008C34 14.9196 33.6265 12.9286 32.9413 11.0869L17 9.6084L1.05866 11.0869C0.376088 12.9286 0 14.9196 0 17.0008C0 19.0819 0.373512 21.073 1.05866 22.9146L17 24.3931L32.9413 22.9146Z" fill="#6DA544"/>
<path d="M32.9413 11.0869C30.5381 4.6141 24.3074 0.000976562 16.9999 0.000976562C9.6925 0.000976562 3.4592 4.6141 1.05859 11.0869H32.9438H32.9413Z" fill="#FFDA44"/>
<path d="M17.0001 34.0009C24.3101 34.0009 30.5408 29.3878 32.9414 22.915H1.05615C3.45933 29.3878 9.69006 34.0009 16.9975 34.0009H17.0001Z" fill="#D80027"/>
<path d="M28.6578 14.384H19.7534L17.0025 5.91504L14.2516 14.384H5.34717L12.5516 19.6179L9.80066 28.0868L17.0051 22.9123L24.2094 28.0868L21.4585 19.6179L28.6629 14.384H28.6578Z" fill="#F0F0F0"/>
</svg>
