<svg width="34" height="34" viewBox="0 0 34 34" fill="none" xmlns="http://www.w3.org/2000/svg">
<path d="M17 34.001C26.3888 34.001 34 26.3898 34 17.001C34 7.61214 26.3888 0.000976562 17 0.000976562C7.61116 0.000976562 0 7.61214 0 17.001C0 26.3898 7.61116 34.001 17 34.001Z" fill="#F0F0F0"/>
<path d="M4.97899 29.022C5.69247 29.7355 6.45228 30.3718 7.25076 30.9307L30.9297 7.25174C30.3708 6.45325 29.7346 5.69345 29.0211 4.97997C28.3076 4.26648 27.5478 3.63023 26.7493 3.07129L3.07031 26.7503C3.62925 27.5488 4.2655 28.3086 4.97899 29.022Z" fill="#A2001D"/>
<path d="M4.97927 4.98049C-0.383458 10.3432 -1.41376 18.3975 1.88836 24.7957L24.7946 1.88958C18.3964 -1.41254 10.342 -0.382238 4.97927 4.98049Z" fill="#0052B4"/>
<path d="M29.0213 29.0223C34.3841 23.6595 35.4144 15.6052 32.1123 9.20703L9.20605 32.1132C15.6042 35.4153 23.6586 34.385 29.0213 29.0223Z" fill="#496E2D"/>
<path d="M14.0432 9.60865L12.1397 10.505L13.152 12.3519L11.0837 11.9553L10.8235 14.0442L9.38108 12.509L7.94127 14.0442L7.67854 11.9553L5.6102 12.3519L6.62503 10.505L4.71899 9.60865L6.62503 8.71493L5.6102 6.86813L7.67854 7.26481L7.94127 5.17578L9.38108 6.71092L10.8235 5.17578L11.0837 7.26481L13.152 6.86813L12.1397 8.71493L14.0432 9.60865Z" fill="#FFDA44"/>
</svg>
