<svg width="34" height="34" viewBox="0 0 34 34" fill="none" xmlns="http://www.w3.org/2000/svg">
<path d="M17 34.001C26.3888 34.001 34 26.3898 34 17.001C34 7.61214 26.3888 0.000976562 17 0.000976562C7.61116 0.000976562 0 7.61214 0 17.001C0 26.3898 7.61116 34.001 17 34.001Z" fill="#0052B4"/>
<path d="M24.2947 18.186C24.3565 17.7996 24.39 17.4029 24.39 17.0011C24.39 17.4055 24.3565 17.7996 24.2947 18.186L27.3469 17.0011L24.2947 15.8162L22.6179 15.1646L19.8953 14.1059L18.8366 11.3834C20.6216 11.968 22.0332 13.3796 22.6179 15.1646L24.2947 15.8162C23.7873 12.6893 21.312 10.214 18.185 9.70659L17.0001 6.6543L15.8152 9.70659C12.6883 10.214 10.213 12.6893 9.70556 15.8162L6.65332 17.0011L9.70556 18.186C10.213 21.3129 12.6883 23.7882 15.8152 24.2956L17.0001 27.3479L18.185 24.2956C21.312 23.7882 23.7873 21.3129 24.2947 18.186ZM18.7542 15.247L17.0001 17.0011H23.267L18.7542 18.7552L17.0001 17.0011V23.2679L15.246 18.7552L17.0001 17.0011H10.7333L15.246 15.247L17.0001 17.0011V10.7343L18.7542 15.247ZM15.1636 11.3808L14.105 14.1034L11.3824 15.162C11.9671 13.377 13.3786 11.9655 15.1636 11.3808ZM11.3798 18.8376L14.1024 19.8963L15.1611 22.6188C13.3761 22.0341 11.9645 20.6226 11.3798 18.8376ZM18.8366 22.6214L19.8953 19.8988L22.6179 18.8402C22.0332 20.6252 20.6216 22.0367 18.8366 22.6214Z" fill="#F0F0F0"/>
<path d="M23.2668 17H17L18.7541 18.7541L23.2668 17Z" fill="#0052B4"/>
<path d="M10.7332 17.0012H17L15.2459 15.2471L10.7332 17.0012Z" fill="#0052B4"/>
<path d="M17 23.2668V17L15.2458 18.7541L17 23.2668Z" fill="#0052B4"/>
<path d="M17 17.0012L18.7541 15.2471L17 10.7344V17.0012Z" fill="#0052B4"/>
<path d="M17.7393 2.21875H16.2608V5.17571H17.7393V2.21875Z" fill="#F0F0F0"/>
<path d="M5.17474 16.2617H2.21777V17.7403H5.17474V16.2617Z" fill="#F0F0F0"/>
<path d="M17.7393 28.8262H16.2607V31.7831H17.7393V28.8262Z" fill="#F0F0F0"/>
<path d="M31.7824 16.2617H28.8254V17.7403H31.7824V16.2617Z" fill="#F0F0F0"/>
</svg>
