<svg width="34" height="34" viewBox="0 0 34 34" fill="none" xmlns="http://www.w3.org/2000/svg">
<path d="M17 34.001C26.3888 34.001 34 26.3898 34 17.001C34 7.61214 26.3888 0.000976562 17 0.000976562C7.61116 0.000976562 0 7.61214 0 17.001C0 26.3898 7.61116 34.001 17 34.001Z" fill="#0052B4"/>
<path d="M17 34.001C26.3888 34.001 34 26.3898 34 17.001C34 7.61214 26.3888 0.000976562 17 0.000976562C7.61116 0.000976562 0 7.61214 0 17.001C0 26.3898 7.61116 34.001 17 34.001Z" fill="#FFDA44"/>
<path d="M16.9996 0.000976562C8.10809 0.000976562 0.813541 6.82667 0.0639954 15.5224H33.9352C33.1857 6.82667 25.8911 0.000976562 16.9996 0.000976562Z" fill="#0052B4"/>
<path d="M16.9998 34.0009C25.8914 34.0009 33.1859 27.1753 33.9355 18.4795H0.0642395C0.813785 27.1753 8.10833 34.0009 16.9998 34.0009Z" fill="#0052B4"/>
<path d="M14.0428 22.9149L12.1393 23.8112L13.1515 25.6555L11.0832 25.2588L10.8231 27.3477L9.38063 25.8126L7.94078 27.3477L7.67805 25.2588L5.60972 25.6555L6.62457 23.8112L4.71851 22.9149L6.62457 22.0185L5.60972 20.1742L7.67805 20.5684L7.94078 18.4795L9.38063 20.0171L10.8231 18.4795L11.0832 20.5684L13.1515 20.1742L12.1393 22.0185L14.0428 22.9149Z" fill="#F0F0F0"/>
</svg>
