<svg width="34" height="34" viewBox="0 0 34 34" fill="none" xmlns="http://www.w3.org/2000/svg">
<path d="M17 34.001C26.3888 34.001 34 26.3898 34 17.001C34 7.61214 26.3888 0.000976562 17 0.000976562C7.61116 0.000976562 0 7.61214 0 17.001C0 26.3898 7.61116 34.001 17 34.001Z" fill="#F0F0F0"/>
<path d="M33.8995 18.8472L15.2562 0.0878906C14.4139 0.172891 13.5923 0.319694 12.7912 0.523179C5.43743 2.39575 0 16.9978 0 16.9978C0 16.9978 23.8 32.9237 26.5148 31.0872C27.0583 30.7188 27.5786 30.3222 28.0758 29.8946L17.0258 18.8446H33.8995V18.8472Z" fill="#0052B4"/>
<path d="M29.5646 17.0006L13.0308 0.466797C5.55591 2.25437 0 8.97709 0 17.0006C0 26.3892 7.61136 34.0006 17 34.0006C20.5623 34.0006 23.867 32.9059 26.5973 31.0333L12.5645 17.0006H29.5646Z" fill="#D80027"/>
<path d="M16.1682 25.1017L14.0921 24.1255L15.1971 22.1138L12.9433 22.5465L12.6574 20.2695L11.0862 21.9438L9.5176 20.2695L9.23168 22.5465L6.97789 22.1138L8.0829 24.1255L6.00684 25.1017L8.0829 26.0779L6.97789 28.0895L9.23168 27.6568L9.5176 29.9364L11.0862 28.2595L12.6574 29.9364L12.9433 27.6568L15.1971 28.0895L14.0921 26.0779L16.1682 25.1017Z" fill="#F0F0F0"/>
<path d="M14.7825 9.42841L13.2731 8.72007L14.0767 7.257L12.4359 7.5713L12.2299 5.91504L11.0862 7.13337L9.94518 5.91504L9.73654 7.5713L8.09836 7.257L8.902 8.72007L7.39261 9.42841L11.0862 10.1677L14.7825 9.42841Z" fill="#F0F0F0"/>
<path d="M15.5217 9.42773C15.5217 11.8773 13.5358 13.8631 11.0862 13.8631C8.6367 13.8631 6.65079 11.8773 6.65079 9.42773" fill="#F0F0F0"/>
</svg>
