<svg width="34" height="34" viewBox="0 0 34 34" fill="none" xmlns="http://www.w3.org/2000/svg">
<path d="M34 17.001C34 26.3896 26.3886 34.001 17 34.001C7.61136 34.001 0 26.3896 0 17.001C0 17.0061 17 0.00355232 17 0.000976562C26.3886 0.000976562 34 7.61234 34 17.001Z" fill="#0052B4"/>
<path d="M16.9536 17.0017H17.0002V16.9551C16.9847 16.9706 16.9691 16.9862 16.9536 17.0017Z" fill="#F0F0F0"/>
<path d="M17 8.86936V0.000976562H16.9974C7.60879 0.000976562 0 7.61234 0 17.001H8.86835V12.0065L13.8627 17.001H16.9536C16.9691 16.9855 16.9845 16.97 17 16.9546V13.8637L12.0056 8.86936H17Z" fill="#F0F0F0"/>
<path d="M8.60075 2.21777C5.94257 3.73232 3.73256 5.94239 2.21802 8.60057V17.0001H6.65346V6.65328H17.0003V2.21777H8.60075Z" fill="#D80027"/>
<path d="M17.0001 14.9092L10.9599 8.86914H8.86841L16.9975 17.0008V14.9092H17.0001Z" fill="#D80027"/>
<path d="M29.441 12.6133L29.8068 13.7439H30.9942L30.0334 14.442L30.4018 15.5702L29.441 14.8722L28.4802 15.5702L28.846 14.442L27.8853 13.7439H29.0727L29.441 12.6133Z" fill="#D80027"/>
<path d="M25.1963 20.7451L25.7449 22.44H27.5273L26.0849 23.4858L26.6361 25.1805L25.1963 24.1322L23.7539 25.1805L24.3051 23.4858L22.8652 22.44H24.6451L25.1963 20.7451Z" fill="#D80027"/>
<path d="M25.3557 7.44141L25.8142 8.85292H27.2978L26.0975 9.72349L26.556 11.135L25.3557 10.2644L24.1554 11.135L24.6139 9.72349L23.4136 8.85292H24.8972L25.3557 7.44141Z" fill="#D80027"/>
<path d="M21.2705 12.5645L21.8217 14.2593H23.6016L22.1617 15.3051L22.7129 17L21.2705 15.9542L19.8307 17L20.3819 15.3051L18.9395 14.2593H20.7219L21.2705 12.5645Z" fill="#D80027"/>
</svg>
