<svg width="34" height="34" viewBox="0 0 34 34" fill="none" xmlns="http://www.w3.org/2000/svg">
<path d="M17 34.001C26.3888 34.001 34 26.3898 34 17.001C34 7.61214 26.3888 0.000976562 17 0.000976562C7.61116 0.000976562 0 7.61214 0 17.001C0 26.3898 7.61116 34.001 17 34.001Z" fill="#F0F0F0"/>
<path d="M16.9999 0.000976562C10.2591 0.000976562 4.43534 3.92381 1.68701 9.6085H32.3127C29.5618 3.92123 23.7406 0.000976562 16.9999 0.000976562Z" fill="#338AF3"/>
<path d="M16.9995 34.0011C23.7402 34.0011 29.564 30.0783 32.3123 24.3936H1.68658C4.43749 30.0808 10.2587 34.0011 16.9995 34.0011Z" fill="#338AF3"/>
<path d="M16.9999 11.8252C14.1434 11.8252 11.8252 14.1408 11.8252 16.9999C11.8252 19.8589 14.1408 22.1745 16.9999 22.1745C19.859 22.1745 22.1746 19.8589 22.1746 16.9999C22.1746 14.1408 19.859 11.8252 16.9999 11.8252ZM16.9999 19.9568C15.3669 19.9568 14.0429 18.6329 14.0429 16.9999C14.0429 15.3668 15.3669 14.0429 16.9999 14.0429C18.6329 14.0429 19.9568 15.3668 19.9568 16.9999C19.9568 18.6329 18.6329 19.9568 16.9999 19.9568Z" fill="#FFDA44"/>
<path d="M19.5601 17.7402L16.9998 17.001L14.4395 17.7402L13.5869 19.2187H20.4127L19.5601 17.7402Z" fill="#0052B4"/>
<path d="M17 13.3047L15.2922 16.2617L17 17.0009L18.7077 16.2617L17 13.3047Z" fill="#338AF3"/>
<path d="M14.4395 17.7403H19.56L18.7075 16.2617H15.292L14.4395 17.7403Z" fill="#6DA544"/>
</svg>
