<svg width="34" height="34" viewBox="0 0 34 34" fill="none" xmlns="http://www.w3.org/2000/svg">
<path d="M1.68713 9.60829C0.605316 11.844 0 14.3503 0 17.0007C0 19.6511 0.605316 22.1574 1.68713 24.3931L17 25.8715L32.3129 24.3931C33.3947 22.1574 34 19.6511 34 17.0007C34 14.3503 33.3947 11.844 32.3129 9.60829L17 8.12988L1.68713 9.60829Z" fill="#F0F0F0"/>
<path d="M1.68726 24.3936C4.43559 30.0808 10.2594 34.001 17.0001 34.001C23.7409 34.001 29.5621 30.0782 32.313 24.3936H1.68726Z" fill="#6DA544"/>
<path d="M1.68726 9.60841H32.313C29.5647 3.92119 23.7409 0.000976562 17.0001 0.000976562C10.2594 0.000976562 4.43816 3.92377 1.68726 9.60841Z" fill="#FF9811"/>
<path d="M16.9996 22.9147C20.2658 22.9147 22.9136 20.2669 22.9136 17.0008C22.9136 13.7346 20.2658 11.0869 16.9996 11.0869C13.7334 11.0869 11.0857 13.7346 11.0857 17.0008C11.0857 20.2669 13.7334 22.9147 16.9996 22.9147Z" fill="#FF9811"/>
</svg>
