<svg width="34" height="34" viewBox="0 0 34 34" fill="none" xmlns="http://www.w3.org/2000/svg">
<path d="M34 17.001C34 26.3896 26.3886 34.001 17 34.001C7.61136 34.001 0 26.3896 0 17.001C0 17.0061 17 0.00355232 17 0.000976562C26.3886 0.000976562 34 7.61234 34 17.001Z" fill="#FFDA44"/>
<path d="M16.9999 8.13281V13.8665L11.0859 8.13281H16.9999Z" fill="#0052B4"/>
<path d="M8.86822 17.0009H13.8652L8.86822 10.3477L8.13159 15.5223L8.86822 17.0009Z" fill="#0052B4"/>
<path d="M16.9534 17.0017H16.9999V16.9551C16.9844 16.9706 16.9689 16.9862 16.9534 17.0017Z" fill="#F0F0F0"/>
<path d="M17 8.86936V0.000976562H16.9974C7.60879 0.000976562 0 7.61234 0 17.001H8.86832V12.0065L13.8627 17.001H16.9537L17 16.9546V13.8637L12.0056 8.86936H17Z" fill="#F0F0F0"/>
<path d="M16.9998 14.9092L10.9597 8.86914H8.86816L16.9973 17.0008V14.9092H16.9998Z" fill="#D80027"/>
<path d="M8.60058 2.21777C7.94634 2.59126 7.31791 3.00598 6.72033 3.46188H7.41835L5.57407 4.80133L6.27731 6.96746L4.43302 5.62814L4.23726 5.76975C3.47226 6.63778 2.7923 7.58572 2.21533 8.60057V17.0001H6.65078V6.65328H16.9976V2.21777H8.598H8.60058Z" fill="#D80027"/>
<path d="M7.26086 3.06641C7.07798 3.19519 6.89772 3.32657 6.71999 3.46308L5.57373 4.80253L4.43526 5.62934L4.23692 5.77359C3.81965 6.24753 3.42812 6.74466 3.06494 7.26497C3.47964 7.46588 3.94329 7.57914 4.43526 7.57914C6.17132 7.57914 7.57767 6.17285 7.57767 4.43679C7.57767 3.94482 7.46435 3.4811 7.26344 3.06641H7.26086Z" fill="#0052B4"/>
<path d="M4.23682 5.7734L4.43515 5.62914L6.27937 6.96846L5.5762 4.80233L7.42048 3.46289H6.72246C5.82095 4.15062 4.98894 4.9234 4.23939 5.7734H4.23682Z" fill="#FFDA44"/>
<path d="M11.7504 2.95801L12.1161 4.08616H13.3035L12.3428 4.78418L12.7112 5.91497L11.7504 5.21695L10.7896 5.91497L11.1554 4.78418L10.1946 4.08616H11.382L11.7504 2.95801Z" fill="#FFDA44"/>
<path d="M4.43516 10.3477L4.8009 11.4784H5.98835L5.0276 12.1765L5.39592 13.3046L4.43516 12.6066L3.47441 13.3046L3.84015 12.1765L2.87939 11.4784H4.06685L4.43516 10.3477Z" fill="#FFDA44"/>
</svg>
