<svg width="34" height="34" viewBox="0 0 34 34" fill="none" xmlns="http://www.w3.org/2000/svg">
<path d="M24.3926 1.68805C22.1569 0.606229 19.6507 0.000976562 17.0002 0.000976562C14.3498 0.000976562 11.8436 0.606229 9.60782 1.68805L8.12933 17.001L9.60782 32.3139C11.8436 33.3957 14.3498 34.001 17.0002 34.001C19.6507 34.001 22.1569 33.3957 24.3926 32.3139L25.8711 17.001L24.3926 1.68805Z" fill="#F0F0F0"/>
<path d="M9.60759 1.68848C3.92032 4.43681 0 10.2606 0 17.0014C0 23.7422 3.92289 29.5634 9.60759 32.3143V1.68848Z" fill="#6DA544"/>
<path d="M24.3923 1.68848V32.3143C30.0795 29.566 33.9999 23.7422 33.9999 17.0014C33.9999 10.2606 30.077 4.43939 24.3923 1.68848Z" fill="#6DA544"/>
<path d="M21.4353 22.1758L16.9999 8.13281L12.5645 22.1758H15.8923V25.8696H18.1075V22.1758H21.4353Z" fill="#6DA544"/>
</svg>
