<svg width="34" height="34" viewBox="0 0 34 34" fill="none" xmlns="http://www.w3.org/2000/svg">
<path d="M17 34.001C26.3888 34.001 34 26.3898 34 17.001C34 7.61214 26.3888 0.000976562 17 0.000976562C7.61116 0.000976562 0 7.61214 0 17.001C0 26.3898 7.61116 34.001 17 34.001Z" fill="#F0F0F0"/>
<path d="M4.11306 5.91504C3.51548 6.60792 2.97457 7.3497 2.49548 8.13273H31.5062C31.0272 7.3497 30.4837 6.60792 29.8887 5.91504H4.11564H4.11306Z" fill="#D80027"/>
<path d="M4.11356 28.0878H29.8866C30.4842 27.3949 31.0251 26.6531 31.5042 25.8701H2.49341C2.9725 26.6531 3.51598 27.3949 4.11098 28.0878H4.11356Z" fill="#D80027"/>
<path d="M14.8231 13.8926L16.2192 15.8141L18.4781 15.0825L17.0821 17.004L18.4756 18.9256L16.2166 18.1889L14.8206 20.1104L14.8231 17.7356L12.5642 16.999L14.8231 16.2674V13.8926Z" fill="#D80027"/>
<path d="M11.0163 21.8056C8.36323 21.8056 6.21248 19.6549 6.21248 17.0018C6.21248 14.3488 8.36323 12.1981 11.0163 12.1981C11.8431 12.1981 12.621 12.4066 13.301 12.775C12.2346 11.7318 10.7767 11.0879 9.16687 11.0879C5.90081 11.0879 3.25293 13.7358 3.25293 17.0018C3.25293 20.2679 5.90081 22.9157 9.16687 22.9157C10.7767 22.9157 12.2346 22.2719 13.301 21.2287C12.621 21.597 11.8431 21.8056 11.0163 21.8056Z" fill="#D80027"/>
</svg>
