<svg width="34" height="34" viewBox="0 0 34 34" fill="none" xmlns="http://www.w3.org/2000/svg">
<path d="M17 34.001C26.3888 34.001 34 26.3898 34 17.001C34 7.61214 26.3888 0.000976562 17 0.000976562C7.61116 0.000976562 0 7.61214 0 17.001C0 26.3898 7.61116 34.001 17 34.001Z" fill="#338AF3"/>
<path d="M16.464 27.7054C16.0055 27.6822 15.6269 27.386 15.4775 26.9816C15.2148 27.3242 14.764 27.4967 14.321 27.3808C13.8754 27.2675 13.5637 26.8992 13.4993 26.4716C13.1722 26.7549 12.6957 26.8296 12.2861 26.6287C11.874 26.4252 11.6422 26.0028 11.668 25.5726C11.2919 25.7838 10.8102 25.7633 10.447 25.4826C10.0839 25.2018 9.94477 24.7407 10.053 24.3235C9.64083 24.4548 9.17462 24.3389 8.87583 23.9912C8.57704 23.6435 8.53068 23.1644 8.72128 22.778C8.29371 22.8244 7.85841 22.6158 7.63432 22.2139C7.41023 21.8121 7.46174 21.333 7.72704 20.993C7.29689 20.9518 6.9131 20.6606 6.77659 20.2228C6.6375 19.7849 6.78689 19.3264 7.11401 19.0457C6.70189 18.9195 6.38507 18.5537 6.33871 18.0978C6.29234 17.6418 6.52932 17.222 6.90538 17.0134C6.52674 16.8073 6.28977 16.3875 6.33356 15.9316C6.37992 15.4757 6.69417 15.11 7.10629 14.9812C6.77659 14.703 6.6272 14.2419 6.76371 13.804C6.90023 13.3661 7.28402 13.0725 7.71417 13.0313C7.44887 12.6913 7.39477 12.2122 7.61886 11.8104C7.84037 11.4086 8.27568 11.2 8.70583 11.2463C8.51265 10.86 8.55902 10.3808 8.85781 10.0305C9.15659 9.6828 9.6228 9.56437 10.0349 9.69573C9.92416 9.27846 10.0633 8.8174 10.4264 8.53664C10.787 8.25588 11.2687 8.23261 11.6448 8.44382C11.6216 8.01367 11.8508 7.58871 12.2629 7.38522C12.6751 7.18174 13.1516 7.25903 13.4787 7.53979C13.5405 7.11222 13.8522 6.74387 14.2978 6.62796C14.7408 6.51205 15.1916 6.68464 15.4543 7.02464C15.6037 6.62025 15.9823 6.3215 16.4408 6.29832C16.8993 6.27514 17.3037 6.53263 17.4943 6.91899C17.721 6.55324 18.1511 6.3343 18.6045 6.40384C19.0578 6.47081 19.4055 6.80571 19.5137 7.22298C19.8099 6.90874 20.2761 6.78256 20.7063 6.94226C21.1364 7.10196 21.4095 7.49858 21.4327 7.93131C21.7855 7.68404 22.2672 7.65316 22.6561 7.89786C23.0451 8.13998 23.2331 8.58296 23.1661 9.01054C23.5628 8.83796 24.0393 8.90746 24.3716 9.22171C24.7039 9.53852 24.7992 10.01 24.6472 10.4144C25.0696 10.3242 25.5229 10.4864 25.7857 10.8625C26.0484 11.2386 26.0458 11.7202 25.8192 12.086C26.2493 12.0834 26.6614 12.3333 26.8443 12.7557C27.0272 13.1781 26.9267 13.6495 26.628 13.9612C27.0504 14.0462 27.4033 14.3732 27.496 14.824C27.5887 15.2722 27.3955 15.7152 27.0426 15.9599C27.4393 16.1274 27.7175 16.5215 27.7201 16.9774V16.9929V17.0031C27.7201 17.4615 27.4419 17.8558 27.0452 18.0232C27.4007 18.2679 27.5939 18.7082 27.5011 19.159C27.4084 19.6072 27.0581 19.937 26.6331 20.0245C26.9319 20.3362 27.0323 20.8075 26.852 21.2299C26.6717 21.6523 26.2596 21.9022 25.8269 21.9022C26.0561 22.2679 26.0587 22.7496 25.7986 23.1256C25.5358 23.5017 25.0825 23.6665 24.6601 23.5764C24.812 23.9808 24.7167 24.4523 24.387 24.7691C24.0548 25.0859 23.5783 25.1555 23.1816 24.9829C23.2486 25.4079 23.0631 25.8534 22.6742 26.0956C22.2852 26.3377 21.8036 26.3094 21.4507 26.0621C21.4301 26.4948 21.1596 26.8915 20.7295 27.0512C20.2993 27.2109 19.8331 27.0872 19.5369 26.773C19.4313 27.1902 19.0836 27.5251 18.6302 27.5946C18.1769 27.6642 17.7467 27.4479 17.5201 27.0821C17.3398 27.453 16.9586 27.7054 16.5233 27.7054C16.5052 27.7054 16.4872 27.7054 16.4666 27.7054H16.464Z" fill="#F3F3F3"/>
<path d="M16.9996 24.3943C21.0823 24.3943 24.392 21.0846 24.392 17.0018C24.392 12.9191 21.0823 9.60938 16.9996 9.60938C12.9169 9.60938 9.60718 12.9191 9.60718 17.0018C9.60718 21.0846 12.9169 24.3943 16.9996 24.3943Z" fill="#338AF3"/>
<path d="M18.6173 14.492C18.9805 14.2215 19.2174 13.7914 19.2174 13.3046V12.5653C19.2174 11.7488 18.5555 11.0869 17.7389 11.0869H16.2605C15.4439 11.0869 14.782 11.7488 14.782 12.5653V13.3046C14.782 13.7914 15.0189 14.2215 15.3821 14.492L14.0427 28.0869C14.0427 28.0869 14.782 28.8262 16.9997 28.8262C19.2174 28.8262 19.9567 28.0869 19.9567 28.0869L18.6173 14.492Z" fill="#BDBCC1"/>
<path d="M16.9998 11.0869L18.2851 15.0407H22.4398L19.0785 17.4825L20.3612 21.4364L16.9998 18.9919L13.6385 21.4364L14.9212 17.4825L11.5598 15.0407H15.7145L16.9998 11.0869Z" fill="#F0F0F0"/>
</svg>
