<svg width="34" height="34" viewBox="0 0 34 34" fill="none" xmlns="http://www.w3.org/2000/svg">
<path d="M17.0011 34.001C26.3892 34.001 33.9998 26.3898 33.9998 17.001C33.9998 7.61214 26.3892 0.000976562 17.0011 0.000976562C7.61296 0.000976562 0.00238037 7.61214 0.00238037 17.001C0.00238037 26.3898 7.61296 34.001 17.0011 34.001Z" fill="#F0F0F0"/>
<path d="M17.001 0.000976562C11.8498 0.000976562 7.23185 2.29339 4.11542 5.91491H29.8865C26.7701 2.29339 22.1521 0.000976562 17.001 0.000976562Z" fill="#0052B4"/>
<path d="M29.8865 28.0869H4.11542C7.23185 31.7084 11.8498 34.0008 17.001 34.0008C22.1521 34.0008 26.7701 31.7084 29.8865 28.0869Z" fill="#0052B4"/>
<path d="M31.5043 8.13281H2.4957C0.91431 10.7163 0 13.7532 0 17.0012C0 20.2492 0.911734 23.2887 2.4957 25.8696H31.5043C33.0857 23.2887 34 20.2492 34 17.0012C34 13.7532 33.0883 10.7137 31.5043 8.13281Z" fill="#D80027"/>
<path d="M10.4592 23.5438C14.0722 23.5438 17.0011 20.6147 17.0011 17.0014C17.0011 13.3881 14.0722 10.459 10.4592 10.459C6.84619 10.459 3.91724 13.3881 3.91724 17.0014C3.91724 20.6147 6.84619 23.5438 10.4592 23.5438Z" fill="#F0F0F0"/>
<path d="M10.4593 10.459L11.9273 14.9769H16.6844L12.8339 17.769L14.3149 22.2997L10.4593 19.4948L6.61134 22.2945L8.08455 17.769L4.23926 14.9769H8.99374L10.4593 10.459Z" fill="#D80027"/>
</svg>
