<svg width="34" height="34" viewBox="0 0 34 34" fill="none" xmlns="http://www.w3.org/2000/svg">
<path d="M17.0011 34.0008C26.3891 34.0008 33.9997 26.3897 33.9997 17.0009C33.9997 7.6121 26.3891 0.000976562 17.0011 0.000976562C7.61296 0.000976562 0.00241089 7.6121 0.00241089 17.0009C0.00241089 26.3897 7.61296 34.0008 17.0011 34.0008Z" fill="#F0F0F0"/>
<path d="M0.587402 21.4365C1.57126 25.0864 3.7373 28.2493 6.65282 30.4902V21.4365H0.587402Z" fill="#D80027"/>
<path d="M15.5227 33.9366C16.0095 33.9778 16.504 34.001 17.0011 34.001C24.8539 34.001 31.4628 28.6744 33.4151 21.4365H15.5227V33.9366Z" fill="#D80027"/>
<path d="M33.415 12.5654C31.4653 5.32756 24.8565 0.000976562 17.001 0.000976562C16.504 0.000976562 16.0095 0.0241583 15.5227 0.0653702V12.5654H33.415Z" fill="#D80027"/>
<path d="M6.65526 3.51465C3.73974 5.75555 1.5737 8.91854 0.589844 12.5684H6.65526V3.51465Z" fill="#D80027"/>
<path d="M33.8556 14.7832H13.3053V0.405273C11.7342 0.752999 10.2455 1.31708 8.8702 2.0692V14.7857H0.14423C0.0489348 15.512 0 16.2512 0 17.0034C0 17.7555 0.0489348 18.4948 0.14423 19.2212H8.8702V31.9377C10.2455 32.6872 11.7342 33.2513 13.3053 33.6016V19.2237H33.8556C33.9509 18.4973 33.9999 17.7581 33.9999 17.006C33.9999 16.2539 33.9509 15.5147 33.8556 14.7883V14.7832Z" fill="#0052B4"/>
</svg>
