<svg width="34" height="34" viewBox="0 0 34 34" fill="none" xmlns="http://www.w3.org/2000/svg">
<path d="M17 34.0009C26.3888 34.0009 33.9999 26.3898 33.9999 17.001C33.9999 7.61213 26.3888 0.000976562 17 0.000976562C7.61123 0.000976562 0.00012207 7.61213 0.00012207 17.001C0.00012207 26.3898 7.61123 34.0009 17 34.0009Z" fill="#F0F0F0"/>
<path d="M0.000274658 17.001C0.000274658 23.4456 3.58572 29.0504 8.86856 31.9353V2.06934C3.58314 4.95161 0.000274658 10.559 0.000274658 17.0036V17.001Z" fill="#D80027"/>
<path d="M32.9436 22.9138C33.6261 21.0721 33.9996 19.0811 33.9996 16.9999C33.9996 14.9187 33.6261 12.9276 32.9436 11.0859H1.05847C0.375901 12.9276 -0.000152588 14.9187 -0.000152588 16.9999C-0.000152588 19.0811 0.373326 21.0721 1.05847 22.9138L16.9997 24.3923L32.9436 22.9138Z" fill="#D80027"/>
<path d="M17.0002 34.0011C24.3101 34.0011 30.5408 29.3879 32.944 22.915H1.05893C3.46209 29.3879 9.69281 34.0011 17.0002 34.0011Z" fill="#6DA544"/>
<path d="M9.15527e-05 17.0007C9.15527e-05 24.8541 5.32673 31.4635 12.5646 33.4159V0.587891C5.32673 2.53774 9.15527e-05 9.14712 9.15527e-05 17.0032V17.0007Z" fill="#D80027"/>
<path d="M10.4011 7.48112L8.83246 5.91504L7.7867 6.95817L6.74097 5.91504L5.1749 7.48112L6.22066 8.52689L5.1749 9.57266L6.74097 11.1413L7.7867 10.0955L8.83246 11.1413L10.4011 9.57266L9.35532 8.52689L10.4011 7.48112Z" fill="#F0F0F0"/>
</svg>
