<svg width="34" height="34" viewBox="0 0 34 34" fill="none" xmlns="http://www.w3.org/2000/svg">
<path d="M33.4151 21.4363C33.7963 20.0222 33.9998 18.536 33.9998 17.0009C33.9998 15.4657 33.7963 13.9795 33.4151 12.5654L15.5227 0.0654297C12.2003 0.351336 9.15335 1.59287 6.65506 3.51437L0.589632 12.568C0.208449 13.9821 0.00497437 15.4682 0.00497437 17.0034C0.00497437 18.5385 0.205868 20.0067 0.584476 21.4131L6.65764 30.49C9.15593 32.4115 12.2054 33.6503 15.5253 33.9388L33.4177 21.4388L33.4151 21.4363Z" fill="#FFDA44"/>
<path d="M0.587463 21.4365C1.57133 25.0863 3.73993 28.2493 6.65289 30.4902V21.4365H0.587463Z" fill="#D80027"/>
<path d="M15.5228 33.9365C16.0095 33.9777 16.5041 34.0009 17.0011 34.0009C24.854 34.0009 31.4629 28.6743 33.4152 21.4365H15.5228V33.9365Z" fill="#D80027"/>
<path d="M33.4151 12.5653C31.4654 5.32753 24.8565 0.000976562 17.0011 0.000976562C16.504 0.000976562 16.0095 0.0241581 15.5227 0.0653698V12.5653H33.4151Z" fill="#D80027"/>
<path d="M6.65509 3.51465C3.73955 5.75553 1.57352 8.91851 0.589661 12.5683H6.65509V3.51465Z" fill="#D80027"/>
<path d="M33.8556 14.7831H13.3052V0.405273C11.7341 0.752997 10.2454 1.31707 8.8701 2.06919V14.7856H0.144094C0.0487982 15.512 -0.000152588 16.2512 -0.000152588 17.0033C-0.000152588 17.7554 0.0487982 18.4947 0.144094 19.2211H8.8701V31.9375C10.2454 32.687 11.7341 33.2511 13.3052 33.6014V19.2236H33.8556C33.9509 18.4972 33.9998 17.758 33.9998 17.0059C33.9998 16.2538 33.9509 15.5146 33.8556 14.7882V14.7831Z" fill="#0052B4"/>
</svg>
