<svg width="34" height="34" viewBox="0 0 34 34" fill="none" xmlns="http://www.w3.org/2000/svg">
<path d="M32.9412 22.9146C33.6238 21.073 33.9999 19.0819 33.9999 17.0008C33.9999 14.9196 33.6264 12.9286 32.9412 11.0869L16.9999 9.6084L1.05851 11.0869C0.375935 12.9286 -0.00012207 14.9196 -0.00012207 17.0008C-0.00012207 19.0819 0.373359 21.073 1.05851 22.9146L16.9999 24.3931L32.9412 22.9146Z" fill="#D80027"/>
<path d="M17 34.0009C24.31 34.0009 30.5407 29.3878 32.9413 22.915H1.05603C3.45921 29.3878 9.68998 34.0009 17 34.0009Z" fill="#FFDA44"/>
<path d="M17 0.000976562C9.68998 0.000976562 3.45921 4.6141 1.05603 11.0869H32.9413C30.5382 4.6141 24.3074 0.000976562 17 0.000976562Z" fill="#F0F0F0"/>
</svg>
