<svg width="34" height="34" viewBox="0 0 34 34" fill="none" xmlns="http://www.w3.org/2000/svg">
<path d="M17.0003 34.0009C26.3889 34.0009 33.9999 26.3897 33.9999 17.0009C33.9999 7.61211 26.3889 0.000976562 17.0003 0.000976562C7.61162 0.000976562 0.000610352 7.61211 0.000610352 17.0009C0.000610352 26.3897 7.61162 34.0009 17.0003 34.0009Z" fill="#F0F0F0"/>
<path d="M-0.00012207 17.001C-0.00012207 23.4455 3.58524 29.0504 8.86802 31.9352V2.06934C3.58267 4.9516 -0.00012207 10.559 -0.00012207 17.0035V17.001Z" fill="#F0F0F0"/>
<path d="M16.9997 0.000976562C14.0557 0.000976562 11.2842 0.750524 8.86816 2.06673V31.9326C11.2842 33.2514 14.0531 34.0009 16.9997 34.0009C26.3881 34.0009 33.9993 26.3895 33.9993 17.0009C33.9993 7.61231 26.3881 0.000976562 16.9997 0.000976562Z" fill="#496E2D"/>
<path d="M24.2683 19.8129C22.1176 21.3661 19.1143 20.8844 17.5612 18.7337C16.008 16.5829 16.4897 13.5796 18.6405 12.0264C19.3101 11.5422 20.0648 11.2563 20.8298 11.1559C19.3539 10.9343 17.7956 11.2666 16.4923 12.2093C13.8445 14.1231 13.2495 17.8194 15.1632 20.4646C17.077 23.1125 20.7731 23.7074 23.4183 21.7936C24.7216 20.8509 25.5279 19.4755 25.7803 18.0074C25.4455 18.7028 24.938 19.3287 24.2658 19.8129H24.2683Z" fill="#F0F0F0"/>
<path d="M24.1758 11.0869L25.3864 12.3928L27.0039 11.6458L26.1359 13.2016L27.3464 14.5075L25.6001 14.1623L24.7321 15.7181L24.5209 13.9485L22.772 13.6059L24.3895 12.8565L24.1758 11.0869Z" fill="#F0F0F0"/>
</svg>
