<svg width="34" height="34" viewBox="0 0 34 34" fill="none" xmlns="http://www.w3.org/2000/svg">
<path d="M16.9999 34.0009C26.3887 34.0009 33.9999 26.3898 33.9999 17.0009C33.9999 7.61212 26.3887 0.000976562 16.9999 0.000976562C7.61104 0.000976562 -0.00012207 7.61212 -0.00012207 17.0009C-0.00012207 26.3898 7.61104 34.0009 16.9999 34.0009Z" fill="#F0F0F0"/>
<path d="M10.3467 11.087H32.9412C30.538 4.61416 24.3073 0.000976562 16.9999 0.000976562C12.3043 0.000976562 8.05685 1.90448 4.97882 4.97993L10.3467 11.087Z" fill="black"/>
<path d="M10.3467 22.915H32.9413C30.5381 29.3879 24.3073 34.0011 16.9999 34.0011C12.3043 34.0011 8.05691 32.0976 4.97888 29.0221L10.3467 22.915Z" fill="#6DA544"/>
<path d="M4.97891 4.98047C-1.65882 11.6182 -1.65882 22.3822 4.97891 29.0225C7.72209 26.2793 10.3596 23.6418 16.9999 17.0015L4.97891 4.98047Z" fill="#D80027"/>
</svg>
