<svg width="34" height="34" viewBox="0 0 34 34" fill="none" xmlns="http://www.w3.org/2000/svg">
<path d="M16.9999 34.0007C26.3887 34.0007 33.9998 26.3896 33.9998 17.0008C33.9998 7.61207 26.3887 0.000976562 16.9999 0.000976562C7.61103 0.000976562 -0.00012207 7.61207 -0.00012207 17.0008C-0.00012207 26.3896 7.61103 34.0007 16.9999 34.0007Z" fill="#F0F0F0"/>
<path d="M-0.00012207 17.001C-0.00012207 26.3895 7.61123 34.0008 16.9999 34.0008V17.001H-0.00012207Z" fill="#0052B4"/>
<path d="M16.9999 0.000976562C26.3885 0.000976562 33.9999 7.61228 33.9999 17.0008H16.9999V0.000976562Z" fill="#D80027"/>
<path d="M10.1204 5.91504L11.2203 9.30211H14.7825L11.9002 11.3963L13.0027 14.7833L10.1204 12.6892L7.23815 14.7833L8.338 11.3963L5.45569 9.30211H9.01798L10.1204 5.91504Z" fill="#0052B4"/>
<path d="M23.8795 19.2188L24.9819 22.6058H28.5442L25.6619 24.7L26.7617 28.0871L23.8795 25.993L20.9972 28.0871L22.0997 24.7L19.2174 22.6058H22.7796L23.8795 19.2188Z" fill="#D80027"/>
</svg>
