<svg width="34" height="34" viewBox="0 0 34 34" fill="none" xmlns="http://www.w3.org/2000/svg">
<path d="M29.0212 29.0222C22.3833 35.6601 11.6189 35.6601 4.97834 29.0222C-1.65961 22.3843 -1.65961 11.6199 4.97834 4.97938C11.6163 -1.65855 21.3375 -0.615317 27.9755 6.02519C34.6134 12.6631 35.6592 22.3843 29.0212 29.0222Z" fill="black"/>
<path d="M4.97833 4.97942C11.6163 -1.65851 22.3807 -1.65851 29.0212 4.97942C35.6592 11.6174 35.6592 22.3817 29.0212 29.0222" fill="#A2001D"/>
<path d="M12.9917 22.915L13.2673 23.7625H14.156L13.4373 24.2853L13.7129 25.1328L12.9917 24.6073L12.2704 25.1328L12.5461 24.2853L11.8248 23.7625H12.7161L12.9917 22.915Z" fill="#F0F0F0"/>
<path d="M10.7173 14.7832L11.1758 16.1948H12.6595L11.4591 17.0679L11.9176 18.4796L10.7173 17.6063L9.51693 18.4796L9.97542 17.0679L8.77509 16.1948H10.2588L10.7173 14.7832Z" fill="#F0F0F0"/>
<path d="M10.7172 25.1328L11.1757 26.5444H12.6594L11.4591 27.4151L11.9176 28.8266L10.7172 27.9559L9.51686 28.8266L9.97536 27.4151L8.77502 26.5444H10.2587L10.7172 25.1328Z" fill="#F0F0F0"/>
<path d="M15.0574 18.4795L15.5159 19.891H16.9996L15.7993 20.7642L16.2578 22.1757L15.0574 21.3026L13.8545 22.1757L14.3156 20.7642L13.1127 19.891H14.5989L15.0574 18.4795Z" fill="#F0F0F0"/>
<path d="M6.37688 18.4795L6.83538 19.891H8.31906L7.11872 20.7642L7.57722 22.1757L6.37688 21.3026L5.17653 22.1757L5.63503 20.7642L4.43469 19.891H5.91838L6.37688 18.4795Z" fill="#F0F0F0"/>
<path d="M28.4595 12.5891C27.6996 11.8292 26.7131 11.381 25.6518 11.3037L28.8279 8.83352C27.5631 7.56878 25.8682 6.99691 24.2145 7.11797C24.0162 6.40704 23.6401 5.73474 23.0786 5.17578L21.8241 7.68471C21.7417 7.53531 21.6387 7.39361 21.5099 7.26739C20.7887 6.54616 19.6192 6.54616 18.8954 7.26739C18.1716 7.98862 18.1742 9.15803 18.8954 9.88184C19.0216 10.0081 19.1633 10.1137 19.3127 10.1961L16.8038 11.4506C17.3628 12.0096 18.0351 12.3881 18.7486 12.5865C18.6275 14.2402 19.1968 15.9351 20.4615 17.1998L23.2357 13.6323C23.4444 13.4262 23.72 13.3129 24.0136 13.3129C24.3073 13.3129 24.588 13.4288 24.7967 13.6374C25.0053 13.8461 25.1212 14.1243 25.1212 14.4205C25.1212 14.7167 25.0053 14.9949 24.7967 15.2036L25.8425 16.2494C26.3319 15.76 26.5998 15.1108 26.5998 14.4205C26.5998 13.8538 26.4194 13.3181 26.0872 12.8725C26.5714 13.0013 27.0299 13.2563 27.4111 13.6349C28.5651 14.7889 28.5651 16.6641 27.4111 17.8155L28.4569 18.8613C29.2941 18.0241 29.7552 16.9087 29.7552 15.7264C29.7552 14.5415 29.2941 13.4288 28.4569 12.5891H28.4595Z" fill="#FFDA44"/>
</svg>
