<svg width="34" height="34" viewBox="0 0 34 34" fill="none" xmlns="http://www.w3.org/2000/svg">
<path d="M16.9999 34.0007C26.3887 34.0007 33.9999 26.3896 33.9999 17.0008C33.9999 7.61207 26.3887 0.000976562 16.9999 0.000976562C7.61104 0.000976562 -0.00012207 7.61207 -0.00012207 17.0008C-0.00012207 26.3896 7.61104 34.0007 16.9999 34.0007Z" fill="#F0F0F0"/>
<path d="M16.9996 0.000976562C10.2588 0.000976562 4.43504 3.92377 1.68671 9.60843H32.3125C29.5616 3.9212 23.7403 0.000976562 16.9996 0.000976562Z" fill="#D80027"/>
<path d="M16.9995 34.001C23.7403 34.001 29.5641 30.0782 32.3124 24.3936H1.68665C4.43755 30.0808 10.2588 34.001 16.9995 34.001Z" fill="#0052B4"/>
<path d="M21.1801 12.0811L19.6115 13.6498C20.2812 14.3195 20.6933 15.2415 20.6933 16.2641C20.6933 18.3041 19.0396 19.9603 16.9971 19.9603C14.9545 19.9603 13.3009 18.3067 13.3009 16.2641C13.3009 15.2441 13.7156 14.3195 14.3827 13.6498L12.814 12.0811C11.7451 13.15 11.0831 14.6285 11.0831 16.2615C11.0831 19.5275 13.731 22.1754 16.9971 22.1754C20.2631 22.1754 22.911 19.5275 22.911 16.2615C22.911 14.6285 22.249 13.15 21.1801 12.0811Z" fill="#6DA544"/>
<path d="M16.9996 14.043L17.5509 15.7378H19.3307L17.8908 16.7836L18.4395 18.4784L16.9996 17.43L15.5598 18.4784L16.1084 16.7836L14.6686 15.7378H16.4484L16.9996 14.043Z" fill="#FFDA44"/>
</svg>
