<svg width="34" height="34" viewBox="0 0 34 34" fill="none" xmlns="http://www.w3.org/2000/svg">
<path d="M17 34.001C26.3888 34.001 34 26.3898 34 17.001C34 7.61214 26.3888 0.000976562 17 0.000976562C7.61116 0.000976562 0 7.61214 0 17.001C0 26.3898 7.61116 34.001 17 34.001Z" fill="#F0F0F0"/>
<path d="M17.0002 0.000976562V17.001L4.97916 29.022C8.05461 32.0975 12.3046 34.001 17.0002 34.001C26.3889 34.001 34.0002 26.3896 34.0002 17.001C34.0002 7.61234 17.0002 0.000976562 17.0002 0.000976562Z" fill="#D80027"/>
<path d="M17.0002 0.000976562C12.3046 0.000976562 8.05461 1.90448 4.97916 4.97994C9.14931 9.15009 10.6304 10.6311 17.0002 17.001H34.0002C34.0002 7.61234 26.3889 0.000976562 17.0002 0.000976562Z" fill="#0052B4"/>
<path d="M11.6401 17.0007L9.56407 16.0245L10.6691 14.0128L8.41529 14.4456L8.12938 12.166L6.56072 13.8429L4.98952 12.166L4.70361 14.4456L2.44983 14.0128L3.55484 16.0245L1.47876 17.0007L3.55484 17.9769L2.44983 19.9886L4.70361 19.5558L4.98952 21.8354L6.56072 20.1585L8.12938 21.8354L8.41529 19.5558L10.6691 19.9886L9.56407 17.9769L11.6401 17.0007Z" fill="#FFDA44"/>
<path d="M4.53344 6.6543L5.22376 7.62021L6.35709 7.25963L5.65131 8.21522L6.34163 9.18113L5.21602 8.8076L4.51027 9.76068L4.52058 8.5758L3.3924 8.19975L4.5257 7.84169L4.53344 6.6543Z" fill="#FFDA44"/>
<path d="M4.53338 24.2412L5.22369 25.2046L6.35703 24.8465L5.65125 25.8021L6.34156 26.768L5.21596 26.392L4.5102 27.3476L4.52052 26.1602L3.39233 25.7867L4.52564 25.4287L4.53338 24.2412Z" fill="#FFDA44"/>
<path d="M14.3881 15.4482L13.6978 16.4142L12.5645 16.0534L13.2702 17.009L12.5799 17.9749L13.7055 17.6015L14.4113 18.5545L14.401 17.3671L15.5292 16.9937L14.3958 16.6356L14.3881 15.4482Z" fill="#FFDA44"/>
</svg>
