<svg width="34" height="34" viewBox="0 0 34 34" fill="none" xmlns="http://www.w3.org/2000/svg">
<path d="M34 17.001C34 26.3896 26.3886 34.001 17 34.001C7.61136 34.001 0 26.3896 0 17.001C0 17.0061 17 0.00355232 17 0.000976562C26.3886 0.000976562 34 7.61234 34 17.001Z" fill="#0052B4"/>
<path d="M16.9534 17.0007H16.9999V16.9541C16.9844 16.9696 16.9689 16.9852 16.9534 17.0007Z" fill="#F0F0F0"/>
<path d="M17 8.86936V0.000976562H16.9974C7.60879 0.000976562 0 7.61234 0 17.001H8.86835V12.0065L13.8627 17.001H16.9536L17 16.9546V13.8637L12.0056 8.86936H17Z" fill="#F0F0F0"/>
<path d="M8.60002 2.21875C5.94184 3.7333 3.73183 5.94337 2.21729 8.60155V17.0011H6.65273V6.65426H16.9996V2.21875H8.60002Z" fill="#D80027"/>
<path d="M16.9998 14.9092L10.9597 8.86914H8.86816L16.9972 16.9982V14.9067L16.9998 14.9092Z" fill="#D80027"/>
<path d="M26.6074 10.3479L24.3923 11.0872L22.1745 10.3479L21.4353 8.50109L22.1745 6.6543H26.6074L25.8682 8.50109L26.6074 10.3479Z" fill="#ACABB1"/>
<path d="M19.2173 10.3477V18.4768C19.2173 22.4383 24.392 23.6514 24.392 23.6514C24.392 23.6514 29.5667 22.4383 29.5667 18.4768V10.3477H19.2199H19.2173Z" fill="#338AF3"/>
<path d="M19.6836 20.4064C20.956 22.8483 24.3921 23.6544 24.3921 23.6544C24.3921 23.6544 27.8281 22.8483 29.1005 20.4064L24.3921 12.5684L19.6836 20.4064Z" fill="#6DA544"/>
<path d="M29.5645 18.3969L24.3898 10.3477L19.2151 18.3969V18.4794C19.2151 19.2135 19.3928 19.8523 19.6813 20.4061L24.3898 13.0831L29.0983 20.4061C29.3868 19.8523 29.5645 19.2135 29.5645 18.4794V18.3969Z" fill="#FFDA44"/>
</svg>
