<svg width="34" height="34" viewBox="0 0 34 34" fill="none" xmlns="http://www.w3.org/2000/svg">
<path d="M0 16.9998C0 24.3092 4.61319 30.5396 11.0861 32.94L12.5646 16.9998L11.0861 1.05957C4.61319 3.46257 0 9.69291 0 16.9998Z" fill="#6DA544"/>
<path d="M34.0001 16.9997C34.0001 7.61178 26.3887 0.000976562 17.0001 0.000976562C14.9214 0.000976562 12.9278 0.374399 11.0861 1.0595V32.9425C12.9278 33.625 14.9188 34.001 17.0001 34.001C26.3887 34.001 34.0001 26.3902 34.0001 17.0022V16.9997Z" fill="#D80027"/>
<path d="M11.0861 22.9129C14.3523 22.9129 17 20.2654 17 16.9994C17 13.7335 14.3523 11.0859 11.0861 11.0859C7.8199 11.0859 5.17212 13.7335 5.17212 16.9994C5.17212 20.2654 7.8199 22.9129 11.0861 22.9129Z" fill="#FFDA44"/>
<path d="M7.76088 14.042V17.738C7.76088 19.5743 9.24968 21.0629 11.0862 21.0629C12.9227 21.0629 14.4115 19.5743 14.4115 17.738V14.042H7.7583H7.76088Z" fill="#D80027"/>
<path d="M11.0861 18.8466C10.4756 18.8466 9.97852 18.3496 9.97852 17.7392V16.2607H12.1962V17.7392C12.1962 18.3496 11.6991 18.8466 11.0887 18.8466H11.0861Z" fill="#F0F0F0"/>
</svg>
