<svg width="34" height="34" viewBox="0 0 34 34" fill="none" xmlns="http://www.w3.org/2000/svg">
<path d="M17.0001 34.001C26.3889 34.001 34 26.3898 34 17.001C34 7.61214 26.3889 0.000976562 17.0001 0.000976562C7.61135 0.000976562 0.000244141 7.61214 0.000244141 17.001C0.000244141 26.3898 7.61135 34.001 17.0001 34.001Z" fill="#F0F0F0"/>
<path d="M17 0.000976562C11.439 0.000976562 6.50125 2.67201 3.40005 6.80095H30.6025C27.5013 2.67201 22.5636 0.000976562 17.0026 0.000976562H17Z" fill="#D80027"/>
<path d="M17 34.0011C22.561 34.0011 27.4987 31.3301 30.5999 27.2012H3.39746C6.49865 31.3301 11.4364 34.0011 16.9974 34.0011H17Z" fill="#D80027"/>
<path d="M0 17.0006C0 18.1649 0.118502 19.3008 0.340015 20.4007H33.6597C33.8838 19.3034 33.9998 18.1649 33.9998 17.0006C33.9998 15.8364 33.8813 14.7004 33.6597 13.6006H0.340015C0.115926 14.6979 0 15.8364 0 17.0006Z" fill="#D80027"/>
<path d="M4.97924 4.97949C-1.65844 11.6172 -1.65844 22.3813 4.97924 29.0216C7.7224 26.2784 10.3599 23.6408 17.0002 17.0005L4.97924 4.97949Z" fill="#0052B4"/>
<path d="M6.87983 12.5654L7.98225 15.9552H11.5445L8.66222 18.0467L9.76206 21.4364L6.87983 19.3423L3.99759 21.4364L5.10001 18.0467L2.21777 15.9552H5.77998L6.87983 12.5654Z" fill="#F0F0F0"/>
</svg>
