<svg width="34" height="34" viewBox="0 0 34 34" fill="none" xmlns="http://www.w3.org/2000/svg">
<path d="M17 34.001C26.3888 34.001 34 26.3898 34 17.001C34 7.61214 26.3888 0.000976562 17 0.000976562C7.61116 0.000976562 0 7.61214 0 17.001C0 26.3898 7.61116 34.001 17 34.001Z" fill="#F0F0F0"/>
<path d="M33.9999 17.001C33.9999 7.61234 26.3885 0.000976562 16.9999 0.000976562C13.6746 0.000976562 10.5734 0.956613 7.95127 2.60767L11.6784 4.19174L6.65308 6.32705L11.6784 8.46237L6.65308 10.5977L11.6784 12.733L6.65308 14.8683L11.6784 17.0035L6.65308 19.1388L11.6784 21.2741L6.65308 23.4094L11.6784 25.5447L6.65308 27.6801L11.6784 29.8154L7.95378 31.3969C10.5733 33.048 13.6746 34.001 16.9999 34.001C26.3885 34.001 33.9999 26.3896 33.9999 17.001Z" fill="#751A46"/>
</svg>
