<svg width="34" height="34" viewBox="0 0 34 34" fill="none" xmlns="http://www.w3.org/2000/svg">
<path d="M17 34.001C26.3888 34.001 34 26.3898 34 17.001C34 7.61214 26.3888 0.000976562 17 0.000976562C7.61116 0.000976562 0 7.61214 0 17.001C0 26.3898 7.61116 34.001 17 34.001Z" fill="#FCFCFC"/>
<path d="M22.1747 14.0439V15.5224H24.2044C23.3569 16.6995 22.2288 17.6603 20.9203 18.3068C20.5829 17.9565 20.1115 17.7402 19.5886 17.7402C18.7077 17.7402 17.9711 18.3584 17.7856 19.1826C17.528 19.2058 17.2653 19.2161 17.0026 19.2161C16.7398 19.2161 16.4771 19.2032 16.2195 19.1826C16.0341 18.3558 15.2974 17.7402 14.4165 17.7402C13.8936 17.7402 13.4223 17.9565 13.0848 18.3068C11.7738 17.6603 10.6456 16.6995 9.80075 15.5224H11.8304V14.0439H6.65576C6.65576 19.7596 11.2895 24.3907 17.0026 24.3907C22.7156 24.3907 27.3494 19.757 27.3494 14.0439H22.1747Z" fill="#D80027"/>
</svg>
