<svg width="34" height="34" viewBox="0 0 34 34" fill="none" xmlns="http://www.w3.org/2000/svg">
<path d="M17 34.001C26.3888 34.001 34 26.3898 34 17.001C34 7.61214 26.3888 0.000976562 17 0.000976562C7.61116 0.000976562 0 7.61214 0 17.001C0 26.3898 7.61116 34.001 17 34.001Z" fill="#FFDA44"/>
<path d="M19.5861 33.8043C22.3499 33.3819 24.8973 32.2949 27.0532 30.7082L17 17L19.5861 33.8043Z" fill="#D80027"/>
<path d="M14.414 0.196289C11.6502 0.618713 9.10538 1.70569 6.9469 3.29235L17.0001 17.0006L14.414 0.196289Z" fill="#D80027"/>
<path d="M6.94678 30.7082C9.10526 32.2923 11.6501 33.3819 14.4139 33.8043L17 17L6.94678 30.7082Z" fill="#D80027"/>
<path d="M3.29187 6.94727C1.70778 9.10575 0.618225 11.6505 0.195801 14.4143L17 17.0004L3.29187 6.94727Z" fill="#D80027"/>
<path d="M0.195801 19.5861C0.618225 22.3499 1.7052 24.8972 3.29187 27.0531L17 17L0.195801 19.5861Z" fill="#D80027"/>
<path d="M33.8042 14.4143C33.3818 11.6505 32.2948 9.10575 30.7082 6.94727L17 17.0004L33.8042 14.4143Z" fill="#D80027"/>
<path d="M27.0532 3.29235C24.8947 1.70826 22.3499 0.618713 19.5861 0.196289L17 17.0006L27.0532 3.29235Z" fill="#D80027"/>
<path d="M30.7082 27.0531C32.2923 24.8946 33.3818 22.3499 33.8042 19.5861L17 17L30.7082 27.0531Z" fill="#D80027"/>
<path d="M17.0001 22.9138C20.2663 22.9138 22.914 20.266 22.914 16.9999C22.914 13.7337 20.2663 11.0859 17.0001 11.0859C13.7339 11.0859 11.0862 13.7337 11.0862 16.9999C11.0862 20.266 13.7339 22.9138 17.0001 22.9138Z" fill="#D80027"/>
<path d="M17.0001 21.4364C19.4498 21.4364 21.4356 19.4506 21.4356 17.0009C21.4356 14.5513 19.4498 12.5654 17.0001 12.5654C14.5505 12.5654 12.5647 14.5513 12.5647 17.0009C12.5647 19.4506 14.5505 21.4364 17.0001 21.4364Z" fill="#FFDA44"/>
</svg>
