<svg width="34" height="34" viewBox="0 0 34 34" fill="none" xmlns="http://www.w3.org/2000/svg">
<path d="M22.9137 1.05714C21.072 0.374514 19.0809 0.000976562 16.9997 0.000976562C14.9211 0.000976562 12.9274 0.374514 11.0858 1.05714L9.6073 16.9997L11.0858 32.9422C12.9274 33.6248 14.9185 34.001 16.9997 34.001C19.0809 34.001 21.072 33.6274 22.9137 32.9422L24.3922 16.9997L22.9137 1.0545V1.05714Z" fill="#FFDA44"/>
<path d="M33.9999 17.0021C33.9999 9.69161 29.3867 3.46035 22.9138 1.05957V32.9472C29.3867 30.5439 33.9999 24.3127 33.9999 17.0021Z" fill="#D80027"/>
<path d="M0 17.0021C0 24.3127 4.61318 30.5439 11.0861 32.9472V1.05957C4.61318 3.46293 0 9.69418 0 17.0021Z" fill="#0052B4"/>
</svg>
