<svg width="34" height="34" viewBox="0 0 34 34" fill="none" xmlns="http://www.w3.org/2000/svg">
<path d="M17.0013 34.001C26.3895 34.001 34 26.3898 34 17.001C34 7.61214 26.3895 0.000976562 17.0013 0.000976562C7.61321 0.000976562 0.00262451 7.61214 0.00262451 17.001C0.00262451 26.3898 7.61321 34.001 17.0013 34.001Z" fill="#F0F0F0"/>
<path d="M32.9414 22.9148C33.624 21.0731 34 19.0821 34 17.0008C34 14.9196 33.6265 12.9286 32.9414 11.0869H1.05855C0.376028 12.9286 0 14.9196 0 17.0008C0 19.0821 0.373453 21.0731 1.05855 22.9148L16.9987 24.3933L32.9389 22.9148H32.9414Z" fill="#0052B4"/>
<path d="M17.0013 34.0011C24.3108 34.0011 30.5411 29.3879 32.9415 22.915H1.05859C3.46159 29.3879 9.69188 34.0011 16.9988 34.0011H17.0013Z" fill="#D80027"/>
</svg>
