<svg width="34" height="34" viewBox="0 0 34 34" fill="none" xmlns="http://www.w3.org/2000/svg">
<path d="M0.00515533 17.001C0.00515533 19.9451 0.75453 22.7166 2.07043 25.1327L16.9986 26.6113L31.9267 25.1327C33.2452 22.7166 33.992 19.9477 33.992 17.001L16.996 15.5225L0 17.001H0.00515533Z" fill="#FFDA44"/>
<path d="M31.9294 8.86944C29.0478 3.58393 23.4417 0.000976562 17.0013 0.000976562C10.5608 0.000976562 4.95473 3.58651 2.07314 8.86944C0.754658 11.2855 0.00785828 14.0544 0.00785828 17.0011H33.9999C33.9999 14.057 33.2505 11.2855 31.9346 8.86944H31.9294Z" fill="#338AF3"/>
<path d="M17.0013 34.0013C23.4443 34.0013 29.0478 30.4157 31.9294 25.1328H2.07056C4.95215 30.4183 10.5583 34.0013 16.9987 34.0013H17.0013Z" fill="#496E2D"/>
<path d="M19.2185 9.95096L21.2941 10.9272L20.1893 12.9364L22.4426 12.5061L22.7284 14.7832L24.2993 13.1089L25.8676 14.7832L26.1534 12.5061L28.4067 12.9364L27.3019 10.9272L29.3775 9.95096L27.3019 8.97221L28.4067 6.96303L26.1534 7.39329L25.8676 5.11621L24.2993 6.79047L22.7284 5.11621L22.4426 7.39329L20.1893 6.96303L21.2941 8.97221L19.2185 9.95096Z" fill="#FFDA44"/>
</svg>
