<svg width="34" height="34" viewBox="0 0 34 34" fill="none" xmlns="http://www.w3.org/2000/svg">
<path d="M17.0001 34.001C26.3889 34.001 34 26.3898 34 17.001C34 7.61214 26.3889 0.000976562 17.0001 0.000976562C7.61135 0.000976562 0.000244141 7.61214 0.000244141 17.001C0.000244141 26.3898 7.61135 34.001 17.0001 34.001Z" fill="#F0F0F0"/>
<path d="M17.0001 0.000983873C16.9847 -0.0118949 -0.00490617 16.9958 0.000245312 17.001C0.000245312 7.61235 7.61156 0.000983873 17.0001 0.000983873Z" fill="#D80027"/>
<path d="M16.9998 0.000983873C17.0152 -0.0118949 34.0048 16.9958 33.9997 17.001C33.9997 7.61235 26.3884 0.000983873 16.9998 0.000983873Z" fill="#D80027"/>
<path d="M16.9999 34.001C16.9844 34.0139 -0.00515031 17.0061 1.17126e-06 17.001C1.17126e-06 26.3896 7.61131 34.001 16.9999 34.001Z" fill="#0052B4"/>
<path d="M16.9998 34.001C17.0152 34.0139 34.0048 17.0061 33.9997 17.001C33.9997 26.3896 26.3884 34.001 16.9998 34.001Z" fill="#0052B4"/>
<path d="M17 8.86914L18.8339 14.5177H24.771L19.9673 18.0053L21.8038 23.654L17 20.1637L12.1963 23.654L14.0328 18.0053L9.229 14.5177H15.1661L17 8.86914Z" fill="#FFDA44"/>
</svg>
