<svg width="34" height="34" viewBox="0 0 34 34" fill="none" xmlns="http://www.w3.org/2000/svg">
<path d="M17 34.001C26.3888 34.001 34 26.3898 34 17.001C34 7.61214 26.3888 0.000976562 17 0.000976562C7.61116 0.000976562 0 7.61214 0 17.001C0 26.3898 7.61116 34.001 17 34.001Z" fill="#FFDA44"/>
<path d="M4.97899 29.022C5.69247 29.7355 6.45228 30.3718 7.25076 30.9307L30.9297 7.25174C30.3708 6.45325 29.7346 5.69345 29.0211 4.97997C28.3076 4.26648 27.5478 3.63023 26.7493 3.07129L3.07031 26.7503C3.62925 27.5488 4.2655 28.3086 4.97899 29.022Z" fill="black"/>
<path d="M4.97896 4.97951C-0.383763 10.3422 -1.41407 18.3966 1.88805 24.7947L24.7943 1.8886C18.3961 -1.41352 10.3417 -0.383214 4.97896 4.97951Z" fill="#6DA544"/>
<path d="M29.0211 29.0213C34.3838 23.6586 35.4141 15.6042 32.112 9.20605L9.20581 32.1122C15.604 35.4143 23.6584 34.384 29.0211 29.0213Z" fill="#D80027"/>
<path d="M10.8077 20.0552L12.3969 20.8641L13.6565 19.6045L13.3757 21.3638L14.9624 22.1726L13.2032 22.4508L12.925 24.21L12.1162 22.6233L10.3569 22.9015L11.6165 21.642L10.8077 20.0552Z" fill="#F0F0F0"/>
<path d="M20.0548 10.8092L21.6414 11.618L22.901 10.3584L22.6228 12.1177L24.2095 12.9265L22.4502 13.2072L22.1721 14.9638L21.3632 13.3772L19.604 13.658L20.8636 12.3984L20.0548 10.8092Z" fill="#F0F0F0"/>
</svg>
