<svg width="34" height="34" viewBox="0 0 34 34" fill="none" xmlns="http://www.w3.org/2000/svg">
<path d="M16.9999 34.001C26.3887 34.001 33.9999 26.3898 33.9999 17.001C33.9999 7.61214 26.3887 0.000976562 16.9999 0.000976562C7.61107 0.000976562 -9.15527e-05 7.61214 -9.15527e-05 17.001C-9.15527e-05 26.3898 7.61107 34.001 16.9999 34.001Z" fill="#F0F0F0"/>
<path d="M16.9997 0.000976562C10.2589 0.000976562 4.43516 3.92381 1.68683 9.6085H32.3126C29.5617 3.92123 23.7405 0.000976562 16.9997 0.000976562Z" fill="#0052B4"/>
<path d="M16.9995 34.0011C23.7402 34.0011 29.564 30.0783 32.3123 24.3936H1.68658C4.43749 30.0808 10.2587 34.0011 16.9995 34.0011Z" fill="#0052B4"/>
<path d="M13.5872 17.7391L17 11.8252L20.4129 17.7391H13.5872Z" fill="#FFDA44"/>
<path d="M21.4353 19.6923L16.9999 21.91L12.5645 19.6923V16.7354H21.4353V19.6923Z" fill="#6DA544"/>
<path d="M21.1802 12.0811L19.6115 13.6498C20.2812 14.3195 20.6934 15.2416 20.6934 16.2641C20.6934 18.3041 19.0398 19.9604 16.9972 19.9604C14.9546 19.9604 13.3009 18.3067 13.3009 16.2641C13.3009 15.2441 13.7157 14.3195 14.3828 13.6498L12.8142 12.0811C11.7452 13.15 11.0833 14.6285 11.0833 16.2615C11.0833 19.5276 13.7311 22.1754 16.9972 22.1754C20.2632 22.1754 22.9111 19.5276 22.9111 16.2615C22.9111 14.6285 22.2491 13.15 21.1802 12.0811Z" fill="#FFDA44"/>
</svg>
