<svg width="34" height="34" viewBox="0 0 34 34" fill="none" xmlns="http://www.w3.org/2000/svg">
<path d="M34 17.001C34 26.3896 26.3886 34.001 17 34.001C7.61136 34.001 0 26.3896 0 17.001C5.83924 11.1617 10.7924 6.20855 17 0.000976562C26.3886 0.000976562 34 7.61234 34 17.001Z" fill="#D80027"/>
<path d="M17 17.001V0.000976562C7.61136 0.000976562 0 7.61234 0 17.001H17Z" fill="#0052B4"/>
<path d="M13.618 11.0869L13.891 11.9343H14.7822L14.061 12.4572L14.3366 13.3046L13.618 12.7818L12.8968 13.3046L13.1723 12.4572L12.4512 11.9343H13.3424L13.618 11.0869Z" fill="#F0F0F0"/>
<path d="M9.14416 4.43652L9.60265 5.84803H11.0863L9.88595 6.71861L10.3444 8.13263L9.14416 7.25954L7.94388 8.13263L8.40237 6.71861L7.20203 5.84803H8.68567L9.14416 4.43652Z" fill="#F0F0F0"/>
<path d="M13.5792 5.91504L14.0377 7.32655H15.5214L14.3211 8.19713L14.7795 9.60864L13.5792 8.73806L12.379 9.60864L12.8374 8.19713L11.6345 7.32655H13.1207L13.5792 5.91504Z" fill="#F0F0F0"/>
<path d="M10.0737 11.8262L10.5322 13.2377H12.0158L10.8155 14.1108L11.274 15.5223L10.0737 14.6492L8.87338 15.5223L9.33187 14.1108L8.13159 13.2377H9.61523L10.0737 11.8262Z" fill="#F0F0F0"/>
<path d="M6.187 8.13281L6.6455 9.54432H8.13171L6.92879 10.415L7.38728 11.8265L6.187 10.9558L4.98672 11.8265L5.44515 10.415L4.24487 9.54432H5.72851L6.187 8.13281Z" fill="#F0F0F0"/>
</svg>
