<svg width="34" height="34" viewBox="0 0 34 34" fill="none" xmlns="http://www.w3.org/2000/svg">
<path d="M34 17.0009C34 26.3895 26.3886 34.0008 17 34.0008C7.61136 34.0008 0 26.3895 0 17.0009C0.739242 17.0009 17 14.7832 17 14.7832L34 17.0009Z" fill="#338AF3"/>
<path d="M0 17.0009C0 7.61231 7.61136 0.000976562 17 0.000976562C26.3886 0.000976562 34 7.61231 34 17.0009" fill="#F0F0F0"/>
<path d="M23.7483 11.7305L16.9998 18.479L10.2514 11.7305C9.37819 13.0261 8.86816 14.5844 8.86816 16.2612V18.479C8.86816 22.0387 11.1683 25.0729 14.3623 26.1701C13.9373 27.0047 14.0068 28.0479 14.6327 28.8257C15.4621 28.1612 16.3198 27.4735 17.0488 26.8888C17.7777 27.4735 18.6355 28.1612 19.4649 28.8257C20.0959 28.0376 20.1629 26.9789 19.7199 26.1392C22.87 25.0187 25.129 22.0078 25.129 18.479V16.2612C25.129 14.5844 24.6189 13.0261 23.7457 11.7305H23.7483Z" fill="#6DA544"/>
<path d="M17.0001 24.3933C13.7392 24.3933 11.0862 21.7403 11.0862 18.4794V16.2616C11.0862 13.0007 13.7392 10.3477 17.0001 10.3477C20.261 10.3477 22.914 13.0007 22.914 16.2616V18.4794C22.914 21.7403 20.261 24.3933 17.0001 24.3933Z" fill="#FFDA44"/>
<path d="M20.6962 18.4795V16.2617C20.6962 14.2242 19.0374 12.5654 16.9999 12.5654C14.9625 12.5654 13.3037 14.2242 13.3037 16.2617V18.4795L16.9999 19.2186L20.6962 18.4795Z" fill="#338AF3"/>
<path d="M13.3037 18.4795C13.3037 20.5169 14.9625 22.1756 16.9999 22.1756C19.0374 22.1756 20.6962 20.5169 20.6962 18.4795H13.3037Z" fill="#6DA544"/>
<path d="M21.4356 10.3475C21.4356 9.12401 20.444 8.1298 19.2179 8.1298C18.6487 8.1298 18.1309 8.34358 17.7394 8.69388V7.39053H18.4786V5.91212H17.7394V5.17285H16.2609V5.91212H15.5217V7.39053H16.2609V8.69388C15.8694 8.34358 15.3516 8.1298 14.7824 8.1298C13.5589 8.1298 12.5647 9.12143 12.5647 10.3475C12.5647 11.0043 12.8506 11.5942 13.3039 11.9986V13.3019H20.6964V11.9986C21.1497 11.5916 21.4356 11.0017 21.4356 10.3475Z" fill="#FFDA44"/>
</svg>
