<svg width="34" height="34" viewBox="0 0 34 34" fill="none" xmlns="http://www.w3.org/2000/svg">
<path d="M16.9999 34.001C26.3888 34.001 33.9999 26.3898 33.9999 17.001C33.9999 7.61214 26.3888 0.000976562 16.9999 0.000976562C7.61108 0.000976562 -7.62939e-05 7.61214 -7.62939e-05 17.001C-7.62939e-05 26.3898 7.61108 34.001 16.9999 34.001Z" fill="#FFDA44"/>
<path d="M10.3468 11.087H32.9414C30.5382 4.61417 24.3074 0.000976562 17 0.000976562C12.3044 0.000976562 8.05697 1.90448 4.97894 4.97994L10.3468 11.087Z" fill="#6DA544"/>
<path d="M10.3468 22.915H32.9413C30.5381 29.3879 24.3074 34.0011 16.9999 34.0011C12.3043 34.0011 8.05691 32.0976 4.97888 29.0222L10.3468 22.915Z" fill="#6DA544"/>
<path d="M4.97874 4.98047C-1.65899 11.6182 -1.65899 22.3822 4.97874 29.0226C7.72192 26.2794 10.3595 23.6418 16.9998 17.0015L4.97874 4.98047Z" fill="#D80027"/>
<path d="M21.5869 14.0439L22.321 16.3029H24.6959L22.7743 17.6989L23.5084 19.9579L21.5869 18.5618L19.6654 19.9579L20.3995 17.6989L18.478 16.3029H20.8528L21.5869 14.0439Z" fill="black"/>
<path d="M28.9772 14.0439L29.7113 16.3029H32.0862L30.1647 17.6989L30.8987 19.9579L28.9772 18.5618L27.0557 19.9579L27.7898 17.6989L25.8683 16.3029H28.2431L28.9772 14.0439Z" fill="black"/>
</svg>
