<svg width="34" height="34" viewBox="0 0 34 34" fill="none" xmlns="http://www.w3.org/2000/svg">
<path d="M17 34.001C26.3888 34.001 34 26.3898 34 17.001C34 7.61214 26.3888 0.000976562 17 0.000976562C7.61116 0.000976562 0 7.61214 0 17.001C0 26.3898 7.61116 34.001 17 34.001Z" fill="#F0F0F0"/>
<path d="M33.8558 14.7833H19.2177V0.145234C18.4914 0.049931 17.7521 0.000976562 17 0.000976562C16.2479 0.000976562 15.5086 0.049931 14.7823 0.145234V14.7833H0.144242C0.0489388 15.5096 0 16.2489 0 17.001C0 17.7531 0.0489388 18.4923 0.144242 19.2187H14.7823V33.8567C15.5086 33.952 16.2479 34.001 17 34.001C17.7521 34.001 18.4914 33.952 19.2177 33.8567V19.2187H33.8558C33.9511 18.4923 34 17.7531 34 17.001C34 16.2489 33.9511 15.5096 33.8558 14.7833Z" fill="#D80027"/>
<path d="M25.1315 5.91504C23.7535 5.91504 22.597 6.85773 22.2673 8.13273L25.1315 8.872L27.9958 8.13273C27.6686 6.85773 26.5095 5.91504 25.1315 5.91504Z" fill="black"/>
<path d="M22.1745 12.5662L25.8707 13.3055V11.7343C26.9087 11.4664 27.7278 10.6499 27.9957 9.60926L25.1315 8.87012H21.4352L22.1745 11.0878V12.5662Z" fill="black"/>
<path d="M27.9931 8.13281H21.4352V11.0898H22.1745V9.61136H27.9931C28.0549 9.37439 28.0858 9.12709 28.0858 8.87209C28.0858 8.61709 28.0524 8.36978 27.9931 8.13281Z" fill="#ACABB1"/>
<path d="M9.60753 5.91504C8.2295 5.91504 7.07298 6.85773 6.74329 8.13273L9.60753 8.872L12.4718 8.13273C12.1447 6.85773 10.9856 5.91504 9.60753 5.91504Z" fill="black"/>
<path d="M6.65333 12.5662L10.3495 13.3055V11.7343C11.3876 11.4664 12.2067 10.6499 12.4745 9.60926L9.61031 8.87012H5.91409L6.65333 11.0878V12.5662Z" fill="black"/>
<path d="M12.472 8.13281H5.91409V11.0898H6.65333V9.61136H12.472C12.5338 9.37439 12.5647 9.12709 12.5647 8.87209C12.5647 8.61709 12.5312 8.36978 12.472 8.13281Z" fill="#ACABB1"/>
<path d="M25.1315 20.6973C23.7535 20.6973 22.597 21.64 22.2673 22.915L25.1315 23.6542L27.9958 22.915C27.6686 21.64 26.5095 20.6973 25.1315 20.6973Z" fill="black"/>
<path d="M22.1745 27.3476L25.8707 28.0869V26.5156C26.9087 26.2478 27.7278 25.4312 27.9957 24.3906L25.1315 23.6514H21.4352L22.1745 25.8692V27.3476Z" fill="black"/>
<path d="M27.9931 22.915H21.4352V25.872H22.1745V24.3936H27.9931C28.0549 24.1566 28.0858 23.9093 28.0858 23.6543C28.0858 23.3993 28.0524 23.152 27.9931 22.915Z" fill="#ACABB1"/>
<path d="M9.60753 20.6973C8.2295 20.6973 7.07298 21.64 6.74329 22.915L9.60753 23.6542L12.4718 22.915C12.1447 21.64 10.9856 20.6973 9.60753 20.6973Z" fill="black"/>
<path d="M6.65333 27.3476L10.3495 28.0869V26.5156C11.3876 26.2478 12.2067 25.4312 12.4745 24.3906L9.61031 23.6514H5.91409L6.65333 25.8692V27.3476Z" fill="black"/>
<path d="M12.472 22.915H5.91409V25.872H6.65333V24.3936H12.472C12.5338 24.1566 12.5647 23.9093 12.5647 23.6543C12.5647 23.3993 12.5312 23.152 12.472 22.915Z" fill="#ACABB1"/>
</svg>
