<svg width="34" height="34" viewBox="0 0 34 34" fill="none" xmlns="http://www.w3.org/2000/svg">
<path d="M17 34.001C26.3888 34.001 34 26.3898 34 17.001C34 7.61214 26.3888 0.000976562 17 0.000976562C7.61116 0.000976562 0 7.61214 0 17.001C0 26.3898 7.61116 34.001 17 34.001Z" fill="#6DA544"/>
<path d="M9.6073 20.3262C9.6073 21.5497 10.599 22.5439 11.825 22.5439H18.4782C18.4782 23.5639 19.305 24.3907 20.325 24.3907H22.5428C23.5628 24.3907 24.3896 23.5639 24.3896 22.5439V20.3262H9.6073Z" fill="#F0F0F0"/>
<path d="M24.575 9.6084V14.7832C24.575 15.5971 23.913 16.2616 23.0965 16.2616V18.4794C25.134 18.4794 26.7927 16.8206 26.7927 14.7832V9.6084H24.575Z" fill="#F0F0F0"/>
<path d="M8.6853 14.7832C8.6853 15.5971 8.02333 16.2616 7.20682 16.2616V18.4794C9.24424 18.4794 10.903 16.8206 10.903 14.7832V9.6084H8.6853V14.7832Z" fill="#F0F0F0"/>
<path d="M23.4673 9.6084H21.2496V14.7832H23.4673V9.6084Z" fill="#F0F0F0"/>
<path d="M17.9246 12.5654C17.9246 12.7688 17.7598 12.9337 17.5563 12.9337C17.3528 12.9337 17.1879 12.7688 17.1879 12.5654V9.6084H14.9702V12.5654C14.9702 12.7688 14.8054 12.9337 14.6019 12.9337C14.3984 12.9337 14.2336 12.7688 14.2336 12.5654V9.6084H12.0158V12.5654C12.0158 13.9923 13.1775 15.1514 14.6019 15.1514C15.1505 15.1514 15.6605 14.9788 16.0804 14.6852C16.5002 14.9788 17.0102 15.1514 17.5589 15.1514C17.6696 15.1514 17.7778 15.1438 17.886 15.1309C17.7289 15.7774 17.1467 16.2616 16.4513 16.2616V18.4794C18.4887 18.4794 20.1475 16.8206 20.1475 14.7832V9.6084H17.9298V12.5654H17.9246Z" fill="#F0F0F0"/>
<path d="M15.3359 16.2617H12.0106V18.4795H15.3359V16.2617Z" fill="#F0F0F0"/>
</svg>
