<svg width="34" height="34" viewBox="0 0 34 34" fill="none" xmlns="http://www.w3.org/2000/svg">
<path d="M27.3495 3.51434C24.4827 1.31207 20.8946 0.000976562 17.0001 0.000976562C13.1055 0.000976562 9.51748 1.31207 6.65067 3.51434L17.0001 13.8637L27.3495 3.51434Z" fill="#0052B4"/>
<path d="M3.51334 6.65137C1.31106 9.51819 0 13.1063 0 17.0008C0 20.8954 1.31106 24.4834 3.51334 27.3502L13.8627 17.0008L3.51334 6.65137Z" fill="#0052B4"/>
<path d="M6.65067 30.488C9.51748 32.6903 13.1055 34.0014 17.0001 34.0014C20.8946 34.0014 24.4827 32.6903 27.3495 30.488L17.0001 20.1387L6.65067 30.488Z" fill="#0052B4"/>
<path d="M30.4869 27.3502C32.6891 24.4834 34.0002 20.8954 34.0002 17.0008C34.0002 13.1063 32.6891 9.51819 30.4869 6.65137L20.1375 17.0008L30.4869 27.3502Z" fill="#0052B4"/>
</svg>
