<svg width="34" height="34" viewBox="0 0 34 34" fill="none" xmlns="http://www.w3.org/2000/svg">
<path d="M24.3926 1.68805C22.1569 0.606229 19.6507 0.000976562 17.0002 0.000976562C14.3497 0.000976562 11.8435 0.606229 9.60779 1.68805L8.1293 17.001L9.60779 32.3139C11.8435 33.3957 14.3497 34.001 17.0002 34.001C19.6507 34.001 22.1569 33.3957 24.3926 32.3139L25.8711 17.001L24.3926 1.68805Z" fill="#FFDA44"/>
<path d="M17 11.0869L18.4681 15.6048H23.2178L19.3748 18.3969L20.843 22.9148L17 20.1227L13.1569 22.9148L14.6251 18.3969L10.7821 15.6048H15.5318L17 11.0869Z" fill="#496E2D"/>
<path d="M9.60759 1.68848C3.92032 4.43939 0 10.2606 0 17.0014C0 23.7422 3.92289 29.5634 9.60759 32.3143V1.68848Z" fill="#496E2D"/>
<path d="M24.3925 1.68848V32.3143C30.0798 29.5634 34.0001 23.7422 34.0001 17.0014C34.0001 10.2606 30.0772 4.43939 24.3925 1.68848Z" fill="#D80027"/>
</svg>
