<svg width="34" height="34" viewBox="0 0 34 34" fill="none" xmlns="http://www.w3.org/2000/svg">
<path d="M16.9998 34.001C26.3887 34.001 33.9998 26.3898 33.9998 17.001C33.9998 7.61214 26.3887 0.000976562 16.9998 0.000976562C7.61098 0.000976562 -0.000183105 7.61214 -0.000183105 17.001C-0.000183105 26.3898 7.61098 34.001 16.9998 34.001Z" fill="#F0F0F0"/>
<path d="M16.9998 0.000976562C7.61118 0.000976562 -0.000183105 7.61234 -0.000183105 17.001C-0.000183105 19.0796 0.373298 21.0732 1.05845 22.9149H32.9438C33.6263 21.0732 33.9998 19.0822 33.9998 17.001C33.9998 7.61234 26.3885 0.000976562 16.9998 0.000976562Z" fill="#0052B4"/>
<path d="M16.9997 0.000976562C9.68972 0.000976562 3.45896 4.61417 1.05835 11.087H32.9437C30.5405 4.61417 24.3097 0.000976562 16.9997 0.000976562Z" fill="#D80027"/>
<path d="M4.39636 9.6084V18.0879C4.39636 22.9123 10.6993 24.3907 10.6993 24.3907C10.6993 24.3907 17.0021 22.9123 17.0021 18.0879V9.6084H4.39894H4.39636Z" fill="#D80027"/>
<path d="M7.0033 11.0872H14.3932V8.13272L12.9147 8.86947L10.697 6.6543L8.47923 8.86947L7.0033 8.13272V11.0872Z" fill="#FFDA44"/>
<path d="M15.5213 19.2706L10.7175 14.4668L5.9137 19.2706L7.47978 20.8392L10.7175 17.604L13.9527 20.8392L15.5213 19.2706Z" fill="#FFDA44"/>
<path d="M15.5214 14.7832H13.2805C13.4067 14.5669 13.4788 14.3144 13.4788 14.044C13.4788 13.2275 12.8169 12.5654 12.0003 12.5654C11.4363 12.5654 10.9469 12.8823 10.697 13.346C10.4472 12.8823 9.95778 12.5654 9.39368 12.5654C8.57717 12.5654 7.9152 13.2275 7.9152 14.044C7.9152 14.3144 7.98733 14.5643 8.11354 14.7832H5.91125C5.91125 15.5998 6.62218 16.2617 7.43869 16.2617H7.38974C7.38974 17.0782 8.05174 17.7402 8.86825 17.7402C8.86825 18.464 9.38854 19.0641 10.0737 19.1928L8.90944 21.8228C9.46838 22.0495 10.0788 22.1756 10.7176 22.1756C11.3564 22.1756 11.9669 22.0495 12.5258 21.8228L11.3616 19.1928C12.0467 19.0641 12.567 18.464 12.567 17.7402C13.3836 17.7402 14.0455 17.0782 14.0455 16.2617H13.9966C14.8131 16.2617 15.524 15.5998 15.524 14.7832H15.5214Z" fill="#F0F0F0"/>
</svg>
