<svg width="34" height="34" viewBox="0 0 34 34" fill="none" xmlns="http://www.w3.org/2000/svg">
<path d="M17.0004 34.0005C26.389 34.0005 34 26.3895 34 17.0008C34 7.61204 26.389 0.000976562 17.0004 0.000976562C7.61174 0.000976562 0.000732422 7.61204 0.000732422 17.0008C0.000732422 26.3895 7.61174 34.0005 17.0004 34.0005Z" fill="#F0F0F0"/>
<path d="M28.4745 4.45957C25.4507 1.69067 21.4223 0.000976562 16.9998 0.000976562C16.276 0.000976562 15.5625 0.0473446 14.8619 0.134919L6.65318 9.61102L0.538452 21.261C0.932535 22.7936 1.5378 24.2385 2.31566 25.5727L16.9998 17.0033L28.4745 4.46209V4.45957Z" fill="#FFDA44"/>
<path d="M31.1534 26.4209L7.36932 31.0109C10.1073 32.8964 13.4248 34.0013 16.9999 34.0013C22.9034 34.0013 28.1063 30.9902 31.1534 26.4209Z" fill="#6DA544"/>
<path d="M28.4771 4.46289L2.32599 25.589C3.01113 26.7558 3.83019 27.8325 4.7626 28.801L33.9994 17.0041C33.9994 12.0407 31.8719 7.57186 28.4771 4.46553V4.46289Z" fill="#D80027"/>
<path d="M0 17.0013C0 18.472 0.188049 19.8989 0.538345 21.2589L14.8618 0.132812C6.48304 1.18371 0 8.33404 0 16.9988V17.0013Z" fill="#0052B4"/>
</svg>
