<svg width="34" height="34" viewBox="0 0 34 34" fill="none" xmlns="http://www.w3.org/2000/svg">
<path d="M32.9413 22.9148C33.6239 21.0731 34 19.0821 34 17.0009C34 14.9197 33.6265 12.9286 32.9413 11.0869L17 9.6084L1.05866 11.0869C0.376088 12.9286 0 14.9197 0 17.0009C0 19.0821 0.373512 21.0731 1.05866 22.9148L17 24.3933L32.9413 22.9148Z" fill="#F0F0F0"/>
<path d="M17.0001 34.0011C24.3101 34.0011 30.5408 29.3879 32.9414 22.915H1.05615C3.45933 29.3879 9.69007 34.0011 17.0001 34.0011Z" fill="#338AF3"/>
<path d="M17.0001 0.000976562C9.69007 0.000976562 3.45933 4.61417 1.05615 11.087H32.9414C30.5382 4.61417 24.3075 0.000976562 17.0001 0.000976562Z" fill="#6DA544"/>
</svg>
