<svg width="34" height="34" viewBox="0 0 34 34" fill="none" xmlns="http://www.w3.org/2000/svg">
<path d="M17 34.001C26.3888 34.001 34 26.3898 34 17.001C34 7.61214 26.3888 0.000976562 17 0.000976562C7.61116 0.000976562 0 7.61214 0 17.001C0 26.3898 7.61116 34.001 17 34.001Z" fill="#F0F0F0"/>
<path d="M0 17.001C0 7.61234 7.61136 0.000976562 17 0.000976562C26.3886 0.000976562 34 7.61234 34 17.001" fill="#D80027"/>
<path d="M10.347 8.8701C10.347 6.39222 12.0882 4.32385 14.4116 3.81643C14.0535 3.73916 13.6826 3.69531 13.304 3.69531C10.4475 3.69531 8.12933 6.011 8.12933 8.8701C8.12933 11.7292 10.4449 14.0448 13.304 14.0448C13.6852 14.0448 14.0561 14.0035 14.4116 13.9236C12.0882 13.4162 10.347 11.348 10.347 8.8701Z" fill="#F0F0F0"/>
<path d="M17 4.06641L17.3658 5.1972H18.5532L17.5925 5.89522L17.9608 7.02337L17 6.32535L16.0393 7.02337L16.4076 5.89522L15.4468 5.1972H16.6343L17 4.06641Z" fill="#F0F0F0"/>
<path d="M14.1205 6.2832L14.4862 7.41387H15.6737L14.7129 8.11202L15.0812 9.24017L14.1205 8.54215L13.1597 9.24017L13.5254 8.11202L12.5647 7.41387H13.7521L14.1205 6.2832Z" fill="#F0F0F0"/>
<path d="M19.8797 6.2832L20.2481 7.41387H21.4355L20.4747 8.11202L20.8405 9.24017L19.8797 8.54215L18.919 9.24017L19.2873 8.11202L18.3265 7.41387H19.514L19.8797 6.2832Z" fill="#F0F0F0"/>
<path d="M18.7721 9.60938L19.1379 10.7402H20.3253L19.3646 11.4382L19.733 12.5663L18.7721 11.8683L17.8114 12.5663L18.1772 11.4382L17.2164 10.7402H18.4038L18.7721 9.60938Z" fill="#F0F0F0"/>
<path d="M15.2278 9.60938L15.5961 10.7402H16.7835L15.8228 11.4382L16.1886 12.5663L15.2278 11.8683L14.267 12.5663L14.6354 11.4382L13.6746 10.7402H14.862L15.2278 9.60938Z" fill="#F0F0F0"/>
</svg>
