<svg width="34" height="34" viewBox="0 0 34 34" fill="none" xmlns="http://www.w3.org/2000/svg">
<path d="M7.42023 31.044C10.1477 32.9088 13.447 34.0009 17.0013 34.0009C20.5556 34.0009 23.8549 32.9088 26.5824 31.044L17.0013 29.5654L7.42023 31.044Z" fill="#D80027"/>
<path d="M26.5824 2.95791C23.8549 1.09308 20.5556 0.000976562 17.0013 0.000976562C13.447 0.000976562 10.1477 1.09308 7.42023 2.95791L17.0013 4.43643L26.5824 2.95791Z" fill="#D80027"/>
<path d="M7.42023 31.044C10.1477 32.9088 13.447 34.0009 17.0013 34.0009C20.5556 34.0009 23.8549 32.9088 26.5824 31.044L17.0013 29.5654L7.42023 31.044Z" fill="#D80027"/>
<path d="M26.5824 2.95791C23.8549 1.09308 20.5556 0.000976562 17.0013 0.000976562C13.447 0.000976562 10.1477 1.09308 7.42023 2.95791L17.0013 4.43643L26.5824 2.95791Z" fill="#D80027"/>
<path d="M33.9563 15.8943C33.5545 10.6476 30.3659 5.54759 26.5824 2.95898H7.42024C3.22722 5.82577 0.383761 10.5188 0.0386353 15.8943L17.0013 17.0019L33.9563 15.8943Z" fill="#0052B4"/>
<path d="M0.0386963 18.1095C0.383822 23.485 3.22728 28.178 7.4203 31.0448H26.5825C30.7755 28.178 33.6189 23.485 33.9641 18.1095L17.0014 17.002L0.0386963 18.1095Z" fill="#0052B4"/>
<path d="M33.9562 15.8934H18.1088V2.21875H15.8912V15.8934H0.0360302C0.0128501 16.2591 0 16.63 0 17.0009C0 17.3718 0.0128501 17.7426 0.0360302 18.1084H15.8912V31.783H18.1088V18.1084H33.964C33.9872 17.7426 34 17.3718 34 17.0009C34 16.63 33.9846 16.2617 33.9562 15.8934Z" fill="#D80027"/>
<path d="M6.65503 17.0008L17.001 10.4971L27.3471 17.0008L17.001 23.5045L6.65503 17.0008Z" fill="#F0F0F0"/>
<path d="M11.0876 19.9579H24.393L21.4362 15.5225L19.9579 17.001L18.4795 16.2617L17.0011 18.4795H14.0444L12.566 17.001L11.0876 19.9579Z" fill="#6DA544"/>
<path d="M17.0013 12.5645L17.367 13.6952H18.5543L17.5936 14.3932L17.9619 15.5214L17.0013 14.8234L16.0406 15.5214L16.4089 14.3932L15.4482 13.6952H16.6355L17.0013 12.5645Z" fill="#FFDA44"/>
<path d="M17.0012 8.6377L3.69843 17.0011L17.0012 25.3646L30.3039 17.0011L17.0012 8.6377ZM7.86567 17.0011L17.0012 11.2573L26.1393 17.0011L17.0012 22.745L7.86567 17.0011Z" fill="#D80027"/>
</svg>
