<svg width="34" height="34" viewBox="0 0 34 34" fill="none" xmlns="http://www.w3.org/2000/svg">
<path d="M15.5212 18.4796C15.5212 18.4796 4.98876 4.97738 4.97845 4.97995C8.05395 1.90449 12.304 0.000976562 16.9997 0.000976562C26.3884 0.000976562 33.9999 7.61236 33.9999 17.001L15.5212 18.4796Z" fill="#D80027"/>
<path d="M15.5212 17.001C15.5212 17.001 4.98876 29.0246 4.97845 29.0221C8.05395 32.0975 12.304 34.001 16.9997 34.001C26.3884 34.001 33.9999 26.3896 33.9999 17.001H15.5212Z" fill="#0052B4"/>
<path d="M4.97836 4.97949C-1.65946 11.6172 -1.65946 22.3813 4.97836 29.0217C7.72158 26.2785 10.3592 23.6409 16.9996 17.0006L4.97836 4.97949Z" fill="#F0F0F0"/>
<path d="M1.86153 17.001C1.85122 17.122 1.84607 17.2457 1.84607 17.3694C1.84607 20.0224 3.99686 22.1731 6.64992 22.1731C9.30299 22.1731 11.4538 20.0224 11.4538 17.3694C11.4538 17.2457 11.4486 17.122 11.4383 17.001H1.86153Z" fill="#FFDA44"/>
<path d="M6.65233 14.7841C7.46889 14.7841 8.13084 14.1221 8.13084 13.3056C8.13084 12.489 7.46889 11.8271 6.65233 11.8271C5.83578 11.8271 5.17383 12.489 5.17383 13.3056C5.17383 14.1221 5.83578 14.7841 6.65233 14.7841Z" fill="#FFDA44"/>
<path d="M3.32441 12.9375V17.7413C3.32441 20.2861 6.64976 21.0665 6.64976 21.0665C6.64976 21.0665 9.97511 20.2861 9.97511 17.7413V12.9375H3.32184H3.32441Z" fill="#D80027"/>
<path d="M6.65252 19.5202C6.03433 19.2986 4.8031 18.7295 4.8031 17.7404V14.415H8.49936V17.7404C8.49936 18.7321 7.26813 19.2986 6.65252 19.5202Z" fill="#338AF3"/>
<path d="M7.39172 16.2618V15.5226L6.65247 15.1543L5.91321 15.5226V16.2618L5.5423 16.6327V18.1086H7.76006V16.6327L7.39172 16.2618Z" fill="#F3F3F3"/>
</svg>
