<svg width="34" height="34" viewBox="0 0 34 34" fill="none" xmlns="http://www.w3.org/2000/svg">
<path d="M17.0012 34.001C26.3893 34.001 33.9998 26.3898 33.9998 17.001C33.9998 7.61214 26.3893 0.000976562 17.0012 0.000976562C7.61315 0.000976562 0.00262451 7.61214 0.00262451 17.001C0.00262451 26.3898 7.61315 34.001 17.0012 34.001Z" fill="#F0F0F0"/>
<path d="M17.0012 34.0008C26.389 34.0008 33.9998 26.3895 33.9998 17.0008C33.9998 14.9222 33.6263 12.9286 32.9412 11.0869H1.05855C0.376033 12.9286 0 14.9196 0 17.0008C0 26.3895 7.61073 34.0008 16.9986 34.0008H17.0012Z" fill="#0052B4"/>
<path d="M17.001 34.0011C24.3104 34.0011 30.5406 29.3879 32.941 22.915H1.05835C3.46133 29.3879 9.69157 34.0011 16.9984 34.0011H17.001Z" fill="#D80027"/>
<path d="M4.39917 9.6084V18.0879C4.39917 22.9123 10.7015 24.3907 10.7015 24.3907C10.7015 24.3907 17.0039 22.9123 17.0039 18.0879V9.6084H4.40174H4.39917Z" fill="#F0F0F0"/>
<path d="M5.87762 9.6084V18.0879C5.87762 18.6546 6.00382 19.1903 6.25365 19.6899H15.1496C15.3994 19.1877 15.5256 18.6546 15.5256 18.0879V9.6084H5.8802H5.87762Z" fill="#D80027"/>
<path d="M13.6555 15.5223H11.438V14.0439H12.9163V12.5653H11.438V11.0869H9.9596V12.5653H8.48381V14.0439H9.9596V15.5223H7.74463V17.0008H9.9596V18.4794H11.438V17.0008H13.6555V15.5223Z" fill="#F0F0F0"/>
<path d="M8.26742 21.7558C9.22037 22.3534 10.1991 22.7011 10.6987 22.8557C11.201 22.7011 12.1771 22.3534 13.13 21.7558C14.0907 21.1531 14.7629 20.4628 15.1467 19.6927C14.7243 19.3939 14.2092 19.2187 13.6555 19.2187C13.452 19.2187 13.2562 19.2419 13.0682 19.2857C12.6665 18.3764 11.7573 17.7402 10.7013 17.7402C9.64534 17.7402 8.73359 18.3764 8.33439 19.2857C8.14637 19.2419 7.94805 19.2187 7.74716 19.2187C7.19084 19.2187 6.67573 19.3939 6.25592 19.6927C6.6371 20.4628 7.31189 21.1531 8.27257 21.7558H8.26742Z" fill="#0052B4"/>
</svg>
