<svg width="34" height="34" viewBox="0 0 34 34" fill="none" xmlns="http://www.w3.org/2000/svg">
<path d="M17 34.001C26.3888 34.001 34 26.3898 34 17.001C34 7.61214 26.3888 0.000976562 17 0.000976562C7.61116 0.000976562 0 7.61214 0 17.001C0 26.3898 7.61116 34.001 17 34.001Z" fill="#F0F0F0"/>
<path d="M32.9414 11.0869H14.7823V6.65137H5.91394V11.0869H1.05863C0.376057 12.9285 0 14.9196 0 17.0008C0 19.082 0.373481 21.0731 1.05863 22.9147L17 24.3933L32.9414 22.9147C33.6239 21.0731 34 19.082 34 17.0008C34 14.9196 33.6265 12.9285 32.9414 11.0869Z" fill="#0052B4"/>
<path d="M16.9999 34.0011C24.3099 34.0011 30.5407 29.3879 32.9413 22.915H1.05595C3.45914 29.3879 9.6899 34.0011 16.9973 34.0011H16.9999Z" fill="#D80027"/>
<path d="M5.91386 11.0869V12.5653C5.91386 15.9602 10.3493 17.0009 10.3493 17.0009C10.3493 17.0009 14.7848 15.9602 14.7848 12.5653V11.0869L13.3063 12.5653L10.3493 10.3477L7.39235 12.5653L5.91386 11.0869Z" fill="#F0F0F0"/>
</svg>
