<svg width="34" height="34" viewBox="0 0 34 34" fill="none" xmlns="http://www.w3.org/2000/svg">
<path d="M29.0214 29.0224C35.3966 22.6471 35.649 12.4673 29.7787 5.78809L17 17.0008L5.78738 29.7797C12.4665 35.6501 22.6436 35.3977 29.0214 29.0224Z" fill="#496E2D"/>
<path d="M4.97851 4.97957C11.3537 -1.39572 21.5334 -1.64814 28.2125 4.22228L16.9999 17.0012L4.22123 28.2139C-1.64909 21.5346 -1.39667 11.3574 4.97851 4.97957Z" fill="#0052B4"/>
<path d="M28.2127 4.22237L4.22137 28.214C4.4635 28.4896 4.71592 28.7601 4.97865 29.0228C5.24139 29.2856 5.51186 29.538 5.79005 29.7801L29.7813 5.78852C29.5392 5.5129 29.2868 5.24233 29.0241 4.97702C28.7613 4.71428 28.4909 4.46186 28.2152 4.21973L28.2127 4.22237Z" fill="#FFDA44"/>
<path d="M7.16278 5.91211L7.52852 7.04283H8.71598L7.7552 7.74088L8.12356 8.86921L7.16278 8.17116L6.20196 8.86921L6.56774 7.74088L5.60696 7.04283H6.79442L7.16278 5.91211Z" fill="#F0F0F0"/>
<path d="M13.2289 5.91211L13.5947 7.04283H14.7822L13.8214 7.74088L14.1897 8.86921L13.2289 8.17116L12.2682 8.86921L12.6339 7.74088L11.6731 7.04283H12.8606L13.2289 5.91211Z" fill="#F0F0F0"/>
<path d="M7.16281 11.8262L7.52855 12.9569H8.71601L7.75523 13.6549L8.12359 14.7833L7.16281 14.0852L6.202 14.7833L6.56777 13.6549L5.60699 12.9569H6.79445L7.16281 11.8262Z" fill="#F0F0F0"/>
<path d="M13.2289 11.8262L13.5947 12.9569H14.7822L13.8214 13.6549L14.1897 14.7833L13.2289 14.0852L12.2682 14.7833L12.6339 13.6549L11.6731 12.9569H12.8606L13.2289 11.8262Z" fill="#F0F0F0"/>
<path d="M10.1948 8.86914L10.5631 9.99986H11.7506L10.7898 10.6979L11.1556 11.8262L10.1948 11.1282L9.23399 11.8262L9.60235 10.6979L8.64157 9.99986H9.82903L10.1948 8.86914Z" fill="#F0F0F0"/>
</svg>
