<svg width="34" height="34" viewBox="0 0 34 34" fill="none" xmlns="http://www.w3.org/2000/svg">
<path d="M32.9414 22.915C33.6239 21.0733 34 19.0822 34 17.001C34 14.9197 33.6265 12.9286 32.9414 11.087L17 9.6084L1.05863 11.087C0.376057 12.9286 0 14.9197 0 17.001C0 19.0822 0.373481 21.0733 1.05863 22.915L17 24.3935L32.9414 22.915Z" fill="#F0F0F0"/>
<path d="M17.0001 34.0012C24.3101 34.0012 30.5409 29.388 32.9415 22.915H1.05615C3.45933 29.388 9.6901 34.0012 17.0001 34.0012Z" fill="#D80027"/>
<path d="M17.0001 0.000976562C9.6901 0.000976562 3.45933 4.61422 1.05615 11.0872H32.9415C30.5383 4.61422 24.3075 0.000976562 17.0001 0.000976562Z" fill="#496E2D"/>
<path d="M17.0001 13.3057L17.9171 16.1287H20.8869L18.4837 17.8752L19.4007 20.6982L17.0001 18.9518L14.5995 20.6982L15.5165 17.8752L13.1133 16.1287H16.0831L17.0001 13.3057Z" fill="black"/>
<path d="M22.0509 3.32617V6.77506C22.0509 7.31855 21.6079 7.76161 21.0644 7.76161V9.24017C22.4218 9.24017 23.5294 8.13508 23.5294 6.77506V3.32617H22.0509Z" fill="#F0F0F0"/>
<path d="M11.4568 6.77506C11.4568 7.31855 11.0138 7.76161 10.4703 7.76161V9.24017C11.8278 9.24017 12.9353 8.13508 12.9353 6.77506V3.32617H11.4568V6.77506Z" fill="#F0F0F0"/>
<path d="M21.3116 3.32617H19.8331V6.77506H21.3116V3.32617Z" fill="#F0F0F0"/>
<path d="M17.6156 5.29914C17.6156 5.43566 17.5049 5.54641 17.3683 5.54641C17.2318 5.54641 17.121 5.43566 17.121 5.29914V3.32869H15.6426V5.29914C15.6426 5.43566 15.5318 5.54641 15.3953 5.54641C15.2588 5.54641 15.148 5.43566 15.148 5.29914V3.32869H13.6695V5.29914C13.6695 6.24961 14.4423 7.02497 15.3953 7.02497C15.7611 7.02497 16.101 6.90907 16.3818 6.71331C16.6626 6.90907 17 7.02497 17.3683 7.02497C17.443 7.02497 17.5152 7.0198 17.5847 7.0095C17.4791 7.44223 17.0902 7.76161 16.6291 7.76161V9.24017C17.9865 9.24017 19.0941 8.13508 19.0941 6.77506V3.32617H17.6156V5.29662V5.29914Z" fill="#F0F0F0"/>
<path d="M15.892 7.76074H13.6743V9.2393H15.892V7.76074Z" fill="#F0F0F0"/>
</svg>
