<svg width="34" height="34" viewBox="0 0 34 34" fill="none" xmlns="http://www.w3.org/2000/svg">
<path d="M17 34.001C26.3888 34.001 34 26.3898 34 17.001C34 7.61214 26.3888 0.000976562 17 0.000976562C7.61116 0.000976562 0 7.61214 0 17.001C0 26.3898 7.61116 34.001 17 34.001Z" fill="#F0F0F0"/>
<path d="M32.6735 10.4097C30.0977 4.29481 24.0524 0.000976562 17 0.000976562C12.3044 0.000976562 8.05697 1.90448 4.97894 4.97994L9.23668 10.4097H32.6735Z" fill="black"/>
<path d="M9.2856 23.5303L4.97894 29.0217C8.0544 32.0972 12.3044 34.0007 17 34.0007C24.0756 34.0007 30.1415 29.6786 32.6992 23.5303H9.2856Z" fill="#496E2D"/>
<path d="M3.696 12.5036V21.4337H33.4151C33.7963 20.0197 33.9998 18.5335 33.9998 16.9984C33.9998 15.4632 33.7911 13.9331 33.397 12.501H3.69342L3.696 12.5036Z" fill="#A2001D"/>
<path d="M4.97897 4.97949C-1.65876 11.6172 -1.65876 22.3813 4.97897 29.0216C7.72215 26.2784 10.3597 23.6408 17 17.0005L4.97897 4.97949Z" fill="#0052B4"/>
<path d="M5.53803 12.7744L7.61153 15.6696L11.0064 14.5904L8.89425 17.4597L10.9703 20.3549L7.58832 19.2319L5.47621 22.1012L5.49942 18.5391L2.12 17.4159L5.51483 16.3367L5.53803 12.7744Z" fill="#FFDA44"/>
</svg>
