<svg width="34" height="34" viewBox="0 0 34 34" fill="none" xmlns="http://www.w3.org/2000/svg">
<path d="M17 34.001C26.3888 34.001 34 26.3898 34 17.001C34 7.61214 26.3888 0.000976562 17 0.000976562C7.61116 0.000976562 0 7.61214 0 17.001C0 26.3898 7.61116 34.001 17 34.001Z" fill="#F0F0F0"/>
<path d="M22.914 17.0008C22.914 18.4793 20.2661 22.1755 17 22.1755C13.734 22.1755 11.0861 18.4793 11.0861 17.0008C11.0861 13.7348 13.734 11.0869 17 11.0869C20.2661 11.0869 22.914 13.7348 22.914 17.0008Z" fill="#D80027"/>
<path d="M22.914 17.001C22.914 20.267 20.2661 22.9149 17 22.9149C13.734 22.9149 11.0861 20.267 11.0861 17.001" fill="#0052B4"/>
<path d="M24.8398 20.6584L23.2717 22.2266L24.3171 23.272L25.8852 21.7038L24.8398 20.6584Z" fill="black"/>
<path d="M22.226 23.2726L20.6578 24.8408L21.7033 25.8863L23.2715 24.3181L22.226 23.2726Z" fill="black"/>
<path d="M27.9745 23.7951L26.4063 25.3633L27.4517 26.4087L29.0199 24.8405L27.9745 23.7951Z" fill="black"/>
<path d="M25.3648 26.4093L23.7966 27.9775L24.8421 29.023L26.4102 27.4548L25.3648 26.4093Z" fill="black"/>
<path d="M26.4052 22.2267L24.837 23.7949L25.8824 24.8403L27.4506 23.2721L26.4052 22.2267Z" fill="black"/>
<path d="M23.7953 24.841L22.2271 26.4092L23.2725 27.4546L24.8407 25.8864L23.7953 24.841Z" fill="black"/>
<path d="M23.2727 6.54635L22.2273 7.5918L26.4091 11.7736L27.4545 10.7281L23.2727 6.54635Z" fill="black"/>
<path d="M21.7061 8.11666L20.6606 9.16211L22.2289 10.7303L23.2743 9.6849L21.7061 8.11666Z" fill="black"/>
<path d="M24.318 10.729L23.2725 11.7744L24.8407 13.3426L25.8861 12.2971L24.318 10.729Z" fill="black"/>
<path d="M24.839 4.98092L23.7935 6.02637L25.3617 7.59451L26.4071 6.54907L24.839 4.98092Z" fill="black"/>
<path d="M27.4541 7.5942L26.4087 8.63965L27.9768 10.2078L29.0223 9.16235L27.4541 7.5942Z" fill="black"/>
<path d="M6.02481 23.7934L4.97937 24.8389L9.16115 29.0206L10.2066 27.9752L6.02481 23.7934Z" fill="black"/>
<path d="M10.2054 24.8393L9.15991 25.8848L10.7281 27.4529L11.7735 26.4075L10.2054 24.8393Z" fill="black"/>
<path d="M7.59171 22.227L6.54626 23.2725L8.11441 24.8406L9.15985 23.7952L7.59171 22.227Z" fill="black"/>
<path d="M9.16056 20.6596L8.11511 21.7051L12.2969 25.8869L13.3423 24.8414L9.16056 20.6596Z" fill="black"/>
<path d="M9.16268 4.97935L4.9809 9.16113L6.02639 10.2066L10.2082 6.02484L9.16268 4.97935Z" fill="black"/>
<path d="M10.7285 6.54478L6.54669 10.7266L7.59218 11.7721L11.774 7.59027L10.7285 6.54478Z" fill="black"/>
<path d="M12.2951 8.11705L8.11334 12.2988L9.15883 13.3443L13.3406 9.16254L12.2951 8.11705Z" fill="black"/>
</svg>
