<svg width="34" height="34" viewBox="0 0 34 34" fill="none" xmlns="http://www.w3.org/2000/svg">
<path d="M17 34.0008C26.3888 34.0008 34 26.3896 34 17.0009C34 7.61209 26.3888 0.000976562 17 0.000976562C7.61116 0.000976562 0 7.61209 0 17.0009C0 26.3896 7.61116 34.0008 17 34.0008Z" fill="#F0F0F0"/>
<path d="M4.97894 29.0214C-1.65879 22.3837 -1.65879 11.6198 4.97894 4.97949L14.7822 17.0005L4.97894 29.0214Z" fill="black"/>
<path d="M14.7819 17.0007L2.25345 8.53418C1.86451 9.20902 1.52194 9.91476 1.2283 10.6437L7.56978 17.0007L1.2283 23.3576C1.52194 24.0866 1.86451 24.7897 2.25345 25.4645L14.7819 17.0007Z" fill="#FFDA44"/>
<path d="M33.8558 14.7828H14.7823L4.979 4.97949C3.92294 6.03555 3.00595 7.23064 2.25383 8.53396L10.7023 17.0005L2.25125 25.4643C3.0008 26.7676 3.92036 27.9628 4.97642 29.0189L14.7797 19.2156H33.8532C33.9485 18.4893 33.9975 17.7501 33.9975 16.9979C33.9975 16.2458 33.9485 15.5065 33.8532 14.7801L33.8558 14.7828Z" fill="#6DA544"/>
<path d="M6.65067 30.4876C9.51748 32.6898 13.1055 34.0009 17 34.0009C24.8535 34.0009 31.4629 28.6744 33.4153 21.4365H15.7019L6.65067 30.4876Z" fill="#0052B4"/>
<path d="M33.4153 12.5654C31.4655 5.32755 24.8561 0.000976562 17 0.000976562C13.1055 0.000976562 9.51748 1.31206 6.65067 3.51432L15.7019 12.5654H33.4153Z" fill="#D80027"/>
</svg>
