<svg width="34" height="34" viewBox="0 0 34 34" fill="none" xmlns="http://www.w3.org/2000/svg">
<path d="M0 17.0009C0 19.0795 0.373512 21.0731 1.05866 22.9148L17 24.3933L32.9413 22.9148C33.6239 21.0731 34 19.0821 34 17.0009C34 14.9197 33.6265 12.9286 32.9413 11.0869L17 9.6084L1.05866 11.0869C0.376088 12.9286 0 14.9197 0 17.0009Z" fill="#FFDA44"/>
<path d="M32.941 11.087C30.5378 4.61417 24.3071 0.000976562 16.9997 0.000976562C9.69226 0.000976562 3.45896 4.61417 1.05835 11.087H32.9436H32.941Z" fill="#D80027"/>
<path d="M1.05873 22.915C3.46191 29.3879 9.69264 34.0011 17.0001 34.0011C24.3075 34.0011 30.5408 29.3879 32.9414 22.915H1.05615H1.05873Z" fill="#D80027"/>
</svg>
