<svg width="34" height="34" viewBox="0 0 34 34" fill="none" xmlns="http://www.w3.org/2000/svg">
<path d="M17 34.001C26.3888 34.001 34 26.3898 34 17.001C34 7.61214 26.3888 0.000976562 17 0.000976562C7.61116 0.000976562 0 7.61214 0 17.001C0 26.3898 7.61116 34.001 17 34.001Z" fill="#FFDA44"/>
<path d="M13.3033 2.95801H7.41774C7.15759 3.13574 6.90259 3.32123 6.65274 3.51441L5.17426 17.001L6.65274 30.4877C6.90259 30.6809 7.15759 30.8664 7.41774 31.0441H13.3033V2.95801Z" fill="#FF9811"/>
<path d="M0 17.001C0 22.4951 2.60667 27.3813 6.65318 30.4876V3.51172C2.60924 6.62066 0 11.5044 0 16.9985V17.001Z" fill="#6DA544"/>
<path d="M27.3467 10.3662V10.7903L27.3647 10.7928L27.3467 10.3662Z" fill="#FFDA44"/>
<path d="M32.6449 21.4366H29.4407L28.0858 22.915V25.8719H25.1288V24.3935H26.6073V21.4366H19.9541V23.2833H18.4757V19.7623C18.0223 19.3553 17.7364 18.7655 17.7364 18.1112V8.50356C17.7364 7.28007 18.7281 6.28587 19.9541 6.28587V19.9606H22.9111L23.926 19.1157C23.7482 18.6933 23.6504 18.2296 23.6504 17.7428V15.5251H21.4326V11.0896H25.8681C25.8681 10.3504 26.9757 9.61121 26.9757 9.61121C26.9757 9.61121 28.0832 10.3504 28.0832 11.0896V15.5251C28.9049 15.5354 30.2108 15.5148 31.6223 15.5251C31.2514 14.876 31.0376 14.1085 31.0376 13.3074C31.0376 12.0041 31.6017 10.8296 32.4981 10.0182C31.2051 7.15396 29.1444 4.71467 26.5764 2.95801H15.5161V31.0441H26.5764C29.6982 28.9088 32.0731 25.7612 33.2244 22.0727L32.6397 21.4339L32.6449 21.4366Z" fill="#A2001D"/>
</svg>
