<svg width="34" height="34" viewBox="0 0 34 34" fill="none" xmlns="http://www.w3.org/2000/svg">
<path d="M17 34.001C26.3888 34.001 34 26.3898 34 17.001C34 7.61216 26.3888 0.000976562 17 0.000976562C7.61115 0.000976562 0 7.61216 0 17.001C0 26.3898 7.61115 34.001 17 34.001Z" fill="#F0F0F0"/>
<path d="M30.3526 13.6753H24.759C24.759 12.6546 23.9316 11.8271 22.9108 11.8271L21.4338 14.7837C21.4338 14.7837 23.0113 19.2174 22.9624 19.2174H24.8106C25.8313 19.2174 26.6588 18.39 26.6588 17.3692C27.6796 17.3692 28.507 16.5417 28.507 15.5209H28.4452C29.4659 15.5209 30.3552 14.6935 30.3552 13.6727L30.3526 13.6753Z" fill="#ACABB1"/>
<path d="M3.6479 13.6753H9.24154C9.24154 12.6546 10.069 11.8271 11.0898 11.8271L12.5668 14.7837C12.5668 14.7837 10.9892 19.2174 11.0382 19.2174H9.18998C8.16921 19.2174 7.34176 18.39 7.34176 17.3692C6.32099 17.3692 5.49355 16.5417 5.49355 15.5209H5.55541C4.53464 15.5209 3.64532 14.6935 3.64532 13.6727L3.6479 13.6753Z" fill="#ACABB1"/>
<path d="M22.9136 23.6514V24.3912H11.0896V23.6514H8.133V26.608H11.0896V27.3479H22.9136V26.608H25.8702V23.6514H22.9136Z" fill="#FFDA44"/>
<path d="M11.0896 11.8277V19.218C11.0896 23.7444 17.0029 25.1312 17.0029 25.1312C17.0029 25.1312 22.9161 23.7444 22.9161 19.218V11.8277L17.0029 11.0879L11.0896 11.8277Z" fill="#0052B4"/>
<path d="M22.9161 14.7842H11.0896V19.2179H22.9161V14.7842Z" fill="#D80027"/>
<path d="M19.9569 8.13132V9.2398L19.2197 9.61098L18.4799 8.87115V6.6543H15.5233V8.87115L14.7835 9.61098L14.0462 9.2398V8.13132H11.0896V11.8278H22.9136V8.13132H19.9569Z" fill="#FFDA44"/>
</svg>
