<svg width="34" height="34" viewBox="0 0 34 34" fill="none" xmlns="http://www.w3.org/2000/svg">
<path d="M25.1318 2.06674C22.7157 0.747951 19.9468 0.000976562 17.0002 0.000976562C14.0535 0.000976562 11.2846 0.750527 8.86858 2.06674L7.39008 17.001L8.86858 31.9352C11.2846 33.254 14.0535 34.001 17.0002 34.001C19.9468 34.001 22.7157 33.2514 25.1318 31.9352L26.6103 17.001L25.1318 2.06674Z" fill="#FFDA44"/>
<path d="M8.86828 31.9324V2.06641C3.58286 4.94868 0 10.5561 0 17.0006C0 23.4452 3.58544 29.0501 8.86828 31.9324Z" fill="#338AF3"/>
<path d="M34.0002 17.0006C34.0002 10.5561 30.4147 4.95125 25.1319 2.06641V31.9324C30.4173 29.0501 34.0002 23.4426 34.0002 17.0006Z" fill="#6DA544"/>
<path d="M13.3041 21.4364L10.3472 17.0009L13.3041 12.5654L16.2611 17.0009L13.3041 21.4364Z" fill="#6DA544"/>
<path d="M20.6964 21.4364L17.7394 17.0009L20.6964 12.5654L23.6533 17.0009L20.6964 21.4364Z" fill="#6DA544"/>
<path d="M17.0006 27.3477L14.0436 22.9149L17.0006 18.4795L19.9575 22.9149L17.0006 27.3477Z" fill="#6DA544"/>
</svg>
