<svg width="34" height="34" viewBox="0 0 34 34" fill="none" xmlns="http://www.w3.org/2000/svg">
<path d="M1.68713 9.60829C0.605316 11.844 0 14.3503 0 17.0007C0 19.6511 0.605316 22.1574 1.68713 24.3931L17 25.8715L32.3129 24.3931C33.3947 22.1574 34 19.6511 34 17.0007C34 14.3503 33.3947 11.844 32.3129 9.60829L17 8.12988L1.68713 9.60829Z" fill="#F0F0F0"/>
<path d="M1.68724 24.3936C4.43557 30.0808 10.2593 34.001 17.0001 34.001C23.7409 34.001 29.5621 30.0782 32.313 24.3936H1.68724Z" fill="black"/>
<path d="M1.68724 9.60841H32.313C29.5646 3.92119 23.7409 0.000976562 17.0001 0.000976562C10.2593 0.000976562 4.43815 3.92377 1.68724 9.60841Z" fill="#D80027"/>
<path d="M4.97895 4.98047C-1.65878 11.6181 -1.65878 22.3821 4.97895 29.0223C7.72213 26.2792 10.3597 23.6416 17 17.0014L4.97895 4.98047Z" fill="#496E2D"/>
</svg>
