<svg width="34" height="34" viewBox="0 0 34 34" fill="none" xmlns="http://www.w3.org/2000/svg">
<path d="M17.0001 34.001C26.3889 34.001 34 26.3898 34 17.001C34 7.61214 26.3889 0.000976562 17.0001 0.000976562C7.61135 0.000976562 0.000244141 7.61214 0.000244141 17.001C0.000244141 26.3898 7.61135 34.001 17.0001 34.001Z" fill="#F0F0F0"/>
<path d="M32.9411 11.0869H1.05605C0.373476 12.9286 0 14.9196 0 17.0008C0 19.0821 0.373476 21.0731 1.05605 22.9148H32.9411C33.6237 21.0731 33.9998 19.0821 33.9998 17.0008C33.9998 14.9196 33.6263 12.9286 32.9411 11.0869Z" fill="#A2001D"/>
<path d="M17.0489 34.0009C22.8727 34.0009 28.0087 31.0722 31.0739 26.6084H3.02405C6.0866 31.0722 11.2252 34.0009 17.0489 34.0009Z" fill="#6DA544"/>
<path d="M17.049 0.000976562C22.8727 0.000976562 28.0088 2.92966 31.0739 7.39345H3.02411C6.08666 2.92966 11.2253 0.000976562 17.049 0.000976562Z" fill="#6DA544"/>
<path d="M16.9997 11.0869L18.4678 15.6048H23.2175L19.3745 18.3969L20.8427 22.9148L16.9997 20.1227L13.1567 22.9148L14.6248 18.3969L10.7818 15.6048H15.5315L16.9997 11.0869Z" fill="#FFDA44"/>
</svg>
