<svg width="34" height="34" viewBox="0 0 34 34" fill="none" xmlns="http://www.w3.org/2000/svg">
<path d="M32.3126 24.3941C33.3943 22.1583 33.9996 19.6521 33.9996 17.0017C33.9996 14.3512 33.3943 11.845 32.3126 9.60926L17.0009 8.87012L1.6892 9.60926C0.607467 11.845 0.00219727 14.3512 0.00219727 17.0017C0.00219727 19.6521 0.607467 22.1583 1.6892 24.3941L17.0009 25.1332L32.3126 24.3941Z" fill="#FFDA44"/>
<path d="M17.0013 0.000976562C10.2611 0.000976562 4.43776 3.92377 1.68964 9.60841H32.313C29.5623 3.92119 23.7416 0.000976562 17.0013 0.000976562Z" fill="black"/>
<path d="M17.0013 34.001C10.2611 34.001 4.43776 30.0782 1.68964 24.3936H32.313C29.5623 30.0808 23.7416 34.001 17.0013 34.001Z" fill="#0052B4"/>
<path d="M33.1964 11.8262H0.803606C0.283342 13.4566 0 15.1952 0 17.0008C0 18.8064 0.280766 20.5424 0.803606 22.1754H33.1964C33.7167 20.5449 34 18.8064 34 17.0008C34 15.1952 33.7192 13.4592 33.1964 11.8262Z" fill="#A2001D"/>
<path d="M28.0891 16.2617H5.91608V17.7402H28.0891V16.2617Z" fill="#FFDA44"/>
<path d="M25.1296 13.3047H8.87006V14.7832H25.1296V13.3047Z" fill="#FFDA44"/>
<path d="M25.2378 17.0009C25.2378 17.0009 21.4363 21.4364 17.0012 21.4364C12.5661 21.4364 12.5661 17.0009 12.5661 17.0009C12.5661 17.0009 12.5661 12.5654 17.0012 12.5654C21.4363 12.5654 25.2378 17.0009 25.2378 17.0009Z" fill="#F0F0F0"/>
<path d="M17.0014 21.4364C12.5663 21.4364 8.76474 17.0009 8.76474 17.0009C8.76474 17.0009 12.5663 12.5654 17.0014 12.5654" fill="black"/>
<path d="M15.5227 15.5225H14.0443V18.4795H15.5227V15.5225Z" fill="#F0F0F0"/>
<path d="M19.9581 15.5225H18.4797V18.4795H19.9581V15.5225Z" fill="black"/>
<path d="M5.91578 18.4795C6.73226 18.4795 7.39415 17.8175 7.39415 17.001C7.39415 16.1845 6.73226 15.5225 5.91578 15.5225C5.0993 15.5225 4.43741 16.1845 4.43741 17.001C4.43741 17.8175 5.0993 18.4795 5.91578 18.4795Z" fill="#0052B4"/>
<path d="M28.086 18.4795C28.9025 18.4795 29.5644 17.8175 29.5644 17.001C29.5644 16.1845 28.9025 15.5225 28.086 15.5225C27.2695 15.5225 26.6076 16.1845 26.6076 17.001C26.6076 17.8175 27.2695 18.4795 28.086 18.4795Z" fill="#0052B4"/>
</svg>
