<svg width="34" height="34" viewBox="0 0 34 34" fill="none" xmlns="http://www.w3.org/2000/svg">
<path d="M17 34.001C26.3888 34.001 34 26.3898 34 17.001C34 7.61214 26.3888 0.000976562 17 0.000976562C7.61116 0.000976562 0 7.61214 0 17.001C0 26.3898 7.61116 34.001 17 34.001Z" fill="#FFDA44"/>
<path d="M13.3033 14.7833H33.8553C32.7683 6.44298 25.636 0.000976562 16.9995 0.000976562C15.7297 0.000976562 14.4933 0.140022 13.3033 0.405325V14.7833Z" fill="#0052B4"/>
<path d="M8.86793 14.783V2.06641C4.20066 4.61383 0.857357 9.28628 0.141296 14.783H8.86793Z" fill="#0052B4"/>
<path d="M8.86793 19.2188H0.141296C0.857357 24.7154 4.19808 29.3879 8.86793 31.9353V19.2188Z" fill="#0052B4"/>
<path d="M13.3033 19.2188V33.5967C14.4933 33.8594 15.7297 34.0011 16.9995 34.0011C25.636 34.0011 32.7683 27.5591 33.8553 19.2188H13.3033Z" fill="#0052B4"/>
</svg>
