<svg width="34" height="34" viewBox="0 0 34 34" fill="none" xmlns="http://www.w3.org/2000/svg">
<path d="M17 34.0004C26.3888 34.0004 34 26.3894 34 17.0007C34 7.61202 26.3888 0.000976562 17 0.000976562C7.61116 0.000976562 0 7.61202 0 17.0007C0 26.3894 7.61116 34.0004 17 34.0004Z" fill="#F0F0F0"/>
<path d="M16.9999 0.000976562C9.68993 0.000976562 3.4592 4.6141 1.05859 11.0869H32.9438C30.5407 4.6141 24.3099 0.000976562 16.9999 0.000976562Z" fill="#D80027"/>
<path d="M17.0001 34.0009C24.3101 34.0009 30.5408 29.3878 32.9414 22.915H1.05615C3.45933 29.3878 9.69006 34.0009 16.9975 34.0009H17.0001Z" fill="black"/>
<path d="M10.1587 12.9365L11.0757 15.7595H14.043L11.6423 17.5033L12.5593 20.3262L10.1587 18.5825L7.75555 20.3262L8.67247 17.5033L6.27191 15.7595H9.23919L10.1587 12.9365Z" fill="#6DA544"/>
<path d="M23.8412 12.9365L24.7607 15.7595H27.728L25.3274 17.5033L26.2444 20.3262L23.8412 18.5825L21.4406 20.3262L22.3576 17.5033L19.957 15.7595H22.9242L23.8412 12.9365Z" fill="#6DA544"/>
</svg>
