<svg width="34" height="34" viewBox="0 0 34 34" fill="none" xmlns="http://www.w3.org/2000/svg">
<path d="M34 17.001C34 26.3896 26.3886 34.001 17 34.001C7.61136 34.001 0 26.3896 0 17.001C5.83924 11.1617 10.7924 6.20855 17 0.000976562C26.3886 0.000976562 34 7.61234 34 17.001Z" fill="#D80027"/>
<path d="M17 17.001V0.000976562C7.61136 0.000976562 0 7.61234 0 17.001H17Z" fill="#0052B4"/>
<path d="M14.782 9.95189L12.706 10.9281L13.811 12.9373L11.5572 12.507L11.2713 14.7841L9.70006 13.1098L8.13143 14.7841L7.84552 12.507L5.59173 12.9373L6.69673 10.9281L4.62067 9.95189L6.69673 8.97315L5.59173 6.96399L7.84552 7.39424L8.13143 5.11719L9.70006 6.79143L11.2713 5.11719L11.5572 7.39424L13.811 6.96399L12.706 8.97315L14.782 9.95189Z" fill="#F0F0F0"/>
<path d="M9.70247 13.1144C11.4508 13.1144 12.8681 11.6971 12.8681 9.94882C12.8681 8.2005 11.4508 6.7832 9.70247 6.7832C7.95416 6.7832 6.53687 8.2005 6.53687 9.94882C6.53687 11.6971 7.95416 13.1144 9.70247 13.1144Z" fill="#0052B4"/>
<path d="M9.69976 11.635C8.76991 11.635 8.01263 10.8778 8.01263 9.94794C8.01263 9.01809 8.76991 8.26074 9.69976 8.26074C10.6296 8.26074 11.3869 9.01809 11.3869 9.94794C11.3869 10.8778 10.6296 11.635 9.69976 11.635Z" fill="#F0F0F0"/>
</svg>
