<svg width="34" height="34" viewBox="0 0 34 34" fill="none" xmlns="http://www.w3.org/2000/svg">
<path d="M1.68712 9.60926C0.6053 11.845 0 14.3512 0 17.0017C0 19.6521 0.6053 22.1583 1.68712 24.3941L17 25.8725L32.3129 24.3941C33.3947 22.1583 34 19.6521 34 17.0017C34 14.3512 33.3947 11.845 32.3129 9.60926L17 8.13086L1.68712 9.60926Z" fill="#F0F0F0"/>
<path d="M1.68683 24.3936C4.43774 30.0808 10.259 34.001 16.9997 34.001C23.7405 34.001 29.5617 30.0782 32.3126 24.3936H1.68683Z" fill="#6DA544"/>
<path d="M1.68683 9.60841H32.3126C29.5643 3.92119 23.7405 0.000976562 16.9997 0.000976562C10.259 0.000976562 4.43774 3.92377 1.68683 9.60841Z" fill="#D80027"/>
<path d="M14.0427 21.4364H19.9566V18.9225L18.7743 19.5148L16.9996 17.7402L15.2249 19.5148L14.0427 18.9225V21.4364Z" fill="#FFDA44"/>
<path d="M10.6611 18.4805L10.9367 19.3278H11.8253L11.1067 19.8507L11.3797 20.6981L10.6611 20.1752L9.93987 20.6981L10.2155 19.8507L9.49426 19.3278H10.3855L10.6611 18.4805Z" fill="#FFDA44"/>
<path d="M11.5133 15.5234L11.7889 16.3709H12.6801L11.9589 16.8938L12.2345 17.7412L11.5133 17.2183L10.792 17.7412L11.0676 16.8938L10.3464 16.3709H11.2376L11.5133 15.5234Z" fill="#FFDA44"/>
<path d="M13.9526 13.3057L14.2282 14.1531H15.1194L14.3982 14.676L14.6738 15.5233L13.9526 15.0005L13.2314 15.5233L13.507 14.676L12.7858 14.1531H13.677L13.9526 13.3057Z" fill="#FFDA44"/>
<path d="M23.3389 18.4805L23.0632 19.3278H22.1746L22.8933 19.8507L22.6202 20.6981L23.3389 20.1752L24.0601 20.6981L23.7845 19.8507L24.5057 19.3278H23.6145L23.3389 18.4805Z" fill="#FFDA44"/>
<path d="M22.4862 15.5234L22.2106 16.3709H21.3194L22.0406 16.8938L21.765 17.7412L22.4862 17.2183L23.2074 17.7412L22.9318 16.8938L23.653 16.3709H22.7618L22.4862 15.5234Z" fill="#FFDA44"/>
<path d="M20.0471 13.3057L19.7715 14.1531H18.8803L19.6015 14.676L19.3259 15.5233L20.0471 15.0005L20.7683 15.5233L20.4927 14.676L21.2139 14.1531H20.3227L20.0471 13.3057Z" fill="#FFDA44"/>
<path d="M16.9996 12.1982L17.2753 13.0457H18.1665L17.4453 13.5685L17.7209 14.4159L16.9996 13.8905L16.2784 14.4159L16.554 13.5685L15.8328 13.0457H16.724L16.9996 12.1982Z" fill="#FFDA44"/>
</svg>
