<svg width="34" height="34" viewBox="0 0 34 34" fill="none" xmlns="http://www.w3.org/2000/svg">
<path d="M17 34.001C26.3888 34.001 34 26.3898 34 17.001C34 7.61214 26.3888 0.000976562 17 0.000976562C7.61116 0.000976562 0 7.61214 0 17.001C0 26.3898 7.61116 34.001 17 34.001Z" fill="#FFDA44"/>
<path d="M4.97884 29.022C5.69232 29.7355 6.45217 30.3718 7.25066 30.9307L30.9296 7.25174C30.3707 6.45325 29.7344 5.69345 29.021 4.97997C28.3075 4.26648 27.5476 3.63023 26.7491 3.07129L3.07019 26.7503C3.62913 27.5488 4.26535 28.3086 4.97884 29.022Z" fill="black"/>
<path d="M4.97915 4.98049C-0.38358 10.3432 -1.41388 18.3975 1.88824 24.7957L24.7945 1.88958C18.3963 -1.41254 10.3419 -0.382238 4.97915 4.98049Z" fill="#6DA544"/>
<path d="M29.0211 29.0223C34.3838 23.6595 35.4141 15.6052 32.112 9.20703L9.20581 32.1132C15.604 35.4153 23.6584 34.385 29.0211 29.0223Z" fill="#338AF3"/>
</svg>
