<svg width="34" height="34" viewBox="0 0 34 34" fill="none" xmlns="http://www.w3.org/2000/svg">
<path d="M17.0013 34.0002C26.3893 34.0002 33.9999 26.3892 33.9999 17.0006C33.9999 7.61196 26.3893 0.000976562 17.0013 0.000976562C7.61317 0.000976562 0.00262451 7.61196 0.00262451 17.0006C0.00262451 26.3892 7.61317 34.0002 17.0013 34.0002Z" fill="#F0F0F0"/>
<path d="M32.9413 11.0869H1.05855C0.376026 12.9285 0 14.9195 0 17.0007C0 19.0819 0.373451 21.0729 1.05855 22.9145H32.9413C33.6238 21.0729 33.9973 19.0819 33.9973 17.0007C33.9973 14.9195 33.6238 12.9285 32.9387 11.0869H32.9413Z" fill="#0052B4"/>
<path d="M17.0014 0.000976562C11.8503 0.000976562 7.23232 2.29334 4.11591 5.91477H29.8869C26.7705 2.29334 22.1525 0.000976562 17.0014 0.000976562Z" fill="#D80027"/>
<path d="M29.887 28.0869H4.11603C7.23244 31.7083 11.8504 34.0007 17.0015 34.0007C22.1526 34.0007 26.7706 31.7083 29.887 28.0869Z" fill="#D80027"/>
</svg>
