<svg width="34" height="34" viewBox="0 0 34 34" fill="none" xmlns="http://www.w3.org/2000/svg">
<path d="M17.0026 34.0007C26.3899 34.0007 33.9999 26.3896 33.9999 17.0008C33.9999 7.61207 26.3899 0.000976562 17.0026 0.000976562C7.61521 0.000976562 0.00524902 7.61207 0.00524902 17.0008C0.00524902 26.3896 7.61521 34.0007 17.0026 34.0007Z" fill="#F0F0F0"/>
<path d="M7.42218 2.95792C10.1495 1.09308 13.4485 0.000976562 17.0025 0.000976562C20.5565 0.000976562 23.8555 1.09308 26.5828 2.95792L17.0025 3.69718L7.42218 2.95792Z" fill="#FFDA44"/>
<path d="M4.9833 29.0229L12.8201 21.185L16.9999 14.0475L21.1797 21.185L29.0165 29.0229C32.0915 25.9474 33.9947 21.6975 33.9947 17.0019C33.9947 11.1679 31.0562 6.01896 26.5777 2.95898H7.41703C2.93849 6.02154 0 11.1679 0 17.0019C0 21.6975 1.90321 25.9448 4.97818 29.0229H4.9833Z" fill="#D80027"/>
<path d="M32.7096 23.5099L20.2835 18.3584L21.1849 21.1789L29.0243 29.0194C30.5901 27.4534 31.852 25.5859 32.7122 23.5099H32.7096Z" fill="#0052B4"/>
<path d="M33.9996 17.0011C33.9996 14.6958 33.5412 12.4961 32.7093 10.4922L17.0023 17.0011H33.9996Z" fill="#0052B4"/>
<path d="M29.0214 4.97957C28.2746 4.23261 27.4582 3.55522 26.5826 2.95508H22.82L17.0023 16.998L29.0214 4.97693V4.97957Z" fill="#0052B4"/>
<path d="M17.002 2.95801H11.1843L17.002 17.0009V2.95801Z" fill="#0052B4"/>
<path d="M4.98293 4.98018C3.41712 6.54623 2.15779 8.41367 1.29504 10.4897L17.0021 16.9986L4.98293 4.97754V4.98018Z" fill="#0052B4"/>
<path d="M0.00488281 17.001C0.00488281 19.3063 0.463298 21.5059 1.29514 23.5099L17.0022 17.001H0.00488281Z" fill="#0052B4"/>
<path d="M7.42212 31.0439C10.1494 32.9088 13.4484 34.0009 17.0024 34.0009C20.5564 34.0009 23.8554 32.9088 26.5827 31.0439H7.42212Z" fill="#FFDA44"/>
<path d="M17.0026 17.0008L21.1824 21.1812C22.2512 20.1123 22.913 18.6338 22.913 17.0008C22.913 13.7348 20.2656 11.0869 17 11.0869C13.7345 11.0869 11.087 13.7348 11.087 17.0008C11.087 18.6338 11.7489 20.1123 12.8177 21.1812L16.9975 17.0008H17.0026Z" fill="#FFDA44"/>
<path d="M19.5883 25.5011C19.5883 26.9306 18.4294 27.3479 17.0027 27.3479C15.5759 27.3479 14.417 26.928 14.417 25.5011C14.417 24.0741 15.5759 22.915 17.0027 22.915C18.4294 22.915 19.5883 24.0741 19.5883 25.5011Z" fill="#FFDA44"/>
<path d="M19.5883 25.501C19.5883 26.9305 18.4293 28.087 17.0026 28.087C15.5758 28.087 14.4169 26.9279 14.4169 25.501" fill="#0052B4"/>
</svg>
