<svg width="34" height="34" viewBox="0 0 34 34" fill="none" xmlns="http://www.w3.org/2000/svg">
<path d="M17 34.0006C26.3888 34.0006 34 26.3895 34 17.0008C34 7.61205 26.3888 0.000976562 17 0.000976562C7.61116 0.000976562 0 7.61205 0 17.0008C0 26.3895 7.61116 34.0006 17 34.0006Z" fill="#FFDA44"/>
<path d="M16.9998 0.000976562L16.2606 6.80088H30.5998C27.4986 2.67198 22.5609 0.000976562 16.9998 0.000976562Z" fill="#496E2D"/>
<path d="M16.9998 34.0011C22.5609 34.0011 27.4986 31.3301 30.5998 27.2012H3.39722C6.49843 31.3301 11.4362 34.0011 16.9972 34.0011H16.9998Z" fill="#496E2D"/>
<path d="M33.6598 13.6016H16.2606L16.9998 20.4016H33.6598C33.8839 19.3043 33.9998 18.1658 33.9998 17.0016C33.9998 15.8373 33.8813 14.7014 33.6598 13.6016Z" fill="#496E2D"/>
<path d="M17 20.4008V0.000976562C7.61136 0.000976562 0 7.61226 0 17.0008C0 18.165 0.118471 19.301 0.339986 20.4008H17Z" fill="#D80027"/>
<path d="M9.38064 8.13281L10.4805 11.52H14.0428L11.1605 13.614L12.2629 17.0011L9.38064 14.9071L6.49835 17.0011L7.5982 13.614L4.71594 11.52H8.2782L9.38064 8.13281Z" fill="#F0F0F0"/>
</svg>
