<svg width="34" height="34" viewBox="0 0 34 34" fill="none" xmlns="http://www.w3.org/2000/svg">
<path d="M17.0014 34.0011C26.3896 34.0011 34.0003 26.3899 34.0003 17.001C34.0003 7.61216 26.3896 0.000976562 17.0014 0.000976562C7.61325 0.000976562 0.00260925 7.61216 0.00260925 17.001C0.00260925 26.3899 7.61325 34.0011 17.0014 34.0011Z" fill="#FFDA44"/>
<path d="M27.3475 8.13262C27.1955 8.86414 27.126 9.64727 27.126 10.4252C27.126 14.9096 29.7995 18.7912 33.6294 20.5375C33.8715 19.3965 33.9977 18.2142 33.9977 17.001C33.9977 7.61236 26.3868 0.000976562 16.9988 0.000976562C7.61084 0.000976562 0 7.61236 0 17.001C0 26.3897 7.61084 34.0011 16.9988 34.0011C22.8222 34.0011 27.9579 31.0724 31.0229 26.6086H9.60951V24.3909H32.3132C32.545 23.9092 32.7562 23.4173 32.9417 22.9125H9.60951L27.3475 8.13011V8.13262Z" fill="#0052B4"/>
<path d="M12.4918 8.87109L12.8575 10.0018H14.0449L13.0842 10.6998L13.4525 11.8281L12.4918 11.13L11.5311 11.8281L11.8968 10.6998L10.9362 10.0018H12.1235L12.4918 8.87109Z" fill="#F0F0F0"/>
<path d="M7.66763 17.002L8.12609 18.4135H9.60963L8.40937 19.2867L8.86783 20.6982L7.66763 19.825L6.46743 20.6982L6.92583 19.2867L5.72563 18.4135H7.20917L7.66763 17.002Z" fill="#F0F0F0"/>
<path d="M7.66763 5.17676L8.12609 6.58827H9.60963L8.40937 7.45898L8.86783 8.87049L7.66763 7.99979L6.46743 8.87049L6.92583 7.45898L5.72563 6.58827H7.20917L7.66763 5.17676Z" fill="#F0F0F0"/>
<path d="M3.97151 11.8271L4.42997 13.2387H5.91608L4.71331 14.1118L5.17435 15.5233L3.97151 14.6502L2.77131 15.5233L3.22977 14.1118L2.02957 13.2387H3.51305L3.97151 11.8271Z" fill="#F0F0F0"/>
</svg>
