<svg width="34" height="34" viewBox="0 0 34 34" fill="none" xmlns="http://www.w3.org/2000/svg">
<path d="M17.0003 34.002C26.3892 34.002 34.0003 26.3908 34.0003 17.002C34.0003 7.61311 26.3892 0.00195312 17.0003 0.00195312C7.61149 0.00195312 0.000335693 7.61311 0.000335693 17.002C0.000335693 26.3908 7.61149 34.002 17.0003 34.002Z" fill="#F0F0F0"/>
<path d="M11.0861 8.87045V6.65527H8.86837V8.87045H6.65326V11.0881H8.86837V13.3058H11.0861V11.0881H13.3038V8.87045H11.0861Z" fill="#D80027"/>
<path d="M17.0002 0.00195312V17.002C7.61153 17.002 3.87926 17.002 0.000167847 17.002C0.000167847 26.3906 7.61153 34.002 17.0002 34.002C26.3888 34.002 34.0002 26.3906 34.0002 17.002C34.0002 7.61332 26.3888 0.00195312 17.0002 0.00195312Z" fill="#D80027"/>
</svg>
