<svg width="34" height="34" viewBox="0 0 34 34" fill="none" xmlns="http://www.w3.org/2000/svg">
<path d="M33.4155 12.5664C31.4655 5.32856 24.8556 0.00195312 16.999 0.00195312C9.14231 0.00195312 2.535 5.32856 0.582428 12.5664L16.999 13.3057L33.4155 12.5664Z" fill="#A2001D"/>
<path d="M0.58255 21.4375C2.53255 28.6754 9.14244 34.002 16.9991 34.002C24.8557 34.002 31.4631 28.6754 33.4156 21.4375L16.9991 20.6982L0.58255 21.4375Z" fill="#A2001D"/>
<path d="M33.4155 12.5664H0.585021C0.20378 13.9805 0.000274658 15.4668 0.000274658 17.0019C0.000274658 18.5371 0.20378 20.0233 0.585021 21.4374H33.4155C33.7968 20.0233 34.0003 18.5371 34.0003 17.0019C34.0003 15.4668 33.7968 13.9805 33.4155 12.5664Z" fill="#6DA544"/>
</svg>
