<svg width="34" height="34" viewBox="0 0 34 34" fill="none" xmlns="http://www.w3.org/2000/svg">
<path d="M9.20579 1.88867C7.68347 2.67431 6.25647 3.70465 4.97886 4.9797C3.70382 6.25475 2.67348 7.68439 1.88785 9.20672L12.8197 21.1844L24.7974 32.1164C26.3197 31.3307 27.7492 30.3004 29.0243 29.0253C30.2993 27.7503 31.3297 26.3206 32.1153 24.7983L21.1834 12.8206L9.20579 1.88867Z" fill="#F0F0F0"/>
<path d="M29.0217 29.023C29.7352 28.3095 30.3714 27.5497 30.9304 26.7512L7.25065 3.07129C6.45214 3.63025 5.69231 4.26653 4.97881 4.98004C4.2653 5.69355 3.62903 6.45338 3.07007 7.2519L26.7498 30.9318C27.5483 30.3728 28.3082 29.7365 29.0217 29.023Z" fill="black"/>
<path d="M4.97897 29.023C10.3419 34.3859 18.3965 35.4163 24.7949 32.114L1.88796 9.20703C-1.41426 15.6055 -0.383928 23.6601 4.97897 29.023Z" fill="#D80027"/>
<path d="M29.0216 4.9797C23.6587 -0.383229 15.6041 -1.41357 9.20569 1.88868L32.1126 24.7957C35.4149 18.3973 34.3845 10.3426 29.0216 4.9797Z" fill="#D80027"/>
</svg>
