<svg width="34" height="34" viewBox="0 0 34 34" fill="none" xmlns="http://www.w3.org/2000/svg">
<path d="M17.0003 34.002C26.3891 34.002 34.0003 26.3908 34.0003 17.002C34.0003 7.61311 26.3891 0.00195312 17.0003 0.00195312C7.61143 0.00195312 0.000274658 7.61311 0.000274658 17.002C0.000274658 26.3908 7.61143 34.002 17.0003 34.002Z" fill="#D80027"/>
<path d="M16.9998 25.1334C21.4908 25.1334 25.1315 21.4927 25.1315 17.0017C25.1315 12.5107 21.4908 8.87012 16.9998 8.87012C12.5088 8.87012 8.86813 12.5107 8.86813 17.0017C8.86813 21.4927 12.5088 25.1334 16.9998 25.1334Z" fill="#F0F0F0"/>
<path d="M18.0019 13.8926L19.3954 15.8141L21.6543 15.0825L20.2583 17.004L21.6517 18.9256L19.3954 18.1889L17.9967 20.1104L17.9993 17.7356L15.7404 16.999L17.9993 16.2674L18.0019 13.8926Z" fill="#D80027"/>
<path d="M18.8465 21.8056C16.1934 21.8056 14.0427 19.6549 14.0427 17.0018C14.0427 14.3488 16.1934 12.1981 18.8465 12.1981C19.6733 12.1981 20.4512 12.4066 21.1312 12.775C20.0648 11.7318 18.6069 11.0879 16.9971 11.0879C13.731 11.0879 11.0831 13.7358 11.0831 17.0018C11.0831 20.2679 13.731 22.9157 16.9971 22.9157C18.6069 22.9157 20.0648 22.2719 21.1312 21.2287C20.4512 21.597 19.6733 21.8056 18.8465 21.8056Z" fill="#D80027"/>
</svg>
