<svg width="34" height="34" viewBox="0 0 34 34" fill="none" xmlns="http://www.w3.org/2000/svg">
<path d="M17.0002 34.002C26.3891 34.002 34.0002 26.3908 34.0002 17.002C34.0002 7.61311 26.3891 0.00195312 17.0002 0.00195312C7.6114 0.00195312 0.000244141 7.61311 0.000244141 17.002C0.000244141 26.3908 7.6114 34.002 17.0002 34.002Z" fill="#D80027"/>
<path d="M16.3044 13.8926L17.6979 15.8141L19.9568 15.0825L18.5608 17.004L19.9543 18.9256L17.6979 18.1889L16.2993 20.1104L16.3019 17.7356L14.0429 16.999L16.3019 16.2674L16.3044 13.8926Z" fill="#F0F0F0"/>
<path d="M12.4976 21.8056C9.84461 21.8056 7.69386 19.6549 7.69386 17.0018C7.69386 14.3488 9.84461 12.1981 12.4976 12.1981C13.3245 12.1981 14.1023 12.4066 14.7823 12.775C13.716 11.7318 12.2581 11.0879 10.6483 11.0879C7.38219 11.0879 4.73431 13.7358 4.73431 17.0018C4.73431 20.2679 7.38219 22.9157 10.6483 22.9157C12.2581 22.9157 13.716 22.2719 14.7823 21.2287C14.1023 21.597 13.3245 21.8056 12.4976 21.8056Z" fill="#F0F0F0"/>
</svg>
