<svg width="34" height="34" viewBox="0 0 34 34" fill="none" xmlns="http://www.w3.org/2000/svg">
<path d="M34.0003 17.002C34.0003 26.3906 26.3889 34.002 17.0003 34.002C7.61167 34.002 0.000305176 26.3906 0.000305176 17.002C0.000305176 17.0071 17.0003 0.00452888 17.0003 0.00195312C26.3889 0.00195312 34.0003 7.61332 34.0003 17.002Z" fill="#0052B4"/>
<path d="M16.954 17.0026H17.0005V16.9561C16.985 16.9716 16.9695 16.9871 16.954 17.0026Z" fill="#F0F0F0"/>
<path d="M17.0003 8.87033V0.00195312H16.9977C7.60909 0.00195312 0.000305176 7.61332 0.000305176 17.002H8.86865V12.0075L13.863 17.002H16.9539L17.0003 16.9555V13.8646L12.0059 8.87033H17.0003Z" fill="#F0F0F0"/>
<path d="M8.60106 2.21875C5.94288 3.7333 3.73287 5.94337 2.21832 8.60155V17.0011H6.65377V6.65426H17.0006V2.21875H8.60106Z" fill="#D80027"/>
<path d="M17.0002 14.9092L10.9601 8.86914H8.86859L16.9977 17.0008V14.9092H17.0002Z" fill="#D80027"/>
<path d="M19.2178 8.87012V17.0017C19.2178 20.9633 24.3925 22.1764 24.3925 22.1764C24.3925 22.1764 29.5672 20.9633 29.5672 17.0017V8.87012H19.2204H19.2178Z" fill="#FFDA44"/>
<path d="M23.6534 11.8262C23.6534 12.6427 22.9915 14.7832 22.175 14.7832C21.3584 14.7832 20.6965 12.6427 20.6965 11.8262C20.6965 11.0097 22.175 10.3477 22.175 10.3477C22.175 10.3477 23.6534 11.0097 23.6534 11.8262Z" fill="#FF9811"/>
<path d="M27.5763 13.436C27.8159 12.8539 28.0013 12.0039 28.0013 11.5789C28.0013 10.8989 27.1152 10.3477 27.1152 10.3477C27.1152 10.3477 26.2292 10.8989 26.2292 11.5789C26.2292 12.0014 26.4146 12.8539 26.6542 13.436L26.1416 14.5925C26.443 14.7136 26.7727 14.7832 27.1152 14.7832C27.4578 14.7832 27.7901 14.7161 28.0889 14.5925L27.5763 13.436Z" fill="#A2001D"/>
<path d="M23.2826 17.002C23.2826 17.002 22.5434 18.4804 22.5434 19.9589H26.2396C26.2396 18.4804 25.5004 17.002 25.5004 17.002L24.3928 16.2627L23.2852 17.002H23.2826Z" fill="#6DA544"/>
<path d="M25.5002 17.0013V16.6329C25.5002 16.0199 25.003 15.5254 24.3926 15.5254C23.7821 15.5254 23.285 16.0225 23.285 16.6329V17.0013H25.5028H25.5002Z" fill="#D80027"/>
</svg>
