<svg width="34" height="34" viewBox="0 0 34 34" fill="none" xmlns="http://www.w3.org/2000/svg">
<path d="M17.0002 0.00195312C15.7304 0.00195312 14.494 0.140999 13.304 0.406302L12.5648 17.002L13.304 33.5976C14.494 33.8603 15.7304 34.002 17.0002 34.002C26.3888 34.002 34.0002 26.3906 34.0002 17.002C34.0002 7.61332 26.3888 0.00195312 17.0002 0.00195312Z" fill="#496E2D"/>
<path d="M4.43569 5.55176C1.67963 8.57312 0.000244141 12.5914 0.000244141 17.0011C0.000244141 21.4107 1.67963 25.429 4.43569 28.4503L5.17495 17.0011L4.43569 5.55176Z" fill="#496E2D"/>
<path d="M24.8639 12.8246C25.701 10.4935 24.7609 7.95903 22.7441 6.69434C23.1072 6.7407 23.4704 6.82576 23.8285 6.95455C26.5175 7.92046 27.9162 10.8826 26.9503 13.5717C25.9844 16.2607 23.0222 17.6593 20.3332 16.6934C19.9751 16.5646 19.6403 16.3998 19.3312 16.2067C21.6906 16.5132 24.0268 15.1531 24.8639 12.8221V12.8246Z" fill="#F0F0F0"/>
<path d="M20.225 6.05762L19.4987 6.99523L18.3808 6.59339L19.0505 7.57477L18.3215 8.5149L19.4626 8.18262L20.1323 9.164L20.1658 7.97661L21.3068 7.64432L20.189 7.24249L20.225 6.05762Z" fill="#F0F0F0"/>
<path d="M22.1875 9.11816L21.4611 10.0556L20.3432 9.65394L21.0104 10.6352L20.284 11.5754L21.4251 11.2432L22.0922 12.2245L22.1282 11.037L23.2693 10.7047L22.1514 10.303L22.1875 9.11816Z" fill="#F0F0F0"/>
<path d="M16.7655 7.1709L16.0392 8.11102L14.9213 7.70919L15.5884 8.69057L14.8621 9.6307L16.0031 9.29841L16.6702 10.2798L16.7063 9.0924L17.8474 8.76012L16.7295 8.35829L16.7655 7.1709Z" fill="#F0F0F0"/>
<path d="M16.6858 10.6768L15.9595 11.6169L14.8416 11.2151L15.5087 12.1964L14.7823 13.134L15.9234 12.8018L16.5905 13.7831L16.6266 12.5983L17.7676 12.2635L16.6498 11.8641L16.6858 10.6768Z" fill="#F0F0F0"/>
<path d="M20.0212 11.874L19.2948 12.8116L18.177 12.4098L18.8441 13.3912L18.1177 14.3313L19.2588 13.999L19.9259 14.9804L19.962 13.793L21.103 13.4607L19.9852 13.0589L20.0212 11.874Z" fill="#F0F0F0"/>
<path d="M4.43524 5.55192V28.453C6.75085 30.9927 9.82889 32.8267 13.3036 33.5994V0.408203C9.82632 1.17835 6.75085 3.01229 4.43524 5.55456V5.55192Z" fill="#D80027"/>
<path d="M7.82019 8.95286L6.33398 7.84533V6.28177L7.82019 5.17676H9.91943L11.4057 6.28177V7.84533L9.91943 8.95286H7.82019Z" fill="#F0F0F0"/>
<path d="M8.8711 5.17676H7.82019L6.33398 6.28177V7.04682H8.8711V5.17676Z" fill="#FF9811"/>
<path d="M8.87091 8.95235H9.91925L11.4055 7.84482V7.04883H8.87091V8.95235Z" fill="#FF9811"/>
<path d="M7.82019 28.8269L6.33398 27.7219V26.1558L7.82019 25.0508H9.91943L11.4057 26.1558V27.7219L9.91943 28.8269H7.82019Z" fill="#F0F0F0"/>
<path d="M8.8711 25.0508H7.82019L6.33398 26.1558V26.9207H8.8711V25.0508Z" fill="#FF9811"/>
<path d="M8.87091 28.8264H9.91925L11.4055 27.7214V26.9229H8.87091V28.8264Z" fill="#FF9811"/>
<path d="M7.82012 18.8904L6.33392 17.7853V16.2193L7.82012 15.1143H9.91937L11.4056 16.2193V17.7853L9.91937 18.8904H7.82012Z" fill="#496E2D"/>
<path d="M11.457 21.3241H10.8105V20.6777H9.67204L8.8684 19.874L8.06735 20.6777H6.92887V21.3241H6.28235V22.6172H6.92887V23.2638H8.06477L8.87098 24.0674L9.67204 23.2638H10.8105V22.6172H11.457V21.3241Z" fill="#496E2D"/>
<path d="M11.4571 11.3868H10.8106V10.7402H9.6721L8.86846 9.93652L8.06741 10.7402H6.92893V11.3868H6.28241V12.6798H6.92893V13.3263H8.06483L8.87104 14.1299L9.6721 13.3263H10.8106V12.6798H11.4571V11.3868Z" fill="#496E2D"/>
<path d="M9.61038 16.2627H8.1319V17.7412H9.61038V16.2627Z" fill="#D80027"/>
<path d="M8.86833 12.7725C9.2766 12.7725 9.60757 12.4415 9.60757 12.0332C9.60757 11.6249 9.2766 11.2939 8.86833 11.2939C8.46006 11.2939 8.12909 11.6249 8.12909 12.0332C8.12909 12.4415 8.46006 12.7725 8.86833 12.7725Z" fill="#D80027"/>
<path d="M8.86827 22.71C9.27654 22.71 9.60751 22.379 9.60751 21.9707C9.60751 21.5624 9.27654 21.2314 8.86827 21.2314C8.46 21.2314 8.12903 21.5624 8.12903 21.9707C8.12903 22.379 8.46 22.71 8.86827 22.71Z" fill="#D80027"/>
</svg>
