<svg width="34" height="34" viewBox="0 0 34 34" fill="none" xmlns="http://www.w3.org/2000/svg">
<path d="M34.0002 17.002C34.0002 26.3906 26.3889 34.002 17.0002 34.002C7.61161 34.002 0.000244141 26.3906 0.000244141 17.002C0.000244141 17.0071 17.0002 0.00452888 17.0002 0.00195312C26.3889 0.00195312 34.0002 7.61332 34.0002 17.002Z" fill="#338AF3"/>
<path d="M8.13159 17.0018H13.8652L8.86829 11.0879L8.13159 13.3056V17.0018Z" fill="#0052B4"/>
<path d="M17 13.8675L11.0861 8.13379H17V13.8675Z" fill="#0052B4"/>
<path d="M16.9535 17.0026H17.0001V16.9561C16.9845 16.9716 16.969 16.9871 16.9535 17.0026Z" fill="#F0F0F0"/>
<path d="M17.0002 8.87033V0.00195312H16.9977C7.60903 0.00195312 0.000244141 7.61332 0.000244141 17.002H8.86859V12.0075L13.863 17.002H16.9539L17.0002 16.9555V13.8646L12.0058 8.87033H17.0002Z" fill="#F0F0F0"/>
<path d="M8.60039 2.21875C5.9422 3.7333 3.7322 5.94337 2.21765 8.60155V17.0011H6.6531V6.65426H16.9999V2.21875H8.60039Z" fill="#D80027"/>
<path d="M17.0001 14.9092L10.96 8.86914H8.86847L16.9975 17.0008V14.9092H17.0001Z" fill="#D80027"/>
<path d="M18.5532 28.0879L18.9215 29.2187H20.1089L19.1482 29.9167L19.5139 31.0449L18.5532 30.3468L17.595 31.0449L17.9608 29.9167L17 29.2187H18.1874L18.5532 28.0879Z" fill="#FFDA44"/>
<path d="M28.0115 20.6982L28.3772 21.8264H29.5646L28.6039 22.5244L28.9722 23.6552L28.0115 22.9572L27.0507 23.6552L27.4164 22.5244L26.4557 21.8264H27.6431L28.0115 20.6982Z" fill="#FFDA44"/>
<path d="M30.3811 9.60938L30.7469 10.7402H31.9343L30.9736 11.4382L31.3419 12.5663L30.3811 11.8683L29.4204 12.5663L29.7861 11.4382L28.8254 10.7402H30.0128L30.3811 9.60938Z" fill="#FFDA44"/>
<path d="M30.9683 17.7412L31.3341 18.8694H32.5215L31.5607 19.5674L31.9291 20.6982L30.9683 20.0002L30.0076 20.6982L30.3733 19.5674L29.4125 18.8694H30.6L30.9683 17.7412Z" fill="#FFDA44"/>
<path d="M20.2559 25.4326L21.3145 25.9709L22.1542 25.1338L21.9688 26.3058L23.0274 26.8441L21.8554 27.0296L21.6674 28.2042L21.1291 27.1455L19.9571 27.331L20.7968 26.4912L20.2559 25.4326Z" fill="#FFDA44"/>
<path d="M20.2559 20.9969L21.3145 21.5379L22.1542 20.6982L21.9688 21.8702L23.0274 22.4086L21.8554 22.594L21.6674 23.7685L21.1291 22.7099L19.9571 22.8953L20.7968 22.0557L20.2559 20.9969Z" fill="#FFDA44"/>
<path d="M23.9519 23.8404L25.0105 24.3788L25.8502 23.5391L25.6648 24.7136L26.7234 25.2519L25.5488 25.4374L25.3634 26.6093L24.8251 25.5534L23.6531 25.7388L24.4928 24.8991L23.9519 23.8404Z" fill="#FFDA44"/>
<path d="M23.9519 14.3472L25.0105 14.8855L25.8502 14.0459L25.6648 15.2178L26.7234 15.7588L25.5488 15.9443L25.3634 17.1162L24.8251 16.0576L23.6531 16.2456L24.4928 15.4058L23.9519 14.3472Z" fill="#FFDA44"/>
<path d="M27.5347 14.233L28.5933 14.7713L29.433 13.9316L29.245 15.1036L30.3037 15.6445L29.1317 15.83L28.9462 17.0019L28.4079 15.9433L27.2333 16.1287L28.073 15.2891L27.5347 14.233Z" fill="#FFDA44"/>
</svg>
