<svg width="34" height="34" viewBox="0 0 34 34" fill="none" xmlns="http://www.w3.org/2000/svg">
<path d="M29.6704 28.3353C32.362 25.3268 34.0002 21.3576 34.0002 17.002C34.0002 12.6464 32.362 8.67714 29.6704 5.66866L17.0002 4.4375L4.33011 5.66866C1.63844 8.67714 0.000244141 12.6464 0.000244141 17.002C0.000244141 21.3576 1.63844 25.3268 4.33011 28.3353L17.0002 29.5665L29.6704 28.3353Z" fill="#FFDA44"/>
<path d="M4.3302 5.66862H29.6705C26.559 2.19135 22.0359 0.00195312 17.0003 0.00195312C11.9647 0.00195312 7.44429 2.19135 4.3302 5.66862Z" fill="black"/>
<path d="M0.000244141 17.0016L17.0002 18.4802L34.0002 17.0016C34.0002 15.0157 33.6577 13.1071 33.0318 11.335H0.968731C0.342822 13.1071 0.000244141 15.0157 0.000244141 17.0016Z" fill="#D80027"/>
<path d="M0.968731 22.6686H33.0318C33.6577 20.8965 34.0002 18.9879 34.0002 17.002H0.000244141C0.000244141 18.9879 0.342822 20.8965 0.968731 22.6686Z" fill="black"/>
<path d="M29.6703 28.335H4.33002C7.44153 31.8122 11.9645 34.0016 17.0002 34.0016C22.0358 34.0016 26.5562 31.8122 29.6703 28.335Z" fill="#D80027"/>
<path d="M22.6719 17.0019C22.6719 20.134 20.1322 22.6737 17.0001 22.6737C13.8679 22.6737 11.3282 20.134 11.3282 17.0019C11.3282 13.8698 13.8679 11.3301 17.0001 11.3301C20.1322 11.3301 22.6719 13.8698 22.6719 17.0019Z" fill="#F0F0F0"/>
<path d="M19.0791 17.2904L17.0004 16.3889C17.0004 16.3889 17.4873 14.7739 17.513 14.6657C17.531 14.5859 17.5413 14.5009 17.5413 14.4133C17.5413 14.1068 17.4177 13.8312 17.2168 13.6303L17.7397 13.1073C17.4048 12.7725 16.9438 12.5664 16.4338 12.5664C15.9238 12.5664 15.4627 12.7725 15.1279 13.1073L15.6507 13.6303C15.4498 13.8312 15.3262 14.1068 15.3262 14.4133C15.3262 14.5241 15.3442 14.6323 15.3751 14.7353L14.5895 15.5209H16.0191C16.0191 15.5209 15.4267 16.4094 15.1047 17.1384C14.7827 17.8673 15.1099 18.7585 15.8542 19.0908L16.2844 19.2815L17.003 19.9564V20.6955L16.2638 21.4348H17.7423V19.9564L18.4171 19.2815H19.8132C19.8209 19.2686 19.8261 19.2531 19.8338 19.2402C20.1661 18.4933 19.8286 17.6201 19.0842 17.2904H19.0791Z" fill="black"/>
</svg>
