<svg width="34" height="34" viewBox="0 0 34 34" fill="none" xmlns="http://www.w3.org/2000/svg">
<path d="M17 34.002C26.3888 34.002 34 26.3908 34 17.002C34 7.61311 26.3888 0.00195312 17 0.00195312C7.61116 0.00195312 0 7.61311 0 17.002C0 26.3908 7.61116 34.002 17 34.002Z" fill="#338AF3"/>
<path d="M16.9509 11.0879C13.6849 11.0879 11.037 13.7358 11.037 17.0018C11.037 20.2679 13.6849 22.9157 16.9509 22.9157C20.217 22.9157 22.8648 20.2679 22.8648 17.0018C22.8648 13.7358 20.217 11.0879 16.9509 11.0879ZM15.4724 17.0018C15.4724 16.1853 16.1344 15.5233 16.9509 15.5233C17.7674 15.5233 18.4294 16.1853 18.4294 17.0018C18.4294 17.8183 17.7674 18.4804 16.9509 18.4804C16.1344 18.4804 15.4724 17.8183 15.4724 17.0018ZM18.4835 14.4725C18.2542 14.3334 18.0044 14.2252 17.7391 14.1505V12.6359C18.4062 12.7543 19.0218 13.0249 19.5472 13.4061L18.4835 14.4698V14.4725ZM16.2606 14.1272C15.9824 14.1942 15.7223 14.2999 15.4802 14.4364L14.4112 13.3675C14.9521 12.9888 15.5806 12.7261 16.2606 12.6205V14.1272ZM15.4802 19.5673C15.7197 19.7064 15.9824 19.812 16.2606 19.8764V21.3831C15.5806 21.2775 14.9521 21.0148 14.4112 20.6362L15.4802 19.5673ZM17.7391 19.8506C18.0044 19.7785 18.2542 19.6703 18.4835 19.5312L19.5472 20.5951C19.0192 20.9763 18.4037 21.2441 17.7391 21.3651V19.8506ZM19.5164 18.4726C19.6477 18.2459 19.7482 18.0012 19.8151 17.7411H21.3245C21.2138 18.4031 20.9562 19.0135 20.5879 19.5415L19.5189 18.4726H19.5164ZM19.8151 16.2625C19.7482 16.0024 19.6477 15.7577 19.5164 15.5311L20.5853 14.4622C20.9536 14.9902 21.2112 15.6006 21.322 16.2625H19.8125H19.8151ZM13.3577 14.4054L14.4215 15.4692C14.2747 15.7139 14.1588 15.9792 14.0866 16.2625H12.5773C12.6932 15.5774 12.9637 14.9438 13.3552 14.4054H13.3577ZM12.5773 17.7411H14.0866C14.1588 18.0244 14.2721 18.2897 14.4215 18.5344L13.3577 19.5982C12.9662 19.0573 12.6932 18.4262 12.5799 17.7411H12.5773Z" fill="#F0F0F0"/>
<path d="M26.5588 17.0013C26.5588 14.374 25.5028 11.9914 23.7925 10.2579L22.2238 11.8266C23.5323 13.1609 24.3411 14.987 24.3411 17.0038C24.3411 21.0864 21.0313 24.3963 16.9487 24.3963C12.8661 24.3963 9.55627 21.0864 9.55627 17.0038C9.55627 14.9638 10.3831 13.1145 11.7199 11.7777L10.1512 10.209C8.41259 11.9476 7.33594 14.3508 7.33594 17.0038C7.33594 21.4006 10.2904 25.1072 14.3214 26.2509C13.8784 27.0906 13.9479 28.1466 14.579 28.9348C15.4084 28.2702 16.2661 27.5825 16.995 26.9978C17.724 27.5825 18.5817 28.2702 19.4111 28.9348C20.0499 28.1389 20.1117 27.0674 19.6558 26.2251C23.6431 25.0557 26.5563 21.3697 26.5563 17.0038L26.5588 17.0013Z" fill="#F0F0F0"/>
</svg>
