<svg width="34" height="34" viewBox="0 0 34 34" fill="none" xmlns="http://www.w3.org/2000/svg">
<path d="M17 34.002C26.3888 34.002 34 26.3908 34 17.002C34 7.61311 26.3888 0.00195312 17 0.00195312C7.61116 0.00195312 0 7.61311 0 17.002C0 26.3908 7.61116 34.002 17 34.002Z" fill="#F0F0F0"/>
<path d="M16.2606 17.0019H33.9999C33.9999 15.4668 33.7964 13.9805 33.4152 12.5664H16.2606V17.0019Z" fill="#D80027"/>
<path d="M16.2606 8.13363H31.504C30.4633 6.4362 29.1317 4.93461 27.5811 3.69824H16.2606V8.13363Z" fill="#D80027"/>
<path d="M16.9997 34.0019C20.9998 34.0019 24.678 32.6187 27.5809 30.3057H6.41589C9.31877 32.6187 12.997 34.0019 16.9971 34.0019H16.9997Z" fill="#D80027"/>
<path d="M2.49561 25.8701H31.5064C32.3409 24.5075 32.99 23.0161 33.415 21.4346H0.586975C1.01198 23.0161 1.66107 24.5049 2.49561 25.8701Z" fill="#D80027"/>
<path d="M7.87378 2.65757H9.42181L7.98196 3.70335L8.53317 5.39822L7.09333 4.35244L5.65348 5.39822L6.12999 3.93514C4.86014 4.9912 3.74999 6.23014 2.83302 7.61075H3.33014L2.41317 8.27783C2.27151 8.51738 2.13242 8.75958 2.00105 9.00428L2.43893 10.3514L1.62242 9.75638C1.41893 10.1865 1.23348 10.627 1.06605 11.0752L1.54772 12.5613H3.33014L1.89029 13.6071L2.44151 15.3019L1.00166 14.2562L0.13878 14.8821C0.0512042 15.5776 0.00741577 16.2833 0.00741577 17.002H17.0074V0.00195312C13.6486 0.00195312 10.5191 0.975604 7.88151 2.65757H7.87378ZM8.53317 15.3019L7.09333 14.2562L5.65348 15.3019L6.20469 13.6071L4.76484 12.5613H6.54726L7.09848 10.8665L7.64969 12.5613H9.43211L7.99226 13.6071L8.54348 15.3019H8.53317ZM7.98196 8.65652L8.53317 10.3514L7.09333 9.30562L5.65348 10.3514L6.20469 8.65652L4.76484 7.61075H6.54726L7.09848 5.91588L7.64969 7.61075H9.43211L7.99226 8.65652H7.98196ZM14.63 15.3019L13.1901 14.2562L11.7503 15.3019L12.3015 13.6071L10.8617 12.5613H12.6441L13.1953 10.8665L13.7465 12.5613H15.5289L14.0891 13.6071L14.6403 15.3019H14.63ZM14.0814 8.65652L14.6326 10.3514L13.1927 9.30562L11.7529 10.3514L12.3041 8.65652L10.8642 7.61075H12.6467L13.1979 5.91588L13.7491 7.61075H15.5315L14.0917 8.65652H14.0814ZM14.0814 3.70335L14.6326 5.39822L13.1927 4.35244L11.7529 5.39822L12.3041 3.70335L10.8642 2.65757H12.6467L13.1979 0.962706L13.7491 2.65757H15.5315L14.0917 3.70335H14.0814Z" fill="#0052B4"/>
</svg>
