<svg width="34" height="34" viewBox="0 0 34 34" fill="none" xmlns="http://www.w3.org/2000/svg">
<path d="M17.0002 34.002C26.3891 34.002 34.0002 26.3908 34.0002 17.002C34.0002 7.61311 26.3891 0.00195312 17.0002 0.00195312C7.6114 0.00195312 0.000244141 7.61311 0.000244141 17.002C0.000244141 26.3908 7.6114 34.002 17.0002 34.002Z" fill="#F0F0F0"/>
<path d="M9.60754 22.916L11.086 32.946C12.9277 33.6286 14.9187 34.0021 17 34.0021C24.31 34.0021 30.5407 29.3889 32.9413 22.916H9.60754Z" fill="black"/>
<path d="M9.60754 11.088L11.086 1.05804C12.9277 0.375463 14.9187 0.00195312 17 0.00195312C24.31 0.00195312 30.5407 4.61515 32.9413 11.088H9.60754Z" fill="#6DA544"/>
<path d="M0.000244141 17.0015C0.000244141 24.3115 4.61344 30.5423 11.0863 32.9429V1.05762C4.61344 3.4608 0.000244141 9.69159 0.000244141 16.999V17.0015Z" fill="#A2001D"/>
</svg>
