<svg width="34" height="34" viewBox="0 0 34 34" fill="none" xmlns="http://www.w3.org/2000/svg">
<path d="M17 34.002C26.3888 34.002 34 26.3908 34 17.002C34 7.61311 26.3888 0.00195312 17 0.00195312C7.61116 0.00195312 0 7.61311 0 17.002C0 26.3908 7.61116 34.002 17 34.002Z" fill="#F0F0F0"/>
<path d="M3.51341 6.65234C2.17917 8.39098 1.17208 10.3924 0.584808 12.5689H9.4274L3.51083 6.65234H3.51341Z" fill="#0052B4"/>
<path d="M33.4156 12.5663C32.8283 10.3898 31.8212 8.3884 30.487 6.65234L24.573 12.5663H33.4156Z" fill="#0052B4"/>
<path d="M0.584808 21.4375C1.17208 23.614 2.17917 25.6154 3.51341 27.3514L9.4274 21.4375H0.584808Z" fill="#0052B4"/>
<path d="M27.3494 3.51558C25.6108 2.18134 23.6094 1.17419 21.4355 0.586914V9.42951L27.3494 3.51558Z" fill="#0052B4"/>
<path d="M6.65094 30.4891C8.38958 31.8234 10.3909 32.8305 12.5649 33.4178V24.5752L6.65094 30.4891Z" fill="#0052B4"/>
<path d="M12.5649 0.586914C10.3884 1.17419 8.387 2.18134 6.65094 3.51558L12.5649 9.42951V0.586914Z" fill="#0052B4"/>
<path d="M21.4355 33.4178C23.612 32.8305 25.6134 31.8234 27.3494 30.4891L21.4355 24.5752V33.4178Z" fill="#0052B4"/>
<path d="M24.5704 21.4375L30.4843 27.3514C31.8186 25.6154 32.8257 23.6114 33.413 21.4375H24.5704Z" fill="#0052B4"/>
<path d="M33.8557 14.7843H19.2178V0.146211C18.4914 0.0509076 17.7521 0.00195312 17 0.00195312C16.2479 0.00195312 15.5086 0.0509076 14.7822 0.146211V14.7843H0.144258C0.0489545 15.5106 0 16.2498 0 17.002C0 17.7541 0.0489545 18.4933 0.144258 19.2196H14.7822V33.8577C15.5086 33.953 16.2479 34.002 17 34.002C17.7521 34.002 18.4914 33.953 19.2178 33.8577V19.2196H33.8557C33.951 18.4933 34 17.7541 34 17.002C34 16.2498 33.951 15.5106 33.8557 14.7843Z" fill="#D80027"/>
<path d="M21.4355 21.4375L29.021 29.023C29.3688 28.6753 29.7037 28.3096 30.0205 27.931L23.527 21.4375H21.4355Z" fill="#D80027"/>
<path d="M12.5645 21.4372L4.97894 29.0227C5.32667 29.3705 5.69243 29.7053 6.07106 30.0221L12.5645 23.5261V21.4346V21.4372Z" fill="#D80027"/>
<path d="M12.5646 12.566L4.979 4.98047C4.63127 5.3282 4.29639 5.69389 3.97957 6.07252L10.473 12.566H12.5646Z" fill="#D80027"/>
<path d="M21.4355 12.5663L29.021 4.98081C28.6733 4.63308 28.3076 4.29826 27.9289 3.98145L21.4355 10.4749V12.5663Z" fill="#D80027"/>
</svg>
