<svg width="34" height="34" viewBox="0 0 34 34" fill="none" xmlns="http://www.w3.org/2000/svg">
<path d="M17.0016 34.002C26.3897 34.002 34.0003 26.3908 34.0003 17.002C34.0003 7.61311 26.3897 0.00195312 17.0016 0.00195312C7.61345 0.00195312 0.00286865 7.61311 0.00286865 17.002C0.00286865 26.3908 7.61345 34.002 17.0016 34.002Z" fill="#F0F0F0"/>
<path d="M17.0013 12.5672H33.4154C32.9904 10.9857 32.3414 9.49441 31.5069 8.13184H17.0039V12.5672H17.0013Z" fill="#338AF3"/>
<path d="M6.42112 30.3055H27.5845C29.135 29.0691 30.4666 27.5701 31.5071 25.8701H2.49854C3.53906 27.5675 4.87063 29.0691 6.42112 30.3055Z" fill="#338AF3"/>
<path d="M17.0013 0.00195312V3.69819H27.5817C24.6791 1.38516 21.0012 0.00195312 17.0013 0.00195312Z" fill="#338AF3"/>
<path d="M17.0013 12.5672H33.4154C32.9904 10.9857 32.3414 9.49441 31.5069 8.13184H17.0039V12.5672H17.0013Z" fill="#338AF3"/>
<path d="M0.00257808 17.002C0.00257808 18.5371 0.206045 20.0234 0.587228 21.4375H33.4128C33.7939 20.0234 33.9974 18.5371 33.9974 17.002H0H0.00257808Z" fill="#338AF3"/>
<path d="M14.7837 9.95189L12.7078 10.9281L13.8127 12.9373L11.5591 12.507L11.2732 14.7841L9.7047 13.1098L8.1336 14.7841L7.84771 12.507L5.59409 12.9373L6.69901 10.9281L4.62311 9.95189L6.69901 8.97315L5.59409 6.96399L7.84771 7.39424L8.1336 5.11719L9.7047 6.79143L11.2732 5.11719L11.5591 7.39424L13.8127 6.96399L12.7078 8.97315L14.7837 9.95189Z" fill="#FFDA44"/>
</svg>
