<svg width="34" height="34" viewBox="0 0 34 34" fill="none" xmlns="http://www.w3.org/2000/svg">
<path d="M0.80391 11.8272C0.283607 13.4576 0.000274658 15.1962 0.000274658 17.0018C0.000274658 18.8048 0.281031 20.5434 0.80391 22.1764L17.0003 22.9157L33.1966 22.1764C33.7169 20.546 34.0003 18.8074 34.0003 17.0018C34.0003 15.1988 33.7169 13.4602 33.1966 11.8272L17.0003 11.0879L0.80391 11.8272Z" fill="#F0F0F0"/>
<path d="M33.1964 11.8272L17 11.0879L0.803628 11.8272C0.649082 12.3114 0.515146 12.8033 0.404388 13.3056H33.5956C33.4848 12.8033 33.3509 12.3114 33.1964 11.8272Z" fill="#D80027"/>
<path d="M0.404449 20.6982C0.515207 21.2005 0.649143 21.6924 0.803689 22.1767L17.0001 22.9159L33.1964 22.1767C33.351 21.6924 33.4849 21.2005 33.5957 20.6982H0.404449Z" fill="#D80027"/>
<path d="M17.0002 34.002C24.5858 34.002 31.0072 29.0334 33.1966 22.1768H0.8013C2.99069 29.036 9.41463 34.002 16.9977 34.002H17.0002Z" fill="#6DA544"/>
<path d="M17.0003 0.00195312C9.41468 0.00195312 2.99332 4.97059 0.803925 11.8272H33.1992C31.0098 4.96802 24.5859 0.00195312 17.0029 0.00195312H17.0003Z" fill="#338AF3"/>
<path d="M7.76865 7.02344C7.76865 5.43163 8.88654 4.10001 10.3831 3.77546C10.1538 3.72653 9.91426 3.69824 9.66956 3.69824C7.83305 3.69824 6.34427 5.18693 6.34427 7.02344C6.34427 8.85994 7.83305 10.3488 9.66956 10.3488C9.91426 10.3488 10.1538 10.3205 10.3831 10.2715C8.88912 9.94442 7.76865 8.61524 7.76865 7.02344Z" fill="#F0F0F0"/>
<path d="M12.3483 8.53516L12.5724 9.22802H13.3014L12.7115 9.65563L12.9382 10.3485L12.3483 9.92087L11.7585 10.3485L11.9826 9.65563L11.3953 9.22802H12.1217L12.3483 8.53516Z" fill="#F0F0F0"/>
<path d="M14.674 8.53516L14.8981 9.22802H15.627L15.0372 9.65563L15.2639 10.3485L14.674 9.92087L14.0842 10.3485L14.3083 9.65563L13.7184 9.22802H14.4474L14.674 8.53516Z" fill="#F0F0F0"/>
<path d="M17 8.53516L17.2241 9.22802H17.953L17.3632 9.65563L17.5873 10.3485L17 9.92087L16.4101 10.3485L16.6342 9.65563L16.0444 9.22802H16.7733L17 8.53516Z" fill="#F0F0F0"/>
<path d="M19.3234 8.53516L19.55 9.22802H20.279L19.6891 9.65563L19.9132 10.3485L19.3234 9.92087L18.7361 10.3485L18.9602 9.65563L18.3703 9.22802H19.0993L19.3234 8.53516Z" fill="#F0F0F0"/>
<path d="M21.6494 8.53516L21.876 9.22802H22.605L22.0151 9.65563L22.2392 10.3485L21.6494 9.92087L21.0595 10.3485L21.2862 9.65563L20.6963 9.22802H21.4253L21.6494 8.53516Z" fill="#F0F0F0"/>
<path d="M14.674 6.11621L14.8981 6.80907H15.627L15.0372 7.23656L15.2639 7.92942L14.674 7.50193L14.0842 7.92942L14.3083 7.23656L13.7184 6.80907H14.4474L14.674 6.11621Z" fill="#F0F0F0"/>
<path d="M17 6.11621L17.2241 6.80907H17.953L17.3632 7.23656L17.5873 7.92942L17 7.50193L16.4101 7.92942L16.6342 7.23656L16.0444 6.80907H16.7733L17 6.11621Z" fill="#F0F0F0"/>
<path d="M19.3234 6.11621L19.55 6.80907H20.279L19.6891 7.23656L19.9132 7.92942L19.3234 7.50193L18.7361 7.92942L18.9602 7.23656L18.3703 6.80907H19.0993L19.3234 6.11621Z" fill="#F0F0F0"/>
<path d="M21.6494 6.11621L21.876 6.80907H22.605L22.0151 7.23656L22.2392 7.92942L21.6494 7.50193L21.0595 7.92942L21.2862 7.23656L20.6963 6.80907H21.4253L21.6494 6.11621Z" fill="#F0F0F0"/>
<path d="M17 3.69824L17.2241 4.3911H17.953L17.3632 4.81871L17.5873 5.51157L17 5.08396L16.4101 5.51157L16.6342 4.81871L16.0444 4.3911H16.7733L17 3.69824Z" fill="#F0F0F0"/>
<path d="M19.3234 3.69824L19.55 4.3911H20.279L19.6891 4.81871L19.9132 5.51157L19.3234 5.08396L18.7361 5.51157L18.9602 4.81871L18.3703 4.3911H19.0993L19.3234 3.69824Z" fill="#F0F0F0"/>
<path d="M21.6494 3.69824L21.876 4.3911H22.605L22.0151 4.81871L22.2392 5.51157L21.6494 5.08396L21.0595 5.51157L21.2862 4.81871L20.6963 4.3911H21.4253L21.6494 3.69824Z" fill="#F0F0F0"/>
</svg>
