<svg width="34" height="34" viewBox="0 0 34 34" fill="none" xmlns="http://www.w3.org/2000/svg">
<path d="M33.9999 17.0023C33.9999 16.2502 33.951 15.511 33.8557 14.7846H14.782C11.3099 11.3126 4.97859 4.98145 4.97859 4.98145C-1.6592 11.6191 -1.6592 22.3829 4.97859 29.0231L14.782 19.2199H33.8557C33.951 18.4936 33.9999 17.7544 33.9999 17.0023Z" fill="black"/>
<path d="M33.9792 17.8516C33.9792 17.8852 33.9768 17.9163 33.9744 17.9499C33.9744 17.9163 33.9768 17.8852 33.9792 17.8516Z" fill="#F0F0F0"/>
<path d="M33.9559 18.2217C33.9535 18.2706 33.9486 18.3169 33.9462 18.3659C33.9486 18.3195 33.9535 18.2706 33.9559 18.2217Z" fill="#F0F0F0"/>
<path d="M33.9744 16.0537C33.9744 16.0873 33.9792 16.1184 33.9792 16.152C33.9792 16.1184 33.9768 16.0873 33.9744 16.0537Z" fill="#F0F0F0"/>
<path d="M33.9464 15.6377C33.9488 15.6841 33.9537 15.7329 33.9561 15.7819C33.9537 15.7329 33.9488 15.6866 33.9464 15.6377Z" fill="#F0F0F0"/>
<path d="M33.856 14.784C33.8638 14.8432 33.8715 14.8998 33.8767 14.9591C32.867 6.53392 25.696 0.00195312 17.0001 0.00195312C12.3045 0.00195312 8.05443 1.90542 4.97894 4.98083L14.7824 14.784H33.856Z" fill="#D80027"/>
<path d="M33.856 19.22H14.7824L4.97894 29.0232C8.05443 32.0986 12.3045 34.002 17.0001 34.002C25.6985 34.002 32.8695 27.4701 33.8767 19.0449C33.8689 19.1042 33.8638 19.1607 33.856 19.22Z" fill="#6DA544"/>
<path d="M33.8763 14.959C33.884 15.0207 33.8917 15.0851 33.8969 15.1494C33.8891 15.0851 33.884 15.0233 33.8763 14.959Z" fill="black"/>
<path d="M33.9998 17.002C33.9998 17.1305 33.9998 17.259 33.9949 17.3875C33.9973 17.259 33.9998 17.1305 33.9998 17.002Z" fill="black"/>
<path d="M33.9743 17.9502C33.9691 18.0403 33.964 18.1331 33.9562 18.2232C33.9614 18.1331 33.9691 18.0403 33.9743 17.9502Z" fill="black"/>
<path d="M33.9 18.8535C33.8922 18.9178 33.8871 18.9796 33.8794 19.0439C33.8871 18.9822 33.8948 18.9178 33.9 18.8535Z" fill="black"/>
<path d="M33.9949 16.6152C33.9973 16.7437 33.9998 16.8722 33.9998 17.0007C33.9998 16.8722 33.9998 16.7437 33.9949 16.6152Z" fill="black"/>
<path d="M33.9794 16.1494C33.9843 16.2702 33.9891 16.3935 33.9915 16.5143C33.9891 16.391 33.9843 16.2702 33.9794 16.1494Z" fill="black"/>
<path d="M33.9846 16.2579H14.1588L3.97423 6.07617C3.64453 6.42389 3.28907 6.90808 3.06755 7.25323L12.8066 16.9972L3.05981 26.7436C3.253 27.0862 3.67286 27.5963 3.96907 27.926L14.1588 17.7364H33.9872C33.9975 17.4917 34.0001 17.2444 34.0001 16.9972C34.0001 16.6649 33.9898 16.4202 33.9846 16.2579Z" fill="#FFDA44"/>
<path d="M4.1286 20.6259V19.2016C5.55043 19.2016 6.70438 18.0451 6.70438 16.6259C6.70438 15.6213 5.88527 14.8022 4.88071 14.8022C4.19555 14.8022 3.6392 15.3586 3.6392 16.0437C3.6392 16.4816 3.99464 16.837 4.43253 16.837C4.6798 16.837 4.88071 16.6362 4.88071 16.3889H6.30513C6.30513 17.4218 5.46542 18.2615 4.43253 18.2615C3.20903 18.2615 2.21478 17.2672 2.21478 16.0437C2.21478 14.573 3.40994 13.3779 4.88071 13.3779C6.67088 13.3779 8.1288 14.8357 8.1288 16.6259C8.1288 18.8307 6.33347 20.6259 4.1286 20.6259Z" fill="#FFDA44"/>
</svg>
