<svg width="34" height="34" viewBox="0 0 34 34" fill="none" xmlns="http://www.w3.org/2000/svg">
<path d="M17.0001 0.00195312C26.3889 0.00195312 34.0003 7.61331 34.0003 17.0019C34.0003 26.3906 26.3889 34.0019 17.0001 34.0019C17.0001 33.2627 14.7824 17.0019 14.7824 17.0019L17.0001 0.00195312Z" fill="#F0F0F0"/>
<path d="M17.0004 34.0019C7.61166 34.0019 0.000244141 26.3906 0.000244141 17.0019C0.000244141 7.61331 7.61166 0.00195312 17.0004 0.00195312" fill="#FFDA44"/>
<path d="M23.5093 14.795L26.7033 19.0217C26.201 19.7841 26.2035 20.8119 26.7857 21.582C27.5249 22.5582 28.9158 22.7515 29.8921 22.0148C30.8683 21.2755 31.0614 19.8846 30.3248 18.9084C29.7427 18.1383 28.7561 17.855 27.8855 18.1332L22.9066 11.5469L21.7268 12.4381L19.9573 13.775L21.7397 16.1343L23.5093 14.8002V14.795ZM28.1096 19.6554C28.4342 19.4081 28.8978 19.4725 29.1451 19.7996C29.3924 20.1242 29.3279 20.5878 29.0008 20.8351C28.6763 21.0823 28.2126 21.0179 27.9654 20.6908C27.7181 20.3663 27.7825 19.9026 28.1096 19.6554Z" fill="#ACABB1"/>
<path d="M28.9907 16.1294L30.7731 13.7701L29.0035 12.4332L27.8238 11.542L22.8448 18.1283C21.9742 17.8527 20.9877 18.1334 20.4056 18.9035C19.6663 19.8797 19.8595 21.2707 20.8383 22.0099C21.8145 22.7491 23.2055 22.5559 23.9447 21.5771C24.5268 20.807 24.5294 19.7793 24.0271 19.0168L27.2211 14.7901L28.9907 16.1243V16.1294ZM22.765 20.6886C22.5177 21.0131 22.0567 21.0775 21.7295 20.8328C21.405 20.5856 21.3406 20.1219 21.5853 19.7974C21.8326 19.4728 22.2962 19.4084 22.6207 19.6531C22.9453 19.9004 23.0097 20.364 22.765 20.6886Z" fill="#FFDA44"/>
</svg>
