<svg width="34" height="34" viewBox="0 0 34 34" fill="none" xmlns="http://www.w3.org/2000/svg">
<path d="M32.3131 24.395C33.3949 22.1593 34.0002 19.6531 34.0002 17.0026C34.0002 14.3522 33.3949 11.846 32.3131 9.61024L17.0002 8.13184L1.68738 9.61024C0.60556 11.846 0.000244141 14.3522 0.000244141 17.0026C0.000244141 19.6531 0.60556 22.1593 1.68738 24.395L17.0002 25.8735L32.3131 24.395Z" fill="#0052B4"/>
<path d="M17.0004 34.002C23.7411 34.002 29.5649 30.0792 32.3132 24.3945H1.6875C4.43841 30.0817 10.2596 34.002 17.0004 34.002Z" fill="#D80027"/>
<path d="M29.4437 20.3394L28.5448 21.0401L28.9337 22.1115L27.9884 21.4727L27.0921 22.1759L27.4063 21.0787L26.461 20.4425L27.5995 20.4038L27.9137 19.3066L28.3027 20.3781L29.4437 20.3394Z" fill="#F0F0F0"/>
<path d="M27.1437 16.3549L26.5384 17.3233L27.2725 18.1939L26.1675 17.9208L25.5622 18.8867L25.4823 17.7483L24.3773 17.4727L25.4334 17.0478L25.3535 15.9092L26.0876 16.7824L27.1437 16.3549Z" fill="#F0F0F0"/>
<path d="M23.6199 13.4014L23.3829 14.5167L24.3694 15.0859L23.2361 15.2044L22.9991 16.3197L22.5381 15.2791L21.4047 15.3976L22.2496 14.6352L21.7859 13.5945L22.775 14.1638L23.6199 13.4014Z" fill="#F0F0F0"/>
<path d="M19.3002 11.8271L19.4573 12.9553L20.5804 13.1536L19.5552 13.6533L19.7149 14.7814L18.9241 13.9624L17.899 14.4621L18.4347 13.455L17.6414 12.6358L18.7644 12.8342L19.3002 11.8271Z" fill="#F0F0F0"/>
<path d="M14.7004 11.8271L15.2362 12.8342L16.3592 12.6358L15.5659 13.455L16.1017 14.4621L15.0765 13.9624L14.2857 14.7814L14.4454 13.6533L13.4203 13.1536L14.5433 12.9553L14.7004 11.8271Z" fill="#F0F0F0"/>
<path d="M10.3807 13.4004L11.2281 14.1628L12.2147 13.5936L11.751 14.6342L12.5959 15.3966L11.4651 15.2781L11.0015 16.3187L10.7645 15.2034L9.63116 15.0849L10.6177 14.5157L10.3807 13.4004Z" fill="#F0F0F0"/>
<path d="M6.85712 16.3549L7.91317 16.7824L8.64726 15.9092L8.56743 17.0478L9.62348 17.4727L8.51847 17.7483L8.43864 18.8867L7.83592 17.9208L6.72833 18.1965L7.46242 17.3233L6.85712 16.3549Z" fill="#F0F0F0"/>
<path d="M4.55701 20.3394L5.69808 20.3781L6.08702 19.3066L6.40126 20.4038L7.53975 20.4425L6.59444 21.0787L6.90867 22.1759L6.01232 21.4727L5.06703 22.1115L5.45598 21.0401L4.55701 20.3394Z" fill="#F0F0F0"/>
<path d="M32.3132 9.60939C29.5623 3.92217 23.7411 0.00195312 17.0004 0.00195312C10.2596 0.00195312 4.43583 3.92474 1.6875 9.60939H32.3132Z" fill="#FFDA44"/>
</svg>
