<svg width="34" height="34" viewBox="0 0 34 34" fill="none" xmlns="http://www.w3.org/2000/svg">
<path d="M17.0002 34.002C26.3891 34.002 34.0002 26.3908 34.0002 17.002C34.0002 7.61311 26.3891 0.00195312 17.0002 0.00195312C7.6114 0.00195312 0.000244141 7.61311 0.000244141 17.002C0.000244141 26.3908 7.6114 34.002 17.0002 34.002Z" fill="#FCFCFC"/>
<path d="M19.8877 11.8796C19.8877 10.2852 18.5947 8.99219 17.0003 8.99219C15.4059 8.99219 14.1129 10.2852 14.1129 11.8796H7.76105C7.76105 13.4482 9.12881 14.7232 10.6974 14.7232H10.6021C10.6021 16.2945 11.8745 17.5669 13.4458 17.5669C13.4458 18.9578 14.4452 20.1117 15.7614 20.359L15.7536 20.3744H18.2419L18.2341 20.359C19.5529 20.1117 20.5497 18.9578 20.5497 17.5669C22.1209 17.5669 23.3934 16.2945 23.3934 14.7232H23.298C24.8667 14.7232 26.2344 13.4508 26.2344 11.8796H19.8826H19.8877Z" fill="#FFDA44"/>
<path d="M15.7305 20.0781L13.9404 24.1195C14.8857 24.5033 15.9185 24.7171 17.0003 24.7171C18.0822 24.7171 19.115 24.5033 20.0603 24.1195L18.2702 20.0781H15.7305Z" fill="#FFDA44"/>
<path d="M13.3042 13.2979V18.2717C13.3042 21.0998 17.0004 21.9678 17.0004 21.9678C17.0004 21.9678 20.6967 21.0998 20.6967 18.2717V13.2979H13.3042Z" fill="#F0F0F0"/>
<path d="M4.12412 17.1211L6.12291 22.7105L8.10108 17.1211H9.6105L6.72566 24.5136H5.51758L2.61212 17.1211H4.12154H4.12412Z" fill="#338AF3"/>
<path d="M27.347 24.5136V17.1211H28.7843V24.5136H27.347Z" fill="#338AF3"/>
<path d="M14.7824 14.9053V20.9325C15.2898 21.306 15.8359 21.5637 16.2609 21.7285V14.9053H14.7824Z" fill="#D80027"/>
<path d="M19.2179 14.9053V20.9325C18.7104 21.306 18.1644 21.5637 17.7394 21.7285V14.9053H19.2179Z" fill="#D80027"/>
<path d="M20.6967 13.2979H13.3042V15.6418H20.6967V13.2979Z" fill="#0052B4"/>
</svg>
