<svg width="34" height="34" viewBox="0 0 34 34" fill="none" xmlns="http://www.w3.org/2000/svg">
<path d="M17.0002 34.0016C26.389 34.0016 34.0002 26.3906 34.0002 17.0018C34.0002 7.61304 26.389 0.00195312 17.0002 0.00195312C7.61139 0.00195312 0.000244141 7.61304 0.000244141 17.0018C0.000244141 26.3906 7.61139 34.0016 17.0002 34.0016Z" fill="#F0F0F0"/>
<path d="M34.0002 17.002C34.0002 26.3905 26.3888 34.0018 17.0002 34.0018C7.6116 34.0018 0.000244141 26.3905 0.000244141 17.002" fill="#496E2D"/>
<path d="M29.418 11.8329C28.8101 10.1097 27.1668 8.87327 25.235 8.87327H21.4332C18.9836 8.87327 16.9977 10.8592 16.9977 13.3087C16.9977 14.1098 17.2115 14.8773 17.5824 15.5264C16.1709 15.5161 14.865 15.5367 14.0434 15.5264V11.1811L14.2185 11.0061C15.0015 10.223 14.7414 8.91453 14.7414 8.91453C14.7414 8.91453 13.4355 8.65432 12.6499 9.43734L11.7355 10.3518H10.7155C8.46944 10.3518 6.65095 12.1728 6.65095 14.4163H9.60791V17.7416C9.60791 18.2284 9.70581 18.692 9.88354 19.1145L8.86864 19.9592H7.39016V18.4808H5.91168V21.4378H12.5649V24.3947H11.0864V25.8731H14.0434V22.9162L15.3982 21.2909H18.6024L19.9573 22.9162V24.3947H18.4788V25.8731H24.3927V17.7416C24.3927 16.5181 25.3844 15.5238 26.6105 15.5238C26.6414 15.5238 26.6722 15.5238 26.7032 15.5238C26.6413 15.2868 26.6105 15.0396 26.6105 14.782C26.6105 13.1979 27.8571 11.9049 29.4206 11.8302L29.418 11.8329ZM21.4358 24.3947V21.2909H21.5594L22.9142 22.9162V24.3947H21.4358Z" fill="#D80027"/>
</svg>
