<svg width="34" height="34" viewBox="0 0 34 34" fill="none" xmlns="http://www.w3.org/2000/svg">
<path d="M1.68738 9.61024C0.60556 11.846 0.000244141 14.3522 0.000244141 17.0026C0.000244141 19.6531 0.60556 22.1593 1.68738 24.395L17.0002 25.8735L32.3131 24.395C33.3949 22.1593 34.0002 19.6531 34.0002 17.0026C34.0002 14.3522 33.3949 11.846 32.3131 9.61024L17.0002 8.13184L1.68738 9.61024Z" fill="#F0F0F0"/>
<path d="M1.68768 24.3945C4.43602 30.0817 10.2598 34.002 17.0005 34.002C23.7413 34.002 29.5625 30.0792 32.3134 24.3945H1.68768Z" fill="#496E2D"/>
<path d="M1.68768 9.60939H32.3134C29.5651 3.92217 23.7413 0.00195312 17.0005 0.00195312C10.2598 0.00195312 4.43859 3.92474 1.68768 9.60939Z" fill="black"/>
<path d="M4.97921 4.98145C-1.65852 11.6191 -1.65852 22.3831 4.97921 29.0233C7.72239 26.2801 10.3599 23.6426 17.0003 17.0024L4.97921 4.98145Z" fill="#D80027"/>
<path d="M21.4355 17.0027C21.4355 14.5249 23.1767 12.4565 25.5 11.9491C25.142 11.8718 24.7711 11.8281 24.3924 11.8281C21.5359 11.8281 19.2178 14.1437 19.2178 17.0027C19.2178 19.8618 21.5333 22.1773 24.3924 22.1773C24.7736 22.1773 25.1446 22.1362 25.5 22.0563C23.1767 21.5489 21.4355 19.4806 21.4355 17.0027Z" fill="#D80027"/>
<path d="M25.7166 13.6768L26.4507 15.9357H28.8255L26.904 17.3292L27.6381 19.5881L25.7166 18.1921L23.7976 19.5881L24.5292 17.3292L22.6102 15.9357H24.9825L25.7166 13.6768Z" fill="#D80027"/>
</svg>
