<svg width="34" height="34" viewBox="0 0 34 34" fill="none" xmlns="http://www.w3.org/2000/svg">
<path d="M17 34.0018C26.3888 34.0018 34 26.3907 34 17.0019C34 7.61308 26.3888 0.00195312 17 0.00195312C7.61116 0.00195312 0 7.61308 0 17.0019C0 26.3907 7.61116 34.0018 17 34.0018Z" fill="#496E2D"/>
<path d="M23.6532 17.002H17V34.0019C18.9859 34.0019 20.8945 33.6594 22.6667 33.0335L23.6532 17.002Z" fill="#D80027"/>
<path d="M28.3334 29.672C31.8107 26.5605 34.0001 22.0375 34.0001 17.002H27.3469L28.3334 29.672Z" fill="#FF9811"/>
<path d="M22.6668 17.002V33.0335C24.7789 32.2865 26.6979 31.1351 28.3335 29.672V17.002H22.6668Z" fill="black"/>
<path d="M31.4138 11.0889H26.9783C26.9783 10.2724 26.3164 9.61035 25.4998 9.61035C24.6833 9.61035 24.0214 10.2724 24.0214 11.0889H19.5859C19.5859 11.9054 20.2968 12.5673 21.1133 12.5673H21.0644C21.0644 13.3838 21.7264 14.0458 22.5429 14.0458C22.5429 14.8624 23.2048 15.5243 24.0214 15.5243H26.9783C27.7948 15.5243 28.4568 14.8624 28.4568 14.0458C29.2733 14.0458 29.9353 13.3838 29.9353 12.5673H29.8864C30.7029 12.5673 31.4138 11.9054 31.4138 11.0889Z" fill="#FF9811"/>
</svg>
