<svg width="34" height="34" viewBox="0 0 34 34" fill="none" xmlns="http://www.w3.org/2000/svg">
<path d="M17 34.0013C26.3888 34.0013 34 26.3903 34 17.0016C34 7.61297 26.3888 0.00195312 17 0.00195312C7.61116 0.00195312 0 7.61297 0 17.0016C0 26.3903 7.61116 34.0013 17 34.0013Z" fill="#F0F0F0"/>
<path d="M32.3719 9.73821C31.509 7.91461 30.3293 6.26875 28.9049 4.87014L16.9972 3.69824L5.08944 4.87014C5.0508 4.9062 5.01474 4.94482 4.9761 4.98346L9.73096 9.73821L16.9946 9.95981L32.3667 9.73821H32.3719Z" fill="#FFDA44"/>
<path d="M4.98131 29.0195C5.04313 29.0813 5.10751 29.1457 5.16933 29.2075L16.9998 30.3047L28.8302 29.2075C30.2675 27.8141 31.4627 26.1682 32.3384 24.3395L10.3466 23.6543C8.45342 25.5474 6.27176 27.729 4.97873 29.022L4.98131 29.0195Z" fill="#FFDA44"/>
<path d="M33.8297 14.6038L14.0427 14.0449L16.9997 17.0018C16.1239 17.8776 14.8155 19.186 14.0427 19.9587L33.8194 19.4719C33.9379 18.6657 33.9997 17.8415 33.9997 17.0018C33.9997 16.1622 33.9405 15.3894 33.8297 14.6038Z" fill="black"/>
<path d="M16.9996 0.00195312C12.3632 0.00195312 8.15962 1.85902 5.09189 4.87002H28.9048C25.837 1.85902 21.636 0.00195312 16.997 0.00195312H16.9996Z" fill="#6DA544"/>
<path d="M14.6019 14.6034H33.8299C33.5878 12.8854 33.0881 11.2499 32.372 9.73535H9.73367L14.6019 14.6034Z" fill="#D80027"/>
<path d="M9.66176 24.3389H32.3387C33.0625 22.827 33.5699 21.1913 33.8198 19.4707H14.5274C12.6419 21.3561 11.0449 22.9532 9.65918 24.3389H9.66176Z" fill="#D80027"/>
<path d="M16.9996 34.0023C21.5974 34.0023 25.7701 32.1762 28.8301 29.209H5.16919C8.22919 32.1762 12.4019 34.0023 16.9996 34.0023Z" fill="#6DA544"/>
<path d="M6.07106 3.98145C5.69243 4.29826 5.32925 4.63307 4.97894 4.98079L17 17.0016L4.97894 29.0224C5.32667 29.3702 5.69243 29.705 6.07106 30.0218L19.0915 17.0016L6.07106 3.98145Z" fill="black"/>
<path d="M6.83599 12.5664L7.93584 15.9561H11.4981L8.61585 18.0476L9.71568 21.4373L6.83599 19.3431L3.95372 21.4373L5.05357 18.0476L2.1713 15.9561H5.73357L6.83599 12.5664Z" fill="#D80027"/>
<path d="M9.86266 17.28L6.99328 16.2626C6.99328 16.2626 6.78207 14.2741 6.76919 14.2072C6.67131 13.6946 6.22054 13.3057 5.67963 13.3057C5.0666 13.3057 4.57206 13.8029 4.57206 14.4133C4.57206 14.5137 4.58751 14.6115 4.61327 14.7068L3.80963 15.5156H5.23919C5.23919 16.9993 4.1316 16.9993 4.1316 18.4777L4.74721 19.9562H8.44343L9.05903 18.4777C9.12084 18.336 9.15691 18.1892 9.17236 18.0424C9.70297 17.8286 9.86524 17.2749 9.86524 17.2749L9.86266 17.28Z" fill="#FFDA44"/>
</svg>
