<svg width="24" height="24" viewBox="0 0 24 24" fill="none" xmlns="http://www.w3.org/2000/svg">
<path fill-rule="evenodd" clip-rule="evenodd" d="M14.9066 6.68512C14.4498 6.68512 13.91 6.78893 13.2976 7.00692C12.6747 7.21453 12.2284 7.32872 11.9585 7.32872C11.7509 7.32872 11.3149 7.23529 10.6713 7.04844C10.0277 6.86159 9.47751 6.76817 9.02076 6.76817C7.95156 6.76817 7.0692 7.21453 6.3737 8.11765C5.6782 9.01038 5.32526 10.173 5.32526 11.6055C5.32526 12.3945 5.43945 13.1834 5.66782 13.9308C5.91695 14.7612 6.25951 15.5502 6.6955 16.2976C7.15225 17.1073 7.61938 17.7093 8.0865 18.1142C8.55363 18.519 9.02076 18.7163 9.49827 18.7163C9.80969 18.7163 10.2249 18.6125 10.7336 18.4048C11.2422 18.1972 11.6886 18.0934 12.0623 18.0934C12.4464 18.0934 12.9135 18.1972 13.4637 18.3945C14.0138 18.5917 14.4498 18.6955 14.7716 18.6955C15.1765 18.6955 15.5709 18.5398 15.9758 18.2388C16.3806 17.9377 16.7751 17.481 17.1799 16.8685C17.4291 16.4844 17.6678 16.09 17.865 15.6747C18.0519 15.301 18.1972 14.9273 18.3218 14.5329C17.7716 14.3668 17.2837 13.9827 16.8477 13.3599C16.4221 12.7474 16.1938 12.0208 16.2042 11.2734C16.2042 10.7647 16.3183 10.2664 16.5363 9.80969C16.7543 9.33218 17.2007 8.81315 17.8754 8.24221C17.4498 7.7128 16.9931 7.31834 16.5156 7.0692C16.0173 6.82007 15.4671 6.6955 14.917 6.70588L14.9066 6.68512ZM14.7509 3.17647C13.6609 3.42561 12.8824 3.88235 12.4152 4.55709C11.9481 5.23183 11.7093 6.03114 11.6886 6.94464C12.1661 6.92387 12.5398 6.84083 12.8304 6.71626C13.1419 6.57093 13.4325 6.36332 13.6713 6.11419C14.045 5.75086 14.3356 5.31488 14.5329 4.82699C14.7197 4.37024 14.8028 3.94464 14.8028 3.55017C14.8028 3.48789 14.8028 3.42561 14.8028 3.36332C14.8028 3.29066 14.782 3.21799 14.7612 3.15571L14.7509 3.17647ZM12 0C18.6332 0 24 5.37716 24 12C24 18.6228 18.6228 24 12 24C5.37716 24 0 18.6332 0 12C0 5.36678 5.37716 0 12 0Z" fill="black"/>
</svg>
