<svg width="74" height="74" viewBox="0 0 74 74" fill="none" xmlns="http://www.w3.org/2000/svg">
<circle cx="37" cy="37" r="37" fill="white"/>
<circle cx="37" cy="37.0001" r="32.8889" fill="black"/>
<circle cx="37" cy="36.9999" r="28.7778" fill="white"/>
<path d="M36.5718 42.9099C39.5281 42.9099 41.9248 40.5132 41.9248 37.5569C41.9248 34.6005 39.5281 32.2039 36.5718 32.2039C33.6154 32.2039 31.2188 34.6005 31.2188 37.5569C31.2188 40.5132 33.6154 42.9099 36.5718 42.9099Z" fill="black"/>
<path d="M48.3484 27.9212H45.3892C45.1903 27.9219 44.9952 27.8667 44.826 27.7621C44.6568 27.6574 44.5204 27.5075 44.4321 27.3292L43.4739 25.4139C43.2088 24.8792 42.7992 24.4294 42.2915 24.1157C41.7838 23.8019 41.1983 23.6367 40.6015 23.6388H32.542C31.9452 23.6367 31.3597 23.8019 30.852 24.1157C30.3443 24.4294 29.9347 24.8792 29.6696 25.4139L28.7061 27.3292C28.6182 27.5066 28.4826 27.6561 28.3144 27.7607C28.1463 27.8653 27.9523 27.9209 27.7543 27.9212H24.7951C23.9433 27.9212 23.1264 28.2596 22.5241 28.8619C21.9217 29.4643 21.5833 30.2812 21.5833 31.133V46.1214C21.5833 46.9733 21.9217 47.7902 22.5241 48.3925C23.1264 48.9949 23.9433 49.3332 24.7951 49.3332H48.3484C49.2002 49.3332 50.0171 48.9949 50.6195 48.3925C51.2218 47.7902 51.5602 46.9733 51.5602 46.1214V31.133C51.5602 30.2812 51.2218 29.4643 50.6195 28.8619C50.0171 28.2596 49.2002 27.9212 48.3484 27.9212ZM36.5718 45.0508C35.0895 45.0508 33.6406 44.6113 32.4082 43.7878C31.1758 42.9644 30.2152 41.7939 29.648 40.4245C29.0808 39.0551 28.9324 37.5483 29.2216 36.0946C29.5107 34.6408 30.2245 33.3055 31.2726 32.2574C32.3206 31.2093 33.656 30.4956 35.1097 30.2064C36.5634 29.9173 38.0703 30.0657 39.4397 30.6329C40.8091 31.2001 41.9795 32.1607 42.803 33.3931C43.6264 34.6255 44.066 36.0744 44.066 37.5566C44.0637 39.5435 43.2734 41.4484 41.8685 42.8533C40.4635 44.2583 38.5587 45.0486 36.5718 45.0508ZM47.2778 33.2742C47.066 33.2742 46.859 33.2114 46.683 33.0938C46.5069 32.9762 46.3697 32.8089 46.2887 32.6133C46.2076 32.4177 46.1864 32.2024 46.2277 31.9948C46.269 31.7871 46.371 31.5963 46.5207 31.4466C46.6705 31.2969 46.8612 31.1949 47.0689 31.1536C47.2766 31.1123 47.4918 31.1335 47.6875 31.2145C47.8831 31.2955 48.0503 31.4328 48.1679 31.6088C48.2856 31.7849 48.3484 31.9919 48.3484 32.2036C48.3484 32.4876 48.2356 32.7599 48.0348 32.9607C47.834 33.1614 47.5617 33.2742 47.2778 33.2742Z" fill="black"/>
</svg>
