<svg width="16" height="16" viewBox="0 0 16 16" fill="none" xmlns="http://www.w3.org/2000/svg">
<g clip-path="url(#clip0_117_1042)">
<path d="M15.5893 13.8457L2.15389 0.376184C1.66136 -0.117596 0.862811 -0.117596 0.370281 0.376184L0.361946 0.38454C-0.130583 0.87832 -0.130583 1.67889 0.361946 2.17267L13.7973 15.6422C14.2899 16.1359 15.0884 16.1359 15.5809 15.6422L15.5893 15.6338C16.0818 15.14 16.0818 14.3395 15.5893 13.8457Z" fill="#909090"/>
<path d="M2.16072 15.6288L15.5961 2.15933C16.0886 1.66555 16.0886 0.864971 15.5961 0.371192L15.5878 0.362836C15.0952 -0.130944 14.2967 -0.130944 13.8042 0.362836L0.368773 13.8323C-0.123757 14.3261 -0.123756 15.1267 0.368773 15.6205L0.377108 15.6288C0.869638 16.1226 1.66818 16.1226 2.16072 15.6288Z" fill="#909090"/>
</g>
<defs>
<clipPath id="clip0_117_1042">
<rect width="15.9595" height="16" fill="white"/>
</clipPath>
</defs>
</svg>
