<svg width="24" height="16" viewBox="0 0 24 16" fill="none" xmlns="http://www.w3.org/2000/svg">
<path d="M21.9033 0H2.10781C0.947955 0 0 0.898876 0 1.99868V14.0013C0 15.1117 0.947955 16 2.10781 16H21.8922C23.052 16 24 15.1117 24 14.0013V1.99868C24 0.898876 23.0632 0 21.8922 0H21.9033ZM21.6022 1.33245C21.1673 1.7343 13.7509 8.73496 13.4944 8.97819C13.0929 9.35889 12.5688 9.55982 12 9.55982C11.4312 9.55982 10.9071 9.34831 10.5056 8.96761C10.3383 8.80899 3 1.88235 2.39777 1.32188H21.5911L21.6022 1.33245ZM1.4052 13.7369V2.27363L7.48327 8.00529L1.4052 13.7369ZM2.40892 14.6781L8.48699 8.95704L9.52416 9.92994C10.1933 10.5644 11.0744 10.9028 12.0112 10.9028C12.948 10.9028 13.829 10.5539 14.4981 9.92994L15.5353 8.95704L21.6134 14.6781H2.40892ZM22.6059 13.7369L16.5279 8.00529L22.6059 2.27363V13.7369Z" fill="white"/>
</svg>
