<svg width="25" height="16" viewBox="0 0 25 16" fill="none" xmlns="http://www.w3.org/2000/svg">
<path d="M22.4033 0H2.60781C1.44796 0 0.5 0.898876 0.5 1.99868V14.0013C0.5 15.1117 1.44796 16 2.60781 16H22.3922C23.552 16 24.5 15.1117 24.5 14.0013V1.99868C24.5 0.898876 23.5632 0 22.3922 0H22.4033ZM22.1022 1.33245C21.6673 1.7343 14.2509 8.73496 13.9944 8.97819C13.5929 9.35889 13.0688 9.55982 12.5 9.55982C11.9312 9.55982 11.4071 9.34831 11.0056 8.96761C10.8383 8.80899 3.5 1.88235 2.89777 1.32188H22.0911L22.1022 1.33245ZM1.9052 13.7369V2.27363L7.98327 8.00529L1.9052 13.7369ZM2.90892 14.6781L8.98699 8.95704L10.0242 9.92994C10.6933 10.5644 11.5744 10.9028 12.5112 10.9028C13.448 10.9028 14.329 10.5539 14.9981 9.92994L16.0353 8.95704L22.1134 14.6781H2.90892ZM23.1059 13.7369L17.0279 8.00529L23.1059 2.27363V13.7369Z" fill="#DD5C45"/>
</svg>
