<svg width="24" height="24" viewBox="0 0 24 24" fill="none" xmlns="http://www.w3.org/2000/svg">
<g clip-path="url(#clip0_331_22876)">
<path d="M24 12C24 17.9896 19.609 22.9516 13.8685 23.8547V15.4671H16.6609L17.1903 12H13.8581V9.7474C13.8581 8.80277 14.3253 7.86851 15.8097 7.86851H17.3253V4.91003C17.3253 4.91003 15.955 4.67128 14.6367 4.67128C11.8962 4.67128 10.1003 6.33218 10.1003 9.34256V11.9896H7.04844V15.4567H10.1003V23.8443C4.391 22.9619 0 17.9896 0 12C0 5.37716 5.37716 0 12 0C18.6228 0 24 5.37716 24 12Z" fill="#1877F2"/>
<path d="M16.671 15.4671L17.2005 12H13.8683V9.74739C13.8683 8.80275 14.3354 7.8685 15.8198 7.8685H17.3354V4.91002C17.3354 4.91002 15.9652 4.67126 14.6468 4.67126C11.9063 4.67126 10.1105 6.33216 10.1105 9.34254V11.9896H7.05859V15.4567H10.1105V23.8443C10.723 23.9377 11.3458 23.9896 11.9894 23.9896C12.633 23.9896 13.2558 23.9377 13.8683 23.8443V15.4567H16.6607L16.671 15.4671Z" fill="white"/>
</g>
<defs>
<clipPath id="clip0_331_22876">
<rect width="24" height="24" fill="white"/>
</clipPath>
</defs>
</svg>
