<svg width="323" height="124" viewBox="0 0 323 124" fill="none" xmlns="http://www.w3.org/2000/svg">
<path d="M208.5 0H114.5V124H208.5V0Z" fill="#E3ECED"/>
<mask id="mask0_99_5" style="mask-type:luminance" maskUnits="userSpaceOnUse" x="114" y="0" width="95" height="124">
<path d="M208.5 0H114.5V124H208.5V0Z" fill="white"/>
</mask>
<g mask="url(#mask0_99_5)">
<path d="M94.8906 133.544C100.544 113.666 116.767 117.508 143.383 102.362V94.6482C137.475 90.4797 136.23 82.9884 134.116 75.0669H133.891C133.051 75.0669 131.162 69.2518 130.742 67.5607C130.098 65.0537 128.013 60.2623 129.903 57.9629C131.582 56.5092 132.632 58.1855 132.632 58.1855C130.322 45.4725 126.949 28.7987 144.837 23.5919C144.837 12.7628 186.731 17.5543 191.575 35.2813C193.884 42.1496 190.93 57.9926 190.93 57.9926C191.575 56.9394 192.399 56.5388 193.239 57.3844C195.548 58.8382 193.014 65.5136 192.399 67.5904C191.979 69.4595 190.105 75.0966 189.25 75.0966C187.361 82.1874 185.457 89.9012 179.999 93.6543V102.377C206.014 117.196 222.118 114.838 228.101 132.98" fill="#B3BCBE"/>
</g>
<rect width="323" height="124" fill="#DD5C45" fill-opacity="0.4"/>
<rect x="114.5" y="20.3335" width="94" height="31.3333" stroke="white" stroke-width="1.69369"/>
<path d="M149.921 47.7702C144.941 47.7702 141.511 44.0356 141.511 37.9383C141.511 31.8156 144.941 28.2589 149.921 28.2589C154.9 28.2589 158.33 31.841 158.33 37.9383C158.33 44.0356 154.9 47.7702 149.921 47.7702ZM149.921 44.5183C152.715 44.5183 154.494 41.9524 154.494 37.9383C154.494 33.8989 152.715 31.4854 149.921 31.4854C147.126 31.4854 145.348 33.8989 145.348 37.9383C145.348 41.9524 147.126 44.5183 149.921 44.5183ZM167.758 47.4146V28.5891H171.518V36.7697H171.594L177.818 28.5891H181.959L176.218 36.0075L182.975 47.4146H178.86L173.982 38.9546L171.518 42.1302V47.4146H167.758Z" fill="white"/>
<path d="M137.715 77.6665L134.551 67.3065H136.721L138.093 72.3465C138.415 73.4945 138.625 74.5305 138.961 75.6925H139.031C139.353 74.5305 139.591 73.4945 139.913 72.3465L141.257 67.3065H143.357L140.179 77.6665H137.715ZM147.51 77.8625C145.326 77.8625 143.618 76.3365 143.618 73.7605C143.618 71.2125 145.396 69.6305 147.272 69.6305C149.428 69.6305 150.548 71.2125 150.548 73.3825C150.548 73.7605 150.506 74.1385 150.45 74.3205H145.62C145.788 75.6085 146.628 76.2805 147.79 76.2805C148.434 76.2805 148.994 76.0845 149.554 75.7345L150.254 76.9945C149.484 77.5265 148.49 77.8625 147.51 77.8625ZM145.592 72.9625H148.784C148.784 71.8985 148.308 71.2265 147.3 71.2265C146.474 71.2265 145.746 71.8145 145.592 72.9625ZM152.243 77.6665V69.8265H153.923L154.063 71.2125H154.119C154.693 70.1905 155.533 69.6305 156.345 69.6305C156.779 69.6305 157.031 69.7005 157.269 69.7985L156.905 71.5765C156.639 71.4925 156.415 71.4505 156.093 71.4505C155.477 71.4505 154.735 71.8565 154.287 72.9905V77.6665H152.243ZM158.34 77.6665V69.8265H160.384V77.6665H158.34ZM159.376 68.5665C158.662 68.5665 158.144 68.0905 158.144 67.4465C158.144 66.7745 158.662 66.3265 159.376 66.3265C160.076 66.3265 160.594 66.7745 160.594 67.4465C160.594 68.0905 160.076 68.5665 159.376 68.5665ZM162.942 69.8405V69.1965C162.942 67.5585 163.698 66.2985 165.672 66.2985C166.274 66.2985 166.806 66.4385 167.156 66.5785L166.778 68.0905C166.512 67.9925 166.204 67.9225 165.952 67.9225C165.336 67.9225 165 68.2865 165 69.1545V69.8265H166.47V71.4505H165V77.6665H162.942V71.4505H161.892V69.9245L162.942 69.8405ZM169.102 68.5665C168.402 68.5665 167.884 68.0905 167.884 67.4465C167.884 66.7745 168.402 66.3265 169.102 66.3265C169.816 66.3265 170.348 66.7745 170.348 67.4465C170.348 68.0905 169.816 68.5665 169.102 68.5665ZM168.08 77.6665V69.8265H170.124V77.6665H168.08ZM175.742 77.8625C173.558 77.8625 171.85 76.3365 171.85 73.7605C171.85 71.2125 173.628 69.6305 175.504 69.6305C177.66 69.6305 178.78 71.2125 178.78 73.3825C178.78 73.7605 178.738 74.1385 178.682 74.3205H173.852C174.02 75.6085 174.86 76.2805 176.022 76.2805C176.666 76.2805 177.226 76.0845 177.786 75.7345L178.486 76.9945C177.716 77.5265 176.722 77.8625 175.742 77.8625ZM173.824 72.9625H177.016C177.016 71.8985 176.54 71.2265 175.532 71.2265C174.706 71.2265 173.978 71.8145 173.824 72.9625ZM183.233 77.8625C181.287 77.8625 180.027 76.3225 180.027 73.7605C180.027 71.1985 181.623 69.6305 183.317 69.6305C184.199 69.6305 184.745 69.9665 185.305 70.4845L185.221 69.2525V66.4945H187.279V77.6665H185.613L185.445 76.8545H185.403C184.829 77.4145 184.045 77.8625 183.233 77.8625ZM183.765 76.1685C184.311 76.1685 184.773 75.9445 185.221 75.3565V71.9125C184.745 71.4785 184.255 71.3245 183.765 71.3245C182.883 71.3245 182.141 72.1645 182.141 73.7325C182.141 75.3565 182.729 76.1685 183.765 76.1685ZM145.876 97.8405H150.454C151.896 97.8405 152.12 97.4765 152.33 95.4465C152.764 95.7125 153.52 95.9925 154.01 96.0905C153.688 98.7225 153.072 99.4925 150.524 99.4925H145.89C143.188 99.4925 142.362 98.9605 142.362 96.8465V90.3225H144.084V92.2265H150.44V89.2445H141.802V87.5925H152.176V94.5225H150.44V93.8645H144.084V96.8465C144.084 97.7145 144.336 97.8405 145.876 97.8405ZM158.994 93.2765H160.436C160.436 93.2765 160.422 93.6825 160.408 93.8645C160.24 97.3785 160.058 98.7505 159.624 99.2265C159.33 99.5905 159.022 99.7025 158.56 99.7585C158.182 99.8145 157.524 99.8005 156.852 99.7865C156.838 99.3665 156.67 98.8065 156.432 98.4285C157.062 98.4985 157.636 98.5125 157.902 98.5125C158.126 98.5125 158.266 98.4845 158.392 98.3305C158.672 98.0225 158.854 96.7625 158.994 93.5145V93.2765ZM154.766 96.3285C155.718 96.1605 157.048 95.8665 158.392 95.5725L158.532 96.8045C157.328 97.0985 156.082 97.3925 155.046 97.6305L154.766 96.3285ZM155.13 87.2985H158.812V88.6985H155.13V87.2985ZM158.378 87.2985H159.778C159.68 89.3565 159.484 92.0165 159.316 93.5845H157.916C158.126 91.9465 158.322 89.3005 158.378 87.2985ZM155.69 89.6365L157.104 89.7065C157.02 91.3025 156.866 93.3465 156.726 94.5925H155.312C155.48 93.3045 155.62 91.2185 155.69 89.6365ZM155.788 93.2905H159.162V94.5925H155.788V93.2905ZM164.23 87.1585C165.098 88.3905 166.778 89.9025 168.262 90.6865C167.996 91.1065 167.66 91.8765 167.52 92.3525C165.868 91.2605 164.076 89.4685 162.998 87.9705L164.23 87.1585ZM163.628 86.6125L165.084 87.1165C164.02 89.2305 162.27 91.1765 160.492 92.3805C160.324 92.0445 159.834 91.3445 159.54 91.0085C161.178 90.0285 162.746 88.4045 163.628 86.6125ZM161.906 91.0645H166.232V92.4785H161.906V91.0645ZM160.94 93.7805L162.228 93.4585C162.564 94.4945 162.914 95.8385 163.04 96.7345L161.682 97.1125C161.598 96.2165 161.262 94.8305 160.94 93.7805ZM163.376 93.4025L164.65 93.2205C164.916 94.2705 165.154 95.6145 165.252 96.5105L163.894 96.7205C163.838 95.8245 163.6 94.4385 163.376 93.4025ZM166.414 93.2905L167.926 93.6125C167.338 95.2785 166.568 97.2385 165.924 98.4705L164.706 98.1345C165.322 96.8605 166.05 94.8025 166.414 93.2905ZM160.59 97.8825H167.884V99.3105H160.59V97.8825ZM177.502 88.1105H179.238V98.6245H177.502V88.1105ZM174.506 91.4705H176.158V98.7505H174.506V91.4705ZM178.104 92.3665H181.534V93.9345H178.104V92.3665ZM173.834 87.6625H181.8V89.2165H173.834V87.6625ZM173.47 97.8265H182.08V99.3945H173.47V97.8265ZM169.634 88.0125L170.712 87.0045C171.482 87.6205 172.504 88.5165 172.994 89.1185L171.846 90.2805C171.398 89.6505 170.39 88.6985 169.634 88.0125ZM170.838 99.6745L170.418 98.1065L170.712 97.5605L173.442 95.2365C173.596 95.6985 173.904 96.3845 174.114 96.7205C171.566 98.9185 171.09 99.3385 170.838 99.6745ZM169.046 91.0925H171.608V92.7025H169.046V91.0925ZM170.838 99.6745C170.656 99.3665 170.11 98.8205 169.83 98.5965C170.18 98.2885 170.698 97.6165 170.698 96.7485V91.0925H172.336V97.5465C172.336 97.5465 170.838 99.0445 170.838 99.6745Z" fill="white"/>
</svg>
