<svg width="343" height="302" viewBox="0 0 343 302" fill="none" xmlns="http://www.w3.org/2000/svg">
<path d="M1.75781 300C16.1547 248.796 57.5105 258.69 125.328 219.673V199.797C110.284 189.073 107.085 169.758 101.696 149.376H101.135C99.002 149.376 96.869 146.176 96.869 141.852C96.869 140.785 97.4303 140.785 97.4303 139.719C95.8025 137.585 94.1747 134.385 93.1082 130.061C91.4804 123.604 86.1479 111.252 90.9752 105.356C95.2412 101.594 97.9355 105.918 97.9355 105.918C92.0417 73.1835 83.4536 30.2304 129.032 16.8111C129.032 -11.0944 235.794 1.25812 248.143 46.9063C254.037 64.5928 246.515 105.412 246.515 105.412C248.143 102.717 250.276 101.65 252.409 103.84C258.303 107.602 251.848 124.783 250.276 130.117C249.21 134.946 247.582 138.146 246.01 140.842L246.571 141.908C246.571 145.67 244.438 149.432 242.249 149.432C237.422 167.68 232.595 187.557 218.674 197.214V197.158V219.673C284.97 257.84 326.013 251.784 341.258 298.5" stroke="#FF8383" stroke-width="3" stroke-miterlimit="10" stroke-linecap="round"/>
</svg>
