<svg width="24" height="24" viewBox="0 0 24 24" fill="none" xmlns="http://www.w3.org/2000/svg">
<g clip-path="url(#clip0_331_22865)">
<path d="M23.0968 9.91352H13.3078C12.8719 9.91352 12.5293 10.2665 12.5293 10.6921V13.8166C12.5293 14.2526 12.8822 14.5952 13.3078 14.5952H18.82C18.2179 16.1627 17.0864 17.4706 15.6539 18.3114L17.9999 22.3806C21.7681 20.2007 23.9999 16.3703 23.9999 12.0831C23.9999 11.4706 23.9584 11.0346 23.8649 10.5467C23.7923 10.173 23.4705 9.90314 23.0968 9.90314V9.91352Z" fill="#167EE6"/>
<path d="M12.0004 19.308C9.30142 19.308 6.94501 17.8339 5.67858 15.654L1.60938 18C3.6855 21.5917 7.55747 24.0104 12.0004 24.0104C14.1803 24.0104 16.2357 23.4291 18.0004 22.4014L15.6544 18.3218C14.5748 18.9446 13.3395 19.308 12.0004 19.308Z" fill="#12B347"/>
<path d="M18 22.4014L15.654 18.3218C14.5744 18.9446 13.3391 19.3079 12 19.3079V24C14.1799 24 16.2353 23.4187 18 22.391V22.4014Z" fill="#0F993E"/>
<path d="M4.69204 12C4.69204 10.6713 5.05536 9.42561 5.6782 8.34602L1.609 6C0.581315 7.76471 0 9.80969 0 12C0 14.1903 0.581315 16.2353 1.609 18L5.6782 15.654C5.05536 14.5744 4.69204 13.3391 4.69204 12Z" fill="#FFD500"/>
<path d="M12.0004 4.69205C13.7651 4.69205 15.3741 5.31488 16.6405 6.35295C16.9519 6.61246 17.4087 6.5917 17.689 6.30104L19.9 4.08997C20.2218 3.76817 20.2011 3.23876 19.8585 2.93772C17.7409 1.10035 14.99 -0.010376 12.0004 -0.010376C7.56785 4.64544e-06 3.6855 2.41869 1.60938 6.01039L5.67858 8.35641C6.94501 6.17648 9.30142 4.70243 12.0004 4.70243V4.69205Z" fill="#FF4B26"/>
<path d="M16.6401 6.36332C16.9516 6.62284 17.4083 6.60208 17.6886 6.31142L19.8997 4.10035C20.2215 3.77855 20.2007 3.24913 19.8581 2.9481C17.7405 1.11073 14.9896 0 12 0V4.69204C13.7647 4.69204 15.3737 5.31488 16.6401 6.35294V6.36332Z" fill="#D93F21"/>
</g>
<defs>
<clipPath id="clip0_331_22865">
<rect width="24" height="24" fill="white"/>
</clipPath>
</defs>
</svg>
