<svg width="20" height="21" viewBox="0 0 20 21" fill="none" xmlns="http://www.w3.org/2000/svg">
<g clip-path="url(#clip0_117_404)">
<path d="M10 20.5C4.4887 20.5 0 16.0113 0 10.5C0 4.9887 4.4887 0.5 10 0.5C15.5113 0.5 20 4.9887 20 10.5C20 16.0113 15.5113 20.5 10 20.5Z" fill="white"/>
<path d="M10 7.90582C9.38644 7.90582 8.89128 8.40098 8.89128 9.01454V16.4204C8.89128 17.0339 9.38644 17.5291 10 17.5291C10.6136 17.5291 11.1087 17.0339 11.1087 16.4204V9.01454C11.1087 8.40098 10.6136 7.90582 10 7.90582Z" fill="#909090"/>
<path d="M10 3.46014C9.70936 3.46014 9.41873 3.57855 9.21421 3.78307C9.00969 3.98759 8.89128 4.27823 8.89128 4.56886C8.89128 4.8595 9.00969 5.15013 9.21421 5.35465C9.41873 5.55918 9.70936 5.67758 10 5.67758C10.2906 5.67758 10.5813 5.55918 10.7858 5.35465C10.9903 5.15013 11.1087 4.8595 11.1087 4.56886C11.1087 4.27823 10.9903 3.98759 10.7858 3.78307C10.5813 3.57855 10.2906 3.46014 10 3.46014Z" fill="#909090"/>
</g>
<defs>
<clipPath id="clip0_117_404">
<rect width="20" height="20" fill="white" transform="translate(0 0.5)"/>
</clipPath>
</defs>
</svg>
