<svg width="160" height="34" viewBox="0 0 160 34" fill="none" xmlns="http://www.w3.org/2000/svg">
<g clip-path="url(#clip0_261_456)">
<path d="M56.773 12.0453H61.8327V20.1196C61.8327 22.0422 61.1022 23.0047 59.6389 23.0047C59.0698 23.0047 58.5522 22.8566 58.0838 22.5582C57.6155 22.2599 57.1875 21.8134 56.7931 21.2166L55.2896 23.1842C55.778 23.929 56.4032 24.4966 57.1696 24.8847C57.9337 25.2729 58.765 25.4658 59.6591 25.4658C61.2299 25.4658 62.422 25.0104 63.2354 24.1018C64.0488 23.1931 64.4544 21.8134 64.4544 19.9625V9.58417H56.7752V12.0453H56.773Z" fill="#3F3F3F"/>
<path d="M79.0914 10.246C78.1906 9.80629 77.1105 9.58643 75.8512 9.58643H70.0004V25.2437H72.6423V20.7253H75.8534C77.1127 20.7253 78.1928 20.4987 79.0936 20.0433C79.9944 19.5879 80.6891 18.9462 81.1753 18.1206C81.6638 17.2928 81.9058 16.3057 81.9058 15.157C81.9058 14.0083 81.6616 12.9943 81.1753 12.1597C80.6868 11.3251 79.9944 10.688 79.0936 10.2483L79.0914 10.246ZM78.3586 17.4476C77.7693 17.9928 76.8931 18.2642 75.7279 18.2642H72.6401V12.0453H75.7279C76.8931 12.0453 77.7693 12.3167 78.3586 12.8619C78.9479 13.4071 79.2415 14.1699 79.2415 15.1548C79.2415 16.1396 78.9479 16.9024 78.3586 17.4476Z" fill="#3F3F3F"/>
<path d="M88.059 15.7672V13.4991H86.6765V25.2415H88.1195V19.2469C88.1195 17.8604 88.4377 16.7903 89.0741 16.0365C89.7105 15.2826 90.5911 14.908 91.716 14.908C91.7698 14.908 91.8236 14.9125 91.8796 14.9192C91.9334 14.9259 91.9872 14.9304 92.0432 14.9304V13.3869C90.999 13.3869 90.1273 13.6225 89.4214 14.0914C88.8187 14.4929 88.366 15.0538 88.0613 15.7672H88.059Z" fill="#3F3F3F"/>
<path d="M103.207 14.1385C102.427 13.6382 101.537 13.3892 100.536 13.3892C99.5342 13.3892 98.6558 13.6472 97.8648 14.1609C97.0715 14.6747 96.4486 15.3791 95.996 16.2743C95.5411 17.1694 95.3148 18.1969 95.3148 19.3613C95.3148 20.5257 95.5523 21.5577 96.0251 22.4596C96.5001 23.3614 97.1567 24.0704 97.9948 24.5841C98.8351 25.0979 99.8098 25.3559 100.921 25.3559C101.775 25.3559 102.557 25.1921 103.267 24.8646C103.978 24.537 104.572 24.0592 105.044 23.4332L104.231 22.4035C103.825 22.9262 103.339 23.3143 102.779 23.5656C102.216 23.8191 101.611 23.947 100.962 23.947C100.135 23.947 99.3997 23.7563 98.7566 23.3771C98.1135 22.998 97.6116 22.4685 97.2531 21.7888C96.9528 21.2212 96.7802 20.575 96.7309 19.8549H105.694C105.694 19.7651 105.696 19.6799 105.703 19.5969C105.71 19.5161 105.714 19.4376 105.714 19.3613C105.714 18.1835 105.49 17.1425 105.044 16.2406C104.598 15.3387 103.984 14.6388 103.205 14.1385H103.207ZM97.2015 16.8778C97.5264 16.207 97.9813 15.6842 98.5617 15.3118C99.1443 14.9394 99.8009 14.7532 100.531 14.7532C101.262 14.7532 101.934 14.9394 102.501 15.3118C103.07 15.6842 103.521 16.2025 103.852 16.8666C104.121 17.405 104.28 18.0062 104.33 18.6681H96.7332C96.7847 18.0107 96.9393 17.414 97.1993 16.8778H97.2015Z" fill="#3F3F3F"/>
<path d="M113.963 8.53424C112.921 8.53424 112.121 8.85506 111.565 9.4967C111.009 10.1383 110.731 10.9796 110.731 12.0251V13.5013H108.822V14.8205H110.731V25.2437H112.175V14.8205H115.426V13.5013H112.134V12.0924C112.134 11.361 112.298 10.8091 112.623 10.4367C112.948 10.0643 113.416 9.87809 114.025 9.87809C114.337 9.87809 114.628 9.92744 114.899 10.0239C115.171 10.1204 115.408 10.2662 115.61 10.4591L116.098 9.27459C115.841 9.02108 115.522 8.83487 115.144 8.71596C114.765 8.59706 114.371 8.53648 113.965 8.53648L113.963 8.53424Z" fill="#3F3F3F"/>
<path d="M127.392 19.6507C127.392 20.5459 127.246 21.3131 126.955 21.9548C126.664 22.5964 126.245 23.0833 125.696 23.4198C125.147 23.7563 124.501 23.9223 123.755 23.9223C122.74 23.9223 121.949 23.606 121.389 22.9711C120.826 22.3384 120.546 21.3939 120.546 20.142V13.4991H119.103V20.3215C119.103 21.441 119.289 22.3721 119.661 23.1169C120.033 23.8617 120.557 24.4226 121.236 24.795C121.913 25.1674 122.706 25.3537 123.614 25.3537C124.521 25.3537 125.391 25.1114 126.103 24.6268C126.675 24.2386 127.123 23.7226 127.455 23.0877V25.2415H128.837V13.4991H127.394V19.6507H127.392Z" fill="#3F3F3F"/>
<path d="M142.416 13.9366C141.76 13.5709 140.998 13.3892 140.131 13.3892C139.102 13.3892 138.215 13.6315 137.469 14.116C136.868 14.5064 136.402 15.0179 136.066 15.6439V13.5013H134.683V25.2437H136.127V19.0697C136.127 18.1745 136.279 17.4117 136.584 16.7768C136.888 16.1442 137.321 15.6573 137.883 15.323C138.446 14.9865 139.105 14.8205 139.864 14.8205C140.879 14.8205 141.668 15.1368 142.23 15.7717C142.793 16.4066 143.073 17.3422 143.073 18.5783V25.2437H144.516V18.4213C144.516 17.2883 144.33 16.3483 143.958 15.6035C143.586 14.8586 143.071 14.3023 142.414 13.9366H142.416Z" fill="#3F3F3F"/>
<path d="M158.557 8.64642V15.7156C158.145 15.0179 157.627 14.4728 157.002 14.0801C156.265 13.618 155.426 13.3869 154.492 13.3869C153.477 13.3869 152.565 13.6359 151.761 14.1362C150.954 14.6365 150.322 15.332 149.86 16.2272C149.399 17.1223 149.17 18.1655 149.17 19.3591C149.17 20.5526 149.401 21.5779 149.86 22.4797C150.32 23.3816 150.954 24.0861 151.761 24.5931C152.567 25.1001 153.477 25.3536 154.492 25.3536C155.44 25.3536 156.282 25.1181 157.022 24.6492C157.672 24.2364 158.203 23.6576 158.617 22.915V25.2437H160V8.64642H158.557ZM158.059 21.7641C157.714 22.4573 157.239 22.9935 156.637 23.3749C156.034 23.754 155.353 23.9447 154.595 23.9447C153.838 23.9447 153.179 23.754 152.583 23.3749C151.987 22.9957 151.512 22.4573 151.16 21.7641C150.808 21.0708 150.631 20.2699 150.631 19.3591C150.631 18.4482 150.806 17.6293 151.16 16.9428C151.512 16.2563 151.987 15.7246 152.583 15.3432C153.179 14.9641 153.849 14.7734 154.595 14.7734C155.341 14.7734 156.034 14.9641 156.637 15.3432C157.239 15.7246 157.714 16.2563 158.059 16.9428C158.405 17.6293 158.577 18.4347 158.577 19.3591C158.577 20.2834 158.405 21.0708 158.059 21.7641Z" fill="#3F3F3F"/>
<path d="M23.4119 34.0022C32.7901 34.0022 40.3927 26.3906 40.3927 17.0011C40.3927 7.61166 32.7901 0 23.4119 0C14.0337 0 6.43109 7.61166 6.43109 17.0011C6.43109 26.3906 14.0337 34.0022 23.4119 34.0022Z" fill="url(#paint0_linear_261_456)"/>
<path fill-rule="evenodd" clip-rule="evenodd" d="M23.4119 12.9135L19.3336 7.14323C18.7578 6.32885 17.5903 6.10674 16.7254 6.65191C15.8604 7.19483 15.6274 8.29638 16.2032 9.11301L20.5235 15.2265H17.7696C16.7298 15.2265 15.8895 16.0207 15.8895 17.0011C15.8895 17.9815 16.7321 18.7757 17.7696 18.7757H21.5319V20.5503H17.7696C16.7298 20.5503 15.8895 21.3445 15.8895 22.3249C15.8895 23.3053 16.7321 24.0995 17.7696 24.0995H21.5319V25.8741C21.5319 26.8545 22.3744 27.6487 23.4119 27.6487C24.4494 27.6487 25.2919 26.8545 25.2919 25.8741V24.0995H29.0542C30.094 24.0995 30.9343 23.3053 30.9343 22.3249C30.9343 21.3445 30.0917 20.5503 29.0542 20.5503H25.2919V18.7757H29.0542C30.094 18.7757 30.9343 17.9815 30.9343 17.0011C30.9343 16.0207 30.0917 15.2265 29.0542 15.2265H26.3003L30.6206 9.11301C31.1964 8.29863 30.9634 7.19708 30.0985 6.65191C29.2335 6.10899 28.066 6.32885 27.4902 7.14323L23.4141 12.9135H23.4119Z" fill="white"/>
<path d="M25.4712 19.4353C19.3538 22.4416 13.4807 24.5707 8.78394 25.6386C9.24778 26.426 9.77437 27.1709 10.3547 27.8686C13.3709 27.3459 20.0619 25.9773 25.3569 23.3749C30.7684 20.7141 37.3833 16.2518 40.1798 14.3135C40.0028 13.2052 39.7205 12.1305 39.3418 11.103C35.6825 13.8648 30.9387 16.7499 25.4712 19.4353Z" fill="white"/>
<path d="M48.8517 6.73943L40.0095 10.0845L41.2666 10.5848C37.7754 13.5888 32.6754 16.9921 26.3518 20.2676C14.7108 26.2936 3.92362 28.6942 2.56794 25.9279C1.82847 24.4158 4.00877 21.6653 8.05566 18.5357C2.34386 22.7153 -0.847046 26.61 0.197167 28.739C1.86657 32.1424 13.7294 29.7396 26.6969 23.3681C34.3492 19.6081 40.5764 15.4531 44.3499 11.8097L45.8961 12.4244L48.8517 6.73718V6.73943Z" fill="url(#paint1_linear_261_456)"/>
</g>
<defs>
<linearGradient id="paint0_linear_261_456" x1="35.9044" y1="31.1059" x2="12.1559" y2="4.35364" gradientUnits="userSpaceOnUse">
<stop stop-color="#4C0000"/>
<stop offset="0.36" stop-color="#940000"/>
<stop offset="0.66" stop-color="#C80000"/>
<stop offset="0.88" stop-color="#E80000"/>
<stop offset="1" stop-color="#F50100"/>
</linearGradient>
<linearGradient id="paint1_linear_261_456" x1="36.1352" y1="30.9018" x2="12.3867" y2="4.14949" gradientUnits="userSpaceOnUse">
<stop stop-color="#4C0000"/>
<stop offset="0.36" stop-color="#940000"/>
<stop offset="0.66" stop-color="#C80000"/>
<stop offset="0.88" stop-color="#E80000"/>
<stop offset="1" stop-color="#F50100"/>
</linearGradient>
<clipPath id="clip0_261_456">
<rect width="160" height="34" fill="white"/>
</clipPath>
</defs>
</svg>
