<svg width="26" height="18" viewBox="0 0 26 18" fill="none" xmlns="http://www.w3.org/2000/svg">
<path d="M6.5 1.28571C6.5 0.575658 7.08206 0 7.8 0H24.7C25.4179 0 26 0.575658 26 1.28571C26 1.99577 25.4179 2.57143 24.7 2.57143H7.8C7.08206 2.57143 6.5 1.99572 6.5 1.28571ZM24.7 7.71428H1.3C0.582055 7.71428 0 8.28999 0 9C0 9.71006 0.582055 10.2857 1.3 10.2857H24.7C25.4179 10.2857 26 9.71006 26 9C26 8.28999 25.4179 7.71428 24.7 7.71428ZM24.7 15.4286H13C12.2821 15.4286 11.7 16.0042 11.7 16.7143C11.7 17.4243 12.2821 18 13 18H24.7C25.4179 18 26 17.4243 26 16.7143C26 16.0042 25.4179 15.4286 24.7 15.4286Z" fill="#909090"/>
</svg>
