<svg width="323" height="148" viewBox="0 0 323 148" fill="none" xmlns="http://www.w3.org/2000/svg">
<path d="M262.334 4H62.6658C57.8798 4 54 7.94975 54 12.822V135.178C54 140.05 57.8798 144 62.6658 144H262.334C267.12 144 271 140.05 271 135.178V12.822C271 7.94975 267.12 4 262.334 4Z" fill="#C3D1DA"/>
<g opacity="0.1">
<mask id="mask0_99_5" style="mask-type:luminance" maskUnits="userSpaceOnUse" x="54" y="4" width="217" height="140">
<path d="M262.334 4H62.6658C57.8798 4 54 7.94975 54 12.822V135.178C54 140.05 57.8798 144 62.6658 144H262.334C267.12 144 271 140.05 271 135.178V12.822C271 7.94975 267.12 4 262.334 4Z" fill="white"/>
</mask>
<g mask="url(#mask0_99_5)">
<path d="M64.2568 -29.7148L-89.3828 198.876" stroke="white" stroke-width="0.95" stroke-miterlimit="10"/>
<path d="M68.8893 -29.7148L-84.7422 198.876" stroke="white" stroke-width="0.95" stroke-miterlimit="10"/>
<path d="M73.5283 -29.7148L-80.1113 198.876" stroke="white" stroke-width="0.95" stroke-miterlimit="10"/>
<path d="M78.1631 -29.7148L-75.4766 198.876" stroke="white" stroke-width="0.95" stroke-miterlimit="10"/>
<path d="M82.7956 -29.7148L-70.8359 198.876" stroke="white" stroke-width="0.95" stroke-miterlimit="10"/>
<path d="M87.4268 -29.7148L-66.2129 198.876" stroke="white" stroke-width="0.95" stroke-miterlimit="10"/>
<path d="M92.0635 -29.7148L-61.5762 198.876" stroke="white" stroke-width="0.95" stroke-miterlimit="10"/>
<path d="M96.696 -29.7148L-56.9355 198.876" stroke="white" stroke-width="0.95" stroke-miterlimit="10"/>
<path d="M101.337 -29.7148L-52.3027 198.876" stroke="white" stroke-width="0.95" stroke-miterlimit="10"/>
<path d="M105.968 -29.7148L-47.6719 198.876" stroke="white" stroke-width="0.95" stroke-miterlimit="10"/>
<path d="M110.602 -29.7148L-43.0293 198.876" stroke="white" stroke-width="0.95" stroke-miterlimit="10"/>
<path d="M115.237 -29.7148L-38.3945 198.876" stroke="white" stroke-width="0.95" stroke-miterlimit="10"/>
<path d="M119.87 -29.7148L-33.7695 198.876" stroke="white" stroke-width="0.95" stroke-miterlimit="10"/>
<path d="M124.499 -29.7148L-29.1328 198.876" stroke="white" stroke-width="0.95" stroke-miterlimit="10"/>
<path d="M129.135 -29.7148L-24.4961 198.876" stroke="white" stroke-width="0.95" stroke-miterlimit="10"/>
<path d="M133.776 -29.7148L-19.8633 198.876" stroke="white" stroke-width="0.95" stroke-miterlimit="10"/>
<path d="M138.409 -29.7148L-15.2227 198.876" stroke="white" stroke-width="0.95" stroke-miterlimit="10"/>
<path d="M143.04 -29.7148L-10.5918 198.876" stroke="white" stroke-width="0.95" stroke-miterlimit="10"/>
<path d="M147.683 -29.7148L-5.95703 198.876" stroke="white" stroke-width="0.95" stroke-miterlimit="10"/>
<path d="M152.317 -29.7148L-1.32227 198.876" stroke="white" stroke-width="0.95" stroke-miterlimit="10"/>
<path d="M156.942 -29.7148L3.31055 198.876" stroke="white" stroke-width="0.95" stroke-miterlimit="10"/>
<path d="M161.581 -29.7148L7.94141 198.876" stroke="white" stroke-width="0.95" stroke-miterlimit="10"/>
<path d="M166.216 -29.7148L12.5762 198.876" stroke="white" stroke-width="0.95" stroke-miterlimit="10"/>
<path d="M170.848 -29.7148L17.2168 198.876" stroke="white" stroke-width="0.95" stroke-miterlimit="10"/>
<path d="M175.489 -29.7148L21.8496 198.876" stroke="white" stroke-width="0.95" stroke-miterlimit="10"/>
<path d="M180.122 -29.7148L26.4824 198.876" stroke="white" stroke-width="0.95" stroke-miterlimit="10"/>
<path d="M184.757 -29.7148L31.125 198.876" stroke="white" stroke-width="0.95" stroke-miterlimit="10"/>
<path d="M189.397 -29.7148L35.7578 198.876" stroke="white" stroke-width="0.95" stroke-miterlimit="10"/>
<path d="M194.019 -29.7148L40.3789 198.876" stroke="white" stroke-width="0.95" stroke-miterlimit="10"/>
<path d="M198.655 -29.7148L45.0234 198.876" stroke="white" stroke-width="0.95" stroke-miterlimit="10"/>
<path d="M203.296 -29.7148L49.6562 198.876" stroke="white" stroke-width="0.95" stroke-miterlimit="10"/>
<path d="M207.931 -29.7148L54.291 198.876" stroke="white" stroke-width="0.95" stroke-miterlimit="10"/>
<path d="M212.563 -29.7148L58.9316 198.876" stroke="white" stroke-width="0.95" stroke-miterlimit="10"/>
<path d="M217.202 -29.7148L63.5625 198.876" stroke="white" stroke-width="0.95" stroke-miterlimit="10"/>
<path d="M221.835 -29.7148L68.1953 198.876" stroke="white" stroke-width="0.95" stroke-miterlimit="10"/>
<path d="M226.462 -29.7148L72.8301 198.876" stroke="white" stroke-width="0.95" stroke-miterlimit="10"/>
<path d="M231.092 -29.7148L77.4609 198.876" stroke="white" stroke-width="0.95" stroke-miterlimit="10"/>
<path d="M235.735 -29.7148L82.0957 198.876" stroke="white" stroke-width="0.95" stroke-miterlimit="10"/>
<path d="M240.368 -29.7148L86.7363 198.876" stroke="white" stroke-width="0.95" stroke-miterlimit="10"/>
<path d="M245.001 -29.7148L91.3691 198.876" stroke="white" stroke-width="0.95" stroke-miterlimit="10"/>
<path d="M249.64 -29.7148L96 198.876" stroke="white" stroke-width="0.95" stroke-miterlimit="10"/>
<path d="M254.276 -29.7148L100.645 198.876" stroke="white" stroke-width="0.95" stroke-miterlimit="10"/>
<path d="M258.909 -29.7148L105.277 198.876" stroke="white" stroke-width="0.95" stroke-miterlimit="10"/>
<path d="M263.542 -29.7148L109.902 198.876" stroke="white" stroke-width="0.95" stroke-miterlimit="10"/>
<path d="M268.173 -29.7148L114.533 198.876" stroke="white" stroke-width="0.95" stroke-miterlimit="10"/>
<path d="M272.807 -29.7148L119.176 198.876" stroke="white" stroke-width="0.95" stroke-miterlimit="10"/>
<path d="M277.448 -29.7148L123.809 198.876" stroke="white" stroke-width="0.95" stroke-miterlimit="10"/>
<path d="M282.083 -29.7148L128.443 198.876" stroke="white" stroke-width="0.95" stroke-miterlimit="10"/>
<path d="M286.712 -29.7148L133.08 198.876" stroke="white" stroke-width="0.95" stroke-miterlimit="10"/>
<path d="M291.355 -29.7148L137.715 198.876" stroke="white" stroke-width="0.95" stroke-miterlimit="10"/>
<path d="M295.989 -29.7148L142.35 198.876" stroke="white" stroke-width="0.95" stroke-miterlimit="10"/>
<path d="M300.616 -29.7148L146.984 198.876" stroke="white" stroke-width="0.95" stroke-miterlimit="10"/>
<path d="M305.255 -29.7148L151.615 198.876" stroke="white" stroke-width="0.95" stroke-miterlimit="10"/>
<path d="M309.888 -29.7148L156.248 198.876" stroke="white" stroke-width="0.95" stroke-miterlimit="10"/>
<path d="M314.52 -29.7148L160.889 198.876" stroke="white" stroke-width="0.95" stroke-miterlimit="10"/>
<path d="M319.163 -29.7148L165.523 198.876" stroke="white" stroke-width="0.95" stroke-miterlimit="10"/>
<path d="M323.796 -29.7148L170.156 198.876" stroke="white" stroke-width="0.95" stroke-miterlimit="10"/>
<path d="M328.428 -29.7148L174.797 198.876" stroke="white" stroke-width="0.95" stroke-miterlimit="10"/>
<path d="M333.062 -29.7148L179.422 198.876" stroke="white" stroke-width="0.95" stroke-miterlimit="10"/>
<path d="M337.692 -29.7148L184.053 198.876" stroke="white" stroke-width="0.95" stroke-miterlimit="10"/>
<path d="M342.327 -29.7148L188.695 198.876" stroke="white" stroke-width="0.95" stroke-miterlimit="10"/>
<path d="M346.97 -29.7148L193.33 198.876" stroke="white" stroke-width="0.95" stroke-miterlimit="10"/>
<path d="M351.601 -29.7148L197.961 198.876" stroke="white" stroke-width="0.95" stroke-miterlimit="10"/>
<path d="M356.233 -29.7148L202.602 198.876" stroke="white" stroke-width="0.95" stroke-miterlimit="10"/>
<path d="M360.868 -29.7148L207.236 198.876" stroke="white" stroke-width="0.95" stroke-miterlimit="10"/>
<path d="M365.509 -29.7148L211.869 198.876" stroke="white" stroke-width="0.95" stroke-miterlimit="10"/>
<path d="M370.133 -29.7148L216.502 198.876" stroke="white" stroke-width="0.95" stroke-miterlimit="10"/>
<path d="M374.764 -29.7148L221.133 198.876" stroke="white" stroke-width="0.95" stroke-miterlimit="10"/>
<path d="M379.409 -29.7148L225.77 198.876" stroke="white" stroke-width="0.95" stroke-miterlimit="10"/>
<path d="M384.042 -29.7148L230.402 198.876" stroke="white" stroke-width="0.95" stroke-miterlimit="10"/>
</g>
</g>
<path d="M245.905 129.45H79.1055V136.783H245.905V129.45Z" fill="#DEEEF1"/>
<path d="M81.0195 121.265H82.2321C83.1213 121.265 83.7195 121.594 83.7195 122.581C83.7195 123.568 83.1132 123.963 82.2321 123.963H81.5369V125.732H81.0195V121.273V121.265ZM82.1755 123.494C82.8707 123.494 83.2102 123.206 83.2102 122.573C83.2102 121.939 82.8707 121.725 82.1755 121.725H81.5369V123.494H82.1755Z" fill="black"/>
<path d="M84.6484 123.683V123.246L86.9281 121.535V122.078L85.093 123.452V123.477L86.9281 124.851V125.394L84.6484 123.683Z" fill="black"/>
<path d="M88.0901 121.265H90.5718V121.75H88.5994V123.149H90.2647V123.634H88.5994V125.255H90.6284V125.74H88.082V121.281L88.0901 121.265Z" fill="black"/>
<path d="M91.4846 124.037V121.265H92.002V124.054C92.002 124.975 92.3658 125.304 92.8427 125.304C93.3197 125.304 93.6915 124.967 93.6915 124.054V121.265H94.1846V124.037C94.1846 125.313 93.6187 125.806 92.8346 125.806C92.0505 125.806 91.4766 125.313 91.4766 124.037H91.4846Z" fill="black"/>
<path d="M95.2305 123.683V123.246L97.5101 121.535V122.078L95.6751 123.452V123.477L97.5101 124.851V125.394L95.2305 123.683Z" fill="black"/>
<path d="M98.5234 125.066L98.8468 124.721C99.0812 125.116 99.3965 125.305 99.7117 125.305C100.278 125.305 100.536 124.984 100.536 124.252V121.742H98.863V121.257H101.062V124.301C101.062 125.132 100.722 125.815 99.7279 125.815C99.2833 125.815 98.8064 125.584 98.5315 125.074L98.5234 125.066Z" fill="black"/>
<path d="M102.004 123.469C102.004 122.029 102.643 121.174 103.548 121.174C104.453 121.174 105.092 122.021 105.092 123.469C105.092 124.917 104.453 125.806 103.548 125.806C102.643 125.806 102.004 124.934 102.004 123.469ZM104.558 123.469C104.558 122.342 104.154 121.684 103.548 121.684C102.942 121.684 102.537 122.35 102.537 123.469C102.537 124.588 102.942 125.296 103.548 125.296C104.154 125.296 104.558 124.613 104.558 123.469Z" fill="black"/>
<path d="M105.977 121.265H106.494V123.132H108.159V121.265H108.677V125.724H108.159V123.626H106.494V125.724H105.977V121.265Z" fill="black"/>
<path d="M109.746 121.265H110.312L111.597 124.07L111.985 124.992H112.001C111.985 124.547 111.937 124.046 111.937 123.577V121.265H112.43V125.724H111.864L110.579 122.918L110.191 121.997H110.175C110.191 122.449 110.239 122.927 110.239 123.396V125.732H109.746V121.273V121.265Z" fill="black"/>
<path d="M113.465 123.683V123.246L115.744 121.535V122.078L113.909 123.452V123.477L115.744 124.851V125.394L113.465 123.683Z" fill="black"/>
<path d="M116.566 123.683V123.246L118.846 121.535V122.078L117.011 123.452V123.477L118.846 124.851V125.394L116.566 123.683Z" fill="black"/>
<path d="M119.664 123.683V123.246L121.944 121.535V122.078L120.109 123.452V123.477L121.944 124.851V125.394L119.664 123.683Z" fill="black"/>
<path d="M122.764 123.683V123.246L125.043 121.535V122.078L123.208 123.452V123.477L125.043 124.851V125.394L122.764 123.683Z" fill="black"/>
<path d="M125.871 123.683V123.246L128.151 121.535V122.078L126.316 123.452V123.477L128.151 124.851V125.394L125.871 123.683Z" fill="black"/>
<path d="M128.961 123.683V123.246L131.241 121.535V122.078L129.406 123.452V123.477L131.241 124.851V125.394L128.961 123.683Z" fill="black"/>
<path d="M132.07 123.683V123.246L134.35 121.535V122.078L132.515 123.452V123.477L134.35 124.851V125.394L132.07 123.683Z" fill="black"/>
<path d="M135.176 123.683V123.246L137.455 121.535V122.078L135.62 123.452V123.477L137.455 124.851V125.394L135.176 123.683Z" fill="black"/>
<path d="M138.266 123.683V123.246L140.545 121.535V122.078L138.71 123.452V123.477L140.545 124.851V125.394L138.266 123.683Z" fill="black"/>
<path d="M141.375 123.683V123.246L143.655 121.535V122.078L141.82 123.452V123.477L143.655 124.851V125.394L141.375 123.683Z" fill="black"/>
<path d="M144.467 123.683V123.246L146.746 121.535V122.078L144.911 123.452V123.477L146.746 124.851V125.394L144.467 123.683Z" fill="black"/>
<path d="M147.572 123.683V123.246L149.852 121.535V122.078L148.017 123.452V123.477L149.852 124.851V125.394L147.572 123.683Z" fill="black"/>
<path d="M150.672 123.683V123.246L152.951 121.535V122.078L151.116 123.452V123.477L152.951 124.851V125.394L150.672 123.683Z" fill="black"/>
<path d="M153.771 123.683V123.246L156.051 121.535V122.078L154.216 123.452V123.477L156.051 124.851V125.394L153.771 123.683Z" fill="black"/>
<path d="M156.871 123.683V123.246L159.151 121.535V122.078L157.316 123.452V123.477L159.151 124.851V125.394L156.871 123.683Z" fill="black"/>
<path d="M159.977 123.683V123.246L162.256 121.535V122.078L160.421 123.452V123.477L162.256 124.851V125.394L159.977 123.683Z" fill="black"/>
<path d="M163.074 123.683V123.246L165.354 121.535V122.078L163.519 123.452V123.477L165.354 124.851V125.394L163.074 123.683Z" fill="black"/>
<path d="M166.176 123.683V123.246L168.455 121.535V122.078L166.62 123.452V123.477L168.455 124.851V125.394L166.176 123.683Z" fill="black"/>
<path d="M169.273 123.683V123.246L171.553 121.535V122.078L169.718 123.452V123.477L171.553 124.851V125.394L169.273 123.683Z" fill="black"/>
<path d="M172.371 123.683V123.246L174.651 121.535V122.078L172.816 123.452V123.477L174.651 124.851V125.394L172.371 123.683Z" fill="black"/>
<path d="M175.48 123.683V123.246L177.76 121.535V122.078L175.925 123.452V123.477L177.76 124.851V125.394L175.48 123.683Z" fill="black"/>
<path d="M178.57 123.683V123.246L180.85 121.535V122.078L179.015 123.452V123.477L180.85 124.851V125.394L178.57 123.683Z" fill="black"/>
<path d="M181.678 123.683V123.246L183.957 121.535V122.078L182.122 123.452V123.477L183.957 124.851V125.394L181.678 123.683Z" fill="black"/>
<path d="M184.785 123.683V123.246L187.065 121.535V122.078L185.23 123.452V123.477L187.065 124.851V125.394L184.785 123.683Z" fill="black"/>
<path d="M187.879 123.683V123.246L190.159 121.535V122.078L188.324 123.452V123.477L190.159 124.851V125.394L187.879 123.683Z" fill="black"/>
<path d="M190.984 123.683V123.246L193.264 121.535V122.078L191.429 123.452V123.477L193.264 124.851V125.394L190.984 123.683Z" fill="black"/>
<path d="M194.082 123.683V123.246L196.362 121.535V122.078L194.527 123.452V123.477L196.362 124.851V125.394L194.082 123.683Z" fill="black"/>
<path d="M197.182 123.683V123.246L199.461 121.535V122.078L197.626 123.452V123.477L199.461 124.851V125.394L197.182 123.683Z" fill="black"/>
<path d="M200.281 123.683V123.246L202.561 121.535V122.078L200.726 123.452V123.477L202.561 124.851V125.394L200.281 123.683Z" fill="black"/>
<path d="M203.379 123.683V123.246L205.659 121.535V122.078L203.824 123.452V123.477L205.659 124.851V125.394L203.379 123.683Z" fill="black"/>
<path d="M206.488 123.683V123.246L208.768 121.535V122.078L206.933 123.452V123.477L208.768 124.851V125.394L206.488 123.683Z" fill="black"/>
<path d="M209.586 123.683V123.246L211.866 121.535V122.078L210.031 123.452V123.477L211.866 124.851V125.394L209.586 123.683Z" fill="black"/>
<path d="M212.686 123.683V123.246L214.965 121.535V122.078L213.13 123.452V123.477L214.965 124.851V125.394L212.686 123.683Z" fill="black"/>
<path d="M215.785 123.683V123.246L218.065 121.535V122.078L216.23 123.452V123.477L218.065 124.851V125.394L215.785 123.683Z" fill="black"/>
<path d="M218.891 123.683V123.246L221.17 121.535V122.078L219.335 123.452V123.477L221.17 124.851V125.394L218.891 123.683Z" fill="black"/>
<path d="M221.98 123.683V123.246L224.26 121.535V122.078L222.425 123.452V123.477L224.26 124.851V125.394L221.98 123.683Z" fill="black"/>
<path d="M225.09 123.683V123.246L227.369 121.535V122.078L225.534 123.452V123.477L227.369 124.851V125.394L225.09 123.683Z" fill="black"/>
<path d="M228.188 123.683V123.246L230.467 121.535V122.078L228.632 123.452V123.477L230.467 124.851V125.394L228.188 123.683Z" fill="black"/>
<path d="M231.285 123.683V123.246L233.565 121.535V122.078L231.73 123.452V123.477L233.565 124.851V125.394L231.285 123.683Z" fill="black"/>
<path d="M234.395 123.683V123.246L236.674 121.535V122.078L234.839 123.452V123.477L236.674 124.851V125.394L234.395 123.683Z" fill="black"/>
<path d="M237.484 123.683V123.246L239.764 121.535V122.078L237.929 123.452V123.477L239.764 124.851V125.394L237.484 123.683Z" fill="black"/>
<path d="M240.594 123.683V123.246L242.873 121.535V122.078L241.038 123.452V123.477L242.873 124.851V125.394L240.594 123.683Z" fill="black"/>
<path d="M81.0901 130.833H83.5718V131.319H81.5994V132.718H83.2646V133.203H81.5994V134.824H83.6284V135.309H81.082V130.85L81.0901 130.833Z" fill="black"/>
<path d="M84.4846 133.606V130.833H85.002V133.623C85.002 134.544 85.3658 134.873 85.8427 134.873C86.3197 134.873 86.6915 134.536 86.6915 133.623V130.833H87.1846V133.606C87.1846 134.881 86.6187 135.375 85.8346 135.375C85.0505 135.375 84.4766 134.881 84.4766 133.606H84.4846Z" fill="black"/>
<path d="M90.3137 131.443H88.0664V130.949H90.8957V131.295C89.861 132.611 89.6104 133.59 89.5457 135.285H89.0122C89.0769 133.648 89.4245 132.644 90.3056 131.435L90.3137 131.443Z" fill="black"/>
<path d="M91.7109 134.824H92.8346V131.64H91.9615V131.27C92.4223 131.204 92.7133 131.097 92.9639 130.949H93.3439V134.824H94.3624V135.293H91.7109V134.824Z" fill="black"/>
<path d="M95.3557 130.833H97.8375V131.319H95.865V132.718H97.5303V133.203H95.865V134.824H97.894V135.309H95.3477V130.85L95.3557 130.833Z" fill="black"/>
<path d="M99.9585 131.311H98.6328V130.826H101.802V131.311H100.476V135.293H99.9585V131.311Z" fill="black"/>
<path d="M102.301 133.039C102.301 131.599 102.939 130.743 103.845 130.743C104.75 130.743 105.389 131.591 105.389 133.039C105.389 134.487 104.75 135.375 103.845 135.375C102.939 135.375 102.301 134.503 102.301 133.039ZM104.855 133.039C104.855 131.911 104.451 131.253 103.845 131.253C103.238 131.253 102.834 131.92 102.834 133.039C102.834 134.158 103.238 134.865 103.845 134.865C104.451 134.865 104.855 134.182 104.855 133.039Z" fill="black"/>
<path d="M106.092 133.039C106.092 131.599 106.73 130.743 107.636 130.743C108.541 130.743 109.18 131.591 109.18 133.039C109.18 134.487 108.541 135.375 107.636 135.375C106.73 135.375 106.092 134.503 106.092 133.039ZM108.638 133.039C108.638 131.911 108.234 131.253 107.628 131.253C107.021 131.253 106.617 131.92 106.617 133.039C106.617 134.158 107.021 134.865 107.628 134.865C108.234 134.865 108.638 134.182 108.638 133.039Z" fill="black"/>
<path d="M109.746 134.765L110.005 134.395C110.263 134.666 110.619 134.905 111.128 134.905C111.662 134.905 112.058 134.601 112.058 134.115C112.058 133.597 111.67 133.251 110.643 133.251V132.823C111.565 132.823 111.921 132.47 111.921 132.017C111.921 131.606 111.597 131.334 111.128 131.334C110.765 131.334 110.425 131.515 110.166 131.77L109.9 131.417C110.223 131.104 110.643 130.874 111.145 130.874C111.88 130.874 112.438 131.277 112.438 131.976C112.438 132.503 112.09 132.832 111.605 133.013V133.037C112.123 133.161 112.575 133.539 112.575 134.14C112.575 134.905 111.937 135.382 111.161 135.382C110.49 135.382 110.045 135.086 109.754 134.765H109.746Z" fill="black"/>
<path d="M113.359 134.784L113.61 134.405C113.877 134.66 114.192 134.899 114.709 134.899C115.227 134.899 115.696 134.52 115.696 133.912C115.696 133.303 115.316 132.965 114.742 132.965C114.418 132.965 114.224 133.056 113.949 133.22L113.683 133.031L113.812 130.941H116.019V131.435H114.257L114.152 132.71C114.378 132.603 114.58 132.538 114.871 132.538C115.615 132.538 116.213 132.957 116.213 133.895C116.213 134.833 115.518 135.368 114.766 135.368C114.071 135.368 113.658 135.072 113.359 134.775V134.784Z" fill="black"/>
<path d="M117.096 133.285C117.096 131.541 117.88 130.866 118.729 130.866C119.206 130.866 119.561 131.064 119.82 131.327L119.537 131.681C119.335 131.467 119.052 131.335 118.761 131.335C118.122 131.335 117.573 131.829 117.573 133.285C117.573 134.355 117.936 134.931 118.591 134.931C119.052 134.931 119.408 134.552 119.408 133.976C119.408 133.4 119.117 133.055 118.583 133.055C118.268 133.055 117.896 133.228 117.565 133.664L117.548 133.219C117.872 132.857 118.276 132.627 118.68 132.627C119.4 132.627 119.901 133.079 119.901 133.968C119.901 134.799 119.294 135.367 118.599 135.367C117.75 135.367 117.104 134.676 117.104 133.277L117.096 133.285Z" fill="black"/>
<path d="M120.631 133.039C120.631 131.599 121.269 130.743 122.175 130.743C123.08 130.743 123.719 131.591 123.719 133.039C123.719 134.487 123.08 135.375 122.175 135.375C121.269 135.375 120.631 134.503 120.631 133.039ZM123.185 133.039C123.185 131.911 122.781 131.253 122.175 131.253C121.569 131.253 121.164 131.92 121.164 133.039C121.164 134.158 121.569 134.865 122.175 134.865C122.781 134.865 123.185 134.182 123.185 133.039Z" fill="black"/>
<path d="M124.398 134.635L124.722 134.289C124.956 134.684 125.271 134.874 125.587 134.874C126.153 134.874 126.411 134.553 126.411 133.82V131.311H124.738V130.826H126.937V133.87C126.937 134.701 126.597 135.384 125.603 135.384C125.158 135.384 124.681 135.153 124.407 134.643L124.398 134.635Z" fill="black"/>
<path d="M128.059 133.251V132.815L130.338 131.104V131.647L128.503 133.021V133.046L130.338 134.42V134.963L128.059 133.251Z" fill="black"/>
<path d="M131.16 133.251V132.815L133.44 131.104V131.647L131.605 133.021V133.046L133.44 134.42V134.963L131.16 133.251Z" fill="black"/>
<path d="M134.266 133.251V132.815L136.545 131.104V131.647L134.71 133.021V133.046L136.545 134.42V134.963L134.266 133.251Z" fill="black"/>
<path d="M137.355 133.251V132.815L139.635 131.104V131.647L137.8 133.021V133.046L139.635 134.42V134.963L137.355 133.251Z" fill="black"/>
<path d="M140.463 133.251V132.815L142.742 131.104V131.647L140.907 133.021V133.046L142.742 134.42V134.963L140.463 133.251Z" fill="black"/>
<path d="M143.57 133.251V132.815L145.85 131.104V131.647L144.015 133.021V133.046L145.85 134.42V134.963L143.57 133.251Z" fill="black"/>
<path d="M146.662 133.251V132.815L148.942 131.104V131.647L147.107 133.021V133.046L148.942 134.42V134.963L146.662 133.251Z" fill="black"/>
<path d="M149.768 133.251V132.815L152.047 131.104V131.647L150.212 133.021V133.046L152.047 134.42V134.963L149.768 133.251Z" fill="black"/>
<path d="M152.867 133.251V132.815L155.147 131.104V131.647L153.312 133.021V133.046L155.147 134.42V134.963L152.867 133.251Z" fill="black"/>
<path d="M155.969 133.251V132.815L158.248 131.104V131.647L156.413 133.021V133.046L158.248 134.42V134.963L155.969 133.251Z" fill="black"/>
<path d="M159.066 133.251V132.815L161.346 131.104V131.647L159.511 133.021V133.046L161.346 134.42V134.963L159.066 133.251Z" fill="black"/>
<path d="M162.164 133.251V132.815L164.444 131.104V131.647L162.609 133.021V133.046L164.444 134.42V134.963L162.164 133.251Z" fill="black"/>
<path d="M165.273 133.251V132.815L167.553 131.104V131.647L165.718 133.021V133.046L167.553 134.42V134.963L165.273 133.251Z" fill="black"/>
<path d="M168.371 133.251V132.815L170.651 131.104V131.647L168.816 133.021V133.046L170.651 134.42V134.963L168.371 133.251Z" fill="black"/>
<path d="M171.469 133.251V132.815L173.748 131.104V131.647L171.913 133.021V133.046L173.748 134.42V134.963L171.469 133.251Z" fill="black"/>
<path d="M174.57 133.251V132.815L176.85 131.104V131.647L175.015 133.021V133.046L176.85 134.42V134.963L174.57 133.251Z" fill="black"/>
<path d="M177.676 133.251V132.815L179.955 131.104V131.647L178.12 133.021V133.046L179.955 134.42V134.963L177.676 133.251Z" fill="black"/>
<path d="M180.768 133.251V132.815L183.047 131.104V131.647L181.212 133.021V133.046L183.047 134.42V134.963L180.768 133.251Z" fill="black"/>
<path d="M183.875 133.251V132.815L186.155 131.104V131.647L184.32 133.021V133.046L186.155 134.42V134.963L183.875 133.251Z" fill="black"/>
<path d="M186.98 133.251V132.815L189.26 131.104V131.647L187.425 133.021V133.046L189.26 134.42V134.963L186.98 133.251Z" fill="black"/>
<path d="M190.074 133.251V132.815L192.354 131.104V131.647L190.519 133.021V133.046L192.354 134.42V134.963L190.074 133.251Z" fill="black"/>
<path d="M193.18 133.251V132.815L195.459 131.104V131.647L193.624 133.021V133.046L195.459 134.42V134.963L193.18 133.251Z" fill="black"/>
<path d="M196.27 133.251V132.815L198.549 131.104V131.647L196.714 133.021V133.046L198.549 134.42V134.963L196.27 133.251Z" fill="black"/>
<path d="M199.377 133.251V132.815L201.657 131.104V131.647L199.822 133.021V133.046L201.657 134.42V134.963L199.377 133.251Z" fill="black"/>
<path d="M202.477 133.251V132.815L204.756 131.104V131.647L202.921 133.021V133.046L204.756 134.42V134.963L202.477 133.251Z" fill="black"/>
<path d="M205.576 133.251V132.815L207.856 131.104V131.647L206.021 133.021V133.046L207.856 134.42V134.963L205.576 133.251Z" fill="black"/>
<path d="M208.674 133.251V132.815L210.953 131.104V131.647L209.118 133.021V133.046L210.953 134.42V134.963L208.674 133.251Z" fill="black"/>
<path d="M211.781 133.251V132.815L214.061 131.104V131.647L212.226 133.021V133.046L214.061 134.42V134.963L211.781 133.251Z" fill="black"/>
<path d="M214.883 133.251V132.815L217.162 131.104V131.647L215.327 133.021V133.046L217.162 134.42V134.963L214.883 133.251Z" fill="black"/>
<path d="M217.98 133.251V132.815L220.26 131.104V131.647L218.425 133.021V133.046L220.26 134.42V134.963L217.98 133.251Z" fill="black"/>
<path d="M221.078 133.251V132.815L223.358 131.104V131.647L221.523 133.021V133.046L223.358 134.42V134.963L221.078 133.251Z" fill="black"/>
<path d="M224.178 133.251V132.815L226.457 131.104V131.647L224.622 133.021V133.046L226.457 134.42V134.963L224.178 133.251Z" fill="black"/>
<path d="M227.285 133.251V132.815L229.565 131.104V131.647L227.73 133.021V133.046L229.565 134.42V134.963L227.285 133.251Z" fill="black"/>
<path d="M230.556 134.963C231.873 133.663 232.601 132.897 232.601 132.182C232.601 131.688 232.334 131.334 231.76 131.334C231.396 131.334 231.073 131.565 230.822 131.853L230.531 131.532C230.887 131.137 231.275 130.874 231.825 130.874C232.609 130.874 233.094 131.384 233.094 132.149C233.094 132.963 232.358 133.778 231.299 134.847C231.542 134.831 231.792 134.814 232.027 134.814H233.304V135.3H230.556V134.963Z" fill="black"/>
<path d="M234.184 134.963C235.502 133.663 236.23 132.897 236.23 132.182C236.23 131.688 235.963 131.334 235.389 131.334C235.025 131.334 234.702 131.565 234.451 131.853L234.16 131.532C234.516 131.137 234.904 130.874 235.454 130.874C236.238 130.874 236.723 131.384 236.723 132.149C236.723 132.963 235.987 133.778 234.928 134.847C235.171 134.831 235.421 134.814 235.656 134.814H236.933V135.3H234.184V134.963Z" fill="black"/>
<path d="M237.766 134.765L238.024 134.395C238.283 134.666 238.639 134.905 239.148 134.905C239.681 134.905 240.078 134.601 240.078 134.115C240.078 133.597 239.69 133.251 238.663 133.251V132.823C239.584 132.823 239.94 132.47 239.94 132.017C239.94 131.606 239.617 131.334 239.148 131.334C238.776 131.334 238.445 131.515 238.186 131.77L237.919 131.417C238.243 131.104 238.663 130.874 239.164 130.874C239.9 130.874 240.458 131.277 240.458 131.976C240.458 132.503 240.11 132.832 239.625 133.013V133.037C240.142 133.161 240.595 133.539 240.595 134.14C240.595 134.905 239.956 135.382 239.18 135.382C238.509 135.382 238.065 135.086 237.774 134.765H237.766Z" fill="black"/>
<path d="M241.387 134.765L241.645 134.395C241.904 134.666 242.26 134.905 242.761 134.905C243.294 134.905 243.691 134.601 243.691 134.115C243.691 133.597 243.303 133.251 242.276 133.251V132.823C243.197 132.823 243.553 132.47 243.553 132.017C243.553 131.606 243.23 131.334 242.761 131.334C242.397 131.334 242.058 131.515 241.799 131.77L241.532 131.417C241.856 131.104 242.276 130.874 242.777 130.874C243.513 130.874 244.071 131.277 244.071 131.976C244.071 132.503 243.723 132.832 243.238 133.013V133.037C243.755 133.161 244.208 133.539 244.208 134.14C244.208 134.905 243.569 135.382 242.793 135.382C242.122 135.382 241.678 135.086 241.387 134.765Z" fill="black"/>
<path d="M127.607 36.1353H76.9297V104.926H127.607V36.1353Z" fill="white"/>
<path d="M77.5527 16.312H78.7653C79.6545 16.312 80.2527 16.6411 80.2527 17.6284C80.2527 18.6157 79.6464 19.0106 78.7653 19.0106H78.0701V20.7795H77.5527V16.3202V16.312ZM78.7006 18.5417C79.3958 18.5417 79.7353 18.2537 79.7353 17.6202C79.7353 16.9867 79.3958 16.7727 78.7006 16.7727H78.062V18.5417H78.7006Z" fill="black"/>
<path d="M81.893 16.312H82.4831L83.833 20.7713H83.2834L82.5882 18.2784C82.4507 17.7847 82.3133 17.2911 82.192 16.7727H82.1678C82.0385 17.2911 81.9091 17.7765 81.7717 18.2784L81.0684 20.7713H80.543L81.893 16.312ZM81.2624 18.9613H83.1055V19.422H81.2624V18.9613Z" fill="black"/>
<path d="M84.4824 20.1951L84.7896 19.8001C85.0968 20.1375 85.5091 20.3514 85.9617 20.3514C86.5114 20.3514 86.8267 20.0552 86.8267 19.652C86.8267 19.1749 86.5114 19.035 86.1073 18.8458L85.5252 18.5578C85.1291 18.3768 84.6603 18.0641 84.6603 17.4059C84.6603 16.7477 85.21 16.2212 85.9779 16.2212C86.4791 16.2212 86.9237 16.4433 87.2147 16.7724L86.948 17.1427C86.6812 16.8876 86.3821 16.7313 85.9617 16.7313C85.4929 16.7313 85.1857 16.9781 85.1857 17.3813C85.1857 17.8091 85.5576 17.9654 85.9052 18.1135L86.471 18.3932C86.9641 18.6072 87.3602 18.928 87.3602 19.5862C87.3602 20.2938 86.8186 20.8615 85.9375 20.8615C85.3474 20.8615 84.8462 20.6064 84.4824 20.2033V20.1951Z" fill="black"/>
<path d="M88.1289 20.1951L88.4361 19.8001C88.7433 20.1375 89.1555 20.3514 89.6082 20.3514C90.1579 20.3514 90.4732 20.0552 90.4732 19.652C90.4732 19.1749 90.1579 19.035 89.7537 18.8458L89.1717 18.5578C88.7756 18.3768 88.3067 18.0641 88.3067 17.4059C88.3067 16.7477 88.8564 16.2212 89.6244 16.2212C90.1256 16.2212 90.5702 16.4433 90.8612 16.7724L90.5944 17.1427C90.3277 16.8876 90.0286 16.7313 89.6082 16.7313C89.1394 16.7313 88.8322 16.9781 88.8322 17.3813C88.8322 17.8091 89.204 17.9654 89.5516 18.1135L90.1175 18.3932C90.6106 18.6072 91.0067 18.928 91.0067 19.5862C91.0067 20.2938 90.4651 20.8615 89.584 20.8615C88.9939 20.8615 88.4927 20.6064 88.1289 20.2033V20.1951Z" fill="black"/>
<path d="M91.959 16.3115H93.1715C94.0608 16.3115 94.659 16.6406 94.659 17.6279C94.659 18.6152 94.0527 19.0101 93.1715 19.0101H92.4763V20.779H91.959V16.3197V16.3115ZM93.1069 18.5412C93.8021 18.5412 94.1416 18.2532 94.1416 17.6197C94.1416 16.9862 93.8021 16.7723 93.1069 16.7723H92.4683V18.5412H93.1069Z" fill="black"/>
<path d="M95.3691 18.524C95.3691 17.0842 96.0078 16.2285 96.9131 16.2285C97.8185 16.2285 98.4571 17.0759 98.4571 18.524C98.4571 19.972 97.8185 20.8606 96.9131 20.8606C96.0078 20.8606 95.3691 19.9885 95.3691 18.524ZM97.9155 18.524C97.9155 17.3968 97.5113 16.7386 96.9051 16.7386C96.2988 16.7386 95.8946 17.405 95.8946 18.524C95.8946 19.6429 96.2988 20.3505 96.9051 20.3505C97.5113 20.3505 97.9155 19.6676 97.9155 18.524Z" fill="black"/>
<path d="M99.4023 16.312H100.655C101.472 16.312 102.062 16.6411 102.062 17.5708C102.062 18.5005 101.472 18.8872 100.655 18.8872H99.9197V20.7713H99.4023V16.312ZM100.583 18.4265C101.205 18.4265 101.553 18.1385 101.553 17.5708C101.553 17.0031 101.213 16.7727 100.583 16.7727H99.9197V18.4265H100.583ZM100.954 18.4347L102.175 20.7713H101.593L100.55 18.7309L100.954 18.4347Z" fill="black"/>
<path d="M104.068 16.7974H102.742V16.312H105.911V16.7974H104.585V20.7795H104.068V16.7974Z" fill="black"/>
<path d="M138.612 29.6273H137.658V29.2817H139.93V29.6273H138.976V32.474H138.604V29.6273H138.612Z" fill="black"/>
<path d="M139.952 33.443L140.024 33.1221C140.081 33.1385 140.154 33.155 140.218 33.155C140.518 33.155 140.695 32.9493 140.8 32.6531L140.865 32.4804L139.879 30.1108H140.251L140.768 31.419C140.849 31.6247 140.946 31.8797 141.035 32.1019H141.051C141.124 31.8797 141.213 31.6329 141.277 31.419L141.738 30.1108H142.086L141.14 32.6696C140.986 33.1386 140.728 33.4923 140.235 33.4923C140.138 33.4923 140.032 33.4759 139.952 33.443Z" fill="black"/>
<path d="M142.604 30.104H142.903L142.935 30.4084H142.951C143.145 30.2027 143.428 30.0464 143.687 30.0464C144.261 30.0464 144.568 30.5154 144.568 31.2558C144.568 32.0621 144.115 32.5311 143.598 32.5311C143.404 32.5311 143.153 32.4159 142.959 32.2267H142.951L142.967 32.671V33.469H142.604V30.104ZM144.188 31.2558C144.188 30.7375 144.01 30.3919 143.59 30.3919C143.404 30.3919 143.186 30.4989 142.967 30.7457V31.9223C143.161 32.1197 143.388 32.1938 143.533 32.1938C143.913 32.1938 144.188 31.84 144.188 31.2558Z" fill="black"/>
<path d="M145.065 31.2878C145.065 30.5144 145.582 30.0537 146.148 30.0537C146.762 30.0537 147.118 30.498 147.118 31.1644C147.118 31.2549 147.11 31.3454 147.102 31.4112H145.299V31.0986H146.884L146.795 31.2138C146.795 30.6543 146.544 30.3746 146.156 30.3746C145.768 30.3746 145.42 30.7037 145.42 31.2961C145.42 31.8884 145.776 32.2175 146.253 32.2175C146.504 32.2175 146.706 32.127 146.9 31.9954L147.029 32.2587C146.819 32.415 146.544 32.5384 146.205 32.5384C145.566 32.5384 145.057 32.0777 145.057 31.2878H145.065Z" fill="black"/>
<path d="M138.062 34.5464H139.324C140.205 34.5464 140.827 34.8837 140.827 35.8875C140.827 36.8912 140.197 37.3026 139.324 37.3026H138.677V39.0057H138.062V34.5464ZM139.267 36.7514C139.914 36.7514 140.221 36.4798 140.221 35.8875C140.221 35.2951 139.898 35.0976 139.267 35.0976H138.677V36.7514H139.267Z" fill="black"/>
<path d="M173.213 30.8764C173.213 29.8479 173.754 29.2227 174.498 29.2227C174.846 29.2227 175.113 29.4119 175.29 29.6093L175.08 29.8644C174.935 29.6916 174.741 29.5764 174.498 29.5764C173.949 29.5764 173.593 30.0701 173.593 30.8599C173.593 31.6498 173.949 32.1681 174.498 32.1681C174.765 32.1681 174.959 32.0447 175.145 31.8143L175.355 32.0611C175.129 32.3573 174.846 32.5219 174.466 32.5219C173.754 32.5219 173.213 31.9048 173.213 30.8682V30.8764Z" fill="black"/>
<path d="M175.699 31.297C175.699 30.5071 176.192 30.0464 176.75 30.0464C177.308 30.0464 177.801 30.4989 177.801 31.297C177.801 32.095 177.308 32.5311 176.75 32.5311C176.192 32.5311 175.699 32.0786 175.699 31.297ZM177.429 31.297C177.429 30.754 177.154 30.3837 176.75 30.3837C176.346 30.3837 176.071 30.7457 176.071 31.297C176.071 31.8482 176.346 32.1938 176.75 32.1938C177.154 32.1938 177.429 31.8318 177.429 31.297Z" fill="black"/>
<path d="M178.344 31.5762V30.1034H178.708V31.5186C178.708 31.9629 178.845 32.1768 179.201 32.1768C179.443 32.1768 179.629 32.0534 179.863 31.7407V30.0952H180.227V32.4647H179.928L179.896 32.0534H179.88C179.661 32.3331 179.419 32.5223 179.087 32.5223C178.586 32.5223 178.352 32.1932 178.352 31.5679L178.344 31.5762Z" fill="black"/>
<path d="M180.961 30.104H181.26L181.292 30.5071H181.309C181.535 30.2521 181.777 30.0464 182.109 30.0464C182.61 30.0464 182.844 30.3755 182.844 31.0008V32.4735H182.481V31.0584C182.481 30.6141 182.343 30.4002 181.996 30.4002C181.745 30.4002 181.567 30.54 181.325 30.828V32.4817H180.961V30.1122V30.104Z" fill="black"/>
<path d="M183.95 31.5512V30.4322H183.344V30.1278L183.958 30.1031L184.007 29.3462H184.306V30.1031H185.349V30.4322H184.306V31.5594C184.306 31.9872 184.435 32.2011 184.847 32.2011C185.041 32.2011 185.203 32.16 185.357 32.0942L185.437 32.3904C185.243 32.4644 185.041 32.5302 184.775 32.5302C184.152 32.5302 183.95 32.1353 183.95 31.5512Z" fill="black"/>
<path d="M186.109 30.104H186.408L186.441 30.6634H186.449C186.675 30.2768 187.007 30.0464 187.403 30.0464C187.564 30.0464 187.694 30.0711 187.823 30.1451L187.742 30.4907C187.597 30.4331 187.516 30.4166 187.346 30.4166C187.023 30.4166 186.724 30.5976 186.473 31.0913V32.4735H186.109V30.104Z" fill="black"/>
<path d="M188.352 33.443L188.425 33.1221C188.481 33.1385 188.554 33.155 188.619 33.155C188.918 33.155 189.096 32.9493 189.201 32.6531L189.265 32.4804L188.279 30.1108H188.651L189.168 31.419C189.249 31.6247 189.346 31.8797 189.435 32.1019H189.451C189.524 31.8797 189.613 31.6329 189.678 31.419L190.139 30.1108H190.486L189.54 32.6696C189.387 33.1386 189.128 33.4923 188.635 33.4923C188.538 33.4923 188.433 33.4759 188.352 33.443Z" fill="black"/>
<path d="M193.318 31.297C193.318 30.5071 193.86 30.0464 194.507 30.0464C194.854 30.0464 195.105 30.2027 195.283 30.3919L195.105 30.647C194.927 30.4824 194.749 30.3755 194.523 30.3755C194.03 30.3755 193.698 30.7375 193.698 31.2887C193.698 31.84 194.03 32.1855 194.515 32.1855C194.773 32.1855 195 32.0539 195.17 31.8893L195.331 32.1526C195.097 32.383 194.798 32.5229 194.482 32.5229C193.82 32.5229 193.318 32.0703 193.318 31.2887V31.297Z" fill="black"/>
<path d="M195.717 31.297C195.717 30.5071 196.21 30.0464 196.768 30.0464C197.325 30.0464 197.819 30.4989 197.819 31.297C197.819 32.095 197.325 32.5311 196.768 32.5311C196.21 32.5311 195.717 32.0786 195.717 31.297ZM197.447 31.297C197.447 30.754 197.172 30.3837 196.768 30.3837C196.364 30.3837 196.089 30.7457 196.089 31.297C196.089 31.8482 196.364 32.1938 196.768 32.1938C197.172 32.1938 197.447 31.8318 197.447 31.297Z" fill="black"/>
<path d="M198.285 31.296C198.285 30.5226 198.746 30.0454 199.247 30.0454C199.498 30.0454 199.7 30.1606 199.886 30.3498H199.894L199.878 29.9137V29.0005H200.242V32.4725H199.943L199.91 32.1598H199.894C199.716 32.3573 199.466 32.5301 199.199 32.5301C198.649 32.5301 198.277 32.0858 198.277 31.296H198.285ZM199.886 31.839V30.6624C199.692 30.465 199.514 30.3909 199.328 30.3909C198.956 30.3909 198.665 30.7529 198.665 31.296C198.665 31.839 198.9 32.1927 199.288 32.1927C199.498 32.1927 199.692 32.0776 199.886 31.839Z" fill="black"/>
<path d="M200.864 31.2878C200.864 30.5144 201.381 30.0537 201.947 30.0537C202.561 30.0537 202.917 30.498 202.917 31.1644C202.917 31.2549 202.909 31.3454 202.901 31.4112H201.098V31.0986H202.682L202.593 31.2138C202.593 30.6543 202.343 30.3746 201.955 30.3746C201.567 30.3746 201.219 30.7037 201.219 31.2961C201.219 31.8884 201.575 32.2175 202.052 32.2175C202.302 32.2175 202.505 32.127 202.699 31.9954L202.828 32.2587C202.618 32.415 202.343 32.5384 202.003 32.5384C201.365 32.5384 200.855 32.0777 200.855 31.2878H200.864Z" fill="black"/>
<path d="M173.594 34.5508H176.116V35.1267H174.208V36.3937H175.825V36.9697H174.208V38.4342H176.181V39.0101H173.594V34.5508Z" fill="black"/>
<path d="M176.754 37.3152V34.5508H177.376V37.3481C177.376 38.1626 177.692 38.4917 178.144 38.4917C178.597 38.4917 178.92 38.1709 178.92 37.3481V34.5508H179.51V37.3152C179.51 38.5576 178.969 39.0923 178.144 39.0923C177.32 39.0923 176.762 38.5658 176.762 37.3152H176.754Z" fill="black"/>
<path d="M208.815 29.2827H209.68C210.318 29.2827 210.747 29.5213 210.747 30.2206C210.747 30.92 210.31 31.2079 209.68 31.2079H209.178V32.475H208.807V29.2827H208.815ZM209.639 30.8788C210.14 30.8788 210.383 30.6732 210.383 30.2206C210.383 29.7681 210.14 29.6118 209.639 29.6118H209.187V30.8788H209.639Z" fill="black"/>
<path d="M211.197 31.8574C211.197 31.3226 211.642 31.0676 212.741 30.9688C212.725 30.648 212.588 30.3765 212.175 30.3765C211.901 30.3765 211.626 30.5246 211.432 30.6562L211.286 30.3847C211.504 30.2284 211.86 30.0474 212.24 30.0474C212.822 30.0474 213.105 30.4341 213.105 31.0182V32.4662H212.806L212.774 32.1454H212.757C212.523 32.3511 212.216 32.5238 211.925 32.5238C211.529 32.5238 211.197 32.277 211.197 31.8492V31.8574ZM212.741 31.8574V31.2403C211.828 31.3144 211.553 31.5201 211.553 31.8327C211.553 32.1042 211.771 32.2112 212.014 32.2112C212.256 32.2112 212.491 32.0878 212.733 31.8574H212.741Z" fill="black"/>
<path d="M213.666 32.1618L213.836 31.8903C214.079 32.0878 214.37 32.2112 214.758 32.2112C215.113 32.2112 215.291 32.0466 215.291 31.8492C215.291 31.6682 215.21 31.5448 214.628 31.4131C214.07 31.2897 213.796 31.0758 213.796 30.722C213.796 30.3436 214.095 30.0474 214.677 30.0474C215 30.0474 215.323 30.1872 215.534 30.3518L215.356 30.6068C215.162 30.4587 214.911 30.36 214.644 30.36C214.289 30.36 214.151 30.5246 214.151 30.6973C214.151 30.903 214.337 30.9935 214.774 31.0923C215.477 31.265 215.647 31.4543 215.647 31.8245C215.647 32.2112 215.307 32.5321 214.701 32.5321C214.289 32.5321 213.909 32.3593 213.658 32.1618H213.666Z" fill="black"/>
<path d="M216.172 32.1618L216.342 31.8903C216.584 32.0878 216.875 32.2112 217.263 32.2112C217.619 32.2112 217.797 32.0466 217.797 31.8492C217.797 31.6682 217.716 31.5448 217.134 31.4131C216.576 31.2897 216.301 31.0758 216.301 30.722C216.301 30.3436 216.601 30.0474 217.183 30.0474C217.506 30.0474 217.829 30.1872 218.039 30.3518L217.862 30.6068C217.668 30.4587 217.417 30.36 217.15 30.36C216.795 30.36 216.657 30.5246 216.657 30.6973C216.657 30.903 216.843 30.9935 217.28 31.0923C217.983 31.265 218.153 31.4543 218.153 31.8245C218.153 32.2112 217.813 32.5321 217.207 32.5321C216.795 32.5321 216.415 32.3593 216.164 32.1618H216.172Z" fill="black"/>
<path d="M218.781 30.105H219.08L219.113 30.4094H219.129C219.323 30.2037 219.606 30.0474 219.864 30.0474C220.438 30.0474 220.746 30.5163 220.746 31.2568C220.746 32.0631 220.293 32.5321 219.776 32.5321C219.582 32.5321 219.331 32.4169 219.137 32.2276H219.129L219.145 32.6719V33.47H218.781V30.105ZM220.366 31.2568C220.366 30.7385 220.188 30.3929 219.767 30.3929C219.582 30.3929 219.363 30.4999 219.145 30.7467V31.9232C219.339 32.1207 219.565 32.1947 219.711 32.1947C220.091 32.1947 220.366 31.841 220.366 31.2568Z" fill="black"/>
<path d="M221.219 31.2979C221.219 30.5081 221.712 30.0474 222.27 30.0474C222.827 30.0474 223.321 30.4999 223.321 31.2979C223.321 32.096 222.827 32.5321 222.27 32.5321C221.712 32.5321 221.219 32.0796 221.219 31.2979ZM222.949 31.2979C222.949 30.7549 222.674 30.3847 222.27 30.3847C221.865 30.3847 221.591 30.7467 221.591 31.2979C221.591 31.8492 221.865 32.1947 222.27 32.1947C222.674 32.1947 222.949 31.8327 222.949 31.2979Z" fill="black"/>
<path d="M224.037 30.105H224.336L224.369 30.6644H224.377C224.603 30.2777 224.934 30.0474 225.331 30.0474C225.492 30.0474 225.622 30.072 225.751 30.1461L225.67 30.4916C225.525 30.4341 225.444 30.4176 225.274 30.4176C224.951 30.4176 224.651 30.5986 224.401 31.0923V32.4745H224.037V30.105Z" fill="black"/>
<path d="M226.856 31.5546V30.4356H226.25V30.1312L226.864 30.1065L226.913 29.3496H227.212V30.1065H228.255V30.4356H227.212V31.5628C227.212 31.9906 227.341 32.2045 227.754 32.2045C227.948 32.2045 228.109 32.1634 228.263 32.0976L228.344 32.3938C228.15 32.4678 227.948 32.5336 227.681 32.5336C227.058 32.5336 226.856 32.1387 226.856 31.5546Z" fill="black"/>
<path d="M231.227 29.2827H231.631L232.552 31.2902L232.827 31.9484H232.835C232.819 31.6358 232.787 31.2738 232.787 30.9364V29.2827H233.134V32.475H232.73L231.809 30.4675L231.534 29.8093H231.526C231.542 30.1384 231.574 30.4757 231.574 30.8048V32.475H231.227V29.2827Z" fill="black"/>
<path d="M233.676 31.2979C233.676 30.5081 234.169 30.0474 234.727 30.0474C235.284 30.0474 235.778 30.4999 235.778 31.2979C235.778 32.096 235.284 32.5321 234.727 32.5321C234.169 32.5321 233.676 32.0796 233.676 31.2979ZM235.406 31.2979C235.406 30.7549 235.131 30.3847 234.727 30.3847C234.322 30.3847 234.048 30.7467 234.048 31.2979C234.048 31.8492 234.322 32.1947 234.727 32.1947C235.131 32.1947 235.406 31.8327 235.406 31.2979Z" fill="black"/>
<path d="M236.582 32.1199C236.582 31.873 236.736 31.7085 236.938 31.7085C237.14 31.7085 237.293 31.8813 237.293 32.1199C237.293 32.3585 237.14 32.5312 236.938 32.5312C236.736 32.5312 236.582 32.3667 236.582 32.1199Z" fill="black"/>
<path d="M210.965 35.2463H208.799V34.6621H211.652V35.0817C210.634 36.3652 210.407 37.3031 210.343 38.998H209.712C209.785 37.4101 210.1 36.4392 210.973 35.2463H210.965Z" fill="black"/>
<path d="M212.178 38.4463H213.285V35.4433H212.412V35.0072C212.889 34.9332 213.18 34.8345 213.439 34.6699H213.891V38.4463H214.87V39.0058H212.178V38.4463Z" fill="black"/>
<path d="M215.566 34.5474H218.089V35.1233H216.181V36.3903H217.798V36.9662H216.181V38.4307H218.153V39.0067H215.566V34.5474Z" fill="black"/>
<path d="M219.905 35.1233H218.611V34.5474H221.812V35.1233H220.519V39.0067H219.905V35.1233Z" fill="black"/>
<path d="M222.051 36.7506C222.051 35.2944 222.689 34.4634 223.611 34.4634C224.532 34.4634 225.171 35.3026 225.171 36.7506C225.171 38.1987 224.532 39.079 223.611 39.079C222.689 39.079 222.051 38.2233 222.051 36.7506ZM224.532 36.7506C224.532 35.681 224.169 35.0558 223.611 35.0558C223.053 35.0558 222.689 35.6728 222.689 36.7506C222.689 37.8284 223.053 38.4866 223.611 38.4866C224.169 38.4866 224.532 37.8449 224.532 36.7506Z" fill="black"/>
<path d="M225.586 36.7506C225.586 35.2944 226.225 34.4634 227.146 34.4634C228.068 34.4634 228.706 35.3026 228.706 36.7506C228.706 38.1987 228.068 39.079 227.146 39.079C226.225 39.079 225.586 38.2233 225.586 36.7506ZM228.068 36.7506C228.068 35.681 227.704 35.0558 227.146 35.0558C226.588 35.0558 226.225 35.6728 226.225 36.7506C226.225 37.8284 226.588 38.4866 227.146 38.4866C227.704 38.4866 228.068 37.8449 228.068 36.7506Z" fill="black"/>
<path d="M228.988 38.4708L229.287 38.0348C229.546 38.2981 229.902 38.5284 230.363 38.5284C230.864 38.5284 231.236 38.2569 231.236 37.8127C231.236 37.3355 230.88 37.0146 229.886 37.0146V36.5127C230.767 36.5127 231.106 36.1918 231.106 35.764C231.106 35.3773 230.807 35.1387 230.371 35.1387C230.023 35.1387 229.708 35.3115 229.449 35.5583L229.134 35.1387C229.473 34.8178 229.902 34.5957 230.403 34.5957C231.171 34.5957 231.729 35.0071 231.729 35.7229C231.729 36.2247 231.397 36.5538 230.92 36.7348V36.7595C231.43 36.8912 231.866 37.2614 231.866 37.8456C231.866 38.6272 231.211 39.0879 230.419 39.0879C229.748 39.0879 229.295 38.8082 229.004 38.4708H228.988Z" fill="black"/>
<path d="M232.367 38.4879L232.658 38.0436C232.917 38.2987 233.232 38.5208 233.709 38.5208C234.226 38.5208 234.631 38.1752 234.631 37.6158C234.631 37.0563 234.275 36.7437 233.741 36.7437C233.434 36.7437 233.256 36.8259 232.982 36.9905L232.674 36.7766L232.796 34.6621H235.051V35.2463H233.329L233.232 36.4063C233.442 36.3076 233.628 36.25 233.903 36.25C234.639 36.25 235.245 36.6696 235.245 37.6075C235.245 38.5455 234.542 39.0885 233.782 39.0885C233.087 39.0885 232.666 38.8005 232.367 38.4961V38.4879Z" fill="black"/>
<path d="M235.857 36.9806C235.857 35.2693 236.65 34.5864 237.498 34.5864C237.992 34.5864 238.363 34.7921 238.622 35.0636L238.291 35.4832C238.097 35.2858 237.822 35.1459 237.539 35.1459C236.941 35.1459 236.415 35.6149 236.415 36.9888C236.415 38.0584 236.779 38.5685 237.361 38.5685C237.781 38.5685 238.121 38.2312 238.121 37.68C238.121 37.1287 237.846 36.8325 237.361 36.8325C237.07 36.8325 236.722 36.9888 236.415 37.4084L236.391 36.9148C236.706 36.561 237.102 36.3389 237.482 36.3389C238.194 36.3389 238.695 36.7832 238.695 37.68C238.695 38.5274 238.08 39.0869 237.369 39.0869C236.528 39.0869 235.857 38.4122 235.857 36.9806Z" fill="black"/>
<path d="M239.156 36.7506C239.156 35.2944 239.795 34.4634 240.716 34.4634C241.638 34.4634 242.277 35.3026 242.277 36.7506C242.277 38.1987 241.638 39.079 240.716 39.079C239.795 39.079 239.156 38.2233 239.156 36.7506ZM241.63 36.7506C241.63 35.681 241.266 35.0558 240.708 35.0558C240.151 35.0558 239.787 35.6728 239.787 36.7506C239.787 37.8284 240.151 38.4866 240.708 38.4866C241.266 38.4866 241.63 37.8449 241.63 36.7506Z" fill="black"/>
<path d="M242.655 38.3485L243.026 37.9289C243.261 38.3073 243.568 38.4883 243.867 38.4883C244.393 38.4883 244.635 38.2004 244.635 37.501V35.1233H242.986V34.5474H245.249V37.5586C245.249 38.3978 244.902 39.0889 243.875 39.0889C243.431 39.0889 242.946 38.8668 242.646 38.3485H242.655Z" fill="black"/>
<path d="M76.9941 113.46H78.1178V110.276H77.2447V109.905C77.7055 109.84 77.9965 109.733 78.2471 109.584H78.627V113.46H79.6456V113.929H76.9941V113.46Z" fill="black"/>
<path d="M80.5181 113.556L80.801 113.202C80.995 113.408 81.2779 113.539 81.577 113.539C82.2076 113.539 82.7654 113.046 82.7654 111.589C82.7654 110.52 82.3935 109.952 81.7468 109.952C81.2779 109.952 80.9223 110.331 80.9223 110.898C80.9223 111.466 81.2133 111.82 81.7549 111.82C82.0621 111.82 82.4339 111.647 82.7734 111.211L82.7896 111.655C82.4743 112.025 82.0621 112.248 81.6579 112.248C80.9384 112.248 80.4453 111.795 80.4453 110.906C80.4453 110.076 81.0516 109.508 81.7387 109.508C82.5875 109.508 83.2342 110.199 83.2342 111.598C83.2342 113.342 82.442 114.016 81.6013 114.016C81.1244 114.016 80.7687 113.819 80.51 113.564L80.5181 113.556Z" fill="black"/>
<path d="M84.0566 112.823C84.0566 112.223 84.4689 111.886 84.8974 111.663V111.639C84.574 111.417 84.3072 111.079 84.3072 110.627C84.3072 109.96 84.8165 109.508 85.5117 109.508C86.2797 109.508 86.7243 109.993 86.7243 110.668C86.7243 111.079 86.4575 111.449 86.1342 111.705V111.729C86.5626 111.968 86.9021 112.239 86.9021 112.856C86.9021 113.473 86.3928 114.016 85.5036 114.016C84.6144 114.016 84.0728 113.515 84.0728 112.823H84.0566ZM86.4009 112.832C86.4009 112.231 85.8593 112.075 85.1803 111.828C84.8003 112.05 84.5093 112.33 84.5093 112.766C84.5093 113.243 84.8973 113.589 85.4955 113.589C86.0937 113.589 86.4009 113.284 86.4009 112.832ZM86.2716 110.693C86.2716 110.273 85.9967 109.927 85.4875 109.927C85.059 109.927 84.7599 110.199 84.7599 110.619C84.7599 111.137 85.2045 111.351 85.7866 111.556C86.1018 111.301 86.2716 111.005 86.2716 110.684V110.693Z" fill="black"/>
<path d="M87.7305 111.919C87.7305 110.175 88.5146 109.5 89.3634 109.5C89.8403 109.5 90.196 109.697 90.4547 109.961L90.1718 110.315C89.9697 110.101 89.6867 109.969 89.3957 109.969C88.7571 109.969 88.2074 110.463 88.2074 111.919C88.2074 112.988 88.5712 113.564 89.226 113.564C89.6867 113.564 90.0424 113.186 90.0424 112.61C90.0424 112.034 89.7514 111.689 89.2179 111.689C88.9026 111.689 88.5308 111.861 88.1993 112.297L88.1832 111.853C88.5065 111.491 88.9107 111.261 89.3149 111.261C90.0343 111.261 90.5355 111.713 90.5355 112.602C90.5355 113.433 89.9292 114 89.234 114C88.3853 114 87.7385 113.309 87.7385 111.911L87.7305 111.919Z" fill="black"/>
<path d="M137.783 48.3639L138.001 48.0841C138.22 48.3227 138.519 48.4791 138.842 48.4791C139.238 48.4791 139.465 48.2734 139.465 47.9772C139.465 47.6316 139.238 47.5411 138.955 47.4013L138.543 47.1956C138.26 47.0722 137.929 46.8418 137.929 46.3728C137.929 45.9039 138.325 45.5254 138.866 45.5254C139.222 45.5254 139.537 45.6899 139.748 45.9203L139.554 46.1836C139.368 45.9944 139.149 45.8874 138.85 45.8874C138.519 45.8874 138.292 46.0602 138.292 46.3481C138.292 46.6526 138.559 46.7677 138.802 46.8747L139.206 47.0722C139.562 47.2285 139.845 47.4506 139.845 47.9278C139.845 48.4379 139.457 48.8411 138.826 48.8411C138.406 48.8411 138.042 48.6518 137.783 48.3721V48.3639Z" fill="black"/>
<path d="M140.338 47.8867V46.414H140.702V47.8291C140.702 48.2734 140.839 48.4873 141.195 48.4873C141.437 48.4873 141.623 48.3639 141.858 48.0513V46.4058H142.221V48.7753H141.922L141.89 48.3639H141.874C141.656 48.6436 141.413 48.8329 141.082 48.8329C140.58 48.8329 140.346 48.5038 140.346 47.8785L140.338 47.8867Z" fill="black"/>
<path d="M143.078 46.415H143.377L143.41 46.9745H143.418C143.644 46.5878 143.975 46.3574 144.372 46.3574C144.533 46.3574 144.663 46.3821 144.792 46.4562L144.711 46.8017C144.566 46.7441 144.485 46.7277 144.315 46.7277C143.992 46.7277 143.692 46.9087 143.442 47.4023V48.7845H143.078V46.415Z" fill="black"/>
<path d="M145.359 46.415H145.658L145.691 46.8182H145.707C145.933 46.5631 146.176 46.3574 146.507 46.3574C147.008 46.3574 147.243 46.6865 147.243 47.3118V48.7845H146.879V47.3694C146.879 46.9251 146.742 46.7112 146.394 46.7112C146.143 46.7112 145.966 46.8511 145.723 47.139V48.7928H145.359V46.4232V46.415Z" fill="black"/>
<path d="M147.828 48.1675C147.828 47.6327 148.273 47.3776 149.372 47.2789C149.356 46.958 149.219 46.6865 148.806 46.6865C148.531 46.6865 148.257 46.8346 148.063 46.9663L147.917 46.6948C148.135 46.5384 148.491 46.3574 148.871 46.3574C149.453 46.3574 149.736 46.7441 149.736 47.3283V48.7763H149.437L149.404 48.4554H149.388C149.154 48.6611 148.847 48.8339 148.556 48.8339C148.16 48.8339 147.828 48.5871 147.828 48.1592V48.1675ZM149.372 48.1592V47.5422C148.459 47.6162 148.184 47.8219 148.184 48.1346C148.184 48.4061 148.402 48.513 148.645 48.513C148.887 48.513 149.122 48.3896 149.364 48.1592H149.372Z" fill="black"/>
<path d="M150.359 46.415H150.65L150.683 46.7277H150.691C150.796 46.5055 150.933 46.3574 151.176 46.3574C151.386 46.3574 151.515 46.4973 151.58 46.7688C151.701 46.5137 151.831 46.3574 152.081 46.3574C152.38 46.3574 152.55 46.6125 152.55 47.0897V48.7845H152.194V47.1226C152.194 46.8511 152.122 46.7112 151.968 46.7112C151.823 46.7112 151.742 46.8346 151.629 47.0732V48.7845H151.297V47.1226C151.297 46.8511 151.232 46.7112 151.079 46.7112C150.933 46.7112 150.836 46.8346 150.731 47.0732V48.7845H150.376V46.415H150.359Z" fill="black"/>
<path d="M153.037 47.5915C153.037 46.8182 153.555 46.3574 154.121 46.3574C154.735 46.3574 155.091 46.8017 155.091 47.4681C155.091 47.5586 155.083 47.6491 155.074 47.715H153.272V47.4023H154.856L154.767 47.5175C154.767 46.958 154.517 46.6783 154.129 46.6783C153.741 46.6783 153.393 47.0074 153.393 47.5998C153.393 48.1922 153.749 48.5212 154.226 48.5212C154.476 48.5212 154.678 48.4307 154.872 48.2991L155.002 48.5624C154.792 48.7187 154.517 48.8421 154.177 48.8421C153.539 48.8421 153.029 48.3814 153.029 47.5915H153.037Z" fill="black"/>
<path d="M137.938 54.6502L138.31 54.2306C138.544 54.6091 138.851 54.7901 139.15 54.7901C139.676 54.7901 139.918 54.5021 139.918 53.8028V51.425H138.269V50.8491H140.533V53.8604C140.533 54.6996 140.185 55.3907 139.158 55.3907C138.714 55.3907 138.229 55.1685 137.93 54.6502H137.938Z" fill="black"/>
<path d="M141.191 53.0646C141.191 51.6083 141.83 50.7773 142.752 50.7773C143.673 50.7773 144.312 51.6165 144.312 53.0646C144.312 54.5126 143.673 55.393 142.752 55.393C141.83 55.393 141.191 54.5373 141.191 53.0646ZM143.673 53.0646C143.673 51.995 143.309 51.3697 142.752 51.3697C142.194 51.3697 141.83 51.9868 141.83 53.0646C141.83 54.1424 142.194 54.8006 142.752 54.8006C143.309 54.8006 143.673 54.1588 143.673 53.0646Z" fill="black"/>
<path d="M144.922 50.8491H145.577L146.749 53.4984L147.121 54.4363H147.137C147.113 53.9838 147.056 53.4572 147.056 52.9718V50.8491H147.638V55.3084H146.983L145.811 52.6592L145.439 51.7212H145.423C145.447 52.1902 145.504 52.6921 145.504 53.1693V55.3084H144.922V50.8491Z" fill="black"/>
<path d="M148.52 50.8491H151.042V51.425H149.134V52.6921H150.751V53.268H149.134V54.7325H151.106V55.3084H148.52V50.8491Z" fill="black"/>
<path d="M137.715 63.4916C137.715 62.4632 138.248 61.8379 138.992 61.8379C139.372 61.8379 139.623 62.0354 139.784 62.2246L139.574 62.4796C139.437 62.3151 139.267 62.1917 138.992 62.1917C138.45 62.1917 138.103 62.6853 138.103 63.4752C138.103 64.265 138.426 64.7833 138.984 64.7833C139.186 64.7833 139.372 64.7175 139.477 64.6023V63.7714H138.911V63.434H139.825V64.7751C139.647 64.9808 139.34 65.1453 138.968 65.1453C138.248 65.1453 137.723 64.5283 137.723 63.4916H137.715Z" fill="black"/>
<path d="M141.217 63.0476H140.23V62.7185H141.58V65.0881H141.217V63.0476ZM141.071 61.9123C141.071 61.7312 141.192 61.5996 141.362 61.5996C141.532 61.5996 141.653 61.723 141.653 61.9123C141.653 62.1015 141.532 62.2249 141.362 62.2249C141.192 62.2249 141.071 62.1015 141.071 61.9123Z" fill="black"/>
<path d="M142.371 62.7173H142.743L143.236 64.0584C143.317 64.297 143.398 64.5273 143.47 64.7577H143.487C143.559 64.5273 143.632 64.297 143.721 64.0584L144.214 62.7173H144.562L143.681 65.0868H143.276L142.379 62.7173H142.371Z" fill="black"/>
<path d="M144.903 63.9031C144.903 63.1297 145.42 62.6689 145.986 62.6689C146.6 62.6689 146.956 63.1132 146.956 63.7797C146.956 63.8702 146.948 63.9607 146.94 64.0265H145.137V63.7138H146.721L146.633 63.829C146.633 63.2696 146.382 62.9898 145.994 62.9898C145.606 62.9898 145.258 63.3189 145.258 63.9113C145.258 64.5037 145.614 64.8328 146.091 64.8328C146.342 64.8328 146.544 64.7423 146.738 64.6106L146.867 64.8739C146.657 65.0302 146.382 65.1536 146.042 65.1536C145.404 65.1536 144.895 64.6929 144.895 63.9031H144.903Z" fill="black"/>
<path d="M147.574 62.7168H147.873L147.906 63.1199H147.922C148.148 62.8649 148.391 62.6592 148.722 62.6592C149.223 62.6592 149.458 62.9883 149.458 63.6136V65.0863H149.094V63.6712C149.094 63.2269 148.957 63.013 148.609 63.013C148.358 63.013 148.181 63.1528 147.938 63.4408V65.0945H147.574V62.725V62.7168Z" fill="black"/>
<path d="M152.477 62.7168H152.776L152.808 63.1199H152.824C153.051 62.8649 153.293 62.6592 153.624 62.6592C154.126 62.6592 154.36 62.9883 154.36 63.6136V65.0863H153.996V63.6712C153.996 63.2269 153.859 63.013 153.511 63.013C153.261 63.013 153.083 63.1528 152.84 63.4408V65.0945H152.477V62.725V62.7168Z" fill="black"/>
<path d="M154.949 64.4692C154.949 63.9344 155.394 63.6794 156.493 63.5807C156.477 63.2598 156.34 62.9883 155.927 62.9883C155.652 62.9883 155.378 63.1364 155.184 63.268L155.038 62.9965C155.256 62.8402 155.612 62.6592 155.992 62.6592C156.574 62.6592 156.857 63.0459 156.857 63.63V65.0781H156.558L156.526 64.7572H156.509C156.275 64.9629 155.968 65.1357 155.677 65.1357C155.281 65.1357 154.949 64.8888 154.949 64.461V64.4692ZM156.493 64.4692V63.8522C155.58 63.9262 155.305 64.1319 155.305 64.4445C155.305 64.7161 155.523 64.823 155.766 64.823C156.008 64.823 156.243 64.6996 156.485 64.4692H156.493Z" fill="black"/>
<path d="M157.479 62.7168H157.77L157.802 63.0294H157.81C157.915 62.8073 158.052 62.6592 158.295 62.6592C158.505 62.6592 158.634 62.799 158.699 63.0706C158.82 62.8155 158.95 62.6592 159.2 62.6592C159.499 62.6592 159.669 62.9142 159.669 63.3914V65.0863H159.314V63.4243C159.314 63.1528 159.241 63.013 159.087 63.013C158.942 63.013 158.861 63.1364 158.748 63.375V65.0863H158.416V63.4243C158.416 63.1528 158.352 63.013 158.198 63.013C158.052 63.013 157.955 63.1364 157.85 63.375V65.0863H157.495V62.7168H157.479Z" fill="black"/>
<path d="M160.157 63.9031C160.157 63.1297 160.674 62.6689 161.24 62.6689C161.854 62.6689 162.21 63.1132 162.21 63.7797C162.21 63.8702 162.202 63.9607 162.194 64.0265H160.391V63.7138H161.975L161.886 63.829C161.886 63.2696 161.636 62.9898 161.248 62.9898C160.86 62.9898 160.512 63.3189 160.512 63.9113C160.512 64.5037 160.868 64.8328 161.345 64.8328C161.595 64.8328 161.798 64.7423 161.992 64.6106L162.121 64.8739C161.911 65.0302 161.636 65.1536 161.296 65.1536C160.658 65.1536 160.148 64.6929 160.148 63.9031H160.157Z" fill="black"/>
<path d="M137.994 67.162H139.013C140.201 67.162 140.888 67.9272 140.888 69.367C140.888 70.8068 140.209 71.6131 139.045 71.6131H137.994V67.1538V67.162ZM138.972 71.0619C139.805 71.0619 140.249 70.4777 140.249 69.367C140.249 68.2563 139.805 67.7133 138.972 67.7133H138.608V71.0536H138.972V71.0619Z" fill="black"/>
<path d="M141.318 69.3673C141.318 67.9111 141.957 67.0801 142.879 67.0801C143.8 67.0801 144.439 67.9193 144.439 69.3673C144.439 70.8154 143.8 71.6957 142.879 71.6957C141.957 71.6957 141.318 70.84 141.318 69.3673ZM143.8 69.3673C143.8 68.2977 143.436 67.6725 142.879 67.6725C142.321 67.6725 141.957 68.2895 141.957 69.3673C141.957 70.4451 142.321 71.1033 142.879 71.1033C143.436 71.1033 143.8 70.4616 143.8 69.3673Z" fill="black"/>
<path d="M145.133 67.1626H147.655V67.7385H145.747V69.0056H147.364V69.5815H145.747V71.046H147.72V71.6219H145.133V67.1626Z" fill="black"/>
<path d="M137.867 78.1968H138.579C139.444 78.1968 139.912 78.7645 139.912 79.7765C139.912 80.7884 139.444 81.389 138.603 81.389H137.875V78.1968H137.867ZM138.546 81.0599C139.201 81.0599 139.524 80.591 139.524 79.7847C139.524 78.9784 139.201 78.5341 138.546 78.5341H138.231V81.0599H138.546Z" fill="black"/>
<path d="M140.328 80.7793C140.328 80.2445 140.773 79.9895 141.872 79.8907C141.856 79.5699 141.719 79.2983 141.306 79.2983C141.031 79.2983 140.757 79.4464 140.563 79.5781L140.417 79.3066C140.635 79.1502 140.991 78.9692 141.371 78.9692C141.953 78.9692 142.236 79.3559 142.236 79.9401V81.3881H141.937L141.904 81.0672H141.888C141.654 81.2729 141.347 81.4457 141.056 81.4457C140.66 81.4457 140.328 81.1989 140.328 80.7711V80.7793ZM141.88 80.7711V80.154C140.967 80.228 140.692 80.4337 140.692 80.7464C140.692 81.0179 140.91 81.1248 141.153 81.1248C141.395 81.1248 141.63 81.0014 141.872 80.7711H141.88Z" fill="black"/>
<path d="M143.356 80.476V79.357H142.75V79.0526L143.364 79.0279L143.413 78.271H143.712V79.0279H144.755V79.357H143.712V80.4842C143.712 80.912 143.841 81.1259 144.254 81.1259C144.448 81.1259 144.609 81.0848 144.763 81.019L144.844 81.3152C144.65 81.3892 144.448 81.455 144.181 81.455C143.558 81.455 143.356 81.0601 143.356 80.476Z" fill="black"/>
<path d="M145.194 80.2038C145.194 79.4305 145.711 78.9697 146.277 78.9697C146.891 78.9697 147.247 79.414 147.247 80.0804C147.247 80.1709 147.239 80.2614 147.231 80.3273H145.428V80.0146H147.012L146.924 80.1298C146.924 79.5703 146.673 79.2906 146.285 79.2906C145.897 79.2906 145.549 79.6197 145.549 80.2121C145.549 80.8045 145.905 81.1336 146.382 81.1336C146.633 81.1336 146.835 81.0431 147.029 80.9114L147.158 81.1747C146.948 81.331 146.673 81.4544 146.333 81.4544C145.695 81.4544 145.186 80.9937 145.186 80.2038H145.194Z" fill="black"/>
<path d="M150.068 80.213C150.068 79.4231 150.561 78.9624 151.119 78.9624C151.677 78.9624 152.17 79.4149 152.17 80.213C152.17 81.011 151.677 81.4471 151.119 81.4471C150.561 81.4471 150.068 80.9946 150.068 80.213ZM151.798 80.213C151.798 79.67 151.523 79.2997 151.119 79.2997C150.715 79.2997 150.44 79.6617 150.44 80.213C150.44 80.7642 150.715 81.1098 151.119 81.1098C151.523 81.1098 151.798 80.7478 151.798 80.213Z" fill="black"/>
<path d="M152.645 79.0529L153.259 79.0282H154.496V79.3573H152.637V79.0529H152.645ZM153.251 78.8308C153.251 78.2549 153.526 77.8682 154.108 77.8682C154.318 77.8682 154.52 77.9093 154.722 78.008L154.641 78.3124C154.464 78.2302 154.334 78.1973 154.148 78.1973C153.768 78.1973 153.615 78.4359 153.615 78.8143V81.3977H153.259V78.8308H153.251Z" fill="black"/>
<path d="M158.474 79.3553H157.488V79.0262H158.838V81.3957H158.474V79.3553ZM158.329 78.2199C158.329 78.0389 158.45 77.9072 158.62 77.9072C158.79 77.9072 158.911 78.0306 158.911 78.2199C158.911 78.4091 158.79 78.5325 158.62 78.5325C158.45 78.5325 158.329 78.4091 158.329 78.2199Z" fill="black"/>
<path d="M159.696 81.0837L159.865 80.8122C160.108 81.0097 160.399 81.1331 160.787 81.1331C161.143 81.1331 161.32 80.9685 161.32 80.7711C161.32 80.5901 161.24 80.4666 160.658 80.335C160.1 80.2116 159.825 79.9977 159.825 79.6439C159.825 79.2654 160.124 78.9692 160.706 78.9692C161.029 78.9692 161.353 79.1091 161.563 79.2737L161.385 79.5287C161.191 79.3806 160.94 79.2819 160.674 79.2819C160.318 79.2819 160.181 79.4464 160.181 79.6192C160.181 79.8249 160.367 79.9154 160.803 80.0141C161.506 80.1869 161.676 80.3761 161.676 80.7464C161.676 81.1331 161.337 81.4539 160.73 81.4539C160.318 81.4539 159.938 81.2812 159.688 81.0837H159.696Z" fill="black"/>
<path d="M162.203 81.0842L162.373 80.8127C162.616 81.0101 162.907 81.1336 163.295 81.1336C163.65 81.1336 163.828 80.969 163.828 80.7715C163.828 80.5905 163.747 80.4671 163.165 80.3355C162.608 80.2121 162.333 79.9982 162.333 79.6444C162.333 79.2659 162.632 78.9697 163.214 78.9697C163.537 78.9697 163.861 79.1096 164.071 79.2742L163.893 79.5292C163.699 79.3811 163.448 79.2824 163.182 79.2824C162.826 79.2824 162.688 79.4469 162.688 79.6197C162.688 79.8254 162.874 79.9159 163.311 80.0146C164.014 80.1874 164.184 80.3766 164.184 80.7469C164.184 81.1336 163.844 81.4544 163.238 81.4544C162.826 81.4544 162.446 81.2817 162.195 81.0842H162.203Z" fill="black"/>
<path d="M164.756 80.5015V79.0287H165.12V80.4439C165.12 80.8882 165.257 81.1021 165.613 81.1021C165.855 81.1021 166.041 80.9786 166.276 80.666V79.0205H166.639V81.39H166.34L166.308 80.9787H166.292C166.074 81.2584 165.831 81.4476 165.5 81.4476C164.998 81.4476 164.764 81.1185 164.764 80.4932L164.756 80.5015Z" fill="black"/>
<path d="M167.246 80.2038C167.246 79.4305 167.764 78.9697 168.33 78.9697C168.944 78.9697 169.3 79.414 169.3 80.0804C169.3 80.1709 169.292 80.2614 169.283 80.3273H167.481V80.0146H169.065L168.976 80.1298C168.976 79.5703 168.726 79.2906 168.338 79.2906C167.95 79.2906 167.602 79.6197 167.602 80.2121C167.602 80.8045 167.958 81.1336 168.435 81.1336C168.685 81.1336 168.887 81.0431 169.081 80.9114L169.211 81.1747C169.001 81.331 168.726 81.4544 168.386 81.4544C167.748 81.4544 167.238 80.9937 167.238 80.2038H167.246Z" fill="black"/>
<path d="M169.652 79.0298H170.024L170.517 80.3709C170.598 80.6095 170.679 80.8398 170.752 81.0702H170.768C170.841 80.8398 170.913 80.6095 171.002 80.3709L171.495 79.0298H171.843L170.962 81.3993H170.558L169.66 79.0298H169.652Z" fill="black"/>
<path d="M137.994 83.4711H139.013C140.201 83.4711 140.888 84.2363 140.888 85.6761C140.888 87.1159 140.209 87.9222 139.045 87.9222H137.994V83.4629V83.4711ZM138.972 87.3627C139.805 87.3627 140.249 86.7786 140.249 85.6678C140.249 84.5571 139.805 84.0141 138.972 84.0141H138.608V87.3545H138.972V87.3627Z" fill="black"/>
<path d="M141.506 83.4711H142.524C143.713 83.4711 144.4 84.2363 144.4 85.6761C144.4 87.1159 143.721 87.9222 142.557 87.9222H141.506V83.4629V83.4711ZM142.484 87.3627C143.317 87.3627 143.761 86.7786 143.761 85.6678C143.761 84.5571 143.317 84.0141 142.484 84.0141H142.12V87.3545H142.484V87.3627Z" fill="black"/>
<path d="M148.258 83.4707H148.969L149.487 85.289L149.664 85.9801H149.689L149.866 85.289L150.392 83.4707H151.103V87.93H150.546V85.9225C150.546 85.47 150.61 84.6226 150.643 84.2194H150.626L150.376 85.1738L149.866 86.7535H149.478L148.977 85.1738L148.735 84.2194H148.719C148.759 84.6226 148.816 85.47 148.816 85.9225V87.93H148.266V83.4707H148.258Z" fill="black"/>
<path d="M151.814 83.4707H152.526L153.043 85.289L153.221 85.9801H153.245L153.423 85.289L153.949 83.4707H154.66V87.93H154.102V85.9225C154.102 85.47 154.167 84.6226 154.199 84.2194H154.183L153.932 85.1738L153.423 86.7535H153.035L152.534 85.1738L152.291 84.2194H152.275C152.316 84.6226 152.372 85.47 152.372 85.9225V87.93H151.823V83.4707H151.814Z" fill="black"/>
<path d="M159.783 86.3507L158.449 83.4629H159.104L159.654 84.7135C159.799 85.059 159.929 85.3963 160.09 85.7501H160.114C160.26 85.3963 160.414 85.059 160.559 84.7135L161.093 83.4629H161.723L160.389 86.3507V87.9222H159.775V86.3507H159.783Z" fill="black"/>
<path d="M163.373 86.3507L162.039 83.4629H162.694L163.244 84.7135C163.389 85.059 163.518 85.3963 163.68 85.7501H163.704C163.85 85.3963 164.003 85.059 164.149 84.7135L164.682 83.4629H165.313L163.979 86.3507V87.9222H163.365V86.3507H163.373Z" fill="black"/>
<path d="M166.971 86.3507L165.637 83.4629H166.291L166.841 84.7135C166.987 85.059 167.116 85.3963 167.278 85.7501H167.302C167.447 85.3963 167.601 85.059 167.747 84.7135L168.28 83.4629H168.911L167.577 86.3507V87.9222H166.962V86.3507H166.971Z" fill="black"/>
<path d="M170.576 86.3507L169.242 83.4629H169.897L170.447 84.7135C170.592 85.059 170.722 85.3963 170.883 85.7501H170.907C171.053 85.3963 171.207 85.059 171.352 84.7135L171.886 83.4629H172.516L171.182 86.3507V87.9222H170.568V86.3507H170.576Z" fill="black"/>
<path d="M201.26 61.894H201.664L202.585 63.9015L202.86 64.5598H202.868C202.852 64.2471 202.82 63.8851 202.82 63.5478V61.894H203.168V65.0863H202.763L201.842 63.0788L201.567 62.4206H201.559C201.575 62.7497 201.607 63.087 201.607 63.4161V65.0863H201.26V61.894Z" fill="black"/>
<path d="M203.721 63.9093C203.721 63.1194 204.214 62.6587 204.772 62.6587C205.329 62.6587 205.822 63.1112 205.822 63.9093C205.822 64.7073 205.329 65.1434 204.772 65.1434C204.214 65.1434 203.721 64.6909 203.721 63.9093ZM205.451 63.9093C205.451 63.3663 205.176 62.996 204.772 62.996C204.367 62.996 204.093 63.358 204.093 63.9093C204.093 64.4605 204.367 64.8061 204.772 64.8061C205.176 64.8061 205.451 64.4441 205.451 63.9093Z" fill="black"/>
<path d="M201.325 71.2156C202.594 69.9815 203.322 69.2246 203.322 68.5335C203.322 68.0563 203.063 67.7436 202.53 67.7436C202.174 67.7436 201.875 67.9658 201.632 68.2373L201.293 67.8588C201.665 67.4474 202.045 67.1924 202.611 67.1924C203.403 67.1924 203.912 67.7107 203.912 68.4923C203.912 69.2739 203.193 70.0885 202.215 71.0675C202.457 71.0428 202.716 71.0264 202.934 71.0264H204.122V71.6023H201.333V71.2074L201.325 71.2156Z" fill="black"/>
<path d="M204.664 71.1012L204.955 70.6569C205.214 70.9119 205.529 71.1341 206.006 71.1341C206.523 71.1341 206.928 70.7885 206.928 70.2291C206.928 69.6696 206.572 69.3569 206.038 69.3569C205.731 69.3569 205.553 69.4392 205.278 69.6038L204.971 69.3899L205.092 67.2754H207.348V67.8595H205.626L205.529 69.0196C205.739 68.9209 205.925 68.8633 206.2 68.8633C206.936 68.8633 207.542 69.2829 207.542 70.2208C207.542 71.1588 206.839 71.7018 206.079 71.7018C205.384 71.7018 204.963 71.4138 204.664 71.1094V71.1012Z" fill="black"/>
<path d="M208.023 71.0856L208.323 70.6495C208.581 70.9128 208.937 71.1432 209.398 71.1432C209.899 71.1432 210.271 70.8717 210.271 70.4274C210.271 69.9502 209.915 69.6293 208.921 69.6293V69.1274C209.802 69.1274 210.141 68.8066 210.141 68.3788C210.141 67.9921 209.842 67.7535 209.406 67.7535C209.058 67.7535 208.743 67.9262 208.484 68.1731L208.169 67.7535C208.508 67.4326 208.937 67.2104 209.438 67.2104C210.206 67.2104 210.764 67.6218 210.764 68.3376C210.764 68.8395 210.432 69.1686 209.955 69.3496V69.3743C210.465 69.5059 210.901 69.8762 210.901 70.4603C210.901 71.2419 210.246 71.7027 209.454 71.7027C208.783 71.7027 208.331 71.4229 208.04 71.0856H208.023Z" fill="black"/>
<path d="M211.484 71.0606H212.592V68.0576H211.719V67.6215C212.196 67.5475 212.487 67.4487 212.745 67.2842H213.198V71.0606H214.176V71.6201H211.484V71.0606Z" fill="black"/>
<path d="M216.386 68.7492C216.386 68.5023 216.403 68.1815 216.419 67.9346H216.386C216.257 68.1568 216.112 68.3707 215.982 68.5928L215.053 69.9257H217.534V70.4605H214.414V70.008L216.273 67.2847H216.96V71.6206H216.386V68.7574V68.7492Z" fill="black"/>
<path d="M218.059 69.5944C218.059 67.8831 218.851 67.2002 219.7 67.2002C220.193 67.2002 220.565 67.4059 220.823 67.6774L220.492 68.097C220.298 67.8995 220.023 67.7597 219.74 67.7597C219.142 67.7597 218.616 68.2286 218.616 69.6026C218.616 70.6722 218.98 71.1823 219.562 71.1823C219.983 71.1823 220.322 70.845 220.322 70.2937C220.322 69.7425 220.047 69.4463 219.562 69.4463C219.271 69.4463 218.924 69.6026 218.616 70.0222L218.592 69.5286C218.907 69.1748 219.303 68.9526 219.683 68.9526C220.395 68.9526 220.896 69.3969 220.896 70.2937C220.896 71.1412 220.282 71.7006 219.57 71.7006C218.73 71.7006 218.059 71.026 218.059 69.5944Z" fill="black"/>
<path d="M221.453 70.5076C221.453 69.9235 221.85 69.5944 222.262 69.3722V69.3476C221.938 69.1172 221.672 68.7881 221.672 68.3356C221.672 67.6527 222.189 67.2002 222.908 67.2002C223.676 67.2002 224.137 67.6774 224.137 68.3685C224.137 68.7716 223.87 69.1337 223.555 69.3805V69.4052C223.976 69.6438 224.307 69.9235 224.307 70.5323C224.307 71.1905 223.798 71.7006 222.884 71.7006C221.971 71.7006 221.445 71.1987 221.445 70.5076H221.453ZM223.741 70.5076C223.741 69.9646 223.24 69.8083 222.593 69.5697C222.254 69.7836 222.003 70.0469 222.003 70.4418C222.003 70.8943 222.367 71.207 222.917 71.207C223.466 71.207 223.749 70.9355 223.749 70.5076H223.741ZM223.62 68.4014C223.62 68.0065 223.361 67.6938 222.892 67.6938C222.504 67.6938 222.221 67.9407 222.221 68.3356C222.221 68.8128 222.634 69.0185 223.183 69.2077C223.466 68.9691 223.62 68.6976 223.62 68.4014Z" fill="black"/>
<path d="M226.93 67.8595H224.764V67.2754H227.617V67.695C226.599 68.9785 226.372 69.9164 226.308 71.6113H225.677C225.75 70.0234 226.065 69.0525 226.938 67.8595H226.93Z" fill="black"/>
<path d="M228.141 71.0606H229.248V68.0576H228.375V67.6215C228.852 67.5475 229.143 67.4487 229.402 67.2842H229.854V71.0606H230.833V71.6201H228.141V71.0606Z" fill="black"/>
<path d="M231.422 71.2238L231.754 70.8042C231.94 71.0017 232.215 71.1333 232.506 71.1333C233.104 71.1333 233.629 70.6644 233.629 69.2904C233.629 68.2208 233.257 67.7189 232.683 67.7189C232.255 67.7189 231.915 68.048 231.915 68.5993C231.915 69.1505 232.19 69.4467 232.683 69.4467C232.974 69.4467 233.314 69.2904 233.629 68.8708L233.653 69.3644C233.346 69.7182 232.942 69.9404 232.562 69.9404C231.851 69.9404 231.35 69.4961 231.35 68.5993C231.35 67.7519 231.964 67.1924 232.675 67.1924C233.508 67.1924 234.195 67.867 234.195 69.2986C234.195 71.0099 233.403 71.6928 232.554 71.6928C232.061 71.6928 231.681 71.4871 231.422 71.2238Z" fill="black"/>
<path d="M236.788 67.8595H234.621V67.2754H237.475V67.695C236.456 68.9785 236.23 69.9164 236.165 71.6113H235.535C235.607 70.0234 235.923 69.0525 236.796 67.8595H236.788Z" fill="black"/>
<path d="M237.82 69.5944C237.82 67.8831 238.613 67.2002 239.461 67.2002C239.954 67.2002 240.326 67.4059 240.585 67.6774L240.254 68.097C240.059 67.8995 239.785 67.7597 239.502 67.7597C238.904 67.7597 238.378 68.2286 238.378 69.6026C238.378 70.6722 238.742 71.1823 239.324 71.1823C239.744 71.1823 240.084 70.845 240.084 70.2937C240.084 69.7425 239.809 69.4463 239.324 69.4463C239.033 69.4463 238.685 69.6026 238.378 70.0222L238.354 69.5286C238.669 69.1748 239.065 68.9526 239.445 68.9526C240.156 68.9526 240.658 69.3969 240.658 70.2937C240.658 71.1412 240.043 71.7006 239.332 71.7006C238.491 71.7006 237.82 71.026 237.82 69.5944Z" fill="black"/>
<path d="M202.005 78.1958H202.425L203.395 81.3881H202.999L202.506 79.6027C202.409 79.2489 202.312 78.8951 202.223 78.5249H202.207C202.118 78.8951 202.021 79.2489 201.924 79.6027L201.423 81.3881H201.043L202.013 78.1958H202.005ZM201.552 80.0964H202.87V80.4255H201.552V80.0964Z" fill="black"/>
<path d="M203.744 80.501V79.0283H204.108V80.4434C204.108 80.8877 204.245 81.1016 204.601 81.1016C204.844 81.1016 205.029 80.9782 205.264 80.6655V79.02H205.628V81.3895H205.329L205.296 80.9782H205.28C205.062 81.2579 204.819 81.4471 204.488 81.4471C203.987 81.4471 203.752 81.118 203.752 80.4927L203.744 80.501Z" fill="black"/>
<path d="M206.802 80.476V79.357H206.195V79.0526L206.81 79.0279L206.858 78.271H207.157V79.0279H208.2V79.357H207.157V80.4842C207.157 80.912 207.287 81.1259 207.699 81.1259C207.893 81.1259 208.055 81.0848 208.208 81.019L208.289 81.3152C208.095 81.3892 207.893 81.455 207.626 81.455C207.004 81.455 206.802 81.0601 206.802 80.476Z" fill="black"/>
<path d="M208.836 77.9253H209.2V78.8714L209.175 79.4309H209.192C209.41 79.1676 209.652 78.9702 209.984 78.9702C210.485 78.9702 210.719 79.2993 210.719 79.9246V81.3973H210.356V79.9822C210.356 79.5379 210.218 79.324 209.871 79.324C209.62 79.324 209.442 79.4638 209.2 79.7518V81.4055H208.836V77.9335V77.9253Z" fill="black"/>
<path d="M211.273 80.2125C211.273 79.4227 211.767 78.9619 212.324 78.9619C212.882 78.9619 213.375 79.4144 213.375 80.2125C213.375 81.0106 212.882 81.4466 212.324 81.4466C211.767 81.4466 211.273 80.9941 211.273 80.2125ZM213.003 80.2125C213.003 79.6695 212.729 79.2992 212.324 79.2992C211.92 79.2992 211.645 79.6613 211.645 80.2125C211.645 80.7637 211.92 81.1093 212.324 81.1093C212.729 81.1093 213.003 80.7473 213.003 80.2125Z" fill="black"/>
<path d="M214.094 79.0283H214.393L214.425 79.5878H214.433C214.66 79.2011 214.991 78.9707 215.387 78.9707C215.549 78.9707 215.678 78.9954 215.807 79.0694L215.727 79.415C215.581 79.3574 215.5 79.3409 215.331 79.3409C215.007 79.3409 214.708 79.5219 214.458 80.0156V81.3978H214.094V79.0283Z" fill="black"/>
<path d="M216.736 80.5992V78.2544H215.984V77.9253H217.1V80.6321C217.1 80.9777 217.27 81.1175 217.52 81.1175C217.642 81.1175 217.771 81.0846 217.916 81.0106L218.005 81.315C217.811 81.4055 217.666 81.4549 217.439 81.4549C216.987 81.4549 216.736 81.1587 216.736 80.5992Z" fill="black"/>
<path d="M218.701 79.0283H219.001L219.033 79.5878H219.041C219.267 79.2011 219.599 78.9707 219.987 78.9707C220.148 78.9707 220.278 78.9954 220.407 79.0694L220.326 79.415C220.181 79.3574 220.1 79.3409 219.93 79.3409C219.607 79.3409 219.308 79.5219 219.057 80.0156V81.3978H218.693V79.0283H218.701Z" fill="black"/>
<path d="M220.963 82.3619L221.036 82.041C221.093 82.0575 221.165 82.074 221.23 82.074C221.529 82.074 221.707 81.8683 221.812 81.5721L221.877 81.3993L220.891 79.0298H221.262L221.78 80.338C221.861 80.5436 221.958 80.7987 222.047 81.0208H222.063C222.136 80.7987 222.224 80.5519 222.289 80.338L222.75 79.0298H223.097L222.152 81.5885C221.998 82.0575 221.739 82.4113 221.246 82.4113C221.149 82.4113 221.044 82.3948 220.963 82.3619Z" fill="black"/>
<path d="M201.463 87.3643H202.57V84.3613H201.697V83.9252C202.174 83.8512 202.465 83.7524 202.724 83.5879H203.177V87.3643H204.155V87.9238H201.463V87.3643Z" fill="black"/>
<path d="M204.461 85.6764C204.461 84.2201 205.1 83.3892 206.021 83.3892C206.943 83.3892 207.581 84.2284 207.581 85.6764C207.581 87.1244 206.943 88.0048 206.021 88.0048C205.1 88.0048 204.461 87.1491 204.461 85.6764ZM206.943 85.6764C206.943 84.6068 206.579 83.9815 206.021 83.9815C205.463 83.9815 205.1 84.5986 205.1 85.6764C205.1 86.7542 205.463 87.4124 206.021 87.4124C206.579 87.4124 206.943 86.7707 206.943 85.6764Z" fill="black"/>
<path d="M208.004 85.6764C208.004 84.2201 208.643 83.3892 209.564 83.3892C210.486 83.3892 211.124 84.2284 211.124 85.6764C211.124 87.1244 210.486 88.0048 209.564 88.0048C208.643 88.0048 208.004 87.1491 208.004 85.6764ZM210.486 85.6764C210.486 84.6068 210.122 83.9815 209.564 83.9815C209.006 83.9815 208.643 84.5986 208.643 85.6764C208.643 86.7542 209.006 87.4124 209.564 87.4124C210.122 87.4124 210.486 86.7707 210.486 85.6764Z" fill="black"/>
<path d="M211.539 85.6764C211.539 84.2201 212.178 83.3892 213.099 83.3892C214.021 83.3892 214.659 84.2284 214.659 85.6764C214.659 87.1244 214.021 88.0048 213.099 88.0048C212.178 88.0048 211.539 87.1491 211.539 85.6764ZM214.021 85.6764C214.021 84.6068 213.657 83.9815 213.099 83.9815C212.541 83.9815 212.178 84.5986 212.178 85.6764C212.178 86.7542 212.541 87.4124 213.099 87.4124C213.657 87.4124 214.021 86.7707 214.021 85.6764Z" fill="black"/>
<path d="M215.092 85.6764C215.092 84.2201 215.73 83.3892 216.652 83.3892C217.574 83.3892 218.212 84.2284 218.212 85.6764C218.212 87.1244 217.574 88.0048 216.652 88.0048C215.73 88.0048 215.092 87.1491 215.092 85.6764ZM217.574 85.6764C217.574 84.6068 217.21 83.9815 216.652 83.9815C216.094 83.9815 215.73 84.5986 215.73 85.6764C215.73 86.7542 216.094 87.4124 216.652 87.4124C217.21 87.4124 217.574 86.7707 217.574 85.6764Z" fill="black"/>
<path d="M215.204 98.613C214.404 99.4607 213.571 100.712 212.706 102.349C212.084 103.51 210.831 105.97 209.052 108.455C210.022 108.752 210.952 109.188 211.857 109.78L211.695 110.077C210.774 109.492 209.82 109.04 208.842 108.752C206.433 112.019 203.135 115.212 199.255 115.212C197.703 115.212 196.789 114.611 196.789 113.525C196.789 111.41 200.645 107.953 205.843 107.953C206.821 107.953 207.775 108.093 208.721 108.348C210.507 105.871 211.784 103.361 212.423 102.176C213.239 100.637 214.024 99.436 214.8 98.5636C214.161 98.4649 213.514 98.2509 212.811 98.0205C211.792 97.6831 210.653 97.2963 209.319 97.1893C202.108 96.5392 200.386 101.526 205.851 101.526C207.16 101.526 209.133 100.761 209.804 100.119L210.014 100.391C209.214 101.123 207.12 101.872 205.851 101.872C199.829 101.872 201.761 96.1524 209.343 96.8355C210.717 96.9589 211.881 97.3375 212.908 97.6831C213.708 97.9382 214.404 98.1851 215.074 98.2592C216.15 97.1729 217.184 96.7449 218.162 97.0577L218.227 97.3539C217.184 98.4155 216.222 98.7035 215.204 98.6213V98.613ZM208.502 108.637C207.629 108.423 206.748 108.299 205.843 108.299C200.758 108.299 197.112 111.566 197.112 113.517C197.112 114.372 197.856 114.85 199.255 114.85C202.965 114.85 206.15 111.821 208.502 108.637ZM215.543 98.2674C216.287 98.2674 217.015 98.0123 217.783 97.3128C217.071 97.214 216.327 97.5432 215.543 98.2674Z" fill="black"/>
<path d="M228.572 108.545C227.327 109.195 225.743 109.87 224.247 109.87C223.172 109.87 222.598 109.557 222.598 108.891C222.598 108.455 222.857 107.978 223.035 107.648C223.083 107.55 223.124 107.5 223.148 107.443C222.558 107.632 221.038 108.981 221.038 108.981L220.844 108.71C220.844 108.71 220.868 108.693 220.893 108.652C221.135 108.397 221.628 107.509 221.766 107.13C220.432 107.665 219.462 107.797 218.079 107.632C217.611 107.574 217.004 107.443 216.398 107.303C215.856 107.18 215.444 107.097 215.137 107.04C215.379 107.813 214.28 109.656 213.213 109.656C212.922 109.656 212.744 109.442 212.744 109.08C212.744 108.586 213.124 107.895 213.593 107.542L213.763 107.838C213.383 108.126 213.067 108.693 213.067 109.08C213.067 109.245 213.1 109.302 213.213 109.302C214.24 109.302 215.331 107.056 214.62 107.056C214.571 107.056 214.506 107.056 214.45 107.073C214.434 107.089 214.426 107.089 214.401 107.089C214.183 107.147 214.021 107.023 214.143 106.818C214.337 106.488 215.097 106.653 216.471 106.957C217.061 107.097 217.659 107.229 218.112 107.286C219.494 107.451 220.44 107.311 221.798 106.752C221.96 106.686 222.113 106.793 222.113 106.999C222.113 107.188 221.919 107.599 221.693 108.002C222.259 107.55 222.954 107.064 223.261 107.064C223.261 107.064 223.52 107.245 223.52 107.311C223.52 107.418 223.431 107.583 223.302 107.829C223.116 108.159 222.905 108.554 222.905 108.891C222.905 109.302 223.334 109.516 224.239 109.516C225.67 109.516 227.19 108.874 228.427 108.224L228.564 108.554L228.572 108.545Z" fill="black"/>
<path d="M234.518 108.545C233.063 109.36 230.784 110.388 229.377 110.059C228.472 109.853 228.076 109.121 228.116 108.414V108.389C228.181 107.665 228.706 106.982 229.644 106.982C230.016 106.982 230.291 107.253 230.291 107.624C230.291 108.619 229.167 109.22 228.536 109.014C228.682 109.343 228.973 109.615 229.434 109.705C230.743 110.001 232.926 109.039 234.381 108.224L234.518 108.553V108.545ZM228.431 108.405C228.472 109.031 229.975 108.578 229.975 107.615C229.975 107.451 229.838 107.327 229.644 107.327C228.9 107.327 228.48 107.846 228.431 108.405Z" fill="black"/>
<path d="M137.783 97.2906L138.001 97.0109C138.22 97.2495 138.519 97.4058 138.842 97.4058C139.238 97.4058 139.465 97.2001 139.465 96.9039C139.465 96.5584 139.238 96.4679 138.955 96.328L138.543 96.1223C138.26 95.9989 137.929 95.7685 137.929 95.2996C137.929 94.8306 138.325 94.4521 138.866 94.4521C139.222 94.4521 139.537 94.6167 139.748 94.8471L139.554 95.1103C139.368 94.9211 139.149 94.8142 138.85 94.8142C138.519 94.8142 138.292 94.9869 138.292 95.2749C138.292 95.5793 138.559 95.6945 138.802 95.8015L139.206 95.9989C139.562 96.1552 139.845 96.3774 139.845 96.8546C139.845 97.3647 139.457 97.7678 138.826 97.7678C138.406 97.7678 138.042 97.5786 137.783 97.2989V97.2906Z" fill="black"/>
<path d="M140.315 96.5178C140.315 95.7444 140.832 95.2837 141.398 95.2837C142.012 95.2837 142.368 95.728 142.368 96.3944C142.368 96.4849 142.36 96.5754 142.352 96.6412H140.549V96.3286H142.134L142.045 96.4438C142.045 95.8843 141.794 95.6046 141.406 95.6046C141.018 95.6046 140.67 95.9337 140.67 96.526C140.67 97.1184 141.026 97.4475 141.503 97.4475C141.754 97.4475 141.956 97.357 142.15 97.2254L142.279 97.4886C142.069 97.645 141.794 97.7684 141.455 97.7684C140.816 97.7684 140.307 97.3077 140.307 96.5178H140.315Z" fill="black"/>
<path d="M143.582 96.4757L142.838 95.3403H143.234L143.574 95.8587C143.646 95.9903 143.735 96.1302 143.824 96.2618H143.84C143.921 96.1384 144.01 95.9903 144.083 95.8587L144.398 95.3486H144.786L144.035 96.5251L144.851 97.7181H144.447L144.075 97.1751C143.986 97.0434 143.889 96.8789 143.792 96.7472H143.776C143.687 96.8871 143.598 97.027 143.509 97.1833L143.161 97.7263H142.773L143.582 96.5004V96.4757Z" fill="black"/>
<path d="M138.26 99.7754H140.774V100.351H138.874V101.734H140.483V102.309H138.874V104.235H138.26V99.7754Z" fill="black"/>
<path d="M194.244 16.3071H196.726V16.7926H194.754V18.1912H196.419V18.6766H194.754V20.2975H196.783V20.7829H194.236V16.3236L194.244 16.3071Z" fill="black"/>
<path d="M197.639 19.0842V16.3115H198.156V19.1006C198.156 20.0221 198.52 20.3512 198.997 20.3512C199.474 20.3512 199.846 20.0139 199.846 19.1006V16.3115H200.339V19.0842C200.339 20.3594 199.773 20.8531 198.989 20.8531C198.205 20.8531 197.631 20.3594 197.631 19.0842H197.639Z" fill="black"/>
<path d="M201.461 16.3115H202.714C203.53 16.3115 204.12 16.6406 204.12 17.5703C204.12 18.5 203.53 18.8867 202.714 18.8867H201.978V20.7708H201.461V16.3115ZM202.641 18.426C203.264 18.426 203.611 18.138 203.611 17.5703C203.611 17.0026 203.272 16.7723 202.641 16.7723H201.978V18.426H202.641ZM203.013 18.4342L204.234 20.7708H203.652L202.609 18.7304L203.013 18.4342Z" fill="black"/>
<path d="M204.865 18.5245C204.865 17.0847 205.504 16.229 206.409 16.229C207.315 16.229 207.953 17.0764 207.953 18.5245C207.953 19.9725 207.315 20.8611 206.409 20.8611C205.504 20.8611 204.865 19.989 204.865 18.5245ZM207.412 18.5245C207.412 17.3973 207.007 16.7391 206.401 16.7391C205.795 16.7391 205.391 17.4055 205.391 18.5245C205.391 19.6434 205.795 20.351 206.401 20.351C207.007 20.351 207.412 19.6681 207.412 18.5245Z" fill="black"/>
<path d="M208.906 16.3115H210.119C211.008 16.3115 211.606 16.6406 211.606 17.6279C211.606 18.6152 211 19.0101 210.119 19.0101H209.424V20.779H208.906V16.3197V16.3115ZM210.054 18.5412C210.749 18.5412 211.089 18.2532 211.089 17.6197C211.089 16.9862 210.749 16.7723 210.054 16.7723H209.416V18.5412H210.054Z" fill="black"/>
<path d="M212.551 16.3115H215.033V16.7969H213.06V18.1956H214.726V18.681H213.06V20.3018H215.089V20.7873H212.543V16.328L212.551 16.3115Z" fill="black"/>
<path d="M217.178 16.3115H217.768L219.118 20.7708H218.569L217.873 18.2779C217.736 17.7842 217.598 17.2906 217.477 16.7723H217.453C217.324 17.2906 217.194 17.776 217.057 18.2779L216.354 20.7708H215.828L217.178 16.3115ZM216.539 18.9608H218.383V19.4215H216.539V18.9608Z" fill="black"/>
<path d="M219.879 16.3115H220.445L221.73 19.1171L222.118 20.0386H222.134C222.118 19.5943 222.07 19.0924 222.07 18.6234V16.3115H222.563V20.7708H221.997L220.712 17.9652L220.324 17.0438H220.307C220.324 17.4963 220.372 17.9735 220.372 18.4424V20.779H219.879V16.3197V16.3115Z" fill="black"/>
<path d="M227.196 19.0842V16.3115H227.713V19.1006C227.713 20.0221 228.077 20.3512 228.554 20.3512C229.031 20.3512 229.402 20.0139 229.402 19.1006V16.3115H229.896V19.0842C229.896 20.3594 229.33 20.8531 228.546 20.8531C227.761 20.8531 227.188 20.3594 227.188 19.0842H227.196Z" fill="black"/>
<path d="M230.957 16.3115H231.523L232.808 19.1171L233.196 20.0386H233.204C233.188 19.5943 233.14 19.0924 233.14 18.6234V16.3115H233.633V20.7708H233.067L231.782 17.9652L231.394 17.0438H231.385C231.402 17.4963 231.45 17.9735 231.45 18.4424V20.779H230.957V16.3197V16.3115Z" fill="black"/>
<path d="M234.594 20.2936H235.588V16.7969H234.594V16.3115H237.1V16.7969H236.105V20.2936H237.1V20.779H234.594V20.2936Z" fill="black"/>
<path d="M237.787 18.5245C237.787 17.0847 238.426 16.229 239.331 16.229C240.236 16.229 240.875 17.0764 240.875 18.5245C240.875 19.9725 240.236 20.8611 239.331 20.8611C238.426 20.8611 237.787 19.989 237.787 18.5245ZM240.342 18.5245C240.342 17.3973 239.937 16.7391 239.331 16.7391C238.725 16.7391 238.321 17.4055 238.321 18.5245C238.321 19.6434 238.725 20.351 239.331 20.351C239.937 20.351 240.342 19.6681 240.342 18.5245Z" fill="black"/>
<path d="M241.768 16.3115H242.333L243.619 19.1171L244.007 20.0386H244.023C244.007 19.5943 243.958 19.0924 243.958 18.6234V16.3115H244.451V20.7708H243.886L242.6 17.9652L242.212 17.0438H242.196C242.212 17.4963 242.261 17.9735 242.261 18.4424V20.779H241.768V16.3197V16.3115Z" fill="black"/>
<path d="M87.7296 23.5601H77.5764C77.2207 23.5601 76.9297 23.8562 76.9297 24.2183V26.7852H80.2925C80.3976 25.5511 81.4162 24.5803 82.653 24.5803C83.8898 24.5803 84.9083 25.5511 85.0134 26.7852H88.3763V24.2183C88.3763 23.8562 88.0853 23.5601 87.7296 23.5601Z" fill="black"/>
<path d="M82.653 29.5839C81.4162 29.5839 80.3976 28.613 80.2925 27.3789H76.9297V29.9459C76.9297 30.3079 77.2207 30.6041 77.5764 30.6041H87.7296C88.0853 30.6041 88.3763 30.3079 88.3763 29.9459V27.3789H85.0134C84.9083 28.613 83.8898 29.5839 82.653 29.5839Z" fill="black"/>
<path d="M82.6562 28.8677C83.5535 28.8677 84.2972 28.1684 84.3862 27.2798C84.3862 27.214 84.4023 27.1564 84.4023 27.0906C84.4023 27.0248 84.3862 26.9672 84.3862 26.9014C84.2892 26.0128 83.5535 25.3135 82.6562 25.3135C81.759 25.3135 81.0152 26.0128 80.9263 26.9014C80.9263 26.9672 80.9102 27.0248 80.9102 27.0906C80.9102 27.1564 80.9263 27.214 80.9263 27.2798C81.0233 28.1684 81.759 28.8677 82.6562 28.8677Z" fill="black"/>
<mask id="mask1_99_5" style="mask-type:luminance" maskUnits="userSpaceOnUse" x="76" y="36" width="52" height="69">
<path d="M127.607 36.1367H76.9297V104.927H127.607V36.1367Z" fill="white"/>
</mask>
<g mask="url(#mask1_99_5)">
<path d="M66.3633 110.217C69.4109 99.1897 78.1575 101.321 92.5061 92.9189V88.6395C89.3211 86.327 88.6502 82.1712 87.5104 77.7766H87.3891C86.9364 77.7766 85.9179 74.5507 85.6915 73.6125C85.3439 72.2217 84.2203 69.5636 85.2388 68.288C86.1442 67.4815 86.7101 68.4115 86.7101 68.4115C85.4652 61.3588 83.6463 52.1088 93.2902 49.2203C93.2902 43.2128 115.876 45.8709 118.487 55.7051C119.732 59.5154 118.14 68.3045 118.14 68.3045C118.487 67.7202 118.932 67.498 119.385 67.9671C120.629 68.7736 119.263 72.4768 118.932 73.629C118.706 74.6659 117.695 77.7931 117.234 77.7931C116.216 81.7268 115.189 86.0061 112.247 88.0882V92.9271C126.272 101.148 134.954 99.8399 138.179 109.905" fill="#B3BCBE"/>
</g>
<rect width="323" height="147.259" fill="#DD5C45" fill-opacity="0.4"/>
<rect x="114.5" y="31.9629" width="94" height="31.3333" stroke="white" stroke-width="1.69369"/>
<path d="M149.921 59.3996C144.941 59.3996 141.511 55.665 141.511 49.5677C141.511 43.445 144.941 39.8883 149.921 39.8883C154.9 39.8883 158.33 43.4704 158.33 49.5677C158.33 55.665 154.9 59.3996 149.921 59.3996ZM149.921 56.1477C152.715 56.1477 154.494 53.5818 154.494 49.5677C154.494 45.5283 152.715 43.1148 149.921 43.1148C147.126 43.1148 145.348 45.5283 145.348 49.5677C145.348 53.5818 147.126 56.1477 149.921 56.1477ZM167.758 59.0439V40.2185H171.518V48.3991H171.594L177.818 40.2185H181.959L176.218 47.6369L182.975 59.0439H178.86L173.982 50.5839L171.518 53.7596V59.0439H167.758Z" fill="white"/>
<path d="M137.715 89.2964L134.551 78.9364H136.721L138.093 83.9764C138.415 85.1244 138.625 86.1604 138.961 87.3224H139.031C139.353 86.1604 139.591 85.1244 139.913 83.9764L141.257 78.9364H143.357L140.179 89.2964H137.715ZM147.51 89.4924C145.326 89.4924 143.618 87.9664 143.618 85.3904C143.618 82.8424 145.396 81.2604 147.272 81.2604C149.428 81.2604 150.548 82.8424 150.548 85.0124C150.548 85.3904 150.506 85.7684 150.45 85.9504H145.62C145.788 87.2384 146.628 87.9104 147.79 87.9104C148.434 87.9104 148.994 87.7144 149.554 87.3644L150.254 88.6244C149.484 89.1564 148.49 89.4924 147.51 89.4924ZM145.592 84.5924H148.784C148.784 83.5284 148.308 82.8564 147.3 82.8564C146.474 82.8564 145.746 83.4444 145.592 84.5924ZM152.243 89.2964V81.4564H153.923L154.063 82.8424H154.119C154.693 81.8204 155.533 81.2604 156.345 81.2604C156.779 81.2604 157.031 81.3304 157.269 81.4284L156.905 83.2064C156.639 83.1224 156.415 83.0804 156.093 83.0804C155.477 83.0804 154.735 83.4864 154.287 84.6204V89.2964H152.243ZM158.34 89.2964V81.4564H160.384V89.2964H158.34ZM159.376 80.1964C158.662 80.1964 158.144 79.7204 158.144 79.0764C158.144 78.4044 158.662 77.9564 159.376 77.9564C160.076 77.9564 160.594 78.4044 160.594 79.0764C160.594 79.7204 160.076 80.1964 159.376 80.1964ZM162.942 81.4704V80.8264C162.942 79.1884 163.698 77.9284 165.672 77.9284C166.274 77.9284 166.806 78.0684 167.156 78.2084L166.778 79.7204C166.512 79.6224 166.204 79.5524 165.952 79.5524C165.336 79.5524 165 79.9164 165 80.7844V81.4564H166.47V83.0804H165V89.2964H162.942V83.0804H161.892V81.5544L162.942 81.4704ZM169.102 80.1964C168.402 80.1964 167.884 79.7204 167.884 79.0764C167.884 78.4044 168.402 77.9564 169.102 77.9564C169.816 77.9564 170.348 78.4044 170.348 79.0764C170.348 79.7204 169.816 80.1964 169.102 80.1964ZM168.08 89.2964V81.4564H170.124V89.2964H168.08ZM175.742 89.4924C173.558 89.4924 171.85 87.9664 171.85 85.3904C171.85 82.8424 173.628 81.2604 175.504 81.2604C177.66 81.2604 178.78 82.8424 178.78 85.0124C178.78 85.3904 178.738 85.7684 178.682 85.9504H173.852C174.02 87.2384 174.86 87.9104 176.022 87.9104C176.666 87.9104 177.226 87.7144 177.786 87.3644L178.486 88.6244C177.716 89.1564 176.722 89.4924 175.742 89.4924ZM173.824 84.5924H177.016C177.016 83.5284 176.54 82.8564 175.532 82.8564C174.706 82.8564 173.978 83.4444 173.824 84.5924ZM183.233 89.4924C181.287 89.4924 180.027 87.9524 180.027 85.3904C180.027 82.8284 181.623 81.2604 183.317 81.2604C184.199 81.2604 184.745 81.5964 185.305 82.1144L185.221 80.8824V78.1244H187.279V89.2964H185.613L185.445 88.4844H185.403C184.829 89.0444 184.045 89.4924 183.233 89.4924ZM183.765 87.7984C184.311 87.7984 184.773 87.5744 185.221 86.9864V83.5424C184.745 83.1084 184.255 82.9544 183.765 82.9544C182.883 82.9544 182.141 83.7944 182.141 85.3624C182.141 86.9864 182.729 87.7984 183.765 87.7984ZM145.876 109.47H150.454C151.896 109.47 152.12 109.106 152.33 107.076C152.764 107.342 153.52 107.622 154.01 107.72C153.688 110.352 153.072 111.122 150.524 111.122H145.89C143.188 111.122 142.362 110.59 142.362 108.476V101.952H144.084V103.856H150.44V100.874H141.802V99.2224H152.176V106.152H150.44V105.494H144.084V108.476C144.084 109.344 144.336 109.47 145.876 109.47ZM158.994 104.906H160.436C160.436 104.906 160.422 105.312 160.408 105.494C160.24 109.008 160.058 110.38 159.624 110.856C159.33 111.22 159.022 111.332 158.56 111.388C158.182 111.444 157.524 111.43 156.852 111.416C156.838 110.996 156.67 110.436 156.432 110.058C157.062 110.128 157.636 110.142 157.902 110.142C158.126 110.142 158.266 110.114 158.392 109.96C158.672 109.652 158.854 108.392 158.994 105.144V104.906ZM154.766 107.958C155.718 107.79 157.048 107.496 158.392 107.202L158.532 108.434C157.328 108.728 156.082 109.022 155.046 109.26L154.766 107.958ZM155.13 98.9284H158.812V100.328H155.13V98.9284ZM158.378 98.9284H159.778C159.68 100.986 159.484 103.646 159.316 105.214H157.916C158.126 103.576 158.322 100.93 158.378 98.9284ZM155.69 101.266L157.104 101.336C157.02 102.932 156.866 104.976 156.726 106.222H155.312C155.48 104.934 155.62 102.848 155.69 101.266ZM155.788 104.92H159.162V106.222H155.788V104.92ZM164.23 98.7884C165.098 100.02 166.778 101.532 168.262 102.316C167.996 102.736 167.66 103.506 167.52 103.982C165.868 102.89 164.076 101.098 162.998 99.6004L164.23 98.7884ZM163.628 98.2424L165.084 98.7464C164.02 100.86 162.27 102.806 160.492 104.01C160.324 103.674 159.834 102.974 159.54 102.638C161.178 101.658 162.746 100.034 163.628 98.2424ZM161.906 102.694H166.232V104.108H161.906V102.694ZM160.94 105.41L162.228 105.088C162.564 106.124 162.914 107.468 163.04 108.364L161.682 108.742C161.598 107.846 161.262 106.46 160.94 105.41ZM163.376 105.032L164.65 104.85C164.916 105.9 165.154 107.244 165.252 108.14L163.894 108.35C163.838 107.454 163.6 106.068 163.376 105.032ZM166.414 104.92L167.926 105.242C167.338 106.908 166.568 108.868 165.924 110.1L164.706 109.764C165.322 108.49 166.05 106.432 166.414 104.92ZM160.59 109.512H167.884V110.94H160.59V109.512ZM177.502 99.7404H179.238V110.254H177.502V99.7404ZM174.506 103.1H176.158V110.38H174.506V103.1ZM178.104 103.996H181.534V105.564H178.104V103.996ZM173.834 99.2924H181.8V100.846H173.834V99.2924ZM173.47 109.456H182.08V111.024H173.47V109.456ZM169.634 99.6424L170.712 98.6344C171.482 99.2504 172.504 100.146 172.994 100.748L171.846 101.91C171.398 101.28 170.39 100.328 169.634 99.6424ZM170.838 111.304L170.418 109.736L170.712 109.19L173.442 106.866C173.596 107.328 173.904 108.014 174.114 108.35C171.566 110.548 171.09 110.968 170.838 111.304ZM169.046 102.722H171.608V104.332H169.046V102.722ZM170.838 111.304C170.656 110.996 170.11 110.45 169.83 110.226C170.18 109.918 170.698 109.246 170.698 108.378V102.722H172.336V109.176C172.336 109.176 170.838 110.674 170.838 111.304Z" fill="white"/>
</svg>
