<svg width="24" height="24" viewBox="0 0 24 24" fill="none" xmlns="http://www.w3.org/2000/svg">
<path d="M20.9685 16.9487C20.916 16.7913 20.5907 16.5708 19.9924 16.2665C19.835 16.172 19.6041 16.0461 19.2997 15.8781C19.0058 15.7207 18.7329 15.5633 18.4915 15.4268C18.2501 15.2904 18.0192 15.1539 17.8093 15.028C17.7778 15.007 17.6729 14.923 17.4945 14.8076C17.316 14.6816 17.1691 14.5977 17.0431 14.5347C16.9172 14.4717 16.8018 14.4402 16.6758 14.4402C16.5079 14.4402 16.2875 14.5662 16.0356 14.8076C15.7837 15.049 15.5423 15.3114 15.3324 15.6052C15.1224 15.8886 14.8915 16.151 14.6501 16.3924C14.4087 16.6338 14.2198 16.7598 14.0624 16.7598C13.9889 16.7598 13.8945 16.7388 13.779 16.6968C13.6636 16.6548 13.5796 16.6128 13.5166 16.5918C13.4536 16.5603 13.3592 16.4974 13.2122 16.4134C13.0653 16.319 12.9813 16.277 12.9708 16.2665C11.8058 15.6157 10.7983 14.8811 9.9691 14.0414C9.12945 13.2017 8.39475 12.2047 7.74402 11.0397C7.74402 11.0187 7.69155 10.9452 7.59708 10.7983C7.50262 10.6513 7.45015 10.5464 7.41866 10.4939C7.38717 10.4309 7.35569 10.3469 7.3137 10.2315C7.27172 10.116 7.25073 10.0216 7.25073 9.94811C7.25073 9.79067 7.37668 9.60175 7.61808 9.36035C7.85948 9.11895 8.12187 8.89854 8.40525 8.67813C8.68863 8.46822 8.95102 8.22682 9.19242 7.97493C9.43382 7.72303 9.55977 7.50262 9.55977 7.33469C9.55977 7.21924 9.52828 7.09329 9.46531 6.96735C9.40233 6.8414 9.31837 6.69446 9.19242 6.51603C9.06647 6.33761 8.993 6.23265 8.97201 6.20117C8.84606 5.99125 8.70962 5.76035 8.57318 5.51895C8.43674 5.27755 8.2898 5.00466 8.12187 4.71079C7.96443 4.41691 7.82799 4.18601 7.73353 4.01808C7.43965 3.41983 7.20875 3.09446 7.05131 3.04198C6.98834 3.02099 6.90437 3 6.77843 3C6.54752 3 6.24315 3.04198 5.8758 3.12595C5.50845 3.20991 5.21458 3.30437 5.00466 3.39883C4.57434 3.57726 4.12303 4.10204 3.65073 4.96268C3.22041 5.76035 3 6.55802 3 7.33469C3 7.5656 3.0105 7.78601 3.04198 8.00641C3.07347 8.22682 3.12595 8.46822 3.19942 8.74111C3.27289 9.01399 3.33586 9.21341 3.38834 9.34985C3.43032 9.4863 3.52478 9.7172 3.65073 10.0636C3.77668 10.3994 3.85015 10.6093 3.88163 10.6933C4.17551 11.5329 4.53236 12.2781 4.94169 12.9289C5.61341 14.0204 6.53703 15.1434 7.69155 16.3085C8.85656 17.4735 9.97959 18.3866 11.0711 19.0583C11.7324 19.4676 12.4776 19.8245 13.3067 20.1184C13.3802 20.1394 13.5901 20.2233 13.9364 20.3493C14.2723 20.4752 14.5137 20.5592 14.6501 20.6117C14.7866 20.6536 14.986 20.7166 15.2589 20.8006C15.5318 20.8741 15.7732 20.9265 15.9936 20.958C16.214 20.9895 16.4344 21 16.6653 21C17.4525 21 18.2397 20.7796 19.0373 20.3493C19.898 19.877 20.4122 19.4257 20.6012 18.9953C20.6956 18.7854 20.7796 18.4915 20.8741 18.1242C20.958 17.7569 21 17.4525 21 17.2216C21 17.1061 20.9895 17.0117 20.958 16.9487H20.9685Z" fill="white"/>
</svg>
