<svg width="25" height="24" viewBox="0 0 25 24" fill="none" xmlns="http://www.w3.org/2000/svg">
<path d="M21.4685 16.9487C21.416 16.7913 21.0907 16.5708 20.4924 16.2665C20.335 16.172 20.1041 16.0461 19.7997 15.8781C19.5058 15.7207 19.2329 15.5633 18.9915 15.4268C18.7501 15.2904 18.5192 15.1539 18.3093 15.028C18.2778 15.007 18.1729 14.923 17.9945 14.8076C17.816 14.6816 17.6691 14.5977 17.5431 14.5347C17.4172 14.4717 17.3018 14.4402 17.1758 14.4402C17.0079 14.4402 16.7875 14.5662 16.5356 14.8076C16.2837 15.049 16.0423 15.3114 15.8324 15.6052C15.6224 15.8886 15.3915 16.151 15.1501 16.3924C14.9087 16.6338 14.7198 16.7598 14.5624 16.7598C14.4889 16.7598 14.3945 16.7388 14.279 16.6968C14.1636 16.6548 14.0796 16.6128 14.0166 16.5918C13.9536 16.5603 13.8592 16.4974 13.7122 16.4134C13.5653 16.319 13.4813 16.277 13.4708 16.2665C12.3058 15.6157 11.2983 14.8811 10.4691 14.0414C9.62945 13.2017 8.89475 12.2047 8.24402 11.0397C8.24402 11.0187 8.19155 10.9452 8.09708 10.7983C8.00262 10.6513 7.95015 10.5464 7.91866 10.4939C7.88717 10.4309 7.85569 10.3469 7.8137 10.2315C7.77172 10.116 7.75073 10.0216 7.75073 9.94811C7.75073 9.79067 7.87668 9.60175 8.11808 9.36035C8.35948 9.11895 8.62187 8.89854 8.90525 8.67813C9.18863 8.46822 9.45102 8.22682 9.69242 7.97493C9.93382 7.72303 10.0598 7.50262 10.0598 7.33469C10.0598 7.21924 10.0283 7.09329 9.96531 6.96735C9.90233 6.8414 9.81837 6.69446 9.69242 6.51603C9.56647 6.33761 9.493 6.23265 9.47201 6.20117C9.34606 5.99125 9.20962 5.76035 9.07318 5.51895C8.93674 5.27755 8.7898 5.00466 8.62187 4.71079C8.46443 4.41691 8.32799 4.18601 8.23353 4.01808C7.93965 3.41983 7.70875 3.09446 7.55131 3.04198C7.48834 3.02099 7.40437 3 7.27843 3C7.04752 3 6.74315 3.04198 6.3758 3.12595C6.00845 3.20991 5.71458 3.30437 5.50466 3.39883C5.07434 3.57726 4.62303 4.10204 4.15073 4.96268C3.72041 5.76035 3.5 6.55802 3.5 7.33469C3.5 7.5656 3.5105 7.78601 3.54198 8.00641C3.57347 8.22682 3.62595 8.46822 3.69942 8.74111C3.77289 9.01399 3.83586 9.21341 3.88834 9.34985C3.93032 9.4863 4.02478 9.7172 4.15073 10.0636C4.27668 10.3994 4.35015 10.6093 4.38163 10.6933C4.67551 11.5329 5.03236 12.2781 5.44169 12.9289C6.11341 14.0204 7.03703 15.1434 8.19155 16.3085C9.35656 17.4735 10.4796 18.3866 11.5711 19.0583C12.2324 19.4676 12.9776 19.8245 13.8067 20.1184C13.8802 20.1394 14.0901 20.2233 14.4364 20.3493C14.7723 20.4752 15.0137 20.5592 15.1501 20.6117C15.2866 20.6536 15.486 20.7166 15.7589 20.8006C16.0318 20.8741 16.2732 20.9265 16.4936 20.958C16.714 20.9895 16.9344 21 17.1653 21C17.9525 21 18.7397 20.7796 19.5373 20.3493C20.398 19.877 20.9122 19.4257 21.1012 18.9953C21.1956 18.7854 21.2796 18.4915 21.3741 18.1242C21.458 17.7569 21.5 17.4525 21.5 17.2216C21.5 17.1061 21.4895 17.0117 21.458 16.9487H21.4685Z" fill="#DD5C45"/>
</svg>
