<svg width="33" height="34" viewBox="0 0 33 34" fill="none" xmlns="http://www.w3.org/2000/svg">
<path d="M1.64111 12.5422C0.749584 12.5422 0.155212 11.9478 0.155212 11.0563V5.11279C0.155212 2.58678 2.08684 0.655151 4.61285 0.655151H10.5564C11.4479 0.655151 12.0423 1.24952 12.0423 2.14105C12.0423 3.03258 11.4479 3.62695 10.5564 3.62695H4.61285C3.72132 3.62695 3.12695 4.22132 3.12695 5.11285V11.0564C3.12701 11.9478 2.53264 12.5422 1.64111 12.5422Z" fill="white"/>
<path d="M31.3588 12.5421C30.4672 12.5421 29.8729 11.9477 29.8729 11.0562V5.11266C29.8729 4.22114 29.2785 3.62677 28.387 3.62677H22.4434C21.5519 3.62677 20.9575 3.03239 20.9575 2.14087C20.9575 1.24934 21.5519 0.655029 22.4434 0.655029H28.387C30.913 0.655029 32.8446 2.58666 32.8446 5.11266V11.0562C32.8447 11.9477 32.2503 12.5421 31.3588 12.5421Z" fill="white"/>
<path d="M10.5564 33.3445H4.61284C2.08684 33.3445 0.155205 31.4128 0.155205 28.8868V22.9433C0.155205 22.0518 0.749576 21.4574 1.6411 21.4574C2.53263 21.4574 3.127 22.0518 3.127 22.9433V28.8868C3.127 29.7784 3.72137 30.3727 4.6129 30.3727H10.5564C11.448 30.3727 12.0423 30.9671 12.0423 31.8586C12.0423 32.7501 11.4479 33.3445 10.5564 33.3445Z" fill="white"/>
<path d="M28.387 33.3445H22.4435C21.552 33.3445 20.9576 32.7501 20.9576 31.8586C20.9576 30.9671 21.552 30.3727 22.4435 30.3727H28.387C29.2785 30.3727 29.8729 29.7784 29.8729 28.8868V22.9433C29.8729 22.0518 30.4673 21.4574 31.3588 21.4574C32.2503 21.4574 32.8447 22.0518 32.8447 22.9433V28.8868C32.8447 31.4129 30.913 33.3445 28.387 33.3445Z" fill="white"/>
<path d="M13.5281 15.514H7.58458C6.69305 15.514 6.09868 14.9196 6.09868 14.0281V8.08453C6.09868 7.193 6.69305 6.59863 7.58458 6.59863H13.5281C14.4196 6.59863 15.014 7.193 15.014 8.08453V14.0281C15.014 14.9196 14.4196 15.514 13.5281 15.514ZM9.07047 12.5422H12.0423V9.57037H9.07047V12.5422Z" fill="white"/>
<path d="M13.5281 27.4009H7.58458C6.69305 27.4009 6.09868 26.8066 6.09868 25.915V19.9715C6.09868 19.08 6.69305 18.4856 7.58458 18.4856H13.5281C14.4196 18.4856 15.014 19.08 15.014 19.9715V25.915C15.014 26.8066 14.4196 27.4009 13.5281 27.4009ZM9.07047 24.4291H12.0423V21.4573H9.07047V24.4291Z" fill="white"/>
<path d="M25.4152 15.514H19.4717C18.5801 15.514 17.9858 14.9196 17.9858 14.0281V8.08453C17.9858 7.193 18.5801 6.59863 19.4717 6.59863H25.4152C26.3067 6.59863 26.9011 7.193 26.9011 8.08453V14.0281C26.9011 14.9196 26.3067 15.514 25.4152 15.514ZM20.9576 12.5422H23.9294V9.57037H20.9576V12.5422Z" fill="white"/>
<path d="M19.4717 22.9433C18.5801 22.9433 17.9858 22.3489 17.9858 21.4574V19.9715C17.9858 19.08 18.5801 18.4856 19.4717 18.4856C20.3632 18.4856 20.9576 19.08 20.9576 19.9715V21.4574C20.9576 22.349 20.3632 22.9433 19.4717 22.9433Z" fill="white"/>
<path d="M25.4152 21.4574H23.9293C23.0377 21.4574 22.4434 20.863 22.4434 19.9715C22.4434 19.08 23.0377 18.4856 23.9293 18.4856H25.4152C26.3067 18.4856 26.9011 19.08 26.9011 19.9715C26.9011 20.863 26.3067 21.4574 25.4152 21.4574Z" fill="white"/>
<path d="M25.4152 27.401H20.9576C20.0661 27.401 19.4717 26.8066 19.4717 25.9151C19.4717 25.0236 20.0661 24.4292 20.9576 24.4292H25.4152C26.3068 24.4292 26.9011 25.0236 26.9011 25.9151C26.9011 26.8066 26.3068 27.401 25.4152 27.401Z" fill="white"/>
</svg>
