<svg width="65" height="489" viewBox="0 0 65 489" fill="none" xmlns="http://www.w3.org/2000/svg">
<rect x="1.5" y="1.5" width="62" height="486" stroke="#FF8383" stroke-width="3"/>
</svg>

<svg width="196" height="139" viewBox="0 0 196 139" fill="none" xmlns="http://www.w3.org/2000/svg">
<rect x="1.5" y="2.5" width="193" height="134" stroke="#FF8383" stroke-width="3"/>
<path d="M37.9995 0.999994C44.2697 11.4761 48.7457 29.9589 59.4341 48.5188L69.5244 48.5188C73.8653 42.2678 84.2739 37.7243 93.1294 35.3802C93.1294 34.3191 95.1455 31.4541 102.342 29.438C104.927 28.6759 113.445 27.5858 115.268 30.4509C116.329 31.483 115.818 32.5249 114.506 33.3159C114.506 33.3159 134.32 32.5538 142.915 35.4188C151.018 37.6086 156.96 42.1521 160.578 51.133C165.305 62.8825 165.305 76.1175 160.578 87.867C156.96 96.8479 151.018 101.391 142.915 103.581C134.33 106.446 114.506 105.684 114.506 105.684C115.818 106.475 116.329 107.507 115.268 108.549C113.445 111.414 104.937 110.324 102.342 109.562C95.1552 107.546 93.1294 104.681 93.1294 103.62C84.2739 101.276 73.8653 96.7322 69.5243 90.4812L59.4341 90.4812C48.7457 109.041 44.2697 127.534 37.9995 138" stroke="#FF8383" stroke-width="3" stroke-miterlimit="10"/>
</svg>

