<svg width="275" height="490" viewBox="0 0 275 490" fill="none" xmlns="http://www.w3.org/2000/svg">
<rect x="1.5" y="2.5" width="62" height="486" stroke="#FF8383" stroke-width="3"/>
<rect x="80.5" y="2.5" width="193" height="134" stroke="#FF8383" stroke-width="3"/>
<path d="M117 0.999994C123.27 11.4761 127.746 29.9589 138.434 48.5188L148.524 48.5188C152.865 42.2678 163.274 37.7243 172.129 35.3802C172.129 34.3191 174.146 31.4541 181.342 29.438C183.927 28.6759 192.445 27.5858 194.268 30.4509C195.329 31.483 194.818 32.5249 193.506 33.3159C193.506 33.3159 213.32 32.5538 221.915 35.4188C230.018 37.6086 235.96 42.1521 239.578 51.133C244.305 62.8825 244.305 76.1175 239.578 87.867C235.96 96.8479 230.018 101.391 221.915 103.581C213.33 106.446 193.506 105.684 193.506 105.684C194.818 106.475 195.329 107.507 194.268 108.549C192.445 111.414 183.937 110.324 181.342 109.562C174.155 107.546 172.129 104.681 172.129 103.62C163.274 101.276 152.865 96.7322 148.524 90.4812L138.434 90.4812C127.746 109.041 123.27 127.534 116.999 138" stroke="#FF8383" stroke-width="3" stroke-miterlimit="10"/>
</svg>
