<svg width="24" height="24" viewBox="0 0 24 24" fill="none" xmlns="http://www.w3.org/2000/svg">
<path d="M23.461 21.8602L17.749 15.9194C19.2176 14.1735 20.0223 11.9768 20.0223 9.68999C20.0223 4.34701 15.6753 0 10.3323 0C4.98935 0 0.642334 4.34701 0.642334 9.68999C0.642334 15.033 4.98935 19.38 10.3323 19.38C12.3382 19.38 14.2496 18.775 15.8838 17.6265L21.6393 23.6124C21.8798 23.8622 22.2034 24 22.5501 24C22.8783 24 23.1897 23.8749 23.426 23.6474C23.9282 23.1641 23.9442 22.3628 23.461 21.8602ZM10.3323 2.52782C14.2816 2.52782 17.4945 5.74069 17.4945 9.68999C17.4945 13.6393 14.2816 16.8522 10.3323 16.8522C6.38302 16.8522 3.17016 13.6393 3.17016 9.68999C3.17016 5.74069 6.38302 2.52782 10.3323 2.52782Z" fill="#909090"/>
</svg>
