<svg width="24" height="24" viewBox="0 0 24 24" fill="none" xmlns="http://www.w3.org/2000/svg">
<g clip-path="url(#clip0_331_22883)">
<path d="M12 0C5.37716 0 0 5.37716 0 12C0 18.6228 5.37716 24 12 24C18.6228 24 24 18.6228 24 12C24 5.37716 18.6332 0 12 0Z" fill="black"/>
<path d="M13.3185 10.9204L18.4569 4.95154H17.2424L12.7787 10.1419L9.21815 4.95154H5.10742L10.495 12.7889L5.10742 19.0484H6.32195L11.0348 13.5675L14.8029 19.0484H18.9136L13.3289 10.9204H13.3185ZM6.75794 5.86503H8.62645L17.232 18.1765H15.3635L6.75794 5.86503Z" fill="white"/>
</g>
<defs>
<clipPath id="clip0_331_22883">
<rect width="24" height="24" fill="white"/>
</clipPath>
</defs>
</svg>
