<svg width="103" height="137" viewBox="0 0 103 137" fill="none" xmlns="http://www.w3.org/2000/svg">
<rect width="103" height="137" fill="#F9F9F9"/>
<path d="M0 108.823C7.87621 104.109 21.772 100.744 35.7258 92.7077V85.1216C31.0262 81.858 27.6103 74.0326 25.8479 67.3748C25.0501 67.3748 22.8961 65.859 21.3804 60.4486C20.8074 58.505 19.9879 52.101 22.1419 50.7303C22.9179 49.9325 23.7012 50.3169 24.2959 51.3032C24.2959 51.3032 23.7229 36.4066 25.8769 29.9446C27.5232 23.8525 30.9392 19.385 37.6912 16.6653C46.5248 13.1116 56.4752 13.1116 65.3088 16.6653C72.0608 19.385 75.4768 23.8525 77.1231 29.9446C79.2771 36.3993 78.7041 51.3032 78.7041 51.3032C79.2988 50.3169 80.0748 49.9325 80.8581 50.7303C83.0121 52.101 82.1926 58.4977 81.6196 60.4486C80.1039 65.8517 77.9499 67.3748 77.1521 67.3748C75.3897 74.0326 71.9738 81.858 67.2742 85.1216V92.7077C81.228 100.744 95.131 104.109 103 108.823V137H0V108.823Z" fill="#DCDCDC"/>
</svg>
