<svg width="35" height="33" viewBox="0 0 35 33" fill="none" xmlns="http://www.w3.org/2000/svg">
<path d="M7.888 32.152C3.208 32.152 0.436 29.92 0.436 26.536C0.436 25.24 0.904 23.836 1.804 22.216L11.488 5.368C13.216 2.344 15.16 0.868 17.5 0.868C19.732 0.868 21.676 2.272 23.296 5.116L33.052 22C33.952 23.62 34.456 25.168 34.456 26.572C34.456 29.848 31.936 32.152 27.4 32.152H7.888ZM7.456 28.912H27.724C29.884 28.912 31.144 27.796 31.144 26.32C31.144 25.528 30.964 24.7 30.46 23.872L20.308 6.196C19.516 4.864 18.508 4.216 17.5 4.216C16.456 4.216 15.412 4.972 14.584 6.412L4.432 24.016C4.036 24.772 3.856 25.528 3.856 26.176C3.856 27.832 5.152 28.912 7.456 28.912ZM17.5 27.04C15.844 27.04 14.584 25.744 14.584 24.016C14.584 22.288 15.844 20.992 17.5 20.992C19.12 20.992 20.416 22.288 20.416 24.016C20.416 25.744 19.12 27.04 17.5 27.04ZM16.24 19.336L15.592 11.92L15.448 8.428H19.552L19.408 11.92L18.76 19.336H16.24Z" fill="#DD5C45"/>
</svg>
