<svg width="28" height="29" viewBox="0 0 28 29" fill="none" xmlns="http://www.w3.org/2000/svg">
<path d="M9.40806 24.5041H24.9527C26.2998 24.5041 27.2593 23.1918 26.8466 21.9092L25.2112 16.7989C24.6842 15.1635 22.8897 14.3084 21.289 14.9298C20.2252 15.3424 18.8581 15.6655 17.1878 15.6655C15.5175 15.6655 14.1505 15.3424 13.0867 14.9298C11.481 14.3084 9.68645 15.1585 9.16448 16.7989L7.52899 21.9092C7.10148 23.1918 8.0609 24.5041 9.40806 24.5041Z" fill="#909090"/>
<path d="M17.1775 13.7567C14.347 13.7567 12.0523 11.4621 12.0523 8.63154C12.0523 5.80097 14.347 3.50635 17.1775 3.50635C20.0081 3.50635 22.3027 5.80097 22.3027 8.63154C22.3027 11.4621 20.0081 13.7567 17.1775 13.7567Z" fill="#909090"/>
<path d="M3.77593 10.8984L2.62264 9.74511C2.09073 9.2132 2.09073 8.3532 2.62264 7.82129C3.15455 7.28939 4.01455 7.28939 4.54645 7.82129L5.69974 8.97459L6.85304 7.82129C7.38495 7.28939 8.24494 7.28939 8.77685 7.82129C9.30876 8.3532 9.30876 9.2132 8.77685 9.74511L7.62356 10.8984L8.77685 12.0517C9.30876 12.5836 9.30876 13.4436 8.77685 13.9755C8.24494 14.5074 7.38495 14.5074 6.85304 13.9755L5.69974 12.8222L4.54645 13.9755C4.01455 14.5074 3.15455 14.5074 2.62264 13.9755C2.09073 13.4436 2.09073 12.5836 2.62264 12.0517L3.77593 10.8984Z" fill="#909090"/>
</svg>
