<svg width="28" height="28" viewBox="0 0 28 28" fill="none" xmlns="http://www.w3.org/2000/svg">
<path d="M18.2326 25.2087C17.9544 25.3395 17.645 25.4113 17.3189 25.4113H2.16993C0.9726 25.4113 0 24.4406 0 23.2414C0 20.7583 1.0076 18.511 2.63413 16.8827C4.26065 15.2543 6.50979 14.2485 8.99287 14.2485H10.496C11.4023 14.2485 12.2791 14.383 13.1043 14.6317L13.0969 14.6446C12.8391 15.0922 12.7709 15.6135 12.9035 16.1127C13.038 16.6119 13.3585 17.03 13.8061 17.2879L14.0124 17.4076C13.9885 17.6471 13.9756 17.8884 13.9756 18.1297C13.9756 18.371 13.9885 18.6123 14.0124 18.8518L13.8061 18.9715C13.3585 19.2294 13.038 19.6476 12.9035 20.1468C12.7709 20.646 12.8391 21.1673 13.0969 21.6149L14.1082 23.3648C14.4527 23.9616 15.0956 24.3337 15.7845 24.3337C16.1234 24.3337 16.4568 24.2435 16.7516 24.074L16.9579 23.9543C17.3502 24.2361 17.7702 24.4793 18.2105 24.6764V24.9158C18.2105 25.0153 18.2178 25.1129 18.2326 25.2087Z" fill="#909090"/>
<path d="M9.74428 12.3328C12.4351 12.3328 14.6165 10.1514 14.6165 7.46059C14.6165 4.76974 12.4351 2.58838 9.74428 2.58838C7.05343 2.58838 4.87207 4.76974 4.87207 7.46059C4.87207 10.1514 7.05343 12.3328 9.74428 12.3328Z" fill="#909090"/>
<path d="M27.7687 20.2483L26.6653 19.6109C26.7924 19.1375 26.8606 18.642 26.8606 18.1299C26.8606 17.6178 26.7924 17.1205 26.6653 16.6489L27.7687 16.0116C27.9897 15.8845 28.0652 15.6026 27.9381 15.3816L26.9269 13.6316C26.7998 13.4106 26.5179 13.3351 26.2969 13.4622L25.1935 14.0995C24.4935 13.3995 23.613 12.8801 22.6275 12.6167V11.3438C22.6275 11.0896 22.4212 10.8833 22.167 10.8833H20.1463C19.8921 10.8833 19.6858 11.0896 19.6858 11.3438V12.6167C18.7003 12.8782 17.8198 13.3977 17.1198 14.0995L16.0164 13.4622C15.7954 13.3351 15.5135 13.4106 15.3864 13.6316L14.3752 15.3816C14.2481 15.6026 14.3236 15.8845 14.5446 16.0116L15.648 16.6489C15.5209 17.1223 15.4528 17.6178 15.4528 18.1299C15.4528 18.642 15.5209 19.1394 15.648 19.6109L14.5446 20.2483C14.3236 20.3754 14.2481 20.6572 14.3752 20.8782L15.3864 22.6282C15.5135 22.8492 15.7954 22.9248 16.0164 22.7977L17.1198 22.1603C17.8198 22.8603 18.7003 23.3797 19.6858 23.6432V24.916C19.6858 25.1702 19.8921 25.3765 20.1463 25.3765H22.167C22.4212 25.3765 22.6275 25.1702 22.6275 24.916V23.6432C23.613 23.3816 24.4935 22.8621 25.1935 22.1603L26.2969 22.7977C26.5179 22.9248 26.7998 22.8492 26.9269 22.6282L27.9381 20.8782C28.0652 20.6572 27.9897 20.3754 27.7687 20.2483ZM21.1557 20.4564C19.87 20.4564 18.8292 19.4138 18.8292 18.1299C18.8292 16.8442 19.8718 15.8034 21.1557 15.8034C22.4396 15.8034 23.4822 16.846 23.4822 18.1299C23.4822 19.4138 22.4415 20.4564 21.1557 20.4564Z" fill="#909090"/>
</svg>
