<svg width="50" height="50" viewBox="0 0 50 50" fill="none" xmlns="http://www.w3.org/2000/svg">
<path fill-rule="evenodd" clip-rule="evenodd" d="M5.14044 27.564C5.51585 27.564 5.82019 27.2596 5.82019 26.8842V17.4801C5.82019 17.1047 5.51585 16.8003 5.14044 16.8003C4.76503 16.8003 4.46069 17.1047 4.46069 17.4801V26.8842C4.46069 27.2596 4.76503 27.564 5.14044 27.564ZM44.8606 27.564C45.236 27.564 45.5403 27.2596 45.5403 26.8842V17.4801C45.5403 17.1047 45.236 16.8003 44.8606 16.8003C44.4851 16.8003 44.1808 17.1047 44.1808 17.4801V26.8842C44.1808 27.2596 44.4851 27.564 44.8606 27.564Z" fill="#DD5C45"/>
<mask id="mask0_347_42873" style="mask-type:luminance" maskUnits="userSpaceOnUse" x="1" y="1" width="48" height="48">
<path d="M1.32959 1.32975H48.6702V48.6704H1.32959V1.32975Z" fill="white"/>
</mask>
<g mask="url(#mask0_347_42873)">
<path fill-rule="evenodd" clip-rule="evenodd" d="M1.67655 17.3797C2.36512 18.5726 3.89727 18.982 5.08945 18.2941L24.999 6.79805L44.9104 18.2937C44.9102 18.2935 44.9106 18.2938 44.9104 18.2937C46.0996 18.9815 47.6357 18.573 48.3218 17.3792C49.0099 16.1891 48.5995 14.6544 47.407 13.9662L26.3394 1.80329C26.3391 1.80311 26.3388 1.80293 26.3384 1.80275C25.928 1.56423 25.4518 1.46209 24.999 1.46209C24.5494 1.46209 24.0703 1.56403 23.6595 1.80275C23.6592 1.80293 23.6589 1.80311 23.6585 1.80329L2.59014 13.9666C1.40228 14.6543 0.987273 16.1884 1.67655 17.3797ZM4.40983 17.1167C3.86703 17.4298 3.16655 17.2418 2.85386 16.6999L2.8534 16.6991C2.54188 16.1609 2.72963 15.457 3.27099 15.1433C3.27088 15.1434 3.2711 15.1433 3.27099 15.1433L24.3422 2.97839C24.5078 2.88204 24.7414 2.82158 24.999 2.82158C25.2589 2.82158 25.4898 2.88184 25.6557 2.97838L25.6577 2.97952L46.7273 15.1436C47.2696 15.4565 47.4569 16.1596 47.1446 16.6991L47.1434 16.7012C46.8333 17.2415 46.1315 17.4296 45.5914 17.117L25.3388 5.42446C25.1285 5.30303 24.8694 5.30304 24.6591 5.42448L4.40983 17.1167C4.40989 17.1167 4.40977 17.1167 4.40983 17.1167Z" fill="#DD5C45"/>
<path fill-rule="evenodd" clip-rule="evenodd" d="M1.34424 47.4328C1.34424 48.0416 1.83997 48.5371 2.44866 48.5371H23.5523C23.9277 48.5371 24.2321 48.2328 24.2321 47.8574C24.2321 47.4819 23.9277 47.1776 23.5523 47.1776H2.70373V45.1508H47.297V47.1776H26.7525C26.377 47.1776 26.0727 47.4819 26.0727 47.8574C26.0727 48.2328 26.377 48.5371 26.7525 48.5371H47.5521C48.1608 48.5371 48.6564 48.0415 48.6564 47.4328V44.8956C48.6564 44.2869 48.1608 43.7913 47.5521 43.7913H2.44866C1.83997 43.7913 1.34424 44.2868 1.34424 44.8956V47.4328Z" fill="#DD5C45"/>
<path fill-rule="evenodd" clip-rule="evenodd" d="M1.34424 29.8464C1.34424 30.4551 1.83997 30.9507 2.44866 30.9507H47.5521C48.1608 30.9507 48.6564 30.4551 48.6564 29.8464V27.3092C48.6564 26.7005 48.1608 26.2049 47.5521 26.2049H26.6372C26.2617 26.2049 25.9574 26.5092 25.9574 26.8846C25.9574 27.26 26.2617 27.5643 26.6372 27.5643H47.297V29.5912H2.70373V27.5643H23.5523C23.9277 27.5643 24.2321 27.26 24.2321 26.8846C24.2321 26.5092 23.9277 26.2049 23.5523 26.2049H2.44866C1.83997 26.2049 1.34424 26.7004 1.34424 27.3092V29.8464Z" fill="#DD5C45"/>
<path fill-rule="evenodd" clip-rule="evenodd" d="M3.91528 32.8838C3.91528 33.4845 4.40564 33.9751 5.00649 33.9751H14.1667C14.7676 33.9751 15.2579 33.4845 15.2579 32.8838V30.2707C15.2579 29.8953 14.9536 29.591 14.5782 29.591H4.59503C4.21962 29.591 3.91528 29.8953 3.91528 30.2707V32.8838ZM5.27478 32.6156V30.9505H13.8984V32.6156H5.27478Z" fill="#DD5C45"/>
<path fill-rule="evenodd" clip-rule="evenodd" d="M3.91528 44.4711C3.91528 44.8465 4.21962 45.1509 4.59503 45.1509H14.5782C14.9536 45.1509 15.2579 44.8465 15.2579 44.4711V41.8606C15.2579 41.2601 14.7703 40.7668 14.1667 40.7668H5.00649C4.40288 40.7668 3.91528 41.2601 3.91528 41.8606V44.4711ZM5.27478 43.7914V42.1263H13.8984V43.7914H5.27478Z" fill="#DD5C45"/>
<path fill-rule="evenodd" clip-rule="evenodd" d="M5.85498 41.4467C5.85498 41.8221 6.15931 42.1265 6.53473 42.1265H12.6389C13.0143 42.1265 13.3186 41.8221 13.3186 41.4467V33.2954C13.3186 32.92 13.0143 32.6157 12.6389 32.6157H6.53473C6.15931 32.6157 5.85498 32.92 5.85498 33.2954V41.4467ZM7.21447 40.767V33.9752H11.9592V40.767H7.21447Z" fill="#DD5C45"/>
<path fill-rule="evenodd" clip-rule="evenodd" d="M19.3267 32.8838C19.3267 33.4874 19.8199 33.9751 20.4205 33.9751H29.5781C30.1788 33.9751 30.6719 33.4873 30.6719 32.8838V30.2707C30.6719 29.8953 30.3676 29.591 29.9921 29.591H20.0064C19.631 29.591 19.3267 29.8953 19.3267 30.2707V32.8838ZM20.6862 32.6156V30.9505H29.3124V32.6156H20.6862Z" fill="#DD5C45"/>
<path fill-rule="evenodd" clip-rule="evenodd" d="M19.3267 44.4711C19.3267 44.8465 19.631 45.1509 20.0064 45.1509H29.9921C30.3676 45.1509 30.6719 44.8465 30.6719 44.4711V41.8606C30.6719 41.2573 30.1815 40.7668 29.5781 40.7668H20.4205C19.8171 40.7668 19.3267 41.2572 19.3267 41.8606V44.4711ZM20.6862 43.7914V42.1263H29.3124V43.7914H20.6862Z" fill="#DD5C45"/>
<path fill-rule="evenodd" clip-rule="evenodd" d="M21.2686 41.4467C21.2686 41.8221 21.5729 42.1265 21.9483 42.1265H28.0498C28.4252 42.1265 28.7295 41.8221 28.7295 41.4467V33.2954C28.7295 32.92 28.4252 32.6157 28.0498 32.6157H21.9483C21.5729 32.6157 21.2686 32.92 21.2686 33.2954V41.4467ZM22.628 40.767V33.9752H27.37V40.767H22.628Z" fill="#DD5C45"/>
<path fill-rule="evenodd" clip-rule="evenodd" d="M34.7402 32.8838C34.7402 33.4874 35.2335 33.9751 35.8341 33.9751H44.9917C45.5923 33.9751 46.0855 33.4873 46.0855 32.8838V30.2707C46.0855 29.8953 45.7811 29.591 45.4057 29.591H35.42C35.0446 29.591 34.7402 29.8953 34.7402 30.2707V32.8838ZM36.0997 32.6156V30.9505H44.726V32.6156H36.0997Z" fill="#DD5C45"/>
<path fill-rule="evenodd" clip-rule="evenodd" d="M34.7402 44.4711C34.7402 44.8465 35.0446 45.1509 35.42 45.1509H45.4057C45.7811 45.1509 46.0855 44.8465 46.0855 44.4711V41.8606C46.0855 41.2573 45.5951 40.7668 44.9917 40.7668H35.8341C35.2307 40.7668 34.7402 41.2572 34.7402 41.8606V44.4711ZM36.0997 43.7914V42.1263H44.726V43.7914H36.0997Z" fill="#DD5C45"/>
<path fill-rule="evenodd" clip-rule="evenodd" d="M36.6821 41.4467C36.6821 41.8221 36.9865 42.1265 37.3619 42.1265H43.4634C43.8388 42.1265 44.1431 41.8221 44.1431 41.4467V33.2954C44.1431 32.92 43.8388 32.6157 43.4634 32.6157H37.3619C36.9865 32.6157 36.6821 32.92 36.6821 33.2954V41.4467ZM38.0416 40.767V33.9752H42.7836V40.767H38.0416Z" fill="#DD5C45"/>
<path fill-rule="evenodd" clip-rule="evenodd" d="M25.1013 13.8724C24.2534 13.8724 23.5612 13.1787 23.5612 12.3322C23.5612 11.4857 24.2534 10.7919 25.1013 10.7919C25.9472 10.7919 26.6415 11.4862 26.6415 12.3322C26.6415 13.1782 25.9472 13.8724 25.1013 13.8724ZM22.2017 12.3322C22.2017 13.9285 23.5015 15.2319 25.1013 15.2319C26.6981 15.2319 28.001 13.929 28.001 12.3322C28.001 10.7355 26.6981 9.4324 25.1013 9.4324C23.5014 9.4324 22.2017 10.736 22.2017 12.3322Z" fill="#DD5C45"/>
<path fill-rule="evenodd" clip-rule="evenodd" d="M13.4428 21.1992L14.0973 21.1965C14.4464 21.1951 14.836 21.1938 15.004 21.1938C16.0638 21.1938 16.923 20.3346 16.923 19.2748C16.923 18.215 16.0637 17.3559 15.004 17.3559H13.4398C13.0643 17.3559 12.76 17.6602 12.76 18.0357V20.5195C12.76 20.7003 12.832 20.8736 12.9602 21.0012C13.0883 21.1288 13.262 21.2 13.4428 21.1992ZM14.1195 19.8369V18.7154H15.004C15.313 18.7154 15.5635 18.9659 15.5635 19.2748C15.5635 19.5837 15.3129 19.8343 15.004 19.8343C14.8372 19.8343 14.4606 19.8356 14.1195 19.8369Z" fill="#DD5C45"/>
<path fill-rule="evenodd" clip-rule="evenodd" d="M13.4428 24.1001L14.2123 24.0969C14.6226 24.0952 15.0804 24.0936 15.2773 24.0936C16.4532 24.0936 17.4065 23.1403 17.4065 21.9643C17.4065 20.7883 16.4532 19.835 15.2773 19.835H13.4398C13.0643 19.835 12.76 20.1393 12.76 20.5147V23.4204C12.76 23.6012 12.832 23.7745 12.9602 23.9021C13.0883 24.0296 13.262 24.1009 13.4428 24.1001ZM14.1195 22.7377V21.1945H15.2773C15.7024 21.1945 16.047 21.5391 16.047 21.9643C16.047 22.3895 15.7024 22.7341 15.2773 22.7341C15.0771 22.7341 14.6162 22.7358 14.2069 22.7374L14.1195 22.7377Z" fill="#DD5C45"/>
<path fill-rule="evenodd" clip-rule="evenodd" d="M23.8277 24.0566C24.179 23.9241 24.3562 23.5319 24.2237 23.1806L22.2198 17.8709C22.2176 17.8649 22.2152 17.8589 22.2128 17.8529C21.9399 17.1877 20.9998 17.1915 20.7289 17.8539L20.7229 17.8693L18.7007 23.1787C18.5671 23.5296 18.7432 23.9223 19.094 24.0559C19.4448 24.1895 19.8376 24.0134 19.9712 23.6626L21.4686 19.7307L22.9518 23.6607C23.0843 24.0119 23.4765 24.1892 23.8277 24.0566Z" fill="#DD5C45"/>
<path fill-rule="evenodd" clip-rule="evenodd" d="M19.2866 22.0981C19.2866 22.4735 19.591 22.7778 19.9664 22.7778H22.967C23.3425 22.7778 23.6468 22.4735 23.6468 22.0981C23.6468 21.7227 23.3425 21.4183 22.967 21.4183H19.9664C19.591 21.4183 19.2866 21.7227 19.2866 22.0981Z" fill="#DD5C45"/>
<path fill-rule="evenodd" clip-rule="evenodd" d="M26.4173 24.1001C26.7927 24.1001 27.097 23.7958 27.097 23.4204V20.2256L29.4922 23.6938C29.5496 23.7769 29.6533 23.8974 29.8206 23.9734C30.0112 24.06 30.2538 24.0709 30.4742 23.9496C30.669 23.8424 30.7654 23.6768 30.81 23.565C30.8569 23.4473 30.8707 23.333 30.8707 23.2388V23.2323L30.8205 18.0284C30.8168 17.653 30.5096 17.3516 30.1342 17.3553C29.7588 17.3589 29.4574 17.6661 29.461 18.0415L29.4925 21.3018L26.9766 17.6588C26.8076 17.414 26.499 17.3076 26.215 17.3961C25.931 17.4846 25.7375 17.7476 25.7375 18.0451V23.4204C25.7375 23.7958 26.0419 24.1001 26.4173 24.1001Z" fill="#DD5C45"/>
<path fill-rule="evenodd" clip-rule="evenodd" d="M33.5921 24.1001C33.9675 24.1001 34.2718 23.7958 34.2718 23.4204V17.9677C34.2718 17.5923 33.9675 17.2879 33.5921 17.2879C33.2167 17.2879 32.9124 17.5923 32.9124 17.9677V23.4204C32.9124 23.7958 33.2167 24.1001 33.5921 24.1001Z" fill="#DD5C45"/>
<path fill-rule="evenodd" clip-rule="evenodd" d="M37.2081 23.8923C37.4687 23.6221 37.461 23.1918 37.1908 22.9312L34.7581 20.5841L36.9853 18.5369C37.2617 18.2829 37.2798 17.8528 37.0257 17.5765C36.7717 17.3001 36.3417 17.282 36.0653 17.536L33.3067 20.0717C33.1687 20.1985 33.0892 20.3766 33.087 20.5639C33.0847 20.7513 33.1599 20.9313 33.2947 21.0613L36.2469 23.9095C36.5171 24.1702 36.9474 24.1625 37.2081 23.8923Z" fill="#DD5C45"/>
</g>
</svg>
