<svg width="34" height="24" viewBox="0 0 34 24" fill="none" xmlns="http://www.w3.org/2000/svg">
<path d="M34 5.65911V3.81819C34 1.70946 32.3351 0 30.2812 0H3.71875C1.66494 0 0 1.70946 0 3.81819V5.65911C0 5.84736 0.148684 6.00002 0.332031 6.00002H33.668C33.8513 6.00002 34 5.84736 34 5.65911Z" fill="#DCDCDC"/>
<path d="M0 8.52304V20.1822C0 22.2909 1.66494 24.0004 3.71875 24.0004H30.2812C32.3351 24.0004 34 22.2909 34 20.1822V8.52304C34 8.33479 33.8513 8.18213 33.668 8.18213H0.332031C0.148684 8.18213 0 8.33479 0 8.52304ZM8.5 17.4549C8.5 18.0573 8.02427 18.5458 7.4375 18.5458H6.375C5.78823 18.5458 5.3125 18.0573 5.3125 17.4549V16.364C5.3125 15.7615 5.78823 15.2731 6.375 15.2731H7.4375C8.02427 15.2731 8.5 15.7615 8.5 16.364V17.4549Z" fill="#DCDCDC"/>
</svg>
