<svg width="50" height="50" viewBox="0 0 50 50" fill="none" xmlns="http://www.w3.org/2000/svg">
<path d="M4.6499 48.9741H27.8594H27.8706C29.8774 48.9741 31.5098 47.3413 31.5098 45.3345L31.5093 35.3638H39.3335C39.7475 35.3638 40.0835 35.0278 40.0835 34.6138C40.0835 34.1997 39.7475 33.8638 39.3335 33.8638H31.5098V30.8008H32.9385C33.3525 30.8008 33.6885 30.4648 33.6885 30.0508C33.6885 29.6367 33.3525 29.3008 32.9385 29.3008H31.5098V26.2378H47.5V32.6138C47.5 33.3032 46.9394 33.8638 46.25 33.8638H43.2646C42.8506 33.8638 42.5146 34.1997 42.5146 34.6138C42.5146 35.0278 42.8506 35.3638 43.2646 35.3638H46.25C47.7661 35.3638 49 34.1299 49 32.6138V25.4878V21.2168V18.1841C49 16.668 47.7661 15.4341 46.25 15.4341H31.5098V8.43994V4.67529C31.5098 2.66259 29.8726 1.02539 27.8599 1.02539H4.6499C2.63721 1.02538 1 2.66259 1 4.67529V8.43994V11.4272C1 11.8413 1.33594 12.1772 1.75 12.1772C2.16406 12.1772 2.5 11.8413 2.5 11.4272V9.18994H30.0098V16.1816C30.0098 16.1825 30.0093 16.1832 30.0093 16.1841V34.6138L30.0095 40.8096H2.5V15.2168C2.5 14.8027 2.16406 14.4668 1.75 14.4668C1.33594 14.4668 1 14.8027 1 15.2168V41.5596V45.3237C1 47.3364 2.63721 48.9741 4.6499 48.9741ZM31.5098 24.7378V21.9668H47.5V24.7378H31.5098ZM46.25 16.9341C46.9394 16.9341 47.5 17.4946 47.5 18.1841V20.4668H31.5098V16.9341H46.25ZM2.5 7.68994V4.67529C2.5 3.48974 3.46436 2.52539 4.6499 2.52539H27.8599C29.0454 2.52539 30.0098 3.48975 30.0098 4.67529V7.68994H2.5ZM30.0093 42.3096V45.3237C30.0093 46.5093 29.0449 47.4741 27.8594 47.4741H4.6499C3.46435 47.4741 2.5 46.5093 2.5 45.3237V42.3096H30.0093Z" fill="#DD5C45"/>
<path d="M46.1171 30.2679C46.1171 29.8362 45.7672 29.4858 45.3359 29.4858H43.0664C42.6351 29.4858 42.2852 29.8362 42.2852 30.2679C42.2852 30.6997 42.6351 31.05 43.0664 31.05H45.3359C45.7672 31.05 46.1171 30.6997 46.1171 30.2679Z" fill="#DD5C45"/>
<path d="M14.5293 46.5222H17.2515C17.6828 46.5222 18.0327 46.1719 18.0327 45.7401C18.0327 45.3083 17.6828 44.958 17.2515 44.958H14.5293C14.098 44.958 13.748 45.3083 13.748 45.7401C13.748 46.1719 14.098 46.5222 14.5293 46.5222Z" fill="#DD5C45"/>
<path d="M15.9292 3.36865H13.207C12.7757 3.36865 12.4258 3.71896 12.4258 4.15074C12.4258 4.58251 12.7757 4.93282 13.207 4.93282H15.9292C16.3605 4.93282 16.7104 4.58251 16.7104 4.15074C16.7104 3.71896 16.3605 3.36865 15.9292 3.36865Z" fill="#DD5C45"/>
<path d="M18.5753 3.36865H18.4512C18.0199 3.36865 17.6699 3.71896 17.6699 4.15074C17.6699 4.58251 18.0199 4.93282 18.4512 4.93282H18.5753C19.0066 4.93282 19.3565 4.58251 19.3565 4.15074C19.3565 3.71896 19.0066 3.36865 18.5753 3.36865Z" fill="#DD5C45"/>
<path d="M11.6456 31.491H9.24432C9.0851 31.491 8.93241 31.4277 8.81983 31.315C8.70725 31.2023 8.644 31.0494 8.644 30.8901V28.4862C8.644 28.3268 8.58075 28.174 8.46817 28.0613C8.35559 27.9486 8.20289 27.8853 8.04368 27.8853C7.88446 27.8853 7.73177 27.9486 7.61919 28.0613C7.50661 28.174 7.44336 28.3268 7.44336 28.4862V30.8901C7.44336 31.3682 7.6331 31.8268 7.97085 32.1649C8.30859 32.503 8.76667 32.6929 9.24432 32.6929H11.6456C11.8048 32.6929 11.9575 32.6296 12.0701 32.5169C12.1827 32.4042 12.2459 32.2514 12.2459 32.092C12.2459 31.9326 12.1827 31.7797 12.0701 31.667C11.9575 31.5543 11.8048 31.491 11.6456 31.491Z" fill="#DD5C45"/>
<path d="M23.6527 27.8853C23.4935 27.8853 23.3408 27.9486 23.2282 28.0613C23.1156 28.174 23.0524 28.3268 23.0524 28.4862V30.8901C23.0524 31.0494 22.9891 31.2023 22.8765 31.315C22.7639 31.4277 22.6113 31.491 22.452 31.491H20.0508C19.8915 31.491 19.7389 31.5543 19.6263 31.667C19.5137 31.7797 19.4504 31.9326 19.4504 32.092C19.4504 32.2514 19.5137 32.4042 19.6263 32.5169C19.7389 32.6296 19.8915 32.6929 20.0508 32.6929H22.452C22.9297 32.6929 23.3878 32.503 23.7255 32.1649C24.0633 31.8268 24.253 31.3682 24.253 30.8901V28.4862C24.253 28.3268 24.1897 28.174 24.0772 28.0613C23.9646 27.9486 23.8119 27.8853 23.6527 27.8853Z" fill="#DD5C45"/>
<path d="M8.04368 20.6734C8.20289 20.6734 8.35559 20.6101 8.46817 20.4974C8.58075 20.3847 8.644 20.2318 8.644 20.0725V17.6686C8.644 17.5092 8.70725 17.3564 8.81983 17.2437C8.93241 17.131 9.0851 17.0676 9.24432 17.0676H11.6456C11.8048 17.0676 11.9575 17.0043 12.0701 16.8916C12.1827 16.7789 12.2459 16.6261 12.2459 16.4667C12.2459 16.3073 12.1827 16.1544 12.0701 16.0417C11.9575 15.929 11.8048 15.8657 11.6456 15.8657H9.24432C8.76667 15.8657 8.30859 16.0557 7.97085 16.3938C7.6331 16.7319 7.44336 17.1905 7.44336 17.6686V20.0725C7.44336 20.2318 7.50661 20.3847 7.61919 20.4974C7.73177 20.6101 7.88446 20.6734 8.04368 20.6734Z" fill="#DD5C45"/>
<path d="M22.452 15.8657H20.0508C19.8915 15.8657 19.7389 15.929 19.6263 16.0417C19.5137 16.1544 19.4504 16.3073 19.4504 16.4667C19.4504 16.6261 19.5137 16.7789 19.6263 16.8916C19.7389 17.0043 19.8915 17.0676 20.0508 17.0676H22.452C22.6113 17.0676 22.7639 17.131 22.8765 17.2437C22.9891 17.3564 23.0524 17.5092 23.0524 17.6686V20.0725C23.0524 20.2318 23.1156 20.3847 23.2282 20.4974C23.3408 20.6101 23.4935 20.6734 23.6527 20.6734C23.8119 20.6734 23.9646 20.6101 24.0772 20.4974C24.1897 20.3847 24.253 20.2318 24.253 20.0725V17.6686C24.253 17.1905 24.0633 16.7319 23.7255 16.3938C23.3878 16.0557 22.9297 15.8657 22.452 15.8657Z" fill="#DD5C45"/>
<path d="M12.8463 26.0815H11.0454C10.7269 26.0815 10.4215 26.2082 10.1964 26.4336C9.97122 26.659 9.84473 26.9647 9.84473 27.2835V29.0863C9.84473 29.4051 9.97122 29.7108 10.1964 29.9362C10.4215 30.1616 10.7269 30.2883 11.0454 30.2883H12.8463C13.1648 30.2883 13.4701 30.1616 13.6953 29.9362C13.9205 29.7108 14.047 29.4051 14.047 29.0863V27.2835C14.047 26.9647 13.9205 26.659 13.6953 26.4336C13.4701 26.2082 13.1648 26.0815 12.8463 26.0815ZM11.0454 29.0863V27.2835H12.8463V29.0863H11.0454Z" fill="#DD5C45"/>
<path d="M21.8517 29.0863V27.2835C21.8517 26.9647 21.7252 26.659 21.5 26.4336C21.2748 26.2082 20.9694 26.0815 20.651 26.0815H18.8501C18.5316 26.0815 18.2262 26.2082 18.0011 26.4336C17.7759 26.659 17.6494 26.9647 17.6494 27.2835V29.0863C17.6494 29.4051 17.7759 29.7108 18.0011 29.9362C18.2262 30.1616 18.5316 30.2883 18.8501 30.2883H20.651C20.9694 30.2883 21.2748 30.1616 21.5 29.9362C21.7252 29.7108 21.8517 29.4051 21.8517 29.0863ZM18.8501 27.2835H20.651V29.0863H18.8501V27.2835Z" fill="#DD5C45"/>
<path d="M15.2476 23.6777H10.445C10.2858 23.6777 10.1331 23.741 10.0206 23.8538C9.90797 23.9665 9.84473 24.1193 9.84473 24.2787C9.84473 24.4381 9.90797 24.5909 10.0206 24.7036C10.1331 24.8163 10.2858 24.8797 10.445 24.8797H15.2476V29.6873C15.2476 29.8467 15.3109 29.9996 15.4234 30.1123C15.536 30.225 15.6887 30.2883 15.8479 30.2883C16.0071 30.2883 16.1598 30.225 16.2724 30.1123C16.385 29.9996 16.4482 29.8467 16.4482 29.6873V24.8797C16.4482 24.5609 16.3217 24.2552 16.0966 24.0298C15.8714 23.8044 15.566 23.6777 15.2476 23.6777Z" fill="#DD5C45"/>
<path d="M9.84473 19.471V21.8748C9.84473 22.0342 9.90797 22.1871 10.0206 22.2998C10.1331 22.4125 10.2858 22.4758 10.445 22.4758C10.6043 22.4758 10.757 22.4125 10.8695 22.2998C10.9821 22.1871 11.0454 22.0342 11.0454 21.8748V19.471H13.4466C13.6059 19.471 13.7586 19.4077 13.8711 19.2949C13.9837 19.1822 14.047 19.0294 14.047 18.87C14.047 18.7106 13.9837 18.5578 13.8711 18.4451C13.7586 18.3324 13.6059 18.269 13.4466 18.269H11.0454C10.7269 18.269 10.4215 18.3957 10.1964 18.6211C9.97122 18.8465 9.84473 19.1522 9.84473 19.471Z" fill="#DD5C45"/>
<path d="M18.8501 22.4758H20.651C20.9694 22.4758 21.2748 22.3491 21.5 22.1237C21.7252 21.8983 21.8517 21.5926 21.8517 21.2738V19.471C21.8517 19.1522 21.7252 18.8465 21.5 18.6211C21.2748 18.3957 20.9694 18.269 20.651 18.269H18.8501C18.5316 18.269 18.2262 18.3957 18.0011 18.6211C17.7759 18.8465 17.6494 19.1522 17.6494 19.471V21.2738C17.6494 21.5926 17.7759 21.8983 18.0011 22.1237C18.2262 22.3491 18.5316 22.4758 18.8501 22.4758ZM18.8501 19.471H20.651V21.2738H18.8501V19.471Z" fill="#DD5C45"/>
<path d="M18.2497 24.8797H18.8501C19.0093 24.8797 19.162 24.8163 19.2745 24.7036C19.3871 24.5909 19.4504 24.4381 19.4504 24.2787C19.4504 24.1193 19.3871 23.9665 19.2745 23.8538C19.162 23.741 19.0093 23.6777 18.8501 23.6777H18.2497C18.0905 23.6777 17.9378 23.741 17.8252 23.8538C17.7127 23.9665 17.6494 24.1193 17.6494 24.2787C17.6494 24.4381 17.7127 24.5909 17.8252 24.7036C17.9378 24.8163 18.0905 24.8797 18.2497 24.8797Z" fill="#DD5C45"/>
<path d="M20.6501 23.6777C20.4909 23.6777 20.3382 23.741 20.2256 23.8538C20.1131 23.9665 20.0498 24.1193 20.0498 24.2787C20.0498 24.4381 20.1131 24.5909 20.2256 24.7036C20.3382 24.8163 20.4909 24.8797 20.6501 24.8797H21.2504C21.4097 24.8797 21.5624 24.8163 21.6749 24.7036C21.7875 24.5909 21.8508 24.4381 21.8508 24.2787C21.8508 24.1193 21.7875 23.9665 21.6749 23.8538C21.5624 23.741 21.4097 23.6777 21.2504 23.6777H20.6501Z" fill="#DD5C45"/>
<path d="M15.8483 21.2744H12.8467C12.6874 21.2744 12.5347 21.3377 12.4222 21.4504C12.3096 21.5631 12.2463 21.716 12.2463 21.8754C12.2463 22.0348 12.3096 22.1876 12.4222 22.3003C12.5347 22.413 12.6874 22.4763 12.8467 22.4763H15.8483C16.0075 22.4763 16.1602 22.413 16.2727 22.3003C16.3853 22.1876 16.4486 22.0348 16.4486 21.8754C16.4486 21.716 16.3853 21.5631 16.2727 21.4504C16.1602 21.3377 16.0075 21.2744 15.8483 21.2744Z" fill="#DD5C45"/>
<path d="M15.8484 18.269C15.6892 18.269 15.5365 18.3324 15.4239 18.4451C15.3113 18.5578 15.248 18.7106 15.248 18.87V19.471C15.248 19.6304 15.3113 19.7832 15.4239 19.8959C15.5365 20.0086 15.6892 20.0719 15.8484 20.0719C16.0076 20.0719 16.1603 20.0086 16.2729 19.8959C16.3854 19.7832 16.4487 19.6304 16.4487 19.471V18.87C16.4487 18.7106 16.3854 18.5578 16.2729 18.4451C16.1603 18.3324 16.0076 18.269 15.8484 18.269Z" fill="#DD5C45"/>
</svg>
