<svg width="353" height="491" viewBox="0 0 353 491" fill="none" xmlns="http://www.w3.org/2000/svg">
<path fill-rule="evenodd" clip-rule="evenodd" d="M75 2.84V2.92866e-06H3L0 0V2.84V71H3V2.84L75 2.84Z" fill="#DD5C45"/>
<path fill-rule="evenodd" clip-rule="evenodd" d="M278 488.16L278 491L350 491L353 491L353 488.16L353 420L350 420L350 488.16L278 488.16Z" fill="#DD5C45"/>
<path fill-rule="evenodd" clip-rule="evenodd" d="M350 71L353 71L353 0L353 0L350 -1.17147e-07L278 -2.92866e-06L278 2.84L350 2.84L350 71Z" fill="#DD5C45"/>
<path fill-rule="evenodd" clip-rule="evenodd" d="M3.00001 420L1.27637e-05 420L0 491L1.24129e-05 491L3 491L75 491L75 488.16L3 488.16L3.00001 420Z" fill="#DD5C45"/>
</svg>
