<svg width="29" height="29" viewBox="0 0 29 29" fill="none" xmlns="http://www.w3.org/2000/svg">
<path d="M1.12999 8.55931C1.58306 8.37808 2.10187 8.5984 2.2831 9.05502L2.81434 10.384C4.33879 4.70022 9.518 0.5 15.6744 0.5C23.023 0.5 29 6.47697 29 13.8256C29 21.1742 23.023 27.1512 15.6744 27.1512C12.1156 27.1512 8.76822 25.7653 6.25057 23.2494C5.9041 22.903 5.9041 22.3397 6.25057 21.9933C6.59703 21.6468 7.16026 21.6468 7.50673 21.9933C9.69034 24.1733 12.59 25.3744 15.6744 25.3744C22.0423 25.3744 27.2233 20.1934 27.2233 13.8256C27.2233 7.45773 22.0423 2.27674 15.6744 2.27674C10.1292 2.27674 5.48657 6.2069 4.37966 11.427L6.16173 9.64313C6.5082 9.29666 7.07142 9.29666 7.41789 9.64313C7.76435 9.98959 7.76435 10.5528 7.41789 10.8993L3.8644 14.4528C3.69739 14.6233 3.46996 14.714 3.23721 14.714C3.17858 14.714 3.11817 14.7086 3.05776 14.6962C2.7646 14.6358 2.52296 14.4332 2.4128 14.1561L0.636057 9.7142C0.45483 9.25757 0.675146 8.74054 1.12999 8.55931Z" fill="#909090"/>
<path d="M11.4998 11.7001H12.3748V9.83343C12.3748 7.7745 13.9446 6.1001 15.8749 6.1001C17.8052 6.1001 19.375 7.7745 19.375 9.83343V11.7001H20.25C20.733 11.7001 21.125 12.1182 21.125 12.6334V20.1001C21.125 20.6153 20.733 21.0334 20.25 21.0334H11.4998C11.0168 21.0334 10.6248 20.6153 10.6248 20.1001V12.6334C10.6248 12.1182 11.0168 11.7001 11.4998 11.7001ZM14.1249 11.7001H17.6249V9.83343C17.6249 8.8049 16.8392 7.96676 15.8749 7.96676C14.9106 7.96676 14.1249 8.8049 14.1249 9.83343V11.7001Z" fill="#909090"/>
</svg>
