<svg width="18" height="18" viewBox="0 0 18 18" fill="none" xmlns="http://www.w3.org/2000/svg">
<path fill-rule="evenodd" clip-rule="evenodd" d="M17.738 7.2685e-05C17.462 7.2685e-05 16.9539 0.0519444 16.2125 0.153712C15.4711 0.255913 14.9919 0.354776 14.7757 0.448408C14.5589 0.541973 14.1672 0.866766 13.6014 1.41904C13.0351 1.97328 12.2138 2.99614 11.1398 4.48694C10.064 5.97936 9.06099 7.55468 8.12833 9.21431C7.19528 10.8746 6.32452 12.5982 5.5165 14.3849C4.76885 13.1266 4.09323 12.2734 3.48624 11.8246C2.88088 11.3741 2.37013 11.1494 1.95492 11.1494C1.63064 11.1494 1.22434 11.3194 0.73429 11.6578C0.244801 11.9973 0 12.3295 0 12.6571C0 12.8943 0.224596 13.2457 0.673804 13.7105C1.5635 14.6345 2.35105 15.6145 3.03251 16.6519C3.44878 17.2723 3.72564 17.653 3.86367 17.7919C4.00088 17.9293 4.41909 18 5.11849 18C6.09137 18 6.66926 17.8773 6.85307 17.6306C7.0352 17.3931 7.37229 16.685 7.86392 15.5045C9.07865 12.5492 10.589 9.72685 12.3944 7.0398C14.2012 4.35384 15.8562 2.32174 17.3628 0.945207C17.663 0.683702 17.8433 0.514201 17.9067 0.435933C17.9684 0.357416 18 0.278346 18 0.196011C17.9999 0.066117 17.9124 7.2685e-05 17.738 7.2685e-05Z" fill="#DD5C45"/>
</svg>
