<svg width="27" height="27" viewBox="0 0 27 27" fill="none" xmlns="http://www.w3.org/2000/svg">
<path d="M13.7363 0.22699C6.56841 0.22699 0.736328 6.05907 0.736328 13.227C0.736328 20.3949 6.56841 26.227 13.7363 26.227C20.9042 26.227 26.7363 20.3949 26.7363 13.227C26.7363 6.05907 20.9042 0.22699 13.7363 0.22699ZM21.002 9.80594L12.6937 18.049C12.205 18.5378 11.423 18.5703 10.9017 18.0816L6.50325 14.0741C5.98194 13.5854 5.94936 12.7708 6.4055 12.2495C6.89422 11.7282 7.70876 11.6957 8.23006 12.1844L11.7163 15.3774L19.1448 7.94879C19.6662 7.42749 20.4807 7.42749 21.002 7.94879C21.5233 8.4701 21.5233 9.28463 21.002 9.80594Z" fill="white"/>
</svg>
