<svg width="33" height="32" viewBox="0 0 33 32" fill="none" xmlns="http://www.w3.org/2000/svg">
<path d="M23.1451 12.4626C23.5477 12.0326 23.5254 11.3575 23.0953 10.955C22.6653 10.5524 21.9903 10.5746 21.5877 11.0047L14.3778 18.7062L11.4117 15.538C11.0092 15.1079 10.3341 15.0857 9.9041 15.4883C9.47402 15.8909 9.45178 16.5659 9.8544 16.9959L13.599 20.9959C13.8007 21.2114 14.0827 21.3336 14.3778 21.3336C14.6728 21.3336 14.9548 21.2114 15.1564 20.9959L23.1451 12.4626Z" fill="#DD5C45"/>
<path fill-rule="evenodd" clip-rule="evenodd" d="M19.6037 1.22587C17.8573 -0.408623 15.1427 -0.408623 13.3963 1.22587L11.8841 2.64121C11.4579 3.04013 10.9013 3.27067 10.3179 3.28997L8.24773 3.35846C5.85712 3.43756 3.93756 5.35712 3.85846 7.74773L3.78997 9.81786C3.77067 10.4013 3.54013 10.9579 3.14121 11.3841L1.72587 12.8963C0.0913774 14.6427 0.0913774 17.3573 1.72587 19.1037L3.14121 20.6159C3.54013 21.0421 3.77067 21.5987 3.78997 22.1822L3.85846 24.2523C3.93756 26.6429 5.85712 28.5624 8.24773 28.6415L10.3179 28.71C10.9013 28.7293 11.4579 28.9599 11.8841 29.3588L13.3963 30.7741C15.1427 32.4086 17.8573 32.4086 19.6037 30.7741L21.1159 29.3588C21.5421 28.9599 22.0987 28.7293 22.6821 28.71L24.7523 28.6415C27.1429 28.5624 29.0624 26.6429 29.1415 24.2523L29.21 22.1822C29.2293 21.5987 29.4599 21.0421 29.8588 20.6159L31.2741 19.1037C32.9086 17.3573 32.9086 14.6427 31.2741 12.8963L29.8588 11.3841C29.4599 10.9579 29.2293 10.4013 29.21 9.81786L29.1415 7.74773C29.0624 5.35712 27.1429 3.43756 24.7523 3.35846L22.6822 3.28997C22.0987 3.27067 21.5421 3.04012 21.1159 2.64121L19.6037 1.22587ZM14.8541 2.78342C15.7802 1.91664 17.2198 1.91664 18.1459 2.78342L19.6581 4.19876C20.4618 4.95099 21.5114 5.38576 22.6116 5.42213L24.6817 5.49061C25.9494 5.53259 26.9674 6.55056 27.0094 7.81829L27.0779 9.88837C27.1142 10.9886 27.549 12.0382 28.3012 12.8419L29.7166 14.3541C30.5834 15.2802 30.5834 16.7198 29.7166 17.6459L28.3012 19.1581C27.549 19.9618 27.1142 21.0114 27.0779 22.1116L27.0094 24.1817C26.9674 25.4494 25.9494 26.4674 24.6817 26.5094L22.6116 26.5779C21.5114 26.6142 20.4618 27.049 19.6581 27.8012L18.1459 29.2166C17.2198 30.0834 15.7802 30.0834 14.8541 29.2166L13.3419 27.8012C12.5382 27.049 11.4886 26.6142 10.3884 26.5779L8.31829 26.5094C7.05056 26.4674 6.03259 25.4494 5.99061 24.1817L5.92213 22.1116C5.88576 21.0114 5.45099 19.9618 4.69876 19.1581L3.28342 17.6459C2.41664 16.7198 2.41664 15.2802 3.28342 14.3541L4.69876 12.8419C5.45099 12.0382 5.88576 10.9886 5.92213 9.88837L5.99061 7.81829C6.03259 6.55056 7.05056 5.53259 8.31829 5.49061L10.3884 5.42213C11.4886 5.38576 12.5382 4.95099 13.3419 4.19876L14.8541 2.78342Z" fill="#DD5C45"/>
</svg>
