<svg width="16" height="16" viewBox="0 0 16 16" fill="none" xmlns="http://www.w3.org/2000/svg">
<g clip-path="url(#clip0_361_5401)">
<path d="M15.6292 13.8457L2.15969 0.376184C1.66591 -0.117596 0.865337 -0.117596 0.371558 0.376184L0.363202 0.38454C-0.130578 0.878319 -0.130578 1.67889 0.363202 2.17267L13.8327 15.6422C14.3265 16.1359 15.1271 16.1359 15.6208 15.6422L15.6292 15.6338C16.123 15.14 16.123 14.3395 15.6292 13.8457Z" fill="#8F8F8F"/>
<path d="M2.16573 15.6288L15.6352 2.15933C16.129 1.66555 16.129 0.864971 15.6352 0.371192L15.6269 0.362836C15.1331 -0.130944 14.3325 -0.130944 13.8387 0.362836L0.369245 13.8323C-0.124534 14.3261 -0.124534 15.1267 0.369246 15.6205L0.377602 15.6288C0.871381 16.1226 1.67196 16.1226 2.16573 15.6288Z" fill="#8F8F8F"/>
</g>
<defs>
<clipPath id="clip0_361_5401">
<rect width="16" height="16" fill="white"/>
</clipPath>
</defs>
</svg>
