<svg width="66" height="67" viewBox="0 0 66 67" fill="none" xmlns="http://www.w3.org/2000/svg">
<path d="M29.5309 57.9895C29.5309 59.5285 30.7831 60.7807 32.3221 60.7807H37.0267C38.5657 60.7807 39.8179 59.5285 39.8179 57.9895C39.8179 56.4505 38.5657 55.1983 37.0267 55.1983H32.3221C30.7831 55.1982 29.5309 56.4503 29.5309 57.9895ZM37.7555 57.9895C37.7555 58.3913 37.4286 58.7182 37.0268 58.7182H32.3222C31.9204 58.7182 31.5935 58.3913 31.5935 57.9895C31.5935 57.5877 31.9204 57.2608 32.3222 57.2608H37.0268C37.4285 57.2607 37.7555 57.5876 37.7555 57.9895ZM15.0857 38.977C15.8561 38.1747 16.3311 37.0868 16.3311 35.8893C16.3311 33.4289 14.3295 31.4272 11.8691 31.4272C9.40862 31.4272 7.40697 33.4289 7.40697 35.8893C7.40697 37.0867 7.88198 38.1747 8.65233 38.9768C6.19344 40.0831 4.40113 42.4246 4.09717 45.2659C4.06597 45.5569 4.15982 45.8474 4.3555 46.065C4.55118 46.2826 4.83 46.4069 5.12249 46.4069L18.6156 46.4067C18.9082 46.4067 19.1871 46.2824 19.3826 46.0649C19.5783 45.8473 19.6721 45.5567 19.6409 45.2658C19.3367 42.4246 17.5444 40.0832 15.0857 38.977ZM11.8689 33.4897C13.1921 33.4897 14.2685 34.5662 14.2685 35.8893C14.2685 37.2124 13.192 38.2889 11.8689 38.2889C10.5458 38.2889 9.46934 37.2124 9.46934 35.8893C9.46934 34.5662 10.5457 33.4897 11.8689 33.4897ZM6.38732 44.3445C7.13304 42.0036 9.318 40.3514 11.8688 40.3514C14.4196 40.3514 16.6046 42.0034 17.3503 44.3444L6.38732 44.3445ZM30.5282 38.9172C30.5282 39.4867 30.0665 39.9484 29.497 39.9484H22.2843C21.7148 39.9484 21.253 39.4867 21.253 38.9172C21.253 38.3477 21.7148 37.8859 22.2843 37.8859H29.497C30.0665 37.8859 30.5282 38.3477 30.5282 38.9172ZM30.5282 43.5043C30.5282 44.0738 30.0665 44.5355 29.497 44.5355H22.2843C21.7148 44.5355 21.253 44.0738 21.253 43.5043C21.253 42.9348 21.7148 42.473 22.2843 42.473H29.497C30.0665 42.473 30.5282 42.9348 30.5282 43.5043ZM30.5282 34.33C30.5282 34.8995 30.0665 35.3613 29.497 35.3613H22.2843C21.7148 35.3613 21.253 34.8995 21.253 34.33C21.253 33.7605 21.7148 33.2988 22.2843 33.2988H29.497C30.0665 33.2988 30.5282 33.7605 30.5282 34.33ZM62.684 11.7656H52.6215V4.96868C52.6215 2.92281 50.957 1.25824 48.911 1.25824H20.4378C18.3918 1.25824 16.7274 2.92281 16.7274 4.96868V26.4833H3.39154C2.19026 26.4833 1.21289 27.4606 1.21289 28.6619V49.1723C1.21289 50.3736 2.19026 51.3509 3.39154 51.3509H16.7273V61.4852C16.7273 63.5312 18.3917 65.1956 20.4377 65.1956H48.9109C50.9569 65.1956 52.6213 63.5312 52.6213 61.4852V39.7119C53.1125 39.8557 53.6075 39.9879 54.1065 40.107C54.5262 40.2071 54.9462 40.2559 55.3597 40.2559C57.1184 40.2557 58.7577 39.3749 59.746 37.828L61.9025 34.4529C62.3476 33.7563 62.4538 32.9094 62.1939 32.1295C61.9341 31.3496 61.3412 30.7357 60.5673 30.4454L54.1194 28.0263C53.6219 27.8395 53.1111 27.8 52.6215 27.902V25.2782H62.6842C63.843 25.2782 64.786 24.3354 64.786 23.1764V13.8672C64.7858 12.7085 63.8429 11.7656 62.684 11.7656ZM55.259 18.9061L49.4942 13.8281H61.0237L55.259 18.9061ZM51.9897 18.7749L47.7945 22.1099V15.0794L51.9897 18.7749ZM53.5621 20.1599L54.5774 21.0542C54.7723 21.2259 55.0155 21.3117 55.259 21.3117C55.5025 21.3117 55.7458 21.2258 55.9407 21.0542L56.9558 20.1599L60.8001 23.2159H49.7176L53.5621 20.1599ZM58.5281 18.7749L62.7233 15.0794V22.1099L58.5281 18.7749ZM42.7841 3.32074L42.1606 5.23977H27.1883L26.5648 3.32074H42.7841ZM3.27539 49.1723V28.6619C3.27539 28.6 3.32966 28.5458 3.39154 28.5458H32.1255C32.1873 28.5458 32.2415 28.6 32.2415 28.6619V49.1723C32.2415 49.2342 32.1873 49.2884 32.1255 49.2884H3.39154C3.32966 49.2886 3.27539 49.2343 3.27539 49.1723ZM53.3948 29.9573L59.8427 32.3766C60.1009 32.4734 60.2006 32.6719 60.2374 32.7816C60.2739 32.8914 60.3131 33.1102 60.1647 33.3426L58.0082 36.7176C57.2559 37.8951 55.9442 38.425 54.5854 38.1009C49.3885 36.8607 44.6172 34.159 40.7792 30.2799C36.9081 26.45 34.2063 21.6787 32.9661 16.4818C32.6418 15.1229 33.172 13.8113 34.3494 13.059L37.7246 10.9026C37.8518 10.8213 37.975 10.7963 38.0785 10.7963C38.1639 10.7963 38.2358 10.8133 38.2853 10.8299C38.3951 10.8665 38.5936 10.9663 38.6904 11.2246L41.1098 17.6724C41.1889 17.8833 41.1688 18.0697 41.0463 18.2588L39.64 20.4303C39.0569 21.3307 39.0507 22.4534 39.6241 23.3601C40.6466 24.9769 41.856 26.4864 43.2191 27.8471C44.5804 29.2108 46.0904 30.4207 47.7074 31.4433C48.6142 32.0167 49.7368 32.0106 50.6372 31.4273L52.8085 30.0211C52.9975 29.8981 53.1836 29.8779 53.3948 29.9573ZM50.559 29.0204L49.5159 29.696C49.2891 29.8429 49.0383 29.8444 48.8096 29.6999C47.3219 28.759 45.932 27.6453 44.6787 26.3897C44.6781 26.3893 44.6778 26.3888 44.6772 26.3884C43.422 25.1353 42.3082 23.7454 41.3672 22.2575C41.2227 22.0289 41.224 21.778 41.3709 21.5512L42.7773 19.3796C43.2575 18.6382 43.3509 17.7745 43.0406 16.9475L40.6213 10.4999C40.3309 9.72596 39.7171 9.13299 38.9373 8.87312C38.157 8.61311 37.3104 8.71946 36.6139 9.16457L33.2387 11.3209C31.3282 12.5417 30.4336 14.7554 30.9598 16.9606C32.2894 22.5324 35.1834 27.6452 39.3207 31.7384C42.5342 34.9864 46.3689 37.4659 50.5588 39.0269V61.4854C50.5588 62.3941 49.8196 63.1334 48.9109 63.1334H20.4378C19.5292 63.1334 18.7899 62.3941 18.7899 61.4854V51.3512H32.1256C33.3269 51.3512 34.3042 50.3738 34.3042 49.1726V28.6619C34.3042 27.4606 33.3269 26.4833 32.1256 26.4833H18.7899V4.96868C18.7899 4.06002 19.5292 3.32074 20.4378 3.32074H24.3962L25.4584 6.58967C25.5964 7.01455 25.9924 7.30227 26.4391 7.30227H42.9098C43.3566 7.30227 43.7525 7.01468 43.8905 6.58967L44.9527 3.32074H48.911C49.8197 3.32074 50.559 4.06002 50.559 4.96868V11.7656H47.8338C46.6749 11.7656 45.732 12.7085 45.732 13.8675V23.1767C45.732 24.3355 46.6748 25.2785 47.8338 25.2785H50.559V29.0204Z" fill="#DD5C45"/>
</svg>
