<svg width="27" height="27" viewBox="0 0 27 27" fill="none" xmlns="http://www.w3.org/2000/svg">
<path fill-rule="evenodd" clip-rule="evenodd" d="M10.4252 6.42458H23.5241L15.744 11.9232L10.452 8.18297C10.6534 7.62676 10.6551 6.99804 10.4252 6.42458ZM6.99943 9.61601L8.90872 8.41749C9.47533 8.06182 9.6634 7.30297 9.33168 6.71064L7.60798 3.63267C7.43116 3.31686 7.1635 3.1137 6.81851 3.03341C6.47347 2.95307 6.14719 3.01792 5.85585 3.22474L2.71233 5.45606C1.21601 10.8915 7.94016 22.6591 13.0972 24L16.5433 22.309C16.8627 22.1523 17.0803 21.8934 17.1854 21.5452C17.2904 21.197 17.2536 20.8565 17.0767 20.5407L15.353 17.4627C15.0213 16.8704 14.2898 16.6588 13.7077 16.9869L11.7463 18.0923C9.80663 16.3138 7.5236 12.2371 6.99943 9.61601ZM24.4754 7.13173L16.0551 13.0829C15.8581 13.2215 15.6049 13.2107 15.4218 13.0751L9.83179 9.12426C9.72589 9.22266 9.60989 9.31236 9.4839 9.39147L8.2763 10.1495C8.91075 12.2604 10.4806 15.0636 11.9366 16.6855L13.1772 15.9864C14.2856 15.3617 15.6792 15.7647 16.3108 16.8925L17.3798 18.8014H23.6061C24.0978 18.8014 24.5 18.3867 24.5 17.8798V7.34611C24.5 7.27237 24.4915 7.20058 24.4754 7.13173Z" fill="#909090"/>
</svg>
