<svg width="50" height="50" viewBox="0 0 50 50" fill="none" xmlns="http://www.w3.org/2000/svg">
<path d="M26.5426 32.3613H38.9404C39.4053 32.3613 39.7152 32.0514 39.7152 31.5864V24.6127C39.7152 24.1478 39.4053 23.8379 38.9404 23.8379H26.5426C26.0777 23.8379 25.7678 24.1478 25.7678 24.6127V31.5864C25.7677 32.0513 26.0777 32.3613 26.5426 32.3613ZM27.3175 25.3875H38.1655V30.8115H27.3175V25.3875Z" fill="#DD5C45"/>
<path d="M5.62151 22.2879H11.8204C12.2853 22.2879 12.5952 21.978 12.5952 21.5131C12.5952 21.0482 12.2853 20.7383 11.8204 20.7383H5.62151C5.15659 20.7383 4.84668 21.0482 4.84668 21.5131C4.84668 21.978 5.15659 22.2879 5.62151 22.2879Z" fill="#DD5C45"/>
<path d="M14.9198 22.2879H21.1187C21.5837 22.2879 21.8936 21.978 21.8936 21.5131C21.8936 21.0482 21.5837 20.7383 21.1187 20.7383H14.9198C14.4549 20.7383 14.145 21.0482 14.145 21.5131C14.145 21.978 14.4549 22.2879 14.9198 22.2879Z" fill="#DD5C45"/>
<path d="M5.62151 25.3875H15.6946C16.1595 25.3875 16.4695 25.0776 16.4695 24.6127C16.4695 24.1478 16.1595 23.8379 15.6946 23.8379H5.62151C5.15659 23.8379 4.84668 24.1478 4.84668 24.6127C4.84668 25.0776 5.15659 25.3875 5.62151 25.3875Z" fill="#DD5C45"/>
<path d="M21.1184 23.8379H18.7939C18.329 23.8379 18.019 24.1478 18.019 24.6127C18.019 25.0776 18.329 25.3875 18.7939 25.3875H21.1184C21.5834 25.3875 21.8933 25.0776 21.8933 24.6127C21.8933 24.1478 21.5834 23.8379 21.1184 23.8379Z" fill="#DD5C45"/>
<path d="M47.5412 14.2296C46.9988 13.5322 46.3014 13.1447 45.4491 13.0673L43.5894 12.8419V10.6652V9.11552C43.5894 7.41086 42.1947 6.01611 40.49 6.01611H4.84647C3.14181 6.01602 1.74707 7.41077 1.74707 9.11552V10.6653V16.8642V33.911C1.74707 35.3106 2.68752 36.5005 3.96749 36.8819C3.92845 38.4494 5.11443 39.8102 6.70622 39.9549L42.5047 43.9841C42.5821 43.9841 42.7371 43.9841 42.8146 43.9841C44.3643 43.9841 45.7591 42.8218 45.914 41.3496L48.2386 16.4767C48.316 15.7018 48.0835 14.8494 47.5412 14.2296ZM3.29682 11.4401H42.0397V13.4548V16.0892H3.29682V11.4401ZM4.84647 7.56577H40.4899C41.3423 7.56577 42.0397 8.26314 42.0397 9.11552V9.89034H3.29682V9.11552C3.29682 8.26314 3.99419 7.56577 4.84647 7.56577ZM3.29682 33.9109V17.6389H42.0397V33.9109C42.0397 34.7633 41.3424 35.4607 40.49 35.4607H4.92402H4.84656C3.99419 35.4607 3.29682 34.7633 3.29682 33.9109ZM46.6888 16.1667L44.3642 41.0396C44.2868 41.892 43.5119 42.5118 42.6596 42.4344L6.93859 38.4051C6.16376 38.3277 5.6213 37.7078 5.54384 37.0104H40.4899C42.1946 37.0104 43.5893 35.6157 43.5893 33.911V16.8641V14.307L45.3715 14.462C45.759 14.462 46.1463 14.6945 46.3788 15.0044C46.6114 15.3143 46.7664 15.7792 46.6888 16.1667Z" fill="#DD5C45"/>
</svg>
