<svg width="22" height="22" viewBox="0 0 22 22" fill="none" xmlns="http://www.w3.org/2000/svg">
<path d="M21.8083 5.55096C21.6692 3.36951 19.7384 1.66047 17.4128 1.66047H16.2806V0.830236C16.2806 0.371946 15.8863 0 15.4005 0C14.9147 0 14.5205 0.371946 14.5205 0.830236V1.66047H7.47996V0.830236C7.47996 0.371946 7.08569 0 6.59989 0C6.1141 0 5.71983 0.371946 5.71983 0.830236V1.66047H4.58762C2.26161 1.66047 0.33075 3.36951 0.19214 5.55096C-0.068799 9.65398 -0.0639586 13.816 0.206661 17.9211C0.343951 20.0058 2.1142 21.6758 4.32404 21.8053C6.53873 21.9352 8.76925 22 10.9998 22C13.2299 22 15.4608 21.9352 17.6755 21.8053C19.8853 21.6758 21.6556 20.0058 21.7929 17.9211C22.064 13.818 22.0688 9.65647 21.8083 5.55096ZM20.0367 17.8181C19.954 19.0689 18.8922 20.0705 17.5668 20.1482C13.2096 20.4035 8.79081 20.4035 4.43361 20.1482C3.10779 20.0701 2.046 19.0684 1.96371 17.8181C1.75558 14.662 1.71289 11.4726 1.82422 8.30236H20.1767C20.2875 11.4739 20.2449 14.6632 20.0367 17.8181ZM6.59989 4.98141C7.08569 4.98141 7.47996 4.60947 7.47996 4.15118V3.32094H14.5205V4.15118C14.5205 4.60947 14.9147 4.98141 15.4005 4.98141C15.8863 4.98141 16.2806 4.60947 16.2806 4.15118V3.32094H17.4128C18.809 3.32094 19.9681 4.34421 20.0512 5.65017C20.0719 5.97977 20.0807 6.31145 20.0979 6.64189H1.90255C1.92015 6.31145 1.92851 5.97977 1.94919 5.65017C2.03236 4.34421 3.19096 3.32094 4.58762 3.32094H5.71983V4.15118C5.71983 4.60947 6.1141 4.98141 6.59989 4.98141Z" fill="#3F3F3F"/>
<path d="M6.60135 13.2851C7.33042 13.2851 7.92145 12.7276 7.92145 12.0398C7.92145 11.352 7.33042 10.7944 6.60135 10.7944C5.87228 10.7944 5.28125 11.352 5.28125 12.0398C5.28125 12.7276 5.87228 13.2851 6.60135 13.2851Z" fill="#3F3F3F"/>
<path d="M10.9998 13.2851C11.7289 13.2851 12.3199 12.7276 12.3199 12.0398C12.3199 11.352 11.7289 10.7944 10.9998 10.7944C10.2707 10.7944 9.67969 11.352 9.67969 12.0398C9.67969 12.7276 10.2707 13.2851 10.9998 13.2851Z" fill="#3F3F3F"/>
<path d="M6.60135 17.4341C7.33042 17.4341 7.92145 16.8765 7.92145 16.1887C7.92145 15.5009 7.33042 14.9434 6.60135 14.9434C5.87228 14.9434 5.28125 15.5009 5.28125 16.1887C5.28125 16.8765 5.87228 17.4341 6.60135 17.4341Z" fill="#3F3F3F"/>
<path d="M15.4021 13.2851C16.1312 13.2851 16.7222 12.7276 16.7222 12.0398C16.7222 11.352 16.1312 10.7944 15.4021 10.7944C14.6731 10.7944 14.082 11.352 14.082 12.0398C14.082 12.7276 14.6731 13.2851 15.4021 13.2851Z" fill="#3F3F3F"/>
<path d="M15.4021 17.4341C16.1312 17.4341 16.7222 16.8765 16.7222 16.1887C16.7222 15.5009 16.1312 14.9434 15.4021 14.9434C14.6731 14.9434 14.082 15.5009 14.082 16.1887C14.082 16.8765 14.6731 17.4341 15.4021 17.4341Z" fill="#3F3F3F"/>
<path d="M10.9998 17.4341C11.7289 17.4341 12.3199 16.8765 12.3199 16.1887C12.3199 15.5009 11.7289 14.9434 10.9998 14.9434C10.2707 14.9434 9.67969 15.5009 9.67969 16.1887C9.67969 16.8765 10.2707 17.4341 10.9998 17.4341Z" fill="#3F3F3F"/>
</svg>
