<svg width="29" height="22" viewBox="0 0 29 22" fill="none" xmlns="http://www.w3.org/2000/svg">
<path d="M23.7731 19.5193L5.22551 0.972259L5.22155 0.967728C5.12113 0.868131 5.00208 0.789287 4.8712 0.735699C4.74031 0.68211 4.60015 0.654826 4.45872 0.655405C4.31729 0.655983 4.17736 0.684413 4.04692 0.739071C3.91647 0.793728 3.79807 0.873543 3.69848 0.973958C3.59888 1.07437 3.52004 1.19342 3.46645 1.32431C3.41286 1.45519 3.38558 1.59535 3.38615 1.73678C3.38732 2.02241 3.50191 2.29588 3.70471 2.49703L5.3286 4.12092C3.35926 5.46968 1.66415 7.18036 0.333451 9.16194C0.116148 9.48278 0 9.86138 0 10.2489C0 10.6364 0.116148 11.015 0.333451 11.3358C3.7302 16.3632 9.11503 19.3086 14.4999 19.2717C16.2441 19.2781 17.9767 18.9877 19.6236 18.4131L22.2523 21.0418C22.4548 21.2378 22.7262 21.3465 23.008 21.3446C23.2898 21.3426 23.5597 21.2302 23.7595 21.0315C23.9594 20.8328 24.0733 20.5636 24.0768 20.2818C24.0802 19.9999 23.973 19.728 23.7782 19.5244L23.7731 19.5193ZM14.4999 16.3485C13.4796 16.3481 12.4758 16.0921 11.58 15.6038C10.6843 15.1154 9.92521 14.4104 9.37216 13.5531C8.81912 12.6958 8.48975 11.7135 8.41416 10.6961C8.33857 9.67869 8.51917 8.65856 8.93944 7.72893L10.6358 9.42532C10.4992 10.0692 10.5256 10.737 10.7126 11.3681C10.8997 11.9992 11.2415 12.5736 11.7069 13.039C12.1723 13.5044 12.7467 13.8462 13.3778 14.0333C14.0089 14.2203 14.6767 14.2467 15.3206 14.1101L17.017 15.8065C16.2263 16.165 15.368 16.3498 14.4999 16.3485Z" fill="#7A7A7A"/>
<path d="M28.6671 9.15908C25.2703 4.12881 19.8855 1.1835 14.5007 1.22031C12.7564 1.21399 11.0238 1.50436 9.37695 2.07898L11.9824 4.68446C13.113 4.17281 14.3727 4.01788 15.5936 4.24032C16.8145 4.46275 17.9386 5.05198 18.8161 5.92949C19.6936 6.80699 20.2828 7.93109 20.5052 9.15197C20.7277 10.3729 20.5727 11.6325 20.0611 12.7631L23.6714 16.3734C25.6411 15.0249 27.3364 13.3141 28.6671 11.3324C28.8843 11.0116 29.0004 10.6331 29.0004 10.2457C29.0004 9.85835 28.8843 9.47985 28.6671 9.15908Z" fill="#7A7A7A"/>
<path d="M14.4994 6.29578C14.2236 6.29581 13.9485 6.32467 13.6787 6.38187L18.3635 11.0661C18.4856 10.4905 18.4777 9.89499 18.3402 9.32293C18.2027 8.75087 17.9392 8.21674 17.5689 7.75957C17.1986 7.30239 16.7308 6.93371 16.1997 6.68046C15.6687 6.42721 15.0878 6.29578 14.4994 6.29578Z" fill="#7A7A7A"/>
</svg>
