<svg width="30" height="18" viewBox="0 0 30 18" fill="none" xmlns="http://www.w3.org/2000/svg">
<path d="M15 0.0585938C9.26818 0.0585938 4.07027 3.19453 0.234735 8.28811C-0.0782449 8.70542 -0.0782449 9.28842 0.234735 9.70573C4.07027 14.8055 9.26818 17.9414 15 17.9414C20.7318 17.9414 25.9297 14.8054 29.7653 9.71186C30.0782 9.29456 30.0782 8.71156 29.7653 8.29425C25.9297 3.19453 20.7318 0.0585938 15 0.0585938ZM15.4112 15.2964C11.6063 15.5357 8.46425 12.3998 8.70359 8.58882C8.89997 5.44675 11.4468 2.89996 14.5888 2.70358C18.3937 2.46424 21.5357 5.60017 21.2964 9.41116C21.0939 12.5471 18.5471 15.0939 15.4112 15.2964ZM15.2209 12.3875C13.1712 12.5164 11.4774 10.8288 11.6125 8.77906C11.7168 7.08529 13.0914 5.71677 14.7852 5.60631C16.8349 5.47743 18.5287 7.16507 18.3937 9.21478C18.2832 10.9147 16.9086 12.2832 15.2209 12.3875Z" fill="#7A7A7A"/>
</svg>
