<svg width="26" height="19" viewBox="0 0 26 19" fill="none" xmlns="http://www.w3.org/2000/svg">
<path d="M18.3732 6.23389C17.2044 6.23389 16.2534 7.18485 16.2534 8.35371C16.2534 9.90514 17.8719 10.9282 19.2686 10.2745L18.8962 9.90206C18.6005 9.60642 18.6005 9.127 18.8962 8.83132C19.1919 8.53568 19.6713 8.53568 19.967 8.83132L20.3223 9.18661C20.92 7.79364 19.8916 6.23389 18.3732 6.23389Z" fill="#909090"/>
<path d="M23.5721 0H2.27141C1.01895 0 0 1.01895 0 2.27141V14.4363C0 15.6889 1.01895 16.7078 2.27141 16.7078H11.0289L12.3161 18.4239C12.619 18.8278 13.2252 18.827 13.5275 18.4239L14.8146 16.7078H23.5721C24.8246 16.7078 25.8435 15.6889 25.8435 14.4363V2.27141C25.8435 1.01895 24.8245 0 23.5721 0ZM6.70252 7.56368C7.12066 7.56368 7.45965 7.90268 7.45965 8.32082C7.45965 8.73896 7.12066 9.07795 6.70252 9.07795H5.32852V11.2307C5.32852 11.6489 4.98947 11.9879 4.57138 11.9879C4.15324 11.9879 3.81425 11.6489 3.81425 11.2307V5.51901C3.81425 5.10087 4.15324 4.76188 4.57138 4.76188H6.88635C7.30449 4.76188 7.64348 5.10087 7.64348 5.51901C7.64348 5.93715 7.30449 6.27615 6.88635 6.27615H5.32852V7.56368H6.70252ZM13.5173 11.9391C13.126 12.0869 12.6893 11.8892 12.5416 11.4981L12.1933 10.575H9.7672L9.41478 11.5003C9.26567 11.8917 8.82769 12.0869 8.43777 11.9383C8.04704 11.7895 7.85089 11.3521 7.99969 10.9612L10.1603 5.28839C10.2837 4.95994 10.6063 4.72008 10.9877 4.71968C11.348 4.71933 11.6713 4.93395 11.8093 5.26961C11.8167 5.28743 11.7207 5.03374 13.9584 10.9634C14.106 11.3546 13.9085 11.7915 13.5173 11.9391ZM21.8077 11.7429C21.512 12.0386 21.0327 12.0386 20.737 11.7429L20.3774 11.3833C19.8024 11.7649 19.1135 11.9879 18.3732 11.9879C16.3693 11.9879 14.7392 10.3577 14.7392 8.35383C14.7392 6.34999 16.3693 4.71973 18.3732 4.71973C20.377 4.71973 22.0073 6.34999 22.0073 8.35383C22.0073 9.07058 21.7979 9.73898 21.4382 10.3026L21.8077 10.6721C22.1034 10.9678 22.1034 11.4472 21.8077 11.7429Z" fill="#909090"/>
<path d="M10.3438 9.06073H11.6217L10.9856 7.37524L10.3438 9.06073Z" fill="#909090"/>
</svg>
