<svg width="28" height="29" viewBox="0 0 28 29" fill="none" xmlns="http://www.w3.org/2000/svg">
<path d="M8.54819 11.3706C9.71701 11.3706 10.668 12.3216 10.668 13.4904C10.668 15.0419 9.04947 16.0649 7.65275 15.4112L8.02516 15.0388C8.32085 14.7431 8.32085 14.2637 8.02516 13.968C7.72953 13.6724 7.25011 13.6724 6.95442 13.968L6.59912 14.3233C6.00139 12.9304 7.02978 11.3706 8.54819 11.3706Z" fill="#909090"/>
<path d="M3.34978 5.13672H24.6505C25.9029 5.13672 26.9219 6.15567 26.9219 7.40812V19.5731C26.9219 20.8256 25.9029 21.8445 24.6505 21.8445H15.8929L14.6058 23.5606C14.3029 23.9646 13.6967 23.9637 13.3944 23.5606L12.1073 21.8445H3.34978C2.09728 21.8445 1.07837 20.8256 1.07837 19.5731V7.40812C1.07837 6.15567 2.09733 5.13672 3.34978 5.13672ZM20.2194 12.7004C19.8012 12.7004 19.4622 13.0394 19.4622 13.4575C19.4622 13.8757 19.8012 14.2147 20.2194 14.2147H21.5934V16.3675C21.5934 16.7856 21.9324 17.1246 22.3505 17.1246C22.7686 17.1246 23.1076 16.7856 23.1076 16.3675V10.6557C23.1076 10.2376 22.7686 9.8986 22.3505 9.8986H20.0355C19.6174 9.8986 19.2784 10.2376 19.2784 10.6557C19.2784 11.0739 19.6174 11.4129 20.0355 11.4129H21.5934V12.7004H20.2194ZM13.4045 17.0758C13.7959 17.2236 14.2326 17.0259 14.3802 16.6348L14.7286 15.7117H17.1547L17.5071 16.637C17.6562 17.0284 18.0942 17.2236 18.4841 17.075C18.8748 16.9262 19.071 16.4888 18.9222 16.098L16.7616 10.4251C16.6382 10.0967 16.3156 9.8568 15.9342 9.8564C15.5738 9.85604 15.2505 10.0707 15.1125 10.4063C15.1052 10.4241 15.2012 10.1705 12.9634 16.1001C12.8158 16.4913 13.0133 16.9282 13.4045 17.0758ZM5.11416 16.8796C5.40984 17.1753 5.88921 17.1753 6.1849 16.8796L6.54449 16.52C7.11946 16.9016 7.8084 17.1246 8.54867 17.1246C10.5526 17.1246 12.1827 15.4944 12.1827 13.4905C12.1827 11.4867 10.5526 9.85645 8.54867 9.85645C6.54489 9.85645 4.91458 11.4867 4.91458 13.4905C4.91458 14.2073 5.124 14.8757 5.48369 15.4393L5.11416 15.8088C4.81847 16.1045 4.81847 16.5839 5.11416 16.8796Z" fill="#909090"/>
<path d="M16.5781 14.1977H15.3002L15.9362 12.5122L16.5781 14.1977Z" fill="#909090"/>
</svg>
