<svg width="28" height="29" viewBox="0 0 28 29" fill="none" xmlns="http://www.w3.org/2000/svg">
<path d="M6.87528 7.90896C6.15615 7.90896 5.40575 7.55855 4.91684 6.99447C4.59394 6.62186 4.23591 5.98962 4.36442 5.09345C4.51548 4.03971 5.54283 2.71675 6.41403 1.78072C6.66095 1.51543 7.08209 1.51815 7.32559 1.78662C7.49849 1.97734 7.68316 2.18803 7.86868 2.4115C9.11107 3.90762 9.37499 4.72846 9.42171 5.08457C9.54179 5.99941 9.18069 6.6318 8.85662 7.00123C8.36545 7.56112 7.60626 7.90896 6.87528 7.90896Z" fill="#909090"/>
<path d="M4.60925 8.71256C5.28176 9.16221 6.07773 9.41534 6.87511 9.41534C8.04434 9.41534 9.20822 8.88426 9.98849 7.9947C10.7367 7.14177 11.0656 6.03863 10.9147 4.88868C10.8948 4.73731 10.8607 4.58222 10.8151 4.42465C11.8261 4.13847 12.8849 3.9917 14.0006 3.9917C20.468 3.9917 25.7109 9.23547 25.7109 15.704C25.7109 22.1725 20.468 27.4163 14.0006 27.4163C7.53313 27.4163 2.29022 22.1725 2.29022 15.704C2.29022 13.1071 3.16949 10.6664 4.60925 8.71256ZM9.97442 11.3247C8.65453 11.3247 7.58071 12.3987 7.58071 13.7188C7.58071 14.1348 7.91785 14.472 8.33369 14.472C8.74954 14.472 9.08667 14.1348 9.08667 13.7188C9.08667 13.2293 9.48491 12.831 9.97437 12.831C10.4638 12.831 10.8621 13.2293 10.8621 13.7188C10.8621 14.1348 11.1993 14.472 11.6151 14.472C12.0309 14.472 12.3681 14.1348 12.3681 13.7188C12.3681 12.3987 11.2943 11.3247 9.97442 11.3247ZM18.0268 11.3247C16.7069 11.3247 15.633 12.3987 15.633 13.7188C15.633 14.1348 15.9702 14.472 16.386 14.472C16.8019 14.472 17.139 14.1348 17.139 13.7188C17.139 13.2293 17.5372 12.831 18.0267 12.831C18.5162 12.831 18.9144 13.2293 18.9144 13.7188C18.9144 14.1348 19.2516 14.472 19.6674 14.472C20.0833 14.472 20.4204 14.1348 20.4204 13.7188C20.4205 12.3987 19.3467 11.3247 18.0268 11.3247ZM8.12088 22.138C8.5237 22.2415 8.93405 21.9987 9.03748 21.5959C9.55645 19.5745 11.7419 17.991 14.013 17.991C16.2322 17.991 18.4083 19.5801 18.9671 21.6087C19.0591 21.9427 19.3622 22.1619 19.6926 22.1619C19.7589 22.1619 19.8261 22.1531 19.8931 22.1347C20.2941 22.0242 20.5295 21.6096 20.4191 21.2086C20.0611 19.9088 19.2071 18.7106 18.0146 17.8347C16.8294 16.9642 15.4083 16.4848 14.013 16.4848C11.0382 16.4848 8.27209 18.5211 7.57884 21.2213C7.47536 21.6241 7.71805 22.0346 8.12088 22.138Z" fill="#909090"/>
</svg>
