<svg width="28" height="29" viewBox="0 0 28 29" fill="none" xmlns="http://www.w3.org/2000/svg">
<path d="M19.5504 8.86865H19.8542L20.4219 11.7079H18.9827L19.5504 8.86865Z" fill="#909090"/>
<path d="M8.06641 14.5474C7.75991 15.3707 7.35224 16.0372 6.90108 16.6043C6.44992 16.0372 5.99493 15.3707 5.68843 14.5474H8.06641Z" fill="#909090"/>
<path d="M4.01502 6.69189H12.8301L10.9921 21.4408C10.9596 22.0441 11.1245 22.612 11.5182 23.0567L14.6309 26.614H4.01502C2.84079 26.614 1.88557 25.6588 1.88557 24.4846V8.86866C1.88557 7.69444 2.84079 6.69189 4.01502 6.69189ZM4.01502 14.5472H4.20459C4.60847 15.843 5.24896 16.8569 5.91457 17.6563C5.39314 18.133 4.83556 18.524 4.2812 18.962C3.9755 19.2067 3.92558 19.6531 4.17099 19.9595C4.41526 20.2654 4.86339 20.315 5.16846 20.0697C5.77081 19.5943 6.3362 19.1963 6.9016 18.6775C7.46699 19.1963 7.98506 19.5943 8.5874 20.0697C8.89248 20.315 9.34061 20.2654 9.58488 19.9595C9.83029 19.6531 9.78037 19.2067 9.47467 18.962C8.92031 18.524 8.41005 18.133 7.88862 17.6563C8.55423 16.857 9.14745 15.843 9.55128 14.5472H9.74085C10.1332 14.5472 10.4507 14.2297 10.4507 13.8374C10.4507 13.445 10.1332 13.1275 9.74085 13.1275H7.61141V12.4177C7.61141 12.0254 7.29393 11.7079 6.9016 11.7079C6.50926 11.7079 6.19178 12.0254 6.19178 12.4177V13.1275H4.01502C3.62268 13.1275 3.3052 13.445 3.3052 13.8374C3.3052 14.2297 3.62268 14.5472 4.01502 14.5472Z" fill="#909090"/>
<path d="M14.5592 4.25109C14.6916 3.18774 15.6004 2.38574 16.672 2.38574H23.9838C25.1581 2.38574 26.1133 3.34096 26.1133 4.51519V20.2257C26.1133 21.4 25.1581 22.3552 23.9838 22.3552C19.7406 22.3552 16.688 22.3552 12.79 22.3552C12.5829 22.1185 12.4094 21.9703 12.402 21.6613C12.4002 21.5839 14.5496 4.32794 14.5592 4.25109ZM17.4089 15.953C17.7853 16.0305 18.1665 15.7861 18.2441 15.3964L18.6978 13.1276H20.7047L21.1584 15.3964C21.2346 15.7804 21.6048 16.0327 21.9937 15.953C22.3777 15.876 22.6272 15.5024 22.5503 15.1177L21.1307 8.01959C21.0642 7.68824 20.773 7.44908 20.4348 7.44908H18.9678C18.6296 7.44908 18.3384 7.68824 18.2719 8.01959L16.8522 15.1177C16.7753 15.5024 17.0248 15.876 17.4089 15.953Z" fill="#909090"/>
<path d="M17.8203 23.7749L17.6985 24.7488C17.6173 25.401 17.1839 26.0661 16.4711 26.3982C15.1259 24.9174 15.9397 25.8133 14.0881 23.7749H17.8203Z" fill="#909090"/>
</svg>
