<svg width="53" height="59" viewBox="0 0 53 59" fill="none" xmlns="http://www.w3.org/2000/svg">
<path d="M52.2807 38.4704V54.9828C52.2807 56.4202 51.3007 57.5771 50.0807 57.5771H2.9207C1.7107 57.5771 0.720703 56.4085 0.720703 54.9828V20.7661C0.720703 19.3287 1.7007 18.1718 2.9207 18.1718H50.0807C51.2907 18.1718 52.2807 19.3404 52.2807 20.7661V30.3136" fill="#DD5C45"/>
<path d="M50.08 58.4302H2.92C1.31 58.4302 0 56.876 0 54.9711V20.7661C0 18.8613 1.31 17.307 2.92 17.307H50.08C51.69 17.307 53 18.8613 53 20.7661V30.3136H51.55V20.7661C51.55 19.8078 50.89 19.0249 50.08 19.0249H2.92C2.11 19.0249 1.45 19.8078 1.45 20.7661V54.9711C1.45 55.9294 2.11 56.7124 2.92 56.7124H50.08C50.89 56.7124 51.55 55.9294 51.55 54.9711V38.4587H53V54.9711C53 56.876 51.69 58.4302 50.08 58.4302Z" fill="#101010"/>
<path d="M0.460938 25.125L26.5009 44.22L52.5409 25.125H0.460938Z" fill="#DD5C45"/>
<path d="M26.5003 45.225L0.0703125 25.8613L0.840312 24.4005L26.5003 43.215L52.1603 24.4005L52.9303 25.8613L26.5003 45.225Z" fill="#101010"/>
<path d="M42.2909 32.6391V0.853027H10.7109V32.6391L26.5009 44.2199L42.2909 32.6391Z" fill="white"/>
<path d="M26.5005 45.225L9.98047 33.1183V0H43.0205V33.1183L26.5005 45.225ZM11.4305 32.16L26.5005 43.2033L41.5705 32.16V1.70616H11.4305V32.1717V32.16Z" fill="#101010"/>
<path d="M35.9408 7.59595H17.0508V9.38391H35.9408V7.59595Z" fill="#101010"/>
<path d="M35.9408 14.2804H17.0508V16.0684H35.9408V14.2804Z" fill="#101010"/>
<path d="M35.9408 20.9764H17.0508V22.7644H35.9408V20.9764Z" fill="#101010"/>
</svg>
