<svg width="34" height="24" viewBox="0 0 34 24" fill="none" xmlns="http://www.w3.org/2000/svg">
<g clip-path="url(#clip0_783_16441)">
<path d="M3.14994 0H30.8501C32.5897 0 34 1.41364 34 3.15745V20.8426C34 22.5864 32.5897 24 30.8501 24H3.14994C1.41027 24 0 22.5864 0 20.8426V3.15745C0 1.41364 1.41027 0 3.14994 0Z" fill="#36495D"/>
<path d="M14.1458 6.85498H19.8574V17.1442H14.1458V6.85498Z" fill="#F16522"/>
<path d="M19.4937 12.0002C19.4937 9.91318 18.5185 8.05442 17.0005 6.85612C18.1116 5.9801 19.5116 5.45703 21.0349 5.45703C24.6403 5.45703 27.5625 8.38729 27.5625 12.0012C27.5625 15.6152 24.6403 18.5454 21.0349 18.5454C19.5116 18.5454 18.1116 18.0224 17.0005 17.1464C18.5185 15.948 19.4937 14.0893 19.4937 12.0023" fill="#E41B24"/>
<path d="M6.43799 11.9991C6.43799 15.6131 9.36023 18.5433 12.9656 18.5433C14.4889 18.5433 15.8889 18.0203 17 17.1442C15.482 15.9459 14.5068 14.0872 14.5068 12.0002C14.5068 9.91318 15.482 8.05442 17 6.85612C15.8899 5.9801 14.4889 5.45703 12.9656 5.45703C9.36023 5.45703 6.43799 8.38623 6.43799 12.0002M7.06102 16.0548V15.8445H6.97668V15.8022H7.19279V15.8445H7.10846V16.0548H7.06207H7.06102ZM6.6425 16.0548V15.8012H6.70892L6.78482 15.9755L6.86072 15.8012H6.92714V16.0548H6.88075V15.8635L6.80907 16.0294H6.76057L6.68889 15.8635V16.0558H6.6425V16.0548Z" fill="#F89E1C"/>
</g>
<defs>
<clipPath id="clip0_783_16441">
<rect width="34" height="24" fill="white" transform="matrix(-1 0 0 1 34 0)"/>
</clipPath>
</defs>
</svg>
