<svg width="21" height="27" viewBox="0 0 21 27" fill="none" xmlns="http://www.w3.org/2000/svg">
<path d="M19.5361 17.5804C19.314 17.397 19.1377 17.1643 19.0215 16.9008C18.9052 16.6372 18.8521 16.3502 18.8665 16.0625V11.5982C18.8665 7 15.8219 3.3125 11.7236 2.85714V1.89286C11.7236 1.65606 11.6296 1.42895 11.4621 1.26151C11.2947 1.09407 11.0676 1 10.8308 1C10.594 1 10.3669 1.09407 10.1994 1.26151C10.032 1.42895 9.93793 1.65606 9.93793 1.89286V2.83929C8.21551 3.02457 6.60083 3.76764 5.33972 4.95536C4.5367 5.70694 3.89651 6.61537 3.4588 7.62439C3.0211 8.63342 2.79519 9.72156 2.79508 10.8214V16.0536C2.81017 16.3426 2.75748 16.6312 2.64121 16.8963C2.52494 17.1614 2.34832 17.3957 2.12543 17.5804C1.59312 17.9592 1.21762 18.5196 1.06963 19.1559C0.92163 19.7923 1.01134 20.4609 1.32186 21.0357C1.54683 21.4657 1.88771 21.824 2.30589 22.0702C2.72407 22.3164 3.20283 22.4405 3.68793 22.4286H7.25936C7.25936 23.3758 7.63564 24.2842 8.30541 24.954C8.97518 25.6237 9.88359 26 10.8308 26C11.778 26 12.6864 25.6237 13.3562 24.954C14.0259 24.2842 14.4022 23.3758 14.4022 22.4286H17.9736C18.4542 22.4355 18.9274 22.309 19.3403 22.0631C19.7533 21.8172 20.09 21.4615 20.3129 21.0357C20.6262 20.4639 20.7201 19.7975 20.5771 19.1613C20.4341 18.5252 20.064 17.9631 19.5361 17.5804ZM10.8308 24.2143C10.3572 24.2143 9.90299 24.0261 9.5681 23.6913C9.23321 23.3564 9.04508 22.9022 9.04508 22.4286H12.6165C12.6165 22.9022 12.4284 23.3564 12.0935 23.6913C11.7586 24.0261 11.3044 24.2143 10.8308 24.2143ZM18.7415 20.25C18.6641 20.3817 18.5507 20.4886 18.4148 20.5582C18.2788 20.6278 18.1257 20.6571 17.9736 20.6429H3.68793C3.54021 20.652 3.39284 20.6201 3.26207 20.5508C3.13131 20.4815 3.02223 20.3774 2.94686 20.25C2.82043 20.0539 2.7758 19.8161 2.82252 19.5874C2.86925 19.3588 3.00361 19.1576 3.19686 19.0268C3.64391 18.6739 4.00198 18.2211 4.24233 17.7047C4.48268 17.1884 4.5986 16.6228 4.58079 16.0536V10.8214C4.58079 9.16383 5.23927 7.57411 6.41137 6.40201C7.58348 5.22991 9.17319 4.57143 10.8308 4.57143H11.2504C14.6254 4.80357 17.0808 7.75 17.0808 11.5893V16.0536C17.0668 16.6237 17.1873 17.1891 17.4323 17.7041C17.6774 18.2191 18.0403 18.6691 18.4915 19.0179C18.6872 19.1488 18.8233 19.3517 18.8701 19.5825C18.917 19.8132 18.8707 20.0532 18.7415 20.25Z" fill="#909090" stroke="#909090" stroke-width="0.6"/>
</svg>
