<svg width="116" height="55" viewBox="0 0 116 55" fill="none" xmlns="http://www.w3.org/2000/svg">
<path d="M17.0387 15.8432C10.8851 15.8432 5.89648 20.8318 5.89648 26.9854C5.89648 33.139 10.8851 38.1276 17.0387 38.1276C23.1923 38.1276 28.1809 33.139 28.1809 26.9854C28.1809 20.8318 23.1923 15.8432 17.0387 15.8432ZM25.2847 22.8071H21.2691C20.8851 20.8827 20.2853 19.3273 19.6728 18.1274C22.1266 18.8596 24.1409 20.5611 25.2847 22.8071ZM19.8242 26.9854C19.8242 27.8143 19.7621 28.5758 19.6768 29.3067H14.4009C14.3152 28.5758 14.253 27.8142 14.253 26.9854C14.253 26.1561 14.3142 25.3947 14.399 24.6641H19.6787C19.7631 25.3947 19.8242 26.1562 19.8242 26.9854ZM16.7685 17.7274C16.8601 17.7247 16.9462 17.7002 17.0387 17.7002C17.1321 17.7002 17.2186 17.7252 17.3116 17.7279C18.0084 18.7969 18.8558 20.4881 19.3689 22.8071H14.7087C15.2243 20.4801 16.0748 18.7897 16.7685 17.7274ZM14.4046 18.1274C13.7943 19.3248 13.1941 20.8819 12.8096 22.8071H8.79265C9.93658 20.5611 11.9509 18.8601 14.4046 18.1274ZM7.75352 26.9854C7.75352 26.1792 7.88908 25.4104 8.08314 24.6641H12.5276C12.4501 25.3995 12.3961 26.1644 12.3961 26.9854C12.3961 27.8069 12.4515 28.5709 12.5303 29.3067H8.08314C7.88908 28.5604 7.75352 27.7916 7.75352 26.9854ZM8.79265 31.1637H12.8142C13.2023 33.0924 13.8029 34.6611 14.4019 35.8427C11.9495 35.1099 9.93612 33.4089 8.79265 31.1637ZM17.3084 36.2434C17.2169 36.2462 17.1312 36.2706 17.0387 36.2706C16.9462 36.2706 16.8605 36.2461 16.7685 36.2434C16.103 35.2197 15.2361 33.5247 14.7111 31.1637H19.3665C18.8422 33.5232 17.9763 35.2174 17.3084 36.2434ZM19.6764 35.8427C20.2762 34.66 20.8765 33.0925 21.2637 31.1637H25.2847C24.1413 33.4087 22.1282 35.1096 19.6764 35.8427ZM21.5476 29.3067C21.626 28.5709 21.6813 27.8069 21.6813 26.9854C21.6813 26.1644 21.6278 25.3995 21.5502 24.6641H25.9942C26.1883 25.4104 26.3239 26.1793 26.3239 26.9854C26.3239 27.7916 26.1883 28.5604 25.9942 29.3067H21.5476Z" fill="#DD5C45"/>
<path d="M26.3243 43.6986H7.75391V45.5556H26.3243V43.6986Z" fill="#DD5C45"/>
<path d="M39.2526 30.3221L38.291 33.9095L40.0847 34.3903L41.0463 30.8029L39.2526 30.3221Z" fill="#DD5C45"/>
<path d="M37.329 37.4934L33.9648 50.049L35.7586 50.5296L39.1227 37.974L37.329 37.4934Z" fill="#DD5C45"/>
<path d="M49.5693 6.16811L28.0444 0.400388C27.7224 0.314152 27.3991 0.272949 27.0809 0.272949C25.4411 0.273065 23.9405 1.36744 23.4957 3.0267L21.5544 10.2722H2.18321C1.15766 10.2722 0.326172 11.1035 0.326172 12.1292V49.2699C0.326172 50.2955 1.15766 51.1269 2.18321 51.1269H23.6321L36.5923 54.5996C36.9143 54.6858 37.2374 54.727 37.5558 54.727C39.1956 54.727 40.6962 53.6325 41.141 51.9733L52.1957 10.7168C52.7267 8.73557 51.5506 6.69899 49.5693 6.16811ZM2.18321 49.2699V12.1292H30.0387C31.0629 12.1292 31.8958 12.9623 31.8958 13.9862V47.4128C31.8958 48.4368 31.0629 49.2699 30.0387 49.2699H2.18321ZM50.4022 10.2362L39.3475 51.4926C39.1298 52.3037 38.3932 52.8701 37.5557 52.8701C37.3943 52.8701 37.2319 52.8485 37.0728 52.8058L30.5972 51.0706C32.3811 50.7996 33.7527 49.2728 33.7527 47.413V32.6909L34.7038 32.9457L35.6654 29.3582L33.8714 28.8775L33.7527 29.3214V14.5639C34.3316 14.7191 34.9999 14.8981 35.6478 15.0718L37.844 22.2518L39.3813 22.6638L39.2358 16.0331C40.2454 16.3038 41.2765 16.5799 41.952 16.761L43.1457 18.866L44.1708 19.1407L43.9945 16.2097L45.6126 13.7594L44.5875 13.4848L42.5015 14.711C41.8256 14.5301 40.795 14.2539 39.7849 13.9832L43.2265 8.31391L41.6891 7.90188L36.1972 13.022C35.1173 12.7326 33.939 12.4167 33.3006 12.2458C32.675 11.0766 31.4568 10.2723 30.0386 10.2723H23.4764L25.289 3.50756C25.5066 2.69661 26.2434 2.13022 27.0808 2.1301C27.2421 2.1301 27.4045 2.15169 27.5636 2.1944L49.0887 7.96212C49.5679 8.09048 49.9682 8.39782 50.2162 8.82738C50.4644 9.25682 50.5304 9.75717 50.4022 10.2362Z" fill="#DD5C45"/>
<path d="M38.77 25.4131L38.2949 27.2083L40.0596 27.6753L40.5346 25.8801L38.77 25.4131Z" fill="#DD5C45"/>
<path d="M42.2934 26.3496L41.8184 28.1447L43.583 28.6117L44.058 26.8166L42.2934 26.3496Z" fill="#DD5C45"/>
<path d="M35.2445 24.4798L34.7695 26.2749L36.5342 26.7419L37.0092 24.9468L35.2445 24.4798Z" fill="#DD5C45"/>
<g clip-path="url(#clip0_1418_9348)">
<path d="M67.286 15.3816C67.8168 15.3816 68.2498 14.95 68.2498 14.4179V6.24114C68.2498 5.42026 68.9176 4.75102 69.7399 4.75102H77.9166C78.4474 4.75102 78.8804 4.31944 78.8804 3.78725C78.8804 3.25507 78.4488 2.82349 77.9166 2.82349H69.7385C67.8547 2.82494 66.3223 4.35735 66.3223 6.24114V14.4179C66.3223 14.9486 66.7538 15.3816 67.286 15.3816Z" fill="#DD5C45"/>
<path d="M112.256 2.8255H104.079C103.548 2.8255 103.115 3.25708 103.115 3.78927C103.115 4.32145 103.547 4.75304 104.079 4.75304H112.256C113.077 4.75304 113.746 5.42082 113.746 6.24316V14.4199C113.746 14.9506 114.177 15.3836 114.71 15.3836C115.242 15.3836 115.673 14.9521 115.673 14.4199V6.2417C115.673 4.35791 114.141 2.8255 112.257 2.8255H112.256Z" fill="#DD5C45"/>
<path d="M77.9147 50.2484H69.738C68.9171 50.2484 68.2478 49.5806 68.2478 48.7583V40.5816C68.2478 40.0508 67.8163 39.6178 67.2841 39.6178C66.7519 39.6178 66.3203 40.0494 66.3203 40.5816V48.7583C66.3203 50.6421 67.8527 52.1745 69.7365 52.1745H77.9132C78.444 52.1745 78.877 51.7429 78.877 51.2107C78.877 50.6785 78.4454 50.2469 77.9132 50.2469L77.9147 50.2484Z" fill="#DD5C45"/>
<path d="M114.71 39.6193C114.179 39.6193 113.746 40.0508 113.746 40.583V48.7597C113.746 49.5806 113.078 50.2499 112.256 50.2499H104.079C103.548 50.2499 103.115 50.6814 103.115 51.2136C103.115 51.7458 103.547 52.1774 104.079 52.1774H112.256C114.14 52.1774 115.672 50.645 115.672 48.7612V40.5845C115.672 40.0538 115.24 39.6207 114.708 39.6207L114.71 39.6193Z" fill="#DD5C45"/>
<path d="M114.709 23.2658H103.97C104.453 22.1358 104.269 20.8251 103.467 19.8598C103.107 19.4866 102.638 19.2343 102.13 19.1381C102.74 17.1464 103.428 13.5363 101.697 10.5735C99.9637 7.60204 96.3492 6.09442 90.9545 6.09442C85.5597 6.09442 81.9438 7.60058 80.2116 10.5735C78.478 13.5436 79.1706 17.1595 79.7829 19.1498C79.3018 19.2591 78.8556 19.5114 78.5086 19.8773C77.7213 20.8323 77.5405 22.1388 78.0216 23.2644H67.286C66.7553 23.2644 66.3223 23.6959 66.3223 24.2281C66.3223 24.7603 66.7538 25.1919 67.286 25.1919H78.86C78.965 25.5127 79.0218 25.8466 79.0291 26.1761C78.9898 26.8949 79.2493 27.6093 79.7436 28.1415C80.1197 28.5162 80.5892 28.7685 81.1068 28.8764C81.187 30.0734 81.4801 31.2326 81.989 32.3363C82.2893 32.851 82.6713 33.3045 83.1248 33.6865L82.7617 36.5734L75.0355 38.95C73.2407 39.4953 72.0393 41.121 72.0465 42.9975V45.4879C72.0465 46.4706 72.8456 47.2696 73.8283 47.2696H108.168C109.151 47.2696 109.948 46.4706 109.948 45.4879V42.9975C109.956 41.121 108.754 39.4953 106.959 38.95L99.2332 36.5734L98.8702 33.6879C99.3251 33.3045 99.7071 32.851 100.013 32.3247C100.519 31.2355 100.815 30.0764 100.897 28.8778C102.154 28.6329 103.059 27.4708 102.975 26.1921C102.976 25.8509 103.031 25.5156 103.136 25.1919H114.709C115.24 25.1919 115.673 24.7603 115.673 24.2281C115.673 23.6959 115.241 23.2644 114.709 23.2644V23.2658ZM81.9452 11.4323C83.342 9.16944 86.3733 8.02342 90.9559 8.02342C95.5386 8.02342 98.5742 9.17235 99.9652 11.4294C100.747 12.8831 101.044 14.5482 100.821 16.1739C100.111 14.1735 99.1633 12.7985 97.9997 12.0855C97.2211 11.6015 96.1874 11.8012 95.645 12.5404C95.1697 13.1878 93.9333 14.2741 90.9982 14.2741C88.0632 14.2741 86.8267 13.1878 86.3529 12.5404C85.8105 11.7998 84.7753 11.6 83.9981 12.0855C82.804 12.8175 81.8344 14.2507 81.1156 16.3518C80.8546 14.6706 81.1447 12.9429 81.9481 11.4323H81.9452ZM98.9329 38.498L106.395 40.793C107.372 41.0904 108.027 41.9755 108.022 42.9975V45.3421H73.9726V42.9975C73.9683 41.9915 74.6375 41.0861 75.5998 40.793L83.0606 38.498C83.8028 39.994 85.8003 42.3633 90.9953 42.3633C96.1903 42.3633 98.1878 39.994 98.93 38.498H98.9329ZM84.6193 37.2441L84.905 34.9754C85.4226 35.2932 85.8746 35.5396 86.1794 35.6971C86.2523 35.7321 86.3164 35.7831 86.366 35.8429C87.4887 37.2747 89.1742 38.1612 90.9895 38.2749H90.9982H91.007C92.8295 38.1583 94.5194 37.266 95.6377 35.8327C95.6902 35.7729 95.7544 35.7234 95.8316 35.6884C96.2268 35.4857 96.6656 35.2364 97.0899 34.9754L97.3757 37.2412C97.1803 37.8419 96.0387 40.4358 90.9968 40.4358C85.9548 40.4358 84.8132 37.8434 84.6178 37.2426L84.6193 37.2441ZM101.133 26.2227L101.047 26.2286C101.06 26.4342 100.999 26.6339 100.872 26.7972C100.615 26.9824 100.302 27.0699 99.9739 27.0422C99.4432 27.0422 99.0102 27.4737 99.0102 28.0059C99.0102 29.1972 98.771 30.3563 98.3074 31.4396C97.956 32.1074 96.6408 33.1033 94.9612 33.9766C94.6506 34.1283 94.3707 34.3484 94.149 34.6182C93.3879 35.6082 92.239 36.2381 90.9968 36.3489C89.7603 36.2366 88.6172 35.6111 87.8561 34.6255C87.6345 34.3528 87.3619 34.1341 87.0498 33.9795C85.3337 33.0887 84.0463 32.1147 83.6949 31.4498C83.2356 30.3534 82.9979 29.1957 82.9892 28.0074C82.9892 27.4767 82.5576 27.0451 82.0152 27.0451C81.6973 27.0728 81.3795 26.9838 81.1214 26.7957C80.9975 26.6354 80.9377 26.4342 80.9552 26.2198C80.9552 25.8757 80.9231 25.5316 80.8546 25.1934H101.14C101.073 25.5331 101.041 25.8786 101.047 26.2227H101.133ZM101.925 23.1084C101.897 23.1623 101.872 23.2133 101.848 23.2644H80.1431C80.1358 23.2483 80.1285 23.2337 80.1197 23.2177C80.1008 23.1783 80.0804 23.1361 80.0585 23.0938C79.5453 22.1242 79.6473 21.4783 79.9083 21.2027C80.1329 20.9898 80.4668 20.9446 80.7496 21.0933C80.7715 21.1021 80.7948 21.1108 80.8167 21.1181C80.859 21.1371 80.9027 21.1517 80.9479 21.1648C81.0062 21.1808 81.066 21.1925 81.1345 21.1998C81.1666 21.2085 81.241 21.2085 81.2745 21.1998C81.3387 21.1939 81.4014 21.1823 81.4611 21.1648L81.502 21.1517C81.537 21.1415 81.572 21.1298 81.6186 21.1108C81.6755 21.0802 81.7294 21.0452 81.7761 21.0059C81.7877 20.9971 81.7994 20.9884 81.8096 20.9796C81.8432 20.9563 81.8752 20.9315 81.9058 20.9038L81.9219 20.8863C81.9613 20.8367 81.9948 20.7842 82.0225 20.7332C82.0298 20.723 82.0371 20.7128 82.04 20.7055C82.0619 20.669 82.0794 20.6311 82.0983 20.5859C82.11 20.5539 82.1173 20.5218 82.1246 20.4882C82.1391 20.4401 82.1508 20.3876 82.1595 20.3322C82.3316 18.9019 83.1525 15.0031 84.8817 13.7885C85.6268 14.7377 87.3662 16.1987 90.9997 16.1987C94.6331 16.1987 96.3696 14.7421 97.1045 13.7958C98.6515 14.8689 99.5176 18.167 99.7931 20.0085C99.6838 20.4241 99.8646 20.8586 100.248 21.0802C100.325 21.1167 100.406 21.1429 100.474 21.1546C100.543 21.1735 100.614 21.1837 100.685 21.1866C100.75 21.1954 100.814 21.1983 100.868 21.1939H100.891C100.929 21.1939 100.957 21.1823 100.977 21.1735C101.05 21.1633 101.121 21.1444 101.188 21.1181L101.21 21.1079C101.487 20.9417 101.848 20.9781 102.078 21.191C102.346 21.471 102.448 22.1213 101.928 23.1069L101.925 23.1084Z" fill="#DD5C45"/>
</g>
<defs>
<clipPath id="clip0_1418_9348">
<rect width="49.349" height="49.349" fill="white" transform="translate(66.3223 2.8255)"/>
</clipPath>
</defs>
</svg>
