<svg width="116" height="56" viewBox="0 0 116 56" fill="none" xmlns="http://www.w3.org/2000/svg">
<path d="M17.0387 16.3432C10.8851 16.3432 5.89648 21.3318 5.89648 27.4854C5.89648 33.639 10.8851 38.6276 17.0387 38.6276C23.1923 38.6276 28.1809 33.639 28.1809 27.4854C28.1809 21.3318 23.1923 16.3432 17.0387 16.3432ZM25.2847 23.3071H21.2691C20.8851 21.3827 20.2853 19.8273 19.6728 18.6274C22.1266 19.3596 24.1409 21.0611 25.2847 23.3071ZM19.8242 27.4854C19.8242 28.3143 19.7621 29.0758 19.6768 29.8067H14.4009C14.3152 29.0758 14.253 28.3142 14.253 27.4854C14.253 26.6561 14.3142 25.8947 14.399 25.1641H19.6787C19.7631 25.8947 19.8242 26.6562 19.8242 27.4854ZM16.7685 18.2274C16.8601 18.2247 16.9462 18.2002 17.0387 18.2002C17.1321 18.2002 17.2186 18.2252 17.3116 18.2279C18.0084 19.2969 18.8558 20.9881 19.3689 23.3071H14.7087C15.2243 20.9801 16.0748 19.2897 16.7685 18.2274ZM14.4046 18.6274C13.7943 19.8248 13.1941 21.3819 12.8096 23.3071H8.79265C9.93658 21.0611 11.9509 19.3601 14.4046 18.6274ZM7.75352 27.4854C7.75352 26.6792 7.88908 25.9104 8.08314 25.1641H12.5276C12.4501 25.8995 12.3961 26.6644 12.3961 27.4854C12.3961 28.3069 12.4515 29.0709 12.5303 29.8067H8.08314C7.88908 29.0604 7.75352 28.2916 7.75352 27.4854ZM8.79265 31.6637H12.8142C13.2023 33.5924 13.8029 35.1611 14.4019 36.3427C11.9495 35.6099 9.93612 33.9089 8.79265 31.6637ZM17.3084 36.7434C17.2169 36.7462 17.1312 36.7706 17.0387 36.7706C16.9462 36.7706 16.8605 36.7461 16.7685 36.7434C16.103 35.7197 15.2361 34.0247 14.7111 31.6637H19.3665C18.8422 34.0232 17.9763 35.7174 17.3084 36.7434ZM19.6764 36.3427C20.2762 35.16 20.8765 33.5925 21.2637 31.6637H25.2847C24.1413 33.9087 22.1282 35.6096 19.6764 36.3427ZM21.5476 29.8067C21.626 29.0709 21.6813 28.3069 21.6813 27.4854C21.6813 26.6644 21.6278 25.8995 21.5502 25.1641H25.9942C26.1883 25.9104 26.3239 26.6793 26.3239 27.4854C26.3239 28.2916 26.1883 29.0604 25.9942 29.8067H21.5476Z" fill="#DD5C45"/>
<path d="M26.3243 44.1986H7.75391V46.0556H26.3243V44.1986Z" fill="#DD5C45"/>
<path d="M39.2526 30.8221L38.291 34.4095L40.0847 34.8903L41.0463 31.3029L39.2526 30.8221Z" fill="#DD5C45"/>
<path d="M37.329 37.9934L33.9648 50.549L35.7586 51.0296L39.1227 38.474L37.329 37.9934Z" fill="#DD5C45"/>
<path d="M49.5693 6.66811L28.0444 0.900388C27.7224 0.814152 27.3991 0.772949 27.0809 0.772949C25.4411 0.773065 23.9405 1.86744 23.4957 3.5267L21.5544 10.7722H2.18321C1.15766 10.7722 0.326172 11.6035 0.326172 12.6292V49.7699C0.326172 50.7955 1.15766 51.6269 2.18321 51.6269H23.6321L36.5923 55.0996C36.9143 55.1858 37.2374 55.227 37.5558 55.227C39.1956 55.227 40.6962 54.1325 41.141 52.4733L52.1957 11.2168C52.7267 9.23557 51.5506 7.19899 49.5693 6.66811ZM2.18321 49.7699V12.6292H30.0387C31.0629 12.6292 31.8958 13.4623 31.8958 14.4862V47.9128C31.8958 48.9368 31.0629 49.7699 30.0387 49.7699H2.18321ZM50.4022 10.7362L39.3475 51.9926C39.1298 52.8037 38.3932 53.3701 37.5557 53.3701C37.3943 53.3701 37.2319 53.3485 37.0728 53.3058L30.5972 51.5706C32.3811 51.2996 33.7527 49.7728 33.7527 47.913V33.1909L34.7038 33.4457L35.6654 29.8582L33.8714 29.3775L33.7527 29.8214V15.0639C34.3316 15.2191 34.9999 15.3981 35.6478 15.5718L37.844 22.7518L39.3813 23.1638L39.2358 16.5331C40.2454 16.8038 41.2765 17.0799 41.952 17.261L43.1457 19.366L44.1708 19.6407L43.9945 16.7097L45.6126 14.2594L44.5875 13.9848L42.5015 15.211C41.8256 15.0301 40.795 14.7539 39.7849 14.4832L43.2265 8.81391L41.6891 8.40188L36.1972 13.522C35.1173 13.2326 33.939 12.9167 33.3006 12.7458C32.675 11.5766 31.4568 10.7723 30.0386 10.7723H23.4764L25.289 4.00756C25.5066 3.19661 26.2434 2.63022 27.0808 2.6301C27.2421 2.6301 27.4045 2.65169 27.5636 2.6944L49.0887 8.46212C49.5679 8.59048 49.9682 8.89782 50.2162 9.32738C50.4644 9.75682 50.5304 10.2572 50.4022 10.7362Z" fill="#DD5C45"/>
<path d="M38.77 25.9131L38.2949 27.7083L40.0596 28.1753L40.5346 26.3801L38.77 25.9131Z" fill="#DD5C45"/>
<path d="M42.2934 26.8496L41.8184 28.6447L43.583 29.1117L44.058 27.3166L42.2934 26.8496Z" fill="#DD5C45"/>
<path d="M35.2445 24.9798L34.7695 26.7749L36.5342 27.2419L37.0092 25.4468L35.2445 24.9798Z" fill="#DD5C45"/>
<g clip-path="url(#clip0_361_5157)">
<path d="M67.286 15.8816C67.8168 15.8816 68.2498 15.45 68.2498 14.9179V6.74114C68.2498 5.92026 68.9176 5.25102 69.7399 5.25102H77.9166C78.4474 5.25102 78.8804 4.81944 78.8804 4.28725C78.8804 3.75507 78.4488 3.32349 77.9166 3.32349H69.7385C67.8547 3.32494 66.3223 4.85735 66.3223 6.74114V14.9179C66.3223 15.4486 66.7538 15.8816 67.286 15.8816Z" fill="#DD5C45"/>
<path d="M112.256 3.3255H104.079C103.548 3.3255 103.115 3.75708 103.115 4.28927C103.115 4.82145 103.547 5.25304 104.079 5.25304H112.256C113.077 5.25304 113.746 5.92082 113.746 6.74316V14.9199C113.746 15.4506 114.177 15.8836 114.71 15.8836C115.242 15.8836 115.673 15.4521 115.673 14.9199V6.7417C115.673 4.85791 114.141 3.3255 112.257 3.3255H112.256Z" fill="#DD5C45"/>
<path d="M77.9147 50.7484H69.738C68.9171 50.7484 68.2478 50.0806 68.2478 49.2583V41.0816C68.2478 40.5508 67.8163 40.1178 67.2841 40.1178C66.7519 40.1178 66.3203 40.5494 66.3203 41.0816V49.2583C66.3203 51.1421 67.8527 52.6745 69.7365 52.6745H77.9132C78.444 52.6745 78.877 52.2429 78.877 51.7107C78.877 51.1785 78.4454 50.7469 77.9132 50.7469L77.9147 50.7484Z" fill="#DD5C45"/>
<path d="M114.71 40.1193C114.179 40.1193 113.746 40.5508 113.746 41.083V49.2597C113.746 50.0806 113.078 50.7499 112.256 50.7499H104.079C103.548 50.7499 103.115 51.1814 103.115 51.7136C103.115 52.2458 103.547 52.6774 104.079 52.6774H112.256C114.14 52.6774 115.672 51.145 115.672 49.2612V41.0845C115.672 40.5538 115.24 40.1207 114.708 40.1207L114.71 40.1193Z" fill="#DD5C45"/>
<path d="M114.709 23.7658H103.97C104.453 22.6358 104.269 21.3251 103.467 20.3598C103.107 19.9866 102.638 19.7343 102.13 19.6381C102.74 17.6464 103.428 14.0363 101.697 11.0735C99.9637 8.10204 96.3492 6.59442 90.9545 6.59442C85.5597 6.59442 81.9438 8.10058 80.2116 11.0735C78.478 14.0436 79.1706 17.6595 79.7829 19.6498C79.3018 19.7591 78.8556 20.0114 78.5086 20.3773C77.7213 21.3323 77.5405 22.6388 78.0216 23.7644H67.286C66.7553 23.7644 66.3223 24.1959 66.3223 24.7281C66.3223 25.2603 66.7538 25.6919 67.286 25.6919H78.86C78.965 26.0127 79.0218 26.3466 79.0291 26.6761C78.9898 27.3949 79.2493 28.1093 79.7436 28.6415C80.1197 29.0162 80.5892 29.2685 81.1068 29.3764C81.187 30.5734 81.4801 31.7326 81.989 32.8363C82.2893 33.351 82.6713 33.8045 83.1248 34.1865L82.7617 37.0734L75.0355 39.45C73.2407 39.9953 72.0393 41.621 72.0465 43.4975V45.9879C72.0465 46.9706 72.8456 47.7696 73.8283 47.7696H108.168C109.151 47.7696 109.948 46.9706 109.948 45.9879V43.4975C109.956 41.621 108.754 39.9953 106.959 39.45L99.2332 37.0734L98.8702 34.1879C99.3251 33.8045 99.7071 33.351 100.013 32.8247C100.519 31.7355 100.815 30.5764 100.897 29.3778C102.154 29.1329 103.059 27.9708 102.975 26.6921C102.976 26.3509 103.031 26.0156 103.136 25.6919H114.709C115.24 25.6919 115.673 25.2603 115.673 24.7281C115.673 24.1959 115.241 23.7644 114.709 23.7644V23.7658ZM81.9452 11.9323C83.342 9.66944 86.3733 8.52342 90.9559 8.52342C95.5386 8.52342 98.5742 9.67235 99.9652 11.9294C100.747 13.3831 101.044 15.0482 100.821 16.6739C100.111 14.6735 99.1633 13.2985 97.9997 12.5855C97.2211 12.1015 96.1874 12.3012 95.645 13.0404C95.1697 13.6878 93.9333 14.7741 90.9982 14.7741C88.0632 14.7741 86.8267 13.6878 86.3529 13.0404C85.8105 12.2998 84.7753 12.1 83.9981 12.5855C82.804 13.3175 81.8344 14.7507 81.1156 16.8518C80.8546 15.1706 81.1447 13.4429 81.9481 11.9323H81.9452ZM98.9329 38.998L106.395 41.293C107.372 41.5904 108.027 42.4755 108.022 43.4975V45.8421H73.9726V43.4975C73.9683 42.4915 74.6375 41.5861 75.5998 41.293L83.0606 38.998C83.8028 40.494 85.8003 42.8633 90.9953 42.8633C96.1903 42.8633 98.1878 40.494 98.93 38.998H98.9329ZM84.6193 37.7441L84.905 35.4754C85.4226 35.7932 85.8746 36.0396 86.1794 36.1971C86.2523 36.2321 86.3164 36.2831 86.366 36.3429C87.4887 37.7747 89.1742 38.6612 90.9895 38.7749H90.9982H91.007C92.8295 38.6583 94.5194 37.766 95.6377 36.3327C95.6902 36.2729 95.7544 36.2234 95.8316 36.1884C96.2268 35.9857 96.6656 35.7364 97.0899 35.4754L97.3757 37.7412C97.1803 38.3419 96.0387 40.9358 90.9968 40.9358C85.9548 40.9358 84.8132 38.3434 84.6178 37.7426L84.6193 37.7441ZM101.133 26.7227L101.047 26.7286C101.06 26.9342 100.999 27.1339 100.872 27.2972C100.615 27.4824 100.302 27.5699 99.9739 27.5422C99.4432 27.5422 99.0102 27.9737 99.0102 28.5059C99.0102 29.6972 98.771 30.8563 98.3074 31.9396C97.956 32.6074 96.6408 33.6033 94.9612 34.4766C94.6506 34.6283 94.3707 34.8484 94.149 35.1182C93.3879 36.1082 92.239 36.7381 90.9968 36.8489C89.7603 36.7366 88.6172 36.1111 87.8561 35.1255C87.6345 34.8528 87.3619 34.6341 87.0498 34.4795C85.3337 33.5887 84.0463 32.6147 83.6949 31.9498C83.2356 30.8534 82.9979 29.6957 82.9892 28.5074C82.9892 27.9767 82.5576 27.5451 82.0152 27.5451C81.6973 27.5728 81.3795 27.4838 81.1214 27.2957C80.9975 27.1354 80.9377 26.9342 80.9552 26.7198C80.9552 26.3757 80.9231 26.0316 80.8546 25.6934H101.14C101.073 26.0331 101.041 26.3786 101.047 26.7227H101.133ZM101.925 23.6084C101.897 23.6623 101.872 23.7133 101.848 23.7644H80.1431C80.1358 23.7483 80.1285 23.7337 80.1197 23.7177C80.1008 23.6783 80.0804 23.6361 80.0585 23.5938C79.5453 22.6242 79.6473 21.9783 79.9083 21.7027C80.1329 21.4898 80.4668 21.4446 80.7496 21.5933C80.7715 21.6021 80.7948 21.6108 80.8167 21.6181C80.859 21.6371 80.9027 21.6517 80.9479 21.6648C81.0062 21.6808 81.066 21.6925 81.1345 21.6998C81.1666 21.7085 81.241 21.7085 81.2745 21.6998C81.3387 21.6939 81.4014 21.6823 81.4611 21.6648L81.502 21.6517C81.537 21.6415 81.572 21.6298 81.6186 21.6108C81.6755 21.5802 81.7294 21.5452 81.7761 21.5059C81.7877 21.4971 81.7994 21.4884 81.8096 21.4796C81.8432 21.4563 81.8752 21.4315 81.9058 21.4038L81.9219 21.3863C81.9613 21.3367 81.9948 21.2842 82.0225 21.2332C82.0298 21.223 82.0371 21.2128 82.04 21.2055C82.0619 21.169 82.0794 21.1311 82.0983 21.0859C82.11 21.0539 82.1173 21.0218 82.1246 20.9882C82.1391 20.9401 82.1508 20.8876 82.1595 20.8322C82.3316 19.4019 83.1525 15.5031 84.8817 14.2885C85.6268 15.2377 87.3662 16.6987 90.9997 16.6987C94.6331 16.6987 96.3696 15.2421 97.1045 14.2958C98.6515 15.3689 99.5176 18.667 99.7931 20.5085C99.6838 20.9241 99.8646 21.3586 100.248 21.5802C100.325 21.6167 100.406 21.6429 100.474 21.6546C100.543 21.6735 100.614 21.6837 100.685 21.6866C100.75 21.6954 100.814 21.6983 100.868 21.6939H100.891C100.929 21.6939 100.957 21.6823 100.977 21.6735C101.05 21.6633 101.121 21.6444 101.188 21.6181L101.21 21.6079C101.487 21.4417 101.848 21.4781 102.078 21.691C102.346 21.971 102.448 22.6213 101.928 23.6069L101.925 23.6084Z" fill="#DD5C45"/>
</g>
<defs>
<clipPath id="clip0_361_5157">
<rect width="49.349" height="49.349" fill="white" transform="translate(66.3223 3.3255)"/>
</clipPath>
</defs>
</svg>
