<svg width="28" height="29" viewBox="0 0 28 29" fill="none" xmlns="http://www.w3.org/2000/svg">
<path d="M21.6758 3.12646C22.1956 3.73853 22.5076 4.51438 22.5076 5.35805V5.37465V23.6247V23.6413C22.5076 24.4851 22.1956 25.2609 21.6758 25.8729C22.9287 25.804 23.9256 24.8222 23.9256 23.6247V5.37465C23.9256 4.17725 22.9287 3.19535 21.6758 3.12646Z" fill="#909090"/>
<path d="M11.4219 11.8232C11.4785 12.7335 11.6487 13.5852 11.9082 14.2284C12.198 14.9465 12.5039 15.1696 12.5826 15.1696C12.6613 15.1696 12.9672 14.9465 13.257 14.2284C13.5165 13.5852 13.6867 12.7335 13.7433 11.8232H11.4219Z" fill="#909090"/>
<path d="M12.5826 7.13818C12.5039 7.13818 12.198 7.36123 11.9082 8.07934C11.6487 8.7225 11.4785 9.57425 11.4219 10.4845H13.7433C13.6867 9.57425 13.5165 8.7225 13.257 8.07934C12.9672 7.36123 12.6613 7.13818 12.5826 7.13818Z" fill="#909090"/>
<path d="M15.1639 10.4847H16.7775C16.5554 9.24044 15.7251 8.18867 14.5859 7.6123C14.9053 8.40739 15.1051 9.40874 15.1639 10.4847Z" fill="#909090"/>
<path d="M10.0003 10.4847C10.0592 9.40874 10.2589 8.40739 10.5783 7.6123C9.43916 8.18867 8.60882 9.24044 8.38672 10.4847H10.0003Z" fill="#909090"/>
<path d="M18.6719 3.12256H4.07422V25.8775H18.6719C20.0053 25.8775 21.0902 24.8671 21.0902 23.6251V5.37494C21.0902 4.13297 20.0053 3.12256 18.6719 3.12256ZM14.7092 22.5312H10.4552V21.1926H14.7092V22.5312ZM16.1272 19.8541H9.03721V18.5156H16.1272V19.8541ZM12.5822 16.5078C9.45467 16.5078 6.91021 14.1059 6.91021 11.1537C6.91021 8.20145 9.45467 5.79961 12.5822 5.79961C15.7097 5.79961 18.2542 8.20145 18.2542 11.1537C18.2542 14.1059 15.7097 16.5078 12.5822 16.5078Z" fill="#909090"/>
<path d="M15.1639 11.8232C15.1051 12.8992 14.9053 13.9006 14.5859 14.6957C15.7251 14.1193 16.5554 13.0675 16.7775 11.8232H15.1639Z" fill="#909090"/>
<path d="M10.0003 11.8232H8.38672C8.60882 13.0675 9.43916 14.1193 10.5783 14.6957C10.2589 13.9006 10.0592 12.8992 10.0003 11.8232Z" fill="#909090"/>
</svg>
