<svg width="336" height="399" viewBox="0 0 336 399" fill="none" xmlns="http://www.w3.org/2000/svg">
<path fill-rule="evenodd" clip-rule="evenodd" d="M75 3V3.27835e-06H3L0 0V3V75H3V3L75 3Z" fill="white"/>
<path fill-rule="evenodd" clip-rule="evenodd" d="M333 75L336 75L336 3L336 0L333 -1.31134e-07L261 -3.27835e-06L261 3L333 3L333 75Z" fill="white"/>
<rect x="168" y="291" width="3" height="176" transform="rotate(-180 168 291)" fill="white"/>
<rect x="80" y="204.5" width="3" height="176" transform="rotate(-90 80 204.5)" fill="white"/>
<rect y="399" width="3" height="75" transform="rotate(-90 0 399)" fill="white"/>
<rect y="324" width="3" height="75" fill="white"/>
<rect x="336" y="399" width="3" height="75" transform="rotate(-180 336 399)" fill="white"/>
<rect x="261" y="399" width="3" height="75" transform="rotate(-90 261 399)" fill="white"/>
</svg>
