<svg width="28" height="29" viewBox="0 0 28 29" fill="none" xmlns="http://www.w3.org/2000/svg">
<path d="M13.7216 24.4087C14.8508 22.9061 15.4581 21.0757 15.4511 19.1961V15.701C15.4535 15.3458 15.3845 14.9938 15.2484 14.6658C15.1122 14.3377 14.9116 14.0404 14.6584 13.7913L13.4574 12.5902C12.9496 12.0855 12.2636 11.8008 11.5477 11.7975H7.04368V4.89141C7.04683 4.33494 7.26929 3.80215 7.66279 3.40866C8.05628 3.01516 8.58907 2.7927 9.14554 2.78955H23.5583C24.1148 2.7927 24.6476 3.01516 25.0411 3.40866C25.4345 3.80215 25.657 4.33494 25.6602 4.89141V24.1084C25.657 24.6649 25.4345 25.1977 25.0411 25.5912C24.6476 25.9847 24.1148 26.2071 23.5583 26.2103H11.884C12.5877 25.7105 13.208 25.1024 13.7216 24.4087ZM16.3519 14.1996H21.1562C21.3951 14.1996 21.6242 14.1047 21.7931 13.9358C21.9621 13.7669 22.057 13.5378 22.057 13.2988C22.057 13.0599 21.9621 12.8308 21.7931 12.6619C21.6242 12.493 21.3951 12.3981 21.1562 12.3981H16.3519C16.113 12.3981 15.8839 12.493 15.715 12.6619C15.546 12.8308 15.4511 13.0599 15.4511 13.2988C15.4511 13.5378 15.546 13.7669 15.715 13.9358C15.8839 14.1047 16.113 14.1996 16.3519 14.1996ZM11.5477 10.5965H21.1562C21.3951 10.5965 21.6242 10.5016 21.7931 10.3326C21.9621 10.1637 22.057 9.93457 22.057 9.69566C22.057 9.45675 21.9621 9.22763 21.7931 9.0587C21.6242 8.88977 21.3951 8.79486 21.1562 8.79486H11.5477C11.3088 8.79486 11.0796 8.88977 10.9107 9.0587C10.7418 9.22763 10.6469 9.45675 10.6469 9.69566C10.6469 9.93457 10.7418 10.1637 10.9107 10.3326C11.0796 10.5016 11.3088 10.5965 11.5477 10.5965ZM11.5477 6.99327H21.1562C21.3951 6.99327 21.6242 6.89836 21.7931 6.72943C21.9621 6.5605 22.057 6.33138 22.057 6.09247C22.057 5.85357 21.9621 5.62445 21.7931 5.45551C21.6242 5.28658 21.3951 5.19168 21.1562 5.19168H11.5477C11.3088 5.19168 11.0796 5.28658 10.9107 5.45551C10.7418 5.62445 10.6469 5.85357 10.6469 6.09247C10.6469 6.33138 10.7418 6.5605 10.9107 6.72943C11.0796 6.89836 11.3088 6.99327 11.5477 6.99327Z" fill="#909090"/>
<path d="M2.50312 15.0644L3.70419 13.8634C3.87296 13.6944 4.10193 13.5993 4.34075 13.5991H11.5471C11.786 13.5993 12.0149 13.6944 12.1837 13.8634L13.3848 15.0644C13.5537 15.2332 13.6488 15.4622 13.649 15.701V19.1961C13.6613 19.4081 13.6613 19.6206 13.649 19.8326C13.6054 20.3773 13.4924 20.9141 13.3127 21.4301C13.2532 21.6228 13.181 21.8114 13.0965 21.9945C13.0004 22.2107 12.8923 22.4149 12.7842 22.6191C12.6756 22.8182 12.5552 23.0107 12.4239 23.1956C12.2918 23.3638 12.1717 23.5319 12.0276 23.688C11.8589 23.8908 11.6741 24.0796 11.4751 24.2525C10.9994 24.688 10.4659 25.0558 9.88966 25.3455L8.94082 25.8259C8.76577 25.911 8.57988 25.9716 8.38833 26.0061C8.27658 26.0185 8.16379 26.0185 8.05204 26.0061C7.72725 26.0074 7.40658 25.9334 7.11521 25.7899L6.16637 25.3095C5.01679 24.7398 4.04971 23.8595 3.37469 22.7684C2.69966 21.6773 2.34365 20.419 2.34699 19.136V15.701C2.31725 15.4767 2.37299 15.2495 2.50312 15.0644ZM7.94394 21.1418C8.11284 21.3105 8.34179 21.4052 8.5805 21.4052C8.81922 21.4052 9.04817 21.3105 9.21707 21.1418L9.79358 20.5653L10.3461 19.9407C10.5148 19.7718 10.6095 19.5429 10.6095 19.3042C10.6095 19.0655 10.5148 18.8365 10.3461 18.6676C10.2495 18.5738 10.1352 18.5003 10.0098 18.4514C9.84896 18.3967 9.67608 18.388 9.51058 18.4262C9.34508 18.4644 9.19352 18.548 9.07294 18.6676L8.50844 19.2321L6.74288 17.4665C6.65971 17.3823 6.56056 17.3156 6.45125 17.2702C6.34194 17.2248 6.22467 17.2018 6.10631 17.2023C6.00697 17.185 5.90539 17.185 5.80605 17.2023C5.68065 17.2512 5.56631 17.3247 5.46975 17.4185C5.30106 17.5874 5.20631 17.8164 5.20631 18.0551C5.20631 18.2938 5.30106 18.5227 5.46975 18.6916L5.80605 19.0279L7.94394 21.1418Z" fill="#909090"/>
</svg>
