<svg width="24" height="24" viewBox="0 0 24 24" fill="none" xmlns="http://www.w3.org/2000/svg">
<g clip-path="url(#clip0_783_8064)">
<path d="M19.953 22.006C20.2232 22.3127 20.3333 22.4469 20.3333 22.677C20.3333 23.0891 19.903 23.5012 19.4427 23.5012C19.1425 23.5012 19.0324 23.3766 18.6821 22.9645L16.4906 20.4437C15.8402 20.7313 14.109 21.4789 11.5272 21.4789C5.29284 21.4693 0.519531 17.0891 0.519531 10.9837C0.519531 4.87824 5.29284 0.498047 11.5272 0.498047C17.7615 0.498047 22.5348 4.90699 22.5348 10.9837C22.5348 14.7696 20.7436 17.76 17.9216 19.6674L19.953 22.0156V22.006ZM12.1476 15.4405C11.8774 15.1338 11.7673 14.9996 11.7673 14.7696C11.7673 14.3575 12.1976 13.9741 12.688 13.9741C12.9882 13.9741 13.0682 14.0795 13.4185 14.4917L16.8108 18.4118C19.7128 16.4757 20.7736 13.4661 20.7736 10.9933C20.7736 5.99965 16.7608 2.03159 11.5272 2.03159C6.29354 2.03159 2.28075 5.96131 2.28075 10.9837C2.28075 16.006 6.26352 19.9453 11.5272 19.9453C13.5085 19.9453 14.9195 19.3798 15.3798 19.169L12.1576 15.431L12.1476 15.4405Z" fill="#DD5C45" stroke="#DD5C45" stroke-width="1.04" stroke-miterlimit="10"/>
</g>
<defs>
<clipPath id="clip0_783_8064">
<rect width="23.056" height="24" fill="white"/>
</clipPath>
</defs>
</svg>
