<svg width="28" height="29" viewBox="0 0 28 29" fill="none" xmlns="http://www.w3.org/2000/svg">
<path d="M1.46094 5.05603V23.9437C1.46094 24.3495 1.7899 24.6784 2.19568 24.6784H13.2657V4.32129H2.19568C1.7899 4.32129 1.46094 4.65026 1.46094 5.05603Z" fill="#909090"/>
<path d="M25.8044 4.32129H14.7344V24.6784H25.8044C26.2102 24.6784 26.5392 24.3495 26.5392 23.9437V5.05603C26.5392 4.65026 26.2102 4.32129 25.8044 4.32129ZM23.3912 21.137H17.8823C16.9085 21.1008 16.9092 19.7033 17.8823 19.6675H23.3913C24.365 19.7037 24.3643 21.1012 23.3912 21.137ZM23.3912 17.2021H17.8823C16.9085 17.1659 16.9092 15.7684 17.8823 15.7326H23.3913C24.365 15.7687 24.3643 17.1663 23.3912 17.2021ZM23.3912 13.2671H17.8823C16.9085 13.231 16.9092 11.8334 17.8823 11.7976H23.3913C24.365 11.8338 24.3643 13.2314 23.3912 13.2671ZM23.3912 9.3322H17.8823C16.9085 9.29605 16.9092 7.89853 17.8823 7.86273H23.3913C24.365 7.89888 24.3643 9.2964 23.3912 9.3322Z" fill="#909090"/>
<path d="M9.38073 16.7704C9.84014 16.7704 10.2126 17.2669 10.2126 17.8792C10.2126 18.4916 9.84014 18.988 9.38073 18.988H7.67744V20.132C7.67744 20.7443 7.30501 21.2408 6.8456 21.2408C6.38618 21.2408 6.01376 20.7443 6.01376 20.132V18.988H4.31046C3.85105 18.988 3.47862 18.4916 3.47862 17.8792C3.47862 17.2669 3.85105 16.7704 4.31046 16.7704H6.01376V15.6089H4.31046C3.85105 15.6089 3.47862 15.1125 3.47862 14.5001C3.47862 13.8877 3.85105 13.3913 4.31046 13.3913H5.37641L3.59718 9.43871C3.36082 8.91362 3.48857 8.23257 3.8825 7.91747C4.2764 7.60237 4.78735 7.7727 5.02379 8.29778L6.84564 12.345L8.66745 8.29778C8.90381 7.77264 9.41484 7.60242 9.80877 7.91747C10.2027 8.23252 10.3305 8.91362 10.0941 9.43871L8.31487 13.3913H9.38081C9.84022 13.3913 10.2127 13.8877 10.2127 14.5001C10.2127 15.1125 9.84022 15.6089 9.38081 15.6089H7.67752V16.7704H9.38073Z" fill="white"/>
</svg>
