<svg width="30" height="29" viewBox="0 0 30 29" fill="none" xmlns="http://www.w3.org/2000/svg">
<path fill-rule="evenodd" clip-rule="evenodd" d="M19.865 11.2087L18.4025 12.0403C18.2869 12.106 18.1577 12.1393 18.0282 12.1393C17.9286 12.1393 17.8288 12.1196 17.7347 12.08C17.518 11.9889 17.356 11.8023 17.2961 11.575L16.8675 9.9481C16.761 9.54374 17.0025 9.12959 17.4068 9.02309C17.6428 8.96085 17.8814 9.01774 18.0609 9.15564C18.1287 8.82416 18.1634 8.48537 18.1634 8.14426C18.1633 5.3586 15.897 3.0924 13.1115 3.0924C10.3259 3.0924 8.05973 5.3586 8.05973 8.14415C8.05973 10.9297 10.3259 13.196 13.1115 13.196C13.7528 13.196 14.3801 13.076 14.976 12.8393C15.3645 12.6851 15.8048 12.8749 15.9591 13.2635C16.1135 13.6522 15.9235 14.0923 15.5349 14.2467C14.7603 14.5543 13.945 14.7102 13.1115 14.7102C9.49097 14.7102 6.54546 11.7647 6.54546 8.1442C6.54546 4.52368 9.49097 1.57812 13.1115 1.57812C16.7321 1.57812 19.6776 4.52363 19.6776 8.14415C19.6776 8.70342 19.6052 9.25755 19.4659 9.79405C19.7378 9.78532 20.0052 9.92342 20.149 10.1763C20.3556 10.5398 20.2285 11.0021 19.865 11.2087Z" fill="#909090"/>
<path fill-rule="evenodd" clip-rule="evenodd" d="M23.6538 20.4986C23.9494 20.2029 24.4288 20.2029 24.7245 20.4986L25.788 21.5621C25.93 21.7041 26.0098 21.8966 26.0098 22.0974C26.0098 22.2982 25.93 22.4908 25.788 22.6328L21.2211 27.1996C21.0792 27.3416 20.8866 27.4214 20.6858 27.4214C20.485 27.4214 20.2924 27.3416 20.1504 27.1996L19.087 26.1361C18.7913 25.8405 18.7913 25.3611 19.087 25.0654L23.6538 20.4986Z" fill="#909090"/>
<path fill-rule="evenodd" clip-rule="evenodd" d="M4.65105 14.9586C5.53665 14.073 6.97773 14.073 7.86333 14.9586L9.74218 16.8375C9.64587 17.1315 9.59338 17.4451 9.59338 17.7709C9.59338 19.43 10.9551 20.7798 12.6289 20.7798H12.6327L15.7822 20.776C16.1999 20.7755 16.5384 20.4366 16.5384 20.0188C16.5384 19.6003 16.1988 19.2612 15.7803 19.2617C15.7803 19.2617 12.6296 19.2655 12.6289 19.2655C12.1318 19.2655 11.5504 18.9737 11.3325 18.5054C11.1173 18.0429 11.2551 17.5024 11.499 17.0803C11.6376 16.8405 11.8174 16.6205 12.0319 16.4445C12.4333 16.115 12.9431 15.9324 13.4625 15.9324L18.3128 15.9741C19.1253 15.981 19.6132 16.359 19.9842 16.7288L22.6328 19.3774L17.9583 24.0519L17.3628 23.454C17.3628 23.454 10.8394 23.4579 10.8345 23.4578C10.2506 23.4469 9.69721 23.2119 9.27321 22.7929L4.65121 18.1709C4.22337 17.7431 3.98775 17.1727 3.98775 16.5648C3.98755 15.9568 4.22317 15.3864 4.65105 14.9586Z" fill="#909090"/>
<path d="M11.4609 8.99111C11.1854 8.99111 10.9621 9.19928 10.9621 9.45606C10.9621 9.71285 11.1854 9.92101 11.4609 9.92101H12.4822V10.4007C12.4822 10.6575 12.7055 10.8657 12.981 10.8657C13.2565 10.8657 13.4798 10.6575 13.4798 10.4007V9.92101H14.5011C14.7766 9.92101 14.9999 9.71285 14.9999 9.45606C14.9999 9.19928 14.7766 8.99111 14.5011 8.99111H13.4798V8.50402H14.5011C14.7766 8.50402 14.9999 8.29586 14.9999 8.03908C14.9999 7.78229 14.7766 7.57413 14.5011 7.57413H13.862L14.9288 5.91665C15.0706 5.69646 14.994 5.41087 14.7578 5.27874C14.5216 5.1466 14.2152 5.21803 14.0734 5.43822L12.981 7.13537L11.8886 5.43822C11.7468 5.21801 11.4404 5.14663 11.2042 5.27874C10.968 5.41085 10.8914 5.69646 11.0331 5.91665L12.1 7.57413H11.4608C11.1853 7.57413 10.962 7.78229 10.962 8.03908C10.962 8.29586 11.1853 8.50402 11.4608 8.50402H12.4822V8.99111H11.4609Z" fill="#909090"/>
</svg>
