<svg width="72" height="54" viewBox="0 0 72 54" fill="none" xmlns="http://www.w3.org/2000/svg">
<g clip-path="url(#clip0_361_5201)">
<path d="M39.9049 11.1324H15.9529C15.3805 11.1324 14.916 10.6678 14.916 10.0955C14.916 9.52312 15.3805 9.05859 15.9529 9.05859H39.9049C40.4773 9.05859 40.9418 9.52312 40.9418 10.0955C40.9418 10.6678 40.4773 11.1324 39.9049 11.1324Z" fill="#DD5C45"/>
<path d="M61.109 53.2271H5.61903C2.85539 53.2271 0.607422 50.9791 0.607422 48.2155V14.0702C0.607422 11.3066 2.85539 9.05859 5.61903 9.05859H11.1145C11.6869 9.05859 12.1514 9.52312 12.1514 10.0955C12.1514 10.6678 11.6869 11.1324 11.1145 11.1324H5.61903C3.99873 11.1324 2.68119 12.4499 2.68119 14.0702V48.2155C2.68119 49.8358 3.99873 51.1533 5.61903 51.1533H61.109C62.7293 51.1533 64.0468 49.8358 64.0468 48.2155V26.6234C64.0468 26.0511 64.5113 25.5865 65.0837 25.5865C65.6561 25.5865 66.1206 26.0511 66.1206 26.6234V48.2155C66.1206 50.9791 63.8726 53.2271 61.109 53.2271Z" fill="#DD5C45"/>
<path d="M55.1198 35.3899C54.7645 35.3899 54.4106 35.3111 54.0802 35.1535C49.5898 33.0175 45.7879 29.6732 43.0878 25.4856C40.3145 21.1832 38.8477 16.1923 38.8477 11.0507C38.8477 9.35993 39.0094 7.6622 39.3302 6.00457C39.6108 4.55017 40.8924 3.49393 42.3786 3.49393H48.846C50.7096 3.49393 52.4723 2.57594 53.5576 1.03859C53.9184 0.531204 54.5018 0.227051 55.1198 0.227051C55.7378 0.227051 56.3226 0.529821 56.6807 1.03859C57.7673 2.57594 59.5287 3.49393 61.3923 3.49393H67.8597C69.3459 3.49393 70.6275 4.54879 70.9081 6.00319C71.2275 7.66359 71.3906 9.36131 71.3906 11.0507C71.3906 16.1923 69.9252 21.1832 67.1505 25.4856C64.4504 29.6746 60.6499 33.0175 56.1581 35.1535C55.8277 35.3111 55.4724 35.3899 55.1184 35.3899H55.1198ZM42.3786 5.5677C41.885 5.5677 41.4592 5.91609 41.3666 6.39582C41.0721 7.92488 40.9228 9.49127 40.9228 11.0507C40.9228 15.7928 42.2749 20.3951 44.8312 24.363C47.3225 28.2271 50.8285 31.3115 54.9719 33.2829C55.0673 33.3286 55.1751 33.3286 55.2705 33.2829C59.4125 31.3115 62.92 28.2271 65.4099 24.363C67.9675 20.3965 69.3182 15.7928 69.3182 11.0507C69.3182 9.49265 69.1689 7.92626 68.8745 6.39582C68.7818 5.91609 68.356 5.56631 67.8625 5.56631H61.3951C58.9328 5.56631 56.6046 4.39256 55.1212 2.41557C53.6378 4.39256 51.3096 5.56631 48.8474 5.56631H42.38L42.3786 5.5677Z" fill="#DD5C45"/>
<path d="M55.1193 26.3552C53.6082 26.3552 52.1594 26.0151 50.8114 25.3418C50.2985 25.086 50.0911 24.4639 50.3455 23.951C50.6013 23.4381 51.2234 23.2293 51.7363 23.4851C52.7953 24.0132 53.9331 24.28 55.1193 24.28C59.3083 24.28 62.7176 20.8721 62.7176 16.6817C62.7176 12.4913 59.3097 9.08345 55.1193 9.08345C50.9289 9.08345 47.521 12.4913 47.521 16.6817C47.521 18.0629 47.8957 19.415 48.6035 20.5915C48.898 21.0823 48.7404 21.7196 48.2496 22.0141C47.7588 22.3086 47.1215 22.151 46.827 21.6602C45.9242 20.1601 45.4473 18.4389 45.4473 16.6804C45.4473 11.348 49.7856 7.0083 55.1193 7.0083C60.4531 7.0083 64.7914 11.3466 64.7914 16.6804C64.7914 22.0141 60.4531 26.3524 55.1193 26.3524V26.3552Z" fill="#DD5C45"/>
<path d="M54.2328 20.6275C53.9577 20.6275 53.6936 20.5182 53.5001 20.3233L50.171 16.9942C49.7659 16.5891 49.7659 15.9324 50.171 15.5274C50.5761 15.1223 51.2328 15.1223 51.6378 15.5274L54.2342 18.1237L59.0619 13.296C59.467 12.8909 60.1237 12.8909 60.5288 13.296C60.9339 13.7011 60.9339 14.3578 60.5288 14.7628L54.9669 20.3247C54.772 20.5196 54.5093 20.6288 54.2342 20.6288L54.2328 20.6275Z" fill="#DD5C45"/>
<path d="M21.0336 38.7881H7.77111C6.81856 38.7881 6.04297 38.0125 6.04297 37.0599V31.0294C6.04297 30.0769 6.81856 29.3013 7.77111 29.3013H21.0336C21.9861 29.3013 22.7617 30.0769 22.7617 31.0294V37.0599C22.7617 38.0125 21.9861 38.7881 21.0336 38.7881ZM8.11674 36.7143H20.6879V31.375H8.11674V36.7143Z" fill="#DD5C45"/>
<path d="M58.9586 47.686H37.1052C36.5329 47.686 36.0683 47.2214 36.0683 46.6491C36.0683 46.0767 36.5329 45.6122 37.1052 45.6122H58.613V42.1518H30.2867V45.6122H32.2664C32.8388 45.6122 33.3033 46.0767 33.3033 46.6491C33.3033 47.2214 32.8388 47.686 32.2664 47.686H29.941C28.9885 47.686 28.2129 46.9104 28.2129 45.9578V41.8061C28.2129 40.8536 28.9885 40.078 29.941 40.078H58.9586C59.9111 40.078 60.6867 40.8536 60.6867 41.8061V45.9578C60.6867 46.9104 59.9111 47.686 58.9586 47.686Z" fill="#DD5C45"/>
<path d="M58.9569 47.686H50.1365C49.5641 47.686 49.0996 47.2214 49.0996 46.6491V41.1149C49.0996 40.5425 49.5641 40.078 50.1365 40.078H58.9569C59.9095 40.078 60.6851 40.8536 60.6851 41.8061V45.9578C60.6851 46.9104 59.9095 47.686 58.9569 47.686ZM51.1734 45.6122H58.6113V42.1518H51.1734V45.6122Z" fill="#DD5C45"/>
<path d="M23.3092 47.686H7.07985C6.50749 47.686 6.04297 47.2214 6.04297 46.6491C6.04297 46.0767 6.50749 45.6122 7.07985 45.6122H23.3092C23.8815 45.6122 24.3461 46.0767 24.3461 46.6491C24.3461 47.2214 23.8815 47.686 23.3092 47.686Z" fill="#DD5C45"/>
<path d="M8.00257 43.5398H7.3279C6.75554 43.5398 6.29102 43.0753 6.29102 42.5029C6.29102 41.9306 6.75554 41.4661 7.3279 41.4661H8.00257C8.57493 41.4661 9.03945 41.9306 9.03945 42.5029C9.03945 43.0753 8.57493 43.5398 8.00257 43.5398Z" fill="#DD5C45"/>
<path d="M12.1315 43.5398H11.4568C10.8844 43.5398 10.4199 43.0753 10.4199 42.5029C10.4199 41.9306 10.8844 41.4661 11.4568 41.4661H12.1315C12.7038 41.4661 13.1684 41.9306 13.1684 42.5029C13.1684 43.0753 12.7038 43.5398 12.1315 43.5398Z" fill="#DD5C45"/>
<path d="M16.2623 43.5398H15.5877C15.0153 43.5398 14.5508 43.0753 14.5508 42.5029C14.5508 41.9306 15.0153 41.4661 15.5877 41.4661H16.2623C16.8347 41.4661 17.2992 41.9306 17.2992 42.5029C17.2992 43.0753 16.8347 43.5398 16.2623 43.5398Z" fill="#DD5C45"/>
<path d="M44.1276 26.2169H1.64431C1.07195 26.2169 0.607422 25.7523 0.607422 25.18V17.4075C0.607422 16.8351 1.07195 16.3706 1.64431 16.3706H40.6809C41.2533 16.3706 41.7178 16.8351 41.7178 17.4075C41.7178 17.9798 41.2533 18.4444 40.6809 18.4444H2.68119V24.1431H44.1276C44.6999 24.1431 45.1644 24.6076 45.1644 25.18C45.1644 25.7523 44.6999 26.2169 44.1276 26.2169Z" fill="#DD5C45"/>
</g>
<defs>
<clipPath id="clip0_361_5201">
<rect width="70.7847" height="53" fill="white" transform="translate(0.607422 0.227051)"/>
</clipPath>
</defs>
</svg>
