<svg width="28" height="29" viewBox="0 0 28 29" fill="none" xmlns="http://www.w3.org/2000/svg">
<path d="M22.6284 7.12214C20.7584 5.18782 18.3383 3.95783 15.7117 3.58367L16.4603 2.83503C16.7569 2.53843 16.7569 2.05758 16.4603 1.76099C16.1638 1.46444 15.6829 1.46444 15.3863 1.76099L13.463 3.68427C13.1664 3.98082 13.1664 4.46172 13.463 4.75831L15.3862 6.6816C15.5345 6.8299 15.7289 6.90407 15.9232 6.90407C16.1176 6.90407 16.312 6.8299 16.4602 6.6816C16.7568 6.38505 16.7568 5.90415 16.4602 5.60756L16.0301 5.17744C18.1168 5.58578 20.0306 6.62039 21.5362 8.17781C23.4352 10.1421 24.481 12.729 24.481 15.4618C24.4811 21.2411 19.7792 25.9429 14 25.9429C8.22078 25.9429 3.51894 21.2411 3.51894 15.4618C3.51894 13.2566 4.19573 11.1471 5.4762 9.36142C6.73009 7.61276 8.45865 6.30794 10.4751 5.58806C10.8702 5.447 11.076 5.01248 10.935 4.61741C10.794 4.22238 10.3594 4.01651 9.96437 4.15752C7.65543 4.98185 5.6766 6.47528 4.24176 8.47628C2.77517 10.5216 2 12.9372 2 15.4619C2 18.6672 3.24822 21.6807 5.51473 23.9472C7.78125 26.2135 10.7947 27.4618 14 27.4618C17.2053 27.4618 20.2188 26.2136 22.4853 23.9471C24.7518 21.6806 26 18.6672 26 15.4618C26 12.3329 24.8026 9.37114 22.6284 7.12214Z" fill="#909090"/>
<path d="M19.505 10.1093C16.4487 7.05297 11.5015 7.05255 8.44476 10.1093C5.38844 13.1656 5.38798 18.1128 8.44476 21.1696C11.5011 24.2259 16.4482 24.2264 19.505 21.1696C22.5614 18.1133 22.5619 13.1661 19.505 10.1093ZM15.9327 16.9548C16.2874 16.9548 16.575 17.2424 16.575 17.5972C16.575 17.952 16.2874 18.2396 15.9327 18.2396H14.6173V18.9024C14.6173 19.2572 14.3297 19.5448 13.9749 19.5448C13.6201 19.5448 13.3325 19.2572 13.3325 18.9024V18.2396H12.0172C11.6624 18.2396 11.3748 17.952 11.3748 17.5972C11.3748 17.2424 11.6624 16.9548 12.0172 16.9548H13.3325V16.2818H12.0172C11.6624 16.2818 11.3748 15.9942 11.3748 15.6395C11.3748 15.2847 11.6624 14.9971 12.0172 14.9971H12.8403L11.4663 12.707C11.2838 12.4028 11.3825 12.0083 11.6867 11.8257C11.9909 11.6431 12.3854 11.7418 12.568 12.046L13.9749 14.3909L15.3818 12.046C15.5644 11.7418 15.959 11.6432 16.2632 11.8257C16.5674 12.0082 16.6661 12.4028 16.4836 12.707L15.1095 14.9971H15.9327C16.2875 14.9971 16.5751 15.2847 16.5751 15.6395C16.5751 15.9942 16.2875 16.2818 15.9327 16.2818H14.6174V16.9548H15.9327Z" fill="#909090"/>
</svg>
