<svg width="59" height="58" viewBox="0 0 59 58" fill="none" xmlns="http://www.w3.org/2000/svg">
<path fill-rule="evenodd" clip-rule="evenodd" d="M12.0449 26.2343H13.6012V18.8144C13.6012 12.8642 18.5059 8 24.5017 8C30.4941 8 35.3988 12.8642 35.3988 18.8144V26.2343H36.9551C40.2806 26.2343 43 28.9363 43 32.2366V51.001C43 54.3012 40.2806 57 36.9551 57H12.0449C8.71941 57 6 54.3012 6 51.001V32.2366C6 28.9363 8.71941 26.2343 12.0449 26.2343ZM19.9704 26.2343H29.0295V18.8144C29.0295 16.3563 26.9785 14.3209 24.5016 14.3209C22.0214 14.3209 19.9704 16.3563 19.9704 18.8144V26.2343Z" fill="#DD5C45"/>
<path fill-rule="evenodd" clip-rule="evenodd" d="M53 20L48.0016 26L43 20H53Z" fill="white"/>
<path fill-rule="evenodd" clip-rule="evenodd" d="M54.5784 32H17.4217C15.5372 32 14 33.5602 14 35.4658V44.0873C14 45.9961 15.5372 47.5564 17.4217 47.5564H21.6135V54L28.1783 47.5564H54.5783C56.4595 47.5564 58 45.9961 58 44.0873V35.4658C58.0001 33.5604 56.4597 32 54.5784 32Z" fill="white"/>
<path d="M42.7336 48.6847C42.288 48.6847 41.9268 49.0486 41.9268 49.4972V51.1189C41.9268 54.0171 39.5853 56.375 36.7072 56.375H11.8731C8.99502 56.375 6.65349 54.017 6.65349 51.1189V32.133C6.65349 29.2348 8.99502 26.8769 11.8731 26.8769H36.7071C38.6968 26.8769 40.4891 27.999 41.3845 29.8054C41.5836 30.2069 42.068 30.3697 42.4667 30.1695C42.8654 29.969 43.0273 29.4811 42.8282 29.0796C41.6579 26.7187 39.3125 25.2519 36.7071 25.2519H35.9624V18.5583C35.9624 12.0761 30.727 6.80242 24.2917 6.80242C17.8547 6.80242 12.6178 12.0762 12.6178 18.5583V25.2519H11.8731C8.10528 25.2519 5.03994 28.3388 5.03994 32.133V51.1189C5.03994 54.9131 8.10528 58 11.8731 58H36.7071C40.4749 58 43.5403 54.9131 43.5403 51.1189V49.4972C43.5404 49.0484 43.1791 48.6847 42.7336 48.6847ZM27.9991 25.2518H20.5812V18.5582C20.5812 16.5328 22.2804 14.8216 24.2917 14.8216C26.3013 14.8216 27.999 16.5328 27.999 18.5582V25.2518H27.9991ZM14.2315 18.5582C14.2315 12.9719 18.7446 8.4273 24.2918 8.4273C29.8373 8.4273 34.349 12.972 34.349 18.5582V25.2518H29.6127V18.5582C29.6127 15.6018 27.2258 13.1966 24.2918 13.1966C21.356 13.1966 18.9677 15.6018 18.9677 18.5582V25.2518H14.2315V18.5582ZM54.7799 30.9521H17.7493C15.4242 30.9521 13.5325 32.857 13.5325 35.1986V43.7409C13.5325 46.0824 15.4242 47.9875 17.7493 47.9875H21.1202V53.5628C21.1202 53.889 21.314 54.1836 21.6124 54.3108C21.7138 54.3541 21.8206 54.3753 21.9268 54.3753C22.1324 54.3753 22.3348 54.2961 22.4884 54.1462L28.7995 47.9875H54.7799C57.1069 47.9875 59 46.0825 59 43.7409V35.1986C59 32.857 57.1069 30.9521 54.7799 30.9521ZM57.3864 43.7409C57.3864 45.1864 56.2172 46.3625 54.7799 46.3625H28.4728C28.2632 46.3625 28.0618 46.4447 27.9113 46.5915L22.7337 51.6441V47.175C22.7337 46.7263 22.3724 46.3625 21.927 46.3625H17.7493C16.3138 46.3625 15.146 45.1864 15.146 43.7409V35.1986C15.146 33.7531 16.3139 32.5771 17.7493 32.5771H54.7799C56.2172 32.5771 57.3864 33.7531 57.3864 35.1986V43.7409ZM29.0166 38.3462L27.0843 39.4698L29.0166 40.5935C29.4024 40.8179 29.5346 41.3147 29.3118 41.7033C29.1624 41.9639 28.8912 42.1096 28.6123 42.1096C28.4754 42.1096 28.3367 42.0745 28.2096 42.0006L26.2776 40.8772V43.1226C26.2776 43.5713 25.9164 43.9351 25.4709 43.9351C25.0255 43.9351 24.6642 43.5713 24.6642 43.1226V40.8772L22.7322 42.0006C22.6051 42.0744 22.4663 42.1096 22.3295 42.1096C22.0506 42.1096 21.7795 41.9639 21.63 41.7033C21.4072 41.3147 21.5394 40.8177 21.9253 40.5935L23.8575 39.4698L21.9253 38.3462C21.5394 38.1218 21.4072 37.625 21.63 37.2364C21.8529 36.8478 22.3463 36.7147 22.7322 36.9391L24.6642 38.0625V35.8169C24.6642 35.3683 25.0255 35.0044 25.4709 35.0044C25.9164 35.0044 26.2776 35.3683 26.2776 35.8169V38.0624L28.2096 36.939C28.5956 36.7147 29.089 36.8476 29.3118 37.2363C29.5346 37.6248 29.4026 38.1218 29.0166 38.3462ZM39.812 38.3462L37.8797 39.4698L39.812 40.5935C40.1978 40.8179 40.33 41.3147 40.1072 41.7033C39.9578 41.9639 39.6866 42.1096 39.4077 42.1096C39.2708 42.1096 39.1321 42.0745 39.005 42.0006L37.073 40.877V43.1225C37.073 43.5712 36.7117 43.935 36.2663 43.935C35.8207 43.935 35.4595 43.5712 35.4595 43.1225V40.877L33.5275 42.0005C33.4003 42.0743 33.2616 42.1095 33.1247 42.1095C32.8459 42.1095 32.5748 41.9638 32.4253 41.7032C32.2025 41.3146 32.3347 40.8176 32.7205 40.5933L34.6527 39.4697L32.7205 38.3461C32.3347 38.1217 32.2025 37.6248 32.4253 37.2363C32.6481 36.8477 33.1416 36.7146 33.5275 36.939L35.4595 38.0624V35.8169C35.4595 35.3683 35.8207 35.0044 36.2663 35.0044C36.7119 35.0044 37.073 35.3683 37.073 35.8169V38.0624L39.005 36.9388C39.391 36.7146 39.8842 36.8475 40.1072 37.2361C40.3299 37.6248 40.1978 38.1218 39.812 38.3462ZM50.6041 38.3461L48.6727 39.4698L50.6041 40.5936C50.9899 40.8181 51.1221 41.3149 50.8991 41.7035C50.7497 41.9641 50.4785 42.1096 50.1998 42.1096C50.0627 42.1096 49.924 42.0745 49.7969 42.0005L47.8683 40.8783V43.1225C47.8683 43.5712 47.507 43.935 47.0616 43.935C46.6161 43.935 46.2548 43.5712 46.2548 43.1225V40.8765L44.323 42.0005C44.196 42.0744 44.0571 42.1096 43.9201 42.1096C43.6414 42.1096 43.3703 41.9641 43.2208 41.7035C42.9978 41.3149 43.13 40.818 43.5158 40.5936L45.4472 39.4698L43.5158 38.3461C43.13 38.1215 42.9978 37.6247 43.2208 37.2361C43.4437 36.8475 43.9373 36.7148 44.323 36.9392L46.2548 38.0632V35.8169C46.2548 35.3683 46.6161 35.0044 47.0616 35.0044C47.507 35.0044 47.8683 35.3683 47.8683 35.8169V38.0611L49.7969 36.939C50.1826 36.7143 50.6762 36.8476 50.8991 37.2359C51.1219 37.6246 50.9899 38.1215 50.6041 38.3461ZM24.2918 1.625C34.7711 1.625 43.8839 8.89854 46.3265 19.058H42.616C42.301 19.058 42.0148 19.2428 41.8831 19.5309C41.7514 19.8192 41.7984 20.1581 42.0033 20.3991L47.0008 26.2738C47.1542 26.4541 47.378 26.5577 47.6137 26.5577C47.8493 26.5576 48.0732 26.4538 48.2264 26.2737L53.2207 20.399C53.4255 20.158 53.4724 19.819 53.3406 19.5308C53.2089 19.2427 52.9227 19.058 52.6077 19.058H47.9826C45.5047 7.97524 35.6477 0 24.2918 0C10.8972 0 0 10.9723 0 24.4592C0 24.9079 0.361274 25.2717 0.806718 25.2717C1.25216 25.2717 1.61344 24.9079 1.61344 24.4592C1.61355 11.8683 11.787 1.625 24.2918 1.625ZM47.6132 24.4963L44.3694 20.683H47.3205H47.3242H50.8549L47.6132 24.4963Z" fill="black"/>
</svg>
