<svg width="28" height="29" viewBox="0 0 28 29" fill="none" xmlns="http://www.w3.org/2000/svg">
<path d="M14 2.5C9.313 2.5 5.5 6.313 5.5 11C5.5 19.218 13.339 26.09 13.673 26.378C13.767 26.459 13.883 26.5 14 26.5C14.117 26.5 14.233 26.459 14.327 26.378C14.66 26.089 22.5 19.217 22.5 11C22.5 6.313 18.687 2.5 14 2.5ZM18.462 11.191C18.385 11.378 18.202 11.5 18 11.5H17.5V15C17.5 15.276 17.276 15.5 17 15.5H15C14.724 15.5 14.5 15.276 14.5 15V12.5H13.5V15C13.5 15.276 13.276 15.5 13 15.5H11C10.724 15.5 10.5 15.276 10.5 15V11.5H10C9.798 11.5 9.615 11.378 9.538 11.191C9.46 11.004 9.503 10.789 9.646 10.646L13.646 6.646C13.841 6.451 14.158 6.451 14.353 6.646L18.353 10.646C18.497 10.79 18.54 11.004 18.462 11.191Z" fill="#909090"/>
</svg>
