<svg width="32" height="32" viewBox="0 0 32 32" fill="none" xmlns="http://www.w3.org/2000/svg">
<g clip-path="url(#clip0_855_5938)">
<path d="M0.624948 8.14177C0.969095 8.14177 1.2499 7.86192 1.2499 7.51682V2.21469C1.2499 1.6824 1.68292 1.24843 2.21616 1.24843H7.51829C7.86243 1.24843 8.14324 0.968576 8.14324 0.623483C8.14324 0.278391 7.86338 -0.00146484 7.51829 -0.00146484H2.21521C0.993677 -0.000519385 0 0.993158 0 2.21469V7.51682C0 7.86097 0.279856 8.14177 0.624948 8.14177Z" fill="#DD5C45" stroke="#DD5C45" stroke-width="0.3"/>
<path d="M29.7845 0H24.4824C24.1382 0 23.8574 0.279856 23.8574 0.624948C23.8574 0.970041 24.1373 1.2499 24.4824 1.2499H29.7845C30.3168 1.2499 30.7508 1.68292 30.7508 2.21616V7.51829C30.7508 7.86243 31.0306 8.14324 31.3757 8.14324C31.7208 8.14324 32.0007 7.86338 32.0007 7.51829V2.21521C32.0007 0.993677 31.007 0 29.7854 0H29.7845Z" fill="#DD5C45" stroke="#DD5C45" stroke-width="0.3"/>
<path d="M7.51829 30.7508H2.21616C1.68386 30.7508 1.2499 30.3177 1.2499 29.7845V24.4824C1.2499 24.1382 0.970041 23.8574 0.624948 23.8574C0.279856 23.8574 0 24.1373 0 24.4824V29.7845C0 31.006 0.993677 31.9997 2.21521 31.9997H7.51734C7.86149 31.9997 8.14229 31.7199 8.14229 31.3748C8.14229 31.0297 7.86244 30.7498 7.51734 30.7498L7.51829 30.7508Z" fill="#DD5C45" stroke="#DD5C45" stroke-width="0.3"/>
<path d="M31.3757 23.8584C31.0316 23.8584 30.7508 24.1383 30.7508 24.4833V29.7855C30.7508 30.3178 30.3177 30.7517 29.7845 30.7517H24.4824C24.1382 30.7517 23.8574 31.0316 23.8574 31.3767C23.8574 31.7218 24.1373 32.0016 24.4824 32.0016H29.7845C31.006 32.0016 31.9997 31.008 31.9997 29.7864V24.4843C31.9997 24.1401 31.7199 23.8593 31.3748 23.8593L31.3757 23.8584Z" fill="#DD5C45" stroke="#DD5C45" stroke-width="0.4"/>
<path d="M30.4141 13.4258H23.8862C24.1796 12.7397 24.0679 11.9439 23.5804 11.3578C23.3615 11.1312 23.0761 10.978 22.7677 10.9196C23.1382 9.71034 23.5565 7.51841 22.5044 5.71955C21.4506 3.91537 19.2533 3 15.9739 3C12.6944 3 10.4963 3.91448 9.44329 5.71955C8.38943 7.52284 8.81044 9.71831 9.1827 10.9267C8.89021 10.9931 8.61899 11.1462 8.40804 11.3684C7.92942 11.9483 7.81951 12.7415 8.112 13.4249H1.58587C1.26324 13.4249 1 13.687 1 14.0101C1 14.3332 1.26236 14.5953 1.58587 14.5953H8.62165C8.68547 14.79 8.72003 14.9927 8.72447 15.1928C8.70053 15.6292 8.8583 16.063 9.15877 16.3862C9.38745 16.6137 9.67285 16.7668 9.9875 16.8323C10.0363 17.5591 10.2144 18.2629 10.5237 18.9331C10.7063 19.2456 10.9385 19.5209 11.2142 19.7528L10.9935 21.5057L6.29678 22.9487C5.20569 23.2797 4.47534 24.2668 4.47978 25.4062V26.9182C4.47978 27.5149 4.96549 28 5.56289 28H26.438C27.0354 28 27.5202 27.5149 27.5202 26.9182V25.4062C27.5247 24.2668 26.7943 23.2797 25.7032 22.9487L21.0065 21.5057L20.7858 19.7537C21.0623 19.5209 21.2946 19.2456 21.4807 18.926C21.7883 18.2647 21.9682 17.5609 22.0178 16.8332C22.7818 16.6845 23.3323 15.9789 23.2809 15.2025C23.2817 14.9954 23.3154 14.7918 23.3792 14.5953H30.4141C30.7368 14.5953 31 14.3332 31 14.0101C31 13.687 30.7376 13.4249 30.4141 13.4249V13.4258ZM10.4971 6.24097C11.3463 4.86703 13.189 4.17121 15.9747 4.17121C18.7605 4.17121 20.6059 4.8688 21.4514 6.2392C21.9265 7.12181 22.1073 8.13279 21.9717 9.11987C21.5401 7.90528 20.964 7.07047 20.2567 6.63757C19.7833 6.34366 19.1549 6.46494 18.8252 6.91377C18.5363 7.30683 17.7846 7.96636 16.0004 7.96636C14.2162 7.96636 13.4646 7.30683 13.1766 6.91377C12.8468 6.46406 12.2175 6.34278 11.7451 6.63757C11.0192 7.08198 10.4298 7.9522 9.99282 9.22787C9.83417 8.20715 10.0105 7.15811 10.4989 6.24097H10.4971ZM20.8239 22.6742L25.3602 24.0676C25.9541 24.2482 26.352 24.7856 26.3494 25.4062V26.8297H5.65063V25.4062C5.64797 24.7953 6.05481 24.2456 6.63979 24.0676L11.1752 22.6742C11.6263 23.5825 12.8406 25.0211 15.9987 25.0211C19.1567 25.0211 20.371 23.5825 20.8221 22.6742H20.8239ZM12.1227 21.9129L12.2964 20.5354C12.6111 20.7284 12.8858 20.878 13.0711 20.9736C13.1154 20.9949 13.1544 21.0258 13.1845 21.0621C13.867 21.9315 14.8916 22.4697 15.9951 22.5388H16.0004H16.0058C17.1137 22.468 18.141 21.9262 18.8208 21.056C18.8527 21.0197 18.8917 20.9896 18.9387 20.9683C19.1789 20.8453 19.4457 20.6939 19.7036 20.5354L19.8773 21.9111C19.7585 22.2758 19.0645 23.8507 15.9996 23.8507C12.9346 23.8507 12.2406 22.2767 12.1218 21.912L12.1227 21.9129ZM22.1614 15.2211L22.1091 15.2247C22.1171 15.3495 22.0799 15.4708 22.0027 15.5699C21.8468 15.6824 21.6562 15.7355 21.4568 15.7187C21.1341 15.7187 20.8709 15.9807 20.8709 16.3038C20.8709 17.0271 20.7255 17.7309 20.4437 18.3886C20.2301 18.7941 19.4306 19.3987 18.4095 19.929C18.2207 20.0211 18.0506 20.1547 17.9158 20.3185C17.4532 20.9196 16.7547 21.3021 15.9996 21.3693C15.2479 21.3012 14.553 20.9214 14.0904 20.3229C13.9557 20.1574 13.7899 20.0246 13.6002 19.9308C12.557 19.3899 11.7744 18.7985 11.5608 18.3948C11.2816 17.7291 11.1371 17.0262 11.1318 16.3047C11.1318 15.9825 10.8694 15.7204 10.5397 15.7204C10.3465 15.7373 10.1532 15.6833 9.99637 15.5691C9.92103 15.4717 9.88469 15.3495 9.89532 15.2194C9.89532 15.0104 9.87582 14.8015 9.83416 14.5961H22.1658C22.1251 14.8024 22.1056 15.0122 22.1091 15.2211H22.1614ZM22.6427 13.3302C22.6258 13.363 22.6108 13.3939 22.5957 13.4249H9.40163C9.3972 13.4152 9.39277 13.4063 9.38745 13.3966C9.37593 13.3727 9.36352 13.347 9.35022 13.3214C9.03823 12.7326 9.10028 12.3405 9.25893 12.1732C9.39543 12.0439 9.5984 12.0165 9.77035 12.1068C9.78364 12.1121 9.79783 12.1174 9.81112 12.1218C9.83683 12.1333 9.86341 12.1422 9.89089 12.1501C9.92634 12.1599 9.96268 12.167 10.0043 12.1714C10.0238 12.1767 10.069 12.1767 10.0894 12.1714C10.1284 12.1678 10.1665 12.1608 10.2029 12.1501L10.2277 12.1422C10.249 12.136 10.2702 12.1289 10.2986 12.1174C10.3332 12.0988 10.366 12.0775 10.3943 12.0536C10.4014 12.0483 10.4085 12.043 10.4147 12.0377C10.4351 12.0235 10.4546 12.0085 10.4732 11.9917L10.483 11.9811C10.5069 11.951 10.5273 11.9191 10.5441 11.8881C10.5486 11.8819 10.553 11.8757 10.5548 11.8713C10.5681 11.8491 10.5787 11.8261 10.5902 11.7987C10.5973 11.7792 10.6017 11.7597 10.6062 11.7394C10.615 11.7102 10.6221 11.6783 10.6274 11.6447C10.732 10.7762 11.231 8.40899 12.2822 7.67157C12.7352 8.24788 13.7926 9.13491 16.0013 9.13491C18.2101 9.13491 19.2657 8.25053 19.7124 7.67599C20.6528 8.32755 21.1793 10.33 21.3469 11.4481C21.2804 11.7004 21.3903 11.9642 21.6234 12.0988C21.6704 12.1209 21.7191 12.1369 21.7608 12.1439C21.8024 12.1555 21.8459 12.1617 21.8893 12.1634C21.9283 12.1687 21.9673 12.1705 22.0001 12.1678H22.0143C22.0373 12.1678 22.0542 12.1608 22.0666 12.1555C22.1109 12.1493 22.1543 12.1377 22.1951 12.1218L22.2084 12.1156C22.3768 12.0147 22.5957 12.0368 22.7358 12.1661C22.8988 12.336 22.9609 12.7309 22.6445 13.3293L22.6427 13.3302Z" fill="#DD5C45" stroke="#DD5C45" stroke-width="0.4"/>
</g>
<defs>
<clipPath id="clip0_855_5938">
<rect width="32" height="32" fill="white"/>
</clipPath>
</defs>
</svg>
