<svg width="24" height="24" viewBox="0 0 24 24" fill="none" xmlns="http://www.w3.org/2000/svg">
<path d="M23.4612 21.8602L17.7492 15.9194C19.2179 14.1735 20.0226 11.9768 20.0226 9.68999C20.0226 4.34701 15.6755 0 10.3326 0C4.98959 0 0.642578 4.34701 0.642578 9.68999C0.642578 15.033 4.98959 19.38 10.3326 19.38C12.3384 19.38 14.2499 18.775 15.8841 17.6265L21.6395 23.6124C21.8801 23.8622 22.2036 24 22.5504 24C22.8786 24 23.1899 23.8749 23.4263 23.6474C23.9285 23.1641 23.9445 22.3628 23.4612 21.8602ZM10.3326 2.52782C14.2819 2.52782 17.4947 5.74069 17.4947 9.68999C17.4947 13.6393 14.2819 16.8522 10.3326 16.8522C6.38327 16.8522 3.1704 13.6393 3.1704 9.68999C3.1704 5.74069 6.38327 2.52782 10.3326 2.52782Z" fill="#909090"/>
</svg>
