<svg width="51" height="55" viewBox="0 0 51 55" fill="none" xmlns="http://www.w3.org/2000/svg">
<rect x="1.1543" y="5.14197" width="28.909" height="40.0593" fill="white"/>
<path fill-rule="evenodd" clip-rule="evenodd" d="M27.3249 36.4788V31.6329C27.3249 31.1868 26.9644 30.8252 26.5197 30.8252H22.2249C21.4832 30.8252 20.8828 30.223 20.8828 29.4791V14.403C20.8828 13.6592 21.4832 13.057 22.2249 13.057H47.9934C48.7351 13.057 49.3355 13.6592 49.3355 14.403V29.4791C49.3355 30.223 48.7351 30.8252 47.9934 30.8252H35.1091C34.9349 30.8252 34.7654 30.8819 34.626 30.9868L27.3249 36.4788Z" fill="#DD5C45"/>
<path d="M1.1543 5.14211C1.1543 3.13487 2.78148 1.50769 4.78871 1.50769H26.9925C28.9998 1.50769 30.6269 3.13487 30.6269 5.14211H1.1543Z" fill="#909090"/>
<path d="M30.627 49.1162C30.627 51.3254 28.8361 53.1162 26.627 53.1162L5.1543 53.1162C2.94517 53.1162 1.15431 51.3253 1.15431 49.1162L1.15431 46.0089L30.627 46.0089L30.627 49.1162Z" fill="#909090"/>
<path d="M26.5737 17.6068C27.1664 17.6068 27.6474 18.0892 27.6474 18.6836C27.6474 19.2781 27.1664 19.7605 26.5737 19.7605C25.981 19.7605 25.5 19.2781 25.5 18.6836C25.5 18.0892 25.981 17.6068 26.5737 17.6068Z" fill="white"/>
<path d="M26.5737 24.068C27.1664 24.068 27.6474 24.5504 27.6474 25.1448C27.6474 25.7392 27.1664 26.2217 26.5737 26.2217C25.981 26.2217 25.5 25.7392 25.5 25.1448C25.5 24.5504 25.981 24.068 26.5737 24.068Z" fill="white"/>
<path d="M11.5424 48.405C12.1351 48.405 12.6161 48.8874 12.6161 49.4819C12.6161 50.0763 12.1351 50.5587 11.5424 50.5587C10.9498 50.5587 10.4688 50.0763 10.4688 49.4819C10.4688 48.8874 10.9498 48.405 11.5424 48.405Z" fill="white"/>
<path d="M26.5737 17.6068C27.1664 17.6068 27.6474 18.0892 27.6474 18.6836C27.6474 19.2781 27.1664 19.7605 26.5737 19.7605C25.981 19.7605 25.5 19.2781 25.5 18.6836C25.5 18.0892 25.981 17.6068 26.5737 17.6068Z" fill="black"/>
<path d="M26.5737 24.068C27.1664 24.068 27.6474 24.5504 27.6474 25.1448C27.6474 25.7392 27.1664 26.2217 26.5737 26.2217C25.981 26.2217 25.5 25.7392 25.5 25.1448C25.5 24.5504 25.981 24.068 26.5737 24.068Z" fill="black"/>
<path d="M11.5424 48.405C12.1351 48.405 12.6161 48.8874 12.6161 49.4819C12.6161 50.0763 12.1351 50.5587 11.5424 50.5587C10.9498 50.5587 10.4688 50.0763 10.4688 49.4819C10.4688 48.8874 10.9498 48.405 11.5424 48.405Z" fill="black"/>
<path fill-rule="evenodd" clip-rule="evenodd" d="M26.2134 38.7895C26.4862 38.9263 26.8127 38.8968 27.0567 38.7132L35.4314 32.4136H48.0472C49.6784 32.4136 50.9999 31.0882 50.9999 29.4522V14.3761C50.9999 12.7401 49.6784 11.4147 48.0472 11.4147H22.2788C20.6476 11.4147 19.3262 12.7401 19.3262 14.3761V29.4522C19.3262 31.0882 20.6476 32.4136 22.2788 32.4136H25.7683V38.0671C25.7683 38.373 25.9406 38.6527 26.2134 38.7895ZM27.3788 36.4518V31.6059C27.3788 31.1599 27.0183 30.7983 26.5735 30.7983H22.2788C21.5371 30.7983 20.9367 30.1961 20.9367 29.4522V14.3761C20.9367 13.6322 21.5371 13.03 22.2788 13.03H48.0472C48.7889 13.03 49.3893 13.6322 49.3893 14.3761V29.4522C49.3893 30.1961 48.7889 30.7983 48.0472 30.7983H35.163C34.9888 30.7983 34.8193 30.8549 34.6799 30.9598L27.3788 36.4518Z" fill="black"/>
<path fill-rule="evenodd" clip-rule="evenodd" d="M30.0625 18.6836C30.0625 19.1296 30.423 19.4912 30.8678 19.4912H43.752C44.1967 19.4912 44.5572 19.1296 44.5572 18.6836C44.5572 18.2375 44.1967 17.8759 43.752 17.8759H30.8678C30.423 17.8759 30.0625 18.2375 30.0625 18.6836Z" fill="black"/>
<path fill-rule="evenodd" clip-rule="evenodd" d="M30.0625 25.1447C30.0625 25.5908 30.423 25.9524 30.8678 25.9524H43.752C44.1967 25.9524 44.5572 25.5908 44.5572 25.1447C44.5572 24.6987 44.1967 24.3371 43.752 24.3371H30.8678C30.423 24.3371 30.0625 24.6987 30.0625 25.1447Z" fill="black"/>
<path fill-rule="evenodd" clip-rule="evenodd" d="M0 49.4819C0 52.3068 2.2835 54.597 5.1 54.597H26.5737C29.3902 54.597 31.6737 52.3068 31.6737 49.4819V34.8366C31.6737 34.3905 31.3132 34.0289 30.8684 34.0289C30.4237 34.0289 30.0632 34.3905 30.0632 34.8366V49.4819C30.0632 51.4147 28.5007 52.9818 26.5737 52.9818H5.1C3.17297 52.9818 1.61053 51.4147 1.61053 49.4819V5.11515C1.61053 3.18241 3.17297 1.61535 5.1 1.61535H26.5737C28.5007 1.61535 30.0632 3.18241 30.0632 5.11515V12.2225C30.0632 12.6685 30.4237 13.0301 30.8684 13.0301C31.3132 13.0301 31.6737 12.6685 31.6737 12.2225V5.11515C31.6737 2.29031 29.3902 4.95911e-05 26.5737 4.95911e-05H5.1C2.2835 4.95911e-05 0 2.29031 0 5.11515V49.4819Z" fill="black"/>
<path fill-rule="evenodd" clip-rule="evenodd" d="M15.0312 49.4819C15.0312 49.928 15.3918 50.2896 15.8365 50.2896H20.1313C20.576 50.2896 20.9365 49.928 20.9365 49.4819C20.9365 49.0359 20.576 48.6743 20.1313 48.6743H15.8365C15.3918 48.6743 15.0312 49.0359 15.0312 49.4819Z" fill="black"/>
<path fill-rule="evenodd" clip-rule="evenodd" d="M0 5.11508C0 5.56113 0.360529 5.92273 0.805264 5.92273H30.8684C31.3132 5.92273 31.6737 5.56113 31.6737 5.11508C31.6737 4.66903 31.3132 4.30743 30.8684 4.30743H0.805264C0.360529 4.30743 0 4.66903 0 5.11508Z" fill="black"/>
<path fill-rule="evenodd" clip-rule="evenodd" d="M0 45.1745C0 45.6206 0.360529 45.9822 0.805264 45.9822H30.8684C31.3132 45.9822 31.6737 45.6206 31.6737 45.1745C31.6737 44.7285 31.3132 44.3669 30.8684 44.3669H0.805264C0.360529 44.3669 0 44.7285 0 45.1745Z" fill="black"/>
</svg>
