<svg width="20" height="28" viewBox="0 0 20 28" fill="none" xmlns="http://www.w3.org/2000/svg">
<path d="M1.12598 25.158C1.12598 26.4491 2.17635 27.4995 3.46732 27.4995H16.5552C17.8464 27.4995 18.8968 26.4491 18.8968 25.158V9.46484H1.12598V25.158ZM13.2675 13.0193C13.2675 12.5824 13.6216 12.2283 14.0586 12.2283C14.4953 12.2283 14.8496 12.5824 14.8496 13.0193V22.363C14.8496 22.7999 14.4953 23.154 14.0586 23.154C13.6216 23.154 13.2675 22.7999 13.2675 22.363V13.0193ZM9.22035 13.0193C9.22035 12.5824 9.57445 12.2283 10.0114 12.2283C10.4481 12.2283 10.8024 12.5824 10.8024 13.0193V22.363C10.8024 22.7999 10.4481 23.154 10.0114 23.154C9.57445 23.154 9.22035 22.7999 9.22035 22.363V13.0193ZM5.17316 13.0193C5.17316 12.5824 5.52727 12.2283 5.96418 12.2283C6.40089 12.2283 6.7552 12.5824 6.7552 13.0193V22.363C6.7552 22.7999 6.40089 23.154 5.96418 23.154C5.52727 23.154 5.17316 22.7999 5.17316 22.363V13.0193Z" fill="#DCDCDC"/>
<path d="M20.0001 7.11883C20.0001 5.06588 18.3299 3.39567 16.2769 3.39567H13.7982V2.84196C13.7982 1.55058 12.7476 0.5 11.456 0.5H8.56652C7.27514 0.5 6.22436 1.55058 6.22436 2.84196V3.39567H3.74562C1.69267 3.39567 0.0224609 5.06588 0.0224609 7.11883V7.88348H20.0001V7.11883ZM12.2161 3.39567H7.8064V2.84196C7.8064 2.42296 8.14732 2.08204 8.56652 2.08204H11.456C11.8752 2.08204 12.2161 2.42296 12.2161 2.84196V3.39567Z" fill="#DCDCDC"/>
</svg>
