<svg width="28" height="29" viewBox="0 0 28 29" fill="none" xmlns="http://www.w3.org/2000/svg">
<path d="M8.29581 16.847L13.04 21.5911C13.2949 21.8461 13.4667 22.1897 13.5111 22.5499L13.8935 25.4319C13.9267 25.6979 13.899 25.9584 13.8103 26.2078H25.5599C27.0618 26.2078 28.1315 24.7447 27.6715 23.3148L25.8481 17.6174C25.2606 15.7884 23.2599 14.8407 21.4753 15.5335C20.2892 15.9935 18.7651 16.3537 16.8974 16.3537C15.0296 16.3537 13.5055 15.9935 12.3195 15.5335C10.8009 14.9405 9.12715 15.5335 8.29581 16.847Z" fill="#909090"/>
<path d="M16.8914 14.2201C13.7356 14.2201 11.1774 11.6618 11.1774 8.50604C11.1774 5.35026 13.7356 2.79199 16.8914 2.79199C20.0472 2.79199 22.6055 5.35026 22.6055 8.50604C22.6055 11.6618 20.0472 14.2201 16.8914 14.2201Z" fill="#909090"/>
<path d="M2.58147 19.2636L8.97721 25.6593C9.06034 25.7425 9.17673 25.7979 9.29866 25.8145L12.1806 26.1969C12.5409 26.2468 12.8512 25.9365 12.8014 25.5762L12.4189 22.6942C12.4023 22.5723 12.3469 22.4615 12.2638 22.3728L5.86801 15.9771L2.58147 19.2636Z" fill="#909090"/>
<path d="M0.62499 17.307L1.4397 18.1217L4.7207 14.8407L3.90599 14.026C3.36285 13.4829 2.48718 13.4829 1.94958 14.026L0.62499 15.3506C0.0873923 15.8882 0.0873923 16.7639 0.62499 17.307Z" fill="#909090"/>
</svg>
