<svg width="28" height="24" viewBox="0 0 28 24" fill="none" xmlns="http://www.w3.org/2000/svg">
<g clip-path="url(#clip0_783_9061)">
<path d="M12.0099 1.1561L0.804491 20.5524C0.173527 21.6507 0.547431 23.0646 1.64578 23.6955C1.99631 23.8942 2.39359 23.9993 2.80254 23.9993H25.2018C26.4754 23.9993 27.5036 22.9711 27.5036 21.6975C27.5036 21.2885 27.3985 20.8912 27.1998 20.5407L15.9944 1.1561C15.3634 0.0577508 13.9496 -0.327838 12.8512 0.31481C12.5007 0.513447 12.2086 0.80556 12.0099 1.1561Z" fill="#DD5C45"/>
<path d="M14.1594 7.13916H13.8556C13.1393 7.13916 12.5586 7.71984 12.5586 8.43614V14.6757C12.5586 15.392 13.1393 15.9727 13.8556 15.9727H14.1594C14.8757 15.9727 15.4564 15.392 15.4564 14.6757V8.43614C15.4564 7.71984 14.8757 7.13916 14.1594 7.13916Z" fill="white"/>
<path d="M14.0075 20.9036C14.8077 20.9036 15.4564 20.2549 15.4564 19.4547C15.4564 18.6545 14.8077 18.0059 14.0075 18.0059C13.2073 18.0059 12.5586 18.6545 12.5586 19.4547C12.5586 20.2549 13.2073 20.9036 14.0075 20.9036Z" fill="white"/>
</g>
<defs>
<clipPath id="clip0_783_9061">
<rect width="27.0029" height="24" fill="white" transform="translate(0.5)"/>
</clipPath>
</defs>
</svg>
